#N canvas 355 128 965 668 10;
#X obj 345 27 bng 15 250 50 0 empty empty empty 17 7 0 10 -262144 -1
-1;
#X floatatom 345 75 5 0 0 0 - - -, f 5;
#X obj 437 27 bng 15 250 50 0 empty empty empty 17 7 0 10 -262144 -1
-1;
#X floatatom 437 75 5 0 0 0 - - -, f 5;
#X obj 70 13 loadbang;
#X obj 345 101 s \$0-instance;
#X obj 437 100 s \$0-encoder;
#X obj 777 99 s \$0-channel;
#X obj 791 48 r MIDI-CHANNEL;
#X obj 90 178 r \$0-channel;
#X obj 21 197 midi-encoder;
#X obj 21 155 r \$0-encoder;
#X obj 49 216 r \$0-instance;
#X obj 321 487 textfile;
#X msg 294 430 bang;
#X msg 340 431 rewind;
#X obj 132 675 r \$0-channel;
#X obj 115 653 r \$0-encoder;
#X obj 99 696 ctlout;
#X obj 492 252 table \$0-values;
#X obj 321 1036 tabwrite \$0-values;
#X msg 426 1014 1;
#X obj 321 999 t f b;
#X obj 343 971 tabwrite \$0-values;
#X obj 343 934 t f b;
#X msg 448 949 2;
#X obj 98 604 tabread \$0-values;
#X floatatom 98 631 5 0 0 0 - - -, f 5;
#X obj 366 900 tabwrite \$0-values;
#X obj 366 863 t f b;
#X msg 471 878 3;
#X obj 387 830 tabwrite \$0-values;
#X obj 387 793 t f b;
#X msg 492 808 4;
#X obj 407 762 tabwrite \$0-values;
#X obj 407 725 t f b;
#X msg 512 740 5;
#X obj 427 688 tabwrite \$0-values;
#X obj 427 651 t f b;
#X msg 532 666 6;
#X obj 321 509 unpack f f f f f f;
#X obj 71 28 bng 15 250 50 0 empty empty empty 17 7 0 10 -262144 -1
-1;
#X obj 71 52 symbol \$1;
#X obj 21 303 s;
#X obj 71 102 s \$0-module;
#X obj 36 280 r \$0-module;
#X symbolatom 71 78 10 0 0 0 - - -, f 10;
#X obj 161 28 bng 15 250 50 0 empty empty empty 17 7 0 10 -262144 -1
-1;
#X symbolatom 161 78 10 0 0 0 - - -, f 10;
#X obj 161 52 symbol \$2;
#X obj 161 102 s \$0-param;
#X obj 21 238 pack f f s;
#X obj 140 223 r \$0-param;
#X msg 21 259 \$3 \$1 \$2;
#X obj 247 27 bng 15 250 50 0 empty empty empty 17 7 0 10 -262144 -1
-1;
#X floatatom 247 75 5 0 0 0 - - -, f 5;
#X obj 247 51 f \$3;
#X obj 247 101 s \$0-position;
#X obj 345 51 f \$4;
#X obj 437 51 f \$5;
#X obj 98 582 f;
#X obj 113 556 r \$0-position;
#X msg 98 502 bang;
#X obj 98 526 delay 5;
#X obj 318 254 r \$0-instance;
#X obj 300 308 pack f s;
#X symbolatom 300 351 20 0 0 0 - - -, f 20;
#X msg 300 332 symbol \$1-\$2;
#X obj 300 393 t b b b s;
#X obj 300 374 symbol;
#X msg 321 462 read ../patch_editor_abs/statesave/\$1-ss.txt;
#X obj 522 27 bng 15 250 50 0 empty empty empty 17 7 0 10 -262144 -1
-1;
#X obj 522 51 symbol \$6;
#X symbolatom 522 76 10 0 0 0 - - -, f 10;
#X obj 522 101 s \$0-filename;
#X obj 791 194 r \$0-filename;
#X obj 791 304 bng 15 250 50 0 empty empty empty 17 7 0 10 -262144
-1 -1;
#X obj 366 291 r \$0-file;
#X obj 850 406 s \$0-file;
#X symbolatom 850 382 10 0 0 0 - - -, f 10;
#X obj 789 340 r \$0-module;
#X obj 756 367 symbol;
#X obj 791 281 sel symbol;
#X msg 847 254 symbol;
#X obj 791 222 t s b;
#X obj 300 198 loadbang;
#X obj 300 281 f;
#X obj 300 224 delay 1000;
#X obj 775 29 inlet;
#X obj 700 44 loadbang;
#X obj 701 66 delay 50;
#X obj 776 72 f 1;
#X connect 0 0 58 0;
#X connect 1 0 5 0;
#X connect 2 0 59 0;
#X connect 3 0 6 0;
#X connect 4 0 0 0;
#X connect 4 0 2 0;
#X connect 4 0 41 0;
#X connect 4 0 47 0;
#X connect 4 0 54 0;
#X connect 4 0 71 0;
#X connect 8 0 91 1;
#X connect 9 0 10 1;
#X connect 10 0 51 0;
#X connect 11 0 10 0;
#X connect 12 0 51 1;
#X connect 13 0 62 0;
#X connect 13 0 40 0;
#X connect 14 0 13 0;
#X connect 15 0 13 0;
#X connect 16 0 18 2;
#X connect 17 0 18 1;
#X connect 21 0 20 1;
#X connect 22 0 20 0;
#X connect 22 1 21 0;
#X connect 24 0 23 0;
#X connect 24 1 25 0;
#X connect 25 0 23 1;
#X connect 26 0 27 0;
#X connect 27 0 18 0;
#X connect 29 0 28 0;
#X connect 29 1 30 0;
#X connect 30 0 28 1;
#X connect 32 0 31 0;
#X connect 32 1 33 0;
#X connect 33 0 31 1;
#X connect 35 0 34 0;
#X connect 35 1 36 0;
#X connect 36 0 34 1;
#X connect 38 0 37 0;
#X connect 38 1 39 0;
#X connect 39 0 37 1;
#X connect 40 0 22 0;
#X connect 40 1 24 0;
#X connect 40 2 29 0;
#X connect 40 3 32 0;
#X connect 40 4 35 0;
#X connect 40 5 38 0;
#X connect 41 0 42 0;
#X connect 42 0 46 0;
#X connect 45 0 43 1;
#X connect 46 0 44 0;
#X connect 47 0 49 0;
#X connect 48 0 50 0;
#X connect 49 0 48 0;
#X connect 51 0 53 0;
#X connect 52 0 51 2;
#X connect 53 0 43 0;
#X connect 54 0 56 0;
#X connect 55 0 57 0;
#X connect 56 0 55 0;
#X connect 58 0 1 0;
#X connect 59 0 3 0;
#X connect 60 0 26 0;
#X connect 61 0 60 1;
#X connect 62 0 63 0;
#X connect 63 0 60 0;
#X connect 64 0 86 1;
#X connect 65 0 67 0;
#X connect 66 0 69 0;
#X connect 67 0 66 0;
#X connect 68 0 14 0;
#X connect 68 1 15 0;
#X connect 68 2 70 0;
#X connect 68 3 70 0;
#X connect 69 0 68 0;
#X connect 70 0 13 0;
#X connect 71 0 72 0;
#X connect 72 0 73 0;
#X connect 73 0 74 0;
#X connect 75 0 84 0;
#X connect 76 0 81 0;
#X connect 77 0 65 1;
#X connect 79 0 78 0;
#X connect 80 0 81 1;
#X connect 81 0 79 0;
#X connect 82 0 76 0;
#X connect 82 1 79 0;
#X connect 83 0 82 1;
#X connect 84 0 82 0;
#X connect 84 1 83 0;
#X connect 85 0 87 0;
#X connect 86 0 65 0;
#X connect 87 0 86 0;
#X connect 88 0 91 0;
#X connect 89 0 90 0;
#X connect 90 0 91 0;
#X connect 91 0 7 0;
