#N canvas 1281 282 760 477 10;
#X obj 110 128 hsl 100 15 0 1 0 0 empty empty empty -2 -8 0 10 -262144
-1 -1 0 1;
#X obj 110 149 hsl 100 15 0 1 0 0 empty empty empty -2 -8 0 10 -262144
-1 -1 0 1;
#X obj 110 170 hsl 100 15 0 7000 0 0 empty empty empty -2 -8 0 10 -262144
-1 -1 0 1;
#X obj 110 190 hsl 100 15 0 1 0 0 empty empty empty -2 -8 0 10 -262144
-1 -1 0 1;
#X obj 197 108 tgl 15 0 empty empty empty 17 7 0 10 -262144 -1 -1 0
1;
#X text 108 126 wet;
#X text 109 147 dry;
#X text 111 169 length;
#X text 111 188 feedback;
#X obj 184 285 sig~;
#X obj 256 295 *~ 0.6;
#X obj 184 304 lop~ 1;
#X obj 184 323 vd~ \$0-delay;
#X obj 330 118 inlet~;
#X obj 184 371 outlet~;
#X obj 310 323 *~ 1;
#X obj 184 342 *~ 1;
#X obj 332 233 delwrite~ \$0-delay 7000;
#X obj 230 123 == 0;
#X msg 230 145 0;
#X msg 230 166 1;
#X connect 0 0 16 1;
#X connect 1 0 15 1;
#X connect 2 0 9 0;
#X connect 3 0 10 1;
#X connect 4 0 18 0;
#X connect 9 0 11 0;
#X connect 10 0 17 0;
#X connect 11 0 12 0;
#X connect 12 0 10 0;
#X connect 12 0 16 0;
#X connect 13 0 15 0;
#X connect 13 0 17 0;
#X connect 15 0 14 0;
#X connect 16 0 14 0;
#X connect 18 0 19 0;
#X connect 19 0 0 0;
#X connect 19 0 20 0;
#X connect 20 0 1 0;
#X coords 0 -1 1 1 120 110 1 100 100;
