#N canvas 1281 282 760 477 10;
#X obj 110 128 hsl 100 15 0 1 0 0 empty empty empty -2 -8 0 10 -262144
-1 -1 7600 1;
#X obj 110 149 hsl 100 15 0 1 0 0 empty empty empty -2 -8 0 10 -262144
-1 -1 9900 1;
#X obj 110 170 hsl 100 15 0 7000 0 0 empty empty empty -2 -8 0 10 -262144
-1 -1 100 1;
#X obj 110 190 hsl 100 15 0 1 0 0 empty empty empty -2 -8 0 10 -262144
-1 -1 3000 1;
#X text 108 126 wet;
#X text 109 147 dry;
#X text 111 169 length;
#X text 111 188 feedback;
#X obj 184 285 sig~;
#X obj 184 304 lop~ 1;
#X obj 184 323 vd~ \$0-delay;
#X obj 330 118 inlet~;
#X obj 184 371 outlet~;
#X obj 310 323 *~ 1;
#X obj 184 342 *~ 1;
#X obj 332 233 delwrite~ \$0-delay 7000;
#X obj 256 295 *~ 0;
#X obj 196 13 loadbang;
#X msg 196 37 1;
#X msg 107 41 0;
#X obj 197 108 bng 15 250 50 0 empty empty empty 17 7 0 10 -262144
-1 -1;
#X connect 0 0 14 1;
#X connect 1 0 13 1;
#X connect 2 0 8 0;
#X connect 3 0 16 1;
#X connect 8 0 9 0;
#X connect 9 0 10 0;
#X connect 10 0 14 0;
#X connect 10 0 16 0;
#X connect 11 0 13 0;
#X connect 11 0 15 0;
#X connect 13 0 12 0;
#X connect 14 0 12 0;
#X connect 16 0 15 0;
#X connect 17 0 18 0;
#X connect 17 0 19 0;
#X connect 18 0 1 0;
#X connect 19 0 0 0;
#X connect 19 0 2 0;
#X connect 19 0 3 0;
#X connect 20 0 19 0;
#X connect 20 0 18 0;
#X coords 0 -1 1 1 120 110 1 100 100;
