#N canvas 63 559 450 300 12;
#X obj 14 36 abl_link~;
#X obj 91 92 expr 60000 / ($f1 * 24);
#X obj 59 126 metro;
#X msg 59 157 248;
#X obj 59 185 midiout;
#X obj 59 62 t b f;
#X connect 0 3 5 0;
#X connect 1 0 2 1;
#X connect 2 0 3 0;
#X connect 3 0 4 0;
#X connect 5 0 2 0;
#X connect 5 1 1 0;
