#N canvas 315 565 1387 717 10;
#X obj 110 128 hsl 100 15 0 1 0 0 \$0-wet \$0-in-wet empty -2 -8 0
10 -262144 -1 -1 2806 1;
#X obj 110 149 hsl 100 15 0 1 0 0 \$0-dry empty empty -2 -8 0 10 -262144
-1 -1 9900 1;
#X obj 110 170 hsl 100 15 0 1 0 0 \$0-length \$0-in-length empty -2
-8 0 10 -262144 -1 -1 3118 1;
#X obj 110 190 hsl 100 15 0 1 0 0 \$0-feedback \$0-in-feedback empty
-2 -8 0 10 -262144 -1 -1 5846 1;
#X text 108 126 wet;
#X text 109 147 dry;
#X text 111 169 length;
#X text 111 188 feedback;
#X obj 249 370 sig~;
#X obj 249 389 lop~ 1;
#X obj 388 411 *~ 1;
#X obj 249 427 *~ 1;
#X obj 334 383 *~ 0;
#X obj 196 13 loadbang;
#X msg 196 37 1;
#X msg 107 41 0;
#X obj 411 376 r \$0-dry;
#X obj 313 284 r \$0-feedback;
#X obj 192 410 r \$0-wet;
#X obj 32 541 r~ \$0-outlet;
#X obj 32 561 outlet~;
#X obj 12 13 inlet~;
#X obj 12 35 s~ \$0-inlet;
#X obj 408 206 r~ \$0-inlet;
#X obj 249 408 vd~ \$0-delay;
#X obj 249 456 s~ \$0-outlet;
#X obj 410 321 delwrite~ \$0-delay \$1;
#X obj 249 348 * 4000;
#X obj 249 324 r \$0-length;
#X obj 389 21 inlet;
#X obj 389 46 route wet length feedback;
#X obj 487 67 s \$0-in-feedback;
#X obj 438 87 s \$0-in-length;
#X obj 389 107 s \$0-in-wet;
#X connect 8 0 9 0;
#X connect 9 0 24 0;
#X connect 10 0 25 0;
#X connect 11 0 25 0;
#X connect 12 0 26 0;
#X connect 13 0 14 0;
#X connect 13 0 15 0;
#X connect 14 0 1 0;
#X connect 15 0 0 0;
#X connect 15 0 2 0;
#X connect 15 0 3 0;
#X connect 16 0 10 1;
#X connect 17 0 12 1;
#X connect 18 0 11 1;
#X connect 19 0 20 0;
#X connect 21 0 22 0;
#X connect 23 0 10 0;
#X connect 23 0 26 0;
#X connect 24 0 11 0;
#X connect 24 0 12 0;
#X connect 27 0 8 0;
#X connect 28 0 27 0;
#X connect 29 0 30 0;
#X connect 30 0 33 0;
#X connect 30 1 32 0;
#X connect 30 2 31 0;
#X coords 0 -1 1 1 120 110 1 100 100;
