#N canvas 1072 190 835 746 10;
#X obj 263 70 s \$0-channel;
#X obj 48 47 route wet length feedback channel;
#X obj 177 70 s \$0-feedback;
#X obj 48 70 s \$0-wet;
#X obj 104 70 s \$0-length;
#X obj 50 335 outlet;
#X obj 50 305 r \$0-control-out;
#X obj 266 365 s \$0-control-out;
#X obj 264 199 s \$0-control-out;
#X obj 264 284 s \$0-control-out;
#X obj 364 144 r \$0-channel;
#X obj 373 231 r \$0-channel;
#X obj 381 315 r \$0-channel;
#X obj 264 152 r \$0-wet;
#X obj 264 175 midi-encoder-state-settings \$1 wet;
#X obj 264 237 r \$0-length;
#X obj 264 260 midi-encoder-state-settings \$1 length;
#X obj 266 341 midi-encoder-state-settings \$1 feedback;
#X obj 266 318 r \$0-feedback;
#X obj 48 17 inlet assignments;
#X obj 510 14 inlet values;
#X obj 510 44 route wet length feedback;
#X obj 697 67 s \$0-feedback-val;
#X obj 595 67 s \$0-length-val;
#X obj 510 67 s \$0-wet-val;
#X obj 497 310 r \$0-feedback-val;
#X obj 483 231 r \$0-length-val;
#X obj 465 144 r \$0-wet-val;
#X connect 1 0 3 0;
#X connect 1 1 4 0;
#X connect 1 2 2 0;
#X connect 1 3 0 0;
#X connect 6 0 5 0;
#X connect 10 0 14 1;
#X connect 11 0 16 1;
#X connect 12 0 17 1;
#X connect 13 0 14 0;
#X connect 14 0 8 0;
#X connect 15 0 16 0;
#X connect 16 0 9 0;
#X connect 17 0 7 0;
#X connect 18 0 17 0;
#X connect 19 0 1 0;
#X connect 20 0 21 0;
#X connect 21 0 24 0;
#X connect 21 1 23 0;
#X connect 21 2 22 0;
#X connect 25 0 17 2;
#X connect 26 0 16 2;
#X connect 27 0 14 2;
