#N canvas 0 23 852 633 10;
#X obj 421 13 inlet~;
#X obj 473 316 unpack;
#X msg 339 273 auto 1;
#X floatatom 507 344 5 0 0 0 - - -, f 5;
#X obj 339 249 loadbang;
#X text 50 375 https://forum.pdpatchrepo.info/topic/5235/fiddle-signal-to-midi-better-way-to-generate-midi-note-durations/5
;
#X obj 508 408 i;
#X floatatom 451 432 5 0 0 0 - - -, f 5;
#X floatatom 448 343 5 0 0 0 - - -, f 5;
#X obj 450 406 i;
#X obj 448 375 + 0.5;
#X obj 427 288 fiddle~ 2048;
#X obj 475 486 poly 1 1;
#X obj 502 522 noteout;
#X obj 580 397 sel 0;
#X obj 581 450 bng 15 250 50 0 empty empty empty 17 7 0 10 -262144
-1 -1;
#X obj 580 375 change;
#X connect 0 0 11 0;
#X connect 1 1 3 0;
#X connect 2 0 11 0;
#X connect 3 0 6 0;
#X connect 3 0 16 0;
#X connect 4 0 2 0;
#X connect 6 0 12 1;
#X connect 7 0 12 0;
#X connect 8 0 10 0;
#X connect 9 0 7 0;
#X connect 10 0 9 0;
#X connect 11 0 8 0;
#X connect 11 2 1 0;
#X connect 12 1 13 0;
#X connect 12 2 13 1;
#X connect 14 0 15 0;
#X connect 15 0 6 0;
#X connect 15 0 9 0;
#X connect 16 0 14 0;
