#N canvas 462 328 1224 679 10;
#X obj 110 128 hsl 100 15 0 1 0 0 \$0-wet \$0-midi-wet empty -2 -8
0 10 -262144 -1 -1 546 1;
#X obj 110 149 hsl 100 15 0 1 0 0 \$0-dry empty empty -2 -8 0 10 -262144
-1 -1 9900 1;
#X obj 110 170 hsl 100 15 0 1 0 0 \$0-length \$0-midi-length empty
-2 -8 0 10 -262144 -1 -1 0 1;
#X obj 110 190 hsl 100 15 0 1 0 0 \$0-feedback \$0-midi-feedback empty
-2 -8 0 10 -262144 -1 -1 2884 1;
#X text 108 126 wet;
#X text 109 147 dry;
#X text 111 169 length;
#X text 111 188 feedback;
#X obj 249 370 sig~;
#X obj 249 389 lop~ 1;
#X obj 388 411 *~ 1;
#X obj 249 427 *~ 1;
#X obj 334 383 *~ 0;
#X obj 196 13 loadbang;
#X msg 196 37 1;
#X msg 107 41 0;
#X obj 675 17 inlet midi-wet;
#X obj 767 17 inlet midi-length;
#X obj 878 18 inlet midi-feedback;
#X obj 878 37 / 127;
#X obj 767 36 / 127;
#X obj 675 36 / 127;
#X obj 674 56 s \$0-midi-wet;
#X obj 767 58 s \$0-midi-length;
#X obj 878 58 s \$0-midi-feedback;
#X obj 411 376 r \$0-dry;
#X obj 313 284 r \$0-feedback;
#X obj 192 410 r \$0-wet;
#X obj 32 541 r~ \$0-outlet;
#X obj 32 561 outlet~;
#X obj 12 13 inlet~;
#X obj 12 35 s~ \$0-inlet;
#X obj 408 206 r~ \$0-inlet;
#X obj 249 408 vd~ \$0-delay;
#X obj 249 456 s~ \$0-outlet;
#X obj 410 321 delwrite~ \$0-delay \$1;
#X obj 897 198 s \$0-midi-feedback;
#X obj 948 158 r \$0-feedback;
#X obj 897 178 sssad \$0-feedback;
#X obj 890 342 outlet;
#X obj 889 301 r \$0-midi-feedback;
#X obj 889 322 * 127;
#X obj 777 198 s \$0-midi-length;
#X obj 777 178 sssad \$0-length;
#X obj 828 158 r \$0-length;
#X obj 770 342 outlet;
#X obj 769 322 * 127;
#X obj 769 301 r \$0-midi-length;
#X obj 657 198 s \$0-midi-wet;
#X obj 708 158 r \$0-wet;
#X obj 657 178 sssad \$0-wet;
#X obj 661 342 outlet;
#X obj 660 322 * 127;
#X obj 660 301 r \$0-midi-wet;
#X obj 249 348 * 4000;
#X obj 249 324 r \$0-length;
#X connect 8 0 9 0;
#X connect 9 0 33 0;
#X connect 10 0 34 0;
#X connect 11 0 34 0;
#X connect 12 0 35 0;
#X connect 13 0 14 0;
#X connect 13 0 15 0;
#X connect 14 0 1 0;
#X connect 15 0 0 0;
#X connect 15 0 2 0;
#X connect 15 0 3 0;
#X connect 16 0 21 0;
#X connect 17 0 20 0;
#X connect 18 0 19 0;
#X connect 19 0 24 0;
#X connect 20 0 23 0;
#X connect 21 0 22 0;
#X connect 25 0 10 1;
#X connect 26 0 12 1;
#X connect 27 0 11 1;
#X connect 28 0 29 0;
#X connect 30 0 31 0;
#X connect 32 0 10 0;
#X connect 32 0 35 0;
#X connect 33 0 11 0;
#X connect 33 0 12 0;
#X connect 37 0 38 1;
#X connect 38 0 36 0;
#X connect 40 0 41 0;
#X connect 41 0 39 0;
#X connect 43 0 42 0;
#X connect 44 0 43 1;
#X connect 46 0 45 0;
#X connect 47 0 46 0;
#X connect 49 0 50 1;
#X connect 50 0 48 0;
#X connect 52 0 51 0;
#X connect 53 0 52 0;
#X connect 54 0 8 0;
#X connect 55 0 54 0;
#X coords 0 -1 1 1 120 110 1 100 100;
