#N canvas 1344 86 984 656 10;
#X obj 110 128 hsl 100 15 0 1 0 0 \$0-wet \$0-midi-wet empty -2 -8
0 10 -262144 -1 -1 0 1;
#X obj 110 149 hsl 100 15 0 1 0 0 \$0-dry empty empty -2 -8 0 10 -262144
-1 -1 0 1;
#X obj 110 170 hsl 100 15 0 4000 0 0 \$0-length \$0-midi-length empty
-2 -8 0 10 -262144 -1 -1 0 1;
#X obj 110 190 hsl 100 15 0 1 0 0 \$0-feedback \$0-midi-feedback empty
-2 -8 0 10 -262144 -1 -1 0 1;
#X text 108 126 wet;
#X text 109 147 dry;
#X text 111 169 length;
#X text 111 188 feedback;
#X obj 204 365 sig~;
#X obj 204 384 lop~ 1;
#X obj 330 403 *~ 1;
#X obj 204 422 *~ 1;
#X obj 276 375 *~ 0;
#X obj 196 13 loadbang;
#X msg 196 37 1;
#X msg 107 41 0;
#X obj 197 108 bng 15 250 50 0 empty empty empty 17 7 0 10 -262144
-1 -1;
#X obj 223 91 == 127;
#X obj 487 10 inlet midi-wet;
#X obj 579 10 inlet midi-length;
#X obj 690 11 inlet midi-feedback;
#X obj 690 30 / 127;
#X obj 579 29 / 127;
#X obj 487 29 / 127;
#X obj 486 49 s \$0-midi-wet;
#X obj 579 67 s \$0-midi-length;
#X obj 690 50 s \$0-midi-feedback;
#X obj 813 11 inlet midi-reset;
#X obj 813 30 == 127;
#X obj 813 51 s \$0-midi-reset;
#X obj 222 65 r \$0-midi-reset;
#X obj 353 368 r \$0-dry;
#X obj 255 276 r \$0-feedback;
#X obj 204 343 r \$0-length;
#X obj 147 405 r \$0-wet;
#X obj 25 516 r~ \$0-outlet;
#X obj 25 536 outlet~;
#X obj 23 34 inlet~;
#X obj 23 56 s~ \$0-inlet;
#X obj 350 198 r~ \$0-inlet;
#X obj 204 403 vd~ \$0-delay;
#X obj 204 451 s~ \$0-outlet;
#X obj 579 48 * \$1;
#X obj 352 313 delwrite~ \$0-delay \$1;
#X connect 8 0 9 0;
#X connect 9 0 40 0;
#X connect 10 0 41 0;
#X connect 11 0 41 0;
#X connect 12 0 43 0;
#X connect 13 0 14 0;
#X connect 13 0 15 0;
#X connect 14 0 1 0;
#X connect 15 0 0 0;
#X connect 15 0 2 0;
#X connect 15 0 3 0;
#X connect 16 0 15 0;
#X connect 16 0 14 0;
#X connect 17 0 16 0;
#X connect 18 0 23 0;
#X connect 19 0 22 0;
#X connect 20 0 21 0;
#X connect 21 0 26 0;
#X connect 22 0 42 0;
#X connect 23 0 24 0;
#X connect 27 0 28 0;
#X connect 28 0 29 0;
#X connect 30 0 17 0;
#X connect 31 0 10 1;
#X connect 32 0 12 1;
#X connect 33 0 8 0;
#X connect 34 0 11 1;
#X connect 35 0 36 0;
#X connect 37 0 38 0;
#X connect 39 0 10 0;
#X connect 39 0 43 0;
#X connect 40 0 11 0;
#X connect 40 0 12 0;
#X connect 42 0 25 0;
#X coords 0 -1 1 1 120 110 1 100 100;
