#N canvas 63 88 833 483 12;
#X obj 211 199 soundfiler;
#X obj 211 254 t f f;
#X obj 147 127 bng 15 250 50 0 empty empty empty 17 7 0 10 #fcfcfc #000000 #000000;
#X obj 541 144 t b b;
#X obj 492 198 pack;
#X msg 610 171 0;
#X obj 599 216 line~;
#X obj 599 242 *~;
#X obj 643 225 - 3;
#X obj 599 264 +~ 1;
#X msg 492 176 1;
#X obj 599 286 tabread4~ \$0-sample;
#X obj 443 67 table \$0-sample;
#X obj 262 107 f \$0;
#X obj 210 93 bng 15 250 50 0 empty empty empty 17 7 0 10 #fcfcfc #000000 #000000;
#X obj 57 39 inlet midi;
#X obj 128 39 inlet sample;
#X obj 599 308 outlet~;
#X obj 211 316 s \$0-size;
#X obj 643 203 r \$0-size;
#X obj 522 181 r \$0-duration;
#X obj 238 295 s \$0-duration;
#X obj 210 115 f;
#X floatatom 104 128 5 0 0 0 - - - 0;
#X obj 211 157 pack f \$1;
#X obj 121 187 f;
#X obj 121 210 outlet;
#X obj 277 242 samplerate~;
#X obj 277 260 / 1000;
#X obj 277 223 loadbang;
#X obj 238 275 /;
#X floatatom 51 71 5 0 0 0 - - - 0;
#X obj 48 90 sel 1;
#X msg 211 179 read -resize ../audio/\$1.wav \$2-sample;
#X connect 0 0 1 0;
#X connect 1 0 18 0;
#X connect 1 1 30 0;
#X connect 2 0 3 0;
#X connect 2 0 25 0;
#X connect 3 0 10 0;
#X connect 3 1 5 0;
#X connect 4 0 6 0;
#X connect 5 0 6 0;
#X connect 6 0 7 0;
#X connect 7 0 9 0;
#X connect 8 0 7 1;
#X connect 9 0 11 0;
#X connect 10 0 4 0;
#X connect 11 0 17 0;
#X connect 13 0 24 1;
#X connect 14 0 13 0;
#X connect 14 0 22 0;
#X connect 15 0 31 0;
#X connect 16 0 23 0;
#X connect 19 0 8 0;
#X connect 20 0 4 1;
#X connect 22 0 24 0;
#X connect 23 0 22 1;
#X connect 23 0 14 0;
#X connect 23 0 25 1;
#X connect 24 0 33 0;
#X connect 25 0 26 0;
#X connect 27 0 28 0;
#X connect 28 0 30 1;
#X connect 29 0 27 0;
#X connect 30 0 21 0;
#X connect 31 0 32 0;
#X connect 32 0 2 0;
#X connect 33 0 0 0;
#X coords 0 -1 1 1 85 60 1 100 100;
