#N canvas 1138 105 864 530 10;
#X obj 196 108 vsl 15 40 0 1 0 0 \$0-volume \$0-in-volume empty 0 -9
0 10 -262144 -1 -1 1413 1;
#X obj 33 21 inlet~ left;
#X obj 448 13 inlet~ right;
#X obj 108 136 tgl 15 0 empty \$0-mute empty 17 7 0 10 -262144 -1 -1
0 1;
#X text 128 135 mute;
#X obj 33 45 hip~ 5;
#X obj 139 335 dac~;
#X obj 448 34 hip~ 5;
#X obj 220 293 *~ 1;
#X obj 91 286 *~ 1;
#X obj 188 254 + 0;
#X obj 123 214 == 0;
#X obj 413 148 loadbang;
#X obj 216 13 inlet midi-vol;
#X obj 216 32 / 127;
#X obj 113 13 inlet midi-mute;
#X obj 113 32 == 127;
#X obj 113 51 s \$0-mute;
#X obj 413 190 s \$0-volume;
#X obj 264 336 outlet~ right;
#X obj 17 336 outlet~ left;
#X obj 527 154 bng 15 250 50 0 empty empty empty 17 7 0 10 -262144
-1 -1;
#X obj 431 302 ctlout;
#X obj 431 261 r \$0-encoder-number;
#X obj 314 32 s \$0-encoder-number;
#X obj 314 13 inlet midi-number;
#X msg 431 281 0 \$1 0;
#X msg 413 169 0;
#X obj 114 492 outlet;
#X obj 113 472 * 127;
#X obj 216 52 s \$0-in-volume;
#X obj 199 380 r \$0-volume;
#X obj 112 403 sssad \$0-volume;
#X obj 112 423 s \$0-in-volume;
#X obj 113 451 r \$0-in-volume;
#X obj 188 208 r \$0-volume;
#X connect 1 0 5 0;
#X connect 2 0 7 0;
#X connect 3 0 11 0;
#X connect 5 0 9 0;
#X connect 7 0 8 0;
#X connect 8 0 6 1;
#X connect 8 0 19 0;
#X connect 9 0 6 0;
#X connect 9 0 20 0;
#X connect 10 0 8 1;
#X connect 10 0 9 1;
#X connect 11 0 10 0;
#X connect 12 0 27 0;
#X connect 13 0 14 0;
#X connect 14 0 30 0;
#X connect 15 0 16 0;
#X connect 16 0 17 0;
#X connect 21 0 27 0;
#X connect 21 0 26 0;
#X connect 23 0 26 0;
#X connect 25 0 24 0;
#X connect 26 0 22 0;
#X connect 27 0 18 0;
#X connect 29 0 28 0;
#X connect 31 0 32 1;
#X connect 32 0 33 0;
#X connect 34 0 29 0;
#X connect 35 0 10 0;
#X coords 0 -1 1 1 120 60 1 100 100;
