#N canvas 1226 228 417 577 10;
#X obj 35 337 *~;
#X msg 128 299 \$1 20;
#X obj 128 319 line~;
#X obj 198 110 vsl 15 40 0.01 1 0 0 \$0-volume \$0-in-volume empty
-20 5 0 10 -262144 -1 -1 1930 1;
#X obj 105 140 tgl 15 0 \$0-mute \$0-in-mute empty -4 -6 0 10 -262144
-1 -1 0 1;
#X obj 35 379 *~;
#X msg 128 341 \$1 20;
#X obj 128 361 line~;
#X obj 128 243 * -1;
#X obj 128 267 + 1;
#X obj 159 185 loadbang;
#X msg 159 210 0;
#X obj 194 337 *~;
#X obj 194 379 *~;
#X obj 267 258 inlet~ right;
#X obj 194 430 outlet~ right;
#X obj 12 261 inlet~ left;
#X obj 35 429 outlet~ left;
#X obj 268 278 hip~ 5;
#X obj 13 284 hip~ 5;
#X obj 132 68 s \$0-in-volume;
#X obj 132 3 inlet;
#X obj 132 26 route volume mute;
#X obj 181 48 s \$0-in-mute;
#X text 124 139 mute;
#X obj 220 225 r \$0-volume;
#X obj 88 191 r \$0-mute;
#X obj 135 410 dac~;
#X connect 0 0 5 0;
#X connect 1 0 2 0;
#X connect 2 0 0 1;
#X connect 2 0 12 1;
#X connect 5 0 17 0;
#X connect 5 0 27 0;
#X connect 6 0 7 0;
#X connect 7 0 5 1;
#X connect 7 0 13 1;
#X connect 8 0 9 0;
#X connect 9 0 6 0;
#X connect 10 0 11 0;
#X connect 11 0 8 0;
#X connect 12 0 13 0;
#X connect 13 0 15 0;
#X connect 13 0 27 1;
#X connect 14 0 18 0;
#X connect 16 0 19 0;
#X connect 18 0 12 0;
#X connect 19 0 0 0;
#X connect 21 0 22 0;
#X connect 22 0 20 0;
#X connect 22 1 23 0;
#X connect 25 0 1 0;
#X connect 26 0 8 0;
#X coords 0 -1 1 1 120 60 1 100 100;
