#N canvas 90 361 1098 454 12;
#X obj 52 20 r \$0-toggle;
#X obj 148 74 r \$0-selector;
#X obj 130 98 i;
#X obj 123 75 bng 19 250 50 0 empty empty empty 0 -10 0 12 #fcfcfc #000000 #000000;
#X obj 130 148 sel 1;
#X msg 162 174 0;
#X msg 129 173 1;
#X obj 74 203 spigot;
#X obj 52 48 t f b;
#X obj 423 22 r \$0-selector;
#X obj 424 140 sel 1;
#X msg 456 166 0;
#X msg 423 165 1;
#X obj 710 74 r \$0-selector;
#X obj 692 98 i;
#X obj 685 75 bng 19 250 50 0 empty empty empty 0 -10 0 12 #fcfcfc #000000 #000000;
#X obj 692 148 sel 1;
#X msg 724 174 0;
#X msg 691 173 1;
#X obj 636 203 spigot;
#X obj 613 16 r \$0-button;
#X obj 614 48 t b b;
#X obj 161 481 outlet;
#X obj 383 493 outlet;
#X obj 664 497 outlet;
#X obj 909 79 f \$1;
#X floatatom 909 106 5 0 0 0 - - - 0;
#X obj 909 51 loadbang;
#X obj 46 -123 pgmin;
#X floatatom 46 -101 5 0 0 0 - - - 0;
#X obj 46 -78 s \$0-selector;
#X obj 224 -103 sel 127;
#X obj 224 -128 ctlin 45 1;
#X obj 224 -53 s \$0-toggle;
#X obj 224 -78 tgl 19 0 empty empty empty 0 -10 0 12 #fcfcfc #000000 #000000 0 1;
#X obj 385 -98 sel 127;
#X obj 385 -123 ctlin 46 1;
#X obj 385 -72 bng 19 250 50 0 empty empty empty 0 -10 0 12 #fcfcfc #000000 #000000;
#X obj 385 -48 s \$0-button;
#X obj 130 124 ==;
#X obj 424 116 ==;
#X obj 692 124 ==;
#X obj 92 -120 r BANK;
#X connect 0 0 8 0;
#X connect 1 0 2 1;
#X connect 2 0 39 0;
#X connect 3 0 2 0;
#X connect 4 0 6 0;
#X connect 4 1 5 0;
#X connect 5 0 7 1;
#X connect 6 0 7 1;
#X connect 7 0 22 0;
#X connect 8 0 7 0;
#X connect 8 1 3 0;
#X connect 9 0 40 0;
#X connect 10 0 12 0;
#X connect 10 1 11 0;
#X connect 11 0 23 0;
#X connect 12 0 23 0;
#X connect 13 0 14 1;
#X connect 14 0 41 0;
#X connect 15 0 14 0;
#X connect 16 0 18 0;
#X connect 16 1 17 0;
#X connect 17 0 19 1;
#X connect 18 0 19 1;
#X connect 19 0 24 0;
#X connect 20 0 21 0;
#X connect 21 0 19 0;
#X connect 21 1 15 0;
#X connect 25 0 26 0;
#X connect 26 0 39 1;
#X connect 26 0 40 1;
#X connect 26 0 41 1;
#X connect 27 0 25 0;
#X connect 28 0 29 0;
#X connect 29 0 30 0;
#X connect 31 0 34 0;
#X connect 32 0 31 0;
#X connect 34 0 33 0;
#X connect 35 0 37 0;
#X connect 36 0 35 0;
#X connect 37 0 38 0;
#X connect 39 0 4 0;
#X connect 40 0 10 0;
#X connect 41 0 16 0;
#X connect 42 0 29 0;
