#N canvas 703 909 650 358 10;
#X obj 196 112 vsl 15 40 0 1 0 0 empty empty empty 0 -9 0 10 -262144
-1 -1 0 1;
#X obj 202 6 inlet~ left;
#X obj 484 7 inlet~ right;
#X obj 108 140 tgl 15 0 empty empty empty 17 7 0 10 -262144 -1 -1 0
1;
#X text 127 139 mute;
#X obj 202 30 hip~ 5;
#X obj 296 245 dac~;
#X obj 484 31 hip~ 5;
#X obj 347 192 *~ 1;
#X obj 262 192 *~ 1;
#X obj 482 134 + 0;
#X obj 443 108 == 0;
#X obj 106 14 loadbang;
#X msg 106 39 0.5;
#X obj 385 8 inlet midi-vol;
#X obj 385 31 / 127;
#X obj 282 8 inlet midi-mute;
#X obj 282 31 == 127;
#X connect 0 0 10 0;
#X connect 1 0 5 0;
#X connect 2 0 7 0;
#X connect 3 0 11 0;
#X connect 5 0 9 0;
#X connect 7 0 8 0;
#X connect 8 0 6 1;
#X connect 9 0 6 0;
#X connect 10 0 8 1;
#X connect 10 0 9 1;
#X connect 11 0 10 0;
#X connect 12 0 13 0;
#X connect 13 0 0 0;
#X connect 14 0 15 0;
#X connect 15 0 0 0;
#X connect 16 0 17 0;
#X connect 17 0 3 0;
#X coords 0 -1 1 1 120 60 1 100 100;
