#N canvas 1167 46 1061 1076 10;
#X obj 401 424 cosine-pan~;
#X obj 401 479 channel-out~;
#X obj 401 309 reverb~;
#X obj 401 193 7-sec-delay~;
#X obj 401 120 looper~;
#X obj 321 292 midi-encoder;
#X obj 541 292 midi-encoder;
#X obj 709 176 midi-encoder;
#X obj 629 176 midi-encoder;
#X obj 545 176 midi-encoder;
#X obj 321 272 + 8;
#X obj 541 272 + 9;
#X obj 709 156 + 5;
#X obj 629 156 + 4;
#X obj 545 156 + 1;
#X obj 546 407 midi-encoder;
#X obj 546 387 + 12;
#X obj 317 462 midi-encoder;
#X obj 317 442 + 13;
#X obj 248 270 + 8;
#X obj 514 82 + 0;
#X obj 590 83 + 1;
#X obj 664 82 + 12;
#X obj 794 163 + 5;
#X obj 238 442 + 13;
#X obj 514 103 midi-toggle;
#X obj 590 103 midi-toggle;
#X obj 664 103 midi-toggle;
#X obj 794 176 midi-toggle;
#X obj 248 292 midi-toggle;
#X obj 238 462 midi-toggle;
#X obj 401 42 inlet~;
#X obj 514 62 r \$0-base;
#X obj 590 63 r \$0-base;
#X obj 664 62 r \$0-base;
#X obj 709 136 r \$0-base;
#X obj 629 136 r \$0-base;
#X obj 545 136 r \$0-base;
#X obj 794 135 r \$0-base;
#X obj 541 252 r \$0-base;
#X obj 321 252 r \$0-base;
#X obj 248 250 r \$0-base;
#X obj 546 367 r \$0-base;
#X obj 317 422 r \$0-base;
#X obj 238 422 r \$0-base;
#X obj 47 62 s \$0-base;
#X obj 47 15 loadbang;
#X obj 47 39 f \$1;
#X obj 548 462 + 13;
#X obj 548 442 r \$0-base;
#X obj 742 83 r \$0-base;
#X obj 742 103 + 0;
#X connect 0 0 1 0;
#X connect 0 1 1 4;
#X connect 2 0 0 0;
#X connect 3 0 2 0;
#X connect 4 0 3 0;
#X connect 5 0 2 2;
#X connect 6 0 2 3;
#X connect 7 0 3 3;
#X connect 8 0 3 2;
#X connect 9 0 3 1;
#X connect 10 0 5 0;
#X connect 11 0 6 0;
#X connect 12 0 7 0;
#X connect 13 0 8 0;
#X connect 14 0 9 0;
#X connect 15 0 0 1;
#X connect 16 0 15 0;
#X connect 17 0 1 2;
#X connect 18 0 17 0;
#X connect 19 0 29 0;
#X connect 20 0 25 0;
#X connect 21 0 26 0;
#X connect 22 0 27 0;
#X connect 23 0 28 0;
#X connect 24 0 30 0;
#X connect 25 0 4 1;
#X connect 26 0 4 2;
#X connect 27 0 4 3;
#X connect 28 0 3 4;
#X connect 29 0 2 1;
#X connect 30 0 1 1;
#X connect 31 0 4 0;
#X connect 32 0 20 0;
#X connect 33 0 21 0;
#X connect 34 0 22 0;
#X connect 35 0 12 0;
#X connect 36 0 13 0;
#X connect 37 0 14 0;
#X connect 38 0 23 0;
#X connect 39 0 11 0;
#X connect 40 0 10 0;
#X connect 41 0 19 0;
#X connect 42 0 16 0;
#X connect 43 0 18 0;
#X connect 44 0 24 0;
#X connect 46 0 47 0;
#X connect 47 0 45 0;
#X connect 48 0 1 3;
#X connect 49 0 48 0;
#X connect 50 0 51 0;
#X connect 51 0 4 4;
#X coords 0 -1 1 1 122 440 1 400 100;
