#N canvas 875 474 805 554 10;
#X obj 48 140 s \$0-volume;
#X obj 48 232 outlet;
#X obj 48 210 r \$0-control-out;
#X obj 267 242 s \$0-control-out;
#X obj 267 195 r \$0-volume;
#X obj 267 218 midi-encoder-state-settings \$1 volume;
#X obj 523 20 inlet values;
#X obj 48 27 inlet assignments;
#X obj 523 133 s \$0-volume-val;
#X obj 486 191 r \$0-volume-val;
#X obj 523 50 route volume mute on-color off-color;
#X obj 630 91 s \$0-on-color;
#X obj 682 70 s \$0-off-color;
#X obj 576 112 s \$0-mute-val;
#X obj 275 425 s \$0-control-out;
#X obj 426 357 r \$0-on-color;
#X obj 476 378 r \$0-off-color;
#X obj 275 401 midi-toggle-state-settings \$1 mute;
#X obj 375 336 r \$0-mute-val;
#X obj 275 298 r \$0-mute;
#X obj 119 119 s \$0-mute;
#X obj 190 98 s \$0-encoder-channel;
#X obj 48 57 route volume mute encoder-channel toggle-channel;
#X obj 261 78 s \$0-toggle-channel;
#X obj 325 318 r \$0-toggle-channel;
#X obj 376 172 r \$0-encoder-channel;
#X connect 2 0 1 0;
#X connect 4 0 5 0;
#X connect 5 0 3 0;
#X connect 6 0 10 0;
#X connect 7 0 22 0;
#X connect 9 0 5 2;
#X connect 10 0 8 0;
#X connect 10 1 13 0;
#X connect 10 2 11 0;
#X connect 10 3 12 0;
#X connect 15 0 17 3;
#X connect 16 0 17 4;
#X connect 17 0 14 0;
#X connect 18 0 17 2;
#X connect 19 0 17 0;
#X connect 22 0 0 0;
#X connect 22 1 20 0;
#X connect 22 2 21 0;
#X connect 22 3 23 0;
#X connect 24 0 17 1;
#X connect 25 0 5 1;
