#N canvas 736 377 805 554 10;
#X obj 126 80 s \$0-channel;
#X obj 48 57 route volume channel;
#X obj 48 80 s \$0-volume;
#X obj 48 202 outlet;
#X obj 48 180 r \$0-control-out;
#X obj 281 204 s \$0-control-out;
#X obj 390 142 r \$0-channel;
#X obj 281 157 r \$0-volume;
#X obj 281 180 midi-encoder-state-settings \$1 volume;
#X obj 573 28 inlet values;
#X obj 48 27 inlet assignments;
#X obj 573 58 route volume;
#X obj 573 81 s \$0-volume-val;
#X obj 500 153 r \$0-volume-val;
#X connect 1 0 2 0;
#X connect 1 1 0 0;
#X connect 4 0 3 0;
#X connect 6 0 8 1;
#X connect 7 0 8 0;
#X connect 8 0 5 0;
#X connect 9 0 11 0;
#X connect 10 0 1 0;
#X connect 11 0 12 0;
#X connect 13 0 8 2;
