#N canvas 0 22 450 300 10;
#X obj 68 59 inlet~;
#X obj 68 169 outlet~;
#X obj 187 164 outlet~;
#X text 59 15 complex multiplication;
#X obj 188 141 +~;
#X obj 68 146 -~;
#X obj 68 115 *~;
#X obj 118 59 inlet~;
#X obj 118 115 *~;
#X obj 202 59 inlet~;
#X obj 187 116 *~;
#X obj 252 59 inlet~;
#X obj 237 116 *~;
#X connect 0 0 6 0;
#X connect 0 0 12 0;
#X connect 4 0 2 0;
#X connect 5 0 1 0;
#X connect 6 0 5 0;
#X connect 7 0 8 0;
#X connect 7 0 10 0;
#X connect 8 0 5 1;
#X connect 9 0 6 1;
#X connect 9 0 10 1;
#X connect 10 0 4 0;
#X connect 11 0 8 1;
#X connect 11 0 12 1;
#X connect 12 0 4 1;
