#N canvas 1111 502 1029 683 10;
#X obj 135 80 s \$0-channel;
#X obj 48 80 s \$0-position;
#X obj 48 57 route position channel;
#X obj 51 187 outlet;
#X obj 51 165 r \$0-control-out;
#X obj 279 195 s \$0-control-out;
#X obj 394 140 r \$0-channel;
#X obj 279 148 r \$0-position;
#X obj 279 171 midi-encoder-state-settings \$1 position;
#X obj 729 60 route position;
#X obj 729 30 inlet values;
#X obj 48 27 inlet assignments;
#X obj 729 83 s \$0-position-val;
#X obj 510 143 r \$0-position-val;
#X connect 2 0 1 0;
#X connect 2 1 0 0;
#X connect 4 0 3 0;
#X connect 6 0 8 1;
#X connect 7 0 8 0;
#X connect 8 0 5 0;
#X connect 9 0 12 0;
#X connect 10 0 9 0;
#X connect 11 0 2 0;
#X connect 13 0 8 2;
