#N canvas 286 191 261 208 10;
#X obj 42 97 spigot 1;
#X msg 112 97 0;
#X msg 87 77 1;
#X obj 42 37 inlet;
#X obj 42 137 outlet;
#X obj 117 24 inlet;
#X obj 42 117 t f b b;
#X obj 177 28 \$1;
#X obj 177 7 loadbang;
#X obj 87 57 del 150;
#X connect 0 0 6 0;
#X connect 1 0 0 1;
#X connect 2 0 0 1;
#X connect 3 0 0 0;
#X connect 5 0 9 1;
#X connect 6 0 4 0;
#X connect 6 1 9 0;
#X connect 6 2 1 0;
#X connect 7 0 9 1;
#X connect 8 0 7 0;
#X connect 9 0 2 0;
