#N canvas 432 78 896 663 12;
#X obj 258 125 inlet~ audio;
#N canvas 340 191 450 300 distortion 0;
#X obj 29 217 outlet~;
#X obj 29 132 /~;
#X obj 45 104 abs~;
#X obj 29 190 *~;
#X obj 45 165 pow~ 2;
#X obj 30 20 inlet~;
#X obj 123 52 inlet~;
#X text 87 20 audio in;
#X obj 123 97 +~ 1;
#X text 179 53 distortion (0 to 1);
#X obj 122 73 *~ -1;
#X text 179 236 original credit github/residiuum;
#X connect 1 0 3 0;
#X connect 2 0 1 1;
#X connect 2 0 4 1;
#X connect 3 0 0 0;
#X connect 4 0 3 1;
#X connect 5 0 1 0;
#X connect 5 0 2 0;
#X connect 6 0 10 0;
#X connect 8 0 4 0;
#X connect 10 0 8 0;
#X restore 327 249 pd distortion;
#X obj 361 26 inlet;
#X obj 261 401 outlet~;
#N canvas 266 291 450 300 crossfader 0;
#X obj 77 5 inlet;
#X obj 215 12 inlet~;
#X obj 132 8 inlet~;
#X obj 154 143 *~;
#X obj 77 77 *;
#X obj 77 46 t f f;
#X msg 136 67 1 \$1;
#X obj 136 95 -;
#X obj 117 135 *~;
#X obj 154 183 +~;
#X obj 153 221 /~ 2;
#X obj 152 275 outlet~;
#X floatatom 77 25 5 0 0 0 - - - 0;
#X msg 11 24 0.5;
#X obj 10 4 loadbang;
#X connect 0 0 12 0;
#X connect 1 0 3 0;
#X connect 2 0 8 0;
#X connect 3 0 9 1;
#X connect 4 0 3 1;
#X connect 4 0 6 0;
#X connect 5 0 4 0;
#X connect 5 1 4 1;
#X connect 6 0 7 0;
#X connect 7 0 8 1;
#X connect 8 0 9 0;
#X connect 9 0 10 0;
#X connect 10 0 11 0;
#X connect 12 0 5 0;
#X connect 13 0 5 0;
#X connect 14 0 13 0;
#X restore 261 371 pd crossfader;
#X obj 305 341 *~ 1;
#X obj 110 148 hsl 100 15 0 1 0 0 \$0-crossfade \$0-in-crossfade empty -2 -10 0 12 #fcfcfc #000000 #000000 0 1;
#X obj 361 72 s \$0-in-crossfade;
#X obj 190 341 r \$0-crossfade;
#X obj 193 119 tgl 19 0 \$0-toggle \$0-in-toggle empty 0 -10 0 12 #fcfcfc #000000 #000000 0 1;
#X obj 522 265 s \$0-in-crossfade;
#X obj 665 265 s \$0-in-crossfade;
#X obj 619 194 r \$0-toggle;
#X obj 361 50 route crossfade toggle;
#X obj 491 72 s \$0-in-toggle;
#X obj 345 341 *~ 0.1;
#X connect 0 0 5 0;
#X connect 0 0 1 0;
#X connect 1 0 15 0;
#X connect 2 0 13 0;
#X connect 4 0 3 0;
#X connect 5 0 4 1;
#X connect 8 0 4 0;
#X connect 12 0 11 0;
#X connect 12 0 10 0;
#X connect 13 0 7 0;
#X connect 13 1 14 0;
#X connect 15 0 4 2;
#X coords 0 -1 1 1 120 70 1 100 100;
