#N canvas 249 191 816 549 10;
#X obj 261 424 readsf~;
#X msg 261 393 open ../samples/\$1.wav \, 1;
#X obj 47 44 inlet file;
#X obj 220 139 inlet current-step;
#X floatatom 221 333 5 0 0 0 - - -, f 5;
#X obj 221 359 moses 1;
#X obj 47 99 pipe 20;
#X text 100 100 compensate for some audio latency;
#X obj 261 452 outlet~;
#X obj 47 196 tabwrite \$2-table;
#X obj 220 308 tabread \$2-table;
#X obj 235 190 f \$1;
#X obj 235 210 * 32;
#X obj 220 253 +;
#X floatatom 220 281 5 0 0 0 - - -, f 5;
#X obj 235 170 loadbang;
#X obj 235 231 - 32;
#X connect 0 0 8 0;
#X connect 1 0 0 0;
#X connect 2 0 6 0;
#X connect 3 0 13 0;
#X connect 4 0 5 0;
#X connect 5 1 1 0;
#X connect 6 0 9 0;
#X connect 10 0 4 0;
#X connect 11 0 12 0;
#X connect 12 0 16 0;
#X connect 13 0 14 0;
#X connect 14 0 10 0;
#X connect 14 0 9 1;
#X connect 15 0 11 0;
#X connect 16 0 13 1;
#X coords 0 549 1 548 50 50 0;
