#N canvas 168 126 1256 770 10;
#X obj 46 613 outlet;
#X obj 46 583 r \$0-control-out;
#X obj 280 330 s \$0-control-out;
#X obj 282 498 s \$0-control-out;
#X obj 48 -43 inlet assignments;
#X obj 868 -43 inlet values;
#X obj 439 277 r \$0-off-color;
#X obj 411 429 r \$0-on-color;
#X obj 453 448 r \$0-off-color;
#X obj 238 94 s \$0-channel;
#X obj 95 161 s \$0-play;
#X obj 48 184 s \$0-rec;
#X obj 279 199 r \$0-rec;
#X obj 319 218 r \$0-channel;
#X obj 970 49 s \$0-on-color;
#X obj 1022 27 s \$0-off-color;
#X obj 325 390 r \$0-channel;
#X obj 666 312 s \$0-control-out;
#X obj 666 267 r \$0-clear;
#X obj 666 288 midi-button-settings \$1 clear;
#X obj 287 47 s \$0-clear-channel;
#X obj 751 268 r \$0-clear-channel;
#X obj 870 93 s \$0-rec-val;
#X obj 359 238 r \$0-rec-val;
#X obj 280 305 midi-toggle-settings \$1 rec;
#X obj 689 -40 loadbang;
#X msg 689 -17 80;
#X obj 689 6 s \$0-rec-color;
#X obj 399 258 r \$0-rec-color;
#X obj 1072 5 s \$0-rec-color;
#X obj 48 -18 route rec play erase clear channel clear-channel;
#X obj 143 140 s \$0-erase;
#X obj 190 118 s \$0-clear;
#X obj 868 -20 route rec play on-color off-color rec-color;
#X obj 920 70 s \$0-play-val;
#X obj 282 371 r \$0-erase;
#X obj 369 410 r \$0-erase-val;
#X obj 282 474 midi-toggle-settings \$1 erase;
#X connect 1 0 0 0;
#X connect 4 0 30 0;
#X connect 5 0 33 0;
#X connect 6 0 24 4;
#X connect 7 0 37 3;
#X connect 8 0 37 4;
#X connect 12 0 24 0;
#X connect 13 0 24 1;
#X connect 16 0 37 1;
#X connect 18 0 19 0;
#X connect 19 0 17 0;
#X connect 21 0 19 1;
#X connect 23 0 24 2;
#X connect 24 0 2 0;
#X connect 25 0 26 0;
#X connect 26 0 27 0;
#X connect 28 0 24 3;
#X connect 30 0 11 0;
#X connect 30 1 10 0;
#X connect 30 2 31 0;
#X connect 30 3 32 0;
#X connect 30 4 9 0;
#X connect 30 4 20 0;
#X connect 30 5 20 0;
#X connect 33 0 22 0;
#X connect 33 1 34 0;
#X connect 33 2 14 0;
#X connect 33 3 15 0;
#X connect 33 4 29 0;
#X connect 35 0 37 0;
#X connect 36 0 37 2;
#X connect 37 0 3 0;
