#N canvas 154 34 1217 584 10;
#X obj 48 57 route low mid high gain channel;
#X obj 48 98 s \$0-low;
#X obj 104 98 s \$0-mid;
#X obj 163 98 s \$0-high;
#X obj 227 98 s \$0-gain;
#X obj 290 98 s \$0-channel;
#X obj 50 335 outlet;
#X obj 50 305 r \$0-control-out;
#X obj 443 439 s \$0-control-out;
#X obj 443 328 s \$0-control-out;
#X obj 441 112 s \$0-control-out;
#X obj 441 227 s \$0-control-out;
#X obj 441 65 r \$0-low;
#X obj 541 56 r \$0-channel;
#X obj 541 165 r \$0-channel;
#X obj 546 266 r \$0-channel;
#X obj 546 371 r \$0-channel;
#X obj 441 180 r \$0-mid;
#X obj 443 281 r \$0-high;
#X obj 443 392 r \$0-gain;
#X obj 48 27 inlet assignments;
#X obj 816 52 route low mid high gain;
#X obj 816 22 inlet values;
#X obj 816 93 s \$0-low-val;
#X obj 895 93 s \$0-mid-val;
#X obj 974 93 s \$0-high-val;
#X obj 1059 93 s \$0-gain-val;
#X obj 441 88 midi-encoder-state-settings \$1 low;
#X obj 441 203 midi-encoder-state-settings \$1 mid;
#X obj 443 304 midi-encoder-state-settings \$1 high;
#X obj 443 415 midi-encoder-state-settings \$1 gain;
#X obj 642 63 r \$0-low-val;
#X obj 642 179 r \$0-mid-val;
#X obj 650 280 r \$0-high-val;
#X obj 650 388 r \$0-gain-val;
#X connect 0 0 1 0;
#X connect 0 1 2 0;
#X connect 0 2 3 0;
#X connect 0 3 4 0;
#X connect 0 4 5 0;
#X connect 7 0 6 0;
#X connect 12 0 27 0;
#X connect 13 0 27 1;
#X connect 14 0 28 1;
#X connect 15 0 29 1;
#X connect 16 0 30 1;
#X connect 17 0 28 0;
#X connect 18 0 29 0;
#X connect 19 0 30 0;
#X connect 20 0 0 0;
#X connect 21 0 23 0;
#X connect 21 1 24 0;
#X connect 21 2 25 0;
#X connect 21 3 26 0;
#X connect 22 0 21 0;
#X connect 27 0 10 0;
#X connect 28 0 11 0;
#X connect 29 0 9 0;
#X connect 30 0 8 0;
#X connect 31 0 27 2;
#X connect 32 0 28 2;
#X connect 33 0 29 2;
#X connect 34 0 30 2;
