#N canvas 92 539 377 436 10;
#X obj 89 197 textfile;
#X msg 134 225 0;
#X msg 89 225 1;
#X obj 50 302 outlet;
#X obj 50 271 i;
#X obj 50 33 inlet;
#X obj 83 57 loadbang;
#X obj 50 104 symbol;
#X obj 83 81 symbol \$1;
#X msg 50 128 clear \, read \$1 \, rewind;
#X obj 50 151 t b b a;
#X obj 20 198 delay 100;
#X connect 0 0 2 0;
#X connect 0 1 1 0;
#X connect 1 0 4 1;
#X connect 2 0 4 1;
#X connect 4 0 3 0;
#X connect 5 0 7 0;
#X connect 6 0 8 0;
#X connect 7 0 9 0;
#X connect 8 0 7 1;
#X connect 9 0 10 0;
#X connect 10 0 11 0;
#X connect 10 1 0 0;
#X connect 10 2 0 0;
#X connect 11 0 4 0;
