#N canvas 1460 152 821 662 10;
#X msg 318 265 start;
#X msg 302 312 stop;
#X obj 393 351 writesf~ 2;
#X obj 520 256 timestamp-generator;
#X msg 520 285 open ../audio/\$1.wav;
#X obj 520 224 bng 15 250 50 0 empty empty empty 17 7 0 10 -262144
-1 -1;
#X obj 268 24 inlet~;
#X obj 268 45 s~ \$0-input-right;
#X obj 187 24 inlet;
#X obj 187 45 s \$0-in-rec;
#X obj 75 24 inlet~;
#X obj 75 45 s~ \$0-input-left;
#X obj 381 182 r~ \$0-input-left;
#X obj 487 182 r~ \$0-input-right;
#X obj 107 136 tgl 15 0 empty \$0-in-rec rec 17 7 0 10 -262144 -1 -1
0 1;
#X symbolatom 107 158 17 0 0 0 - - -, f 17;
#X obj 143 270 sel 1;
#X obj 144 304 t b b;
#X obj 206 319 t b;
#X connect 0 0 2 0;
#X connect 1 0 2 0;
#X connect 3 0 4 0;
#X connect 4 0 2 0;
#X connect 4 0 15 0;
#X connect 5 0 3 0;
#X connect 6 0 7 0;
#X connect 8 0 9 0;
#X connect 10 0 11 0;
#X connect 12 0 2 0;
#X connect 13 0 2 1;
#X connect 14 0 16 0;
#X connect 16 0 17 0;
#X connect 16 1 18 0;
#X connect 17 0 0 0;
#X connect 17 1 5 0;
#X connect 18 0 1 0;
#X coords 0 -1 1 1 120 80 1 100 100;
