#N canvas 1274 126 987 685 10;
#X msg 582 158 start;
#X msg 555 231 stop;
#X obj 700 248 writesf~ 2;
#X obj 334 243 timestamp-generator;
#X msg 663 183 open ../audio/\$1.wav;
#X obj 352 24 inlet~;
#X obj 352 45 s~ \$0-input-right;
#X obj 187 24 inlet;
#X obj 187 45 s \$0-in-rec;
#X obj 75 24 inlet~;
#X obj 75 45 s~ \$0-input-left;
#X obj 698 204 r~ \$0-input-left;
#X obj 757 226 r~ \$0-input-right;
#X obj 107 136 tgl 15 0 \$0-rec \$0-in-rec rec 17 7 0 10 -262144 -1
-1 0 1;
#X symbolatom 107 158 17 0 0 0 - #0-filename -, f 17;
#X obj 307 143 sel 1;
#X obj 307 213 t b b;
#X obj 334 168 t b;
#X obj 307 115 r \$0-rec;
#X obj 334 266 s \$0-filename;
#X obj 663 158 r \$0-filename;
#X obj 307 289 s \$0-rec-start;
#X obj 582 135 r \$0-rec-start;
#X obj 334 191 s \$0-rec-end;
#X obj 555 209 r \$0-rec-end;
#X obj 590 433 readsf~ 2;
#X msg 589 401 1;
#X msg 625 401 0;
#X obj 589 361 r \$0-play-start;
#X obj 625 381 r \$0-play-stop;
#X obj 593 525 outlet~;
#X obj 643 525 outlet~;
#X obj 641 457 s \$0-play-end;
#X msg 736 414 open ../audio/\$1.wav;
#X obj 787 359 r \$0-filename;
#X obj 736 388 symbol \$1;
#X obj 173 136 tgl 15 0 \$0-play \$0-in-play play 17 7 0 10 -262144
-1 -1 0 1;
#X obj 360 421 sel 1;
#X obj 360 491 t b b;
#X obj 387 446 t b;
#X obj 360 352 r \$0-play;
#X obj 360 538 s \$0-play-start;
#X obj 387 515 s \$0-open-file;
#X obj 387 469 s \$0-play-stop;
#X obj 736 337 r \$0-open-file;
#X obj 273 393 r \$0-play-end;
#X obj 267 24 inlet;
#X obj 267 45 s \$0-in-play;
#X obj 714 10 loadbang;
#X obj 714 57 s \$0-file-ready;
#X msg 714 33 0;
#X obj 824 8 r \$0-rec-end;
#X obj 824 57 s \$0-file-ready;
#X msg 824 33 1;
#X obj 360 393 spigot;
#X obj 393 371 r \$0-file-ready;
#X connect 0 0 2 0;
#X connect 1 0 2 0;
#X connect 3 0 19 0;
#X connect 4 0 2 0;
#X connect 5 0 6 0;
#X connect 7 0 8 0;
#X connect 9 0 10 0;
#X connect 11 0 2 0;
#X connect 12 0 2 1;
#X connect 15 0 16 0;
#X connect 15 1 17 0;
#X connect 16 0 21 0;
#X connect 16 1 3 0;
#X connect 17 0 23 0;
#X connect 18 0 15 0;
#X connect 20 0 4 0;
#X connect 22 0 0 0;
#X connect 24 0 1 0;
#X connect 25 0 30 0;
#X connect 25 1 31 0;
#X connect 25 2 32 0;
#X connect 26 0 25 0;
#X connect 27 0 25 0;
#X connect 28 0 26 0;
#X connect 29 0 27 0;
#X connect 33 0 25 0;
#X connect 34 0 35 1;
#X connect 35 0 33 0;
#X connect 37 0 38 0;
#X connect 37 1 39 0;
#X connect 38 0 41 0;
#X connect 38 1 42 0;
#X connect 39 0 43 0;
#X connect 40 0 54 0;
#X connect 44 0 35 0;
#X connect 45 0 38 0;
#X connect 46 0 47 0;
#X connect 48 0 50 0;
#X connect 50 0 49 0;
#X connect 51 0 53 0;
#X connect 53 0 52 0;
#X connect 54 0 37 0;
#X connect 55 0 54 1;
#X coords 0 -1 1 1 120 80 1 100 100;
