#N canvas 506 84 752 602 10;
#X obj 178 250 hcs/folder_list;
#X msg 199 194 -1;
#X floatatom 240 419 5 0 0 0 - - -, f 5;
#X obj 240 440 != -1;
#X floatatom 240 461 5 0 0 0 - - -, f 5;
#X obj 159 161 t s s b;
#X obj 159 11 inlet;
#X obj 240 551 outlet;
#X obj 357 153 text define \$0-files;
#X obj 199 218 text delete \$0-files;
#X obj 259 301 text insert \$0-files;
#X obj 240 398 text search \$0-files;
#X obj 178 275 hcs/split_path;
#X obj 159 363 hcs/split_path;
#X obj 159 113 symbol;
#X obj 191 70 loadbang;
#X obj 191 92 symbol \$1;
#X connect 0 0 12 0;
#X connect 1 0 9 0;
#X connect 2 0 3 0;
#X connect 3 0 4 0;
#X connect 4 0 7 0;
#X connect 5 0 13 0;
#X connect 5 1 0 0;
#X connect 5 2 1 0;
#X connect 6 0 14 0;
#X connect 11 0 2 0;
#X connect 12 1 10 0;
#X connect 13 1 11 0;
#X connect 14 0 5 0;
#X connect 15 0 16 0;
#X connect 16 0 14 1;
