#N canvas 438 340 478 258 10;
#X obj 110 68 bng 15 250 50 0 empty empty empty 17 7 0 10 -262144 -1
-1;
#X obj 44 182 cnv 15 300 36 empty empty empty 20 12 0 14 -259218 -66577
0;
#X text 237 108 (optional) parameter = file name;
#N canvas 798 539 450 300 show 0;
#X obj 104 205 bng 15 250 50 0 \$0-r \$0-r-r empty 19 7 0 10 -262144
-1 -1;
#X obj 104 31 inlet;
#X obj 104 55 t b f;
#X obj 131 80 sel 0;
#X msg 158 103 label exists;
#X msg 131 127 label not found;
#X msg 158 173 label;
#X obj 158 151 loadbang;
#X connect 1 0 2 0;
#X connect 2 0 0 0;
#X connect 2 1 3 0;
#X connect 3 0 5 0;
#X connect 3 1 4 0;
#X connect 4 0 0 0;
#X connect 5 0 0 0;
#X connect 6 0 0 0;
#X connect 7 0 6 0;
#X coords 0 -1 1 1 80 24 2 100 200;
#X restore 85 141 pd show;
#X text 67 185 the only annoying thing is the error message;
#X text 67 197 in console when file not found :-(;
#X msg 85 19 file-exists.pd;
#X obj 85 108 file-exists file.txt;
#X msg 98 44 file.txt;
#X text 228 20 https://forum.pdpatchrepo.info/topic/8316/way-to-find-out-if-some-file-exists-in-certain-folder
;
#X text 530 50 xbarbie;
#X connect 0 0 7 0;
#X connect 6 0 7 0;
#X connect 7 0 3 0;
#X connect 8 0 7 0;
