#N canvas 32 145 1281 702 10;
#X obj 46 603 outlet;
#X obj 48 149 s \$0-blend;
#X obj 96 128 s \$0-speed;
#X obj 144 106 s \$0-purity;
#X obj 193 86 s \$0-switch;
#X obj 490 250 r \$0-blend;
#X obj 241 65 s \$0-phaselock;
#X obj 48 -13 route blend speed purity switch phaselock encoder-channel
toggle-channel;
#X obj 290 45 s \$0-encoder-channel;
#X obj 338 24 s \$0-toggle-channel;
#X obj 596 217 r \$0-encoder-channel;
#X obj 598 372 r \$0-encoder-channel;
#X obj 492 402 r \$0-speed;
#X obj 609 72 r \$0-encoder-channel;
#X obj 500 97 r \$0-purity;
#X obj 500 144 s \$0-control-out;
#X obj 46 573 r \$0-control-out;
#X obj 492 449 s \$0-control-out;
#X obj 490 297 s \$0-control-out;
#X obj 75 297 s \$0-control-out;
#X obj 77 455 s \$0-control-out;
#X obj 77 328 r \$0-phaselock;
#X obj 74 178 r \$0-switch;
#X obj 128 198 r \$0-toggle-channel;
#X obj 48 -43 inlet assignments;
#X obj 919 114 s \$0-speed-val;
#X obj 868 135 s \$0-blend-val;
#X obj 1072 51 s \$0-phaselock-val;
#X obj 1022 72 s \$0-switch-val;
#X obj 971 92 s \$0-purity-val;
#X obj 868 -43 inlet values;
#X obj 500 120 midi-encoder-state-settings \$1 purity;
#X obj 703 245 r \$0-blend-val;
#X obj 705 400 r \$0-speed-val;
#X obj 719 94 r \$0-purity-val;
#X obj 181 217 r \$0-switch-val;
#X obj 192 367 r \$0-phaselock-val;
#X obj 490 273 midi-encoder-state-settings \$1 blend;
#X obj 492 425 midi-encoder-state-settings \$1 speed;
#X obj 75 273 midi-toggle-state-settings \$1 switch;
#X obj 134 347 r \$0-toggle-channel;
#X obj 868 -13 route blend speed purity switch phaselock on-color off-color
;
#X obj 1123 30 s \$0-on-color;
#X obj 1174 9 s \$0-off-color;
#X obj 234 236 r \$0-on-color;
#X obj 287 255 r \$0-off-color;
#X obj 250 386 r \$0-on-color;
#X obj 308 405 r \$0-off-color;
#X obj 858 241 loadbang;
#X msg 858 262 999;
#X obj 858 283 s \$0-phaselock;
#X text 922 252 if no argument is passed for phaselock \, we don't
want it to default to 0 which is a useable midi toggle;
#X obj 77 431 midi-toggle-state-settings \$1 phaselock;
#X connect 5 0 37 0;
#X connect 7 0 1 0;
#X connect 7 1 2 0;
#X connect 7 2 3 0;
#X connect 7 3 4 0;
#X connect 7 4 6 0;
#X connect 7 5 8 0;
#X connect 7 6 9 0;
#X connect 10 0 37 1;
#X connect 11 0 38 1;
#X connect 12 0 38 0;
#X connect 13 0 31 1;
#X connect 14 0 31 0;
#X connect 16 0 0 0;
#X connect 21 0 52 0;
#X connect 22 0 39 0;
#X connect 23 0 39 1;
#X connect 24 0 7 0;
#X connect 30 0 41 0;
#X connect 31 0 15 0;
#X connect 32 0 37 2;
#X connect 33 0 38 2;
#X connect 34 0 31 2;
#X connect 35 0 39 2;
#X connect 36 0 52 2;
#X connect 37 0 18 0;
#X connect 38 0 17 0;
#X connect 39 0 19 0;
#X connect 40 0 52 1;
#X connect 41 0 26 0;
#X connect 41 1 25 0;
#X connect 41 2 29 0;
#X connect 41 3 28 0;
#X connect 41 4 27 0;
#X connect 41 5 42 0;
#X connect 41 6 43 0;
#X connect 44 0 39 3;
#X connect 45 0 39 4;
#X connect 46 0 52 3;
#X connect 47 0 52 4;
#X connect 48 0 49 0;
#X connect 49 0 50 0;
#X connect 52 0 20 0;
