#N canvas 0 25 1226 831 10;
#X obj 109 763 reverb~;
#X obj 478 713 r defaults;
#X msg 478 733 wet 0 \, size 0;
#X obj 259 663 r MODE;
#X msg 285 706 wet 42 \, size 42 \, channel 0;
#X msg 875 59 bank \$1;
#X obj 107 21 r~ audio;
#X obj 108 125 looper~;
#X obj 194 -32 r MODE;
#X obj 615 -14 r MODE;
#X msg 648 39 monitor 0 \, on-color 0 \, off-color 0;
#X obj 110 935 channel-out~;
#X msg 611 897 volume 13 \, mute 13 \, encoder-channel 1 \, toggle-channel
2;
#X obj 585 834 r MODE;
#X msg 611 877 volume 42 \, mute 42 \, encoder-channel 0 \, toggle-channel
0;
#X msg 287 725 wet 8 \, size 9 \, channel 1;
#X obj 108 242 freeze~;
#X obj 860 163 r defaults;
#X msg 483 187 blend 2 \, speed 3 \, purity 3 \, switch 3 \, encoder-channel
1 \, toggle-channel 2;
#X obj 455 107 r MODE;
#X msg 483 155 blend 42 \, speed 42 \, purity 42 \, switch 42 \, encoder-channel
0 \, toggle-channel 0;
#X msg 281 320 toggle 9 \, channel 2;
#X obj 108 358 metal~;
#X obj 108 404 pitch-shifter~;
#X msg 680 342 fine 999 \, coarse 7 \, width 7 \, toggle 7 \, encoder-channel
1 \, toggle-channel 2;
#X obj 252 255 r MODE;
#X msg 281 300 toggle 42 \, channel 0;
#X obj 650 266 r MODE;
#X msg 680 312 fine 42 \, coarse 42 \, width 42 \, toggle 42 \, encoder-channel
0 \, toggle-channel 0;
#X obj 108 647 audio-delay~ 4000;
#X obj 108 531 eq3~;
#X obj 577 477 r defaults;
#X msg 260 607 feedback 5 \, wet 1 \, length 4 \, channel 1;
#X msg 284 494 low 10 \, mid 11 \, high 14 \, gain 15 \, channel 1
;
#X obj 538 591 r defaults;
#X msg 538 611 wet 0 \, length 0 \, feedback 0;
#X msg 577 497 low 0.5 \, mid 0.5 \, high 0.5 \, gain 0.5;
#X msg 284 474 low 42 \, mid 42 \, high 42 \, gain 42 \, channel 0
;
#X msg 260 587 feedback 42 \, wet 42 \, length 42 \, channel 0;
#X obj 253 431 r MODE;
#X obj 249 538 r MODE;
#X obj 110 878 cosine-pan~;
#X obj 489 823 r defaults;
#X msg 290 840 position 12 \, channel 1;
#X msg 489 844 position 0.5;
#X msg 290 820 position 42 \, channel 0;
#X obj 259 800 sel 1;
#X obj 259 777 r MODE;
#X obj 875 33 inlet bank;
#X msg 226 21 rec 42 \, play 42 \, stop 42 \, monitor 42 \, clear 42
\, channel 0;
#X msg 221 43 rec 0 \, play 4 \, stop 5 \, monitor 1 \, clear 12 \,
channel 2 \, track-number \$1;
#X obj 221 75 looper-control \$1-looper;
#X msg 951 59 track-number \$1;
#X obj 194 -9 sel \$1;
#X obj 615 9 sel \$1;
#X obj 455 130 sel \$1;
#X obj 252 278 sel \$1;
#X obj 650 289 sel \$1;
#X obj 253 454 sel \$1;
#X obj 249 561 sel \$1;
#X obj 259 686 sel \$1;
#X obj 585 857 sel \$1;
#X obj 483 224 freeze-control \$1-freeze;
#X obj 951 38 \$1;
#X obj 951 18 r defaults;
#X obj 281 341 metal-control \$1-metal;
#X obj 680 384 pitch-shifter-control \$1-pitch-shift;
#X obj 284 514 eq3-control \$1-eq;
#X obj 260 628 audio-delay-control \$1-delay;
#X obj 287 748 reverb-control \$1-reverb;
#X obj 290 861 cosine-pan-control \$1-pan;
#X obj 611 918 channel-out-control \$1-out;
#X obj 194 28 \$1;
#X obj 615 31 \$2;
#X msg 648 59 monitor 0 \, on-color \$1 \, off-color 0;
#X obj 860 181 \$2;
#X msg 860 199 switch 0 \, blend 0 \, purity 0 \, phaselock 0 \, speed
0 \, on-color \$1 \, off-color 0;
#X obj 1054 327 r defaults;
#X obj 1054 345 \$2;
#X msg 1054 367 fine 0 \, coarse 1 \, width 0 \, on-color \$1 \, off-color
0;
#X obj 440 283 r defaults;
#X obj 440 301 \$2;
#X msg 440 321 toggle 0 \, on-color \$1 \, off-color 0;
#X obj 968 866 r defaults;
#X obj 968 884 \$2;
#X msg 968 903 volume 0.5 \, mute 0 \, on-color \$1 \, off-color 0
;
#X connect 0 0 41 0;
#X connect 1 0 2 0;
#X connect 2 0 69 1;
#X connect 3 0 60 0;
#X connect 4 0 69 0;
#X connect 5 0 51 0;
#X connect 6 0 7 0;
#X connect 7 0 16 0;
#X connect 8 0 53 0;
#X connect 9 0 54 0;
#X connect 10 0 51 1;
#X connect 12 0 71 0;
#X connect 13 0 61 0;
#X connect 14 0 71 0;
#X connect 15 0 69 0;
#X connect 16 0 22 0;
#X connect 17 0 75 0;
#X connect 18 0 62 0;
#X connect 19 0 55 0;
#X connect 20 0 62 0;
#X connect 21 0 65 0;
#X connect 22 0 23 0;
#X connect 23 0 30 0;
#X connect 24 0 66 0;
#X connect 25 0 56 0;
#X connect 26 0 65 0;
#X connect 27 0 57 0;
#X connect 28 0 66 0;
#X connect 29 0 0 0;
#X connect 30 0 29 0;
#X connect 31 0 36 0;
#X connect 32 0 68 0;
#X connect 33 0 67 0;
#X connect 34 0 35 0;
#X connect 35 0 68 1;
#X connect 36 0 67 1;
#X connect 37 0 67 0;
#X connect 38 0 68 0;
#X connect 39 0 58 0;
#X connect 40 0 59 0;
#X connect 41 0 11 0;
#X connect 41 1 11 2;
#X connect 42 0 44 0;
#X connect 43 0 70 0;
#X connect 44 0 70 1;
#X connect 45 0 70 0;
#X connect 46 0 43 0;
#X connect 46 1 45 0;
#X connect 47 0 46 0;
#X connect 48 0 5 0;
#X connect 49 0 51 0;
#X connect 50 0 51 0;
#X connect 51 0 7 1;
#X connect 52 0 51 0;
#X connect 53 0 72 0;
#X connect 53 1 49 0;
#X connect 54 0 73 0;
#X connect 54 1 10 0;
#X connect 55 0 18 0;
#X connect 55 1 20 0;
#X connect 56 0 21 0;
#X connect 56 1 26 0;
#X connect 57 0 24 0;
#X connect 57 1 28 0;
#X connect 58 0 33 0;
#X connect 58 1 37 0;
#X connect 59 0 32 0;
#X connect 59 1 38 0;
#X connect 60 0 15 0;
#X connect 60 1 4 0;
#X connect 61 0 12 0;
#X connect 61 1 14 0;
#X connect 62 0 16 1;
#X connect 63 0 52 0;
#X connect 64 0 63 0;
#X connect 65 0 22 1;
#X connect 66 0 23 1;
#X connect 67 0 30 1;
#X connect 68 0 29 1;
#X connect 69 0 0 1;
#X connect 70 0 41 1;
#X connect 71 0 11 1;
#X connect 72 0 50 0;
#X connect 73 0 74 0;
#X connect 74 0 51 1;
#X connect 75 0 76 0;
#X connect 76 0 62 1;
#X connect 77 0 78 0;
#X connect 78 0 79 0;
#X connect 79 0 66 1;
#X connect 80 0 81 0;
#X connect 81 0 82 0;
#X connect 82 0 65 1;
#X connect 83 0 84 0;
#X connect 84 0 85 0;
#X connect 85 0 71 1;
#X coords 0 -1 1 1 140 900 1 100 100;
