#N canvas 1728 117 694 514 10;
#X obj 196 108 vsl 15 40 0 1 0 0 \$0-volume \$0-in-volume empty 0 -9
0 10 -262144 -1 -1 0 1;
#X obj 25 -46 inlet~ left;
#X obj 354 -46 inlet~ right;
#X obj 108 136 tgl 15 0 \$0-mute \$0-in-mute empty 17 7 0 10 -262144
-1 -1 0 1;
#X text 128 135 mute;
#X obj 25 -22 hip~ 5;
#X obj 354 -25 hip~ 5;
#X obj 220 293 *~ 1;
#X obj 91 286 *~ 1;
#X obj 188 254 + 0;
#X obj 123 214 == 0;
#X obj 221 320 outlet~ right;
#X obj 91 316 outlet~ left;
#X obj 159 24 s \$0-in-volume;
#X obj 188 208 r \$0-volume;
#X obj 159 -41 inlet;
#X obj 159 -18 route volume mute;
#X obj 208 4 s \$0-in-mute;
#X obj 123 180 r \$0-mute;
#X connect 1 0 5 0;
#X connect 2 0 6 0;
#X connect 5 0 8 0;
#X connect 6 0 7 0;
#X connect 7 0 11 0;
#X connect 8 0 12 0;
#X connect 9 0 7 1;
#X connect 9 0 8 1;
#X connect 10 0 9 0;
#X connect 14 0 9 0;
#X connect 15 0 16 0;
#X connect 16 0 13 0;
#X connect 16 1 17 0;
#X connect 18 0 10 0;
#X coords 0 -1 1 1 120 60 1 100 100;
