#N canvas 220 109 1220 769 10;
#X obj 46 613 outlet;
#X obj 46 583 r \$0-control-out;
#X obj 280 330 s \$0-control-out;
#X obj 282 498 s \$0-control-out;
#X obj 48 -43 inlet assignments;
#X obj 868 -43 inlet values;
#X obj 439 277 r \$0-off-color;
#X obj 419 429 r \$0-on-color;
#X obj 465 448 r \$0-off-color;
#X obj 234 96 s \$0-channel;
#X obj 197 116 s \$0-clear;
#X obj 161 137 s \$0-monitor;
#X obj 122 157 s \$0-stop;
#X obj 88 179 s \$0-play;
#X obj 48 200 s \$0-rec;
#X obj 923 76 s \$0-monitor-val;
#X obj 279 199 r \$0-rec;
#X obj 319 218 r \$0-channel;
#X obj 977 55 s \$0-on-color;
#X obj 1031 33 s \$0-off-color;
#X obj 282 371 r \$0-monitor;
#X obj 327 390 r \$0-channel;
#X obj 373 410 r \$0-monitor-val;
#X obj 676 287 s \$0-control-out;
#X obj 758 242 r \$0-channel;
#X obj 676 263 midi-button-settings \$1 play;
#X obj 676 242 r \$0-play;
#X obj 676 377 s \$0-control-out;
#X obj 758 332 r \$0-channel;
#X obj 676 332 r \$0-stop;
#X obj 676 353 midi-button-settings \$1 stop;
#X obj 676 470 s \$0-control-out;
#X obj 676 425 r \$0-clear;
#X obj 676 446 midi-button-settings \$1 clear;
#X obj 270 76 s \$0-clear-channel;
#X obj 761 426 r \$0-clear-channel;
#X obj 304 56 s \$0-track-number;
#X obj 164 571 r \$0-track-number;
#X msg 164 596 track-number \$1;
#X obj 870 96 s \$0-rec-val;
#X obj 359 238 r \$0-rec-val;
#X obj 48 -13 route rec play stop monitor clear channel clear-channel
track-number bank;
#X obj 339 36 s \$0-bank;
#X obj 279 571 r \$0-bank;
#X msg 279 596 bank \$1;
#X obj 280 305 midi-toggle-settings \$1 rec;
#X obj 689 -40 loadbang;
#X msg 689 -17 80;
#X obj 689 6 s \$0-rec-color;
#X obj 399 258 r \$0-rec-color;
#X msg 348 596 play-button \$1;
#X obj 348 572 r \$0-play;
#X obj 676 138 loadbang;
#X msg 676 159 999;
#X obj 676 180 s \$0-monitor;
#X text 757 153 if no argument is passed for monitor \, we don't want
it to default to 0 which is a useable midi toggle;
#X obj 282 474 midi-toggle-settings \$1 monitor;
#X obj 868 -20 route rec monitor on-color off-color rec-color;
#X obj 1086 11 s \$0-rec-color;
#X connect 1 0 0 0;
#X connect 4 0 41 0;
#X connect 5 0 57 0;
#X connect 6 0 45 4;
#X connect 7 0 56 3;
#X connect 8 0 56 4;
#X connect 16 0 45 0;
#X connect 17 0 45 1;
#X connect 20 0 56 0;
#X connect 21 0 56 1;
#X connect 22 0 56 2;
#X connect 24 0 25 1;
#X connect 25 0 23 0;
#X connect 26 0 25 0;
#X connect 28 0 30 1;
#X connect 29 0 30 0;
#X connect 30 0 27 0;
#X connect 32 0 33 0;
#X connect 33 0 31 0;
#X connect 35 0 33 1;
#X connect 37 0 38 0;
#X connect 38 0 0 0;
#X connect 40 0 45 2;
#X connect 41 0 14 0;
#X connect 41 1 13 0;
#X connect 41 2 12 0;
#X connect 41 3 11 0;
#X connect 41 4 10 0;
#X connect 41 5 9 0;
#X connect 41 5 34 0;
#X connect 41 6 34 0;
#X connect 41 7 36 0;
#X connect 41 8 42 0;
#X connect 43 0 44 0;
#X connect 44 0 0 0;
#X connect 45 0 2 0;
#X connect 46 0 47 0;
#X connect 47 0 48 0;
#X connect 49 0 45 3;
#X connect 50 0 0 0;
#X connect 51 0 50 0;
#X connect 52 0 53 0;
#X connect 53 0 54 0;
#X connect 56 0 3 0;
#X connect 57 0 39 0;
#X connect 57 1 15 0;
#X connect 57 2 18 0;
#X connect 57 3 19 0;
#X connect 57 4 58 0;
