#N canvas 76 25 1277 847 10;
#X declare -lib zexy;
#X obj 39 556 *~;
#X obj 103 529 line~;
#X obj 103 500 pack 0 6;
#X msg 103 457 0;
#X msg 143 469 1;
#X msg 559 206 reset;
#X msg 508 595 bang;
#X msg 558 579 stop;
#X obj 601 650 bng 15 250 50 0 empty empty empty 17 7 0 10 -262144
-1 -1;
#X obj 300 462 timer;
#X msg 300 573 resize \$1;
#X msg 373 235 0;
#X obj 270 256 f;
#X obj 257 295 + 1;
#X msg 372 257 2;
#X obj 297 276 sel 0 1 2 3;
#X obj 230 273 sel 3;
#X text 593 579 stop playback;
#X text 601 206 clear loop;
#X obj 7 42 tgl 15 0 \$0-rec \$0-rec-inlet empty 17 7 0 10 -262144
-1 -1 0 1;
#X msg 270 233 bang;
#X text 25 40 rec;
#X text 646 302 functional \, unlimited overdubbing looper. there is
still an unfortunate quirk however: you can't seem to overdub during
the very first playback of the first loop \, the overdubs do not record
in this scenario.;
#X obj 39 333 inlet~;
#X obj 508 835 outlet~;
#X obj 40 703 tabwrite~ \$0-loop;
#X obj 508 627 tabplay~ \$0-loop;
#X obj 300 602 s \$0-loop;
#X obj 67 87 bng 15 250 50 0 \$0-clear \$0-clear-inlet empty 17 7 0
10 -262144 -1 -1;
#X text 85 86 clear;
#X obj 67 65 bng 15 250 50 0 \$0-stop \$0-stop-inlet empty 17 7 0 10
-262144 -1 -1;
#X text 86 64 stop;
#X obj 7 64 bng 15 250 50 0 \$0-play-inlet \$0-play-inlet empty 17
7 0 10 -262144 -1 -1;
#X text 25 64 play;
#X obj 67 42 tgl 15 0 \$0-monitor \$0-monitor-inlet empty 17 7 0 10
-262144 -1 -1 0 1;
#X obj 40 609 *~ 1;
#X msg 731 747 1;
#X obj 553 773 *~ 0;
#X msg 770 748 0;
#X obj 270 213 r \$0-rec;
#X msg 104 662 stop;
#X obj 104 641 r \$0-stop;
#X obj 498 494 r \$0-stop;
#X obj 435 494 r \$0-play;
#X obj 559 181 r \$0-clear;
#X obj 7 87 bng 15 250 50 0 \$0-save \$0-save-inlet empty 17 7 0 10
-262144 -1 -1;
#X symbolatom 7 21 17 0 0 0 - #0-trackname #0-filename, f 17;
#X text 85 41 mon;
#X text 25 85 save;
#X obj 730 700 r \$0-monitor;
#X obj 47 359 s~ \$0-monitor-audio;
#X obj 553 725 r~ \$0-monitor-audio;
#X msg 449 187 0;
#X obj 914 -16 s \$0-save-inlet;
#X obj 331 97 s \$0-clear-inlet;
#X obj 293 116 s \$0-monitor-inlet;
#X obj 255 136 s \$0-stop-inlet;
#X obj 216 156 s \$0-play-inlet;
#X obj 178 177 s \$0-rec-inlet;
#X obj 731 725 sel 1;
#X obj 798 206 table \$0-loop 3.969e+06;
#X msg 586 550 resize 3.969e+06 \, const 0;
#X obj 369 77 s \$0-track-number;
#N canvas 106 107 635 600 master-track-length 0;
#X obj 67 48 r \$0-filename;
#X obj 134 368 r \$0-track-number;
#X floatatom 134 391 5 0 0 0 - - -, f 5;
#X obj 134 415 f;
#X obj 134 493 sel 1;
#X obj 134 515 bng 15 250 50 0 empty empty empty 17 7 0 10 -262144
-1 -1;
#X obj 300 542 f;
#X obj 300 569 s MASTER-TRACK-LENGTH;
#X obj 300 380 t b f;
#X floatatom 68 198 20 0 0 0 - - -, f 20;
#X obj 68 261 sel 1;
#X obj 68 281 bng 15 250 50 0 empty empty empty 17 7 0 10 -262144 -1
-1;
#X obj 68 240 != 3.969e+06;
#X obj 68 177 expr size("$s1");
#X obj 68 137 f \$0;
#X msg 68 158 symbol \$1-loop;
#X obj 67 69 bng 15 250 50 0 empty empty empty 17 7 0 10 -262144 -1
-1;
#X msg 95 295 0;
#X floatatom 300 333 20 0 0 0 - - -, f 20;
#X obj 300 275 f;
#X obj 68 220 t f f;
#X obj 67 90 delay 300;
#X obj 67 113 bng 15 250 50 0 empty empty empty 17 7 0 10 -262144 -1
-1;
#X obj 149 448 r MASTER-TRACK;
#X obj 134 470 ==;
#X connect 0 0 16 0;
#X connect 1 0 2 0;
#X connect 2 0 3 0;
#X connect 3 0 24 0;
#X connect 4 0 5 0;
#X connect 5 0 6 0;
#X connect 6 0 7 0;
#X connect 8 0 3 0;
#X connect 8 1 6 1;
#X connect 9 0 20 0;
#X connect 10 0 11 0;
#X connect 10 1 17 0;
#X connect 11 0 19 0;
#X connect 12 0 10 0;
#X connect 13 0 9 0;
#X connect 14 0 15 0;
#X connect 15 0 13 0;
#X connect 16 0 21 0;
#X connect 17 0 18 0;
#X connect 18 0 8 0;
#X connect 19 0 18 0;
#X connect 20 0 12 0;
#X connect 20 1 19 1;
#X connect 21 0 22 0;
#X connect 22 0 14 0;
#X connect 23 0 24 1;
#X connect 24 0 4 0;
#X restore 1082 246 pd master-track-length;
#N canvas 54 531 456 347 record-all 0;
#X obj 27 19 r RECORD-ALL;
#X obj 148 223 r \$0-monitor;
#X obj 148 245 tgl 15 0 empty empty empty 17 7 0 10 -262144 -1 -1 0
1;
#X obj 115 269 spigot;
#X obj 115 74 r \$0-track-number;
#X floatatom 115 97 5 0 0 0 - - -, f 5;
#X obj 115 121 f;
#X obj 115 199 sel 1;
#X obj 115 221 bng 15 250 50 0 empty empty empty 17 7 0 10 -262144
-1 -1;
#X msg 27 42 bang;
#X text 144 176 is a non-master track?;
#X obj 115 293 s \$0-rec-inlet;
#X obj 130 153 r MASTER-TRACK;
#X obj 115 176 !=;
#X connect 0 0 9 0;
#X connect 1 0 2 0;
#X connect 2 0 3 1;
#X connect 3 0 11 0;
#X connect 4 0 5 0;
#X connect 5 0 6 0;
#X connect 6 0 13 0;
#X connect 7 0 8 0;
#X connect 8 0 3 0;
#X connect 9 0 6 0;
#X connect 12 0 13 1;
#X connect 13 0 7 0;
#X restore 1082 285 pd record-all;
#N canvas 0 25 450 300 send-trackname 0;
#X obj 93 100 s \$0-trackname;
#X obj 93 52 r \$0-track-number;
#X obj 93 76 l2s;
#X connect 1 0 2 0;
#X connect 2 0 0 0;
#X restore 1082 227 pd send-trackname;
#X obj 180 -63 inlet;
#X obj 914 -38 r SAVE;
#X obj 407 56 s \$0-bank;
#X obj 445 35 s \$0-play-button;
#N canvas 0 23 389 346 playback-led-pulse 0;
#X obj 20 15 r \$0-currently-playing;
#X obj 21 228 bng 15 250 50 0 empty empty empty 17 7 0 10 -262144 -1
-1;
#X obj 21 251 midi-pulse-on;
#X obj 20 107 sel 1;
#X obj 48 147 bng 15 250 50 0 empty empty empty 17 7 0 10 -262144 -1
-1;
#X obj 48 170 midi-pulse-off;
#X floatatom 129 145 5 0 0 0 - - -, f 5;
#X floatatom 96 227 5 0 0 0 - - -, f 5;
#X obj 129 124 r \$0-play-button;
#X obj 96 204 r \$0-play-button;
#X obj 53 46 r \$0-play-button;
#X obj 20 69 spigot;
#X connect 0 0 11 0;
#X connect 1 0 2 0;
#X connect 3 0 1 0;
#X connect 3 1 4 0;
#X connect 4 0 5 0;
#X connect 6 0 5 1;
#X connect 7 0 2 1;
#X connect 8 0 6 0;
#X connect 9 0 7 0;
#X connect 10 0 11 1;
#X connect 11 0 3 0;
#X restore 1082 304 pd playback-led-pulse;
#N canvas 0 23 603 523 prevent-nonplayables 0;
#X obj 24 116 file-exists;
#X obj 57 40 r \$0-filename;
#X obj 24 146 sel 1;
#X obj 24 170 bng 15 250 50 0 empty empty empty 17 7 0 10 -262144 -1
-1;
#X obj 24 65 symbol;
#X obj 215 191 bng 15 250 50 0 empty empty empty 17 7 0 10 -262144
-1 -1;
#X text 241 192 if file does not yet exist;
#X obj 215 317 bng 15 250 50 0 empty empty empty 17 7 0 10 -262144
-1 -1;
#X obj 215 252 expr size("$s1");
#X obj 215 212 f \$0;
#X msg 215 233 symbol \$1-loop;
#X obj 215 272 == 3.969e+06;
#X text 256 294 == 0 when table has been resized from default;
#X obj 215 293 sel 0;
#X obj 24 19 r \$0-play-inlet;
#X obj 24 191 s \$0-play;
#X obj 215 337 s \$0-play;
#X msg 24 89 ../audio/\$1.wav;
#X connect 0 0 2 0;
#X connect 1 0 4 1;
#X connect 2 0 3 0;
#X connect 2 1 5 0;
#X connect 3 0 15 0;
#X connect 4 0 17 0;
#X connect 5 0 9 0;
#X connect 7 0 16 0;
#X connect 8 0 11 0;
#X connect 9 0 10 0;
#X connect 10 0 8 0;
#X connect 11 0 13 0;
#X connect 13 0 7 0;
#X connect 14 0 4 0;
#X connect 17 0 0 0;
#X restore 1082 266 pd prevent-nonplayables;
#X obj 702 -38 r PLAY-ALL;
#X obj 702 -15 s \$0-play-inlet;
#N canvas 175 29 748 627 currrently-playing 0;
#X obj 211 87 s \$0-currently-playing;
#X msg 211 64 1;
#X obj 360 87 s \$0-currently-playing;
#X msg 360 64 0;
#X obj 360 42 r \$0-stop;
#X obj 211 42 r \$0-play;
#X obj 507 87 s \$0-currently-playing;
#X msg 507 64 0;
#X obj 507 42 r \$0-clear;
#X obj 46 42 r \$0-end-first-recording;
#X obj 46 88 s \$0-currently-playing;
#X msg 46 65 1;
#X connect 1 0 0 0;
#X connect 3 0 2 0;
#X connect 4 0 3 0;
#X connect 5 0 1 0;
#X connect 7 0 6 0;
#X connect 8 0 7 0;
#X connect 9 0 11 0;
#X connect 11 0 10 0;
#X restore 1082 324 pd currrently-playing;
#X obj 353 454 s \$0-end-first-recording;
#X obj 318 416 t b b b b;
#X obj 336 503 samplerate~;
#X obj 336 521 / 1000;
#X obj 336 484 loadbang;
#X obj 300 536 *;
#N canvas 47 23 1124 855 stop-led 0;
#X obj 220 34 inlet;
#X obj 253 87 r \$0-filename;
#X obj 220 156 file-exists;
#X obj 220 183 sel 1;
#X obj 283 206 r \$0-play-button;
#X obj 220 237 midi-led-on;
#X obj 220 107 symbol;
#X msg 220 56 bang;
#X msg 220 133 ../audio/\$1.wav;
#X connect 0 0 7 0;
#X connect 1 0 6 1;
#X connect 2 0 3 0;
#X connect 3 0 5 0;
#X connect 4 0 5 1;
#X connect 6 0 8 0;
#X connect 7 0 6 0;
#X connect 8 0 2 0;
#X restore 575 601 pd stop-led;
#N canvas 209 290 507 437 save 0;
#X obj 23 194 f \$0;
#X obj 23 172 bng 15 250 50 0 empty empty empty 17 7 0 10 -262144 -1
-1;
#X obj 23 24 r \$0-save;
#X obj 197 419 soundfiler;
#X msg 23 264 write -wave ../audio/\$2.wav \$1-loop;
#X obj 69 188 r \$0-filename;
#X obj 23 107 expr size("$s1");
#X obj 23 67 f \$0;
#X msg 23 88 symbol \$1-loop;
#X obj 23 46 bng 15 250 50 0 empty empty empty 17 7 0 10 -262144 -1
-1;
#X obj 23 127 == 3.969e+06;
#X text 64 149 == 0 when table has been resized from default;
#X obj 23 148 sel 0;
#X obj 308 312 tgl 15 0 empty empty empty 17 7 0 10 -262144 -1 -1 1
1;
#X obj 255 375 spigot;
#X obj 308 330 sel 1;
#X msg 178 363 1;
#X msg 308 361 1;
#X msg 338 361 0;
#X msg 211 363 0;
#X obj 132 378 spigot 1;
#X obj 23 227 pack f s s;
#X obj 101 212 r \$0-save-path;
#X obj 371 301 r \$0-save-path;
#X msg 257 264 write -wave \$3/\$2.wav \$1-loop;
#X obj 307 407 print;
#X obj 371 320 bng 15 250 50 0 empty empty empty 17 7 0 10 -262144
-1 -1;
#X msg 371 339 1;
#X connect 0 0 21 0;
#X connect 1 0 0 0;
#X connect 2 0 9 0;
#X connect 4 0 20 0;
#X connect 5 0 21 1;
#X connect 6 0 10 0;
#X connect 7 0 8 0;
#X connect 8 0 6 0;
#X connect 9 0 7 0;
#X connect 10 0 12 0;
#X connect 12 0 1 0;
#X connect 13 0 15 0;
#X connect 14 0 3 0;
#X connect 15 0 17 0;
#X connect 15 0 19 0;
#X connect 15 1 16 0;
#X connect 15 1 18 0;
#X connect 16 0 20 1;
#X connect 17 0 14 1;
#X connect 18 0 14 1;
#X connect 19 0 20 1;
#X connect 20 0 3 0;
#X connect 21 0 4 0;
#X connect 21 0 24 0;
#X connect 22 0 21 2;
#X connect 23 0 26 0;
#X connect 24 0 14 0;
#X connect 24 0 25 0;
#X connect 26 0 27 0;
#X connect 27 0 13 0;
#X restore 1082 343 pd save;
#N canvas 0 23 665 510 change-filename 0;
#X obj 35 182 pack f s;
#X obj 35 138 bng 15 250 50 0 empty empty empty 17 7 0 10 -262144 -1
-1;
#X obj 35 159 f \$0;
#X obj 35 228 soundfiler;
#X msg 35 206 read -resize ../audio/\$2.wav \$1-loop;
#X obj 180 35 r \$0-filename;
#X obj 35 117 t b s;
#X obj 318 98 file-exists;
#X obj 302 264 s \$0-clear;
#X obj 328 218 s \$0-stop;
#X obj 302 241 delay 100;
#X obj 34 86 symbol;
#X obj 457 333 s \$0-stop;
#X obj 430 354 delay 100;
#X obj 430 375 s \$0-play;
#X obj 319 131 sel 0;
#X obj 445 200 r \$0-currently-playing;
#X obj 430 223 f;
#X obj 457 288 s \$0-stop;
#X obj 430 245 sel 1;
#X msg 416 174 bang;
#X obj 301 194 t b b;
#X obj 430 312 t b b;
#X msg 318 75 ../audio/\$1.wav;
#X obj 457 267 delay 100;
#X connect 0 0 4 0;
#X connect 1 0 2 0;
#X connect 2 0 0 0;
#X connect 4 0 3 0;
#X connect 5 0 23 0;
#X connect 5 0 11 0;
#X connect 6 0 1 0;
#X connect 6 1 0 1;
#X connect 7 0 15 0;
#X connect 10 0 8 0;
#X connect 11 0 6 0;
#X connect 13 0 14 0;
#X connect 15 0 21 0;
#X connect 15 1 20 0;
#X connect 16 0 17 1;
#X connect 17 0 19 0;
#X connect 19 0 22 0;
#X connect 19 1 24 0;
#X connect 20 0 17 0;
#X connect 21 0 10 0;
#X connect 21 1 9 0;
#X connect 22 0 13 0;
#X connect 22 1 12 0;
#X connect 23 0 7 0;
#X connect 24 0 18 0;
#X restore 1082 363 pd change-filename;
#N canvas 0 23 1440 855 determine-track-length 0;
#X obj 49 -3 inlet;
#X obj 114 109 r \$0-track-number;
#X floatatom 114 132 5 0 0 0 - - -, f 5;
#X floatatom 49 18 20 0 0 0 - - -, f 20;
#X obj 114 156 f;
#X text 150 201 is master track?;
#X obj 114 224 sel 1;
#X obj 114 246 bng 15 250 50 0 empty empty empty 17 7 0 10 -262144
-1 -1;
#X obj 52 132 f;
#X floatatom 53 284 20 0 0 0 - - -, f 20;
#X obj 49 88 t b f;
#X obj 53 303 s MASTER-TRACK-LENGTH;
#X obj 293 262 bng 15 250 50 0 empty empty empty 17 7 0 10 -262144
-1 -1;
#X text 317 262 if not master track;
#X obj 398 287 r MASTER-TRACK-LENGTH;
#X obj 383 311 f;
#X obj 383 332 > 0;
#X obj 383 353 sel 1;
#X obj 383 378 bng 15 250 50 0 empty empty empty 17 7 0 10 -262144
-1 -1;
#X text 406 378 if master track length is set;
#X obj 76 62 s \$0-initial-loop-length;
#X obj 633 587 r MASTER-TRACK-LENGTH;
#X obj 583 570 r \$0-initial-loop-length;
#X obj 534 648 s \$0-loop;
#X msg 534 629 resize \$1;
#X obj 734 696 r MASTER-TRACK-LENGTH;
#X obj 684 679 r \$0-initial-loop-length;
#X obj 635 757 s \$0-loop;
#X msg 635 738 resize \$1;
#X obj 834 812 r MASTER-TRACK-LENGTH;
#X obj 784 795 r \$0-initial-loop-length;
#X obj 735 873 s \$0-loop;
#X msg 735 854 resize \$1;
#X obj 934 932 r MASTER-TRACK-LENGTH;
#X obj 884 915 r \$0-initial-loop-length;
#X obj 835 993 s \$0-loop;
#X msg 835 974 resize \$1;
#X obj 1034 1042 r MASTER-TRACK-LENGTH;
#X obj 984 1025 r \$0-initial-loop-length;
#X obj 935 1103 s \$0-loop;
#X msg 935 1084 resize \$1;
#X obj 1134 1152 r MASTER-TRACK-LENGTH;
#X obj 1084 1135 r \$0-initial-loop-length;
#X obj 1035 1213 s \$0-loop;
#X msg 1035 1194 resize \$1;
#X obj 1234 1262 r MASTER-TRACK-LENGTH;
#X obj 1184 1245 r \$0-initial-loop-length;
#X obj 1135 1323 s \$0-loop;
#X msg 1135 1304 resize \$1;
#X obj 1336 1372 r MASTER-TRACK-LENGTH;
#X obj 1286 1355 r \$0-initial-loop-length;
#X obj 1237 1433 s \$0-loop;
#X msg 1237 1414 resize \$1;
#X obj 49 39 t f f;
#X floatatom 43 700 5 0 0 0 - - -, f 5;
#X obj 43 657 delay 500;
#N canvas 422 86 655 527 loop-length 0;
#X obj 93 263 expr size("$s1");
#X obj 93 223 f \$0;
#X msg 93 244 symbol \$1-loop;
#X obj 93 202 bng 15 250 50 0 empty empty empty 17 7 0 10 -262144 -1
-1;
#X floatatom 93 287 20 0 0 0 - - -, f 20;
#X obj 61 135 r MASTER-TRACK-LENGTH;
#X obj 48 329 /;
#X floatatom 46 177 20 0 0 0 - - -, f 20;
#X obj 46 156 f;
#X obj 22 134 bng 15 250 50 0 empty empty empty 17 7 0 10 -262144 -1
-1;
#X obj 22 99 t b b;
#X obj 22 76 bng 15 250 50 0 empty empty empty 17 7 0 10 -262144 -1
-1;
#X floatatom 48 353 20 0 0 0 - - -, f 20;
#X text 49 76 debug loop length;
#X obj 21 29 inlet;
#X obj 48 382 outlet;
#X connect 0 0 4 0;
#X connect 1 0 2 0;
#X connect 2 0 0 0;
#X connect 3 0 1 0;
#X connect 4 0 6 0;
#X connect 5 0 8 1;
#X connect 6 0 12 0;
#X connect 7 0 6 1;
#X connect 8 0 7 0;
#X connect 9 0 8 0;
#X connect 10 0 9 0;
#X connect 10 1 3 0;
#X connect 11 0 10 0;
#X connect 12 0 15 0;
#X connect 14 0 11 0;
#X restore 43 678 pd loop-length;
#X obj 44 766 ==;
#X obj 79 746 int;
#X obj 44 720 t f f;
#X obj 44 787 sel 0;
#X obj 44 808 s \$0-clear-inlet;
#X text 114 655 clear loop if not cut evenly;
#X obj 534 609 within-multiple 1;
#X obj 635 718 within-multiple 2;
#X obj 735 834 within-multiple 3;
#X obj 835 954 within-multiple 4;
#X obj 935 1064 within-multiple 5;
#X obj 1035 1174 within-multiple 6;
#X obj 1135 1284 within-multiple 7;
#X obj 1237 1394 within-multiple 8;
#X obj 129 179 r MASTER-TRACK;
#X obj 114 201 ==;
#X connect 0 0 3 0;
#X connect 1 0 2 0;
#X connect 2 0 4 0;
#X connect 3 0 53 0;
#X connect 4 0 72 0;
#X connect 6 0 7 0;
#X connect 6 1 12 0;
#X connect 7 0 8 0;
#X connect 8 0 9 0;
#X connect 9 0 11 0;
#X connect 10 0 4 0;
#X connect 10 1 8 1;
#X connect 12 0 15 0;
#X connect 14 0 15 1;
#X connect 15 0 16 0;
#X connect 16 0 17 0;
#X connect 17 0 18 0;
#X connect 18 0 55 0;
#X connect 18 0 63 0;
#X connect 21 0 63 2;
#X connect 22 0 63 1;
#X connect 24 0 23 0;
#X connect 25 0 64 2;
#X connect 26 0 64 1;
#X connect 28 0 27 0;
#X connect 29 0 65 2;
#X connect 30 0 65 1;
#X connect 32 0 31 0;
#X connect 33 0 66 2;
#X connect 34 0 66 1;
#X connect 36 0 35 0;
#X connect 37 0 67 2;
#X connect 38 0 67 1;
#X connect 40 0 39 0;
#X connect 41 0 68 2;
#X connect 42 0 68 1;
#X connect 44 0 43 0;
#X connect 45 0 69 2;
#X connect 46 0 69 1;
#X connect 48 0 47 0;
#X connect 49 0 70 2;
#X connect 50 0 70 1;
#X connect 52 0 51 0;
#X connect 53 0 10 0;
#X connect 53 1 20 0;
#X connect 54 0 59 0;
#X connect 55 0 56 0;
#X connect 56 0 54 0;
#X connect 57 0 60 0;
#X connect 58 0 57 1;
#X connect 59 0 57 0;
#X connect 59 1 58 0;
#X connect 60 0 61 0;
#X connect 63 0 24 0;
#X connect 63 1 64 0;
#X connect 64 0 28 0;
#X connect 64 1 65 0;
#X connect 65 0 32 0;
#X connect 65 1 66 0;
#X connect 66 0 36 0;
#X connect 66 1 67 0;
#X connect 67 0 40 0;
#X connect 67 1 68 0;
#X connect 68 0 44 0;
#X connect 68 1 69 0;
#X connect 69 0 48 0;
#X connect 69 1 70 0;
#X connect 70 0 52 0;
#X connect 71 0 72 1;
#X connect 72 0 6 0;
#X restore 205 627 pd determine-track-length;
#X obj 808 -38 r STOP-ALL;
#X obj 808 -15 s \$0-stop-inlet;
#X obj 1078 -57 declare -lib zexy;
#X obj 180 -40 route rec play stop monitor clear track-number bank
play-button save-path;
#X obj 465 13 s \$0-save-path;
#X connect 0 0 35 0;
#X connect 1 0 0 1;
#X connect 2 0 1 0;
#X connect 3 0 2 0;
#X connect 4 0 2 0;
#X connect 5 0 11 0;
#X connect 5 0 7 0;
#X connect 5 0 61 0;
#X connect 5 0 52 0;
#X connect 6 0 26 0;
#X connect 7 0 26 0;
#X connect 7 0 81 0;
#X connect 8 0 6 0;
#X connect 9 0 80 0;
#X connect 10 0 27 0;
#X connect 11 0 12 1;
#X connect 12 0 16 0;
#X connect 12 0 15 0;
#X connect 13 0 12 1;
#X connect 14 0 12 1;
#X connect 15 0 9 0;
#X connect 15 0 4 0;
#X connect 15 0 25 0;
#X connect 15 1 3 0;
#X connect 15 1 76 0;
#X connect 15 2 4 0;
#X connect 15 3 3 0;
#X connect 15 3 14 0;
#X connect 16 1 13 0;
#X connect 20 0 12 0;
#X connect 23 0 0 0;
#X connect 23 0 50 0;
#X connect 26 0 25 0;
#X connect 26 0 24 0;
#X connect 26 1 8 0;
#X connect 26 1 25 0;
#X connect 35 0 25 0;
#X connect 36 0 37 1;
#X connect 37 0 24 0;
#X connect 38 0 37 1;
#X connect 39 0 20 0;
#X connect 40 0 25 0;
#X connect 41 0 40 0;
#X connect 42 0 7 0;
#X connect 43 0 6 0;
#X connect 44 0 5 0;
#X connect 49 0 59 0;
#X connect 51 0 37 0;
#X connect 52 0 12 1;
#X connect 59 0 36 0;
#X connect 59 1 38 0;
#X connect 61 0 27 0;
#X connect 66 0 88 0;
#X connect 67 0 53 0;
#X connect 72 0 73 0;
#X connect 76 0 3 0;
#X connect 76 1 75 0;
#X connect 76 2 6 0;
#X connect 76 3 9 1;
#X connect 77 0 78 0;
#X connect 78 0 80 1;
#X connect 79 0 77 0;
#X connect 80 0 10 0;
#X connect 80 0 84 0;
#X connect 85 0 86 0;
#X connect 88 0 58 0;
#X connect 88 1 57 0;
#X connect 88 2 56 0;
#X connect 88 3 55 0;
#X connect 88 4 54 0;
#X connect 88 5 62 0;
#X connect 88 6 68 0;
#X connect 88 7 69 0;
#X connect 88 8 89 0;
#X coords 0 -1 1 1 120 110 1 0 0;
