#N canvas 403 23 1277 1005 10;
#X obj 39 556 *~;
#X obj 103 529 line~;
#X obj 103 500 pack 0 6;
#X msg 103 457 0;
#X msg 143 469 1;
#X msg 559 206 reset;
#X msg 508 593 bang;
#X msg 558 593 stop;
#X obj 601 650 bng 15 250 50 0 empty empty empty 17 7 0 10 -262144
-1 -1;
#X obj 300 462 timer;
#X floatatom 300 523 5 0 0 0 - - -, f 5;
#X msg 300 548 resize \$1;
#X obj 318 416 t b b b;
#X msg 373 235 0;
#X obj 270 256 f;
#X obj 257 295 + 1;
#X msg 372 257 2;
#X obj 297 276 sel 0 1 2 3;
#X obj 230 273 sel 3;
#X text 593 593 stop playback;
#X text 601 206 clear loop;
#X obj 7 42 tgl 15 0 \$0-rec \$0-rec-inlet empty 17 7 0 10 -262144
-1 -1 0 1;
#X msg 270 233 bang;
#X text 25 40 rec;
#X text 646 302 functional \, unlimited overdubbing looper. there is
still an unfortunate quirk however: you can't seem to overdub during
the very first playback of the first loop \, the overdubs do not record
in this scenario.;
#X obj 39 333 inlet~;
#X obj 508 835 outlet~;
#X obj 40 703 tabwrite~ \$0-loop;
#X obj 508 627 tabplay~ \$0-loop;
#X obj 300 577 s \$0-loop;
#X obj 67 87 bng 15 250 50 0 \$0-clear \$0-clear-inlet empty 17 7 0
10 -262144 -1 -1;
#X text 85 86 clear;
#X obj 67 65 bng 15 250 50 0 \$0-stop \$0-stop-inlet empty 17 7 0 10
-262144 -1 -1;
#X text 86 64 stop;
#X obj 7 64 bng 15 250 50 0 \$0-play \$0-play-inlet empty 17 7 0 10
-262144 -1 -1;
#X text 25 64 play;
#X obj 67 42 tgl 15 0 \$0-monitor \$0-monitor-inlet empty 17 7 0 10
-262144 -1 -1 0 1;
#X obj 40 609 *~ 1;
#X msg 731 747 1;
#X obj 553 773 *~ 0;
#X msg 770 748 0;
#X obj 270 213 r \$0-rec;
#X msg 104 662 stop;
#X obj 104 641 r \$0-stop;
#X obj 498 494 r \$0-stop;
#X obj 435 494 r \$0-play;
#X obj 559 181 r \$0-clear;
#X obj 40 951 f \$0;
#X obj 40 909 bng 15 250 50 0 empty empty empty 17 7 0 10 -262144 -1
-1;
#X obj 40 761 r \$0-save;
#X obj 40 1084 pack f s;
#X obj 40 1127 soundfiler;
#X obj 7 87 bng 15 250 50 0 \$0-save \$0-save-inlet empty 17 7 0 10
-262144 -1 -1;
#X msg 40 1106 write -wave ../audio/\$2.wav \$1-loop;
#X text 302 232 comment;
#X symbolatom 7 21 17 0 0 0 - #0-trackname #0-filename, f 17;
#X obj 667 942 pack f s;
#X obj 667 898 bng 15 250 50 0 empty empty empty 17 7 0 10 -262144
-1 -1;
#X obj 667 919 f \$0;
#X obj 667 988 soundfiler;
#X msg 667 966 read -resize ../audio/\$2.wav \$1-loop;
#X obj 812 795 r \$0-filename;
#X obj 85 931 r \$0-filename;
#X obj 142 17 inlet rec;
#X obj 233 17 inlet play;
#X obj 330 17 inlet stop;
#X obj 428 16 inlet monitor;
#X obj 543 17 inlet clear;
#X text 85 41 mon;
#X text 25 85 save;
#X obj 730 700 r \$0-monitor;
#X obj 47 359 s~ \$0-monitor-audio;
#X obj 553 725 r~ \$0-monitor-audio;
#X msg 449 189 0;
#X obj 646 17 inlet save;
#X msg 744 37 symbol \$1;
#X obj 744 15 inlet file;
#X obj 744 58 s \$0-trackname;
#X obj 667 877 t b s;
#X obj 950 858 file-exists;
#X obj 903 1045 s \$0-clear;
#X obj 927 1000 s \$0-stop;
#X obj 903 1022 delay 100;
#X obj 666 846 symbol;
#X obj 1002 1031 s \$0-stop;
#X obj 994 1052 delay 100;
#X obj 994 1073 s \$0-play;
#X obj 951 891 sel 0;
#X obj 646 61 s \$0-save-inlet;
#X obj 543 61 s \$0-clear-inlet;
#X obj 428 61 s \$0-monitor-inlet;
#X obj 330 61 s \$0-stop-inlet;
#X obj 233 61 s \$0-play-inlet;
#X obj 142 61 s \$0-rec-inlet;
#X obj 907 143 s \$0-currently-playing;
#X msg 907 120 1;
#X obj 1056 143 s \$0-currently-playing;
#X msg 1056 120 0;
#X obj 1004 937 r \$0-currently-playing;
#X obj 992 965 f;
#X obj 1019 1010 s \$0-stop;
#X obj 992 987 sel 1;
#X msg 978 916 bang;
#X obj 907 98 r \$0-play-inlet;
#X obj 1056 98 r \$0-stop-inlet;
#X obj 731 725 sel 1;
#X obj 428 40 / 127;
#X obj 331 40 / 127;
#X obj 233 40 / 127;
#X obj 142 40 / 127;
#X obj 646 40 / 127;
#X obj 544 40 / 127;
#X obj 1090 1155 outlet;
#X obj 1090 1127 r \$0-currently-playing;
#X obj 798 206 table \$0-loop 3.969e+06;
#X msg 586 550 resize 3.969e+06 \, const 0;
#X obj 105 1076 textfile;
#X obj 104 970 symbol;
#X obj 908 921 bng 15 250 50 0 empty empty empty 17 7 0 10 -262144
-1 -1;
#X symbolatom 842 875 10 0 0 0 - - -, f 10;
#X floatatom 1028 888 5 0 0 0 - - -, f 5;
#X obj 1045 916 bng 15 250 50 0 empty empty empty 17 7 0 10 -262144
-1 -1;
#X msg 132 1031 set 1;
#X obj 105 997 t s b;
#X msg 105 1053 write ../memory/audio/\$1.wav.txt;
#X msg 950 835 ../memory/audio/\$1.wav.txt;
#X obj 300 494 * 48;
#X obj 847 14 inlet track-number;
#X obj 847 37 s \$0-track-number;
#N canvas 0 23 1680 1005 determine-master-track 1;
#X obj 49 -3 inlet;
#X obj 114 109 r \$0-track-number;
#X floatatom 114 132 5 0 0 0 - - -, f 5;
#X floatatom 49 18 20 0 0 0 - - -, f 20;
#X obj 114 156 f;
#X obj 114 181 == 4;
#X text 150 181 is master track?;
#X obj 114 204 sel 1;
#X obj 114 226 bng 15 250 50 0 empty empty empty 17 7 0 10 -262144
-1 -1;
#X obj 52 132 f;
#X floatatom 53 264 20 0 0 0 - - -, f 20;
#X obj 49 88 t b f;
#X obj 53 283 s MASTER-TRACK-LENGTH;
#X obj 293 262 bng 15 250 50 0 empty empty empty 17 7 0 10 -262144
-1 -1;
#X text 317 262 if not master track;
#X obj 398 287 r MASTER-TRACK-LENGTH;
#X obj 383 311 f;
#X obj 383 332 > 0;
#X obj 383 353 sel 1;
#X obj 383 378 bng 15 250 50 0 empty empty empty 17 7 0 10 -262144
-1 -1;
#X text 406 378 if master track length is set;
#X obj 76 62 s \$0-initial-loop-length;
#X obj 482 443 r MASTER-TRACK-LENGTH;
#X obj 432 426 r \$0-initial-loop-length;
#X obj 383 504 s \$0-loop;
#X msg 383 485 resize \$1;
#X obj 581 559 r MASTER-TRACK-LENGTH;
#X obj 531 542 r \$0-initial-loop-length;
#X obj 482 620 s \$0-loop;
#X msg 482 601 resize \$1;
#X obj 681 679 r MASTER-TRACK-LENGTH;
#X obj 631 662 r \$0-initial-loop-length;
#X obj 582 740 s \$0-loop;
#X msg 582 721 resize \$1;
#X obj 781 799 r MASTER-TRACK-LENGTH;
#X obj 731 782 r \$0-initial-loop-length;
#X obj 682 860 s \$0-loop;
#X msg 682 841 resize \$1;
#X obj 881 909 r MASTER-TRACK-LENGTH;
#X obj 831 892 r \$0-initial-loop-length;
#X obj 782 970 s \$0-loop;
#X msg 782 951 resize \$1;
#X obj 981 1019 r MASTER-TRACK-LENGTH;
#X obj 931 1002 r \$0-initial-loop-length;
#X obj 882 1080 s \$0-loop;
#X msg 882 1061 resize \$1;
#X obj 1081 1129 r MASTER-TRACK-LENGTH;
#X obj 1031 1112 r \$0-initial-loop-length;
#X obj 982 1190 s \$0-loop;
#X msg 982 1171 resize \$1;
#X obj 1183 1239 r MASTER-TRACK-LENGTH;
#X obj 1133 1222 r \$0-initial-loop-length;
#X obj 1084 1300 s \$0-loop;
#X msg 1084 1281 resize \$1;
#X obj 482 581 within-multiple 2;
#X obj 383 465 within-multiple 1;
#X obj 582 701 within-multiple 3;
#X obj 682 821 within-multiple 4;
#X obj 782 931 within-multiple 5;
#X obj 882 1041 within-multiple 6;
#X obj 982 1151 within-multiple 7;
#X obj 1084 1261 within-multiple 8;
#X obj 49 39 t f f;
#X floatatom 43 700 5 0 0 0 - - -, f 5;
#X obj 43 657 delay 500;
#N canvas 422 86 655 527 loop-length 0;
#X obj 93 263 expr size("$s1");
#X obj 93 223 f \$0;
#X msg 93 244 symbol \$1-loop;
#X obj 93 202 bng 15 250 50 0 empty empty empty 17 7 0 10 -262144 -1
-1;
#X floatatom 93 287 20 0 0 0 - - -, f 20;
#X obj 46 134 r MASTER-TRACK-LENGTH;
#X obj 48 329 /;
#X floatatom 46 177 20 0 0 0 - - -, f 20;
#X obj 46 156 f;
#X obj 22 134 bng 15 250 50 0 empty empty empty 17 7 0 10 -262144 -1
-1;
#X obj 22 99 t b b;
#X obj 22 76 bng 15 250 50 0 empty empty empty 17 7 0 10 -262144 -1
-1;
#X floatatom 48 353 20 0 0 0 - - -, f 20;
#X text 49 76 debug loop length;
#X obj 21 29 inlet;
#X obj 48 382 outlet;
#X connect 0 0 4 0;
#X connect 1 0 2 0;
#X connect 2 0 0 0;
#X connect 3 0 1 0;
#X connect 4 0 6 0;
#X connect 5 0 8 0;
#X connect 6 0 12 0;
#X connect 7 0 6 1;
#X connect 8 0 7 0;
#X connect 9 0 8 0;
#X connect 10 0 9 0;
#X connect 10 1 3 0;
#X connect 11 0 10 0;
#X connect 12 0 15 0;
#X connect 14 0 11 0;
#X restore 43 678 pd loop-length;
#X obj 44 766 ==;
#X obj 79 746 int;
#X obj 44 720 t f f;
#X obj 44 787 sel 0;
#X obj 44 808 s \$0-clear-inlet;
#X text 114 655 clear loop if not cut evenly;
#X connect 0 0 3 0;
#X connect 1 0 2 0;
#X connect 2 0 4 0;
#X connect 3 0 62 0;
#X connect 4 0 5 0;
#X connect 5 0 7 0;
#X connect 7 0 8 0;
#X connect 7 1 13 0;
#X connect 8 0 9 0;
#X connect 9 0 10 0;
#X connect 10 0 12 0;
#X connect 11 0 4 0;
#X connect 11 1 9 1;
#X connect 13 0 16 0;
#X connect 15 0 16 1;
#X connect 16 0 17 0;
#X connect 17 0 18 0;
#X connect 18 0 19 0;
#X connect 19 0 55 0;
#X connect 19 0 64 0;
#X connect 22 0 55 2;
#X connect 23 0 55 1;
#X connect 25 0 24 0;
#X connect 26 0 54 2;
#X connect 27 0 54 1;
#X connect 29 0 28 0;
#X connect 30 0 56 2;
#X connect 31 0 56 1;
#X connect 33 0 32 0;
#X connect 34 0 57 2;
#X connect 35 0 57 1;
#X connect 37 0 36 0;
#X connect 38 0 58 2;
#X connect 39 0 58 1;
#X connect 41 0 40 0;
#X connect 42 0 59 2;
#X connect 43 0 59 1;
#X connect 45 0 44 0;
#X connect 46 0 60 2;
#X connect 47 0 60 1;
#X connect 49 0 48 0;
#X connect 50 0 61 2;
#X connect 51 0 61 1;
#X connect 53 0 52 0;
#X connect 54 0 29 0;
#X connect 54 1 56 0;
#X connect 55 0 25 0;
#X connect 55 1 54 0;
#X connect 56 0 33 0;
#X connect 56 1 57 0;
#X connect 57 0 37 0;
#X connect 57 1 58 0;
#X connect 58 0 41 0;
#X connect 58 1 59 0;
#X connect 59 0 45 0;
#X connect 59 1 60 0;
#X connect 60 0 49 0;
#X connect 60 1 61 0;
#X connect 61 0 53 0;
#X connect 62 0 11 0;
#X connect 62 1 21 0;
#X connect 63 0 68 0;
#X connect 64 0 65 0;
#X connect 65 0 63 0;
#X connect 66 0 69 0;
#X connect 67 0 66 1;
#X connect 68 0 66 0;
#X connect 68 1 67 0;
#X connect 69 0 70 0;
#X restore 205 602 pd determine-master-track;
#N canvas 0 23 603 523 play-all 0;
#X obj 24 20 r PLAY-ALL;
#X obj 24 116 file-exists;
#X obj 57 40 r \$0-filename;
#X obj 24 146 sel 1;
#X obj 24 170 bng 15 250 50 0 empty empty empty 17 7 0 10 -262144 -1
-1;
#X obj 24 65 symbol;
#X msg 24 89 ../memory/audio/\$1.wav.txt;
#X obj 215 191 bng 15 250 50 0 empty empty empty 17 7 0 10 -262144
-1 -1;
#X text 241 192 if file does not yet exist;
#X obj 215 317 bng 15 250 50 0 empty empty empty 17 7 0 10 -262144
-1 -1;
#X obj 215 252 expr size("$s1");
#X obj 215 212 f \$0;
#X msg 215 233 symbol \$1-loop;
#X obj 215 272 == 3.969e+06;
#X text 256 294 == 0 when table has been resized from default;
#X obj 215 293 sel 0;
#X obj 324 355 s \$0-currently-playing;
#X msg 324 332 1;
#X obj 24 191 s \$0-play-inlet;
#X obj 215 337 s \$0-play-inlet;
#X connect 0 0 5 0;
#X connect 1 0 3 0;
#X connect 2 0 5 1;
#X connect 3 0 4 0;
#X connect 3 1 7 0;
#X connect 4 0 18 0;
#X connect 5 0 6 0;
#X connect 6 0 1 0;
#X connect 7 0 11 0;
#X connect 9 0 17 0;
#X connect 9 0 19 0;
#X connect 10 0 13 0;
#X connect 11 0 12 0;
#X connect 12 0 10 0;
#X connect 13 0 15 0;
#X connect 15 0 9 0;
#X connect 17 0 16 0;
#X restore 1062 206 pd play-all;
#N canvas 1821 409 450 300 broadcast-master-track-start 0;
#X obj 76 20 inlet;
#X obj 126 20 r \$0-track-number;
#X floatatom 126 43 5 0 0 0 - - -, f 5;
#X obj 126 67 f;
#X obj 126 92 == 4;
#X text 162 92 is master track?;
#X obj 126 115 sel 1;
#X obj 126 137 bng 15 250 50 0 empty empty empty 17 7 0 10 -262144
-1 -1;
#X obj 126 159 s MASTER-TRACK-START-BEATS;
#X connect 0 0 3 0;
#X connect 1 0 2 0;
#X connect 2 0 3 0;
#X connect 3 0 4 0;
#X connect 4 0 6 0;
#X connect 6 0 7 0;
#X connect 7 0 8 0;
#X restore 601 669 pd broadcast-master-track-start;
#X obj 40 844 expr size("$s1");
#X obj 40 804 f \$0;
#X msg 40 825 symbol \$1-loop;
#X obj 40 783 bng 15 250 50 0 empty empty empty 17 7 0 10 -262144 -1
-1;
#X obj 40 864 == 3.969e+06;
#X text 81 886 == 0 when table has been resized from default;
#X obj 40 885 sel 0;
#X connect 0 0 37 0;
#X connect 1 0 0 1;
#X connect 2 0 1 0;
#X connect 3 0 2 0;
#X connect 4 0 2 0;
#X connect 5 0 13 0;
#X connect 5 0 7 0;
#X connect 5 0 115 0;
#X connect 5 0 73 0;
#X connect 6 0 28 0;
#X connect 7 0 28 0;
#X connect 8 0 6 0;
#X connect 8 0 131 0;
#X connect 9 0 126 0;
#X connect 10 0 11 0;
#X connect 10 0 129 0;
#X connect 11 0 29 0;
#X connect 12 0 3 0;
#X connect 12 1 6 0;
#X connect 12 2 9 1;
#X connect 13 0 14 1;
#X connect 14 0 18 0;
#X connect 14 0 17 0;
#X connect 15 0 14 1;
#X connect 16 0 14 1;
#X connect 17 0 9 0;
#X connect 17 0 4 0;
#X connect 17 0 27 0;
#X connect 17 1 12 0;
#X connect 17 1 3 0;
#X connect 17 2 4 0;
#X connect 17 3 3 0;
#X connect 17 3 16 0;
#X connect 18 1 15 0;
#X connect 22 0 14 0;
#X connect 25 0 0 0;
#X connect 25 0 71 0;
#X connect 28 0 27 0;
#X connect 28 0 26 0;
#X connect 28 1 8 0;
#X connect 28 1 27 0;
#X connect 37 0 27 0;
#X connect 38 0 39 1;
#X connect 39 0 26 0;
#X connect 40 0 39 1;
#X connect 41 0 22 0;
#X connect 42 0 27 0;
#X connect 43 0 42 0;
#X connect 44 0 7 0;
#X connect 45 0 6 0;
#X connect 46 0 5 0;
#X connect 47 0 50 0;
#X connect 48 0 47 0;
#X connect 48 0 117 0;
#X connect 49 0 135 0;
#X connect 50 0 53 0;
#X connect 53 0 51 0;
#X connect 56 0 60 0;
#X connect 57 0 58 0;
#X connect 58 0 56 0;
#X connect 60 0 59 0;
#X connect 61 0 125 0;
#X connect 61 0 83 0;
#X connect 61 0 119 0;
#X connect 62 0 50 1;
#X connect 62 0 117 1;
#X connect 63 0 109 0;
#X connect 64 0 108 0;
#X connect 65 0 107 0;
#X connect 66 0 106 0;
#X connect 67 0 111 0;
#X connect 70 0 105 0;
#X connect 72 0 39 0;
#X connect 73 0 14 1;
#X connect 74 0 110 0;
#X connect 75 0 77 0;
#X connect 76 0 75 0;
#X connect 78 0 57 0;
#X connect 78 1 56 1;
#X connect 79 0 87 0;
#X connect 79 0 120 0;
#X connect 82 0 80 0;
#X connect 83 0 78 0;
#X connect 85 0 86 0;
#X connect 87 0 81 0;
#X connect 87 0 82 0;
#X connect 87 0 118 0;
#X connect 87 1 102 0;
#X connect 87 1 121 0;
#X connect 95 0 94 0;
#X connect 97 0 96 0;
#X connect 98 0 99 0;
#X connect 99 0 101 0;
#X connect 101 0 84 0;
#X connect 101 0 85 0;
#X connect 101 1 100 0;
#X connect 102 0 99 0;
#X connect 103 0 95 0;
#X connect 104 0 97 0;
#X connect 105 0 38 0;
#X connect 105 1 40 0;
#X connect 106 0 90 0;
#X connect 107 0 91 0;
#X connect 108 0 92 0;
#X connect 109 0 93 0;
#X connect 110 0 88 0;
#X connect 111 0 89 0;
#X connect 113 0 112 0;
#X connect 115 0 29 0;
#X connect 117 0 123 0;
#X connect 122 0 116 0;
#X connect 123 0 124 0;
#X connect 123 1 122 0;
#X connect 124 0 116 0;
#X connect 125 0 79 0;
#X connect 126 0 10 0;
#X connect 127 0 128 0;
#X connect 132 0 136 0;
#X connect 133 0 134 0;
#X connect 134 0 132 0;
#X connect 135 0 133 0;
#X connect 136 0 138 0;
#X connect 138 0 48 0;
#X coords 0 -1 1 1 120 110 1 0 0;
