#N canvas 515 34 1277 1235 10;
#X obj 39 556 *~;
#X obj 103 529 line~;
#X obj 103 500 pack 0 6;
#X msg 103 457 0;
#X msg 143 469 1;
#X msg 559 206 reset;
#X msg 508 593 bang;
#X msg 558 593 stop;
#X obj 601 650 bng 15 250 50 0 empty empty empty 17 7 0 10 -262144
-1 -1;
#X obj 300 462 timer;
#X obj 300 494 * 44.1;
#X floatatom 300 523 5 0 0 0 - - -, f 5;
#X msg 300 548 resize \$1;
#X obj 318 416 t b b b;
#X msg 373 235 0;
#X obj 270 256 f;
#X obj 257 295 + 1;
#X msg 372 257 2;
#X obj 297 276 sel 0 1 2 3;
#X obj 230 273 sel 3;
#X text 593 593 stop playback;
#X text 601 206 clear loop;
#X obj 7 42 tgl 15 0 \$0-rec \$0-rec-inlet empty 17 7 0 10 -262144
-1 -1 0 1;
#X msg 270 233 bang;
#X text 25 40 rec;
#X text 646 302 functional \, unlimited overdubbing looper. there is
still an unfortunate quirk however: you can't seem to overdub during
the very first playback of the first loop \, the overdubs do not record
in this scenario.;
#X obj 39 333 inlet~;
#X obj 508 800 outlet~;
#X obj 40 703 tabwrite~ \$0-loop;
#X obj 508 627 tabplay~ \$0-loop;
#X obj 300 577 s \$0-loop;
#X obj 67 87 bng 15 250 50 0 \$0-clear \$0-clear-inlet empty 17 7 0
10 -262144 -1 -1;
#X text 85 86 clear;
#X obj 67 65 bng 15 250 50 0 \$0-stop \$0-stop-inlet empty 17 7 0 10
-262144 -1 -1;
#X text 86 64 stop;
#X obj 7 64 bng 15 250 50 0 \$0-play \$0-play-inlet empty 17 7 0 10
-262144 -1 -1;
#X text 25 64 play;
#X obj 67 42 tgl 15 0 \$0-monitor \$0-monitor-inlet empty 17 7 0 10
-262144 -1 -1 0 1;
#X obj 40 609 *~ 1;
#X msg 731 713 1;
#X obj 553 738 *~ 0;
#X msg 770 713 0;
#X obj 270 213 r \$0-rec;
#X msg 104 662 stop;
#X obj 104 641 r \$0-stop;
#X obj 498 494 r \$0-stop;
#X obj 435 494 r \$0-play;
#X obj 559 181 r \$0-clear;
#X obj 42 905 f \$0;
#X obj 42 883 bng 15 250 50 0 empty empty empty 17 7 0 10 -262144 -1
-1;
#X obj 42 859 r \$0-save;
#X obj 42 928 pack f s;
#X obj 42 971 soundfiler;
#X obj 7 87 bng 15 250 50 0 \$0-save \$0-save-inlet empty 17 7 0 10
-262144 -1 -1;
#X msg 42 950 write -wave ../audio/\$2.wav \$1-loop;
#X text 302 232 comment;
#X symbolatom 7 21 17 0 0 0 - #0-trackname #0-filename, f 17;
#X obj 667 942 pack f s;
#X obj 667 898 bng 15 250 50 0 empty empty empty 17 7 0 10 -262144
-1 -1;
#X obj 667 919 f \$0;
#X obj 667 988 soundfiler;
#X msg 667 966 read -resize ../audio/\$2.wav \$1-loop;
#X obj 812 795 r \$0-filename;
#X obj 87 905 r \$0-filename;
#X obj 142 17 inlet rec;
#X obj 233 17 inlet play;
#X obj 330 17 inlet stop;
#X obj 428 16 inlet monitor;
#X obj 543 17 inlet clear;
#X text 85 41 mon;
#X text 25 85 save;
#X obj 730 665 r \$0-monitor;
#X obj 47 359 s~ \$0-monitor-audio;
#X obj 553 690 r~ \$0-monitor-audio;
#X obj 187 494 tgl 15 0 empty empty empty 17 7 0 10 -262144 -1 -1 0
1;
#X obj 187 515 metro 1000;
#X obj 798 206 table \$0-loop 88200;
#X msg 586 550 resize 88200 \, const 0;
#X obj 187 537 f 88200;
#X obj 241 537 + 44100;
#X msg 187 560 resize \$1;
#X obj 187 581 s \$0-loop;
#X msg 576 235 88200;
#X text 182 600 auto-sizing;
#X msg 449 189 0;
#X obj 646 17 inlet save;
#X msg 744 37 symbol \$1;
#X obj 744 15 inlet file;
#X obj 744 58 s \$0-trackname;
#X obj 667 877 t b s;
#X obj 950 858 file-exists;
#X msg 950 835 ../audio/\$1.wav;
#X obj 903 1045 s \$0-clear;
#X obj 914 1000 s \$0-stop;
#X obj 903 1022 delay 100;
#X obj 666 846 symbol;
#X obj 997 1032 s \$0-stop;
#X obj 994 1052 delay 100;
#X obj 994 1073 s \$0-play;
#X obj 951 891 sel 0;
#X obj 646 61 s \$0-save-inlet;
#X obj 543 61 s \$0-clear-inlet;
#X obj 428 61 s \$0-monitor-inlet;
#X obj 330 61 s \$0-stop-inlet;
#X obj 233 61 s \$0-play-inlet;
#X obj 142 61 s \$0-rec-inlet;
#X obj 907 143 s \$0-currently-playing;
#X msg 907 120 1;
#X obj 1056 143 s \$0-currently-playing;
#X msg 1056 120 0;
#X obj 992 943 r \$0-currently-playing;
#X obj 992 965 f;
#X obj 1019 1010 s \$0-stop;
#X obj 992 987 sel 1;
#X msg 978 916 bang;
#X obj 907 98 r \$0-play-inlet;
#X obj 1056 98 r \$0-stop-inlet;
#X obj 731 690 sel 1;
#X obj 428 40 / 127;
#X obj 331 40 / 127;
#X obj 233 40 / 127;
#X obj 142 40 / 127;
#X obj 646 40 / 127;
#X obj 544 40 / 127;
#X obj 1090 1155 outlet;
#X obj 1090 1127 r \$0-currently-playing;
#X connect 0 0 38 0;
#X connect 1 0 0 1;
#X connect 2 0 1 0;
#X connect 3 0 2 0;
#X connect 4 0 2 0;
#X connect 5 0 14 0;
#X connect 5 0 7 0;
#X connect 5 0 77 0;
#X connect 5 0 82 0;
#X connect 5 0 84 0;
#X connect 6 0 29 0;
#X connect 7 0 29 0;
#X connect 8 0 6 0;
#X connect 9 0 10 0;
#X connect 10 0 11 0;
#X connect 11 0 12 0;
#X connect 12 0 30 0;
#X connect 13 0 3 0;
#X connect 13 1 6 0;
#X connect 13 2 9 1;
#X connect 14 0 15 1;
#X connect 15 0 19 0;
#X connect 15 0 18 0;
#X connect 16 0 15 1;
#X connect 17 0 15 1;
#X connect 18 0 9 0;
#X connect 18 0 4 0;
#X connect 18 0 28 0;
#X connect 18 0 74 0;
#X connect 18 1 13 0;
#X connect 18 1 3 0;
#X connect 18 1 74 0;
#X connect 18 2 4 0;
#X connect 18 3 3 0;
#X connect 18 3 17 0;
#X connect 19 1 16 0;
#X connect 23 0 15 0;
#X connect 26 0 0 0;
#X connect 26 0 72 0;
#X connect 29 0 28 0;
#X connect 29 0 27 0;
#X connect 29 1 8 0;
#X connect 29 1 28 0;
#X connect 38 0 28 0;
#X connect 39 0 40 1;
#X connect 40 0 27 0;
#X connect 41 0 40 1;
#X connect 42 0 23 0;
#X connect 43 0 28 0;
#X connect 44 0 43 0;
#X connect 45 0 7 0;
#X connect 46 0 6 0;
#X connect 47 0 5 0;
#X connect 48 0 51 0;
#X connect 49 0 48 0;
#X connect 50 0 49 0;
#X connect 51 0 54 0;
#X connect 54 0 52 0;
#X connect 57 0 61 0;
#X connect 58 0 59 0;
#X connect 59 0 57 0;
#X connect 61 0 60 0;
#X connect 62 0 91 0;
#X connect 62 0 95 0;
#X connect 63 0 51 1;
#X connect 64 0 121 0;
#X connect 65 0 120 0;
#X connect 66 0 119 0;
#X connect 67 0 118 0;
#X connect 68 0 123 0;
#X connect 71 0 117 0;
#X connect 73 0 40 0;
#X connect 74 0 75 0;
#X connect 75 0 78 0;
#X connect 77 0 30 0;
#X connect 78 0 79 0;
#X connect 78 0 80 0;
#X connect 79 0 78 1;
#X connect 80 0 81 0;
#X connect 82 0 78 1;
#X connect 84 0 15 1;
#X connect 85 0 122 0;
#X connect 86 0 88 0;
#X connect 87 0 86 0;
#X connect 89 0 58 0;
#X connect 89 1 57 1;
#X connect 90 0 99 0;
#X connect 91 0 90 0;
#X connect 94 0 92 0;
#X connect 95 0 89 0;
#X connect 97 0 98 0;
#X connect 99 0 93 0;
#X connect 99 0 94 0;
#X connect 99 1 114 0;
#X connect 107 0 106 0;
#X connect 109 0 108 0;
#X connect 110 0 111 0;
#X connect 111 0 113 0;
#X connect 113 0 96 0;
#X connect 113 0 97 0;
#X connect 113 1 112 0;
#X connect 114 0 111 0;
#X connect 115 0 107 0;
#X connect 116 0 109 0;
#X connect 117 0 39 0;
#X connect 117 1 41 0;
#X connect 118 0 102 0;
#X connect 119 0 103 0;
#X connect 120 0 104 0;
#X connect 121 0 105 0;
#X connect 122 0 100 0;
#X connect 123 0 101 0;
#X connect 125 0 124 0;
#X coords 0 -1 1 1 120 110 1 0 0;
