#N canvas 92 117 1036 764 12;
#X msg 44 218 resize 100 \, const 0;
#X obj 473 141 table \$0-table;
#X obj 145 139 tgl 15 0 \$0-toggle \$0-toggle-in empty 17 7 0 10 #fcfcfc #000000 #000000 0 1;
#X obj 165 139 bng 15 250 50 0 \$0-clear \$0-clear-in empty 17 7 0 10 #fcfcfc #000000 #000000;
#X msg 367 457 resize \$1;
#X obj 213 290 midi-encoder;
#X obj 328 353 f;
#X obj 357 353 + 1;
#X obj 328 331 metro 100;
#X floatatom 328 382 5 0 0 0 - - - 0;
#X obj 328 303 == 1;
#X obj 327 276 tgl 15 0 empty empty empty 17 7 0 10 #fcfcfc #000000 #000000 0 1;
#X msg 366 428 \$1;
#X obj 420 292 hsl 128 15 0 127 0 0 empty empty empty -2 -8 0 10 #fcfcfc #000000 #000000 0 1;
#X obj 370 151 tgl 15 0 empty empty empty 17 7 0 10 #fcfcfc #000000 #000000 0 1;
#X obj 370 202 f;
#X obj 400 202 + 1;
#X obj 370 100 == 0;
#X obj 370 180 metro 100;
#X msg 447 179 0;
#X obj 224 363 f;
#X obj 368 244 mod;
#X obj 44 242 s \$0-table;
#X obj 367 480 s \$0-table;
#X obj 223 429 tabwrite \$0-table;
#X obj 420 264 tabread \$0-table;
#X obj 213 264 f \$1;
#X obj 213 239 loadbang;
#X obj 263 265 f \$2;
#X obj 244 402 s \$0-enabled;
#X obj 12 -58 inlet;
#X obj 12 -34 route toggle clear encoder channel;
#X obj 129 11 s \$0-encoder;
#X obj 188 -10 s \$0-channel;
#X obj 12 55 s \$0-toggle-in;
#X obj 70 33 s \$0-clear-in;
#X obj 366 22 r \$0-channel;
#X obj 320 -3 r \$0-encoder;
#X obj 531 504 / 127;
#X obj 531 533 outlet;
#X connect 0 0 22 0;
#X connect 2 0 11 0;
#X connect 3 0 0 0;
#X connect 3 0 19 0;
#X connect 3 0 14 0;
#X connect 4 0 23 0;
#X connect 5 0 20 0;
#X connect 5 0 38 0;
#X connect 6 0 7 0;
#X connect 6 0 9 0;
#X connect 7 0 6 1;
#X connect 8 0 6 0;
#X connect 8 0 20 0;
#X connect 9 0 12 0;
#X connect 9 0 21 1;
#X connect 9 0 24 1;
#X connect 10 0 8 0;
#X connect 11 0 10 0;
#X connect 11 0 17 0;
#X connect 11 0 29 0;
#X connect 12 0 4 0;
#X connect 13 0 38 0;
#X connect 14 0 18 0;
#X connect 15 0 16 0;
#X connect 15 0 21 0;
#X connect 16 0 15 1;
#X connect 17 0 14 0;
#X connect 18 0 15 0;
#X connect 19 0 15 1;
#X connect 19 0 6 1;
#X connect 20 0 24 0;
#X connect 21 0 25 0;
#X connect 25 0 13 0;
#X connect 26 0 5 0;
#X connect 27 0 26 0;
#X connect 27 0 28 0;
#X connect 28 0 5 1;
#X connect 30 0 31 0;
#X connect 31 0 34 0;
#X connect 31 1 35 0;
#X connect 31 2 32 0;
#X connect 31 3 33 0;
#X connect 36 0 28 0;
#X connect 37 0 26 0;
#X connect 38 0 39 0;
#X coords 0 -1 1 1 85 60 1 100 100;
