#N canvas 536 222 858 554 10;
#X obj 320 226 soundfiler;
#X obj 320 248 expr 44100 / $f1;
#X obj 320 379 *~;
#X floatatom 320 270 5 0 0 0 - - - 0;
#X floatatom 427 243 10 0 0 0 - - - 0;
#X obj 209 289 bng 15 250 50 0 empty empty empty 17 7 0 10 #fcfcfc #000000 #000000;
#X text 165 288 resume;
#X msg 246 339 0;
#X text 248 319 stop;
#X obj 209 258 sel 1;
#X obj 484 44 table \$0-loop;
#X obj 371 128 f \$0;
#X obj 320 400 tabread4~ \$0-loop;
#X obj 320 464 outlet~;
#X obj 319 81 r \$0-file;
#X obj 162 140 tgl 15 0 \$0-play-toggle empty empty 17 7 0 10 #fcfcfc #000000 #000000 0 1;
#X obj 209 236 r \$0-play-toggle;
#X obj 427 263 s \$0-loopSize;
#X obj 442 344 r \$0-loopSize;
#X obj 320 290 s \$0-loopRate;
#X obj 320 311 r \$0-loopRate;
#X msg 320 202 read -resize ../audio/\$1.wav \$2-loop;
#X symbolatom 105 140 7 0 0 0 - - \$0-file 0;
#X obj 319 108 t s b;
#X obj 319 136 symbol;
#X obj 320 178 pack s \$1;
#X obj 191 9 inlet;
#X obj 94 14 inlet;
#X obj 671 136 f \$0;
#X msg 620 210 read -resize ../audio/\$1.wav \$2-loop;
#X obj 619 116 t b b;
#X obj 619 144 f \$1;
#X obj 619 91 loadbang;
#X obj 620 186 pack f \$1;
#X obj 320 355 phasor~;
#X obj 427 363 f;
#X connect 0 0 1 0;
#X connect 0 0 4 0;
#X connect 1 0 3 0;
#X connect 2 0 12 0;
#X connect 3 0 19 0;
#X connect 4 0 17 0;
#X connect 5 0 1 0;
#X connect 5 0 35 0;
#X connect 7 0 34 1;
#X connect 7 0 34 0;
#X connect 9 0 5 0;
#X connect 9 1 7 0;
#X connect 11 0 25 1;
#X connect 12 0 13 0;
#X connect 14 0 23 0;
#X connect 16 0 9 0;
#X connect 18 0 35 1;
#X connect 20 0 34 0;
#X connect 21 0 0 0;
#X connect 23 0 24 0;
#X connect 23 1 11 0;
#X connect 24 0 25 0;
#X connect 25 0 21 0;
#X connect 26 0 15 0;
#X connect 27 0 22 0;
#X connect 28 0 33 1;
#X connect 29 0 0 0;
#X connect 30 0 31 0;
#X connect 30 1 28 0;
#X connect 31 0 33 0;
#X connect 32 0 30 0;
#X connect 33 0 29 0;
#X connect 34 0 2 0;
#X connect 35 0 2 1;
#X coords 0 -1 1 1 85 60 1 100 100;
