#N canvas 531 225 1149 666 10;
#X obj 320 226 soundfiler;
#X obj 320 569 *~;
#X floatatom 316 355 5 0 0 0 - - - 0;
#X floatatom 358 252 10 0 0 0 - - - 0;
#X obj 209 389 bng 15 250 50 0 empty empty empty 17 7 0 10 #fcfcfc #000000 #000000;
#X text 165 388 resume;
#X msg 246 529 0;
#X text 248 509 stop;
#X obj 209 358 sel 1;
#X obj 484 44 table \$0-loop;
#X obj 371 128 f \$0;
#X obj 320 590 tabread4~ \$0-loop;
#X obj 320 654 outlet~;
#X obj 319 81 r \$0-file;
#X obj 162 140 tgl 15 0 \$0-play-toggle empty empty 17 7 0 10 #fcfcfc #000000 #000000 0 1;
#X obj 358 272 s \$0-loopSize;
#X obj 442 534 r \$0-loopSize;
#X obj 316 375 s \$0-loopRate;
#X obj 335 503 r \$0-loopRate;
#X msg 320 202 read -resize ../audio/\$1.wav \$2-loop;
#X symbolatom 105 140 7 0 0 0 - - \$0-file 0;
#X obj 319 108 t s b;
#X obj 319 136 symbol;
#X obj 320 178 pack s \$1;
#X obj 191 9 inlet;
#X obj 94 14 inlet;
#X obj 671 136 f \$0;
#X msg 620 210 read -resize ../audio/\$1.wav \$2-loop;
#X obj 619 116 t b b;
#X obj 619 144 f \$1;
#X obj 619 91 loadbang;
#X obj 620 186 pack f \$1;
#X obj 320 545 phasor~;
#X obj 427 553 f;
#X obj 39 512 r STOP-PLAYBACK;
#X obj 320 524 f;
#N canvas 63 88 450 300 playback-pulse 0;
#X obj 15 13 r \$0-currently-playing;
#X obj 16 228 bng 15 250 50 0 empty empty empty 17 7 0 10 #fcfcfc #000000 #000000;
#X obj 16 251 midi-pulse-on;
#X obj 15 107 sel 1;
#X obj 43 147 bng 15 250 50 0 empty empty empty 17 7 0 10 #fcfcfc #000000 #000000;
#X obj 43 170 midi-pulse-off;
#X floatatom 124 145 5 0 0 0 - - - 0;
#X floatatom 91 227 5 0 0 0 - - - 0;
#X obj 124 124 r \$0-play-button;
#X obj 91 202 r \$0-play-button;
#X obj 48 32 r \$0-play-button;
#X obj 15 69 spigot;
#X msg 47 51 1;
#X connect 0 0 11 0;
#X connect 1 0 2 0;
#X connect 3 0 1 0;
#X connect 3 1 4 0;
#X connect 4 0 5 0;
#X connect 6 0 5 1;
#X connect 7 0 2 1;
#X connect 8 0 6 0;
#X connect 9 0 7 0;
#X connect 10 0 12 0;
#X connect 11 0 3 0;
#X connect 12 0 11 1;
#X restore 894 22 pd playback-pulse;
#X obj 85 585 s \$0-currently-playing;
#X msg 83 559 1;
#X msg 115 561 0;
#X obj 274 -6 inlet;
#X obj 275 17 route play-button;
#X obj 275 41 s \$0-play-button;
#N canvas 92 117 756 543 no-file-led 0;
#X obj 217 75 file-exists;
#X obj 217 98 sel 0;
#X msg 217 51 ../audio/\$1.wav;
#X obj 217 23 r \$0-file;
#X obj 72 114 bng 16 250 50 0 empty empty empty 0 -8 0 10 #fcfcfc #000000 #000000;
#X obj 246 165 bng 16 250 50 0 empty empty empty 0 -8 0 10 #fcfcfc #000000 #000000;
#X text 270 164 exists;
#X text -20 115 does not exist;
#X obj 74 163 midi-led-on;
#X obj 135 139 r \$0-play-button;
#X obj 326 185 r \$0-currently-playing;
#X obj 246 264 bng 16 250 50 0 empty empty empty 0 -8 0 10 #fcfcfc #000000 #000000;
#X obj 250 234 sel 0;
#X text 168 264 not playing;
#X obj 76 310 midi-led-off;
#X obj 144 235 r \$0-play-button;
#X obj 311 211 i;
#X connect 0 0 1 0;
#X connect 1 0 4 0;
#X connect 1 1 5 0;
#X connect 2 0 0 0;
#X connect 3 0 2 0;
#X connect 4 0 8 0;
#X connect 5 0 16 0;
#X connect 9 0 8 1;
#X connect 10 0 16 1;
#X connect 11 0 14 0;
#X connect 12 0 11 0;
#X connect 15 0 14 1;
#X connect 16 0 12 0;
#X restore 894 46 pd no-file-led;
#N canvas 753 365 898 628 prevent-nonplayable 0;
#X obj 24 116 file-exists;
#X obj 24 146 sel 1;
#X obj 24 65 symbol;
#X obj 25 236 s \$0-play;
#X msg 24 89 ../audio/\$1.wav;
#X obj 23 15 r \$0-play-toggle;
#X obj 25 37 sel 1;
#X obj 71 39 r \$0-file;
#X msg 52 214 0;
#X msg 20 213 1;
#X obj 20 194 bng 16 250 50 0 empty empty empty 0 -8 0 10 #fcfcfc #000000 #000000;
#X obj 53 194 bng 16 250 50 0 empty empty empty 0 -8 0 10 #fcfcfc #000000 #000000;
#X obj 75 64 s \$0-stop;
#X obj 98 209 midi-led-on;
#X obj 161 183 r \$0-play-button;
#X obj 336 115 file-exists;
#X obj 336 64 symbol;
#X msg 336 88 ../audio/\$1.wav;
#X obj 335 14 r \$0-play-toggle;
#X obj 383 38 r \$0-file;
#X obj 337 173 bng 16 250 50 0 empty empty empty 0 -8 0 10 #fcfcfc #000000 #000000;
#X obj 338 226 midi-led-on;
#X obj 401 200 r \$0-play-button;
#X obj 337 36 sel 0;
#X obj 336 145 sel 0;
#X obj 338 202 delay 50;
#X connect 0 0 1 0;
#X connect 1 0 10 0;
#X connect 1 1 11 0;
#X connect 2 0 4 0;
#X connect 4 0 0 0;
#X connect 5 0 6 0;
#X connect 6 0 2 0;
#X connect 6 1 12 0;
#X connect 7 0 2 1;
#X connect 8 0 3 0;
#X connect 9 0 3 0;
#X connect 10 0 9 0;
#X connect 11 0 8 0;
#X connect 11 0 13 0;
#X connect 14 0 13 1;
#X connect 15 0 24 0;
#X connect 16 0 17 0;
#X connect 17 0 15 0;
#X connect 18 0 23 0;
#X connect 19 0 16 1;
#X connect 20 0 25 0;
#X connect 22 0 21 1;
#X connect 23 0 16 0;
#X connect 24 0 20 0;
#X connect 25 0 21 0;
#X restore 893 70 pd prevent-nonplayable;
#X obj 209 336 r \$0-play;
#X obj 246 583 r \$0-stop;
#X obj -55 16 loadbang;
#X obj -55 40 samplerate~;
#X obj -55 63 value samplerate;
#X obj 317 333 expr samplerate / $f1;
#X connect 0 0 3 0;
#X connect 0 0 50 0;
#X connect 1 0 11 0;
#X connect 2 0 17 0;
#X connect 3 0 15 0;
#X connect 4 0 33 0;
#X connect 4 0 35 0;
#X connect 4 0 38 0;
#X connect 4 0 50 0;
#X connect 6 0 32 1;
#X connect 6 0 32 0;
#X connect 6 0 39 0;
#X connect 8 0 4 0;
#X connect 8 1 6 0;
#X connect 10 0 23 1;
#X connect 11 0 12 0;
#X connect 13 0 21 0;
#X connect 16 0 33 1;
#X connect 18 0 35 1;
#X connect 19 0 0 0;
#X connect 21 0 22 0;
#X connect 21 1 10 0;
#X connect 22 0 23 0;
#X connect 23 0 19 0;
#X connect 24 0 14 0;
#X connect 25 0 20 0;
#X connect 26 0 31 1;
#X connect 27 0 0 0;
#X connect 28 0 29 0;
#X connect 28 1 26 0;
#X connect 29 0 31 0;
#X connect 30 0 28 0;
#X connect 31 0 27 0;
#X connect 32 0 1 0;
#X connect 33 0 1 1;
#X connect 34 0 6 0;
#X connect 34 0 14 0;
#X connect 35 0 32 0;
#X connect 38 0 37 0;
#X connect 39 0 37 0;
#X connect 40 0 41 0;
#X connect 41 0 42 0;
#X connect 45 0 8 0;
#X connect 46 0 6 0;
#X connect 47 0 48 0;
#X connect 48 0 49 0;
#X connect 50 0 2 0;
#X coords 0 -1 1 1 85 60 1 100 100;
