#N canvas 14 23 1129 855 10;
#X obj 39 696 *~;
#X obj 103 669 line~;
#X obj 103 640 pack 0 6;
#X msg 103 597 0;
#X msg 143 609 1;
#X msg 559 346 reset;
#X msg 508 733 bang;
#X msg 558 733 stop;
#X obj 601 790 bng 15 250 50 0 empty empty empty 17 7 0 10 -262144
-1 -1;
#X obj 319 603 timer;
#X obj 319 635 * 44.1;
#X floatatom 319 664 5 0 0 0 - - -;
#X msg 319 689 resize \$1;
#X obj 337 557 t b b b;
#X msg 586 690 resize 3.969e+06 \, const 0;
#X msg 373 375 0;
#X obj 270 396 f;
#X obj 257 435 + 1;
#X msg 372 397 2;
#X obj 297 416 sel 0 1 2 3;
#X obj 230 413 sel 3;
#X text 593 733 stop playback;
#X text 601 346 clear loop;
#X obj 7 22 tgl 15 0 \$0-rec \$0-midi-rec empty 17 7 0 10 -262144 -1
-1 0 127;
#X msg 270 373 bang;
#X text 25 20 rec;
#X text 646 442 functional \, unlimited overdubbing looper. there is
still an unfortunate quirk however: you can't seem to overdub during
the very first playback of the first loop \, the overdubs do not record
in this scenario.;
#X obj 39 473 inlet~;
#X obj 508 907 outlet~;
#X obj 798 346 table \$0-loop 3.969e+06;
#X obj 40 843 tabwrite~ \$0-loop;
#X obj 508 767 tabplay~ \$0-loop;
#X obj 319 718 s \$0-loop;
#X obj 7 44 bng 15 250 50 0 \$0-clear \$0-midi-clear empty 17 7 0 10
-262144 -1 -1;
#X text 25 43 clear;
#X obj 68 23 bng 15 250 50 0 \$0-stop empty empty 17 7 0 10 -262144
-1 -1;
#X text 87 22 stop;
#X obj 69 45 bng 15 250 50 0 \$0-play \$0-midi-play empty 17 7 0 10
-262144 -1 -1;
#X text 87 45 play;
#X obj 47 499 s~ \$0-monitor;
#X obj 553 830 r~ \$0-monitor;
#X obj 97 4 tgl 15 0 \$0-monitor-on \$0-midi-monitor empty 17 7 0 10
-262144 -1 -1 0 127;
#X obj 40 749 *~ 1;
#X msg 734 858 1;
#X obj 553 878 *~ 0;
#X msg 771 857 0;
#X obj 731 808 r \$0-monitor-on;
#X obj 270 353 r \$0-rec;
#X msg 104 802 stop;
#X obj 104 781 r \$0-stop;
#X obj 489 604 r \$0-stop;
#X obj 429 603 r \$0-play;
#X obj 559 321 r \$0-clear;
#X obj 188 233 s \$0-midi-rec;
#X obj 275 228 s \$0-midi-clear;
#X obj 857 791 ctlout;
#X text 837 717 playback indicator;
#X obj 112 91 s \$0-encoder-number;
#X obj 832 738 r \$0-encoder-number;
#X obj 819 763 f;
#X obj 879 925 ctlout;
#X obj 854 872 r \$0-encoder-number;
#X obj 841 897 f;
#X text 859 851 no playback indicator;
#X msg 879 904 0 \$1 3;
#X msg 857 770 11 \$1 3;
#X obj 743 771 bng 15 250 50 0 empty empty empty 17 7 0 10 -262144
-1 -1;
#X obj 667 822 bng 15 250 50 0 empty empty empty 17 7 0 10 -262144
-1 -1;
#X obj 244 923 f \$0;
#X obj 244 901 bng 15 250 50 0 empty empty empty 17 7 0 10 -262144
-1 -1;
#X text 175 898 save loops;
#X obj 244 873 r \$0-save;
#X obj 289 923 r \$0-track-number;
#X obj 244 946 pack f s;
#X obj 244 989 soundfiler;
#X obj 49 23 bng 15 250 50 0 \$0-save \$0-save empty 17 7 0 10 -262144
-1 -1;
#X msg 244 968 write -wave ../audio/\$2.wav \$1-loop;
#X text 302 372 comment;
#X symbolatom 29 3 10 0 0 0 - #0-filename #0-track-number;
#X obj 483 950 r \$0-track-number;
#X obj 483 1019 pack f s;
#X obj 483 975 bng 15 250 50 0 empty empty empty 17 7 0 10 -262144
-1 -1;
#X obj 483 996 f \$0;
#X obj 528 990 r \$0-track-number;
#X obj 483 865 soundfiler;
#X msg 483 1043 read -resize ../audio/\$2.wav \$1-loop;
#X obj 261 28 inlet midi-knob-no-1;
#X obj 261 51 midi-toggle;
#X obj 731 830 sel 127;
#X obj 294 128 midi-toggle;
#X floatatom 293 104 5 0 0 0 - - -;
#X floatatom 358 106 5 0 0 0 - - -;
#X obj 188 210 spigot;
#X obj 334 152 == 127;
#X obj 294 152 == 0;
#X obj 275 204 spigot;
#X obj 657 36 midi-toggle;
#X obj 800 23 midi-toggle;
#X floatatom 799 -1 5 0 0 0 - - -;
#X floatatom 864 1 5 0 0 0 - - -;
#X obj 504 113 spigot;
#X obj 690 100 spigot;
#X obj 657 13 inlet midi-knob-no-2;
#X obj 521 151 s \$0-midi-monitor;
#X obj 690 124 s \$0-midi-play;
#X floatatom 366 192 5 0 0 0 - - -;
#X floatatom 327 196 5 0 0 0 - - -;
#X obj 174 257 bng 15 250 50 0 empty empty empty 17 7 0 10 -262144
-1 -1;
#X obj 276 255 bng 15 250 50 0 empty empty empty 17 7 0 10 -262144
-1 -1;
#X floatatom 883 153 5 0 0 0 - - -;
#X obj 499 192 bng 15 250 50 0 empty empty empty 17 7 0 10 -262144
-1 -1;
#X obj 669 168 bng 15 250 50 0 empty empty empty 17 7 0 10 -262144
-1 -1;
#X floatatom 527 192 5 0 0 0 - - -;
#X floatatom 695 169 5 0 0 0 - - -;
#X msg 749 84 1;
#X msg 781 85 0;
#X msg 589 96 1;
#X msg 622 96 0;
#X floatatom 932 155 5 0 0 0 - - -;
#X obj 883 92 sel 127;
#X obj 852 155 bng 15 250 50 0 empty empty empty 17 7 0 10 -262144
-1 -1;
#X obj 985 158 bng 15 250 50 0 empty empty empty 17 7 0 10 -262144
-1 -1;
#X connect 0 0 42 0;
#X connect 1 0 0 1;
#X connect 2 0 1 0;
#X connect 3 0 2 0;
#X connect 4 0 2 0;
#X connect 5 0 15 0;
#X connect 5 0 7 0;
#X connect 5 0 14 0;
#X connect 5 0 62 0;
#X connect 6 0 31 0;
#X connect 6 0 66 0;
#X connect 7 0 31 0;
#X connect 7 0 67 0;
#X connect 8 0 6 0;
#X connect 9 0 10 0;
#X connect 10 0 11 0;
#X connect 11 0 12 0;
#X connect 12 0 32 0;
#X connect 13 0 3 0;
#X connect 13 1 6 0;
#X connect 13 2 9 1;
#X connect 14 0 32 0;
#X connect 15 0 16 1;
#X connect 16 0 20 0;
#X connect 16 0 19 0;
#X connect 17 0 16 1;
#X connect 18 0 16 1;
#X connect 19 0 9 0;
#X connect 19 0 4 0;
#X connect 19 0 30 0;
#X connect 19 1 13 0;
#X connect 19 1 3 0;
#X connect 19 2 4 0;
#X connect 19 3 3 0;
#X connect 19 3 18 0;
#X connect 20 1 17 0;
#X connect 24 0 16 0;
#X connect 27 0 0 0;
#X connect 27 0 39 0;
#X connect 31 0 30 0;
#X connect 31 0 28 0;
#X connect 31 1 8 0;
#X connect 31 1 30 0;
#X connect 40 0 44 0;
#X connect 42 0 30 0;
#X connect 43 0 44 1;
#X connect 44 0 28 0;
#X connect 45 0 44 1;
#X connect 46 0 88 0;
#X connect 47 0 24 0;
#X connect 48 0 30 0;
#X connect 49 0 48 0;
#X connect 50 0 7 0;
#X connect 51 0 6 0;
#X connect 52 0 5 0;
#X connect 58 0 59 1;
#X connect 59 0 65 0;
#X connect 61 0 62 1;
#X connect 62 0 64 0;
#X connect 64 0 60 0;
#X connect 65 0 55 0;
#X connect 66 0 59 0;
#X connect 67 0 62 0;
#X connect 68 0 73 0;
#X connect 69 0 68 0;
#X connect 71 0 69 0;
#X connect 72 0 73 1;
#X connect 73 0 76 0;
#X connect 76 0 74 0;
#X connect 79 0 81 0;
#X connect 80 0 85 0;
#X connect 81 0 82 0;
#X connect 82 0 80 0;
#X connect 83 0 80 1;
#X connect 85 0 84 0;
#X connect 86 0 87 0;
#X connect 86 0 57 0;
#X connect 87 0 92 0;
#X connect 87 0 95 0;
#X connect 88 0 43 0;
#X connect 88 1 45 0;
#X connect 89 0 94 0;
#X connect 89 0 93 0;
#X connect 90 0 89 0;
#X connect 91 0 89 1;
#X connect 92 0 53 0;
#X connect 92 0 107 0;
#X connect 93 0 95 1;
#X connect 93 0 105 0;
#X connect 94 0 92 1;
#X connect 94 0 106 0;
#X connect 95 0 54 0;
#X connect 95 0 108 0;
#X connect 96 0 100 0;
#X connect 96 0 101 0;
#X connect 97 0 119 0;
#X connect 98 0 97 0;
#X connect 99 0 97 1;
#X connect 100 0 103 0;
#X connect 100 0 110 0;
#X connect 100 0 112 0;
#X connect 101 0 104 0;
#X connect 101 0 111 0;
#X connect 101 0 113 0;
#X connect 102 0 96 0;
#X connect 114 0 101 1;
#X connect 115 0 101 1;
#X connect 116 0 100 1;
#X connect 117 0 100 1;
#X connect 119 0 109 0;
#X connect 119 0 120 0;
#X connect 119 0 114 0;
#X connect 119 0 117 0;
#X connect 119 1 118 0;
#X connect 119 1 121 0;
#X connect 119 1 116 0;
#X connect 119 1 115 0;
#X coords 0 -1 1 1 120 65 1 0 0;
