#N canvas 1434 632 1011 688 10;
#X obj 39 416 *~;
#X obj 103 389 line~;
#X obj 103 360 pack 0 6;
#X msg 103 317 0;
#X msg 143 329 1;
#X msg 559 66 reset;
#X msg 508 453 bang;
#X msg 558 453 stop;
#X obj 601 510 bng 15 250 50 0 empty empty empty 17 7 0 10 -262144
-1 -1;
#X obj 319 323 timer;
#X obj 319 355 * 44.1;
#X floatatom 319 384 5 0 0 0 - - -;
#X msg 319 409 resize \$1;
#X msg 605 376 normalize;
#X obj 337 277 t b b b;
#X msg 586 410 resize 3.969e+06 \, const 0;
#X msg 373 95 0;
#X obj 270 116 f;
#X obj 257 155 + 1;
#X msg 372 117 2;
#X obj 297 136 sel 0 1 2 3;
#X obj 230 133 sel 3;
#X text 593 453 stop playback;
#X text 601 66 clear loop;
#X obj 7 22 tgl 15 0 empty empty empty 17 7 0 10 -262144 -1 -1 0 127
;
#X msg 270 93 bang;
#X text 25 20 rec;
#X text 646 162 functional \, unlimited overdubbing looper. there is
still an unfortunate quirk however: you can't seem to overdub during
the very first playback of the first loop \, the overdubs do not record
in this scenario.;
#X obj 39 193 inlet~;
#X obj 508 627 outlet~;
#X obj 798 66 table \$0-loop 3.969e+06;
#X obj 40 563 tabwrite~ \$0-loop;
#X obj 508 487 tabplay~ \$0-loop;
#X obj 319 438 s \$0-loop;
#X obj 7 44 bng 15 250 50 0 empty empty empty 17 7 0 10 -262144 -1
-1;
#X text 25 43 clear;
#X obj 68 23 bng 15 250 50 0 empty empty empty 17 7 0 10 -262144 -1
-1;
#X text 87 22 stop;
#X obj 69 45 bng 15 250 50 0 empty empty empty 17 7 0 10 -262144 -1
-1;
#X text 87 45 play;
#X obj 47 219 s~ \$0-monitor;
#X obj 553 550 r~ \$0-monitor;
#X obj 97 4 tgl 15 0 empty empty empty 17 7 0 10 -262144 -1 -1 0 1
;
#X obj 318 8 inlet midi-monitor;
#X obj 224 8 inlet midi-rec;
#X obj 438 9 inlet midi-clear;
#X obj 439 29 == 127;
#X obj 319 28 == 127;
#X obj 224 28 == 127;
#X obj 40 469 *~ 1;
#X msg 734 578 1;
#X obj 553 598 *~ 0;
#X msg 771 577 0;
#X floatatom 730 528 5 0 0 0 - - -;
#X obj 731 550 sel 1;
#X connect 0 0 49 0;
#X connect 1 0 0 1;
#X connect 2 0 1 0;
#X connect 3 0 2 0;
#X connect 4 0 2 0;
#X connect 5 0 16 0;
#X connect 5 0 7 0;
#X connect 5 0 15 0;
#X connect 6 0 32 0;
#X connect 7 0 32 0;
#X connect 8 0 6 0;
#X connect 9 0 10 0;
#X connect 10 0 11 0;
#X connect 11 0 12 0;
#X connect 12 0 33 0;
#X connect 13 0 33 0;
#X connect 14 0 3 0;
#X connect 14 1 6 0;
#X connect 14 2 9 1;
#X connect 15 0 33 0;
#X connect 16 0 17 1;
#X connect 17 0 21 0;
#X connect 17 0 20 0;
#X connect 18 0 17 1;
#X connect 19 0 17 1;
#X connect 20 0 9 0;
#X connect 20 0 4 0;
#X connect 20 0 31 0;
#X connect 20 1 14 0;
#X connect 20 1 3 0;
#X connect 20 2 4 0;
#X connect 20 3 3 0;
#X connect 20 3 19 0;
#X connect 21 1 18 0;
#X connect 24 0 25 0;
#X connect 25 0 17 0;
#X connect 28 0 0 0;
#X connect 28 0 40 0;
#X connect 32 0 31 0;
#X connect 32 0 29 0;
#X connect 32 1 8 0;
#X connect 32 1 31 0;
#X connect 34 0 5 0;
#X connect 36 0 7 0;
#X connect 38 0 6 0;
#X connect 41 0 51 0;
#X connect 42 0 53 0;
#X connect 43 0 47 0;
#X connect 44 0 48 0;
#X connect 45 0 46 0;
#X connect 46 0 34 0;
#X connect 47 0 42 0;
#X connect 48 0 24 0;
#X connect 49 0 31 0;
#X connect 50 0 51 1;
#X connect 51 0 29 0;
#X connect 52 0 51 1;
#X connect 53 0 54 0;
#X connect 54 0 50 0;
#X connect 54 1 52 0;
#X coords 0 -1 1 1 120 65 1 0 0;
