#N canvas 126 51 1246 839 12;
#X obj 522 307 * 1000;
#X obj 506 443 bob~;
#X obj 507 471 outlet~;
#X text 967 731 https://github.com/assada/synthesizer;
#X obj 503 210 loadbang;
#X msg 503 235 3.75;
#X msg 545 236 1.4;
#X obj 17 186 inlet~;
#X obj 109 120 hsl 100 15 0 1 0 0 \$0-frequency \$0-freq frequency -2 7 0 12 #fcfcfc #000000 #000000 0 1;
#X obj 109 140 hsl 100 15 0 1 0 0 \$0-resonance \$0-res resonance -2 7 0 12 #fcfcfc #000000 #000000 0 1;
#X obj 631 222 r \$0-frequency;
#X obj 801 221 r \$0-resonance;
#X obj 350 147 inlet;
#X obj 350 176 route freq res;
#X obj 350 207 s \$0-freq;
#X obj 397 236 s \$0-res;
#X obj 633 251 * 10;
#X obj 803 250 * 4;
#X connect 0 0 1 1;
#X connect 1 0 2 0;
#X connect 4 0 5 0;
#X connect 4 0 6 0;
#X connect 5 0 0 0;
#X connect 6 0 1 2;
#X connect 7 0 1 0;
#X connect 10 0 16 0;
#X connect 11 0 17 0;
#X connect 12 0 13 0;
#X connect 13 0 14 0;
#X connect 13 1 15 0;
#X connect 16 0 0 0;
#X connect 17 0 1 2;
#X coords 0 -1 1 1 120 60 1 100 100;
