#N canvas 401 398 811 667 10;
#X msg 42 101 resize 100 \, const 0;
#X obj 471 24 table \$0-table;
#X obj 480 563 outlet;
#X obj 143 22 tgl 15 0 empty empty empty 17 7 0 10 -262144 -1 -1 0
1;
#X obj 163 22 bng 15 250 50 0 empty empty empty 17 7 0 10 -262144 -1
-1;
#X msg 365 340 resize \$1;
#X obj 211 173 midi-encoder;
#X obj 326 236 f;
#X obj 355 236 + 1;
#X obj 326 214 metro 100;
#X floatatom 326 265 5 0 0 0 - - -, f 5;
#X obj 326 186 == 1;
#X obj 325 159 tgl 15 0 empty empty empty 17 7 0 10 -262144 -1 -1 0
1;
#X msg 364 311 \$1;
#X obj 418 175 hsl 128 15 0 127 0 0 empty empty empty -2 -8 0 10 -262144
-1 -1 100 1;
#X obj 368 34 tgl 15 0 empty empty empty 17 7 0 10 -262144 -1 -1 1
1;
#X obj 368 85 f;
#X obj 398 85 + 1;
#X obj 368 -17 == 0;
#X obj 368 63 metro 100;
#X msg 445 62 0;
#X obj 222 246 f;
#X obj 366 127 mod;
#X obj 42 125 s \$0-table;
#X obj 365 363 s \$0-table;
#X obj 221 312 tabwrite \$0-table;
#X obj 418 147 tabread \$0-table;
#X obj 211 147 f \$1;
#X obj 211 122 loadbang;
#X obj 261 148 f \$2;
#X connect 0 0 23 0;
#X connect 3 0 12 0;
#X connect 4 0 0 0;
#X connect 4 0 20 0;
#X connect 4 0 15 0;
#X connect 5 0 24 0;
#X connect 6 0 21 0;
#X connect 6 0 2 0;
#X connect 7 0 8 0;
#X connect 7 0 10 0;
#X connect 8 0 7 1;
#X connect 9 0 7 0;
#X connect 9 0 21 0;
#X connect 10 0 13 0;
#X connect 10 0 22 1;
#X connect 10 0 25 1;
#X connect 11 0 9 0;
#X connect 12 0 11 0;
#X connect 12 0 18 0;
#X connect 13 0 5 0;
#X connect 14 0 2 0;
#X connect 15 0 19 0;
#X connect 16 0 17 0;
#X connect 16 0 22 0;
#X connect 17 0 16 1;
#X connect 18 0 15 0;
#X connect 19 0 16 0;
#X connect 20 0 16 1;
#X connect 20 0 7 1;
#X connect 21 0 25 0;
#X connect 22 0 26 0;
#X connect 26 0 14 0;
#X connect 27 0 6 0;
#X connect 28 0 27 0;
#X connect 28 0 29 0;
#X connect 29 0 6 1;
#X coords 0 -1 1 1 160 20 1 20 20;
