#N canvas 281 81 870 641 10;
#X obj 126 80 s \$0-channel;
#X obj 48 57 route toggle channel;
#X obj 48 80 s \$0-toggle;
#X obj 230 219 s \$0-control-out;
#X obj 230 92 r \$0-toggle;
#X obj 230 195 midi-toggle-state-settings \$1 toggle;
#X obj 49 184 outlet;
#X obj 49 154 r \$0-control-out;
#X obj 283 112 r \$0-channel;
#X obj 48 27 inlet assignments;
#X obj 648 27 inlet values;
#X obj 648 122 s \$0-toggle-val;
#X obj 336 130 r \$0-toggle-val;
#X obj 648 57 route toggle on-color off-color;
#X obj 709 101 s \$0-on-color;
#X obj 770 80 s \$0-off-color;
#X obj 388 151 r \$0-on-color;
#X obj 443 172 r \$0-off-color;
#X connect 1 0 2 0;
#X connect 1 1 0 0;
#X connect 4 0 5 0;
#X connect 5 0 3 0;
#X connect 7 0 6 0;
#X connect 8 0 5 1;
#X connect 9 0 1 0;
#X connect 10 0 13 0;
#X connect 12 0 5 2;
#X connect 13 0 11 0;
#X connect 13 1 14 0;
#X connect 13 2 15 0;
#X connect 16 0 5 3;
#X connect 17 0 5 4;
