#N canvas 1121 150 1058 895 10;
#X obj 283 216 demultiplex~;
#X obj 198 135 tgl 15 0 \$0-distortion \$0-in-distortion empty 17 7
0 10 -262144 -1 -1 1 1;
#X obj 475 50 / 127;
#X obj 475 29 inlet distortion;
#X obj 475 72 s \$0-in-distortion;
#X obj 283 323 outlet~;
#X obj 477 178 outlet;
#X obj 477 158 * 127;
#X obj 475 115 s \$0-in-distortion;
#X obj 476 137 r \$0-in-distortion;
#X obj 607 78 r \$0-distortion;
#X obj 475 95 sssad \$0-distortion;
#X obj 297 174 r \$0-distortion;
#X obj 283 143 inlet~ audio;
#N canvas 340 191 450 300 distortion 0;
#X obj 29 217 outlet~;
#X obj 29 132 /~;
#X obj 45 104 abs~;
#X obj 29 190 *~;
#X obj 45 165 pow~ 2;
#X obj 30 20 inlet~;
#X obj 123 52 inlet~;
#X text 87 20 audio in;
#X obj 123 97 +~ 1;
#X text 179 53 distortion (0 to 1);
#X obj 122 73 *~ -1;
#X text 179 236 original credit github/residiuum;
#X connect 1 0 3 0;
#X connect 2 0 1 1;
#X connect 2 0 4 1;
#X connect 3 0 0 0;
#X connect 4 0 3 1;
#X connect 5 0 1 0;
#X connect 5 0 2 0;
#X connect 6 0 10 0;
#X connect 8 0 4 0;
#X connect 10 0 8 0;
#X restore 352 267 pd distortion;
#X connect 0 0 5 0;
#X connect 0 1 14 1;
#X connect 0 1 14 0;
#X connect 2 0 4 0;
#X connect 3 0 2 0;
#X connect 7 0 6 0;
#X connect 9 0 7 0;
#X connect 10 0 11 1;
#X connect 11 0 8 0;
#X connect 12 0 0 0;
#X connect 13 0 0 0;
#X connect 14 0 5 0;
#X coords 0 -1 1 1 120 60 1 100 100;
