#N canvas 271 25 1058 847 10;
#X declare -lib zexy;
#X obj 245 202 demultiplex~;
#X obj 198 118 tgl 15 0 \$0-toggle \$0-in-toggle empty 17 7 0 10 #fcfcfc #000000 #000000 0 1;
#X obj 245 129 inlet~ audio;
#N canvas 340 191 450 300 distortion 0;
#X obj 29 217 outlet~;
#X obj 29 132 /~;
#X obj 45 104 abs~;
#X obj 29 190 *~;
#X obj 45 165 pow~ 2;
#X obj 30 20 inlet~;
#X obj 123 52 inlet~;
#X text 87 20 audio in;
#X obj 123 97 +~ 1;
#X text 179 53 distortion (0 to 1);
#X obj 122 73 *~ -1;
#X text 179 236 original credit github/residiuum;
#X connect 1 0 3 0;
#X connect 2 0 1 1;
#X connect 2 0 4 1;
#X connect 3 0 0 0;
#X connect 4 0 3 1;
#X connect 5 0 1 0;
#X connect 5 0 2 0;
#X connect 6 0 10 0;
#X connect 8 0 4 0;
#X connect 10 0 8 0;
#X restore 314 253 pd distortion;
#X obj 348 30 inlet;
#X obj 348 54 route toggle;
#X obj 259 160 r \$0-toggle;
#X obj 348 76 s \$0-in-toggle;
#X obj 499 51 declare -lib zexy;
#X obj 245 339 outlet~;
#X obj 245 314 *~ 1;
#X obj 278 314 *~ 0.25;
#X connect 0 0 10 0;
#X connect 0 1 3 1;
#X connect 0 1 3 0;
#X connect 2 0 0 0;
#X connect 3 0 11 0;
#X connect 4 0 5 0;
#X connect 5 0 7 0;
#X connect 6 0 0 0;
#X connect 10 0 9 0;
#X connect 11 0 9 0;
#X coords 0 -1 1 1 120 40 1 100 100;
