#N canvas 1191 178 1058 895 10;
#X obj 352 251 distortion~;
#X obj 283 216 demultiplex~;
#X obj 198 135 tgl 15 0 \$0-distortion \$0-in-distortion empty 17 7
0 10 -262144 -1 -1 0 1;
#X obj 475 50 / 127;
#X obj 475 29 inlet distortion;
#X obj 475 72 s \$0-in-distortion;
#X obj 283 323 outlet~;
#X obj 477 178 outlet;
#X obj 477 158 * 127;
#X obj 475 115 s \$0-in-distortion;
#X obj 476 137 r \$0-in-distortion;
#X obj 607 78 r \$0-distortion;
#X obj 475 95 sssad \$0-distortion;
#X obj 297 174 r \$0-distortion;
#X obj 283 143 inlet~ audio;
#X connect 0 0 6 0;
#X connect 1 0 6 0;
#X connect 1 1 0 0;
#X connect 3 0 5 0;
#X connect 4 0 3 0;
#X connect 8 0 7 0;
#X connect 10 0 8 0;
#X connect 11 0 12 1;
#X connect 12 0 9 0;
#X connect 13 0 1 0;
#X connect 14 0 1 0;
#X coords 0 -1 1 1 120 60 1 100 100;
