#N canvas 337 215 870 641 10;
#X obj 126 80 s \$0-channel;
#X obj 48 57 route toggle channel;
#X obj 48 80 s \$0-toggle;
#X obj 290 169 s \$0-control-out;
#X obj 290 122 r \$0-toggle;
#X obj 290 145 midi-toggle-state-settings \$1 toggle;
#X obj 49 184 outlet;
#X obj 49 154 r \$0-control-out;
#X obj 396 110 r \$0-channel;
#X obj 48 27 inlet assignments;
#X obj 648 27 inlet values;
#X obj 648 57 route toggle;
#X obj 648 80 s \$0-toggle-val;
#X obj 503 118 r \$0-toggle-val;
#X connect 1 0 2 0;
#X connect 1 1 0 0;
#X connect 4 0 5 0;
#X connect 5 0 3 0;
#X connect 7 0 6 0;
#X connect 8 0 5 1;
#X connect 9 0 1 0;
#X connect 10 0 11 0;
#X connect 11 0 12 0;
#X connect 13 0 5 2;
