#N canvas 0 23 450 300 10;
#X msg 210 119 1 20 \, 0 20 20;
#X obj 210 151 vline~;
#X obj 226 174 osc~ 800;
#X obj 211 199 *~;
#X obj 211 230 outlet~;
#X obj 210 8 inlet metro;
#X msg 320 119 1 20 \, 0 20 20;
#X obj 320 151 vline~;
#X obj 321 199 *~;
#X obj 210 69 sel 1;
#X obj 336 174 osc~ 970;
#X obj 210 46 route float bang;
#X connect 0 0 1 0;
#X connect 1 0 3 0;
#X connect 2 0 3 1;
#X connect 3 0 4 0;
#X connect 5 0 11 0;
#X connect 6 0 7 0;
#X connect 7 0 8 0;
#X connect 8 0 4 0;
#X connect 9 0 6 0;
#X connect 9 1 0 0;
#X connect 10 0 8 1;
#X connect 11 0 9 0;
#X connect 11 1 6 0;
#X coords 0 -1 1 1 85 60 1 100 100;
