#N canvas 0 23 450 300 10;
#X msg 210 68 1 20 \, 0 20 20;
#X obj 210 100 vline~;
#X obj 226 123 osc~ 800;
#X obj 211 148 *~;
#X obj 211 179 outlet~;
#X obj 210 38 inlet metro;
#X connect 0 0 1 0;
#X connect 1 0 3 0;
#X connect 2 0 3 1;
#X connect 3 0 4 0;
#X connect 5 0 0 0;
#X coords 0 -1 1 1 85 60 1 100 100;
