#N canvas 1169 747 1118 564 10;
#X obj 494 115 > 0;
#X obj 546 115 == 0;
#X obj 514 92 tgl 15 0 empty empty empty 17 7 0 10 -262144 -1 -1 0
127;
#X obj 514 70 midi-toggle;
#X obj 465 253 spigot;
#X obj 290 381 f;
#X obj 353 307 bng 15 250 50 0 empty empty empty 17 7 0 10 -262144
-1 -1;
#X obj 344 382 f;
#X obj 412 307 bng 15 250 50 0 empty empty empty 17 7 0 10 -262144
-1 -1;
#X obj 411 285 sel 1;
#X obj 353 286 sel 1;
#X obj 145 453 outlet default;
#X obj 597 449 outlet shift;
#X obj 209 271 spigot;
#X obj 23 19 inlet args;
#X obj 23 45 unpack f f f f;
#X obj 324 473 ctlout;
#X obj 103 67 s \$0-shift-channel;
#X obj 103 86 s \$0-shift-control;
#X obj 102 105 s \$0-channel;
#X obj 101 125 s \$0-control;
#X obj 514 49 r \$0-shift-control;
#X obj 632 53 r \$0-shift-channel;
#X obj 395 151 r \$0-channel;
#X obj 306 146 r \$0-control;
#X obj 494 137 s \$0-on;
#X obj 546 137 s \$0-off;
#X obj 498 229 r \$0-on;
#X obj 411 264 r \$0-on;
#X obj 353 265 r \$0-off;
#X obj 242 247 r \$0-off;
#X obj 349 447 r \$0-control;
#X obj 433 456 r \$0-channel;
#X obj 466 280 tgl 15 0 empty empty empty 17 7 0 10 -262144 -1 -1 0
127;
#X obj 209 295 tgl 15 0 empty empty empty 17 7 0 10 -262144 -1 -1 0
127;
#X obj 306 168 midi-toggle;
#X obj 725 263 s \$0-control;
#X obj 726 303 s \$0-channel;
#X obj 725 243 f \$1;
#X obj 726 283 f \$2;
#X obj 659 226 loadbang;
#X obj 727 323 f \$3;
#X obj 728 363 f \$4;
#X obj 727 343 s \$0-shift-control;
#X obj 728 384 s \$0-shift-channel;
#X connect 0 0 25 0;
#X connect 1 0 26 0;
#X connect 2 0 0 0;
#X connect 2 0 1 0;
#X connect 3 0 2 0;
#X connect 4 0 33 0;
#X connect 5 0 16 0;
#X connect 6 0 5 0;
#X connect 7 0 16 0;
#X connect 8 0 7 0;
#X connect 9 0 8 0;
#X connect 10 0 6 0;
#X connect 13 0 34 0;
#X connect 14 0 15 0;
#X connect 15 0 20 0;
#X connect 15 1 19 0;
#X connect 15 2 18 0;
#X connect 15 3 17 0;
#X connect 21 0 3 0;
#X connect 22 0 3 1;
#X connect 23 0 35 1;
#X connect 24 0 35 0;
#X connect 27 0 4 1;
#X connect 28 0 9 0;
#X connect 29 0 10 0;
#X connect 30 0 13 1;
#X connect 31 0 16 1;
#X connect 32 0 16 2;
#X connect 33 0 7 1;
#X connect 33 0 12 0;
#X connect 34 0 11 0;
#X connect 34 0 5 1;
#X connect 35 0 13 0;
#X connect 35 0 4 0;
#X connect 38 0 36 0;
#X connect 39 0 37 0;
#X connect 40 0 39 0;
#X connect 40 0 38 0;
#X connect 40 0 41 0;
#X connect 40 0 42 0;
#X connect 41 0 43 0;
#X connect 42 0 44 0;
