#N canvas 757 540 519 300 10;
#X obj 58 51 inlet bang;
#X msg 138 133 12;
#X obj 58 73 t b b;
#X obj 59 156 ctlout \$1 2;
#X obj 138 156 ctlout \$1 3;
#X obj 303 48 inlet control;
#X obj 304 74 s \$0-control;
#X obj 164 98 r \$0-control;
#X obj 59 124 i 127;
#X obj 400 48 inlet color;
#X obj 400 73 s \$0-color;
#X obj 119 75 r \$0-color;
#X connect 0 0 2 0;
#X connect 1 0 4 0;
#X connect 2 0 8 0;
#X connect 2 1 1 0;
#X connect 5 0 6 0;
#X connect 7 0 4 1;
#X connect 7 0 3 1;
#X connect 8 0 3 0;
#X connect 9 0 10 0;
#X connect 11 0 8 1;
