#N canvas 748 558 450 300 10;
#X obj 102 62 inlet bang;
#X msg 182 123 12;
#X obj 102 83 t b b;
#X msg 103 122 0;
#X obj 103 146 ctlout \$1 2;
#X obj 182 146 ctlout \$1 3;
#X obj 320 57 inlet control;
#X obj 320 77 s \$0-control;
#X obj 204 87 r \$0-control;
#X connect 0 0 2 0;
#X connect 1 0 5 0;
#X connect 2 0 3 0;
#X connect 2 1 1 0;
#X connect 3 0 4 0;
#X connect 6 0 7 0;
#X connect 8 0 5 1;
#X connect 8 0 4 1;
