#N canvas 568 312 717 500 12;
#X floatatom 146 124 5 0 0 0 - - - 0;
#X obj 50 124 bng 19 250 50 0 empty empty empty 0 -10 0 12 #fcfcfc #000000 #000000;
#X obj 147 172 ==;
#X msg 51 150 127;
#X obj 147 204 sel 1;
#X obj 147 268 bng 19 250 50 0 empty empty empty 0 -10 0 12 #fcfcfc #000000 #000000;
#X obj 146 42 ctlin \$1 \$2;
#X obj 148 343 outlet;
#X obj 204 268 bng 19 250 50 0 empty empty empty 0 -10 0 12 #fcfcfc #000000 #000000;
#X obj 205 343 outlet;
#X text 71 266 held;
#X text 248 270 not held;
#X obj 50 67 sel 127;
#X obj 50 94 pipe 200;
#X connect 0 0 2 1;
#X connect 1 0 3 0;
#X connect 2 0 4 0;
#X connect 3 0 2 0;
#X connect 4 0 5 0;
#X connect 4 1 8 0;
#X connect 5 0 7 0;
#X connect 6 0 0 0;
#X connect 6 0 12 0;
#X connect 8 0 9 0;
#X connect 12 0 13 0;
#X connect 13 0 1 0;
