#N canvas 506 298 450 300 10;
#X obj 75 159 &&;
#X obj 42 181 spigot;
#X obj 75 130 ==;
#X obj 36 15 inlet control;
#X obj 131 13 inlet channel;
#X obj 132 38 s \$0-channel;
#X obj 36 38 s \$0-control;
#X obj 249 209 s \$0-control;
#X obj 335 209 s \$0-channel;
#X obj 249 186 f \$1;
#X obj 334 184 f \$2;
#X obj 334 152 loadbang;
#X obj 99 83 r \$0-control;
#X obj 182 84 r \$0-channel;
#X obj 112 130 ==;
#X obj 42 260 outlet;
#X obj 36 67 notein;
#X obj 42 223 tgl 15 0 empty empty empty 17 7 0 10 -262144 -1 -1 0
1;
#X obj 8 141 delay 5;
#X floatatom 159 133 5 0 0 0 - - -, f 5;
#X floatatom 204 133 5 0 0 0 - - -, f 5;
#X connect 0 0 1 1;
#X connect 1 0 17 0;
#X connect 2 0 0 0;
#X connect 3 0 6 0;
#X connect 4 0 5 0;
#X connect 9 0 7 0;
#X connect 10 0 8 0;
#X connect 11 0 10 0;
#X connect 11 0 9 0;
#X connect 12 0 2 1;
#X connect 13 0 14 1;
#X connect 14 0 0 1;
#X connect 16 0 2 0;
#X connect 16 0 19 0;
#X connect 16 1 18 0;
#X connect 16 2 14 0;
#X connect 16 2 20 0;
#X connect 17 0 15 0;
#X connect 18 0 1 0;
