#N canvas 0 25 450 300 10;
#X obj 34 63 change;
#X obj 34 107 f 0;
#X obj 63 108 == 0;
#X floatatom 34 128 5 0 0 0 - - -, f 5;
#X obj 34 84 sel 1;
#X obj 34 -3 inlet;
#X obj 34 150 outlet;
#X obj 93 -4 loadbang;
#X obj 93 15 t b b;
#X msg 137 48 1;
#X msg 93 48 0;
#X connect 0 0 4 0;
#X connect 1 0 2 0;
#X connect 1 0 3 0;
#X connect 2 0 1 1;
#X connect 3 0 6 0;
#X connect 4 0 1 0;
#X connect 5 0 0 0;
#X connect 7 0 8 0;
#X connect 8 0 10 0;
#X connect 8 1 9 0;
#X connect 9 0 0 0;
#X connect 10 0 0 0;
