#N canvas 119 51 1561 961 10;
#X obj 292 487 change;
#X floatatom 292 466 5 0 0 0 - - -, f 5;
#X obj 292 516 bng 15 250 50 0 empty empty empty 17 7 0 10 -262144
-1 -1;
#X obj 326 542 + 1;
#X floatatom 292 565 5 0 0 0 - - -, f 5;
#X floatatom 292 614 5 0 0 0 - - -, f 5;
#X obj 292 635 sel 1 2 3 4 5 6 7 8;
#X obj 820 567 r \$0-track-1-spigot;
#X obj 773 582 spigot;
#X obj 773 620 spigot;
#X obj 773 655 spigot;
#X obj 820 605 r \$0-track-2-spigot;
#X obj 820 640 r \$0-track-3-spigot;
#X obj 292 542 f 1;
#X msg 366 515 1;
#X obj 292 592 moses 4;
#X obj -45 672 loadbang;
#X obj 291 433 f;
#X obj 289 365 sel 1;
#X msg 821 303 0;
#X obj 737 396 spigot;
#X obj 821 280 spigot;
#X obj 1189 127 midi-toggle 56 2;
#X obj 1319 122 midi-toggle 59 2;
#X obj 773 695 spigot;
#X obj 820 680 r \$0-track-4-spigot;
#X obj 773 732 spigot;
#X obj 820 717 r \$0-track-5-spigot;
#X obj 773 772 spigot;
#X obj 820 757 r \$0-track-6-spigot;
#X obj 773 812 spigot;
#X obj 820 797 r \$0-track-7-spigot;
#X obj 773 852 spigot;
#X obj 820 837 r \$0-track-8-spigot;
#X msg 1190 167 1;
#X obj 1189 147 sel 127;
#X msg 1228 167 0;
#X msg 1320 165 1;
#X obj 1319 145 sel 127;
#X msg 1358 166 0;
#X obj -54 477 spigot;
#X obj 90 421 tgl 15 0 empty empty empty 17 7 0 10 -262144 -1 -1 1
1;
#X msg 90 462 0;
#X obj 90 442 sel 0;
#X obj 71 584 sel 1;
#X obj 71 557 spigot;
#X msg 142 463 1;
#X obj 128 542 tgl 15 0 empty empty empty 17 7 0 10 -262144 -1 -1 1
1;
#X obj 71 534 == 15;
#X obj 43 417 - 1;
#X obj -54 245 f;
#X obj -24 245 + 1;
#X floatatom -54 265 5 0 0 0 - - -, f 5;
#X floatatom 48 219 5 0 0 0 - - -, f 5;
#X obj 6 245 mod 16;
#X obj -54 217 t b;
#X msg -45 696 volume 1;
#X obj -42 32 inlet tempo;
#X obj -42 55 s \$0-tempo;
#X obj -54 190 r \$0-tempo;
#X obj -54 289 s \$0-steps;
#X obj 54 244 s \$0-sequence-mod;
#X obj 43 317 r \$0-sequence-mod;
#X obj -54 434 r \$0-steps;
#X obj -54 534 s \$0-current-step;
#X obj 32 503 r \$0-steps;
#X obj 946 56 s \$0-current-drum;
#X obj 820 239 r \$0-current-step;
#X obj 664 332 r \$0-current-drum;
#X obj 770 373 r \$0-rec;
#X obj 737 425 s \$0-rec-drum;
#X obj 643 522 r \$0-rec-drum;
#X obj 289 339 r \$0-rec;
#X obj 306 405 r \$0-current-drum;
#N canvas 0 23 476 371 track-8-spigot-handler 0;
#X obj 101 21 inlet;
#X obj 99 308 s \$0-track-8-spigot;
#X obj 177 146 s \$0-track-7-spigot;
#X obj 175 168 s \$0-track-6-spigot;
#X obj 173 190 s \$0-track-5-spigot;
#X obj 172 213 s \$0-track-4-spigot;
#X obj 169 235 s \$0-track-3-spigot;
#X obj 166 257 s \$0-track-2-spigot;
#X obj 160 277 s \$0-track-1-spigot;
#X msg 101 65 1;
#X msg 133 65 0;
#X connect 0 0 9 0;
#X connect 0 0 10 0;
#X connect 9 0 1 0;
#X connect 10 0 7 0;
#X connect 10 0 8 0;
#X connect 10 0 6 0;
#X connect 10 0 5 0;
#X connect 10 0 4 0;
#X connect 10 0 3 0;
#X connect 10 0 2 0;
#X restore 391 690 pd track-8-spigot-handler;
#N canvas 0 23 476 371 track-7-spigot-handler 0;
#X obj 101 21 inlet;
#X obj 175 145 s \$0-track-8-spigot;
#X obj 95 307 s \$0-track-7-spigot;
#X obj 175 168 s \$0-track-6-spigot;
#X obj 173 190 s \$0-track-5-spigot;
#X obj 172 213 s \$0-track-4-spigot;
#X obj 169 235 s \$0-track-3-spigot;
#X obj 166 257 s \$0-track-2-spigot;
#X obj 160 277 s \$0-track-1-spigot;
#X msg 101 65 1;
#X msg 133 65 0;
#X connect 0 0 9 0;
#X connect 0 0 10 0;
#X connect 9 0 2 0;
#X connect 10 0 7 0;
#X connect 10 0 1 0;
#X connect 10 0 8 0;
#X connect 10 0 6 0;
#X connect 10 0 5 0;
#X connect 10 0 4 0;
#X connect 10 0 3 0;
#X restore 377 715 pd track-7-spigot-handler;
#N canvas 0 23 476 371 track-6-spigot-handler 0;
#X obj 101 21 inlet;
#X obj 175 145 s \$0-track-8-spigot;
#X obj 175 169 s \$0-track-7-spigot;
#X obj 98 300 s \$0-track-6-spigot;
#X obj 173 190 s \$0-track-5-spigot;
#X obj 172 213 s \$0-track-4-spigot;
#X obj 169 235 s \$0-track-3-spigot;
#X obj 166 257 s \$0-track-2-spigot;
#X obj 160 277 s \$0-track-1-spigot;
#X msg 101 65 1;
#X msg 133 65 0;
#X connect 0 0 9 0;
#X connect 0 0 10 0;
#X connect 9 0 3 0;
#X connect 10 0 7 0;
#X connect 10 0 2 0;
#X connect 10 0 1 0;
#X connect 10 0 8 0;
#X connect 10 0 6 0;
#X connect 10 0 5 0;
#X connect 10 0 4 0;
#X restore 362 738 pd track-6-spigot-handler;
#N canvas 0 23 476 371 track-5-spigot-handler 0;
#X obj 101 21 inlet;
#X obj 175 145 s \$0-track-8-spigot;
#X obj 175 169 s \$0-track-7-spigot;
#X obj 174 190 s \$0-track-6-spigot;
#X obj 100 312 s \$0-track-5-spigot;
#X obj 172 213 s \$0-track-4-spigot;
#X obj 169 235 s \$0-track-3-spigot;
#X obj 166 257 s \$0-track-2-spigot;
#X obj 160 277 s \$0-track-1-spigot;
#X msg 101 65 1;
#X msg 133 65 0;
#X connect 0 0 9 0;
#X connect 0 0 10 0;
#X connect 9 0 4 0;
#X connect 10 0 7 0;
#X connect 10 0 3 0;
#X connect 10 0 2 0;
#X connect 10 0 1 0;
#X connect 10 0 8 0;
#X connect 10 0 6 0;
#X connect 10 0 5 0;
#X restore 349 762 pd track-5-spigot-handler;
#N canvas 0 23 476 371 track-4-spigot-handler 0;
#X obj 101 21 inlet;
#X obj 175 145 s \$0-track-8-spigot;
#X obj 175 169 s \$0-track-7-spigot;
#X obj 174 190 s \$0-track-6-spigot;
#X obj 172 212 s \$0-track-5-spigot;
#X obj 94 307 s \$0-track-4-spigot;
#X obj 169 235 s \$0-track-3-spigot;
#X obj 166 257 s \$0-track-2-spigot;
#X obj 160 277 s \$0-track-1-spigot;
#X msg 101 65 1;
#X msg 133 65 0;
#X connect 0 0 9 0;
#X connect 0 0 10 0;
#X connect 9 0 5 0;
#X connect 10 0 7 0;
#X connect 10 0 4 0;
#X connect 10 0 3 0;
#X connect 10 0 2 0;
#X connect 10 0 1 0;
#X connect 10 0 8 0;
#X connect 10 0 6 0;
#X restore 334 786 pd track-4-spigot-handler;
#N canvas 0 23 476 371 track-3-spigot-handler 0;
#X obj 101 21 inlet;
#X obj 175 145 s \$0-track-8-spigot;
#X obj 175 169 s \$0-track-7-spigot;
#X obj 174 190 s \$0-track-6-spigot;
#X obj 172 212 s \$0-track-5-spigot;
#X obj 171 235 s \$0-track-4-spigot;
#X obj 103 307 s \$0-track-3-spigot;
#X obj 166 257 s \$0-track-2-spigot;
#X obj 160 277 s \$0-track-1-spigot;
#X msg 101 65 1;
#X msg 133 65 0;
#X connect 0 0 9 0;
#X connect 0 0 10 0;
#X connect 9 0 6 0;
#X connect 10 0 7 0;
#X connect 10 0 5 0;
#X connect 10 0 4 0;
#X connect 10 0 3 0;
#X connect 10 0 2 0;
#X connect 10 0 1 0;
#X connect 10 0 8 0;
#X restore 319 810 pd track-3-spigot-handler;
#N canvas 0 23 469 385 track-2-spigot-handler 0;
#X obj 101 21 inlet;
#X obj 175 145 s \$0-track-8-spigot;
#X obj 175 169 s \$0-track-7-spigot;
#X obj 174 190 s \$0-track-6-spigot;
#X obj 172 212 s \$0-track-5-spigot;
#X obj 171 235 s \$0-track-4-spigot;
#X obj 169 257 s \$0-track-3-spigot;
#X obj 98 300 s \$0-track-2-spigot;
#X obj 167 279 s \$0-track-1-spigot;
#X msg 101 65 1;
#X msg 133 65 0;
#X connect 0 0 9 0;
#X connect 0 0 10 0;
#X connect 9 0 7 0;
#X connect 10 0 6 0;
#X connect 10 0 5 0;
#X connect 10 0 4 0;
#X connect 10 0 3 0;
#X connect 10 0 2 0;
#X connect 10 0 1 0;
#X connect 10 0 8 0;
#X restore 305 834 pd track-2-spigot-handler;
#N canvas 0 23 478 373 track-1-spigot-handler 0;
#X obj 101 21 inlet;
#X obj 175 145 s \$0-track-8-spigot;
#X obj 175 169 s \$0-track-7-spigot;
#X obj 174 190 s \$0-track-6-spigot;
#X obj 172 212 s \$0-track-5-spigot;
#X obj 171 235 s \$0-track-4-spigot;
#X obj 169 257 s \$0-track-3-spigot;
#X obj 165 277 s \$0-track-2-spigot;
#X obj 109 301 s \$0-track-1-spigot;
#X msg 101 65 1;
#X msg 133 65 0;
#X connect 0 0 9 0;
#X connect 0 0 10 0;
#X connect 9 0 8 0;
#X connect 10 0 7 0;
#X connect 10 0 6 0;
#X connect 10 0 5 0;
#X connect 10 0 4 0;
#X connect 10 0 3 0;
#X connect 10 0 2 0;
#X connect 10 0 1 0;
#X restore 292 857 pd track-1-spigot-handler;
#X obj 81 670 r~ \$0-audio-1;
#X obj 91 691 r~ \$0-audio-2;
#X obj 101 711 r~ \$0-audio-3;
#X obj 111 731 r~ \$0-audio-4;
#X obj 121 751 r~ \$0-audio-5;
#X obj 131 771 r~ \$0-audio-6;
#X obj 141 791 r~ \$0-audio-7;
#X obj 151 811 r~ \$0-audio-8;
#X obj 959 615 s~ \$0-audio-1;
#X obj 959 651 s~ \$0-audio-2;
#X obj 959 688 s~ \$0-audio-3;
#X obj 959 726 s~ \$0-audio-4;
#X obj 959 763 s~ \$0-audio-5;
#X obj 959 804 s~ \$0-audio-6;
#X obj 959 845 s~ \$0-audio-7;
#X obj 959 886 s~ \$0-audio-8;
#X obj 1168 693 r \$0-current-step;
#X obj -102 870 line-control~;
#X obj 66 930 outlet~;
#X obj 946 32 inlet current-drum;
#X obj 104 130 tgl 15 0 \$0-rec \$0-rec-inlet rec 17 7 0 10 -262144
-1 -1 0 1;
#X obj 104 150 tgl 15 0 \$0-play empty play 17 7 0 10 -262144 -1 -1
1 1;
#X obj 160 150 bng 15 250 50 0 \$0-clear \$0-clear-inlet clear 17 7
0 10 -262144 -1 -1;
#X obj 159 130 tgl 15 0 \$0-erase \$0-erase-inlet erase 17 7 0 10 -262144
-1 -1 0 1;
#X obj 1208 193 s \$0-rec-inlet;
#X obj 854 260 r \$0-erase;
#X obj 1320 196 s \$0-erase-inlet;
#X obj 119 375 r \$0-play;
#X msg 90 364 1;
#X obj 90 341 loadbang;
#X obj 104 76 loadbang;
#X obj 1156 385 table \$0-table;
#X obj 1307 405 s \$0-table;
#X obj 1307 367 loadbang;
#X obj 959 598 drum-track 1 \$0;
#X obj 959 745 drum-track 5 \$0;
#X obj 959 634 drum-track 2 \$0;
#X obj 959 670 drum-track 3 \$0;
#X obj 959 708 drum-track 4 \$0;
#X obj 959 786 drum-track 6 \$0;
#X obj 960 826 drum-track 7 \$0;
#X obj 959 867 drum-track 8 \$0;
#X msg 1307 386 resize 255 \, const 0;
#X obj 1373 371 r \$0-clear;
#X connect 0 0 2 0;
#X connect 1 0 0 0;
#X connect 2 0 13 0;
#X connect 3 0 13 1;
#X connect 4 0 15 0;
#X connect 5 0 6 0;
#X connect 6 0 81 0;
#X connect 6 1 80 0;
#X connect 6 2 79 0;
#X connect 6 3 78 0;
#X connect 6 4 77 0;
#X connect 6 5 76 0;
#X connect 6 6 75 0;
#X connect 6 7 74 0;
#X connect 7 0 8 1;
#X connect 8 0 116 0;
#X connect 9 0 118 0;
#X connect 10 0 119 0;
#X connect 11 0 9 1;
#X connect 12 0 10 1;
#X connect 13 0 3 0;
#X connect 13 0 4 0;
#X connect 14 0 13 0;
#X connect 15 0 5 0;
#X connect 15 1 14 0;
#X connect 16 0 56 0;
#X connect 17 0 1 0;
#X connect 18 0 17 0;
#X connect 19 0 20 0;
#X connect 20 0 70 0;
#X connect 21 0 19 0;
#X connect 22 0 35 0;
#X connect 23 0 38 0;
#X connect 24 0 120 0;
#X connect 25 0 24 1;
#X connect 26 0 117 0;
#X connect 27 0 26 1;
#X connect 28 0 121 0;
#X connect 29 0 28 1;
#X connect 30 0 122 0;
#X connect 31 0 30 1;
#X connect 32 0 123 0;
#X connect 33 0 32 1;
#X connect 34 0 106 0;
#X connect 35 0 34 0;
#X connect 35 1 36 0;
#X connect 36 0 106 0;
#X connect 37 0 108 0;
#X connect 38 0 37 0;
#X connect 38 1 39 0;
#X connect 39 0 108 0;
#X connect 40 0 64 0;
#X connect 41 0 43 0;
#X connect 42 0 40 1;
#X connect 42 0 47 0;
#X connect 43 0 42 0;
#X connect 43 1 46 0;
#X connect 44 0 46 0;
#X connect 45 0 44 0;
#X connect 46 0 40 1;
#X connect 46 0 47 0;
#X connect 47 0 45 1;
#X connect 48 0 45 0;
#X connect 49 0 48 1;
#X connect 50 0 51 0;
#X connect 50 0 52 0;
#X connect 51 0 54 0;
#X connect 52 0 60 0;
#X connect 53 0 54 1;
#X connect 53 0 61 0;
#X connect 54 0 50 1;
#X connect 55 0 50 0;
#X connect 56 0 99 1;
#X connect 57 0 58 0;
#X connect 59 0 55 0;
#X connect 62 0 49 0;
#X connect 63 0 40 0;
#X connect 65 0 48 0;
#X connect 67 0 21 0;
#X connect 68 0 20 0;
#X connect 69 0 20 1;
#X connect 71 0 8 0;
#X connect 71 0 9 0;
#X connect 71 0 10 0;
#X connect 71 0 24 0;
#X connect 71 0 26 0;
#X connect 71 0 28 0;
#X connect 71 0 30 0;
#X connect 71 0 32 0;
#X connect 72 0 18 0;
#X connect 73 0 17 1;
#X connect 82 0 99 0;
#X connect 82 0 99 2;
#X connect 83 0 99 0;
#X connect 83 0 99 2;
#X connect 84 0 99 0;
#X connect 84 0 99 2;
#X connect 85 0 99 0;
#X connect 85 0 99 2;
#X connect 86 0 99 0;
#X connect 86 0 99 2;
#X connect 87 0 99 0;
#X connect 87 0 99 2;
#X connect 88 0 99 0;
#X connect 88 0 99 2;
#X connect 89 0 99 0;
#X connect 89 0 99 2;
#X connect 98 0 116 1;
#X connect 98 0 117 1;
#X connect 98 0 118 1;
#X connect 98 0 119 1;
#X connect 98 0 120 1;
#X connect 98 0 121 1;
#X connect 98 0 122 1;
#X connect 98 0 123 1;
#X connect 99 0 100 0;
#X connect 99 1 100 0;
#X connect 101 0 66 0;
#X connect 107 0 21 1;
#X connect 109 0 41 0;
#X connect 110 0 41 0;
#X connect 111 0 110 0;
#X connect 112 0 103 0;
#X connect 115 0 124 0;
#X connect 116 0 90 0;
#X connect 117 0 94 0;
#X connect 118 0 91 0;
#X connect 119 0 92 0;
#X connect 120 0 93 0;
#X connect 121 0 95 0;
#X connect 122 0 96 0;
#X connect 123 0 97 0;
#X connect 124 0 114 0;
#X connect 125 0 124 0;
#X coords 0 -1 1 1 110 75 1 100 100;
