#N canvas 539 180 825 308 12;
#X msg 19 192 127;
#X obj 18 153 t b b;
#X obj 124 158 r \$0-control;
#X msg 98 193 47;
#X obj 363 142 t b b;
#X obj 451 119 r \$0-control;
#X msg 443 182 0;
#X msg 364 181 0;
#X obj 149 14 inlet toggle;
#X obj 149 41 sel 1;
#X obj 665 83 f \$1;
#X obj 707 85 f \$2;
#X obj 706 62 bng 19 250 50 0 empty empty empty 0 -10 0 12 #fcfcfc #000000 #000000;
#X obj 665 59 bng 19 250 50 0 empty empty empty 0 -10 0 12 #fcfcfc #000000 #000000;
#X floatatom 665 108 5 0 0 0 - - - 0;
#X floatatom 708 109 5 0 0 0 - - - 0;
#X obj 673 10 loadbang;
#X obj 665 163 s \$0-control;
#X obj 708 139 s \$0-channel;
#X obj 549 120 r \$0-channel;
#X obj 364 205 ctlout \$1;
#X obj 550 158 + 1;
#X obj 448 205 ctlout \$1;
#X obj 226 157 r \$0-channel;
#X obj 226 185 + 1;
#X obj 104 216 ctlout \$1;
#X obj 19 216 ctlout \$1;
#X connect 0 0 26 0;
#X connect 1 0 0 0;
#X connect 1 1 3 0;
#X connect 2 0 25 1;
#X connect 2 0 26 1;
#X connect 3 0 25 0;
#X connect 4 0 7 0;
#X connect 4 1 6 0;
#X connect 5 0 20 1;
#X connect 5 0 22 1;
#X connect 6 0 22 0;
#X connect 7 0 20 0;
#X connect 8 0 9 0;
#X connect 9 0 1 0;
#X connect 9 1 4 0;
#X connect 10 0 14 0;
#X connect 11 0 15 0;
#X connect 12 0 11 0;
#X connect 13 0 10 0;
#X connect 14 0 17 0;
#X connect 15 0 18 0;
#X connect 16 0 13 0;
#X connect 16 0 12 0;
#X connect 19 0 20 2;
#X connect 19 0 21 0;
#X connect 21 0 22 2;
#X connect 23 0 24 0;
#X connect 23 0 26 2;
#X connect 24 0 25 2;
