#N canvas 0 25 1440 847 10;
#X obj 44 107 mtof;
#X obj 45 146 osc~;
#X obj 43 78 stripnote;
#X obj 46 189 *~;
#X obj 361 95 t b f;
#X obj 314 150 f;
#X obj 314 177 sel 0;
#X obj 418 167 f;
#X msg 179 236 \$1 127;
#X obj 179 264 line~;
#X msg 304 229 0 127;
#X obj 418 204 select;
#X text 333 49 https://www.youtube.com/watch?v=jpWEBcev_Kg;
#X obj 50 395 outlet~;
#X obj 43 43 + 40;
#X obj 43 8 notein;
#X connect 0 0 1 0;
#X connect 1 0 3 0;
#X connect 2 0 0 0;
#X connect 2 0 11 1;
#X connect 3 0 13 0;
#X connect 4 0 5 0;
#X connect 4 1 7 1;
#X connect 5 0 6 0;
#X connect 6 0 7 0;
#X connect 6 1 8 0;
#X connect 7 0 11 0;
#X connect 8 0 9 0;
#X connect 9 0 3 1;
#X connect 10 0 9 0;
#X connect 11 0 10 0;
#X connect 14 0 2 0;
#X connect 14 0 4 0;
#X connect 15 0 14 0;
#X connect 15 1 2 1;
#X connect 15 1 5 1;
