#N canvas 877 318 450 300 10;
#X msg 71 181 127;
#X msg 110 181 0;
#X obj 71 29 ctlin;
#X obj 104 104 &&;
#X obj 71 126 spigot;
#X obj 71 153 sel 127;
#X obj 94 223 outlet;
#X obj 161 12 inlet control;
#X obj 251 12 inlet channel;
#X obj 141 75 == 2;
#X obj 104 75 ==;
#X connect 0 0 6 0;
#X connect 1 0 6 0;
#X connect 2 0 4 0;
#X connect 2 1 10 0;
#X connect 2 2 9 0;
#X connect 3 0 4 1;
#X connect 4 0 5 0;
#X connect 5 0 0 0;
#X connect 5 1 1 0;
#X connect 7 0 10 1;
#X connect 8 0 9 1;
#X connect 9 0 3 1;
#X connect 10 0 3 0;
