#N canvas 175 335 648 452 10;
#X obj 384 105 > 0;
#X obj 436 105 == 0;
#X obj 404 82 tgl 15 0 empty empty empty 17 7 0 10 -262144 -1 -1 0
127;
#X obj 404 60 midi-toggle;
#X obj 101 301 hsl 128 15 0 127 0 0 empty empty empty -2 -8 0 10 -262144
-1 -1 6600 1;
#X obj 358 292 hsl 128 15 0 127 0 0 empty empty empty -2 -8 0 10 -262144
-1 -1 8800 1;
#X obj 355 243 spigot;
#X obj 180 371 f;
#X obj 243 297 bng 15 250 50 0 empty empty empty 17 7 0 10 -262144
-1 -1;
#X obj 234 372 f;
#X obj 302 297 bng 15 250 50 0 empty empty empty 17 7 0 10 -262144
-1 -1;
#X obj 301 275 sel 1;
#X obj 243 276 sel 1;
#X obj 35 443 outlet default;
#X obj 487 439 outlet shift;
#X obj 99 261 spigot;
#X obj 13 9 inlet args;
#X obj 13 35 unpack f f f f;
#X obj 214 463 ctlout;
#X obj 196 158 midi-encoder;
#X obj 93 57 s \$0-shift-channel;
#X obj 93 76 s \$0-shift-control;
#X obj 92 95 s \$0-channel;
#X obj 91 115 s \$0-control;
#X obj 404 39 r \$0-shift-control;
#X obj 522 43 r \$0-shift-channel;
#X obj 285 141 r \$0-channel;
#X obj 196 136 r \$0-control;
#X obj 384 127 s \$0-on;
#X obj 436 127 s \$0-off;
#X obj 388 219 r \$0-on;
#X obj 301 254 r \$0-on;
#X obj 243 255 r \$0-off;
#X obj 132 237 r \$0-off;
#X obj 239 437 r \$0-control;
#X obj 323 446 r \$0-channel;
#X connect 0 0 28 0;
#X connect 1 0 29 0;
#X connect 2 0 0 0;
#X connect 2 0 1 0;
#X connect 3 0 2 0;
#X connect 4 0 7 1;
#X connect 4 0 13 0;
#X connect 5 0 9 1;
#X connect 5 0 14 0;
#X connect 6 0 5 0;
#X connect 7 0 18 0;
#X connect 8 0 7 0;
#X connect 9 0 18 0;
#X connect 10 0 9 0;
#X connect 11 0 10 0;
#X connect 12 0 8 0;
#X connect 15 0 4 0;
#X connect 16 0 17 0;
#X connect 17 0 23 0;
#X connect 17 1 22 0;
#X connect 17 2 21 0;
#X connect 17 3 20 0;
#X connect 19 0 15 0;
#X connect 19 0 6 0;
#X connect 24 0 3 0;
#X connect 25 0 3 1;
#X connect 26 0 19 1;
#X connect 27 0 19 0;
#X connect 30 0 6 1;
#X connect 31 0 11 0;
#X connect 32 0 12 0;
#X connect 33 0 15 1;
#X connect 34 0 18 1;
#X connect 35 0 18 2;
