#N canvas 477 710 1014 671 10;
#X obj 324 269 ctlout;
#X obj 289 245 * 127;
#X obj 240 148 midi-encoder;
#X obj 240 422 outlet;
#X obj 309 124 r \$0-channel;
#X obj 357 243 r \$0-channel;
#X msg 240 389 \$2 \$1;
#X text 441 23 $f1 ex: track-1-delay;
#X text 441 42 $f2 ex: feedback;
#X obj 137 43 s \$0-channel;
#X obj 285 332 symbol \$2;
#X obj 285 306 loadbang;
#X obj 240 359 pack f s;
#X obj 38 43 s \$0-control;
#X obj 240 104 r \$0-control;
#X obj 340 210 r \$0-control;
#X obj 38 13 inlet control;
#X obj 137 12 inlet channel;
#X obj 240 167 == 127;
#X obj 237 12 inlet value;
#X obj 237 43 s \$0-value;
#X obj 141 168 r \$0-value;
#X floatatom 91 220 5 0 0 0 - - -, f 5;
#X obj 266 262 bng 15 250 50 0 empty empty empty 17 7 0 10 -262144
-1 -1;
#X floatatom 372 302 5 0 0 0 - - -, f 5;
#X obj 289 279 f;
#X obj 529 176 moses 1;
#X obj 618 312 bng 15 250 50 0 empty empty empty 17 7 0 10 -262144
-1 -1;
#X obj 509 313 bng 15 250 50 0 empty empty empty 17 7 0 10 -262144
-1 -1;
#X text 611 256 troubleshooting fix \, need to be passed in as on color
and off color;
#X obj 600 16 inlet on-color;
#X obj 707 16 inlet off-color;
#X obj 571 246 f;
#X obj 516 247 f;
#X obj 600 40 s \$0-on-color;
#X obj 707 42 s \$0-off-color;
#X obj 600 40 s \$0-on-color;
#X obj 707 42 s \$0-off-color;
#X floatatom 657 168 5 0 0 0 - - -, f 5;
#X floatatom 533 153 5 0 0 0 - - -, f 5;
#X obj 466 124 r \$0-off-color;
#X obj 651 122 r \$0-on-color;
#X msg 569 214 bang;
#X msg 519 214 bang;
#X connect 1 0 0 0;
#X connect 1 0 25 0;
#X connect 2 0 18 0;
#X connect 4 0 2 1;
#X connect 5 0 0 2;
#X connect 6 0 3 0;
#X connect 10 0 12 1;
#X connect 11 0 10 0;
#X connect 12 0 6 0;
#X connect 14 0 2 0;
#X connect 15 0 0 1;
#X connect 16 0 13 0;
#X connect 17 0 9 0;
#X connect 18 0 12 0;
#X connect 18 0 0 0;
#X connect 18 0 26 0;
#X connect 19 0 20 0;
#X connect 21 0 12 0;
#X connect 21 0 1 0;
#X connect 21 0 22 0;
#X connect 23 0 25 0;
#X connect 25 0 0 0;
#X connect 25 0 24 0;
#X connect 26 0 43 0;
#X connect 26 1 42 0;
#X connect 30 0 34 0;
#X connect 31 0 35 0;
#X connect 32 0 27 0;
#X connect 32 0 0 0;
#X connect 33 0 28 0;
#X connect 33 0 0 0;
#X connect 40 0 33 0;
#X connect 40 0 39 0;
#X connect 41 0 32 0;
#X connect 41 0 38 0;
#X connect 42 0 32 0;
#X connect 43 0 33 0;
