#N canvas 1193 126 851 591 10;
#X obj 324 299 ctlout;
#X obj 240 452 outlet;
#X obj 303 137 r \$0-channel;
#X obj 357 273 r \$0-channel;
#X obj 259 240 sssad \$1-\$2;
#X msg 240 419 \$2 \$1;
#X text 441 23 $f1 ex: track-1-delay;
#X text 441 42 $f2 ex: feedback;
#X obj 137 43 s \$0-channel;
#X obj 285 362 symbol \$2;
#X obj 285 336 loadbang;
#X obj 240 389 pack f s;
#X obj 38 43 s \$0-control;
#X obj 240 117 r \$0-control;
#X obj 340 240 r \$0-control;
#X obj 38 13 inlet control;
#X obj 137 12 inlet channel;
#X obj 237 12 inlet value;
#X obj 237 43 s \$0-value;
#X obj 141 198 r \$0-value;
#X obj 600 16 inlet on-color;
#X obj 707 16 inlet off-color;
#X obj 571 276 f;
#X obj 516 277 f;
#X obj 600 40 s \$0-on-color;
#X obj 707 42 s \$0-off-color;
#X obj 600 40 s \$0-on-color;
#X obj 707 42 s \$0-off-color;
#X obj 531 241 r \$0-off-color;
#X obj 603 261 r \$0-on-color;
#X msg 569 214 bang;
#X obj 529 176 sel 0;
#X obj 240 161 midi-toggle;
#X connect 2 0 32 1;
#X connect 3 0 0 2;
#X connect 4 0 11 0;
#X connect 4 0 31 0;
#X connect 5 0 1 0;
#X connect 9 0 11 1;
#X connect 10 0 9 0;
#X connect 11 0 5 0;
#X connect 13 0 32 0;
#X connect 14 0 0 1;
#X connect 15 0 12 0;
#X connect 16 0 8 0;
#X connect 17 0 18 0;
#X connect 19 0 4 1;
#X connect 19 0 11 0;
#X connect 20 0 24 0;
#X connect 21 0 25 0;
#X connect 22 0 0 0;
#X connect 23 0 0 0;
#X connect 28 0 23 1;
#X connect 29 0 22 1;
#X connect 30 0 22 0;
#X connect 31 0 23 0;
#X connect 31 1 30 0;
#X connect 32 0 11 0;
#X connect 32 0 0 0;
#X connect 32 0 4 1;
#X connect 32 0 31 0;
