#N canvas 318 50 464 404 12;
#X obj 31 79 ctlin;
#X obj 64 154 &&;
#X obj 31 176 spigot;
#X obj 64 125 ==;
#X obj 78 79 r \$0-control;
#X obj 161 80 r \$0-channel;
#X obj 27 5 inlet control;
#X obj 122 3 inlet channel;
#X obj 123 28 s \$0-channel;
#X obj 27 28 s \$0-control;
#X obj 256 168 s \$0-control;
#X obj 342 168 s \$0-channel;
#X floatatom 89 99 5 0 0 0 - - - 0;
#X floatatom 162 101 5 0 0 0 - - - 0;
#X obj 256 145 f \$1;
#X obj 341 143 f \$2;
#X obj 341 111 loadbang;
#X obj 101 125 ==;
#X msg 30 227 1;
#X msg 75 227 0;
#X obj 31 202 sel 127;
#X obj 44 266 change;
#X obj 44 310 f 0;
#X obj 73 311 == 0;
#X floatatom 44 331 5 0 0 0 - - - 0;
#X obj 44 287 sel 1;
#X obj 44 353 outlet;
#X obj 133 196 loadbang;
#X obj 133 215 t b b;
#X msg 177 248 1;
#X msg 133 248 0;
#X connect 0 0 2 0;
#X connect 0 1 3 0;
#X connect 0 2 17 0;
#X connect 1 0 2 1;
#X connect 2 0 20 0;
#X connect 3 0 1 0;
#X connect 4 0 3 1;
#X connect 4 0 12 0;
#X connect 5 0 13 0;
#X connect 5 0 17 1;
#X connect 6 0 9 0;
#X connect 7 0 8 0;
#X connect 14 0 10 0;
#X connect 15 0 11 0;
#X connect 16 0 15 0;
#X connect 16 0 14 0;
#X connect 17 0 1 1;
#X connect 18 0 21 0;
#X connect 19 0 21 0;
#X connect 20 0 18 0;
#X connect 20 1 19 0;
#X connect 21 0 25 0;
#X connect 22 0 23 0;
#X connect 22 0 24 0;
#X connect 23 0 22 1;
#X connect 24 0 26 0;
#X connect 25 0 22 0;
#X connect 27 0 28 0;
#X connect 28 0 30 0;
#X connect 28 1 29 0;
#X connect 29 0 21 0;
#X connect 30 0 21 0;
