#N canvas 121 146 450 300 12;
#X obj 204 355 midi-led-on;
#X obj 298 355 midi-led-off;
#X floatatom 305 256 5 0 0 0 - - - 0;
#X obj 203 325 bng 19 250 50 0 empty empty empty 0 -10 0 12 #fcfcfc #000000 #000000;
#X obj 301 323 bng 19 250 50 0 empty empty empty 0 -10 0 12 #fcfcfc #000000 #000000;
#X obj 180 106 tgl 19 0 empty empty empty 0 -10 0 12 #fcfcfc #000000 #000000 0 1;
#X obj 180 152 metro 200;
#X obj 256 152 metro 200;
#X obj 255 127 pipe 100;
#X obj 177 39 t b b;
#X msg 210 88 0;
#X msg 177 65 1;
#X obj 177 13 bng 19 250 50 0 empty empty empty 0 -10 0 12 #fcfcfc #000000 #000000;
#X obj 209 64 delay 500;
#X obj 306 228 \$1;
#X obj 306 205 loadbang;
#X obj 177 -15 inlet;
#X obj 393 238 inlet;
#X connect 2 0 0 1;
#X connect 2 0 1 1;
#X connect 3 0 0 0;
#X connect 4 0 1 0;
#X connect 5 0 6 0;
#X connect 5 0 8 0;
#X connect 6 0 3 0;
#X connect 7 0 4 0;
#X connect 8 0 7 0;
#X connect 9 0 11 0;
#X connect 9 1 13 0;
#X connect 10 0 5 0;
#X connect 11 0 5 0;
#X connect 12 0 9 0;
#X connect 13 0 10 0;
#X connect 14 0 2 0;
#X connect 15 0 14 0;
#X connect 16 0 12 0;
#X connect 17 0 2 0;
