#N canvas 788 280 450 300 10;
#X obj 58 41 inlet bang;
#X obj 58 63 t b b;
#X obj 59 146 ctlout \$1 2;
#X obj 138 146 ctlout \$1 3;
#X obj 303 38 inlet control;
#X obj 304 64 s \$0-control;
#X obj 164 88 r \$0-control;
#X msg 138 123 47;
#X obj 399 38 inlet color;
#X obj 399 63 s \$0-color;
#X obj 122 67 r \$0-color;
#X obj 59 117 i 127;
#X connect 0 0 1 0;
#X connect 1 0 11 0;
#X connect 1 1 7 0;
#X connect 4 0 5 0;
#X connect 6 0 3 1;
#X connect 6 0 2 1;
#X connect 7 0 3 0;
#X connect 8 0 9 0;
#X connect 10 0 11 1;
#X connect 11 0 2 0;
