#N canvas 313 242 851 591 10;
#X obj 324 299 ctlout;
#X obj 240 138 midi-encoder;
#X obj 240 452 outlet;
#X obj 309 114 r \$0-channel;
#X obj 357 273 r \$0-channel;
#X obj 259 240 sssad \$1-\$2;
#X msg 240 419 \$2 \$1;
#X text 441 23 $f1 ex: track-1-delay;
#X text 441 42 $f2 ex: feedback;
#X obj 137 43 s \$0-channel;
#X obj 285 362 symbol \$2;
#X obj 285 336 loadbang;
#X obj 240 389 pack f s;
#X obj 38 43 s \$0-control;
#X obj 240 94 r \$0-control;
#X obj 340 240 r \$0-control;
#X obj 38 13 inlet control;
#X obj 137 12 inlet channel;
#X obj 237 12 inlet value;
#X obj 237 43 s \$0-value;
#X obj 141 198 r \$0-value;
#X floatatom 91 250 5 0 0 0 - - -, f 5;
#X obj 600 16 inlet on-color;
#X obj 707 16 inlet off-color;
#X obj 571 276 f;
#X obj 516 277 f;
#X obj 600 40 s \$0-on-color;
#X obj 707 42 s \$0-off-color;
#X obj 600 40 s \$0-on-color;
#X obj 707 42 s \$0-off-color;
#X obj 531 241 r \$0-off-color;
#X obj 603 261 r \$0-on-color;
#X msg 569 214 bang;
#N canvas 0 23 450 300 to-toggle 0;
#X obj 170 29 inlet;
#X obj 172 239 outlet;
#X obj 170 60 sel 127;
#X obj 201 97 + 1;
#X obj 171 127 moses 2;
#X floatatom 171 153 5 0 0 0 - - -, f 5;
#X msg 211 154 0;
#X obj 170 97 f 1;
#X obj 262 61 inlet value;
#X connect 0 0 2 0;
#X connect 2 0 7 0;
#X connect 3 0 7 1;
#X connect 4 0 5 0;
#X connect 4 1 6 0;
#X connect 5 0 1 0;
#X connect 6 0 7 0;
#X connect 7 0 3 0;
#X connect 7 0 4 0;
#X connect 8 0 7 0;
#X restore 240 160 pd to-toggle;
#X obj 529 176 sel 0;
#X connect 1 0 33 0;
#X connect 3 0 1 1;
#X connect 4 0 0 2;
#X connect 5 0 12 0;
#X connect 5 0 34 0;
#X connect 5 0 33 1;
#X connect 6 0 2 0;
#X connect 10 0 12 1;
#X connect 11 0 10 0;
#X connect 12 0 6 0;
#X connect 14 0 1 0;
#X connect 15 0 0 1;
#X connect 16 0 13 0;
#X connect 17 0 9 0;
#X connect 18 0 19 0;
#X connect 20 0 5 1;
#X connect 20 0 12 0;
#X connect 20 0 21 0;
#X connect 22 0 26 0;
#X connect 23 0 27 0;
#X connect 24 0 0 0;
#X connect 25 0 0 0;
#X connect 30 0 25 1;
#X connect 31 0 24 1;
#X connect 32 0 24 0;
#X connect 33 0 5 1;
#X connect 33 0 0 0;
#X connect 33 0 12 0;
#X connect 33 0 34 0;
#X connect 34 0 25 0;
#X connect 34 1 32 0;
