#N canvas 83 28 1074 763 10;
#X obj 84 18 inlet command;
#N canvas 614 392 750 458 statemachine 0;
#X obj 182 14 inlet current-state;
#X obj 23 207 outlet next-state;
#X msg 23 155 1;
#X msg 64 155 2;
#X msg 105 155 3;
#X obj 23 125 route 0 1 2 3, f 28;
#X obj 23 14 inlet bang_or_clear;
#X text 25 235 0 - initial state / clear \, 1 - recording \, 2 - playing
\, 3 - stopped;
#X floatatom 23 187 5 0 0 0 - - -, f 5;
#X obj 23 41 sel 1 -1, f 13;
#X msg 60 68 0;
#X obj 23 68 i 0;
#X connect 0 0 11 1;
#X connect 2 0 8 0;
#X connect 3 0 8 0;
#X connect 4 0 8 0;
#X connect 5 0 2 0;
#X connect 5 1 3 0;
#X connect 5 2 4 0;
#X connect 5 3 3 0;
#X connect 6 0 9 0;
#X connect 8 0 1 0;
#X connect 9 0 11 0;
#X connect 9 1 10 0;
#X connect 10 0 8 0;
#X connect 11 0 5 0;
#X restore 141 320 pd statemachine;
#X obj 228 299 r \$0-current-state;
#X obj 10 374 f 0;
#X obj 10 455 s \$0-current-state;
#X obj 10 428 t f f;
#X obj 37 482 route 0 1 2 3, f 48;
#N canvas 17 268 450 300 record 0;
#X obj 12 17 inlet bang;
#X obj 12 43 s \$0-record;
#X connect 0 0 1 0;
#X restore 108 509 pd record;
#N canvas 0 23 450 300 play 0;
#X obj 18 23 inlet bang;
#X obj 18 49 s \$0-play;
#X connect 0 0 1 0;
#X restore 179 509 pd play;
#N canvas 0 23 450 300 stop 0;
#X obj 22 21 inlet bang;
#X obj 22 49 s \$0-stop;
#X connect 0 0 1 0;
#X restore 250 509 pd stop;
#N canvas 0 23 450 300 clear 0;
#X obj 16 15 inlet bang;
#X obj 16 43 s \$0-clear;
#X connect 0 0 1 0;
#X restore 37 509 pd clear;
#X obj 10 329 loadbang;
#X obj 10 401 change -1;
#X obj 84 280 route mute;
#X obj 84 302 s \$0-mute;
#X obj 474 397 looper~;
#N canvas 297 217 686 489 midi-to-audio 0;
#X obj 125 99 mtof;
#X obj 124 0 notein;
#X obj 126 138 osc~;
#X obj 124 70 stripnote;
#X obj 127 181 *~;
#X obj 442 87 t b f;
#X obj 395 142 f;
#X obj 395 169 sel 0;
#X obj 499 159 f;
#X msg 260 228 \$1 127;
#X obj 260 256 line~;
#X msg 385 221 0 127;
#X obj 499 196 select;
#X text 414 41 https://www.youtube.com/watch?v=jpWEBcev_Kg;
#X obj 131 387 outlet~;
#X connect 0 0 2 0;
#X connect 1 0 3 0;
#X connect 1 0 5 0;
#X connect 1 1 3 1;
#X connect 1 1 6 1;
#X connect 2 0 4 0;
#X connect 3 0 0 0;
#X connect 3 0 12 1;
#X connect 4 0 14 0;
#X connect 5 0 6 0;
#X connect 5 1 8 1;
#X connect 6 0 7 0;
#X connect 7 0 8 0;
#X connect 7 1 9 0;
#X connect 8 0 12 0;
#X connect 9 0 10 0;
#X connect 10 0 4 1;
#X connect 11 0 10 0;
#X connect 12 0 11 0;
#X restore 474 313 pd midi-to-audio;
#N canvas 178 51 842 640 monophonic-audio-to-midi 0;
#X obj 123 26 inlet~;
#X obj 478 231 unpack;
#X msg 432 177 auto 1;
#X floatatom 512 259 5 0 0 0 - - -, f 5;
#X obj 432 153 loadbang;
#X text 55 290 https://forum.pdpatchrepo.info/topic/5235/fiddle-signal-to-midi-better-way-to-generate-midi-note-durations/5
;
#X obj 513 323 i;
#X floatatom 456 347 5 0 0 0 - - -, f 5;
#X floatatom 453 258 5 0 0 0 - - -, f 5;
#X obj 455 321 i;
#X obj 453 290 + 0.5;
#X obj 432 203 fiddle~ 2048;
#X obj 480 401 poly 1 1;
#X obj 507 437 noteout;
#X obj 585 312 sel 0;
#X obj 586 365 bng 15 250 50 0 empty empty empty 17 7 0 10 -262144
-1 -1;
#X obj 585 290 change;
#X connect 0 0 11 0;
#X connect 1 1 3 0;
#X connect 2 0 11 0;
#X connect 3 0 6 0;
#X connect 3 0 16 0;
#X connect 4 0 2 0;
#X connect 6 0 12 1;
#X connect 7 0 12 0;
#X connect 8 0 10 0;
#X connect 9 0 7 0;
#X connect 10 0 9 0;
#X connect 11 0 8 0;
#X connect 11 2 1 0;
#X connect 12 1 13 0;
#X connect 12 2 13 1;
#X connect 14 0 15 0;
#X connect 15 0 6 0;
#X connect 15 0 9 0;
#X connect 16 0 14 0;
#X restore 474 525 pd monophonic-audio-to-midi;
#X obj 600 355 r \$0-stop;
#X msg 600 382 stop 1;
#X obj 670 355 r \$0-play;
#X msg 670 382 play 1;
#X obj 740 355 r \$0-record;
#X obj 820 355 r \$0-clear;
#X msg 820 382 clear 1;
#X symbolatom 105 185 10 0 0 0 - #0-state-display -, f 10;
#X obj 105 145 bng 15 250 50 0 \$0-toggle \$0-toggle-inlet rec/play
17 7 0 10 -262144 -1 -1;
#X obj 105 165 bng 15 250 50 0 \$0-clear \$0-clear-inlet clear 17 7
0 10 -262144 -1 -1;
#X symbolatom 105 126 10 0 0 0 - #0-trackname #0-filename, f 10;
#X msg 740 382 rec 1;
#X msg 670 402 rec 0;
#X msg 228 177 1;
#X msg 348 179 -1;
#N canvas 0 23 450 300 state-display 0;
#X obj 100 33 r \$0-current-state;
#X obj 100 64 sel 0 1 2 3;
#X msg 48 103 symbol clear;
#X msg 75 128 symbol rec;
#X msg 98 151 symbol play;
#X msg 115 175 symbol stop;
#X obj 73 218 s \$0-state-display;
#X connect 0 0 1 0;
#X connect 1 0 2 0;
#X connect 1 1 3 0;
#X connect 1 2 4 0;
#X connect 1 3 5 0;
#X connect 2 0 6 0;
#X connect 3 0 6 0;
#X connect 4 0 6 0;
#X connect 5 0 6 0;
#X restore 890 74 pd state-display;
#X obj 581 69 r PLAY-ALL;
#X obj 581 95 s \$0-play;
#X obj 348 -12 s \$0-track-number;
#X obj 230 -99 inlet;
#X obj 408 -34 s \$0-bank;
#X obj 230 -76 route toggle clear track-number bank toggle-button;
#X obj 230 31 s \$0-toggle-inlet;
#X obj 289 9 s \$0-clear-inlet;
#X obj 467 -53 s \$0-toggle-button;
#N canvas 0 23 450 300 send-trackname 0;
#X msg 75 140 symbol \$1-\$2;
#X obj 75 116 pack f f;
#X symbolatom 75 162 10 0 0 0 - - -, f 10;
#X obj 75 33 r \$0-bank;
#X obj 75 183 s \$0-trackname;
#X obj 93 52 r \$0-track-number;
#X obj 93 71 t b f;
#X obj 75 95 f;
#X connect 0 0 2 0;
#X connect 1 0 0 0;
#X connect 2 0 4 0;
#X connect 3 0 7 0;
#X connect 5 0 6 0;
#X connect 6 0 7 0;
#X connect 6 1 1 1;
#X connect 7 0 1 0;
#X restore 890 51 pd send-trackname;
#X obj 895 355 r \$0-bank;
#X msg 895 382 bank \$1;
#X obj 964 355 r \$0-track-number;
#X msg 964 382 track-number \$1;
#X obj 228 151 r \$0-toggle;
#X obj 348 152 r \$0-clear;
#X connect 0 0 13 0;
#X connect 1 0 3 0;
#X connect 2 0 1 1;
#X connect 3 0 12 0;
#X connect 5 0 4 0;
#X connect 5 1 6 0;
#X connect 6 0 10 0;
#X connect 6 1 7 0;
#X connect 6 2 8 0;
#X connect 6 3 9 0;
#X connect 11 0 3 0;
#X connect 12 0 5 0;
#X connect 13 0 14 0;
#X connect 13 1 1 0;
#X connect 15 0 17 0;
#X connect 16 0 15 0;
#X connect 18 0 19 0;
#X connect 19 0 15 1;
#X connect 20 0 21 0;
#X connect 21 0 15 1;
#X connect 21 0 30 0;
#X connect 22 0 29 0;
#X connect 23 0 24 0;
#X connect 24 0 15 1;
#X connect 29 0 15 1;
#X connect 30 0 15 1;
#X connect 31 0 1 0;
#X connect 32 0 1 0;
#X connect 34 0 35 0;
#X connect 37 0 39 0;
#X connect 39 0 40 0;
#X connect 39 1 41 0;
#X connect 39 2 36 0;
#X connect 39 3 38 0;
#X connect 39 4 42 0;
#X connect 44 0 45 0;
#X connect 45 0 15 1;
#X connect 46 0 47 0;
#X connect 47 0 15 1;
#X connect 48 0 31 0;
#X connect 49 0 32 0;
#X coords 0 -1 1 1 90 105 1 100 100;
