#N canvas 482 326 631 359 10;
#X msg 71 181 127;
#X msg 110 181 0;
#X obj 71 29 ctlin;
#X obj 104 104 &&;
#X obj 71 126 spigot;
#X obj 71 153 sel 127;
#X obj 71 233 outlet;
#X obj 104 75 ==;
#X obj 316 114 s \$0-control;
#X obj 402 114 s \$0-channel;
#X obj 316 91 f \$1;
#X obj 401 89 f \$2;
#X obj 401 57 loadbang;
#X obj 255 -13 r \$0-channel;
#X obj 162 -88 inlet control;
#X obj 162 -66 s \$0-control;
#X obj 262 -88 inlet channel;
#X obj 262 -66 s \$0-channel;
#X obj 166 -13 r \$0-control;
#X obj 141 75 ==;
#X obj 166 227 ctlout;
#X obj 199 204 r \$0-channel;
#X obj 182 181 r \$0-control;
#X connect 0 0 6 0;
#X connect 0 0 20 0;
#X connect 1 0 6 0;
#X connect 1 0 20 0;
#X connect 2 0 4 0;
#X connect 2 1 7 0;
#X connect 2 2 19 0;
#X connect 3 0 4 1;
#X connect 4 0 5 0;
#X connect 5 0 0 0;
#X connect 5 1 1 0;
#X connect 7 0 3 0;
#X connect 10 0 8 0;
#X connect 11 0 9 0;
#X connect 12 0 11 0;
#X connect 12 0 10 0;
#X connect 13 0 19 1;
#X connect 14 0 15 0;
#X connect 16 0 17 0;
#X connect 18 0 7 1;
#X connect 19 0 3 1;
#X connect 21 0 20 2;
#X connect 22 0 20 1;
