#N canvas 1263 256 631 359 10;
#X obj 71 29 ctlin;
#X obj 104 104 &&;
#X obj 71 156 spigot;
#X obj 72 306 outlet;
#X obj 104 75 ==;
#X obj 316 114 s \$0-control;
#X obj 402 114 s \$0-channel;
#X obj 316 91 f \$1;
#X obj 401 89 f \$2;
#X obj 401 57 loadbang;
#X obj 255 -13 r \$0-channel;
#X obj 162 -88 inlet control;
#X obj 162 -66 s \$0-control;
#X obj 262 -88 inlet channel;
#X obj 262 -66 s \$0-channel;
#X obj 166 -13 r \$0-control;
#X obj 141 75 ==;
#X obj 104 133 tgl 15 0 empty empty empty 17 7 0 10 -262144 -1 -1 0
1;
#X obj 71 182 sel 127;
#X obj 102 219 + 1;
#X obj 72 249 moses 2;
#X floatatom 72 275 5 0 0 0 - - -, f 5;
#X msg 112 276 0;
#X obj 71 219 f 1;
#X connect 0 0 2 0;
#X connect 0 1 4 0;
#X connect 0 2 16 0;
#X connect 1 0 17 0;
#X connect 2 0 18 0;
#X connect 4 0 1 0;
#X connect 7 0 5 0;
#X connect 8 0 6 0;
#X connect 9 0 8 0;
#X connect 9 0 7 0;
#X connect 10 0 16 1;
#X connect 11 0 12 0;
#X connect 13 0 14 0;
#X connect 15 0 4 1;
#X connect 16 0 1 1;
#X connect 17 0 2 1;
#X connect 18 0 23 0;
#X connect 19 0 23 1;
#X connect 20 0 21 0;
#X connect 20 1 22 0;
#X connect 21 0 3 0;
#X connect 22 0 23 0;
#X connect 23 0 19 0;
#X connect 23 0 20 0;
