#N canvas 1521 126 1017 903 10;
#X obj 10 -14 inlet tick;
#N canvas 205 473 750 458 statemachine 0;
#X obj 172 15 inlet current-state;
#X obj 23 207 outlet next-state;
#X msg 23 155 1;
#X msg 64 155 2;
#X msg 105 155 3;
#X obj 23 125 route 0 1 2 3, f 28;
#X obj 23 14 inlet bang_or_clear;
#X text 25 235 0 - initial state / clear \, 1 - recording \, 2 - playing
\, 3 - stopped;
#X floatatom 23 187 5 0 0 0 - - -, f 5;
#X obj 23 41 sel 1 -1, f 13;
#X msg 60 68 0;
#X obj 23 68 i 0;
#X obj 315 14 inlet next-state;
#X connect 0 0 11 1;
#X connect 2 0 8 0;
#X connect 3 0 8 0;
#X connect 4 0 8 0;
#X connect 5 0 2 0;
#X connect 5 1 3 0;
#X connect 5 2 4 0;
#X connect 5 3 3 0;
#X connect 6 0 9 0;
#X connect 8 0 1 0;
#X connect 9 0 11 0;
#X connect 9 1 10 0;
#X connect 10 0 8 0;
#X connect 11 0 5 0;
#X connect 12 0 8 0;
#X restore 141 80 pd statemachine;
#X obj 245 36 r \$0-current-state;
#X obj 10 134 f 0;
#X obj 10 215 s \$0-current-state;
#X obj 10 188 t f f;
#X obj 37 242 route 0 1 2 3, f 48;
#X obj 10 503 qlist;
#X obj 10 472 r \$0-seqlist;
#N canvas 0 23 749 317 makeids 0;
#X obj 178 114 makefilename %s-dummy;
#X obj 178 141 s \$0-dummy-id;
#X obj 43 141 s \$0-note-id;
#X obj 98 40 r \$0-filename;
#X obj 99 70 pack s;
#X obj 43 114 makefilename \$2-note;
#X connect 0 0 1 0;
#X connect 3 0 4 0;
#X connect 4 0 0 0;
#X connect 4 0 5 0;
#X connect 5 0 2 0;
#X restore 670 68 pd makeids;
#X floatatom 749 161 5 0 0 0 timedelta_ms #0-timedelta -, f 5;
#X obj 10 383 spigot;
#X obj 16 406 bng 15 250 50 0 empty empty empty 17 7 0 10 -262144 -1
-1;
#X obj 10 298 r \$0-eventspigot;
#X obj 16 426 s \$0-startcounter;
#X obj 10 450 s \$0-seqlist;
#N canvas 17 268 450 300 record 0;
#X obj 12 17 inlet bang;
#X obj 31 95 s \$0-startcounter;
#X text 144 93 1 start interval counter;
#X obj 12 138 s \$0-loop-length;
#X msg 12 117 0;
#X text 117 137 2 reset loop length;
#X obj 68 44 bng 15 250 50 0 empty empty empty 17 7 0 10 -262144 -1
-1;
#X obj 12 44 t b b b;
#X obj 143 24 r \$0-toggle-num;
#X floatatom 143 45 5 0 0 0 - - -, f 5;
#X obj 68 67 midi-pulse-on;
#X connect 0 0 7 0;
#X connect 4 0 3 0;
#X connect 6 0 10 0;
#X connect 7 0 4 0;
#X connect 7 1 1 0;
#X connect 7 2 6 0;
#X connect 8 0 9 0;
#X connect 9 0 10 1;
#X restore 108 269 pd record;
#N canvas 307 460 722 568 play 0;
#X obj 65 206 i;
#X msg 65 253 add \$1 \$2 pause;
#X obj 65 230 pack f s;
#X obj 80 183 r \$0-timedelta;
#X obj 110 206 r \$0-dummy-id;
#X obj 65 276 s \$0-eventspigot;
#X obj 48 299 s \$0-stopcounter;
#X obj 14 359 s \$0-seqlist;
#X text 120 231 1 add dummy pause to loop end;
#X text 150 300 2 stop interval counter;
#X text 93 360 4 start the loop;
#X obj 18 23 inlet bang;
#X msg 31 319 0;
#X obj 31 339 s \$0-init-current-beat;
#X obj 65 132 bng 15 250 50 0 empty empty empty 17 7 0 10 -262144 -1
-1;
#X obj 140 113 r \$0-toggle-num;
#X floatatom 140 134 5 0 0 0 - - -, f 5;
#X obj 65 155 midi-pulse-on;
#X obj 18 47 t b b b b b;
#X msg 81 69 1;
#X obj 81 92 s \$0-is-playing;
#X connect 0 0 2 0;
#X connect 1 0 5 0;
#X connect 2 0 1 0;
#X connect 3 0 0 1;
#X connect 4 0 2 1;
#X connect 11 0 18 0;
#X connect 12 0 13 0;
#X connect 14 0 17 0;
#X connect 15 0 16 0;
#X connect 16 0 17 1;
#X connect 18 0 7 0;
#X connect 18 1 12 0;
#X connect 18 2 6 0;
#X connect 18 3 14 0;
#X connect 18 4 19 0;
#X connect 19 0 20 0;
#X restore 179 269 pd play;
#N canvas 0 23 618 476 stop 0;
#X obj 22 21 inlet bang;
#X msg 25 181 rewind;
#X obj 25 204 s \$0-seqlist;
#X obj 43 156 s \$0-stop;
#X obj 342 187 midi-pulse-off;
#X obj 423 144 r \$0-toggle-num;
#X floatatom 423 165 5 0 0 0 - - -, f 5;
#X obj 24 64 t b b b b;
#X obj 75 108 s \$0-is-playing;
#X msg 75 85 0;
#X obj 315 114 r \$0-stop-led;
#X obj 315 163 t b b;
#X obj 315 139 bng 15 250 50 0 empty empty empty 17 7 0 10 -262144
-1 -1;
#X obj 59 132 s \$0-stop-led;
#X obj 317 307 file-exists;
#X obj 349 226 r \$0-filename;
#X obj 317 337 sel 1;
#X obj 317 361 bng 15 250 50 0 empty empty empty 17 7 0 10 -262144
-1 -1;
#X msg 317 280 ../memory/\$1.txt;
#X obj 380 341 r \$0-toggle-num;
#X floatatom 380 362 5 0 0 0 - - -, f 5;
#X obj 317 386 midi-led-on;
#X obj 316 249 symbol;
#X connect 0 0 7 0;
#X connect 1 0 2 0;
#X connect 5 0 6 0;
#X connect 6 0 4 1;
#X connect 7 0 1 0;
#X connect 7 1 3 0;
#X connect 7 2 13 0;
#X connect 7 3 9 0;
#X connect 9 0 8 0;
#X connect 10 0 12 0;
#X connect 11 0 22 0;
#X connect 11 1 4 0;
#X connect 12 0 11 0;
#X connect 14 0 16 0;
#X connect 15 0 22 1;
#X connect 16 0 17 0;
#X connect 17 0 21 0;
#X connect 18 0 14 0;
#X connect 19 0 20 0;
#X connect 20 0 21 1;
#X connect 22 0 18 0;
#X restore 250 269 pd stop;
#N canvas 0 23 450 300 clear 0;
#X obj 16 15 inlet bang;
#X msg 16 269 clear;
#X obj 16 296 s \$0-seqlist;
#X msg 57 200 0;
#X obj 57 228 s \$0-loop-length;
#X obj 97 201 s \$0-stopcounter;
#X obj 57 248 s \$0-init-current-beat;
#X obj 137 154 bng 15 250 50 0 empty empty empty 17 7 0 10 -262144
-1 -1;
#X obj 218 136 r \$0-toggle-num;
#X floatatom 218 157 5 0 0 0 - - -, f 5;
#X obj 16 42 t b b b b b, f 27;
#X obj 175 89 s \$0-is-playing;
#X msg 175 66 0;
#X obj 137 179 midi-pulse-off;
#X connect 0 0 10 0;
#X connect 1 0 2 0;
#X connect 3 0 4 0;
#X connect 3 0 6 0;
#X connect 7 0 13 0;
#X connect 8 0 9 0;
#X connect 9 0 13 1;
#X connect 10 0 1 0;
#X connect 10 1 3 0;
#X connect 10 2 5 0;
#X connect 10 3 7 0;
#X connect 10 4 12 0;
#X connect 12 0 11 0;
#X restore 37 269 pd clear;
#X floatatom 749 185 5 0 0 0 loop_length_beats #0-loop-length -, f
5;
#X floatatom 749 209 5 0 0 0 current_beat #0-current-beat -, f 5;
#N canvas 115 637 723 468 beatcounter 0;
#X obj 10 193 f 0;
#X obj 42 193 + 1;
#X obj 10 139 spigot;
#X obj 42 220 s \$0-loop-length;
#X obj 25 166 r \$0-loop-length;
#X obj 10 10 r \$0-tick;
#X obj 192 95 i 0;
#X obj 224 95 + 1;
#X obj 224 137 %;
#X obj 239 116 r \$0-loop-length;
#X obj 224 177 s \$0-current-beat;
#X obj 224 157 + 1;
#X obj 192 53 spigot 0;
#X obj 237 11 r \$0-current-state;
#X obj 237 32 == 2;
#X obj 207 74 r \$0-init-current-beat;
#X obj 43 96 r \$0-current-state;
#X obj 43 118 == 1;
#X floatatom 75 193 5 0 0 0 - - -, f 5;
#X obj 203 205 r \$0-loop-length;
#X obj 204 224 number-state-settings \$2-loop-length;
#X connect 0 0 1 0;
#X connect 1 0 0 1;
#X connect 1 0 3 0;
#X connect 2 0 0 0;
#X connect 4 0 0 1;
#X connect 5 0 2 0;
#X connect 5 0 12 0;
#X connect 6 0 7 0;
#X connect 7 0 6 1;
#X connect 7 0 8 0;
#X connect 8 0 11 0;
#X connect 9 0 8 1;
#X connect 11 0 10 0;
#X connect 12 0 6 0;
#X connect 13 0 14 0;
#X connect 14 0 12 1;
#X connect 15 0 6 1;
#X connect 16 0 17 0;
#X connect 17 0 2 1;
#X connect 18 0 3 0;
#X connect 19 0 20 0;
#X connect 20 0 18 0;
#X restore 670 108 pd beatcounter;
#X obj 43 363 tgl 15 0 empty empty empty 17 7 0 10 -262144 -1 -1 0
1;
#X obj 749 233 bng 15 250 50 0 empty \$0-tick tick -30 7 0 10 -262144
-1 -1;
#X obj 20 40 s \$0-tick;
#X obj 130 403 r \$0-current-beat;
#X obj 130 426 sel 1;
#X obj 130 449 s \$0-seqlist;
#N canvas 0 23 284 264 midiinprocessor 0;
#X obj 64 114 i 0;
#X obj 64 138 pack f s;
#X msg 64 162 add2 \$1 \$2;
#X obj 79 90 r \$0-timedelta;
#X obj 109 114 r \$0-note-id;
#X obj 37 90 t l b;
#X obj 37 64 pack f f;
#X msg 37 186 add \$1 \$2;
#X obj 37 23 notein \$1;
#X floatatom 37 45 5 0 0 0 - - -, f 5;
#X floatatom 88 45 5 0 0 0 - - -, f 5;
#X obj 37 210 s \$0-eventspigot;
#X connect 0 0 1 0;
#X connect 1 0 2 0;
#X connect 2 0 11 0;
#X connect 3 0 0 1;
#X connect 4 0 1 1;
#X connect 5 0 7 0;
#X connect 5 1 0 0;
#X connect 6 0 5 0;
#X connect 7 0 11 0;
#X connect 8 0 9 0;
#X connect 8 1 10 0;
#X connect 9 0 6 0;
#X connect 10 0 6 1;
#X restore 670 128 pd midiinprocessor;
#X obj 43 319 r \$0-current-state;
#X obj 43 341 == 1;
#X text 80 342 only allow events through in record state;
#X text 133 384 retrigger loop every 1st beat;
#X obj 22 64 loadbang;
#X obj 10 161 change -1;
#X obj 22 87 t b b;
#X obj 32 895 spigot 1;
#X obj 362 -7 s \$0-mute;
#X obj 136 858 r \$0-mute;
#X obj 604 514 r \$0-current-state;
#X obj 604 545 sel 0 1 2 3;
#X symbolatom 105 185 10 0 0 0 - #0-state-display -, f 10;
#X msg 552 584 symbol clear;
#X msg 579 609 symbol rec;
#X msg 602 632 symbol play;
#X msg 619 656 symbol stop;
#X obj 577 699 s \$0-state-display;
#X obj 105 145 bng 15 250 50 0 \$0-toggle \$0-toggle-input rec/play
17 7 0 10 -262144 -1 -1;
#X obj 105 165 bng 15 250 50 0 \$0-clear \$0-clear-input clear 17 7
0 10 -262144 -1 -1;
#X obj 229 -14 inlet clear;
#X obj 86 -14 inlet toggle;
#X msg 87 7 1;
#X msg 229 7 -1;
#X obj 258 8 r \$0-clear;
#X obj 116 7 r \$0-toggle;
#X obj 86 -34 r \$0-toggle-input;
#X obj 229 -34 r \$0-clear-input;
#X obj 32 919 unpack f f;
#X obj 32 993 noteout;
#X obj 362 -32 inlet mute;
#X obj 136 880 == 0;
#X obj 41 954 f;
#X obj 136 901 sel 0;
#X obj 136 929 t b 0;
#X obj 178 902 r \$0-stop;
#X symbolatom 105 126 10 0 0 0 - #0-trackname #0-filename, f 10;
#X obj 446 -30 inlet trackname;
#X obj 446 -7 s \$0-trackname;
#X obj 121 753 r \$0-filename;
#X obj 65 768 symbol;
#X obj 363 384 bng 15 250 50 0 empty empty empty 17 7 0 10 -262144
-1 -1;
#X obj 65 741 bng 15 250 50 0 empty empty empty 17 7 0 10 -262144 -1
-1;
#X text 83 741 write;
#X text 381 385 read;
#X obj 363 421 symbol;
#N canvas 117 158 494 433 msfrombang 0;
#X obj 51 164 + 1;
#X obj 13 164 f;
#X floatatom 13 194 10 0 0 0 - - -, f 10;
#X msg 83 134 0;
#X obj 13 134 metro 1;
#X obj 13 104 t b b;
#X msg 66 74 0;
#X obj 13 218 s \$0-timedelta;
#X msg 13 50 1;
#X obj 13 27 r \$0-startcounter;
#X obj 66 50 r \$0-stopcounter;
#X text 12 7 counter for measuring delay between bangs;
#X obj 130 208 number-state-settings \$2-time-delta;
#X connect 0 0 1 1;
#X connect 1 0 0 0;
#X connect 1 0 2 0;
#X connect 2 0 7 0;
#X connect 2 0 12 0;
#X connect 3 0 1 0;
#X connect 4 0 1 0;
#X connect 5 0 4 0;
#X connect 5 1 3 0;
#X connect 6 0 4 0;
#X connect 8 0 5 0;
#X connect 9 0 8 0;
#X connect 10 0 6 0;
#X connect 12 0 2 0;
#X restore 670 88 pd msfrombang;
#X obj 44 549 r SAVE;
#X obj 362 355 r LOAD;
#X msg 266 99 2;
#X obj 561 -30 inlet toggle-num;
#X obj 562 -7 s \$0-toggle-num;
#X obj 465 259 ctlout;
#X msg 465 237 0 0 3;
#X obj 465 215 delay 100;
#X obj 465 195 loadbang;
#X obj 32 873 r \$2-note;
#X obj 348 290 r \$0-filename;
#X obj 347 333 delay 100;
#X msg 347 311 bang;
#X obj 325 636 file-exists;
#X obj 324 583 r \$0-filename;
#X obj 325 666 sel 1;
#X obj 325 690 bng 15 250 50 0 empty empty empty 17 7 0 10 -262144
-1 -1;
#X obj 352 689 bng 15 250 50 0 empty empty empty 17 7 0 10 -262144
-1 -1;
#X obj 265 121 r \$0-nav-to-clear;
#X msg 265 142 0;
#X obj 340 733 r \$0-is-playing;
#X obj 325 754 f;
#X obj 325 778 sel 1;
#X obj 325 802 bng 15 250 50 0 empty empty empty 17 7 0 10 -262144
-1 -1;
#X obj 352 801 bng 15 250 50 0 empty empty empty 17 7 0 10 -262144
-1 -1;
#X obj 352 828 s \$0-nav-to-stop;
#X obj 265 164 r \$0-nav-to-stop;
#X msg 265 185 3;
#X obj 352 710 s \$0-nav-to-clear;
#X obj 842 525 r PLAY-ALL;
#X obj 842 621 file-exists;
#X obj 875 545 r \$0-filename;
#X obj 842 651 sel 1;
#X obj 842 675 bng 15 250 50 0 empty empty empty 17 7 0 10 -262144
-1 -1;
#X obj 842 570 symbol;
#X obj 325 848 s \$0-play;
#X obj 842 696 s \$0-play;
#X obj 266 78 r \$0-play;
#X floatatom 37 695 5 0 0 0 - - -, f 5;
#X msg 45 631 next;
#X obj 408 407 r \$0-filename;
#X obj 42 652 r \$0-filename;
#X msg 42 675 0;
#X msg 71 613 rewind;
#X obj 44 570 bng 15 250 50 0 empty empty empty 17 7 0 10 -262144 -1
-1;
#X obj 44 592 t b b;
#X obj 37 716 sel 0;
#X text 81 716 0 when qlist is empty;
#X msg 276 462 read ../memory/midi/\$1.txt;
#X msg 65 791 write ../memory/midi/\$1.txt;
#X msg 842 594 ../memory/midi/\$1.txt;
#X msg 325 609 ../memory/midi/\$1.txt;
#X connect 0 0 25 0;
#X connect 0 0 3 0;
#X connect 1 0 3 1;
#X connect 2 0 1 1;
#X connect 3 0 35 0;
#X connect 5 0 4 0;
#X connect 5 1 6 0;
#X connect 6 0 19 0;
#X connect 6 1 16 0;
#X connect 6 2 17 0;
#X connect 6 3 18 0;
#X connect 7 0 115 0;
#X connect 8 0 7 0;
#X connect 11 0 12 0;
#X connect 11 0 15 0;
#X connect 12 0 14 0;
#X connect 13 0 11 0;
#X connect 23 0 11 1;
#X connect 26 0 27 0;
#X connect 27 0 28 0;
#X connect 30 0 31 0;
#X connect 31 0 23 0;
#X connect 34 0 36 0;
#X connect 35 0 5 0;
#X connect 36 1 3 0;
#X connect 37 0 58 0;
#X connect 39 0 61 0;
#X connect 40 0 41 0;
#X connect 41 0 43 0;
#X connect 41 1 44 0;
#X connect 41 2 45 0;
#X connect 41 3 46 0;
#X connect 43 0 47 0;
#X connect 44 0 47 0;
#X connect 45 0 47 0;
#X connect 46 0 47 0;
#X connect 50 0 53 0;
#X connect 51 0 52 0;
#X connect 52 0 1 0;
#X connect 53 0 1 0;
#X connect 54 0 53 0;
#X connect 55 0 52 0;
#X connect 56 0 52 0;
#X connect 57 0 53 0;
#X connect 58 0 59 0;
#X connect 58 0 62 0;
#X connect 58 1 59 1;
#X connect 60 0 38 0;
#X connect 61 0 37 1;
#X connect 61 0 63 0;
#X connect 62 0 59 0;
#X connect 63 0 64 0;
#X connect 64 0 62 0;
#X connect 64 1 59 1;
#X connect 65 0 64 0;
#X connect 67 0 68 0;
#X connect 69 0 70 1;
#X connect 70 0 126 0;
#X connect 71 0 75 0;
#X connect 72 0 70 0;
#X connect 75 0 125 0;
#X connect 77 0 121 0;
#X connect 78 0 71 0;
#X connect 79 0 1 2;
#X connect 80 0 81 0;
#X connect 83 0 82 0;
#X connect 84 0 83 0;
#X connect 85 0 84 0;
#X connect 86 0 37 0;
#X connect 87 0 89 0;
#X connect 88 0 71 0;
#X connect 89 0 88 0;
#X connect 90 0 92 0;
#X connect 91 0 128 0;
#X connect 92 0 93 0;
#X connect 92 1 94 0;
#X connect 93 0 98 0;
#X connect 94 0 105 0;
#X connect 95 0 96 0;
#X connect 96 0 1 2;
#X connect 97 0 98 1;
#X connect 98 0 99 0;
#X connect 99 0 100 0;
#X connect 99 1 101 0;
#X connect 100 0 112 0;
#X connect 101 0 102 0;
#X connect 103 0 104 0;
#X connect 104 0 1 2;
#X connect 106 0 111 0;
#X connect 107 0 109 0;
#X connect 108 0 111 1;
#X connect 109 0 110 0;
#X connect 110 0 113 0;
#X connect 111 0 127 0;
#X connect 114 0 79 0;
#X connect 115 0 123 0;
#X connect 116 0 7 0;
#X connect 117 0 75 1;
#X connect 118 0 119 0;
#X connect 119 0 115 0;
#X connect 120 0 7 0;
#X connect 121 0 122 0;
#X connect 122 0 116 0;
#X connect 122 1 120 0;
#X connect 123 1 72 0;
#X connect 125 0 7 0;
#X connect 126 0 7 0;
#X connect 127 0 107 0;
#X connect 128 0 90 0;
#X coords 0 -1 1 1 90 105 1 100 100;
