#N canvas 0 25 450 300 10;
#X obj 34 33 change;
#X obj 34 77 f 0;
#X obj 63 78 == 0;
#X floatatom 34 98 5 0 0 0 - - -, f 5;
#X obj 34 54 sel 1;
#X obj 34 9 inlet;
#X obj 34 120 outlet;
#X connect 0 0 4 0;
#X connect 1 0 2 0;
#X connect 1 0 3 0;
#X connect 2 0 1 1;
#X connect 3 0 6 0;
#X connect 4 0 1 0;
#X connect 5 0 0 0;
