#N canvas 351 190 929 587 10;
#X obj 240 422 outlet;
#X obj 303 124 r \$0-channel;
#X msg 240 389 \$2 \$1;
#X obj 137 43 s \$0-channel;
#X obj 285 332 symbol \$2;
#X obj 285 306 loadbang;
#X obj 240 359 pack f s;
#X obj 38 43 s \$0-control;
#X obj 240 104 r \$0-control;
#X obj 38 13 inlet control;
#X obj 137 12 inlet channel;
#X obj 240 167 == 127;
#X obj 237 12 inlet value;
#X obj 237 43 s \$0-value;
#X obj 141 168 r \$0-value;
#X obj 240 148 midi-button;
#X connect 1 0 15 1;
#X connect 2 0 0 0;
#X connect 4 0 6 1;
#X connect 5 0 4 0;
#X connect 6 0 2 0;
#X connect 8 0 15 0;
#X connect 9 0 7 0;
#X connect 10 0 3 0;
#X connect 11 0 6 0;
#X connect 12 0 13 0;
#X connect 14 0 6 0;
#X connect 15 0 11 0;
