#N canvas 229 473 450 300 10;
#X obj 42 84 ctlin;
#X obj 75 159 &&;
#X obj 42 181 spigot;
#X obj 75 130 ==;
#X obj 36 15 inlet control;
#X obj 131 13 inlet channel;
#X obj 132 38 s \$0-channel;
#X obj 36 38 s \$0-control;
#X obj 249 209 s \$0-control;
#X obj 335 209 s \$0-channel;
#X obj 249 186 f \$1;
#X obj 334 184 f \$2;
#X obj 334 152 loadbang;
#X obj 99 83 r \$0-control;
#X obj 182 84 r \$0-channel;
#X floatatom 110 103 5 0 0 0 - - -, f 5;
#X floatatom 182 105 5 0 0 0 - - -, f 5;
#X obj 112 130 ==;
#X msg 41 233 127;
#X msg 80 233 0;
#X obj 41 205 sel 127;
#X obj 64 275 outlet;
#X connect 0 0 2 0;
#X connect 0 1 3 0;
#X connect 0 2 17 0;
#X connect 1 0 2 1;
#X connect 2 0 20 0;
#X connect 3 0 1 0;
#X connect 4 0 7 0;
#X connect 5 0 6 0;
#X connect 10 0 8 0;
#X connect 11 0 9 0;
#X connect 12 0 11 0;
#X connect 12 0 10 0;
#X connect 13 0 15 0;
#X connect 13 0 3 1;
#X connect 14 0 16 0;
#X connect 16 0 17 1;
#X connect 17 0 1 1;
#X connect 18 0 21 0;
#X connect 19 0 21 0;
#X connect 20 0 18 0;
#X connect 20 1 19 0;
