#N canvas 1106 371 450 300 10;
#X obj 58 41 inlet bang;
#X msg 59 102 127;
#X obj 58 63 t b b;
#X obj 59 126 ctlout \$1 2;
#X obj 138 126 ctlout \$1 3;
#X obj 303 38 inlet control;
#X obj 304 64 s \$0-control;
#X obj 164 68 r \$0-control;
#X msg 138 103 47;
#X connect 0 0 2 0;
#X connect 1 0 3 0;
#X connect 2 0 1 0;
#X connect 2 1 8 0;
#X connect 5 0 6 0;
#X connect 7 0 4 1;
#X connect 7 0 3 1;
#X connect 8 0 4 0;
