#N canvas 0 25 450 300 10;
#X obj 209 110 notein;
#X obj 209 139 noteout;
#X obj 266 110 ctlin;
#X obj 266 139 ctlout;
#X connect 0 0 1 0;
#X connect 0 1 1 1;
#X connect 0 2 1 2;
#X connect 2 0 3 0;
#X connect 2 1 3 1;
#X connect 2 2 3 2;
#X coords 0 -1 1 1 85 60 1 100 100;
