#N canvas 571 57 1017 903 10;
#X obj 10 -14 inlet tick;
#N canvas 205 473 750 458 statemachine 0;
#X obj 172 15 inlet current-state;
#X obj 23 207 outlet next-state;
#X msg 23 155 1;
#X msg 64 155 2;
#X msg 105 155 3;
#X obj 23 125 route 0 1 2 3, f 28;
#X obj 23 14 inlet bang_or_clear;
#X text 25 235 0 - initial state / clear \, 1 - recording \, 2 - playing
\, 3 - stopped;
#X floatatom 23 187 5 0 0 0 - - -, f 5;
#X obj 23 41 sel 1 -1, f 13;
#X msg 60 68 0;
#X obj 23 68 i 0;
#X obj 315 14 inlet next-state;
#X connect 0 0 11 1;
#X connect 2 0 8 0;
#X connect 3 0 8 0;
#X connect 4 0 8 0;
#X connect 5 0 2 0;
#X connect 5 1 3 0;
#X connect 5 2 4 0;
#X connect 5 3 3 0;
#X connect 6 0 9 0;
#X connect 8 0 1 0;
#X connect 9 0 11 0;
#X connect 9 1 10 0;
#X connect 10 0 8 0;
#X connect 11 0 5 0;
#X connect 12 0 8 0;
#X restore 141 80 pd statemachine;
#X obj 245 36 r \$0-current-state;
#X obj 10 134 f 0;
#X obj 10 215 s \$0-current-state;
#X obj 10 188 t f f;
#X obj 37 242 route 0 1 2 3, f 48;
#X obj 10 503 qlist;
#X obj 10 472 r \$0-seqlist;
#N canvas 0 23 749 317 makeids 0;
#X obj 178 114 makefilename %s-dummy;
#X obj 178 141 s \$0-dummy-id;
#X obj 43 141 s \$0-note-id;
#X obj 98 40 r \$0-filename;
#X obj 99 70 pack s;
#X obj 43 114 makefilename \$3-note;
#X connect 0 0 1 0;
#X connect 3 0 4 0;
#X connect 4 0 0 0;
#X connect 4 0 5 0;
#X connect 5 0 2 0;
#X restore 650 18 pd makeids;
#X floatatom 706 101 5 0 0 0 timedelta_ms #0-timedelta -, f 5;
#X obj 10 383 spigot;
#X obj 16 406 bng 15 250 50 0 empty empty empty 17 7 0 10 -262144 -1
-1;
#X obj 10 298 r \$0-eventspigot;
#X obj 16 426 s \$0-startcounter;
#X obj 10 450 s \$0-seqlist;
#X floatatom 706 125 5 0 0 0 current_state #0-current-state -, f 5
;
#N canvas 17 268 450 300 record 0;
#X obj 12 17 inlet bang;
#X obj 31 95 s \$0-startcounter;
#X text 144 93 1 start interval counter;
#X obj 12 138 s \$0-loop-length;
#X msg 12 117 0;
#X text 117 137 2 reset loop length;
#X obj 68 44 bng 15 250 50 0 empty empty empty 17 7 0 10 -262144 -1
-1;
#X obj 12 44 t b b b;
#X obj 143 24 r \$0-toggle-num;
#X floatatom 143 45 5 0 0 0 - - -, f 5;
#X obj 68 67 midi-pulse-on;
#X connect 0 0 7 0;
#X connect 4 0 3 0;
#X connect 6 0 10 0;
#X connect 7 0 4 0;
#X connect 7 1 1 0;
#X connect 7 2 6 0;
#X connect 8 0 9 0;
#X connect 9 0 10 1;
#X restore 108 269 pd record;
#N canvas 307 586 722 568 play 0;
#X obj 69 130 i;
#X msg 69 177 add \$1 \$2 pause;
#X obj 69 154 pack f s;
#X obj 84 107 r \$0-timedelta;
#X obj 114 130 r \$0-dummy-id;
#X obj 69 200 s \$0-eventspigot;
#X obj 52 223 s \$0-stopcounter;
#X obj 18 283 s \$0-seqlist;
#X text 124 155 1 add dummy pause to loop end;
#X text 155 224 2 stop interval counter;
#X text 97 284 4 start the loop;
#X obj 18 23 inlet bang;
#X obj 18 47 t b b b b;
#X msg 35 243 0;
#X obj 35 263 s \$0-init-current-beat;
#X obj 175 62 bng 15 250 50 0 empty empty empty 17 7 0 10 -262144 -1
-1;
#X obj 250 43 r \$0-toggle-num;
#X floatatom 250 64 5 0 0 0 - - -, f 5;
#X obj 175 85 midi-pulse-on;
#X connect 0 0 2 0;
#X connect 1 0 5 0;
#X connect 2 0 1 0;
#X connect 3 0 0 1;
#X connect 4 0 2 1;
#X connect 11 0 12 0;
#X connect 12 0 7 0;
#X connect 12 1 13 0;
#X connect 12 2 6 0;
#X connect 12 3 15 0;
#X connect 13 0 14 0;
#X connect 15 0 18 0;
#X connect 16 0 17 0;
#X connect 17 0 18 1;
#X restore 179 269 pd play;
#N canvas 0 23 450 300 stop 0;
#X obj 22 21 inlet bang;
#X msg 25 120 rewind;
#X obj 25 143 s \$0-seqlist;
#X obj 44 101 s \$0-stop;
#X obj 130 79 bng 15 250 50 0 empty empty empty 17 7 0 10 -262144 -1
-1;
#X obj 24 64 t b b b;
#X obj 130 104 midi-pulse-off;
#X obj 211 61 r \$0-toggle-num;
#X floatatom 211 82 5 0 0 0 - - -, f 5;
#X connect 0 0 5 0;
#X connect 1 0 2 0;
#X connect 4 0 6 0;
#X connect 5 0 1 0;
#X connect 5 1 3 0;
#X connect 5 2 4 0;
#X connect 7 0 8 0;
#X connect 8 0 6 1;
#X restore 250 269 pd stop;
#N canvas 0 23 450 300 clear 0;
#X obj 16 15 inlet bang;
#X msg 16 179 clear;
#X obj 16 206 s \$0-seqlist;
#X msg 69 110 0;
#X obj 69 138 s \$0-loop-length;
#X obj 122 111 s \$0-stopcounter;
#X obj 69 158 s \$0-init-current-beat;
#X obj 16 42 t b b b b, f 27;
#X obj 175 64 bng 15 250 50 0 empty empty empty 17 7 0 10 -262144 -1
-1;
#X obj 175 89 midi-pulse-off;
#X obj 256 46 r \$0-toggle-num;
#X floatatom 256 67 5 0 0 0 - - -, f 5;
#X connect 0 0 7 0;
#X connect 1 0 2 0;
#X connect 3 0 4 0;
#X connect 3 0 6 0;
#X connect 7 0 1 0;
#X connect 7 1 3 0;
#X connect 7 2 5 0;
#X connect 7 3 8 0;
#X connect 8 0 9 0;
#X connect 10 0 11 0;
#X connect 11 0 9 1;
#X restore 37 269 pd clear;
#X floatatom 706 149 5 0 0 0 loop_length_beats #0-loop-length -, f
5;
#X floatatom 706 173 5 0 0 0 current_beat #0-current-beat -, f 5;
#N canvas 770 522 723 468 beatcounter 0;
#X obj 10 193 f 0;
#X obj 42 193 + 1;
#X obj 10 139 spigot;
#X obj 42 220 s \$0-loop-length;
#X obj 25 166 r \$0-loop-length;
#X obj 10 10 r \$0-tick;
#X obj 192 95 i 0;
#X obj 224 95 + 1;
#X obj 224 137 %;
#X obj 239 116 r \$0-loop-length;
#X obj 224 177 s \$0-current-beat;
#X obj 224 157 + 1;
#X obj 192 53 spigot 0;
#X obj 237 11 r \$0-current-state;
#X obj 237 32 == 2;
#X obj 207 74 r \$0-init-current-beat;
#X obj 43 96 r \$0-current-state;
#X obj 43 118 == 1;
#X floatatom 75 193 5 0 0 0 - - -, f 5;
#X obj 203 224 midi-number-state-settings \$3-loop-length;
#X obj 203 205 r \$0-loop-length;
#X connect 0 0 1 0;
#X connect 1 0 0 1;
#X connect 1 0 3 0;
#X connect 2 0 0 0;
#X connect 4 0 0 1;
#X connect 5 0 2 0;
#X connect 5 0 12 0;
#X connect 6 0 7 0;
#X connect 7 0 6 1;
#X connect 7 0 8 0;
#X connect 8 0 11 0;
#X connect 9 0 8 1;
#X connect 11 0 10 0;
#X connect 12 0 6 0;
#X connect 13 0 14 0;
#X connect 14 0 12 1;
#X connect 15 0 6 1;
#X connect 16 0 17 0;
#X connect 17 0 2 1;
#X connect 18 0 3 0;
#X connect 19 0 18 0;
#X connect 20 0 19 0;
#X restore 650 58 pd beatcounter;
#X obj 43 363 tgl 15 0 empty empty empty 17 7 0 10 -262144 -1 -1 0
1;
#X obj 706 197 bng 15 250 50 0 empty \$0-tick tick -30 7 0 10 -262144
-1 -1;
#X obj 20 40 s \$0-tick;
#X obj 130 403 r \$0-current-beat;
#X obj 130 426 sel 1;
#X obj 130 449 s \$0-seqlist;
#N canvas 0 23 284 264 midiinprocessor 0;
#X obj 64 114 i 0;
#X obj 64 138 pack f s;
#X msg 64 162 add2 \$1 \$2;
#X obj 79 90 r \$0-timedelta;
#X obj 109 114 r \$0-note-id;
#X obj 37 90 t l b;
#X obj 37 64 pack f f;
#X msg 37 186 add \$1 \$2;
#X obj 37 23 notein \$1;
#X floatatom 37 45 5 0 0 0 - - -, f 5;
#X floatatom 88 45 5 0 0 0 - - -, f 5;
#X obj 37 210 s \$0-eventspigot;
#X connect 0 0 1 0;
#X connect 1 0 2 0;
#X connect 2 0 11 0;
#X connect 3 0 0 1;
#X connect 4 0 1 1;
#X connect 5 0 7 0;
#X connect 5 1 0 0;
#X connect 6 0 5 0;
#X connect 7 0 11 0;
#X connect 8 0 9 0;
#X connect 8 1 10 0;
#X connect 9 0 6 0;
#X connect 10 0 6 1;
#X restore 650 78 pd midiinprocessor;
#X obj 43 319 r \$0-current-state;
#X obj 43 341 == 1;
#X text 80 342 only allow events through in record state;
#X text 133 384 retrigger loop every 1st beat;
#X floatatom 706 222 5 0 0 0 global_bpm #0-global-bpm -, f 5;
#X floatatom 706 246 5 0 0 0 loop_bpm #0-loop-bpm -, f 5;
#X floatatom 706 270 5 0 0 0 tempo #0-tempo -, f 5;
#N canvas 0 23 387 346 bpmtotempo 0;
#X obj 12 12 inlet bpm;
#X obj 51 57 s \$0-global-bpm;
#X obj 64 123 tgl 15 0 empty empty empty 17 7 0 10 -262144 -1 -1 1
1;
#X obj 64 79 r \$0-current-state;
#X text 95 102 only allow loop bpm change when clear state;
#X obj 64 101 == 0;
#X obj 31 143 spigot;
#X obj 12 35 t b f f;
#X obj 31 165 s \$0-loop-bpm;
#X obj 12 267 f;
#X obj 27 245 r \$0-global-bpm;
#X obj 12 289 /;
#X obj 54 201 r \$0-loop-bpm;
#X obj 39 223 f;
#X obj 12 201 t b b;
#X obj 12 311 s \$0-tempo;
#X connect 0 0 7 0;
#X connect 2 0 6 1;
#X connect 3 0 5 0;
#X connect 5 0 2 0;
#X connect 6 0 8 0;
#X connect 7 0 14 0;
#X connect 7 1 6 0;
#X connect 7 2 1 0;
#X connect 9 0 11 0;
#X connect 10 0 9 1;
#X connect 11 0 15 0;
#X connect 12 0 13 1;
#X connect 13 0 11 1;
#X connect 14 0 9 0;
#X connect 14 1 13 0;
#X restore 266 214 pd bpmtotempo;
#X obj 22 64 loadbang;
#X obj 10 161 change -1;
#X obj 266 132 f \$2;
#X obj 266 186 f 120;
#X obj 266 159 sel 0;
#X text 302 159 if no second argument \, set 120 as default bpm;
#X obj 22 87 t b b;
#X obj 16 624 spigot 1;
#X obj 706 294 tgl 15 0 empty \$0-mute mute -27 7 0 10 -262144 -1 -1
0 1;
#X obj 362 -7 s \$0-mute;
#X obj 120 587 r \$0-mute;
#X obj 592 449 r \$0-current-state;
#X obj 592 480 sel 0 1 2 3;
#X symbolatom 105 185 10 0 0 0 - #0-state-display -, f 10;
#X msg 540 519 symbol clear;
#X msg 567 544 symbol rec;
#X msg 590 567 symbol play;
#X msg 607 591 symbol stop;
#X obj 565 634 s \$0-state-display;
#X obj 105 145 bng 15 250 50 0 \$0-toggle \$0-toggle-input rec/play
17 7 0 10 -262144 -1 -1;
#X obj 105 165 bng 15 250 50 0 \$0-clear \$0-clear-input clear 17 7
0 10 -262144 -1 -1;
#X obj 229 -14 inlet clear;
#X obj 86 -14 inlet toggle;
#X msg 87 7 1;
#X msg 229 7 -1;
#X obj 258 8 r \$0-clear;
#X obj 116 7 r \$0-toggle;
#X obj 86 -34 r \$0-toggle-input;
#X obj 229 -34 r \$0-clear-input;
#X obj 16 648 unpack f f;
#X obj 16 722 noteout;
#X obj 362 -32 inlet mute;
#X obj 679 -22 inlet bpm;
#X obj 120 609 == 0;
#X obj 25 683 f;
#X obj 120 630 sel 0;
#X obj 120 658 t b 0;
#X obj 162 631 r \$0-stop;
#X symbolatom 105 126 10 0 0 0 - #0-trackname #0-filename, f 10;
#X obj 446 -30 inlet trackname;
#X obj 446 -7 s \$0-trackname;
#X obj 467 406 r \$0-filename;
#X msg 276 462 read ../memory/\$1-midi.txt;
#X msg 277 488 write ../memory/\$1-midi.txt;
#X obj 413 421 symbol;
#X obj 363 384 bng 15 250 50 0 empty empty empty 17 7 0 10 -262144
-1 -1;
#X obj 415 385 bng 15 250 50 0 empty empty empty 17 7 0 10 -262144
-1 -1;
#X text 433 385 write;
#X text 381 385 read;
#X obj 363 421 symbol;
#N canvas 117 158 494 433 msfrombang 0;
#X obj 51 164 + 1;
#X obj 13 164 f;
#X floatatom 13 194 10 0 0 0 - - -, f 10;
#X msg 83 134 0;
#X obj 13 134 metro 1;
#X obj 13 104 t b b;
#X msg 66 74 0;
#X obj 13 218 s \$0-timedelta;
#X msg 13 50 1;
#X obj 13 27 r \$0-startcounter;
#X obj 66 50 r \$0-stopcounter;
#X text 12 7 counter for measuring delay between bangs;
#X obj 130 208 midi-number-state-settings \$3-time-delta;
#X connect 0 0 1 1;
#X connect 1 0 0 0;
#X connect 1 0 2 0;
#X connect 2 0 7 0;
#X connect 2 0 12 0;
#X connect 3 0 1 0;
#X connect 4 0 1 0;
#X connect 5 0 4 0;
#X connect 5 1 3 0;
#X connect 6 0 4 0;
#X connect 8 0 5 0;
#X connect 9 0 8 0;
#X connect 10 0 6 0;
#X connect 12 0 2 0;
#X restore 650 38 pd msfrombang;
#X obj 415 357 r SAVE;
#X obj 362 355 r LOAD;
#X obj 264 62 r PLAY-ALL;
#X msg 264 83 2;
#X obj 16 602 r \$3-note;
#X obj 561 -30 inlet toggle-num;
#X obj 562 -7 s \$0-toggle-num;
#X connect 0 0 26 0;
#X connect 0 0 3 0;
#X connect 1 0 3 1;
#X connect 2 0 1 1;
#X connect 3 0 40 0;
#X connect 5 0 4 0;
#X connect 5 1 6 0;
#X connect 6 0 20 0;
#X connect 6 1 17 0;
#X connect 6 2 18 0;
#X connect 6 3 19 0;
#X connect 8 0 7 0;
#X connect 11 0 12 0;
#X connect 11 0 15 0;
#X connect 12 0 14 0;
#X connect 13 0 11 0;
#X connect 24 0 11 1;
#X connect 27 0 28 0;
#X connect 28 0 29 0;
#X connect 31 0 32 0;
#X connect 32 0 24 0;
#X connect 39 0 45 0;
#X connect 40 0 5 0;
#X connect 41 0 43 0;
#X connect 42 0 38 0;
#X connect 43 0 42 0;
#X connect 43 1 42 0;
#X connect 45 0 41 0;
#X connect 45 1 3 0;
#X connect 46 0 68 0;
#X connect 49 0 72 0;
#X connect 50 0 51 0;
#X connect 51 0 53 0;
#X connect 51 1 54 0;
#X connect 51 2 55 0;
#X connect 51 3 56 0;
#X connect 53 0 57 0;
#X connect 54 0 57 0;
#X connect 55 0 57 0;
#X connect 56 0 57 0;
#X connect 60 0 63 0;
#X connect 61 0 62 0;
#X connect 62 0 1 0;
#X connect 63 0 1 0;
#X connect 64 0 63 0;
#X connect 65 0 62 0;
#X connect 66 0 62 0;
#X connect 67 0 63 0;
#X connect 68 0 69 0;
#X connect 68 0 73 0;
#X connect 68 1 69 1;
#X connect 70 0 48 0;
#X connect 71 0 42 0;
#X connect 72 0 46 1;
#X connect 72 0 74 0;
#X connect 73 0 69 0;
#X connect 74 0 75 0;
#X connect 75 0 73 0;
#X connect 75 1 69 1;
#X connect 76 0 75 0;
#X connect 78 0 79 0;
#X connect 80 0 83 1;
#X connect 80 0 88 1;
#X connect 81 0 7 0;
#X connect 82 0 7 0;
#X connect 83 0 82 0;
#X connect 84 0 88 0;
#X connect 85 0 83 0;
#X connect 88 0 81 0;
#X connect 90 0 85 0;
#X connect 91 0 84 0;
#X connect 92 0 93 0;
#X connect 93 0 1 2;
#X connect 94 0 46 0;
#X connect 95 0 96 0;
#X coords 0 -1 1 1 90 105 1 100 100;
