#N canvas 22 23 843 550 10;
#X obj 148 26 midirealtimein;
#X obj 186 207 + 1;
#X obj 148 207 f;
#X obj 148 97 == 248;
#X obj 175 156 del 500;
#X msg 175 179 0;
#X obj 148 129 t b b;
#X text 205 176 < resets counter to 0;
#X obj 157 273 sel 0;
#X obj 157 240 mod 24;
#X obj 158 336 bng 15 250 50 0 empty empty empty 17 7 0 10 -262144
-1 -1;
#X text 325 67 http://www.pdpatchrepo.info/hurleur/midisync_in.pd;
#X obj 329 302 sel 248 250 251 252;
#X text 372 391 continue;
#X text 405 357 stop;
#X text 346 421 start;
#X obj 355 405 bng 15 250 50 0 empty empty empty 17 7 0 10 -262144
-1 -1;
#X obj 384 374 bng 15 250 50 0 empty empty empty 17 7 0 10 -262144
-1 -1;
#X obj 413 338 bng 15 250 50 0 empty empty empty 17 7 0 10 -262144
-1 -1;
#X obj 419 603 outlet stop;
#X obj 186 586 outlet tempo;
#X obj 357 636 outlet start;
#X obj 204 396 s \$0-tap;
#X obj 159 381 t b b;
#X obj 511 129 r \$0-tap;
#X floatatom 589 238 5 0 0 0 - - -, f 5;
#X obj 567 310 change;
#X obj 558 394 spigot;
#X floatatom 558 428 5 0 0 0 - - -, f 5;
#X obj 511 159 tap-tempo;
#X obj 589 357 expr (abs($f1-$f2)) > 15;
#X obj 559 616 outlet timing-ms;
#X connect 0 0 3 0;
#X connect 0 0 12 0;
#X connect 1 0 2 1;
#X connect 2 0 1 0;
#X connect 2 0 9 0;
#X connect 3 0 6 0;
#X connect 4 0 5 0;
#X connect 5 0 2 1;
#X connect 6 0 2 0;
#X connect 6 1 4 0;
#X connect 8 0 10 0;
#X connect 9 0 8 0;
#X connect 10 0 23 0;
#X connect 12 1 16 0;
#X connect 12 2 17 0;
#X connect 12 3 18 0;
#X connect 16 0 21 0;
#X connect 18 0 19 0;
#X connect 23 0 22 0;
#X connect 23 1 20 0;
#X connect 24 0 29 0;
#X connect 25 0 26 0;
#X connect 25 0 30 1;
#X connect 26 0 27 0;
#X connect 26 0 30 0;
#X connect 27 0 28 0;
#X connect 28 0 31 0;
#X connect 29 1 25 0;
#X connect 30 0 27 1;
#X coords 0 -1 1 1 85 60 1 150 300;
