#N canvas 25 601 706 661 10;
#X obj 240 167 / 127;
#X obj 324 279 ctlout;
#X obj 278 237 * 127;
#X obj 240 148 midi-encoder;
#X obj 240 422 outlet;
#X obj 309 124 r \$0-channel;
#X obj 357 253 r \$0-channel;
#X obj 259 214 sssad \$1-\$2;
#X msg 240 389 \$2 \$1;
#X text 441 23 $f1 ex: track-1-delay;
#X text 441 42 $f2 ex: feedback;
#X obj 137 43 s \$0-channel;
#X obj 285 332 symbol \$2;
#X obj 285 306 loadbang;
#X obj 240 359 pack f s;
#X obj 38 43 s \$0-control;
#X obj 240 104 r \$0-control;
#X obj 340 225 r \$0-control;
#X obj 38 13 inlet control;
#X obj 137 12 inlet channel;
#X obj 234 12 inlet value;
#X obj 234 43 s \$0-value;
#X obj 148 167 r \$0-value;
#X obj 278 263 i;
#X connect 0 0 7 1;
#X connect 0 0 14 0;
#X connect 2 0 23 0;
#X connect 3 0 0 0;
#X connect 5 0 3 1;
#X connect 6 0 1 2;
#X connect 7 0 2 0;
#X connect 7 0 14 0;
#X connect 8 0 4 0;
#X connect 12 0 14 1;
#X connect 13 0 12 0;
#X connect 14 0 8 0;
#X connect 16 0 3 0;
#X connect 17 0 1 1;
#X connect 18 0 15 0;
#X connect 19 0 11 0;
#X connect 20 0 21 0;
#X connect 22 0 14 0;
#X connect 22 0 2 0;
#X connect 22 0 7 1;
#X connect 23 0 1 0;
