#N canvas 748 558 450 300 10;
#X obj 102 62 inlet bang;
#X obj 103 146 ctlout \$1 \$2;
#X msg 182 123 12;
#X obj 182 146 ctlout \$1 \$3;
#X obj 102 83 t b b;
#X msg 103 122 0;
#X connect 0 0 4 0;
#X connect 2 0 3 0;
#X connect 4 0 5 0;
#X connect 4 1 2 0;
#X connect 5 0 1 0;
