#N canvas 757 540 450 300 10;
#X obj 58 12 inlet bang;
#X obj 59 96 ctlout \$1 \$2;
#X msg 59 72 127;
#X msg 138 73 12;
#X obj 138 97 ctlout \$1 \$3;
#X obj 58 33 t b b;
#X connect 0 0 5 0;
#X connect 2 0 1 0;
#X connect 3 0 4 0;
#X connect 5 0 2 0;
#X connect 5 1 3 0;
