#N canvas 611 131 860 744 12;
#X obj 387 471 tgl 19 0 empty empty empty 0 -10 0 12 #fcfcfc #000000 #000000 0 1;
#X obj 386 445 metro 500;
#X obj 385 419 tgl 19 0 empty empty empty 0 -10 0 12 #fcfcfc #000000 #000000 0 1;
#X obj 340 446 sel 0;
#X obj 249 137 / 127;
#X obj 254 538 outlet;
#X obj 249 164 t b f;
#X msg 250 262 \$1 \$2;
#X obj 250 238 pack s f;
#X obj 250 209 symbol \$1;
#X obj -49 328 memory-encoder \$2 1;
#X obj -109 355 nano-led \$3;
#X obj 124 342 ctlin \$4;
#X obj 125 371 nano-led \$4;
#X obj -60 302 midi-toggle \$3 1;
#X obj 104 302 midi-button \$4 1;
#X msg 385 385 1;
#X msg 423 386 0;
#X obj 389 305 midi-toggle \$3 1;
#X obj 389 337 sel 0;
#X obj 439 336 midi-button \$4 1;
#X obj 387 542 nano-led \$3;
#X obj 78 276 r clear-automation;
#X obj 564 335 r clear-automation;
#X obj 500 390 r pause-automation;
#X obj 386 511 spigot;
#X msg 499 450 0;
#X msg 534 449 1;
#X obj 501 420 sel 1 127;
#X obj 585 430 loadbang;
#X floatatom 249 113 5 0 0 0 - - - 0;
#X obj 249 61 midi-encoder \$2 1;
#X obj -130 130 spigot;
#X msg -91 65 1;
#X obj -91 90 tgl 19 0 empty empty empty 0 -10 0 12 #fcfcfc #000000 #000000 0 1;
#X obj -91 41 loadbang;
#X obj -136 14 midi-toggle \$3 1;
#X floatatom -130 159 5 0 0 0 - - - 0;
#X obj -25 46 r clear-automation;
#X obj 112 46 midi-button \$4 1;
#X obj -136 41 sel 1;
#X obj -69 146 r clear-automation;
#X obj -69 171 delay 200;
#X obj 68 146 midi-button \$4 1;
#X obj -97 217 f \$5;
#X connect 0 0 25 0;
#X connect 1 0 0 0;
#X connect 2 0 1 0;
#X connect 2 0 3 0;
#X connect 3 0 0 0;
#X connect 4 0 6 0;
#X connect 6 0 9 0;
#X connect 6 1 8 1;
#X connect 7 0 5 0;
#X connect 8 0 7 0;
#X connect 9 0 8 0;
#X connect 10 0 30 0;
#X connect 12 0 13 0;
#X connect 14 0 10 0;
#X connect 14 0 11 0;
#X connect 15 0 10 1;
#X connect 16 0 2 0;
#X connect 17 0 2 0;
#X connect 17 0 0 0;
#X connect 18 0 19 0;
#X connect 19 0 16 0;
#X connect 20 0 17 0;
#X connect 22 0 10 1;
#X connect 23 0 17 0;
#X connect 24 0 28 0;
#X connect 25 0 21 0;
#X connect 26 0 25 1;
#X connect 26 0 21 0;
#X connect 27 0 25 1;
#X connect 28 0 26 0;
#X connect 28 2 27 0;
#X connect 29 0 27 0;
#X connect 30 0 4 0;
#X connect 31 0 30 0;
#X connect 31 0 32 0;
#X connect 32 0 37 0;
#X connect 33 0 34 0;
#X connect 34 0 32 1;
#X connect 35 0 33 0;
#X connect 36 0 40 0;
#X connect 37 0 44 0;
#X connect 38 0 33 0;
#X connect 39 0 33 0;
#X connect 40 0 34 0;
#X connect 41 0 42 0;
#X connect 42 0 44 0;
#X connect 43 0 42 0;
#X connect 44 0 30 0;
