#N canvas 642 206 870 661 12;
#X obj 164 344 ctlout;
#X obj 138 113 bng 19 250 50 0 empty empty empty 0 -10 0 12 #fcfcfc #000000 #000000;
#X obj 93 113 bng 19 250 50 0 empty empty empty 0 -10 0 12 #fcfcfc #000000 #000000;
#X obj 42 347 ctlout;
#X msg 26 247 127;
#X obj 25 194 t b b b;
#X obj 149 196 t b b b;
#X msg 149 248 0;
#X obj 93 14 inlet;
#X obj 63 249 f \$1;
#X obj 93 77 sel 127 1;
#X msg 107 247 16;
#X connect 1 0 6 0;
#X connect 2 0 5 0;
#X connect 4 0 3 0;
#X connect 5 0 4 0;
#X connect 5 1 9 0;
#X connect 5 2 11 0;
#X connect 6 0 7 0;
#X connect 6 1 9 0;
#X connect 6 2 11 0;
#X connect 7 0 0 0;
#X connect 8 0 10 0;
#X connect 9 0 0 1;
#X connect 9 0 3 1;
#X connect 10 0 2 0;
#X connect 10 1 2 0;
#X connect 10 2 1 0;
#X connect 11 0 3 2;
#X connect 11 0 0 2;
