#N canvas 769 74 860 744 12;
#X obj 387 471 tgl 19 0 empty empty empty 0 -10 0 12 #fcfcfc #000000 #000000 0 1;
#X obj 386 445 metro 500;
#X obj 385 419 tgl 19 0 empty empty empty 0 -10 0 12 #fcfcfc #000000 #000000 0 1;
#X obj 340 446 sel 0;
#X obj 249 137 / 127;
#X obj 254 538 outlet;
#X obj 249 164 t b f;
#X msg 250 262 \$1 \$2;
#X obj 250 238 pack s f;
#X obj 250 209 symbol \$1;
#X obj 247 42 loadbang;
#X obj 248 102 midi-encoder;
#X obj -49 328 memory-encoder \$2 1;
#X obj 247 70 f \$2;
#X obj -109 355 nano-led \$3;
#X obj 124 342 ctlin \$4;
#X obj 125 371 nano-led \$4;
#X obj -60 302 midi-toggle \$3 1;
#X obj 104 302 midi-button \$4 1;
#X msg 385 385 1;
#X msg 423 386 0;
#X obj 389 305 midi-toggle \$3 1;
#X obj 389 337 sel 0;
#X obj 439 336 midi-button \$4 1;
#X obj 387 499 nano-led \$3;
#X connect 0 0 24 0;
#X connect 1 0 0 0;
#X connect 2 0 1 0;
#X connect 2 0 3 0;
#X connect 3 0 0 0;
#X connect 4 0 6 0;
#X connect 6 0 9 0;
#X connect 6 1 8 1;
#X connect 7 0 5 0;
#X connect 8 0 7 0;
#X connect 9 0 8 0;
#X connect 10 0 13 0;
#X connect 11 0 4 0;
#X connect 12 0 4 0;
#X connect 13 0 11 0;
#X connect 15 0 16 0;
#X connect 17 0 12 0;
#X connect 17 0 14 0;
#X connect 18 0 12 1;
#X connect 19 0 2 0;
#X connect 20 0 2 0;
#X connect 20 0 0 0;
#X connect 21 0 22 0;
#X connect 22 0 19 0;
#X connect 23 0 20 0;
