#N canvas 1008 472 1494 842 10;
#X obj 20 466 outlet;
#X obj 20 436 r \$0-control-out;
#X obj 257 511 s \$0-control-out;
#X obj 255 285 s \$0-control-out;
#X obj 255 400 s \$0-control-out;
#X obj 18 17 inlet assignments;
#X obj 18 116 s \$0-fine;
#X obj 80 116 s \$0-coarse;
#X obj 154 116 s \$0-width;
#X obj 222 116 s \$0-toggle;
#X obj 786 21 inlet values;
#X obj 786 51 route fine coarse width toggle;
#X obj 1061 80 s \$0-toggle-val;
#X obj 970 80 s \$0-width-val;
#X obj 871 80 s \$0-coarse-val;
#X obj 786 80 s \$0-fine-val;
#X obj 492 244 r \$0-fine-val;
#X obj 504 359 r \$0-coarse-val;
#X obj 500 470 r \$0-width-val;
#X obj 1097 227 r \$0-toggle-val;
#X obj 255 238 r \$0-fine;
#X obj 255 353 r \$0-coarse;
#X obj 257 464 r \$0-width;
#X obj 864 221 r \$0-toggle;
#X obj 255 261 midi-encoder-state-settings \$1 fine;
#X obj 255 376 midi-encoder-state-settings \$1 coarse;
#X obj 257 487 midi-encoder-state-settings \$1 width;
#X obj 864 244 midi-toggle-state-settings \$1 toggle;
#X obj 296 116 s \$0-encoder-channel;
#X obj 18 47 route fine coarse width toggle encoder-channel toggle-channel
;
#X obj 426 116 s \$0-toggle-channel;
#X obj 358 229 r \$0-encoder-channel;
#X obj 970 200 r \$0-toggle-channel;
#X obj 864 266 route toggle;
#X obj 864 291 tgl 15 0 empty empty empty 17 7 0 10 -262144 -1 -1 0
1;
#X obj 864 318 sel 1;
#X msg 911 375 0;
#X obj 879 348 r \$0-encoder-channel;
#X obj 670 443 s \$0-width-channel;
#X obj 363 449 r \$0-width-channel;
#X obj 864 453 s \$0-coarse-channel;
#X obj 364 338 r \$0-coarse-channel;
#X obj 864 375 f;
#X obj 101 589 print output;
#X obj 994 503 r \$0-width-channel;
#X obj 864 503 r \$0-coarse-channel;
#X obj 864 533 print coarse-channel;
#X obj 994 533 print width-channel;
#X msg 670 366 0;
#X obj 729 387 r \$0-encoder-channel;
#X obj 714 414 f;
#X msg 714 366 bang;
#X connect 1 0 0 0;
#X connect 1 0 43 0;
#X connect 5 0 29 0;
#X connect 10 0 11 0;
#X connect 11 0 15 0;
#X connect 11 1 14 0;
#X connect 11 2 13 0;
#X connect 11 3 12 0;
#X connect 16 0 24 2;
#X connect 17 0 25 2;
#X connect 18 0 26 2;
#X connect 19 0 27 2;
#X connect 20 0 24 0;
#X connect 21 0 25 0;
#X connect 22 0 26 0;
#X connect 23 0 27 0;
#X connect 24 0 3 0;
#X connect 25 0 4 0;
#X connect 26 0 2 0;
#X connect 27 0 33 0;
#X connect 29 0 6 0;
#X connect 29 1 7 0;
#X connect 29 2 8 0;
#X connect 29 3 9 0;
#X connect 29 4 28 0;
#X connect 29 5 30 0;
#X connect 31 0 24 1;
#X connect 32 0 27 1;
#X connect 33 0 34 0;
#X connect 34 0 35 0;
#X connect 35 0 42 0;
#X connect 35 0 48 0;
#X connect 35 1 36 0;
#X connect 35 1 51 0;
#X connect 36 0 40 0;
#X connect 37 0 42 1;
#X connect 39 0 26 1;
#X connect 41 0 25 1;
#X connect 42 0 40 0;
#X connect 44 0 47 0;
#X connect 45 0 46 0;
#X connect 48 0 38 0;
#X connect 49 0 50 1;
#X connect 50 0 38 0;
#X connect 51 0 50 0;
