#N canvas 988 107 919 603 10;
#X obj 279 229 pitch-shifter;
#X obj 354 72 hsl 100 15 0 1 0 0 empty empty empty -2 -8 0 10 -262144
-1 -1 0 1;
#X obj 531 90 hsl 100 15 0 1 0 0 empty empty empty -2 -8 0 10 -262144
-1 -1 0 1;
#X obj 631 215 - 20;
#X obj 311 116 f;
#X obj 342 145 +;
#X obj 351 96 t b f;
#X obj 696 83 hsl 100 15 0 1 0 0 empty empty empty -2 -8 0 10 -262144
-1 -1 0 1;
#X obj 693 102 * 1000;
#X obj 528 109 * 20;
#X obj 599 145 f;
#X obj 630 174 +;
#X obj 639 125 t b f;
#X floatatom 342 172 5 0 0 0 - - -, f 5;
#X obj 0 212 inlet~;
#X obj 279 275 outlet~;
#X obj 109 148 hsl 100 15 0 1 0 0 \$0-fine \$0-in-fine empty -2 -8
0 10 -262144 -1 -1 0 1;
#X text 109 147 fine;
#X obj 109 171 hsl 100 15 0 1 0 0 \$0-coarse \$0-in-coarse empty -2
-8 0 10 -262144 -1 -1 0 1;
#X text 108 170 coarse;
#X obj 109 193 hsl 100 15 0 1 0 0 \$0-width \$0-in-width empty -2 -8
0 10 -262144 -1 -1 0 1;
#X floatatom 154 126 9 0 0 0 - #0-pitch -, f 9;
#X obj 351 44 r \$0-fine;
#X text 108 192 width;
#X obj 693 58 r \$0-width;
#X obj 527 58 r \$0-coarse;
#X obj 379 230 s \$0-pitch;
#X obj 59 -51 inlet;
#X obj 59 59 s \$0-in-fine;
#X obj 149 17 s \$0-in-width;
#X obj 104 38 s \$0-in-coarse;
#X obj 59 -26 route fine coarse width;
#X connect 0 0 15 0;
#X connect 1 0 6 0;
#X connect 2 0 9 0;
#X connect 3 0 4 0;
#X connect 4 0 5 0;
#X connect 5 0 13 0;
#X connect 6 0 4 0;
#X connect 6 1 5 1;
#X connect 7 0 8 0;
#X connect 8 0 10 0;
#X connect 9 0 12 0;
#X connect 10 0 11 0;
#X connect 11 0 3 0;
#X connect 12 0 10 0;
#X connect 12 1 11 1;
#X connect 13 0 0 1;
#X connect 13 0 26 0;
#X connect 14 0 0 0;
#X connect 22 0 1 0;
#X connect 24 0 7 0;
#X connect 25 0 2 0;
#X connect 27 0 31 0;
#X connect 31 0 28 0;
#X connect 31 1 30 0;
#X connect 31 2 29 0;
#X coords 0 -1 1 1 120 120 1 100 100;
