#N canvas 380 205 450 300 10;
#X obj 74 95 1;
#X obj 45 94 127;
#X obj 16 42 sel 1;
#X obj 16 67 t b b;
#X obj 55 68 t b b;
#X obj 16 17 inlet;
#X obj 17 94 \$1;
#X obj 82 145 \$2;
#X obj 17 160 noteout;
#X obj 82 126 loadbang;
#X obj 315 15 inlet;
#X connect 0 0 8 1;
#X connect 1 0 8 1;
#X connect 2 0 3 0;
#X connect 2 1 4 0;
#X connect 3 0 6 0;
#X connect 3 1 1 0;
#X connect 4 0 6 0;
#X connect 4 1 0 0;
#X connect 5 0 2 0;
#X connect 6 0 8 0;
#X connect 7 0 8 2;
#X connect 9 0 7 0;
#X connect 10 0 0 1;
