#N canvas 1489 297 714 542 10;
#X obj 253 348 freeverb~;
#X msg 253 260 wet \$1;
#X msg 253 281 dry \$1;
#X msg 254 303 roomsize \$1;
#X msg 253 325 damping \$1;
#X obj 110 128 hsl 100 15 0 1 0 0 \$0-wet \$0-in-wet empty -2 -8 0
10 -262144 -1 -1 0 1;
#X obj 110 149 hsl 100 15 0 1 0 0 empty empty empty -2 -8 0 10 -262144
-1 -1 9900 1;
#X obj 110 170 hsl 100 15 0 1 0 0 \$0-size \$0-in-size empty -2 -8
0 10 -262144 -1 -1 0 1;
#X obj 110 190 hsl 100 15 0 1 0 0 empty empty empty -2 -8 0 10 -262144
-1 -1 0 1;
#X obj 197 108 tgl 15 0 empty empty empty 17 7 0 10 -262144 -1 -1 0
1;
#X text 108 126 wet;
#X text 109 147 dry;
#X text 111 169 size;
#X text 111 188 damping;
#X obj 345 302 == 0;
#X obj 15 12 inlet~;
#X obj 253 448 outlet~;
#X msg 345 325 bypass \$1;
#X obj 425 111 loadbang;
#X msg 425 131 1;
#X obj 15 36 s~ \$0-audio;
#X obj 112 302 r~ \$0-audio;
#X obj 286 7 inlet;
#X obj 286 72 s \$0-in-wet;
#X obj 286 32 route wet size;
#X obj 326 53 s \$0-in-size;
#X connect 0 0 16 0;
#X connect 1 0 0 0;
#X connect 2 0 0 0;
#X connect 3 0 0 0;
#X connect 4 0 0 0;
#X connect 5 0 1 0;
#X connect 6 0 2 0;
#X connect 7 0 3 0;
#X connect 8 0 4 0;
#X connect 9 0 14 0;
#X connect 14 0 17 0;
#X connect 15 0 20 0;
#X connect 17 0 0 0;
#X connect 18 0 19 0;
#X connect 18 0 9 0;
#X connect 19 0 17 0;
#X connect 19 0 6 0;
#X connect 21 0 0 0;
#X connect 22 0 24 0;
#X connect 24 0 23 0;
#X connect 24 1 25 0;
#X coords 0 -1 1 1 120 110 1 100 100;
