#N canvas 1178 327 870 634 10;
#X obj 166 80 s \$0-channel;
#X obj 48 80 s \$0-wet;
#X obj 48 57 route wet size channel;
#X obj 104 80 s \$0-size;
#X obj 47 204 outlet;
#X obj 47 174 r \$0-control-out;
#X obj 293 181 s \$0-control-out;
#X obj 295 293 s \$0-control-out;
#X obj 393 126 r \$0-channel;
#X obj 398 238 r \$0-channel;
#X obj 293 134 r \$0-wet;
#X obj 293 157 midi-encoder-state-settings \$1 wet;
#X obj 295 246 r \$0-size;
#X obj 295 269 midi-encoder-state-settings \$1 size;
#X obj 48 27 inlet assignments;
#X obj 614 23 inlet values;
#X obj 614 53 route wet size;
#X obj 695 76 s \$0-size-val;
#X obj 614 76 s \$0-wet-val;
#X obj 493 126 r \$0-wet-val;
#X obj 501 236 r \$0-size-val;
#X connect 2 0 1 0;
#X connect 2 1 3 0;
#X connect 2 2 0 0;
#X connect 5 0 4 0;
#X connect 8 0 11 1;
#X connect 9 0 13 1;
#X connect 10 0 11 0;
#X connect 11 0 6 0;
#X connect 12 0 13 0;
#X connect 13 0 7 0;
#X connect 14 0 2 0;
#X connect 15 0 16 0;
#X connect 16 0 18 0;
#X connect 16 1 17 0;
#X connect 19 0 11 2;
#X connect 20 0 13 2;
