#N canvas 1208 167 560 421 10;
#X obj 253 348 freeverb~;
#X msg 253 260 wet \$1;
#X msg 253 281 dry \$1;
#X msg 254 303 roomsize \$1;
#X msg 253 325 damping \$1;
#X obj 110 128 hsl 100 15 0 1 0 0 empty empty empty -2 -8 0 10 -262144
-1 -1 0 1;
#X obj 110 149 hsl 100 15 0 1 0 0 empty empty empty -2 -8 0 10 -262144
-1 -1 9900 1;
#X obj 110 170 hsl 100 15 0 1 0 0 empty empty empty -2 -8 0 10 -262144
-1 -1 0 1;
#X obj 110 190 hsl 100 15 0 1 0 0 empty empty empty -2 -8 0 10 -262144
-1 -1 0 1;
#X obj 197 108 tgl 15 0 empty empty empty 17 7 0 10 -262144 -1 -1 0
1;
#X text 108 126 wet;
#X text 109 147 dry;
#X text 111 169 size;
#X text 111 188 damping;
#X obj 345 302 == 0;
#X obj 180 312 inlet~;
#X obj 180 382 outlet~;
#X msg 345 325 bypass \$1;
#X obj 425 111 loadbang;
#X msg 425 131 1;
#X obj 193 20 inlet midi-on;
#X obj 194 45 == 127;
#X obj 289 20 inlet midi-wet;
#X obj 290 43 / 127;
#X obj 386 43 / 127;
#X obj 385 20 inlet midi-size;
#X connect 0 0 16 0;
#X connect 1 0 0 0;
#X connect 2 0 0 0;
#X connect 3 0 0 0;
#X connect 4 0 0 0;
#X connect 5 0 1 0;
#X connect 6 0 2 0;
#X connect 7 0 3 0;
#X connect 8 0 4 0;
#X connect 9 0 14 0;
#X connect 14 0 17 0;
#X connect 15 0 0 0;
#X connect 17 0 0 0;
#X connect 18 0 19 0;
#X connect 19 0 17 0;
#X connect 19 0 6 0;
#X connect 20 0 21 0;
#X connect 21 0 9 0;
#X connect 22 0 23 0;
#X connect 23 0 5 0;
#X connect 24 0 7 0;
#X connect 25 0 24 0;
#X coords 0 -1 1 1 120 110 1 100 100;
