#N canvas 760 240 788 661 10;
#X obj 211 199 soundfiler;
#X obj 211 254 t f f;
#X obj 238 275 / 44.1;
#X obj 238 295 s duration;
#X obj 211 316 s size;
#X obj 147 127 bng 15 250 50 0 empty empty empty 17 7 0 10 -262144
-1 -1;
#X obj 522 181 r duration;
#X obj 541 144 t b b;
#X obj 492 198 pack;
#X msg 598 171 0;
#X obj 599 216 line~;
#X obj 599 242 *~;
#X obj 643 225 - 3;
#X obj 599 264 +~ 1;
#X obj 599 308 dac~;
#X msg 492 176 1;
#X obj 643 203 r size;
#X obj 599 286 tabread4~ \$0-sample;
#X obj 443 67 table \$0-sample;
#X obj 262 107 f \$0;
#X text 280 275 comment;
#X obj 210 93 bng 15 250 50 0 empty empty empty 17 7 0 10 -262144 -1
-1;
#X obj 211 157 pack s \$1;
#X symbolatom 105 126 5 0 0 0 - - -;
#X obj 210 115 symbol;
#X msg 211 179 read -resize ~/pd/samples/\$1.wav \$2-sample;
#X obj 57 60 == 127;
#X obj 57 39 inlet midi;
#X obj 128 39 inlet sample;
#X msg 129 64 symbol \$1;
#X connect 0 0 1 0;
#X connect 1 0 4 0;
#X connect 1 1 2 0;
#X connect 2 0 3 0;
#X connect 5 0 7 0;
#X connect 6 0 8 1;
#X connect 7 0 15 0;
#X connect 7 1 9 0;
#X connect 8 0 10 0;
#X connect 9 0 10 0;
#X connect 10 0 11 0;
#X connect 11 0 13 0;
#X connect 12 0 11 1;
#X connect 13 0 17 0;
#X connect 15 0 8 0;
#X connect 16 0 12 0;
#X connect 17 0 14 0;
#X connect 17 0 14 1;
#X connect 19 0 22 1;
#X connect 21 0 19 0;
#X connect 21 0 24 0;
#X connect 22 0 25 0;
#X connect 23 0 24 1;
#X connect 23 0 21 0;
#X connect 24 0 22 0;
#X connect 25 0 0 0;
#X connect 26 0 5 0;
#X connect 27 0 26 0;
#X connect 28 0 29 0;
#X connect 29 0 23 0;
#X coords 0 -1 1 1 70 50 1 100 100;
