#N canvas 261 223 1179 609 10;
#X obj 405 28 sample-player~;
#X obj 796 132 *~ 1;
#X obj 861 78 *~ 1;
#X obj 865 148 outlet~;
#X obj 22 -142 loadbang;
#X obj 22 -118 f \$1;
#X obj 405 -48 + 0;
#X obj 495 -48 + 1;
#X obj 585 -47 + 2;
#X obj 405 247 + 4;
#X obj 495 247 + 5;
#X obj 585 248 + 6;
#X obj 457 -92 + 0;
#X obj 22 -95 s \$0-midi-base;
#X obj 405 -69 r \$0-midi-base;
#X obj 495 -68 r \$0-midi-base;
#X obj 585 -67 r \$0-midi-base;
#X obj 405 227 r \$0-midi-base;
#X obj 495 227 r \$0-midi-base;
#X obj 585 228 r \$0-midi-base;
#X obj 422 -108 r \$0-base;
#X obj 534 -111 r \$0-base;
#X obj 604 -109 r \$0-base;
#X obj 569 -95 + 1;
#X obj 639 -93 + 2;
#X obj 451 188 r \$0-base;
#X obj 541 188 r \$0-base;
#X obj 631 188 r \$0-base;
#X obj 225 132 s \$0-sample-number;
#X obj 229 78 s \$0-sample-number;
#X obj 196 404 r \$0-sample-number;
#X obj 196 427 outlet;
#X obj 686 -67 r \$0-midi-base;
#X obj 694 -109 r \$0-base;
#X obj 686 -47 + 3;
#X obj 729 -93 + 3;
#X obj 486 204 + 4;
#X obj 576 204 + 5;
#X obj 666 204 + 6;
#X obj 675 228 r \$0-midi-base;
#X obj 721 188 r \$0-base;
#X obj 675 248 + 7;
#X obj 756 204 + 7;
#X obj 992 -128 inlet midi-channel;
#X obj 405 -8 midi-pad;
#X obj 495 -28 midi-pad;
#X obj 585 -27 midi-pad;
#X obj 686 -27 midi-pad;
#X obj 699 268 midi-pad;
#X obj 600 268 midi-pad;
#X obj 503 267 midi-pad;
#X obj 405 267 midi-pad;
#X obj 23 -57 loadbang;
#X obj 22 -14 s \$0-base;
#X msg 23 -36 1;
#X floatatom 392 -27 5 0 0 0 - - -, f 5;
#X floatatom 442 -27 5 0 0 0 - - -, f 5;
#X obj 405 82 sample-player~;
#X obj 495 28 sample-player~;
#X obj 585 28 sample-player~;
#X obj 495 82 sample-player~;
#X obj 585 82 sample-player~;
#X obj 675 28 sample-player~;
#X obj 675 82 sample-player~;
#X connect 0 0 29 0;
#X connect 0 1 2 0;
#X connect 1 0 3 0;
#X connect 2 0 3 0;
#X connect 4 0 5 0;
#X connect 5 0 13 0;
#X connect 6 0 55 0;
#X connect 7 0 45 0;
#X connect 8 0 46 0;
#X connect 9 0 51 0;
#X connect 10 0 50 0;
#X connect 11 0 49 0;
#X connect 12 0 0 1;
#X connect 14 0 6 0;
#X connect 15 0 7 0;
#X connect 16 0 8 0;
#X connect 17 0 9 0;
#X connect 18 0 10 0;
#X connect 19 0 11 0;
#X connect 20 0 12 0;
#X connect 21 0 23 0;
#X connect 22 0 24 0;
#X connect 23 0 58 1;
#X connect 24 0 59 1;
#X connect 25 0 36 0;
#X connect 26 0 37 0;
#X connect 27 0 38 0;
#X connect 30 0 31 0;
#X connect 32 0 34 0;
#X connect 33 0 35 0;
#X connect 34 0 47 0;
#X connect 35 0 62 1;
#X connect 36 0 57 1;
#X connect 37 0 60 1;
#X connect 38 0 61 1;
#X connect 39 0 41 0;
#X connect 40 0 42 0;
#X connect 41 0 48 0;
#X connect 42 0 63 1;
#X connect 43 0 45 1;
#X connect 43 0 46 1;
#X connect 43 0 47 1;
#X connect 43 0 48 1;
#X connect 43 0 49 1;
#X connect 43 0 50 1;
#X connect 43 0 51 1;
#X connect 43 0 56 0;
#X connect 44 0 0 0;
#X connect 45 0 58 0;
#X connect 46 0 59 0;
#X connect 47 0 62 0;
#X connect 48 0 63 0;
#X connect 49 0 61 0;
#X connect 50 0 60 0;
#X connect 51 0 57 0;
#X connect 52 0 54 0;
#X connect 54 0 53 0;
#X connect 55 0 44 0;
#X connect 56 0 44 1;
#X connect 57 0 28 0;
#X connect 57 1 1 0;
#X connect 58 0 29 0;
#X connect 58 1 2 0;
#X connect 59 0 29 0;
#X connect 59 1 2 0;
#X connect 60 0 28 0;
#X connect 60 1 1 0;
#X connect 61 0 28 0;
#X connect 61 1 1 0;
#X connect 62 1 2 0;
#X connect 63 1 1 0;
#X coords 0 -1 1 1 370 140 1 400 0;
