#N canvas 1144 316 1179 609 10;
#X obj 405 87 sample-player~;
#X obj 405 34 sample-player~;
#X obj 495 34 sample-player~;
#X obj 585 34 sample-player~;
#X obj 675 34 sample-player~;
#X obj 495 87 sample-player~;
#X obj 585 87 sample-player~;
#X obj 675 87 sample-player~;
#X obj 792 285 *~ 1;
#X obj 861 84 *~ 1;
#X obj 861 302 outlet~;
#X obj 22 -142 loadbang;
#X obj 22 -118 f \$1;
#X obj 405 -6 + 0;
#X obj 495 -6 + 1;
#X obj 585 -5 + 2;
#X obj 676 -5 + 3;
#X obj 405 165 + 4;
#X obj 495 165 + 5;
#X obj 676 166 + 7;
#X obj 585 166 + 6;
#X obj 405 14 midi-button 0 2;
#X obj 495 14 midi-button 0 2;
#X obj 585 15 midi-button 0 2;
#X obj 676 15 midi-button 0 2;
#X obj 405 185 midi-button 0 2;
#X obj 495 185 midi-button 0 2;
#X obj 585 186 midi-button 0 2;
#X obj 676 186 midi-button 0 2;
#X obj 486 -52 l2s;
#X obj 486 -71 + 0;
#X obj 22 -95 s \$0-midi-base;
#X obj 405 -27 r \$0-midi-base;
#X obj 495 -26 r \$0-midi-base;
#X obj 585 -25 r \$0-midi-base;
#X obj 676 -25 r \$0-midi-base;
#X obj 405 145 r \$0-midi-base;
#X obj 495 145 r \$0-midi-base;
#X obj 585 146 r \$0-midi-base;
#X obj 676 146 r \$0-midi-base;
#X obj 451 -87 r \$0-base;
#X obj 576 -52 l2s;
#X obj 541 -87 r \$0-base;
#X obj 666 -52 l2s;
#X obj 631 -87 r \$0-base;
#X obj 756 -52 l2s;
#X obj 721 -87 r \$0-base;
#X obj 576 -71 + 1;
#X obj 666 -71 + 2;
#X obj 756 -71 + 3;
#X obj 486 248 l2s;
#X obj 451 213 r \$0-base;
#X obj 576 248 l2s;
#X obj 541 213 r \$0-base;
#X obj 666 248 l2s;
#X obj 631 213 r \$0-base;
#X obj 756 248 l2s;
#X obj 721 213 r \$0-base;
#X obj 486 229 + 4;
#X obj 576 229 + 5;
#X obj 666 229 + 6;
#X obj 756 229 + 7;
#N canvas 171 786 465 357 navigation 0;
#X obj 150 277 s \$0-base;
#X msg 108 95 1;
#X msg 187 92 -1;
#X floatatom 215 189 5 0 0 0 - - -, f 5;
#X obj 301 176 bng 15 250 50 0 empty empty empty 17 7 0 10 -262144
-1 -1;
#X obj 154 135 +;
#X obj 150 238 * 8;
#X obj 150 258 + 1;
#X obj 215 218 moses 0;
#X obj 219 141 int;
#X obj 73 51 midi-button 26 4;
#X obj 183 50 midi-button 27 4;
#X msg 219 116 0;
#X obj 282 140 loadbang;
#X obj 55 203 sssad sample-bank;
#X obj 308 79 r RELOAD_SAMPLES;
#X msg 308 99 bang;
#X connect 1 0 5 0;
#X connect 2 0 5 0;
#X connect 3 0 8 0;
#X connect 3 0 6 0;
#X connect 3 0 14 1;
#X connect 4 0 12 0;
#X connect 5 0 9 0;
#X connect 6 0 7 0;
#X connect 7 0 0 0;
#X connect 8 0 4 0;
#X connect 9 0 3 0;
#X connect 9 0 5 1;
#X connect 10 0 1 0;
#X connect 11 0 2 0;
#X connect 12 0 9 0;
#X connect 13 0 3 0;
#X connect 14 0 9 0;
#X connect 15 0 16 0;
#X connect 16 0 9 0;
#X restore 23 -42 pd navigation;
#X connect 0 0 8 0;
#X connect 1 0 9 0;
#X connect 2 0 9 0;
#X connect 3 0 9 0;
#X connect 4 0 9 0;
#X connect 5 0 8 0;
#X connect 6 0 8 0;
#X connect 7 0 8 0;
#X connect 8 0 10 0;
#X connect 9 0 10 0;
#X connect 11 0 12 0;
#X connect 12 0 31 0;
#X connect 13 0 21 0;
#X connect 14 0 22 0;
#X connect 15 0 23 0;
#X connect 16 0 24 0;
#X connect 17 0 25 0;
#X connect 18 0 26 0;
#X connect 19 0 28 0;
#X connect 20 0 27 0;
#X connect 21 0 1 0;
#X connect 22 0 2 0;
#X connect 23 0 3 0;
#X connect 24 0 4 0;
#X connect 25 0 0 0;
#X connect 26 0 5 0;
#X connect 27 0 6 0;
#X connect 28 0 7 0;
#X connect 29 0 1 1;
#X connect 30 0 29 0;
#X connect 32 0 13 0;
#X connect 33 0 14 0;
#X connect 34 0 15 0;
#X connect 35 0 16 0;
#X connect 36 0 17 0;
#X connect 37 0 18 0;
#X connect 38 0 20 0;
#X connect 39 0 19 0;
#X connect 40 0 30 0;
#X connect 41 0 2 1;
#X connect 42 0 47 0;
#X connect 43 0 3 1;
#X connect 44 0 48 0;
#X connect 45 0 4 1;
#X connect 46 0 49 0;
#X connect 47 0 41 0;
#X connect 48 0 43 0;
#X connect 49 0 45 0;
#X connect 50 0 0 1;
#X connect 51 0 58 0;
#X connect 52 0 5 1;
#X connect 53 0 59 0;
#X connect 54 0 6 1;
#X connect 55 0 60 0;
#X connect 56 0 7 1;
#X connect 57 0 61 0;
#X connect 58 0 50 0;
#X connect 59 0 52 0;
#X connect 60 0 54 0;
#X connect 61 0 56 0;
#X coords 0 -1 1 1 370 140 1 400 0;
