#N canvas 974 314 1179 609 10;
#X obj 405 87 sample-player~;
#X obj 337 58 loadbang;
#X obj 405 34 sample-player~;
#X obj 495 34 sample-player~;
#X obj 585 34 sample-player~;
#X obj 675 34 sample-player~;
#X obj 495 87 sample-player~;
#X obj 585 87 sample-player~;
#X obj 675 87 sample-player~;
#X obj 792 285 *~ 1;
#X obj 861 84 *~ 1;
#X obj 266 200 hsl 128 15 0 127 0 0 empty empty empty -2 -8 0 10 -262144
-1 -1 0 1;
#X msg 263 280 A_05 A_06 A_07 A_08;
#X msg 263 299 B_05 B_06 B_07 B_08;
#X obj 263 239 sel 0 32 64 96 127;
#X obj 263 245 bng 15 250 50 0 empty empty empty 17 7 0 10 -262144
-1 -1;
#X obj 281 263 bng 15 250 50 0 empty empty empty 17 7 0 10 -262144
-1 -1;
#X obj 263 218 unpack s s s s;
#X obj 300 261 bng 15 250 50 0 empty empty empty 17 7 0 10 -262144
-1 -1;
#X obj 319 261 bng 15 250 50 0 empty empty empty 17 7 0 10 -262144
-1 -1;
#X msg 263 318 C_05 C_06 C_07 C_08;
#X msg 263 337 D_05 D_06 D_07 D_08;
#X obj 266 -1 hsl 128 15 0 127 0 0 empty empty empty -2 -8 0 10 -262144
-1 -1 0 1;
#X obj 263 38 sel 0 32 64 96 127;
#X obj 263 43 bng 15 250 50 0 empty empty empty 17 7 0 10 -262144 -1
-1;
#X obj 281 61 bng 15 250 50 0 empty empty empty 17 7 0 10 -262144 -1
-1;
#X obj 263 17 unpack s s s s;
#X obj 300 59 bng 15 250 50 0 empty empty empty 17 7 0 10 -262144 -1
-1;
#X obj 319 59 bng 15 250 50 0 empty empty empty 17 7 0 10 -262144 -1
-1;
#X obj 338 260 loadbang;
#X msg 263 78 A_01 A_02 A_03 A_04;
#X msg 263 97 B_01 B_02 B_03 B_04;
#X msg 263 116 C_01 C_02 C_03 C_04;
#X msg 263 135 D_01 D_02 D_03 D_04;
#X obj 861 302 outlet~;
#X obj 22 -95 s \$0-base;
#X obj 22 -142 loadbang;
#X obj 22 -118 f \$1;
#X obj 405 14 midi-toggle;
#X obj 405 -26 r \$0-base;
#X obj 495 14 midi-toggle;
#X obj 495 -26 r \$0-base;
#X obj 585 15 midi-toggle;
#X obj 585 -25 r \$0-base;
#X obj 676 15 midi-toggle;
#X obj 676 -25 r \$0-base;
#X obj 149 -18 inlet bank-select;
#X obj 405 -6 + 0;
#X obj 495 -6 + 1;
#X obj 585 -5 + 2;
#X obj 676 -5 + 3;
#X obj 405 185 midi-toggle;
#X obj 405 145 r \$0-base;
#X obj 495 185 midi-toggle;
#X obj 495 145 r \$0-base;
#X obj 585 186 midi-toggle;
#X obj 585 146 r \$0-base;
#X obj 676 186 midi-toggle;
#X obj 676 146 r \$0-base;
#X obj 405 165 + 4;
#X obj 495 165 + 5;
#X obj 676 166 + 7;
#X obj 585 166 + 6;
#X connect 0 0 9 0;
#X connect 1 0 24 0;
#X connect 2 0 10 0;
#X connect 3 0 10 0;
#X connect 4 0 10 0;
#X connect 5 0 10 0;
#X connect 6 0 9 0;
#X connect 7 0 9 0;
#X connect 8 0 9 0;
#X connect 9 0 34 0;
#X connect 10 0 34 0;
#X connect 11 0 14 0;
#X connect 12 0 17 0;
#X connect 13 0 17 0;
#X connect 14 0 15 0;
#X connect 14 1 16 0;
#X connect 14 2 18 0;
#X connect 14 3 19 0;
#X connect 15 0 12 0;
#X connect 16 0 13 0;
#X connect 17 0 0 1;
#X connect 17 1 6 1;
#X connect 17 2 7 1;
#X connect 17 3 8 1;
#X connect 18 0 20 0;
#X connect 19 0 21 0;
#X connect 20 0 17 0;
#X connect 21 0 17 0;
#X connect 22 0 23 0;
#X connect 23 0 24 0;
#X connect 23 1 25 0;
#X connect 23 2 27 0;
#X connect 23 3 28 0;
#X connect 24 0 30 0;
#X connect 25 0 31 0;
#X connect 26 0 2 1;
#X connect 26 1 3 1;
#X connect 26 2 4 1;
#X connect 26 3 5 1;
#X connect 27 0 32 0;
#X connect 28 0 33 0;
#X connect 29 0 15 0;
#X connect 30 0 26 0;
#X connect 31 0 26 0;
#X connect 32 0 26 0;
#X connect 33 0 26 0;
#X connect 36 0 37 0;
#X connect 37 0 35 0;
#X connect 38 0 2 0;
#X connect 39 0 47 0;
#X connect 40 0 3 0;
#X connect 41 0 48 0;
#X connect 42 0 4 0;
#X connect 43 0 49 0;
#X connect 44 0 5 0;
#X connect 45 0 50 0;
#X connect 46 0 22 0;
#X connect 46 0 11 0;
#X connect 47 0 38 0;
#X connect 48 0 40 0;
#X connect 49 0 42 0;
#X connect 50 0 44 0;
#X connect 51 0 0 0;
#X connect 52 0 59 0;
#X connect 53 0 6 0;
#X connect 54 0 60 0;
#X connect 55 0 7 0;
#X connect 56 0 62 0;
#X connect 57 0 8 0;
#X connect 58 0 61 0;
#X connect 59 0 51 0;
#X connect 60 0 53 0;
#X connect 61 0 57 0;
#X connect 62 0 55 0;
#X coords 0 -1 1 1 370 140 1 400 0;
