#N canvas 0 23 1440 855 10;
#X obj 268 24 inlet~;
#X obj 268 45 s~ \$0-input-right;
#X obj 187 24 inlet;
#X obj 187 45 s \$0-in-rec;
#X obj 75 24 inlet~;
#X obj 75 45 s~ \$0-input-left;
#X obj 107 133 tgl 15 0 \$0-rec \$0-in-rec rec 17 7 0 10 -262144 -1
-1 0 1;
#X obj 307 115 r \$0-rec;
#X floatatom 102 559 5 0 0 0 - - -, f 5;
#X obj 102 477 bng 15 250 50 0 empty empty empty 17 7 0 10 -262144
-1 -1;
#X obj 138 513 + 1;
#X obj 159 633 file-exists;
#X obj 24 477 loadbang;
#X obj 159 656 sel 0;
#X msg 24 497 1;
#X obj 242 268 r \$0-rec-end;
#X obj 358 184 s \$0-rec-end;
#X obj 307 208 s \$0-rec-start;
#X obj 307 143 sel 1 127;
#X obj 332 310 r \$0-initial-filename;
#X obj 17 609 s \$0-initial-filename;
#X obj 279 365 + 1;
#X floatatom 243 388 5 0 0 0 - - -, f 5;
#X obj 243 407 s \$0-filename;
#X obj 242 312 t b b;
#X obj 242 290 delay 100;
#X msg 159 609 ../memory/samples/\$1.wav.txt;
#X obj 771 241 line~;
#X obj 590 310 *~ 1;
#X msg 654 363 stop;
#X obj 609 165 r~ \$0-input-right;
#X obj 590 404 tabwrite~ \$0-sample;
#X obj 654 340 r \$0-rec-end;
#X obj 771 177 r \$0-rec-start;
#X obj 650 287 r \$0-rec-start;
#X obj 650 307 bng 15 250 50 0 empty empty empty 17 7 0 10 -262144
-1 -1;
#X obj 588 134 r~ \$0-input-left;
#X obj 771 217 pack 0 6;
#X obj 942 419 tabplay~ \$0-sample;
#X obj 942 439 dac~;
#X obj 589 257 *~;
#X obj 1074 706 s \$0-sample;
#X msg 771 197 1;
#X obj 870 177 r \$0-rec-end;
#X msg 870 198 0;
#X obj 1285 122 timer;
#X msg 1285 233 resize \$1;
#X obj 1321 163 samplerate~;
#X obj 1321 181 / 1000;
#X obj 1321 144 loadbang;
#X obj 1285 196 *;
#X obj 1234 66 r \$0-rec-start;
#X obj 1333 66 r \$0-rec-end;
#X obj 1285 262 s \$0-sample;
#X obj 358 164 t b;
#X msg 1074 685 resize 1.92e+06 \, const 0;
#X obj 941 344 table \$0-sample 1.92e+06;
#X obj 1242 561 f \$0;
#X obj 1242 519 bng 15 250 50 0 empty empty empty 17 7 0 10 -262144
-1 -1;
#X obj 1242 737 soundfiler;
#X obj 1287 541 r \$0-filename;
#X obj 1307 686 textfile;
#X msg 1334 641 set 1;
#X obj 1242 474 r \$0-rec-end;
#X obj 1242 495 delay 100;
#X msg 1307 663 write ../memory/samples/\$1.wav.txt;
#X obj 1129 659 s RELOAD_SAMPLES;
#X obj 1101 634 t b b;
#X msg 942 399 bang;
#X msg 1242 716 write -wave ../samples/\$2.wav \$1-sample;
#X obj 1242 694 pack f f;
#X obj 1306 580 f;
#X obj 1307 607 t f b;
#X obj 243 364 f;
#X obj 102 512 f;
#X obj 1100 612 delay 100;
#X obj 187 678 delay 100;
#X connect 0 0 1 0;
#X connect 2 0 3 0;
#X connect 4 0 5 0;
#X connect 7 0 18 0;
#X connect 8 0 26 0;
#X connect 8 0 20 0;
#X connect 9 0 74 0;
#X connect 10 0 74 1;
#X connect 11 0 13 0;
#X connect 12 0 14 0;
#X connect 13 1 76 0;
#X connect 14 0 74 0;
#X connect 15 0 25 0;
#X connect 18 0 17 0;
#X connect 18 1 17 0;
#X connect 18 2 54 0;
#X connect 19 0 73 0;
#X connect 21 0 73 1;
#X connect 22 0 23 0;
#X connect 24 0 73 0;
#X connect 24 1 21 0;
#X connect 25 0 24 0;
#X connect 26 0 11 0;
#X connect 27 0 40 1;
#X connect 28 0 31 0;
#X connect 29 0 31 0;
#X connect 30 0 40 0;
#X connect 32 0 29 0;
#X connect 33 0 42 0;
#X connect 34 0 35 0;
#X connect 35 0 31 0;
#X connect 36 0 40 0;
#X connect 37 0 27 0;
#X connect 38 0 39 0;
#X connect 40 0 28 0;
#X connect 42 0 37 0;
#X connect 43 0 44 0;
#X connect 44 0 37 0;
#X connect 45 0 50 0;
#X connect 46 0 53 0;
#X connect 47 0 48 0;
#X connect 48 0 50 1;
#X connect 49 0 47 0;
#X connect 50 0 46 0;
#X connect 51 0 45 0;
#X connect 52 0 45 1;
#X connect 54 0 16 0;
#X connect 55 0 41 0;
#X connect 57 0 70 0;
#X connect 58 0 57 0;
#X connect 58 0 71 0;
#X connect 58 0 75 0;
#X connect 60 0 70 1;
#X connect 60 0 71 1;
#X connect 62 0 61 0;
#X connect 63 0 64 0;
#X connect 64 0 58 0;
#X connect 65 0 61 0;
#X connect 67 0 55 0;
#X connect 67 1 66 0;
#X connect 68 0 38 0;
#X connect 69 0 59 0;
#X connect 70 0 69 0;
#X connect 71 0 72 0;
#X connect 72 0 65 0;
#X connect 72 1 62 0;
#X connect 73 0 21 0;
#X connect 73 0 22 0;
#X connect 74 0 8 0;
#X connect 74 0 10 0;
#X connect 75 0 67 0;
#X connect 76 0 9 0;
#X coords 0 -1 1 1 110 60 1 100 100;
