#N canvas 760 240 788 661 10;
#X obj 211 199 soundfiler;
#X obj 211 254 t f f;
#X obj 238 275 / 44.1;
#X obj 147 127 bng 15 250 50 0 empty empty empty 17 7 0 10 -262144
-1 -1;
#X obj 541 144 t b b;
#X obj 492 198 pack;
#X msg 610 171 0;
#X obj 599 216 line~;
#X obj 599 242 *~;
#X obj 643 225 - 3;
#X obj 599 264 +~ 1;
#X msg 492 176 1;
#X obj 599 286 tabread4~ \$0-sample;
#X obj 443 67 table \$0-sample;
#X obj 262 107 f \$0;
#X obj 210 93 bng 15 250 50 0 empty empty empty 17 7 0 10 -262144 -1
-1;
#X obj 211 157 pack s \$1;
#X symbolatom 105 126 5 0 0 0 - - -, f 5;
#X obj 210 115 symbol;
#X msg 211 179 read -resize ~/pd/samples/\$1.wav \$2-sample;
#X obj 57 60 == 127;
#X obj 57 39 inlet midi;
#X obj 128 39 inlet sample;
#X msg 129 64 symbol \$1;
#X obj 599 308 outlet~;
#X obj 211 316 s \$0-size;
#X obj 643 203 r \$0-size;
#X obj 522 181 r \$0-duration;
#X obj 238 295 s \$0-duration;
#X connect 0 0 1 0;
#X connect 1 0 25 0;
#X connect 1 1 2 0;
#X connect 2 0 28 0;
#X connect 3 0 4 0;
#X connect 4 0 11 0;
#X connect 4 1 6 0;
#X connect 5 0 7 0;
#X connect 6 0 7 0;
#X connect 7 0 8 0;
#X connect 8 0 10 0;
#X connect 9 0 8 1;
#X connect 10 0 12 0;
#X connect 11 0 5 0;
#X connect 12 0 24 0;
#X connect 14 0 16 1;
#X connect 15 0 14 0;
#X connect 15 0 18 0;
#X connect 16 0 19 0;
#X connect 17 0 18 1;
#X connect 17 0 15 0;
#X connect 18 0 16 0;
#X connect 19 0 0 0;
#X connect 20 0 3 0;
#X connect 21 0 20 0;
#X connect 22 0 23 0;
#X connect 23 0 17 0;
#X connect 26 0 9 0;
#X connect 27 0 5 1;
#X coords 0 -1 1 1 70 50 1 100 100;
