#N canvas 528 553 987 685 10;
#X msg 582 158 start;
#X msg 555 231 stop;
#X obj 700 248 writesf~ 2;
#X obj 268 24 inlet~;
#X obj 268 45 s~ \$0-input-right;
#X obj 187 24 inlet;
#X obj 187 45 s \$0-in-rec;
#X obj 75 24 inlet~;
#X obj 75 45 s~ \$0-input-left;
#X obj 698 204 r~ \$0-input-left;
#X obj 757 226 r~ \$0-input-right;
#X obj 107 133 tgl 15 0 \$0-rec \$0-in-rec rec 17 7 0 10 -262144 -1
-1 0 1;
#X obj 307 115 r \$0-rec;
#X obj 678 130 r \$0-filename;
#X obj 580 83 r \$0-rec-start;
#X obj 555 209 r \$0-rec-end;
#X floatatom 102 559 5 0 0 0 - - -, f 5;
#X obj 102 477 bng 15 250 50 0 empty empty empty 17 7 0 10 -262144
-1 -1;
#X obj 138 513 + 1;
#X obj 102 512 int;
#X obj 159 633 file-exists;
#X obj 24 477 loadbang;
#X obj 159 656 sel 0;
#X msg 24 497 1;
#X obj 242 268 r \$0-rec-end;
#X obj 700 273 r \$0-filename;
#X obj 686 402 textfile;
#X msg 713 357 set 1;
#X obj 685 296 int;
#X obj 686 323 t i b;
#X msg 621 279 bang;
#X obj 663 162 int;
#X obj 581 118 t b b;
#X msg 663 183 open ../samples/\$1.wav;
#X obj 572 318 delay 100;
#X obj 572 341 s RELOAD_SAMPLES;
#X obj 358 165 s \$0-rec-end;
#X obj 307 188 s \$0-rec-start;
#X obj 307 143 sel 1 127;
#X obj 332 310 r \$0-initial-filename;
#X obj 17 609 s \$0-initial-filename;
#X obj 279 365 + 1;
#X obj 243 364 int;
#X floatatom 243 388 5 0 0 0 - - -, f 5;
#X obj 243 407 s \$0-filename;
#X obj 242 312 t b b;
#X obj 242 290 delay 100;
#X msg 686 379 write ../memory/samples/\$1.wav.txt;
#X msg 159 609 ../memory/samples/\$1.wav.txt;
#X connect 0 0 2 0;
#X connect 1 0 2 0;
#X connect 1 0 30 0;
#X connect 3 0 4 0;
#X connect 5 0 6 0;
#X connect 7 0 8 0;
#X connect 9 0 2 0;
#X connect 10 0 2 1;
#X connect 12 0 38 0;
#X connect 13 0 31 1;
#X connect 14 0 32 0;
#X connect 15 0 1 0;
#X connect 16 0 48 0;
#X connect 16 0 40 0;
#X connect 17 0 19 0;
#X connect 18 0 19 1;
#X connect 19 0 16 0;
#X connect 19 0 18 0;
#X connect 20 0 22 0;
#X connect 21 0 23 0;
#X connect 22 1 17 0;
#X connect 23 0 19 0;
#X connect 24 0 46 0;
#X connect 25 0 28 1;
#X connect 27 0 26 0;
#X connect 28 0 29 0;
#X connect 29 0 47 0;
#X connect 29 1 27 0;
#X connect 30 0 28 0;
#X connect 30 0 34 0;
#X connect 31 0 33 0;
#X connect 32 0 0 0;
#X connect 32 1 31 0;
#X connect 33 0 2 0;
#X connect 34 0 35 0;
#X connect 38 0 37 0;
#X connect 38 1 37 0;
#X connect 38 2 36 0;
#X connect 39 0 42 0;
#X connect 41 0 42 1;
#X connect 42 0 41 0;
#X connect 42 0 43 0;
#X connect 43 0 44 0;
#X connect 45 0 42 0;
#X connect 45 1 41 0;
#X connect 46 0 45 0;
#X connect 47 0 26 0;
#X connect 48 0 20 0;
#X coords 0 -1 1 1 120 60 1 100 100;
