#N canvas 205 142 770 637 10;
#X obj 393 504 textfile;
#X obj 393 534 s SSSAD;
#X obj 393 446 until;
#X msg 393 425 100;
#X obj 461 531 s SSSAD_ADMIN;
#X msg 461 506 set;
#X obj 393 402 t b a;
#X msg 440 447 read \$1 \, rewind;
#X obj 393 379 symbol;
#X obj 191 488 textfile;
#X msg 80 389 clear;
#X msg 265 471 print;
#X obj 191 412 list prepend add;
#X obj 191 438 list trim;
#X obj 58 489 s SSSAD_ADMIN;
#X obj 191 344 r SSSAD_ADMIN;
#X obj 191 388 route persist;
#X obj 191 366 list trim;
#X msg 58 423 save;
#X msg 72 462 set;
#X obj 36 353 t a b b;
#X obj 36 332 symbol;
#X msg 36 536 write \$1;
#X obj 196 148 bng 15 250 50 0 empty empty empty 17 7 0 10 -262144
-1 -1;
#X obj 36 279 pack s s;
#X obj 135 148 bng 15 250 50 0 empty empty empty 17 7 0 10 -262144
-1 -1;
#X obj 393 332 pack s s;
#X symbolatom 107 173 17 0 0 0 - - -, f 17;
#X text 101 147 load;
#X text 164 147 save;
#X obj 393 253 symbol;
#X obj 36 200 symbol;
#X obj 4 16 inlet filename;
#X obj 114 16 inlet load;
#X obj 198 17 inlet save;
#X obj 310 18 inlet directory;
#X symbolatom 106 127 17 0 0 0 - - -, f 17;
#X msg 393 354 \$2/\$1;
#X msg 36 301 \$2/\$1;
#X obj 597 371 file-exists;
#X obj 597 392 sel 0;
#X obj 597 433 outlet;
#X obj 597 414 bng 15 250 50 0 empty empty empty 17 7 0 10 -262144
-1 -1;
#X connect 0 0 1 0;
#X connect 0 1 2 1;
#X connect 0 1 5 0;
#X connect 2 0 0 0;
#X connect 3 0 2 0;
#X connect 5 0 4 0;
#X connect 6 0 3 0;
#X connect 6 1 7 0;
#X connect 7 0 0 0;
#X connect 8 0 6 0;
#X connect 10 0 9 0;
#X connect 11 0 9 0;
#X connect 12 0 13 0;
#X connect 13 0 9 0;
#X connect 15 0 17 0;
#X connect 16 0 12 0;
#X connect 17 0 16 0;
#X connect 18 0 14 0;
#X connect 19 0 14 0;
#X connect 20 0 22 0;
#X connect 20 1 18 0;
#X connect 20 2 10 0;
#X connect 21 0 20 0;
#X connect 22 0 9 0;
#X connect 23 0 31 0;
#X connect 24 0 38 0;
#X connect 25 0 30 0;
#X connect 26 0 37 0;
#X connect 27 0 31 1;
#X connect 27 0 30 0;
#X connect 30 0 26 0;
#X connect 31 0 24 0;
#X connect 32 0 27 0;
#X connect 33 0 25 0;
#X connect 34 0 23 0;
#X connect 35 0 36 0;
#X connect 36 0 26 1;
#X connect 36 0 24 1;
#X connect 37 0 8 0;
#X connect 37 0 39 0;
#X connect 38 0 21 0;
#X connect 39 0 40 0;
#X connect 40 0 42 0;
#X connect 42 0 41 0;
#X coords 0 -1 1 1 120 100 1 100 100;
