#N canvas 200 167 770 637 10;
#X declare -stdpath zexy -stdlib zexy;
#X obj 393 504 textfile;
#X obj 393 534 s SSSAD;
#X obj 393 446 until;
#X msg 393 425 100;
#X obj 461 531 s SSSAD_ADMIN;
#X msg 461 506 set;
#X obj 393 402 t b a;
#X msg 440 447 read \$1 \, rewind;
#X obj 393 379 symbol;
#X obj 191 488 textfile;
#X msg 80 389 clear;
#X msg 265 471 print;
#X obj 191 412 list prepend add;
#X obj 191 438 list trim;
#X obj 58 489 s SSSAD_ADMIN;
#X obj 191 344 r SSSAD_ADMIN;
#X obj 191 388 route persist;
#X obj 191 366 list trim;
#X msg 58 423 save;
#X msg 72 462 set;
#X obj 36 353 t a b b;
#X obj 36 332 symbol;
#X msg 36 536 write \$1;
#X obj 196 148 bng 15 250 50 0 SAVE \$0-save empty 17 7 0 10 -262144
-1 -1;
#X obj 36 279 pack s s;
#X obj 135 148 bng 15 250 50 0 LOAD \$0-load empty 17 7 0 10 -262144
-1 -1;
#X obj 393 332 pack s s;
#X symbolatom 107 173 17 0 0 0 - #0-filename #0-file, f 17;
#X text 101 147 load;
#X text 164 147 save;
#X obj 392 281 symbol;
#X obj 36 235 symbol;
#X obj 4 16 inlet filename;
#X obj 114 16 inlet load;
#X obj 198 17 inlet save;
#X symbolatom 106 125 17 0 0 0 - #0-filepath #0-path, f 17;
#X obj 597 371 file-exists;
#X obj 597 392 sel 0;
#X obj 597 433 outlet;
#X obj 597 414 bng 15 250 50 0 empty empty empty 17 7 0 10 -262144
-1 -1;
#X msg 393 354 \$2/\$1.txt;
#X msg 36 301 \$2/\$1.txt;
#X obj 4 36 l2s;
#X obj 451 164 declare -stdpath zexy -stdlib zexy;
#X text 449 180 can get rid of this when the l2s is cleaned up and
the filenames can be floats;
#X obj 114 37 s \$0-load;
#X obj 198 37 s \$0-save;
#X obj 4 57 s \$0-filename;
#X obj 102 252 r \$0-path;
#X obj 438 306 r \$0-path;
#X obj 392 254 r LOAD;
#X obj 344 233 r \$0-file;
#X obj 103 220 r \$0-file;
#X obj 36 211 r SAVE;
#X obj 277 17 inlet path;
#X obj 277 37 s \$0-filepath;
#X connect 0 0 1 0;
#X connect 0 1 2 1;
#X connect 0 1 5 0;
#X connect 2 0 0 0;
#X connect 3 0 2 0;
#X connect 5 0 4 0;
#X connect 6 0 3 0;
#X connect 6 1 7 0;
#X connect 7 0 0 0;
#X connect 8 0 6 0;
#X connect 10 0 9 0;
#X connect 11 0 9 0;
#X connect 12 0 13 0;
#X connect 13 0 9 0;
#X connect 15 0 17 0;
#X connect 16 0 12 0;
#X connect 17 0 16 0;
#X connect 18 0 14 0;
#X connect 19 0 14 0;
#X connect 20 0 22 0;
#X connect 20 1 18 0;
#X connect 20 2 10 0;
#X connect 21 0 20 0;
#X connect 22 0 9 0;
#X connect 24 0 41 0;
#X connect 26 0 40 0;
#X connect 30 0 26 0;
#X connect 31 0 24 0;
#X connect 32 0 42 0;
#X connect 33 0 45 0;
#X connect 34 0 46 0;
#X connect 36 0 37 0;
#X connect 37 0 39 0;
#X connect 39 0 38 0;
#X connect 40 0 8 0;
#X connect 40 0 36 0;
#X connect 41 0 21 0;
#X connect 42 0 47 0;
#X connect 48 0 24 1;
#X connect 49 0 26 1;
#X connect 50 0 30 0;
#X connect 51 0 30 0;
#X connect 52 0 31 1;
#X connect 53 0 31 0;
#X connect 54 0 55 0;
#X coords 0 -1 1 1 120 100 1 100 100;
