#N canvas 1036 130 899 596 10;
#X obj 50 210 hsl 100 15 0 1 0 0 \$0-wet \$0-midi-wet empty -2 -8 0
10 -262144 -1 -1 9200 1;
#X obj 50 231 hsl 100 15 0 1 0 0 \$0-dry empty empty -2 -8 0 10 -262144
-1 -1 9900 1;
#X obj 50 252 hsl 100 15 0 7000 0 0 \$0-length \$0-midi-length empty
-2 -8 0 10 -262144 -1 -1 1200 1;
#X obj 50 272 hsl 100 15 0 1 0 0 \$0-feedback \$0-midi-feedback empty
-2 -8 0 10 -262144 -1 -1 6200 1;
#X text 48 208 wet;
#X text 49 229 dry;
#X text 51 251 length;
#X text 51 270 feedback;
#X obj 194 355 sig~;
#X obj 194 374 lop~ 1;
#X obj 320 393 *~ 1;
#X obj 194 412 *~ 1;
#X obj 266 365 *~ 0;
#X obj 136 95 loadbang;
#X msg 136 119 1;
#X msg 47 123 0;
#X obj 137 190 bng 15 250 50 0 empty empty empty 17 7 0 10 -262144
-1 -1;
#X obj 163 173 == 127;
#X obj 13 24 inlet~ left;
#X obj 13 46 s~ \$0-inlet-left;
#X obj 743 24 inlet~ right;
#X obj 743 46 s~ \$0-inlet-right;
#X obj 15 526 outlet~ left;
#X obj 731 526 outlet~ right;
#X obj 731 506 r~ \$0-outlet-right;
#X obj 15 506 r~ \$0-outlet-left;
#X obj 194 393 vd~ \$0-delay-left;
#X obj 340 188 r~ \$0-inlet-left;
#X obj 194 441 s~ \$0-outlet-left;
#X obj 342 303 delwrite~ \$0-delay-left 4000;
#X obj 237 10 inlet midi-wet;
#X obj 329 10 inlet midi-length;
#X obj 440 11 inlet midi-feedback;
#X obj 440 30 / 127;
#X obj 329 29 / 127;
#X obj 237 29 / 127;
#X obj 236 49 s \$0-midi-wet;
#X obj 329 49 s \$0-midi-length;
#X obj 440 50 s \$0-midi-feedback;
#X obj 563 11 inlet midi-reset;
#X obj 563 30 == 127;
#X obj 563 51 s \$0-midi-reset;
#X obj 162 147 r \$0-midi-reset;
#X obj 343 358 r \$0-dry;
#X obj 245 266 r \$0-feedback;
#X obj 194 333 r \$0-length;
#X obj 137 395 r \$0-wet;
#X obj 524 355 sig~;
#X obj 524 374 lop~ 1;
#X obj 650 393 *~ 1;
#X obj 524 412 *~ 1;
#X obj 596 365 *~ 0;
#X obj 673 358 r \$0-dry;
#X obj 575 266 r \$0-feedback;
#X obj 524 333 r \$0-length;
#X obj 467 395 r \$0-wet;
#X obj 670 188 r~ \$0-inlet-right;
#X obj 672 303 delwrite~ \$0-delay-right 4000;
#X obj 524 441 s~ \$0-outlet-right;
#X obj 524 393 vd~ \$0-delay-right;
#X connect 8 0 9 0;
#X connect 9 0 26 0;
#X connect 10 0 28 0;
#X connect 11 0 28 0;
#X connect 12 0 29 0;
#X connect 13 0 14 0;
#X connect 13 0 15 0;
#X connect 14 0 1 0;
#X connect 15 0 0 0;
#X connect 15 0 2 0;
#X connect 15 0 3 0;
#X connect 16 0 15 0;
#X connect 16 0 14 0;
#X connect 17 0 16 0;
#X connect 18 0 19 0;
#X connect 20 0 21 0;
#X connect 24 0 23 0;
#X connect 25 0 22 0;
#X connect 26 0 11 0;
#X connect 26 0 12 0;
#X connect 27 0 10 0;
#X connect 27 0 29 0;
#X connect 30 0 35 0;
#X connect 31 0 34 0;
#X connect 32 0 33 0;
#X connect 33 0 38 0;
#X connect 34 0 37 0;
#X connect 35 0 36 0;
#X connect 39 0 40 0;
#X connect 40 0 41 0;
#X connect 42 0 17 0;
#X connect 43 0 10 1;
#X connect 44 0 12 1;
#X connect 45 0 8 0;
#X connect 46 0 11 1;
#X connect 47 0 48 0;
#X connect 48 0 59 0;
#X connect 49 0 58 0;
#X connect 50 0 58 0;
#X connect 51 0 57 0;
#X connect 52 0 49 1;
#X connect 53 0 51 1;
#X connect 54 0 47 0;
#X connect 55 0 50 1;
#X connect 56 0 49 0;
#X connect 56 0 57 0;
#X connect 59 0 50 0;
#X connect 59 0 51 0;
#X coords 0 -1 1 1 120 115 1 40 180;
