#N canvas 40 23 924 972 10;
#X obj 401 479 channel-out~;
#X obj 321 352 midi-encoder;
#X obj 541 352 midi-encoder;
#X obj 709 237 midi-encoder;
#X obj 629 237 midi-encoder;
#X obj 545 237 midi-encoder;
#X obj 321 332 + 8;
#X obj 541 332 + 9;
#X obj 709 217 + 5;
#X obj 629 217 + 4;
#X obj 545 217 + 1;
#X obj 317 462 midi-encoder;
#X obj 317 442 + 13;
#X obj 248 330 + 8;
#X obj 544 148 + 0;
#X obj 620 149 + 1;
#X obj 694 148 + 12;
#X obj 794 224 + 5;
#X obj 238 442 + 13;
#X obj 544 169 midi-toggle;
#X obj 620 169 midi-toggle;
#X obj 694 169 midi-toggle;
#X obj 794 237 midi-toggle;
#X obj 248 352 midi-toggle;
#X obj 238 462 midi-toggle;
#X obj 401 100 inlet~;
#X obj 544 128 r \$0-base;
#X obj 620 129 r \$0-base;
#X obj 694 128 r \$0-base;
#X obj 709 197 r \$0-base;
#X obj 629 197 r \$0-base;
#X obj 545 197 r \$0-base;
#X obj 794 196 r \$0-base;
#X obj 541 312 r \$0-base;
#X obj 321 312 r \$0-base;
#X obj 248 310 r \$0-base;
#X obj 317 422 r \$0-base;
#X obj 238 422 r \$0-base;
#X obj 47 63 s \$0-base;
#X obj 47 16 loadbang;
#X obj 47 40 f \$1;
#X obj 548 462 + 13;
#X obj 548 442 r \$0-base;
#X obj 401 134 cosine-pan~;
#X obj 307 117 midi-encoder;
#X obj 307 97 + 12;
#X obj 307 77 r \$0-base;
#X obj 401 186 stereo-looper~;
#X obj 401 254 stereo-delay~;
#X obj 401 369 stereo-reverb~;
#X obj 769 169 r \$0-base;
#X connect 1 0 49 2;
#X connect 2 0 49 3;
#X connect 3 0 48 3;
#X connect 4 0 48 2;
#X connect 5 0 48 1;
#X connect 6 0 1 0;
#X connect 7 0 2 0;
#X connect 8 0 3 0;
#X connect 9 0 4 0;
#X connect 10 0 5 0;
#X connect 11 0 0 2;
#X connect 12 0 11 0;
#X connect 13 0 23 0;
#X connect 14 0 19 0;
#X connect 15 0 20 0;
#X connect 16 0 21 0;
#X connect 17 0 22 0;
#X connect 18 0 24 0;
#X connect 19 0 47 1;
#X connect 20 0 47 2;
#X connect 21 0 47 3;
#X connect 22 0 48 4;
#X connect 23 0 49 1;
#X connect 24 0 0 1;
#X connect 25 0 43 0;
#X connect 26 0 14 0;
#X connect 27 0 15 0;
#X connect 28 0 16 0;
#X connect 29 0 8 0;
#X connect 30 0 9 0;
#X connect 31 0 10 0;
#X connect 32 0 17 0;
#X connect 33 0 7 0;
#X connect 34 0 6 0;
#X connect 35 0 13 0;
#X connect 36 0 12 0;
#X connect 37 0 18 0;
#X connect 39 0 40 0;
#X connect 40 0 38 0;
#X connect 41 0 0 3;
#X connect 42 0 41 0;
#X connect 43 0 47 0;
#X connect 43 1 47 5;
#X connect 44 0 43 1;
#X connect 45 0 44 0;
#X connect 46 0 45 0;
#X connect 47 0 48 0;
#X connect 47 1 48 5;
#X connect 48 0 49 0;
#X connect 48 1 49 4;
#X connect 49 0 0 0;
#X connect 49 1 0 4;
#X connect 50 0 47 4;
#X coords 0 -1 1 1 122 440 1 400 100;
