#N canvas 140 35 1097 865 10;
#X obj 7 22 tgl 15 0 \$0-rec \$0-midi-rec empty 17 7 0 10 -262144 -1
-1 0 127;
#X text 25 20 rec;
#X obj 7 44 bng 15 250 50 0 \$0-clear \$0-midi-clear empty 17 7 0 10
-262144 -1 -1;
#X text 25 43 clear;
#X obj 68 23 bng 15 250 50 0 \$0-stop empty empty 17 7 0 10 -262144
-1 -1;
#X text 87 22 stop;
#X obj 69 45 bng 15 250 50 0 \$0-play empty empty 17 7 0 10 -262144
-1 -1;
#X text 87 45 play;
#X obj 97 4 tgl 15 0 \$0-monitor-on \$0-midi-monitor-on empty 17 7
0 10 -262144 -1 -1 0 1;
#X obj 36 447 *~;
#X obj 100 420 line~;
#X obj 100 391 pack 0 6;
#X msg 100 348 0;
#X msg 140 360 1;
#X msg 556 97 reset;
#X msg 505 484 bang;
#X msg 555 484 stop;
#X obj 598 541 bng 15 250 50 0 empty empty empty 17 7 0 10 -262144
-1 -1;
#X obj 316 354 timer;
#X obj 316 386 * 44.1;
#X floatatom 316 415 5 0 0 0 - - -;
#X msg 316 440 resize \$1;
#X obj 334 308 t b b b;
#X msg 583 441 resize 3.969e+06 \, const 0;
#X msg 370 126 0;
#X obj 267 147 f;
#X obj 254 186 + 1;
#X msg 369 148 2;
#X obj 294 167 sel 0 1 2 3;
#X obj 227 164 sel 3;
#X text 590 484 stop playback;
#X text 598 97 clear loop;
#X msg 267 124 bang;
#X text 643 193 functional \, unlimited overdubbing looper. there is
still an unfortunate quirk however: you can't seem to overdub during
the very first playback of the first loop \, the overdubs do not record
in this scenario.;
#X obj 331 2 inlet midi-monitor;
#X obj 237 2 inlet midi-rec;
#X obj 468 3 inlet midi-clear;
#X obj 469 23 == 127;
#X obj 332 22 == 127;
#X obj 237 22 == 127;
#X obj 37 500 *~ 1;
#X msg 731 609 1;
#X obj 550 629 *~ 0;
#X msg 768 608 0;
#X obj 728 581 sel 1;
#X obj 728 559 r \$0-monitor-on;
#X obj 267 104 r \$0-rec;
#X msg 101 553 stop;
#X obj 101 532 r \$0-stop;
#X obj 486 355 r \$0-stop;
#X obj 426 354 r \$0-play;
#X obj 556 76 r \$0-clear;
#X obj 237 44 s \$0-midi-rec;
#X obj 469 43 s \$0-midi-clear;
#X obj 37 594 tabwrite~ \$0-loop-left;
#X obj 505 518 tabplay~ \$0-loop-left;
#X obj 795 97 table \$0-loop-left 3.969e+06;
#X obj 36 1057 *~;
#X obj 100 1030 line~;
#X obj 100 1001 pack 0 6;
#X msg 100 958 0;
#X msg 140 970 1;
#X msg 556 707 reset;
#X msg 505 1094 bang;
#X msg 555 1094 stop;
#X obj 598 1151 bng 15 250 50 0 empty empty empty 17 7 0 10 -262144
-1 -1;
#X obj 316 964 timer;
#X obj 316 996 * 44.1;
#X floatatom 316 1025 5 0 0 0 - - -;
#X msg 316 1050 resize \$1;
#X obj 334 918 t b b b;
#X msg 583 1051 resize 3.969e+06 \, const 0;
#X msg 370 736 0;
#X obj 267 757 f;
#X obj 254 796 + 1;
#X msg 369 758 2;
#X obj 294 777 sel 0 1 2 3;
#X obj 227 774 sel 3;
#X text 590 1094 stop playback;
#X text 598 707 clear loop;
#X msg 267 734 bang;
#X obj 37 1110 *~ 1;
#X msg 731 1219 1;
#X obj 550 1239 *~ 0;
#X msg 768 1218 0;
#X obj 728 1191 sel 1;
#X obj 728 1169 r \$0-monitor-on;
#X obj 267 714 r \$0-rec;
#X msg 101 1163 stop;
#X obj 101 1142 r \$0-stop;
#X obj 486 965 r \$0-stop;
#X obj 426 964 r \$0-play;
#X obj 556 686 r \$0-clear;
#X obj 795 707 table \$0-loop-right 3.969e+06;
#X obj 37 1204 tabwrite~ \$0-loop-right;
#X obj 7 1280 outlet~ left;
#X obj 923 1280 outlet~ right;
#X obj 505 659 s~ \$0-outlet-left;
#X obj 505 1269 s~ \$0-outlet-right;
#X obj 132 2 inlet~ left;
#X obj 132 23 s~ \$0-inlet-left;
#X obj 696 2 inlet~ right;
#X obj 696 23 s~ \$0-inlet-right;
#X obj 36 224 r~ \$0-inlet-left;
#X obj 550 581 r~ \$0-inlet-left;
#X obj 36 834 r~ \$0-inlet-right;
#X obj 550 1191 r~ \$0-inlet-right;
#X obj 7 1259 r~ \$0-outlet-left;
#X obj 923 1259 r~ \$0-outlet-right;
#X obj 505 1128 tabplay~ \$0-loop-right;
#X obj 332 43 s \$0-midi-monitor-on;
#X obj 316 1079 s \$0-loop-right;
#X obj 316 469 s \$0-loop-left;
#X obj 790 852 f \$0;
#X obj 600 940 soundfiler;
#X obj 750 837 bng 15 250 50 0 empty empty empty 17 7 0 10 -262144
-1 -1;
#X text 681 834 save loops;
#X obj 49 23 bng 15 250 50 0 \$0-save empty empty 17 7 0 10 -262144
-1 -1;
#X obj 750 809 r \$0-save;
#X obj 577 2 inlet track-number;
#X obj 577 23 s \$0-track-number;
#X obj 835 833 r \$0-track-number;
#X obj 835 857 list2symbol;
#X obj 790 881 pack f s;
#X msg 600 919 write -wave ../audio/\$2-left.wav \$1-loop-left;
#X obj 790 991 soundfiler;
#X msg 790 970 write -wave ../audio/\$2-right.wav \$1-loop-right;
#X connect 9 0 40 0;
#X connect 10 0 9 1;
#X connect 11 0 10 0;
#X connect 12 0 11 0;
#X connect 13 0 11 0;
#X connect 14 0 24 0;
#X connect 14 0 16 0;
#X connect 14 0 23 0;
#X connect 15 0 55 0;
#X connect 16 0 55 0;
#X connect 17 0 15 0;
#X connect 18 0 19 0;
#X connect 19 0 20 0;
#X connect 20 0 21 0;
#X connect 21 0 112 0;
#X connect 22 0 12 0;
#X connect 22 1 15 0;
#X connect 22 2 18 1;
#X connect 23 0 112 0;
#X connect 24 0 25 1;
#X connect 25 0 29 0;
#X connect 25 0 28 0;
#X connect 26 0 25 1;
#X connect 27 0 25 1;
#X connect 28 0 18 0;
#X connect 28 0 13 0;
#X connect 28 0 54 0;
#X connect 28 1 22 0;
#X connect 28 1 12 0;
#X connect 28 2 13 0;
#X connect 28 3 12 0;
#X connect 28 3 27 0;
#X connect 29 1 26 0;
#X connect 32 0 25 0;
#X connect 34 0 38 0;
#X connect 35 0 39 0;
#X connect 36 0 37 0;
#X connect 37 0 53 0;
#X connect 38 0 110 0;
#X connect 39 0 52 0;
#X connect 40 0 54 0;
#X connect 41 0 42 1;
#X connect 42 0 97 0;
#X connect 43 0 42 1;
#X connect 44 0 41 0;
#X connect 44 1 43 0;
#X connect 45 0 44 0;
#X connect 46 0 32 0;
#X connect 47 0 54 0;
#X connect 48 0 47 0;
#X connect 49 0 16 0;
#X connect 50 0 15 0;
#X connect 51 0 14 0;
#X connect 55 0 54 0;
#X connect 55 0 97 0;
#X connect 55 1 17 0;
#X connect 55 1 54 0;
#X connect 57 0 81 0;
#X connect 58 0 57 1;
#X connect 59 0 58 0;
#X connect 60 0 59 0;
#X connect 61 0 59 0;
#X connect 62 0 72 0;
#X connect 62 0 64 0;
#X connect 62 0 71 0;
#X connect 63 0 109 0;
#X connect 64 0 109 0;
#X connect 65 0 63 0;
#X connect 66 0 67 0;
#X connect 67 0 68 0;
#X connect 68 0 69 0;
#X connect 69 0 111 0;
#X connect 70 0 60 0;
#X connect 70 1 63 0;
#X connect 70 2 66 1;
#X connect 71 0 111 0;
#X connect 72 0 73 1;
#X connect 73 0 77 0;
#X connect 73 0 76 0;
#X connect 74 0 73 1;
#X connect 75 0 73 1;
#X connect 76 0 66 0;
#X connect 76 0 61 0;
#X connect 76 0 94 0;
#X connect 76 1 70 0;
#X connect 76 1 60 0;
#X connect 76 2 61 0;
#X connect 76 3 60 0;
#X connect 76 3 75 0;
#X connect 77 1 74 0;
#X connect 80 0 73 0;
#X connect 81 0 94 0;
#X connect 82 0 83 1;
#X connect 83 0 98 0;
#X connect 84 0 83 1;
#X connect 85 0 82 0;
#X connect 85 1 84 0;
#X connect 86 0 85 0;
#X connect 87 0 80 0;
#X connect 88 0 94 0;
#X connect 89 0 88 0;
#X connect 90 0 64 0;
#X connect 91 0 63 0;
#X connect 92 0 62 0;
#X connect 99 0 100 0;
#X connect 101 0 102 0;
#X connect 103 0 9 0;
#X connect 104 0 42 0;
#X connect 105 0 57 0;
#X connect 106 0 83 0;
#X connect 107 0 95 0;
#X connect 108 0 96 0;
#X connect 109 0 94 0;
#X connect 109 0 98 0;
#X connect 109 1 65 0;
#X connect 109 1 94 0;
#X connect 113 0 123 0;
#X connect 115 0 113 0;
#X connect 118 0 115 0;
#X connect 119 0 120 0;
#X connect 121 0 122 0;
#X connect 122 0 123 1;
#X connect 123 0 124 0;
#X connect 123 0 126 0;
#X connect 124 0 114 0;
#X connect 126 0 125 0;
#X coords 0 -1 1 1 120 65 1 0 0;
