#N canvas 250 107 1064 668 12;
#X obj 459 104 hsl 128 15 300 500 0 0 empty empty empty -2 8 0 10 #c4fcc4 #000000 #000000 0 1;
#X floatatom 457 132 5 0 0 1 - - - 0;
#X obj 687 504 *~;
#X obj 474 365 expr~ $v1 > $v2;
#X obj 616 104 hsl 128 15 0 1 0 0 empty \$0-pwm empty -2 -8 0 10 #c4fcc4 #000000 #000000 0 1;
#X floatatom 613 126 5 0 0 1 - - - 0;
#X floatatom 474 315 5 0 0 0 - - - 0;
#X obj 474 340 phasor~ 0;
#X obj -183 372 mtof;
#X msg -265 353 0;
#X obj -265 327 loadbang;
#X obj -265 377 line;
#X obj 474 396 +~;
#X obj 705 474 vline~;
#X obj 846 32 vsl 15 128 0 1 0 0 empty \$0-att empty 0 -9 0 10 #fcc4c4 #000000 #000000 0 1;
#X obj 866 32 vsl 15 128 0 1 0 0 empty \$0-dec empty 0 -9 0 10 #fcc4c4 #000000 #000000 0 1;
#X obj 885 32 vsl 15 128 0 1 0 0 empty \$0-sus empty 0 -9 0 10 #fcc4c4 #000000 #000000 0 1;
#X obj 906 32 vsl 15 128 0 1 0 0 empty \$0-rel empty 0 -9 0 10 #fcc4c4 #000000 #000000 0 1;
#X floatatom 804 173 5 0 0 3 A - - 0;
#X floatatom 849 173 5 0 0 3 D - - 0;
#X floatatom 894 173 5 0 0 3 S - - 0;
#X floatatom 940 173 5 0 0 3 R - - 0;
#X obj 675 321 pack f f f f;
#X msg 675 348 1 \$2 \, \$4 \$3 \$2;
#X msg 705 437 0 \$2;
#X obj -148 250 sel 0;
#X obj -183 347 + 0;
#X msg -148 303 0;
#X obj -148 276 delay 100;
#X obj 949 251 s \$0-release;
#X obj -88 250 r \$0-release;
#X obj 688 588 outlet~;
#X obj -183 57 inlet;
#X text 945 461 https://github.com/assada/synthesizer;
#X obj 889 -51 loadbang;
#X msg 891 -12 0.5;
#X obj 613 55 loadbang;
#X msg 613 79 60;
#X obj -148 329 s \$0-noteup;
#X obj 706 373 r \$0-noteup;
#X obj 687 543 *~ 0.5;
#X obj -116 116 s \$0-pwm;
#X obj -183 85 route freq vel pwm att dec sus rel;
#X obj -83 143 s \$0-att;
#X obj -49 177 s \$0-dec;
#X obj -16 208 s \$0-sus;
#X obj 18 236 s \$0-rel;
#X obj 732 213 * 3000;
#X obj 798 214 * 1000;
#X msg 848 -12 0.2;
#X obj 949 213 * 1000;
#X obj -183 396 s \$0-freq-internal;
#X obj 578 26 r \$0-freq-internal;
#X obj 110 157 hsl 100 15 0 1 0 0 \$0-att empty attack -2 7 0 12 #fcfcfc #000000 #000000 0 1;
#X obj 110 177 hsl 100 15 0 1 0 0 \$0-dec empty decay -2 7 0 12 #fcfcfc #000000 #000000 0 1;
#X obj 110 197 hsl 100 15 0 1 0 0 \$0-sus empty sustain -2 7 0 12 #fcfcfc #000000 #000000 0 1;
#X obj 110 217 hsl 100 15 0 1 0 0 \$0-rel empty release -2 7 0 12 #fcfcfc #000000 #000000 0 1;
#X obj 110 137 hsl 100 15 0 1 0 0 \$0-pwm empty pwm -2 7 0 12 #fcfcfc #000000 #000000 0 1;
#X obj 705 404 pack b f;
#X connect 0 0 1 0;
#X connect 1 0 6 0;
#X connect 2 0 40 0;
#X connect 3 0 12 0;
#X connect 4 0 5 0;
#X connect 5 0 3 1;
#X connect 6 0 7 0;
#X connect 7 0 3 0;
#X connect 8 0 51 0;
#X connect 9 0 11 0;
#X connect 10 0 9 0;
#X connect 11 0 51 0;
#X connect 12 0 2 0;
#X connect 13 0 2 1;
#X connect 14 0 18 0;
#X connect 15 0 19 0;
#X connect 16 0 20 0;
#X connect 17 0 21 0;
#X connect 18 0 47 0;
#X connect 19 0 48 0;
#X connect 20 0 22 3;
#X connect 21 0 50 0;
#X connect 22 0 23 0;
#X connect 23 0 13 0;
#X connect 24 0 13 0;
#X connect 25 0 28 0;
#X connect 26 0 8 0;
#X connect 27 0 38 0;
#X connect 28 0 27 0;
#X connect 30 0 28 1;
#X connect 32 0 42 0;
#X connect 34 0 35 0;
#X connect 34 0 49 0;
#X connect 35 0 16 0;
#X connect 35 0 15 0;
#X connect 35 0 17 0;
#X connect 36 0 37 0;
#X connect 37 0 4 0;
#X connect 39 0 58 0;
#X connect 40 0 31 0;
#X connect 42 0 26 0;
#X connect 42 1 25 0;
#X connect 42 2 41 0;
#X connect 42 2 57 0;
#X connect 42 3 43 0;
#X connect 42 3 53 0;
#X connect 42 4 44 0;
#X connect 42 4 54 0;
#X connect 42 5 45 0;
#X connect 42 5 55 0;
#X connect 42 6 46 0;
#X connect 42 6 56 0;
#X connect 47 0 22 1;
#X connect 48 0 22 2;
#X connect 49 0 14 0;
#X connect 50 0 29 0;
#X connect 50 0 58 1;
#X connect 52 0 0 0;
#X connect 52 0 22 0;
#X connect 58 0 24 0;
#X coords 0 -1 1 1 120 140 1 100 100;
