#N canvas 461 888 450 300 10;
#X obj 79 80 time GMT;
#X obj 25 80 date GMT;
#X obj 27 119 pack f f f f f f;
#X msg 27 142 symbol \$1-\$2-\$3-\$4-\$5-\$6;
#X obj 24 45 t b b;
#X obj 27 177 outlet;
#X obj 24 13 inlet;
#X connect 0 0 2 3;
#X connect 0 1 2 4;
#X connect 0 2 2 5;
#X connect 1 0 2 0;
#X connect 1 1 2 1;
#X connect 1 2 2 2;
#X connect 2 0 3 0;
#X connect 3 0 5 0;
#X connect 4 0 1 0;
#X connect 4 1 0 0;
#X connect 6 0 4 0;
