#N canvas 461 888 516 312 10;
#X obj 78 75 time GMT;
#X obj 24 75 date GMT;
#X obj 24 45 t b b;
#X obj 24 231 outlet;
#X obj 24 13 inlet;
#X obj 24 128 zero-pad;
#X obj 79 128 zero-pad;
#X obj 134 128 zero-pad;
#X obj 189 128 zero-pad;
#X obj 244 128 zero-pad;
#X obj 299 128 zero-pad;
#X obj 24 173 pack s s s s s s;
#X msg 24 196 symbol \$1-\$2-\$3-\$4-\$5-\$6;
#X connect 0 0 8 0;
#X connect 0 1 9 0;
#X connect 0 2 10 0;
#X connect 1 0 5 0;
#X connect 1 1 6 0;
#X connect 1 2 7 0;
#X connect 2 0 1 0;
#X connect 2 1 0 0;
#X connect 4 0 2 0;
#X connect 5 0 11 0;
#X connect 6 0 11 1;
#X connect 7 0 11 2;
#X connect 8 0 11 3;
#X connect 9 0 11 4;
#X connect 10 0 11 5;
#X connect 11 0 12 0;
#X connect 12 0 3 0;
