#N canvas 1054 840 690 542 10;
#X obj 120 7 inlet initial-length;
#X obj 255 8 inlet target-length;
#X obj 417 6 loadbang;
#X obj 417 27 \$1;
#X obj 255 30 s \$0-target-length;
#X obj 120 30 s \$0-initial-length;
#X floatatom 102 320 5 0 0 0 - - -, f 5;
#X floatatom 86 244 20 0 0 0 - - -, f 20;
#X obj 102 297 &&;
#X floatatom 167 112 20 0 0 0 - - -, f 20;
#X floatatom 167 152 20 0 0 0 - - -, f 20;
#X floatatom 216 227 20 0 0 0 - - -, f 20;
#X floatatom 167 208 20 0 0 0 - - -, f 20;
#X obj 167 185 - 1000;
#X obj 215 185 + 1000;
#X obj 86 273 >;
#X obj 125 273 <;
#X obj 102 343 sel 1;
#X obj 96 68 r \$0-initial-length;
#X obj 167 90 r \$0-target-length;
#X obj 167 131 *;
#X obj 302 116 r \$0-multiple;
#X obj 23 6 inlet bang;
#X msg 24 27 bang;
#X floatatom 302 136 5 0 0 0 - - -, f 5;
#X obj 417 51 s \$0-multiple;
#X floatatom 111 439 20 0 0 0 - - -, f 20;
#X obj 47 414 delay 100;
#X obj 96 460 f;
#X obj 111 393 r \$0-target-length;
#X obj 228 405 r \$0-multiple;
#X obj 111 420 *;
#X msg 46 391 bang;
#X obj 96 484 outlet resize-value;
#X obj 86 220 f;
#X obj 416 402 outlet false;
#X obj 416 382 bng 15 250 50 0 empty empty empty 17 7 0 10 -262144
-1 -1;
#X connect 0 0 5 0;
#X connect 1 0 4 0;
#X connect 2 0 3 0;
#X connect 3 0 25 0;
#X connect 6 0 17 0;
#X connect 7 0 15 0;
#X connect 7 0 16 0;
#X connect 8 0 6 0;
#X connect 9 0 20 0;
#X connect 10 0 13 0;
#X connect 10 0 14 0;
#X connect 11 0 16 1;
#X connect 12 0 15 1;
#X connect 13 0 12 0;
#X connect 14 0 11 0;
#X connect 15 0 8 0;
#X connect 16 0 8 1;
#X connect 17 0 32 0;
#X connect 17 1 36 0;
#X connect 18 0 34 1;
#X connect 19 0 9 0;
#X connect 20 0 10 0;
#X connect 21 0 20 1;
#X connect 21 0 24 0;
#X connect 22 0 23 0;
#X connect 23 0 34 0;
#X connect 26 0 28 1;
#X connect 27 0 28 0;
#X connect 28 0 33 0;
#X connect 29 0 31 0;
#X connect 30 0 31 1;
#X connect 31 0 26 0;
#X connect 32 0 27 0;
#X connect 34 0 7 0;
#X connect 36 0 35 0;
