#N canvas 1092 25 1356 700 10;
#X obj 14 9 adc~;
#X obj 21 551 dac~;
#X obj 23 517 *~;
#X obj 64 46 s~ right;
#X obj 14 46 s~ left;
#X obj 7 467 r~ left;
#X obj 57 467 r~ right;
#X obj 113 478 tgl 15 0 empty empty empty 17 7 0 10 -262144 -1 -1 1
1;
#X obj 113 499 sel 1;
#X obj 113 522 vsl 15 60 0 1 0 0 empty empty empty 0 -9 0 10 -262144
-1 -1 800 1;
#X obj 296 36 tgl 15 0 empty empty empty 17 7 0 10 -262144 -1 -1 1
1;
#X obj 66 198 tabwrite~ loop1;
#X obj 66 168 +~;
#X obj 33 135 r~ left;
#X obj 83 135 r~ right;
#X obj 568 409 phasor~;
#X obj 568 449 *~;
#X obj 601 438 r sampleSize;
#X obj 565 307 r sampleSize;
#X floatatom 645 382 12 0 0 0 - - -, f 12;
#X obj 566 346 expr 44100 / $f1;
#X floatatom 523 381 5 0 0 0 - - -, f 5;
#X obj 512 308 bng 15 250 50 0 empty empty empty 17 7 0 10 -262144
-1 -1;
#X text 478 384 speed;
#X text 470 299 normal;
#X text 472 311 speed;
#X text 460 398 manipulation;
#X obj 232 229 s sampleSize;
#X obj 296 106 timer;
#X obj 296 131 * 44.1;
#X floatatom 296 156 5 0 0 0 - - -, f 5;
#X obj 296 59 sel 1;
#X msg 317 82 bang;
#X obj 713 93 s loop1;
#X msg 713 71 resize 661500 \, const 0;
#X msg 695 17 reset;
#X text 737 17 clear loop;
#X msg 689 124 0;
#X obj 689 145 s sampleSize;
#X text 317 35 rec;
#X msg 296 178 resize \$1;
#X obj 567 611 dac~;
#X obj 569 577 *~;
#X obj 595 515 vsl 15 60 0 1 0 0 empty empty empty 0 -9 0 10 -262144
-1 -1 0 1;
#X obj 810 432 metro 50;
#X obj 810 410 tgl 15 0 empty empty empty 17 7 0 10 -262144 -1 -1 1
1;
#X obj 810 456 snapshot~;
#X floatatom 810 478 5 0 0 0 - - -, f 5;
#X obj 811 507 /;
#X obj 970 527 hsl 128 15 0 1 0 0 empty empty empty -2 -8 0 10 -262144
-1 -1 8314 1;
#X obj 841 495 r sampleSize;
#X obj 874 222 tgl 15 0 empty empty empty 17 7 0 10 -262144 -1 -1 1
1;
#X floatatom 874 315 5 0 0 0 - - -, f 5;
#X obj 874 292 / 100;
#X obj 874 269 random 100;
#X obj 874 244 metro 3000;
#X floatatom 980 250 5 0 0 0 - - -, f 5;
#X obj 924 53 table loop1 661500;
#X obj 568 474 tabread4~ loop1;
#X obj 296 202 s loop1;
#X obj 399 47 tgl 15 0 empty empty empty 17 7 0 10 -262144 -1 -1 1
1;
#X obj 399 69 metro 3000;
#X floatatom 505 75 5 0 0 0 - - -, f 5;
#X obj 458 35 random 10000;
#X obj 933 210 random 3000;
#X connect 0 0 4 0;
#X connect 0 1 3 0;
#X connect 2 0 1 0;
#X connect 2 0 1 1;
#X connect 5 0 2 0;
#X connect 6 0 2 0;
#X connect 7 0 8 0;
#X connect 8 0 9 0;
#X connect 8 1 2 1;
#X connect 9 0 2 1;
#X connect 10 0 31 0;
#X connect 12 0 11 0;
#X connect 13 0 12 0;
#X connect 14 0 12 1;
#X connect 15 0 16 0;
#X connect 16 0 46 0;
#X connect 16 0 58 0;
#X connect 17 0 16 1;
#X connect 18 0 20 0;
#X connect 20 0 19 0;
#X connect 20 0 15 0;
#X connect 21 0 15 0;
#X connect 22 0 20 0;
#X connect 28 0 29 0;
#X connect 29 0 30 0;
#X connect 30 0 40 0;
#X connect 30 0 27 0;
#X connect 31 0 28 0;
#X connect 31 0 11 0;
#X connect 31 1 32 0;
#X connect 32 0 28 1;
#X connect 34 0 33 0;
#X connect 35 0 37 0;
#X connect 35 0 34 0;
#X connect 37 0 38 0;
#X connect 40 0 59 0;
#X connect 42 0 41 0;
#X connect 42 0 41 1;
#X connect 43 0 42 1;
#X connect 44 0 46 0;
#X connect 45 0 44 0;
#X connect 46 0 47 0;
#X connect 47 0 48 0;
#X connect 48 0 49 0;
#X connect 50 0 48 1;
#X connect 51 0 55 0;
#X connect 52 0 15 1;
#X connect 53 0 52 0;
#X connect 54 0 53 0;
#X connect 55 0 54 0;
#X connect 55 0 64 0;
#X connect 58 0 42 0;
#X connect 60 0 61 0;
#X connect 61 0 10 0;
#X connect 61 0 63 0;
#X connect 63 0 61 1;
#X connect 63 0 62 0;
#X connect 64 0 55 1;
#X connect 64 0 56 0;
#X coords 0 0 1 1 85 25 0;
