#N canvas 532 605 1602 935 10;
#X obj 39 319 readsf~;
#X obj 117 106 sel 0 1 2 3 4 5 6 7 8 9 10 11 12 13 14 15, f 92;
#X obj 808 145 tgl 40 0 empty empty empty 17 7 0 10 -228856 -1 -1 0
1;
#X obj 848 145 tgl 40 0 empty empty empty 17 7 0 10 -262144 -1 -1 0
1;
#X obj 888 145 tgl 40 0 empty empty empty 17 7 0 10 -262144 -1 -1 0
1;
#X obj 928 145 tgl 40 0 empty empty empty 17 7 0 10 -262144 -1 -1 0
1;
#X obj 968 145 tgl 40 0 empty empty empty 17 7 0 10 -228856 -1 -1 0
1;
#X obj 1008 145 tgl 40 0 empty empty empty 17 7 0 10 -262144 -1 -1
0 1;
#X obj 1048 145 tgl 40 0 empty empty empty 17 7 0 10 -262144 -1 -1
0 1;
#X obj 1088 145 tgl 40 0 empty empty empty 17 7 0 10 -262144 -1 -1
0 1;
#X obj 1128 145 tgl 40 0 empty empty empty 17 7 0 10 -228856 -1 -1
0 1;
#X obj 1168 145 tgl 40 0 empty empty empty 17 7 0 10 -262144 -1 -1
0 1;
#X obj 1208 145 tgl 40 0 empty empty empty 17 7 0 10 -262144 -1 -1
0 1;
#X obj 1248 145 tgl 40 0 empty empty empty 17 7 0 10 -262144 -1 -1
0 1;
#X obj 1288 145 tgl 40 0 empty empty empty 17 7 0 10 -228856 -1 -1
0 1;
#X obj 1328 145 tgl 40 0 empty empty empty 17 7 0 10 -262144 -1 -1
0 1;
#X obj 1368 145 tgl 40 0 empty empty empty 17 7 0 10 -262144 -1 -1
0 1;
#X obj 1408 145 tgl 40 0 empty empty empty 17 7 0 10 -262144 -1 -1
0 1;
#X obj 117 185 f;
#X obj 157 185 f;
#X obj 197 185 f;
#X obj 237 185 f;
#X obj 277 185 f;
#X obj 317 185 f;
#X obj 357 185 f;
#X obj 397 185 f;
#X obj 437 185 f;
#X obj 477 185 f;
#X obj 517 185 f;
#X obj 557 185 f;
#X obj 597 185 f;
#X obj 637 185 f;
#X obj 677 185 f;
#X obj 717 185 f;
#X obj 39 200 sel 1;
#X msg 39 288 open ../samples/\$1.wav \, 1;
#X floatatom 39 266 5 0 0 0 - - -, f 5;
#X obj 8 18 inlet file;
#X obj 117 18 inlet current-step;
#X obj 39 350 outlet~;
#X connect 0 0 39 0;
#X connect 1 0 18 0;
#X connect 1 1 19 0;
#X connect 1 2 20 0;
#X connect 1 3 21 0;
#X connect 1 4 22 0;
#X connect 1 5 23 0;
#X connect 1 6 24 0;
#X connect 1 7 25 0;
#X connect 1 8 26 0;
#X connect 1 9 27 0;
#X connect 1 10 28 0;
#X connect 1 11 29 0;
#X connect 1 12 30 0;
#X connect 1 13 31 0;
#X connect 1 14 32 0;
#X connect 1 15 33 0;
#X connect 2 0 18 1;
#X connect 3 0 19 1;
#X connect 4 0 20 1;
#X connect 5 0 21 1;
#X connect 6 0 22 1;
#X connect 7 0 23 1;
#X connect 8 0 24 1;
#X connect 9 0 25 1;
#X connect 10 0 26 1;
#X connect 11 0 27 1;
#X connect 12 0 28 1;
#X connect 13 0 29 1;
#X connect 14 0 30 1;
#X connect 15 0 31 1;
#X connect 16 0 32 1;
#X connect 17 0 33 1;
#X connect 18 0 34 0;
#X connect 19 0 34 0;
#X connect 20 0 34 0;
#X connect 21 0 34 0;
#X connect 22 0 34 0;
#X connect 23 0 34 0;
#X connect 24 0 34 0;
#X connect 25 0 34 0;
#X connect 26 0 34 0;
#X connect 27 0 34 0;
#X connect 28 0 34 0;
#X connect 29 0 34 0;
#X connect 30 0 34 0;
#X connect 31 0 34 0;
#X connect 32 0 34 0;
#X connect 33 0 34 0;
#X connect 34 0 36 0;
#X connect 35 0 0 0;
#X connect 36 0 35 0;
#X connect 37 0 36 0;
#X connect 38 0 1 0;
#X coords 0 -1 1 1 660 60 1 800 130;
