#N canvas 249 191 816 549 10;
#X obj 232 346 readsf~;
#X msg 232 315 open ../samples/\$1.wav \, 1;
#X obj 47 44 inlet file;
#X obj 145 143 inlet current-step;
#X floatatom 192 255 5 0 0 0 - - -, f 5;
#X obj 192 281 moses 1;
#X obj 191 230 tabread \$0-table;
#X obj 47 196 tabwrite \$0-table;
#X obj 391 183 table \$0-table;
#X obj 232 378 s~ audio-\$1;
#X obj 542 203 s \$0-table;
#X msg 542 184 resize 32 \, const 0;
#X obj 542 165 loadbang;
#X obj 47 99 pipe 20;
#X text 100 100 compensate for some audio latency;
#X connect 0 0 9 0;
#X connect 1 0 0 0;
#X connect 2 0 13 0;
#X connect 3 0 6 0;
#X connect 3 0 7 1;
#X connect 4 0 5 0;
#X connect 5 1 1 0;
#X connect 6 0 4 0;
#X connect 11 0 10 0;
#X connect 12 0 11 0;
#X connect 13 0 7 0;
#X coords 0 549 1 548 50 50 0;
