#N canvas 13 38 1512 831 12;
#N canvas 142 38 1370 831 orbit-1 0;
#X obj 260 140 pitch-shifter~;
#X text 227 -42 Orbit 1;
#X obj 260 343 audio-delay~ 3000;
#X obj 123 140 pitch-shifter~;
#X obj 123 341 audio-delay~ 3000;
#X obj 203 44 adc~ 3 4;
#N canvas 251 159 875 434 volume-assignment 0;
#X msg 14 103 volume \$1;
#X obj 14 77 / 127;
#X obj 81 216 outlet;
#X msg 110 156 mute \$1;
#X obj 114 113 midi-toggle 12 18;
#X obj 14 47 midi-encoder 12 17;
#X msg 441 123 volume \$1;
#X obj 441 97 / 127;
#X msg 537 176 mute \$1;
#X obj 441 67 midi-encoder 12 1;
#X obj 541 133 midi-toggle 12 2;
#X obj 173 76 ctlout 12 1;
#X obj 534 97 ctlout 12 17;
#X obj 170 140 midi-led 12 18;
#X obj 608 160 midi-led 12 2;
#X obj 279 140 midi-led 12 2;
#X obj 712 160 midi-led 12 18;
#X connect 0 0 2 0;
#X connect 1 0 0 0;
#X connect 3 0 2 0;
#X connect 4 0 3 0;
#X connect 4 0 13 0;
#X connect 4 0 15 0;
#X connect 5 0 1 0;
#X connect 5 0 11 0;
#X connect 6 0 2 0;
#X connect 7 0 6 0;
#X connect 8 0 2 0;
#X connect 9 0 7 0;
#X connect 9 0 12 0;
#X connect 10 0 8 0;
#X connect 10 0 14 0;
#X connect 10 0 16 0;
#X restore -111 439 pd volume-assignment;
#X obj 123 266 distortion~;
#X obj 260 266 distortion~;
#X obj 123 459 line-control~;
#X obj 260 459 line-control~;
#X obj 260 526 reverb~;
#X obj 123 528 reverb~;
#N canvas 533 248 450 300 reverb-assignment 0;
#X obj 188 233 outlet;
#X obj 88 63 / 127;
#X msg 68 95 wet \$1;
#X msg 128 97 size \$1;
#X msg 271 183 wet 0;
#X msg 325 184 size 0;
#X obj 281 14 midi-button 13 18;
#X obj 87 31 midi-encoder 13 17;
#X obj 340 141 ctlout 13 17;
#X msg 340 113 0;
#X connect 1 0 2 0;
#X connect 1 0 3 0;
#X connect 2 0 0 0;
#X connect 3 0 0 0;
#X connect 4 0 0 0;
#X connect 5 0 0 0;
#X connect 6 0 5 0;
#X connect 6 0 4 0;
#X connect 6 0 9 0;
#X connect 7 0 1 0;
#X connect 9 0 8 0;
#X restore 479 506 pd reverb-assignment;
#N canvas 33 38 861 391 pitch-assignments 0;
#X obj 165 234 outlet;
#X obj 68 33 / 127;
#X obj 222 -25 midi-button 4 2;
#X msg 68 63 coarse \$1;
#X msg 266 51 coarse 1;
#X obj 378 33 / 127;
#X obj 532 -25 midi-button 4 2;
#X msg 576 51 width 0;
#X msg 379 63 width \$1;
#X obj 68 -49 midi-toggle 0 18;
#X obj 68 7 memory-encoder 0 17;
#X obj 378 -46 midi-toggle 1 18;
#X obj 378 7 memory-encoder 1 17;
#X obj 427 29 ctlout 1 17;
#X obj 114 29 ctlout 0 17;
#X obj 267 101 ctlout 0 17;
#X msg 269 76 127;
#X msg 579 82 0;
#X obj 578 110 ctlout 1 17;
#X obj 104 -22 midi-led 0 18;
#X obj 428 -21 midi-led 1 18;
#X connect 1 0 3 0;
#X connect 2 0 4 0;
#X connect 2 0 10 1;
#X connect 3 0 0 0;
#X connect 4 0 0 0;
#X connect 4 0 16 0;
#X connect 5 0 8 0;
#X connect 6 0 7 0;
#X connect 6 0 12 1;
#X connect 7 0 0 0;
#X connect 7 0 17 0;
#X connect 8 0 0 0;
#X connect 9 0 10 0;
#X connect 9 0 19 0;
#X connect 10 0 1 0;
#X connect 10 0 14 0;
#X connect 11 0 12 0;
#X connect 11 0 20 0;
#X connect 12 0 5 0;
#X connect 12 0 13 0;
#X connect 16 0 15 0;
#X connect 17 0 18 0;
#X restore -119 122 pd pitch-assignments;
#N canvas 1062 228 450 300 distortion-assignments 0;
#X obj 161 247 outlet;
#X obj 74 52 / 127;
#X obj 224 -6 midi-button 4 2;
#X msg 54 84 crossfade \$1;
#X msg 257 172 crossfade 0;
#X obj 74 -30 midi-toggle 4 18;
#X obj 74 26 memory-encoder 4 17;
#X obj 125 50 ctlout 4 17;
#X obj 265 228 ctlout 4 17;
#X msg 265 202 0;
#X obj 106 -1 midi-led 4 18;
#X connect 1 0 3 0;
#X connect 2 0 4 0;
#X connect 2 0 6 1;
#X connect 3 0 0 0;
#X connect 4 0 0 0;
#X connect 4 0 9 0;
#X connect 5 0 6 0;
#X connect 5 0 10 0;
#X connect 6 0 1 0;
#X connect 6 0 7 0;
#X connect 9 0 8 0;
#X restore -110 249 pd distortion-assignments;
#N canvas 711 134 648 406 delay-assignments 0;
#X obj 191 239 outlet;
#X obj 94 11 / 127;
#X obj 248 -47 midi-button 4 2;
#X msg 94 41 wet \$1;
#X msg 292 29 wet 0;
#X obj 94 -71 midi-toggle 5 18;
#X obj 94 -15 memory-encoder 5 17;
#X obj 324 141 / 127;
#X obj 478 83 midi-button 4 2;
#X msg 324 171 length \$1;
#X msg 522 159 length 0;
#X obj 324 64 midi-toggle 8 18;
#X obj 324 115 memory-encoder 8 17;
#X obj -30 78 midi-button 4 2;
#X msg -184 166 feedback \$1;
#X msg 14 154 feedback 0;
#X obj -184 45 midi-toggle 9 18;
#X obj -184 110 memory-encoder 9 17;
#X obj -183 141 / 127;
#X obj -127 139 ctlout 9 17;
#X obj 154 12 ctlout 5 17;
#X obj 372 141 ctlout 8 17;
#X obj 19 213 ctlout 9 17;
#X msg 18 186 0;
#X msg 215 58 0;
#X obj 216 85 ctlout 5 17;
#X msg 526 215 0;
#X obj 527 242 ctlout 8 17;
#X obj -161 75 midi-led 9 18;
#X obj 113 -45 midi-led 5 18;
#X obj 358 89 midi-led 8 18;
#X connect 1 0 3 0;
#X connect 2 0 4 0;
#X connect 2 0 6 1;
#X connect 3 0 0 0;
#X connect 4 0 0 0;
#X connect 4 0 24 0;
#X connect 5 0 6 0;
#X connect 5 0 29 0;
#X connect 6 0 1 0;
#X connect 6 0 20 0;
#X connect 7 0 9 0;
#X connect 8 0 10 0;
#X connect 8 0 12 1;
#X connect 9 0 0 0;
#X connect 10 0 0 0;
#X connect 10 0 26 0;
#X connect 11 0 12 0;
#X connect 11 0 30 0;
#X connect 12 0 7 0;
#X connect 12 0 21 0;
#X connect 13 0 15 0;
#X connect 13 0 17 1;
#X connect 14 0 0 0;
#X connect 15 0 0 0;
#X connect 15 0 23 0;
#X connect 16 0 17 0;
#X connect 16 0 28 0;
#X connect 17 0 18 0;
#X connect 17 0 19 0;
#X connect 18 0 14 0;
#X connect 23 0 22 0;
#X connect 24 0 25 0;
#X connect 26 0 27 0;
#X restore -98 321 pd delay-assignments;
#X obj 195 668 dac~;
#X connect 0 0 8 0;
#X connect 2 0 10 0;
#X connect 3 0 7 0;
#X connect 4 0 9 0;
#X connect 5 0 3 0;
#X connect 5 1 0 0;
#X connect 6 0 9 1;
#X connect 6 0 10 1;
#X connect 7 0 4 0;
#X connect 8 0 2 0;
#X connect 9 0 12 0;
#X connect 10 0 11 0;
#X connect 11 0 17 1;
#X connect 12 0 17 0;
#X connect 13 0 12 1;
#X connect 13 0 11 1;
#X connect 14 0 3 1;
#X connect 14 0 0 1;
#X connect 15 0 7 1;
#X connect 15 0 8 1;
#X connect 16 0 4 1;
#X connect 16 0 2 1;
#X coords 0 -1 1 1 300 550 1 100 100;
#X restore 34 76 pd orbit-1;
#X obj 591 11 midi-observer;
#X obj 33 16 loadbang-dsp;
#N canvas 142 38 1370 831 orbit-2 0;
#X obj 260 140 pitch-shifter~;
#X text 227 -42 Orbit 1;
#X obj 260 343 audio-delay~ 3000;
#X obj 123 140 pitch-shifter~;
#X obj 123 341 audio-delay~ 3000;
#N canvas 137 66 875 434 volume-assignment 0;
#X msg 14 103 volume \$1;
#X obj 14 77 / 127;
#X obj 81 216 outlet;
#X msg 110 156 mute \$1;
#X msg 441 123 volume \$1;
#X obj 441 97 / 127;
#X msg 537 176 mute \$1;
#X obj 14 47 midi-encoder 14 17;
#X obj 114 113 midi-toggle 14 18;
#X obj 173 76 ctlout 13 1;
#X obj 441 67 midi-encoder 13 1;
#X obj 534 97 ctlout 14 17;
#X obj 541 133 midi-toggle 13 2;
#X obj 181 148 midi-led 14 18;
#X obj 289 148 midi-led 13 2;
#X obj 610 164 midi-led 14 18;
#X obj 718 164 midi-led 13 2;
#X connect 0 0 2 0;
#X connect 1 0 0 0;
#X connect 3 0 2 0;
#X connect 4 0 2 0;
#X connect 5 0 4 0;
#X connect 6 0 2 0;
#X connect 7 0 1 0;
#X connect 7 0 9 0;
#X connect 8 0 3 0;
#X connect 8 0 13 0;
#X connect 8 0 14 0;
#X connect 10 0 5 0;
#X connect 10 0 11 0;
#X connect 12 0 6 0;
#X connect 12 0 15 0;
#X connect 12 0 16 0;
#X restore -111 439 pd volume-assignment;
#X obj 123 266 distortion~;
#X obj 260 266 distortion~;
#X obj 123 459 line-control~;
#X obj 260 459 line-control~;
#X obj 260 526 reverb~;
#X obj 123 528 reverb~;
#N canvas 533 248 450 300 reverb-assignment 0;
#X obj 188 233 outlet;
#X obj 88 63 / 127;
#X msg 68 95 wet \$1;
#X msg 128 97 size \$1;
#X msg 271 183 wet 0;
#X msg 325 184 size 0;
#X msg 340 113 0;
#X obj 87 31 midi-encoder 15 17;
#X obj 281 14 midi-button 15 18;
#X obj 340 141 ctlout 15 17;
#X connect 1 0 2 0;
#X connect 1 0 3 0;
#X connect 2 0 0 0;
#X connect 3 0 0 0;
#X connect 4 0 0 0;
#X connect 5 0 0 0;
#X connect 6 0 9 0;
#X connect 7 0 1 0;
#X connect 8 0 5 0;
#X connect 8 0 4 0;
#X connect 8 0 6 0;
#X restore 479 506 pd reverb-assignment;
#N canvas 150 130 861 391 pitch-assignments 0;
#X obj 165 234 outlet;
#X obj 68 33 / 127;
#X msg 68 63 coarse \$1;
#X msg 266 51 coarse 1;
#X obj 378 33 / 127;
#X msg 576 51 width 0;
#X msg 379 63 width \$1;
#X msg 269 76 127;
#X msg 579 82 0;
#X obj 68 -59 midi-toggle 2 18;
#X obj 68 7 memory-encoder 2 17;
#X obj 378 -58 midi-toggle 3 18;
#X obj 378 7 memory-encoder 3 17;
#X obj 114 29 ctlout 2 17;
#X obj 267 101 ctlout 2 17;
#X obj 578 110 ctlout 3 17;
#X obj 427 29 ctlout 3 17;
#X obj 222 -25 midi-button 5 2;
#X obj 532 -25 midi-button 5 2;
#X obj 97 -25 midi-led 2 18;
#X obj 396 -26 midi-led 3 18;
#X connect 1 0 2 0;
#X connect 2 0 0 0;
#X connect 3 0 0 0;
#X connect 3 0 7 0;
#X connect 4 0 6 0;
#X connect 5 0 0 0;
#X connect 5 0 8 0;
#X connect 6 0 0 0;
#X connect 7 0 14 0;
#X connect 8 0 15 0;
#X connect 9 0 10 0;
#X connect 9 0 19 0;
#X connect 10 0 1 0;
#X connect 10 0 13 0;
#X connect 11 0 12 0;
#X connect 11 0 20 0;
#X connect 12 0 4 0;
#X connect 12 0 16 0;
#X connect 17 0 3 0;
#X connect 17 0 10 1;
#X connect 18 0 5 0;
#X connect 18 0 12 1;
#X restore -119 122 pd pitch-assignments;
#N canvas 1062 228 450 300 distortion-assignments 0;
#X obj 161 247 outlet;
#X obj 74 52 / 127;
#X msg 54 84 crossfade \$1;
#X msg 257 172 crossfade 0;
#X msg 265 202 0;
#X obj 74 -30 midi-toggle 6 18;
#X obj 74 26 memory-encoder 6 17;
#X obj 125 50 ctlout 6 17;
#X obj 265 228 ctlout 6 17;
#X obj 224 -6 midi-button 5 2;
#X obj 95 -2 midi-led 6 18;
#X connect 1 0 2 0;
#X connect 2 0 0 0;
#X connect 3 0 0 0;
#X connect 3 0 4 0;
#X connect 4 0 8 0;
#X connect 5 0 6 0;
#X connect 5 0 10 0;
#X connect 6 0 1 0;
#X connect 6 0 7 0;
#X connect 9 0 3 0;
#X connect 9 0 6 1;
#X restore -110 249 pd distortion-assignments;
#N canvas 644 217 648 406 delay-assignments 0;
#X obj 191 239 outlet;
#X obj 94 11 / 127;
#X msg 94 41 wet \$1;
#X msg 292 29 wet 0;
#X obj 324 141 / 127;
#X msg 324 171 length \$1;
#X msg 522 159 length 0;
#X msg -184 166 feedback \$1;
#X msg 14 154 feedback 0;
#X obj -183 141 / 127;
#X msg 18 186 0;
#X msg 215 58 0;
#X msg 526 215 0;
#X obj -30 78 midi-button 5 2;
#X obj 248 -47 midi-button 5 2;
#X obj 478 83 midi-button 5 2;
#X obj 94 -81 midi-toggle 7 18;
#X obj 94 -15 memory-encoder 7 17;
#X obj 154 12 ctlout 7 17;
#X obj 216 85 ctlout 7 17;
#X obj 19 213 ctlout 11 17;
#X obj -127 139 ctlout 11 17;
#X obj -184 110 memory-encoder 11 17;
#X obj -184 44 midi-toggle 11 18;
#X obj 324 59 midi-toggle 10 18;
#X obj 324 115 memory-encoder 10 17;
#X obj 372 141 ctlout 10 17;
#X obj 527 242 ctlout 10 17;
#X obj -165 76 midi-led 11 18;
#X obj 121 -47 midi-led 7 18;
#X obj 362 87 midi-led 10 18;
#X connect 1 0 2 0;
#X connect 2 0 0 0;
#X connect 3 0 0 0;
#X connect 3 0 11 0;
#X connect 4 0 5 0;
#X connect 5 0 0 0;
#X connect 6 0 0 0;
#X connect 6 0 12 0;
#X connect 7 0 0 0;
#X connect 8 0 0 0;
#X connect 8 0 10 0;
#X connect 9 0 7 0;
#X connect 10 0 20 0;
#X connect 11 0 19 0;
#X connect 12 0 27 0;
#X connect 13 0 8 0;
#X connect 13 0 22 1;
#X connect 14 0 3 0;
#X connect 14 0 17 1;
#X connect 15 0 6 0;
#X connect 15 0 25 1;
#X connect 16 0 17 0;
#X connect 16 0 29 0;
#X connect 17 0 1 0;
#X connect 17 0 18 0;
#X connect 22 0 9 0;
#X connect 22 0 21 0;
#X connect 23 0 22 0;
#X connect 23 0 28 0;
#X connect 24 0 25 0;
#X connect 24 0 30 0;
#X connect 25 0 4 0;
#X connect 25 0 26 0;
#X restore -98 321 pd delay-assignments;
#X obj 195 668 dac~;
#X obj 203 44 adc~ 5 6;
#X connect 0 0 7 0;
#X connect 2 0 9 0;
#X connect 3 0 6 0;
#X connect 4 0 8 0;
#X connect 5 0 8 1;
#X connect 5 0 9 1;
#X connect 6 0 4 0;
#X connect 7 0 2 0;
#X connect 8 0 11 0;
#X connect 9 0 10 0;
#X connect 10 0 16 1;
#X connect 11 0 16 0;
#X connect 12 0 11 1;
#X connect 12 0 10 1;
#X connect 13 0 3 1;
#X connect 13 0 0 1;
#X connect 14 0 6 1;
#X connect 14 0 7 1;
#X connect 15 0 4 1;
#X connect 15 0 2 1;
#X connect 17 0 3 0;
#X connect 17 1 0 0;
#X coords 0 -1 1 1 300 550 1 100 100;
#X restore 338 76 pd orbit-2;
#N canvas 142 38 1370 831 orbit-3 0;
#X obj 260 140 pitch-shifter~;
#X obj 260 343 audio-delay~ 3000;
#X obj 123 140 pitch-shifter~;
#X obj 123 341 audio-delay~ 3000;
#N canvas 137 66 875 434 volume-assignment 0;
#X msg 14 103 volume \$1;
#X obj 14 77 / 127;
#X obj 81 216 outlet;
#X msg 110 156 mute \$1;
#X msg 441 123 volume \$1;
#X obj 441 97 / 127;
#X msg 537 176 mute \$1;
#X obj 14 47 midi-encoder 28 17;
#X obj 114 113 midi-toggle 28 18;
#X obj 534 97 ctlout 28 17;
#X obj 173 76 ctlout 14 1;
#X obj 441 67 midi-encoder 14 1;
#X obj 541 133 midi-toggle 14 2;
#X obj 178 145 midi-led 28 18;
#X obj 287 145 midi-led 14 2;
#X obj 609 175 midi-led 28 18;
#X obj 718 175 midi-led 14 2;
#X connect 0 0 2 0;
#X connect 1 0 0 0;
#X connect 3 0 2 0;
#X connect 4 0 2 0;
#X connect 5 0 4 0;
#X connect 6 0 2 0;
#X connect 7 0 1 0;
#X connect 7 0 10 0;
#X connect 8 0 3 0;
#X connect 8 0 13 0;
#X connect 8 0 14 0;
#X connect 11 0 5 0;
#X connect 11 0 9 0;
#X connect 12 0 6 0;
#X connect 12 0 15 0;
#X connect 12 0 16 0;
#X restore -111 439 pd volume-assignment;
#X obj 123 266 distortion~;
#X obj 260 266 distortion~;
#X obj 123 459 line-control~;
#X obj 260 459 line-control~;
#X obj 260 526 reverb~;
#X obj 123 528 reverb~;
#N canvas 533 248 450 300 reverb-assignment 0;
#X obj 188 233 outlet;
#X obj 88 63 / 127;
#X msg 68 95 wet \$1;
#X msg 128 97 size \$1;
#X msg 271 183 wet 0;
#X msg 325 184 size 0;
#X msg 340 113 0;
#X obj 87 31 midi-encoder 29 17;
#X obj 281 14 midi-button 29 18;
#X obj 340 141 ctlout 29 17;
#X connect 1 0 2 0;
#X connect 1 0 3 0;
#X connect 2 0 0 0;
#X connect 3 0 0 0;
#X connect 4 0 0 0;
#X connect 5 0 0 0;
#X connect 6 0 9 0;
#X connect 7 0 1 0;
#X connect 8 0 5 0;
#X connect 8 0 4 0;
#X connect 8 0 6 0;
#X restore 479 506 pd reverb-assignment;
#N canvas 651 393 861 391 pitch-assignments 0;
#X obj 165 234 outlet;
#X obj 68 33 / 127;
#X msg 68 63 coarse \$1;
#X msg 266 51 coarse 1;
#X obj 378 33 / 127;
#X msg 576 51 width 0;
#X msg 379 63 width \$1;
#X msg 269 76 127;
#X msg 579 82 0;
#X obj 68 -59 midi-toggle 16 18;
#X obj 68 7 memory-encoder 16 17;
#X obj 114 29 ctlout 16 17;
#X obj 267 101 ctlout 16 17;
#X obj 378 -59 midi-toggle 17 18;
#X obj 378 7 memory-encoder 17 17;
#X obj 427 29 ctlout 17 17;
#X obj 578 110 ctlout 17 17;
#X obj 222 -25 midi-button 6 2;
#X obj 532 -25 midi-button 6 2;
#X obj 88 -29 midi-led 16 18;
#X obj 397 -28 midi-led 17 18;
#X connect 1 0 2 0;
#X connect 2 0 0 0;
#X connect 3 0 0 0;
#X connect 3 0 7 0;
#X connect 4 0 6 0;
#X connect 5 0 0 0;
#X connect 5 0 8 0;
#X connect 6 0 0 0;
#X connect 7 0 12 0;
#X connect 8 0 16 0;
#X connect 9 0 10 0;
#X connect 9 0 19 0;
#X connect 10 0 1 0;
#X connect 10 0 11 0;
#X connect 13 0 14 0;
#X connect 13 0 20 0;
#X connect 14 0 4 0;
#X connect 14 0 15 0;
#X connect 17 0 3 0;
#X connect 17 0 10 1;
#X connect 18 0 5 0;
#X connect 18 0 14 1;
#X restore -119 122 pd pitch-assignments;
#N canvas 1062 228 450 300 distortion-assignments 0;
#X obj 161 247 outlet;
#X obj 74 52 / 127;
#X msg 54 84 crossfade \$1;
#X msg 257 172 crossfade 0;
#X msg 265 202 0;
#X obj 224 -6 midi-button 6 2;
#X obj 74 -50 midi-toggle 20 18;
#X obj 74 26 memory-encoder 20 17;
#X obj 125 50 ctlout 20 17;
#X obj 265 228 ctlout 20 17;
#X obj 104 -12 midi-led 20 18;
#X connect 1 0 2 0;
#X connect 2 0 0 0;
#X connect 3 0 0 0;
#X connect 3 0 4 0;
#X connect 4 0 9 0;
#X connect 5 0 3 0;
#X connect 5 0 7 1;
#X connect 6 0 7 0;
#X connect 6 0 10 0;
#X connect 7 0 1 0;
#X connect 7 0 8 0;
#X restore -110 249 pd distortion-assignments;
#N canvas 644 189 648 406 delay-assignments 0;
#X obj 191 239 outlet;
#X obj 94 11 / 127;
#X msg 94 41 wet \$1;
#X msg 292 29 wet 0;
#X obj 324 141 / 127;
#X msg 324 171 length \$1;
#X msg 522 159 length 0;
#X msg -184 166 feedback \$1;
#X msg 14 154 feedback 0;
#X obj -183 141 / 127;
#X msg 18 186 0;
#X msg 215 58 0;
#X msg 526 215 0;
#X obj -30 78 midi-button 6 2;
#X obj 248 -47 midi-button 6 2;
#X obj 478 83 midi-button 6 2;
#X obj 94 -91 midi-toggle 21 18;
#X obj 94 -15 memory-encoder 21 17;
#X obj 154 12 ctlout 21 17;
#X obj -184 24 midi-toggle 24 18;
#X obj -184 110 memory-encoder 24 17;
#X obj -127 139 ctlout 24 17;
#X obj 19 213 ctlout 24 17;
#X obj 181 85 ctlout 21 17;
#X obj 527 242 ctlout 25 17;
#X obj 324 53 midi-toggle 25 18;
#X obj 324 115 memory-encoder 25 17;
#X obj 372 141 ctlout 25 17;
#X obj -166 70 midi-led 24 18;
#X obj 115 -57 midi-led 21 18;
#X obj 356 82 midi-led 25 18;
#X connect 1 0 2 0;
#X connect 2 0 0 0;
#X connect 3 0 0 0;
#X connect 3 0 11 0;
#X connect 4 0 5 0;
#X connect 5 0 0 0;
#X connect 6 0 0 0;
#X connect 6 0 12 0;
#X connect 7 0 0 0;
#X connect 8 0 0 0;
#X connect 8 0 10 0;
#X connect 9 0 7 0;
#X connect 10 0 22 0;
#X connect 11 0 23 0;
#X connect 12 0 24 0;
#X connect 13 0 8 0;
#X connect 13 0 20 1;
#X connect 14 0 3 0;
#X connect 14 0 17 1;
#X connect 15 0 6 0;
#X connect 15 0 26 1;
#X connect 16 0 17 0;
#X connect 16 0 29 0;
#X connect 17 0 1 0;
#X connect 17 0 18 0;
#X connect 19 0 20 0;
#X connect 19 0 28 0;
#X connect 20 0 9 0;
#X connect 20 0 21 0;
#X connect 25 0 26 0;
#X connect 25 0 30 0;
#X connect 26 0 4 0;
#X connect 26 0 27 0;
#X restore -98 321 pd delay-assignments;
#X obj 195 668 dac~;
#X obj 203 44 adc~ 7 8;
#X text 227 -42 Orbit 3;
#X connect 0 0 6 0;
#X connect 1 0 8 0;
#X connect 2 0 5 0;
#X connect 3 0 7 0;
#X connect 4 0 7 1;
#X connect 4 0 8 1;
#X connect 5 0 3 0;
#X connect 6 0 1 0;
#X connect 7 0 10 0;
#X connect 8 0 9 0;
#X connect 9 0 15 1;
#X connect 10 0 15 0;
#X connect 11 0 10 1;
#X connect 11 0 9 1;
#X connect 12 0 2 1;
#X connect 12 0 0 1;
#X connect 13 0 5 1;
#X connect 13 0 6 1;
#X connect 14 0 3 1;
#X connect 14 0 1 1;
#X connect 16 0 2 0;
#X connect 16 1 0 0;
#X coords 0 -1 1 1 300 550 1 100 100;
#X restore 647 76 pd orbit-3;
#N canvas 142 38 1370 831 orbit-4 0;
#X obj 260 140 pitch-shifter~;
#X obj 260 343 audio-delay~ 3000;
#X obj 123 140 pitch-shifter~;
#X obj 123 341 audio-delay~ 3000;
#N canvas 137 66 875 434 volume-assignment 0;
#X msg 14 103 volume \$1;
#X obj 14 77 / 127;
#X obj 81 216 outlet;
#X msg 110 156 mute \$1;
#X msg 441 123 volume \$1;
#X obj 441 97 / 127;
#X msg 537 176 mute \$1;
#X obj 14 47 midi-encoder 30 17;
#X obj 114 113 midi-toggle 30 18;
#X obj 534 97 ctlout 30 17;
#X obj 173 76 ctlout 15 1;
#X obj 441 67 midi-encoder 15 1;
#X obj 541 133 midi-toggle 15 2;
#X obj 180 150 midi-led 30 18;
#X obj 290 150 midi-led 15 2;
#X obj 602 167 midi-led 30 18;
#X obj 712 167 midi-led 15 2;
#X connect 0 0 2 0;
#X connect 1 0 0 0;
#X connect 3 0 2 0;
#X connect 4 0 2 0;
#X connect 5 0 4 0;
#X connect 6 0 2 0;
#X connect 7 0 1 0;
#X connect 7 0 10 0;
#X connect 8 0 3 0;
#X connect 8 0 13 0;
#X connect 8 0 14 0;
#X connect 11 0 5 0;
#X connect 11 0 9 0;
#X connect 12 0 6 0;
#X connect 12 0 15 0;
#X connect 12 0 16 0;
#X restore -111 439 pd volume-assignment;
#X obj 123 266 distortion~;
#X obj 260 266 distortion~;
#X obj 123 459 line-control~;
#X obj 260 459 line-control~;
#X obj 260 526 reverb~;
#X obj 123 528 reverb~;
#N canvas 533 248 450 300 reverb-assignment 0;
#X obj 188 233 outlet;
#X obj 88 63 / 127;
#X msg 68 95 wet \$1;
#X msg 128 97 size \$1;
#X msg 271 183 wet 0;
#X msg 325 184 size 0;
#X msg 340 113 0;
#X obj 87 31 midi-encoder 31 17;
#X obj 281 14 midi-button 31 18;
#X obj 340 141 ctlout 31 17;
#X connect 1 0 2 0;
#X connect 1 0 3 0;
#X connect 2 0 0 0;
#X connect 3 0 0 0;
#X connect 4 0 0 0;
#X connect 5 0 0 0;
#X connect 6 0 9 0;
#X connect 7 0 1 0;
#X connect 8 0 5 0;
#X connect 8 0 4 0;
#X connect 8 0 6 0;
#X restore 479 506 pd reverb-assignment;
#N canvas 651 393 861 391 pitch-assignments 0;
#X obj 165 234 outlet;
#X obj 68 33 / 127;
#X msg 68 63 coarse \$1;
#X msg 266 51 coarse 1;
#X obj 378 33 / 127;
#X msg 576 51 width 0;
#X msg 379 63 width \$1;
#X msg 269 76 127;
#X msg 579 82 0;
#X obj 222 -25 midi-button 7 2;
#X obj 532 -25 midi-button 7 2;
#X obj 68 -69 midi-toggle 18 18;
#X obj 68 7 memory-encoder 18 17;
#X obj 114 29 ctlout 18 17;
#X obj 267 101 ctlout 18 17;
#X obj 378 -59 midi-toggle 19 18;
#X obj 378 7 memory-encoder 19 17;
#X obj 427 29 ctlout 19 17;
#X obj 578 110 ctlout 19 17;
#X obj 96 -32 midi-led 18 18;
#X obj 396 -32 midi-led 19 18;
#X connect 1 0 2 0;
#X connect 2 0 0 0;
#X connect 3 0 0 0;
#X connect 3 0 7 0;
#X connect 4 0 6 0;
#X connect 5 0 0 0;
#X connect 5 0 8 0;
#X connect 6 0 0 0;
#X connect 7 0 14 0;
#X connect 8 0 18 0;
#X connect 9 0 3 0;
#X connect 9 0 12 1;
#X connect 10 0 5 0;
#X connect 10 0 16 1;
#X connect 11 0 12 0;
#X connect 11 0 19 0;
#X connect 12 0 1 0;
#X connect 12 0 13 0;
#X connect 15 0 16 0;
#X connect 15 0 20 0;
#X connect 16 0 4 0;
#X connect 16 0 17 0;
#X restore -119 122 pd pitch-assignments;
#N canvas 1062 228 450 300 distortion-assignments 0;
#X obj 161 247 outlet;
#X obj 74 52 / 127;
#X msg 54 84 crossfade \$1;
#X msg 257 172 crossfade 0;
#X msg 265 202 0;
#X obj 74 -40 midi-toggle 22 18;
#X obj 74 26 memory-encoder 22 17;
#X obj 125 50 ctlout 22 17;
#X obj 224 -6 midi-button 7 2;
#X obj 265 228 ctlout 22 17;
#X obj 98 -9 midi-led 22 18;
#X connect 1 0 2 0;
#X connect 2 0 0 0;
#X connect 3 0 0 0;
#X connect 3 0 4 0;
#X connect 4 0 9 0;
#X connect 5 0 6 0;
#X connect 5 0 10 0;
#X connect 6 0 1 0;
#X connect 6 0 7 0;
#X connect 8 0 3 0;
#X connect 8 0 6 1;
#X restore -110 249 pd distortion-assignments;
#N canvas 644 189 648 406 delay-assignments 0;
#X obj 191 239 outlet;
#X obj 94 11 / 127;
#X msg 94 41 wet \$1;
#X msg 292 29 wet 0;
#X obj 324 141 / 127;
#X msg 324 171 length \$1;
#X msg 522 159 length 0;
#X msg -184 166 feedback \$1;
#X msg 14 154 feedback 0;
#X obj -183 141 / 127;
#X msg 18 186 0;
#X msg 215 58 0;
#X msg 526 215 0;
#X obj 94 -91 midi-toggle 23 18;
#X obj 94 -15 memory-encoder 23 17;
#X obj 154 12 ctlout 23 17;
#X obj 181 85 ctlout 23 17;
#X obj 248 -47 midi-button 7 2;
#X obj -30 78 midi-button 7 2;
#X obj 478 83 midi-button 7 2;
#X obj -184 34 midi-toggle 26 18;
#X obj -184 110 memory-encoder 26 17;
#X obj -127 139 ctlout 26 17;
#X obj 19 213 ctlout 26 17;
#X obj 324 52 midi-toggle 27 18;
#X obj 324 115 memory-encoder 27 17;
#X obj 372 141 ctlout 27 17;
#X obj 527 242 ctlout 27 17;
#X obj -166 72 midi-led 26 18;
#X obj 111 -54 midi-led 23 18;
#X obj 348 83 midi-led 27 18;
#X connect 1 0 2 0;
#X connect 2 0 0 0;
#X connect 3 0 0 0;
#X connect 3 0 11 0;
#X connect 4 0 5 0;
#X connect 5 0 0 0;
#X connect 6 0 0 0;
#X connect 6 0 12 0;
#X connect 7 0 0 0;
#X connect 8 0 0 0;
#X connect 8 0 10 0;
#X connect 9 0 7 0;
#X connect 10 0 23 0;
#X connect 11 0 16 0;
#X connect 12 0 27 0;
#X connect 13 0 14 0;
#X connect 13 0 29 0;
#X connect 14 0 1 0;
#X connect 14 0 15 0;
#X connect 17 0 3 0;
#X connect 17 0 14 1;
#X connect 18 0 8 0;
#X connect 18 0 21 1;
#X connect 19 0 6 0;
#X connect 19 0 25 1;
#X connect 20 0 21 0;
#X connect 20 0 28 0;
#X connect 21 0 9 0;
#X connect 21 0 22 0;
#X connect 24 0 25 0;
#X connect 24 0 30 0;
#X connect 25 0 4 0;
#X connect 25 0 26 0;
#X restore -98 321 pd delay-assignments;
#X obj 195 668 dac~;
#X text 227 -42 Orbit 3;
#X obj 203 44 adc~ 9 10;
#X connect 0 0 6 0;
#X connect 1 0 8 0;
#X connect 2 0 5 0;
#X connect 3 0 7 0;
#X connect 4 0 7 1;
#X connect 4 0 8 1;
#X connect 5 0 3 0;
#X connect 6 0 1 0;
#X connect 7 0 10 0;
#X connect 8 0 9 0;
#X connect 9 0 15 1;
#X connect 10 0 15 0;
#X connect 11 0 10 1;
#X connect 11 0 9 1;
#X connect 12 0 2 1;
#X connect 12 0 0 1;
#X connect 13 0 5 1;
#X connect 13 0 6 1;
#X connect 14 0 3 1;
#X connect 14 0 1 1;
#X connect 17 0 2 0;
#X connect 17 1 0 0;
#X coords 0 -1 1 1 300 550 1 100 100;
#X restore 960 75 pd orbit-4;
#N canvas 142 38 1370 831 orbit-5 0;
#X obj 260 140 pitch-shifter~;
#X obj 260 343 audio-delay~ 3000;
#X obj 123 140 pitch-shifter~;
#X obj 123 341 audio-delay~ 3000;
#N canvas 137 66 875 434 volume-assignment 0;
#X msg 14 103 volume \$1;
#X obj 14 77 / 127;
#X obj 81 216 outlet;
#X msg 110 156 mute \$1;
#X msg 441 123 volume \$1;
#X obj 441 97 / 127;
#X msg 537 176 mute \$1;
#X obj 173 76 ctlout 8 1;
#X obj 441 67 midi-encoder 8 1;
#X obj 541 133 midi-toggle 8 2;
#X obj 14 47 midi-encoder 44 17;
#X obj 114 113 midi-toggle 44 18;
#X obj 534 97 ctlout 44 17;
#X obj 179 150 midi-led 44 18;
#X obj 289 150 midi-led 8 2;
#X obj 610 165 midi-led 44 18;
#X obj 720 165 midi-led 8 2;
#X connect 0 0 2 0;
#X connect 1 0 0 0;
#X connect 3 0 2 0;
#X connect 4 0 2 0;
#X connect 5 0 4 0;
#X connect 6 0 2 0;
#X connect 8 0 5 0;
#X connect 8 0 12 0;
#X connect 9 0 6 0;
#X connect 9 0 15 0;
#X connect 9 0 16 0;
#X connect 10 0 1 0;
#X connect 10 0 7 0;
#X connect 11 0 3 0;
#X connect 11 0 13 0;
#X connect 11 0 14 0;
#X restore -111 439 pd volume-assignment;
#X obj 123 266 distortion~;
#X obj 260 266 distortion~;
#X obj 123 459 line-control~;
#X obj 260 459 line-control~;
#X obj 260 526 reverb~;
#X obj 123 528 reverb~;
#N canvas 533 248 450 300 reverb-assignment 0;
#X obj 188 233 outlet;
#X obj 88 63 / 127;
#X msg 68 95 wet \$1;
#X msg 128 97 size \$1;
#X msg 271 183 wet 0;
#X msg 325 184 size 0;
#X msg 340 113 0;
#X obj 87 31 midi-encoder 45 17;
#X obj 281 14 midi-button 45 18;
#X obj 340 141 ctlout 45 17;
#X connect 1 0 2 0;
#X connect 1 0 3 0;
#X connect 2 0 0 0;
#X connect 3 0 0 0;
#X connect 4 0 0 0;
#X connect 5 0 0 0;
#X connect 6 0 9 0;
#X connect 7 0 1 0;
#X connect 8 0 5 0;
#X connect 8 0 4 0;
#X connect 8 0 6 0;
#X restore 479 506 pd reverb-assignment;
#N canvas 651 393 861 391 pitch-assignments 0;
#X obj 165 234 outlet;
#X obj 68 33 / 127;
#X msg 68 63 coarse \$1;
#X msg 266 51 coarse 1;
#X obj 378 33 / 127;
#X msg 576 51 width 0;
#X msg 379 63 width \$1;
#X msg 269 76 127;
#X msg 579 82 0;
#X obj 68 -59 midi-toggle 32 18;
#X obj 68 7 memory-encoder 32 17;
#X obj 114 29 ctlout 32 17;
#X obj 378 -54 midi-toggle 33 18;
#X obj 378 7 memory-encoder 33 17;
#X obj 427 29 ctlout 33 17;
#X obj 222 -25 midi-button 0 2;
#X obj 532 -25 midi-button 0 2;
#X obj 267 101 ctlout 32 17;
#X obj 578 110 ctlout 33 17;
#X obj 92 -28 midi-led 32 18;
#X obj 398 -22 midi-led 33 18;
#X connect 1 0 2 0;
#X connect 2 0 0 0;
#X connect 3 0 0 0;
#X connect 3 0 7 0;
#X connect 4 0 6 0;
#X connect 5 0 0 0;
#X connect 5 0 8 0;
#X connect 6 0 0 0;
#X connect 7 0 17 0;
#X connect 8 0 18 0;
#X connect 9 0 10 0;
#X connect 9 0 19 0;
#X connect 10 0 1 0;
#X connect 10 0 11 0;
#X connect 12 0 13 0;
#X connect 12 0 20 0;
#X connect 13 0 4 0;
#X connect 13 0 14 0;
#X connect 15 0 3 0;
#X connect 15 0 10 1;
#X connect 16 0 5 0;
#X connect 16 0 13 1;
#X restore -119 122 pd pitch-assignments;
#N canvas 1062 228 450 300 distortion-assignments 0;
#X obj 161 247 outlet;
#X obj 74 52 / 127;
#X msg 54 84 crossfade \$1;
#X msg 257 172 crossfade 0;
#X msg 265 202 0;
#X obj 224 -6 midi-button 0 2;
#X obj 74 -50 midi-toggle 36 18;
#X obj 74 26 memory-encoder 36 17;
#X obj 125 50 ctlout 36 17;
#X obj 265 228 ctlout 36 17;
#X obj 92 -11 midi-led 36 18;
#X connect 1 0 2 0;
#X connect 2 0 0 0;
#X connect 3 0 0 0;
#X connect 3 0 4 0;
#X connect 4 0 9 0;
#X connect 5 0 3 0;
#X connect 5 0 7 1;
#X connect 6 0 7 0;
#X connect 6 0 10 0;
#X connect 7 0 1 0;
#X connect 7 0 8 0;
#X restore -110 249 pd distortion-assignments;
#N canvas 644 189 648 406 delay-assignments 0;
#X obj 191 239 outlet;
#X obj 94 11 / 127;
#X msg 94 41 wet \$1;
#X msg 292 29 wet 0;
#X obj 324 141 / 127;
#X msg 324 171 length \$1;
#X msg 522 159 length 0;
#X msg -184 166 feedback \$1;
#X msg 14 154 feedback 0;
#X obj -183 141 / 127;
#X msg -28 223 0;
#X msg 215 58 0;
#X msg 526 215 0;
#X obj 248 -47 midi-button 0 2;
#X obj 478 83 midi-button 0 2;
#X obj -30 78 midi-button 0 2;
#X obj 94 -91 midi-toggle 37 18;
#X obj 94 -15 memory-encoder 37 17;
#X obj 154 12 ctlout 37 17;
#X obj 181 85 ctlout 37 17;
#X obj -184 34 midi-toggle 40 18;
#X obj -184 110 memory-encoder 40 17;
#X obj -127 139 ctlout 40 17;
#X obj 324 59 midi-toggle 41 18;
#X obj 324 115 memory-encoder 41 17;
#X obj 372 141 ctlout 41 17;
#X obj 527 242 ctlout 41 17;
#X obj -27 250 ctlout 40 17;
#X obj -159 72 midi-led 40 18;
#X obj 119 -54 midi-led 37 18;
#X obj 355 86 midi-led 41 18;
#X connect 1 0 2 0;
#X connect 2 0 0 0;
#X connect 3 0 0 0;
#X connect 3 0 11 0;
#X connect 4 0 5 0;
#X connect 5 0 0 0;
#X connect 6 0 0 0;
#X connect 6 0 12 0;
#X connect 7 0 0 0;
#X connect 8 0 0 0;
#X connect 8 0 10 0;
#X connect 9 0 7 0;
#X connect 10 0 27 0;
#X connect 11 0 19 0;
#X connect 12 0 26 0;
#X connect 13 0 3 0;
#X connect 13 0 17 1;
#X connect 14 0 6 0;
#X connect 14 0 24 1;
#X connect 15 0 8 0;
#X connect 15 0 21 1;
#X connect 16 0 17 0;
#X connect 16 0 29 0;
#X connect 17 0 1 0;
#X connect 17 0 18 0;
#X connect 20 0 21 0;
#X connect 20 0 28 0;
#X connect 21 0 9 0;
#X connect 21 0 22 0;
#X connect 23 0 24 0;
#X connect 23 0 30 0;
#X connect 24 0 4 0;
#X connect 24 0 25 0;
#X restore -98 321 pd delay-assignments;
#X obj 195 668 dac~;
#X obj 203 44 adc~ 11 12;
#X text 227 -42 Orbit 5;
#X connect 0 0 6 0;
#X connect 1 0 8 0;
#X connect 2 0 5 0;
#X connect 3 0 7 0;
#X connect 4 0 7 1;
#X connect 4 0 8 1;
#X connect 5 0 3 0;
#X connect 6 0 1 0;
#X connect 7 0 10 0;
#X connect 8 0 9 0;
#X connect 9 0 15 1;
#X connect 10 0 15 0;
#X connect 11 0 10 1;
#X connect 11 0 9 1;
#X connect 12 0 2 1;
#X connect 12 0 0 1;
#X connect 13 0 5 1;
#X connect 13 0 6 1;
#X connect 14 0 3 1;
#X connect 14 0 1 1;
#X connect 16 0 2 0;
#X connect 16 1 0 0;
#X coords 0 -1 1 1 300 550 1 100 100;
#X restore 34 632 pd orbit-5;
#N canvas 142 38 1370 831 orbit-6 0;
#X obj 260 140 pitch-shifter~;
#X obj 260 343 audio-delay~ 3000;
#X obj 123 140 pitch-shifter~;
#X obj 123 341 audio-delay~ 3000;
#N canvas 137 66 875 434 volume-assignment 0;
#X msg 14 103 volume \$1;
#X obj 14 77 / 127;
#X obj 81 216 outlet;
#X msg 110 156 mute \$1;
#X msg 441 123 volume \$1;
#X obj 441 97 / 127;
#X msg 537 176 mute \$1;
#X obj 14 47 midi-encoder 46 17;
#X obj 114 113 midi-toggle 46 18;
#X obj 534 97 ctlout 46 17;
#X obj 173 72 ctlout 9 1;
#X obj 441 67 midi-encoder 9 1;
#X obj 541 133 midi-toggle 9 2;
#X obj 182 145 midi-led 46 18;
#X obj 292 145 midi-led 9 2;
#X obj 609 163 midi-led 46 18;
#X obj 719 163 midi-led 9 2;
#X connect 0 0 2 0;
#X connect 1 0 0 0;
#X connect 3 0 2 0;
#X connect 4 0 2 0;
#X connect 5 0 4 0;
#X connect 6 0 2 0;
#X connect 7 0 1 0;
#X connect 7 0 10 0;
#X connect 8 0 3 0;
#X connect 8 0 13 0;
#X connect 8 0 14 0;
#X connect 11 0 5 0;
#X connect 11 0 9 0;
#X connect 12 0 6 0;
#X connect 12 0 15 0;
#X connect 12 0 16 0;
#X restore -111 439 pd volume-assignment;
#X obj 123 266 distortion~;
#X obj 260 266 distortion~;
#X obj 123 459 line-control~;
#X obj 260 459 line-control~;
#X obj 260 526 reverb~;
#X obj 123 528 reverb~;
#N canvas 533 248 450 300 reverb-assignment 0;
#X obj 188 233 outlet;
#X obj 88 63 / 127;
#X msg 68 95 wet \$1;
#X msg 128 97 size \$1;
#X msg 271 183 wet 0;
#X msg 325 184 size 0;
#X msg 340 113 0;
#X obj 87 31 midi-encoder 47 17;
#X obj 281 14 midi-button 47 18;
#X obj 340 141 ctlout 47 17;
#X connect 1 0 2 0;
#X connect 1 0 3 0;
#X connect 2 0 0 0;
#X connect 3 0 0 0;
#X connect 4 0 0 0;
#X connect 5 0 0 0;
#X connect 6 0 9 0;
#X connect 7 0 1 0;
#X connect 8 0 5 0;
#X connect 8 0 4 0;
#X connect 8 0 6 0;
#X restore 479 506 pd reverb-assignment;
#N canvas 651 393 861 391 pitch-assignments 0;
#X obj 165 234 outlet;
#X obj 68 33 / 127;
#X msg 68 63 coarse \$1;
#X msg 266 51 coarse 1;
#X obj 378 33 / 127;
#X msg 576 51 width 0;
#X msg 379 63 width \$1;
#X msg 269 76 127;
#X msg 579 82 0;
#X obj 68 -59 midi-toggle 34 18;
#X obj 68 7 memory-encoder 34 17;
#X obj 114 29 ctlout 34 17;
#X obj 378 -59 midi-toggle 35 18;
#X obj 378 7 memory-encoder 35 17;
#X obj 427 29 ctlout 35 17;
#X obj 222 -25 midi-button 1 2;
#X obj 532 -25 midi-button 1 2;
#X obj 578 110 ctlout 35 17;
#X obj 134 106 ctlout 34 17;
#X obj 86 -27 midi-led 34 18;
#X obj 400 -27 midi-led 35 18;
#X connect 1 0 2 0;
#X connect 2 0 0 0;
#X connect 3 0 0 0;
#X connect 3 0 7 0;
#X connect 4 0 6 0;
#X connect 5 0 0 0;
#X connect 5 0 8 0;
#X connect 6 0 0 0;
#X connect 7 0 18 0;
#X connect 8 0 17 0;
#X connect 9 0 10 0;
#X connect 9 0 19 0;
#X connect 10 0 1 0;
#X connect 10 0 11 0;
#X connect 12 0 13 0;
#X connect 12 0 20 0;
#X connect 13 0 4 0;
#X connect 13 0 14 0;
#X connect 15 0 3 0;
#X connect 15 0 10 1;
#X connect 16 0 5 0;
#X connect 16 0 13 1;
#X restore -119 122 pd pitch-assignments;
#N canvas 1062 228 450 300 distortion-assignments 0;
#X obj 161 247 outlet;
#X obj 74 52 / 127;
#X msg 54 84 crossfade \$1;
#X msg 257 172 crossfade 0;
#X msg 265 202 0;
#X obj 224 -6 midi-button 1 2;
#X obj 74 -60 midi-toggle 38 18;
#X obj 74 26 memory-encoder 38 17;
#X obj 125 50 ctlout 38 17;
#X obj 265 228 ctlout 38 17;
#X obj 95 -19 midi-led 38 18;
#X connect 1 0 2 0;
#X connect 2 0 0 0;
#X connect 3 0 0 0;
#X connect 3 0 4 0;
#X connect 4 0 9 0;
#X connect 5 0 3 0;
#X connect 5 0 7 1;
#X connect 6 0 7 0;
#X connect 6 0 10 0;
#X connect 7 0 1 0;
#X connect 7 0 8 0;
#X restore -110 249 pd distortion-assignments;
#N canvas 864 210 648 406 delay-assignments 0;
#X obj 191 239 outlet;
#X obj 94 11 / 127;
#X msg 94 41 wet \$1;
#X msg 292 29 wet 0;
#X obj 324 141 / 127;
#X msg 324 171 length \$1;
#X msg 522 159 length 0;
#X msg -184 166 feedback \$1;
#X msg 14 154 feedback 0;
#X obj -183 141 / 127;
#X msg -28 223 0;
#X msg 215 58 0;
#X msg 526 215 0;
#X obj 248 -47 midi-button 1 2;
#X obj -30 78 midi-button 1 2;
#X obj 478 83 midi-button 1 2;
#X obj 94 -81 midi-toggle 39 18;
#X obj 94 -15 memory-encoder 39 17;
#X obj 154 12 ctlout 39 17;
#X obj -184 24 midi-toggle 42 18;
#X obj -184 110 memory-encoder 42 17;
#X obj -127 139 ctlout 42 17;
#X obj -27 250 ctlout 42 17;
#X obj 324 54 midi-toggle 43 18;
#X obj 324 115 memory-encoder 43 17;
#X obj 372 141 ctlout 43 17;
#X obj 527 242 ctlout 43 17;
#X obj 181 85 ctlout 39 17;
#X obj -167 68 midi-led 42 18;
#X obj 112 -51 midi-led 39 18;
#X obj 338 84 midi-led 43 18;
#X connect 1 0 2 0;
#X connect 2 0 0 0;
#X connect 3 0 0 0;
#X connect 3 0 11 0;
#X connect 4 0 5 0;
#X connect 5 0 0 0;
#X connect 6 0 0 0;
#X connect 6 0 12 0;
#X connect 7 0 0 0;
#X connect 8 0 0 0;
#X connect 8 0 10 0;
#X connect 9 0 7 0;
#X connect 10 0 22 0;
#X connect 11 0 27 0;
#X connect 12 0 26 0;
#X connect 13 0 3 0;
#X connect 13 0 17 1;
#X connect 14 0 8 0;
#X connect 14 0 20 1;
#X connect 15 0 6 0;
#X connect 15 0 24 1;
#X connect 16 0 17 0;
#X connect 16 0 29 0;
#X connect 17 0 1 0;
#X connect 17 0 18 0;
#X connect 19 0 20 0;
#X connect 19 0 28 0;
#X connect 20 0 9 0;
#X connect 20 0 21 0;
#X connect 23 0 24 0;
#X connect 23 0 30 0;
#X connect 24 0 4 0;
#X connect 24 0 25 0;
#X restore -98 321 pd delay-assignments;
#X obj 195 668 dac~;
#X obj 203 44 adc~ 13 14;
#X text 227 -42 Orbit 6;
#X connect 0 0 6 0;
#X connect 1 0 8 0;
#X connect 2 0 5 0;
#X connect 3 0 7 0;
#X connect 4 0 7 1;
#X connect 4 0 8 1;
#X connect 5 0 3 0;
#X connect 6 0 1 0;
#X connect 7 0 10 0;
#X connect 8 0 9 0;
#X connect 9 0 15 1;
#X connect 10 0 15 0;
#X connect 11 0 10 1;
#X connect 11 0 9 1;
#X connect 12 0 2 1;
#X connect 12 0 0 1;
#X connect 13 0 5 1;
#X connect 13 0 6 1;
#X connect 14 0 3 1;
#X connect 14 0 1 1;
#X connect 16 0 2 0;
#X connect 16 1 0 0;
#X coords 0 -1 1 1 300 550 1 100 100;
#X restore 340 633 pd orbit-6;
#N canvas 142 38 1370 831 orbit-7 0;
#X obj 260 140 pitch-shifter~;
#X obj 260 343 audio-delay~ 3000;
#X obj 123 140 pitch-shifter~;
#X obj 123 341 audio-delay~ 3000;
#N canvas 137 66 875 434 volume-assignment 0;
#X msg 14 103 volume \$1;
#X obj 14 77 / 127;
#X obj 81 216 outlet;
#X msg 110 156 mute \$1;
#X msg 441 123 volume \$1;
#X obj 441 97 / 127;
#X msg 537 176 mute \$1;
#X obj 441 67 midi-encoder 10 1;
#X obj 541 133 midi-toggle 10 2;
#X obj 173 72 ctlout 10 1;
#X obj 14 47 midi-encoder 60 17;
#X obj 114 113 midi-toggle 60 18;
#X obj 534 97 ctlout 60 17;
#X obj 176 144 midi-led 60 18;
#X obj 286 144 midi-led 10 2;
#X obj 606 164 midi-led 60 18;
#X obj 716 164 midi-led 10 2;
#X connect 0 0 2 0;
#X connect 1 0 0 0;
#X connect 3 0 2 0;
#X connect 4 0 2 0;
#X connect 5 0 4 0;
#X connect 6 0 2 0;
#X connect 7 0 5 0;
#X connect 7 0 12 0;
#X connect 8 0 6 0;
#X connect 8 0 15 0;
#X connect 8 0 16 0;
#X connect 10 0 1 0;
#X connect 10 0 9 0;
#X connect 11 0 3 0;
#X connect 11 0 13 0;
#X connect 11 0 14 0;
#X restore -111 439 pd volume-assignment;
#X obj 123 266 distortion~;
#X obj 260 266 distortion~;
#X obj 123 459 line-control~;
#X obj 260 459 line-control~;
#X obj 260 526 reverb~;
#X obj 123 528 reverb~;
#N canvas 533 248 450 300 reverb-assignment 0;
#X obj 188 233 outlet;
#X obj 88 63 / 127;
#X msg 68 95 wet \$1;
#X msg 128 97 size \$1;
#X msg 271 183 wet 0;
#X msg 325 184 size 0;
#X msg 340 113 0;
#X obj 87 31 midi-encoder 61 17;
#X obj 281 14 midi-button 61 18;
#X obj 340 141 ctlout 61 17;
#X connect 1 0 2 0;
#X connect 1 0 3 0;
#X connect 2 0 0 0;
#X connect 3 0 0 0;
#X connect 4 0 0 0;
#X connect 5 0 0 0;
#X connect 6 0 9 0;
#X connect 7 0 1 0;
#X connect 8 0 5 0;
#X connect 8 0 4 0;
#X connect 8 0 6 0;
#X restore 479 506 pd reverb-assignment;
#N canvas 651 393 861 391 pitch-assignments 0;
#X obj 165 234 outlet;
#X obj 68 33 / 127;
#X msg 68 63 coarse \$1;
#X msg 266 51 coarse 1;
#X obj 378 33 / 127;
#X msg 576 51 width 0;
#X msg 379 63 width \$1;
#X msg 269 76 127;
#X msg 579 82 0;
#X obj 68 -69 midi-toggle 48 18;
#X obj 68 7 memory-encoder 48 17;
#X obj 114 29 ctlout 48 17;
#X obj 147 64 ctlout 48 17;
#X obj 378 -59 midi-toggle 49 18;
#X obj 378 7 memory-encoder 49 17;
#X obj 427 29 ctlout 49 17;
#X obj 532 -25 midi-button 2 2;
#X obj 222 -25 midi-button 2 2;
#X obj 456 61 ctlout 49 17;
#X obj 82 -36 midi-led 48 18;
#X obj 391 -28 midi-led 49 18;
#X connect 1 0 2 0;
#X connect 2 0 0 0;
#X connect 3 0 0 0;
#X connect 3 0 7 0;
#X connect 4 0 6 0;
#X connect 5 0 0 0;
#X connect 5 0 8 0;
#X connect 6 0 0 0;
#X connect 7 0 12 0;
#X connect 8 0 18 0;
#X connect 9 0 10 0;
#X connect 9 0 19 0;
#X connect 10 0 1 0;
#X connect 10 0 11 0;
#X connect 13 0 14 0;
#X connect 13 0 20 0;
#X connect 14 0 4 0;
#X connect 14 0 15 0;
#X connect 16 0 5 0;
#X connect 16 0 14 1;
#X connect 17 0 3 0;
#X connect 17 0 10 1;
#X restore -119 122 pd pitch-assignments;
#N canvas 1062 228 450 300 distortion-assignments 0;
#X obj 161 247 outlet;
#X obj 74 52 / 127;
#X msg 54 84 crossfade \$1;
#X msg 257 172 crossfade 0;
#X msg 265 202 0;
#X obj 74 -40 midi-toggle 52 18;
#X obj 74 26 memory-encoder 52 17;
#X obj 125 50 ctlout 52 17;
#X obj 265 228 ctlout 52 17;
#X obj 224 -6 midi-button 2 2;
#X obj 92 -8 midi-led 52 18;
#X connect 1 0 2 0;
#X connect 2 0 0 0;
#X connect 3 0 0 0;
#X connect 3 0 4 0;
#X connect 4 0 8 0;
#X connect 5 0 6 0;
#X connect 5 0 10 0;
#X connect 6 0 1 0;
#X connect 6 0 7 0;
#X connect 9 0 3 0;
#X connect 9 0 6 1;
#X restore -110 249 pd distortion-assignments;
#N canvas 864 210 648 406 delay-assignments 0;
#X obj 191 239 outlet;
#X obj 94 11 / 127;
#X msg 94 41 wet \$1;
#X msg 292 29 wet 0;
#X obj 324 141 / 127;
#X msg 324 171 length \$1;
#X msg 522 159 length 0;
#X msg -184 166 feedback \$1;
#X msg 14 154 feedback 0;
#X obj -183 141 / 127;
#X msg -28 223 0;
#X msg 215 58 0;
#X msg 526 215 0;
#X obj 94 -91 midi-toggle 53 18;
#X obj 94 -15 memory-encoder 53 17;
#X obj 154 12 ctlout 53 17;
#X obj 181 85 ctlout 53 17;
#X obj 248 -47 midi-button 2 2;
#X obj 478 83 midi-button 2 2;
#X obj -30 78 midi-button 2 2;
#X obj -184 34 midi-toggle 56 18;
#X obj -184 110 memory-encoder 56 17;
#X obj -127 139 ctlout 56 17;
#X obj -27 250 ctlout 56 17;
#X obj 324 59 midi-toggle 57 18;
#X obj 324 115 memory-encoder 57 17;
#X obj 372 141 ctlout 57 17;
#X obj 527 242 ctlout 57 17;
#X obj -162 70 midi-led 56 18;
#X obj 117 -57 midi-led 53 18;
#X obj 343 87 midi-led 57 18;
#X connect 1 0 2 0;
#X connect 2 0 0 0;
#X connect 3 0 0 0;
#X connect 3 0 11 0;
#X connect 4 0 5 0;
#X connect 5 0 0 0;
#X connect 6 0 0 0;
#X connect 6 0 12 0;
#X connect 7 0 0 0;
#X connect 8 0 0 0;
#X connect 8 0 10 0;
#X connect 9 0 7 0;
#X connect 10 0 23 0;
#X connect 11 0 16 0;
#X connect 12 0 27 0;
#X connect 13 0 14 0;
#X connect 13 0 29 0;
#X connect 14 0 1 0;
#X connect 14 0 15 0;
#X connect 17 0 3 0;
#X connect 17 0 14 1;
#X connect 18 0 6 0;
#X connect 18 0 25 1;
#X connect 19 0 8 0;
#X connect 19 0 21 1;
#X connect 20 0 21 0;
#X connect 20 0 28 0;
#X connect 21 0 9 0;
#X connect 21 0 22 0;
#X connect 24 0 25 0;
#X connect 24 0 30 0;
#X connect 25 0 4 0;
#X connect 25 0 26 0;
#X restore -98 321 pd delay-assignments;
#X obj 195 668 dac~;
#X obj 203 44 adc~ 15 16;
#X text 227 -42 Orbit 7;
#X connect 0 0 6 0;
#X connect 1 0 8 0;
#X connect 2 0 5 0;
#X connect 3 0 7 0;
#X connect 4 0 7 1;
#X connect 4 0 8 1;
#X connect 5 0 3 0;
#X connect 6 0 1 0;
#X connect 7 0 10 0;
#X connect 8 0 9 0;
#X connect 9 0 15 1;
#X connect 10 0 15 0;
#X connect 11 0 10 1;
#X connect 11 0 9 1;
#X connect 12 0 2 1;
#X connect 12 0 0 1;
#X connect 13 0 5 1;
#X connect 13 0 6 1;
#X connect 14 0 3 1;
#X connect 14 0 1 1;
#X connect 16 0 2 0;
#X connect 16 1 0 0;
#X coords 0 -1 1 1 300 550 1 100 100;
#X restore 648 634 pd orbit-7;
#N canvas 142 38 1370 831 orbit-8 0;
#X obj 260 140 pitch-shifter~;
#X obj 260 343 audio-delay~ 3000;
#X obj 123 140 pitch-shifter~;
#X obj 123 341 audio-delay~ 3000;
#N canvas 137 66 875 434 volume-assignment 0;
#X msg 14 103 volume \$1;
#X obj 14 77 / 127;
#X obj 81 216 outlet;
#X msg 110 156 mute \$1;
#X msg 441 123 volume \$1;
#X obj 441 97 / 127;
#X msg 537 176 mute \$1;
#X obj 14 47 midi-encoder 62 17;
#X obj 114 113 midi-toggle 62 18;
#X obj 534 97 ctlout 62 17;
#X obj 173 72 ctlout 11 1;
#X obj 441 67 midi-encoder 11 1;
#X obj 541 133 midi-toggle 11 2;
#X obj 183 147 midi-led 62 18;
#X obj 293 147 midi-led 11 2;
#X obj 614 163 midi-led 62 18;
#X obj 724 163 midi-led 11 2;
#X connect 0 0 2 0;
#X connect 1 0 0 0;
#X connect 3 0 2 0;
#X connect 4 0 2 0;
#X connect 5 0 4 0;
#X connect 6 0 2 0;
#X connect 7 0 1 0;
#X connect 7 0 10 0;
#X connect 8 0 3 0;
#X connect 8 0 13 0;
#X connect 8 0 14 0;
#X connect 11 0 5 0;
#X connect 11 0 9 0;
#X connect 12 0 6 0;
#X connect 12 0 15 0;
#X connect 12 0 16 0;
#X restore -111 439 pd volume-assignment;
#X obj 123 266 distortion~;
#X obj 260 266 distortion~;
#X obj 123 459 line-control~;
#X obj 260 459 line-control~;
#X obj 260 526 reverb~;
#X obj 123 528 reverb~;
#N canvas 533 248 450 300 reverb-assignment 0;
#X obj 188 233 outlet;
#X obj 88 63 / 127;
#X msg 68 95 wet \$1;
#X msg 128 97 size \$1;
#X msg 271 183 wet 0;
#X msg 325 184 size 0;
#X msg 340 113 0;
#X obj 87 31 midi-encoder 63 17;
#X obj 281 14 midi-button 63 18;
#X obj 340 141 ctlout 63 17;
#X connect 1 0 2 0;
#X connect 1 0 3 0;
#X connect 2 0 0 0;
#X connect 3 0 0 0;
#X connect 4 0 0 0;
#X connect 5 0 0 0;
#X connect 6 0 9 0;
#X connect 7 0 1 0;
#X connect 8 0 5 0;
#X connect 8 0 4 0;
#X connect 8 0 6 0;
#X restore 479 506 pd reverb-assignment;
#N canvas 651 393 861 391 pitch-assignments 0;
#X obj 165 234 outlet;
#X obj 68 33 / 127;
#X msg 68 63 coarse \$1;
#X msg 266 51 coarse 1;
#X obj 378 33 / 127;
#X msg 576 51 width 0;
#X msg 379 63 width \$1;
#X msg 269 76 127;
#X msg 579 82 0;
#X obj 68 -59 midi-toggle 50 18;
#X obj 68 7 memory-encoder 50 17;
#X obj 114 29 ctlout 50 17;
#X obj 147 64 ctlout 50 17;
#X obj 222 -25 midi-button 3 2;
#X obj 532 -25 midi-button 3 2;
#X obj 378 -55 midi-toggle 51 18;
#X obj 378 7 memory-encoder 51 17;
#X obj 427 29 ctlout 51 17;
#X obj 456 61 ctlout 51 17;
#X obj 84 -29 midi-led 50 18;
#X obj 395 -25 midi-led 51 18;
#X connect 1 0 2 0;
#X connect 2 0 0 0;
#X connect 3 0 0 0;
#X connect 3 0 7 0;
#X connect 4 0 6 0;
#X connect 5 0 0 0;
#X connect 5 0 8 0;
#X connect 6 0 0 0;
#X connect 7 0 12 0;
#X connect 8 0 18 0;
#X connect 9 0 10 0;
#X connect 9 0 19 0;
#X connect 10 0 1 0;
#X connect 10 0 11 0;
#X connect 13 0 3 0;
#X connect 13 0 10 1;
#X connect 14 0 5 0;
#X connect 14 0 16 1;
#X connect 15 0 16 0;
#X connect 15 0 20 0;
#X connect 16 0 4 0;
#X connect 16 0 17 0;
#X restore -119 122 pd pitch-assignments;
#N canvas 1062 228 450 300 distortion-assignments 0;
#X obj 161 247 outlet;
#X obj 74 52 / 127;
#X msg 54 84 crossfade \$1;
#X msg 257 172 crossfade 0;
#X msg 265 202 0;
#X obj 74 -50 midi-toggle 54 18;
#X obj 74 26 memory-encoder 54 17;
#X obj 125 50 ctlout 54 17;
#X obj 235 -8 midi-button 3 2;
#X obj 265 228 ctlout 54 17;
#X obj 89 -12 midi-led 54 18;
#X connect 1 0 2 0;
#X connect 2 0 0 0;
#X connect 3 0 0 0;
#X connect 3 0 4 0;
#X connect 4 0 9 0;
#X connect 5 0 6 0;
#X connect 5 0 10 0;
#X connect 6 0 1 0;
#X connect 6 0 7 0;
#X connect 8 0 3 0;
#X connect 8 0 6 1;
#X restore -110 249 pd distortion-assignments;
#N canvas 864 210 648 406 delay-assignments 0;
#X obj 191 239 outlet;
#X obj 94 11 / 127;
#X msg 94 41 wet \$1;
#X msg 292 29 wet 0;
#X obj 324 141 / 127;
#X msg 324 171 length \$1;
#X msg 522 159 length 0;
#X msg -184 166 feedback \$1;
#X msg 14 154 feedback 0;
#X obj -183 141 / 127;
#X msg -28 223 0;
#X msg 215 58 0;
#X msg 526 215 0;
#X obj 248 -47 midi-button 3 2;
#X obj -30 78 midi-button 3 2;
#X obj 478 83 midi-button 3 2;
#X obj 94 -81 midi-toggle 55 18;
#X obj 94 -15 memory-encoder 55 17;
#X obj 154 12 ctlout 55 17;
#X obj 181 85 ctlout 55 17;
#X obj -184 34 midi-toggle 58 18;
#X obj -184 110 memory-encoder 58 17;
#X obj -127 139 ctlout 58 17;
#X obj -27 250 ctlout 58 17;
#X obj 372 141 ctlout 59 17;
#X obj 324 115 memory-encoder 59 17;
#X obj 324 57 midi-toggle 59 18;
#X obj 527 242 ctlout 59 17;
#X obj -166 72 midi-led 58 18;
#X obj 115 -49 midi-led 55 18;
#X obj 338 86 midi-led 59 18;
#X connect 1 0 2 0;
#X connect 2 0 0 0;
#X connect 3 0 0 0;
#X connect 3 0 11 0;
#X connect 4 0 5 0;
#X connect 5 0 0 0;
#X connect 6 0 0 0;
#X connect 6 0 12 0;
#X connect 7 0 0 0;
#X connect 8 0 0 0;
#X connect 8 0 10 0;
#X connect 9 0 7 0;
#X connect 10 0 23 0;
#X connect 11 0 19 0;
#X connect 12 0 27 0;
#X connect 13 0 3 0;
#X connect 13 0 17 1;
#X connect 14 0 8 0;
#X connect 14 0 21 1;
#X connect 15 0 6 0;
#X connect 15 0 25 1;
#X connect 16 0 17 0;
#X connect 16 0 29 0;
#X connect 17 0 1 0;
#X connect 17 0 18 0;
#X connect 20 0 21 0;
#X connect 20 0 28 0;
#X connect 21 0 9 0;
#X connect 21 0 22 0;
#X connect 25 0 4 0;
#X connect 25 0 24 0;
#X connect 26 0 25 0;
#X connect 26 0 30 0;
#X restore -98 321 pd delay-assignments;
#X obj 195 668 dac~;
#X obj 214 -52 adc~ 17 18;
#X obj 192 -20 eq3~;
#X text 227 -81 Orbit 8;
#X msg 342 -18 low 0.5;
#X msg 343 13 mid 0.5;
#X msg 345 45 high 0.5;
#X obj 368 -62 loadbang;
#X msg 426 -21 gain 0.75;
#X connect 0 0 6 0;
#X connect 1 0 8 0;
#X connect 2 0 5 0;
#X connect 3 0 7 0;
#X connect 4 0 7 1;
#X connect 4 0 8 1;
#X connect 5 0 3 0;
#X connect 6 0 1 0;
#X connect 7 0 10 0;
#X connect 8 0 9 0;
#X connect 9 0 15 1;
#X connect 10 0 15 0;
#X connect 11 0 10 1;
#X connect 11 0 9 1;
#X connect 12 0 2 1;
#X connect 12 0 0 1;
#X connect 13 0 5 1;
#X connect 13 0 6 1;
#X connect 14 0 3 1;
#X connect 14 0 1 1;
#X connect 16 0 17 0;
#X connect 16 1 17 2;
#X connect 17 0 2 0;
#X connect 17 1 0 0;
#X connect 19 0 17 1;
#X connect 20 0 17 1;
#X connect 21 0 17 1;
#X connect 22 0 19 0;
#X connect 22 0 23 0;
#X connect 22 0 20 0;
#X connect 22 0 21 0;
#X connect 23 0 17 1;
#X coords 0 -1 1 1 300 550 1 100 100;
#X restore 961 636 pd orbit-8;
