#N canvas 872 32 1089 872 10;
#X obj 850 53 looper-new~;
#X obj 106 145 openpanel;
#X msg 106 173 read -resize \$1 audio;
#X obj 106 198 soundfiler;
#X obj 125 229 s size;
#X obj 109 264 expr 44100 / $f1;
#X obj 110 341 phasor~;
#X floatatom 131 297 5 0 0 0 - - -, f 5;
#X obj 110 394 *~;
#X obj 125 370 r size;
#X obj 105 117 bng 15 250 50 0 empty empty empty 17 7 0 10 -262144
-1 -1;
#X obj 663 75 table audio;
#X obj 110 425 tabread4~ audio;
#X obj 113 560 *~ 1;
#X obj 115 602 dac~;
#X obj 225 551 hsl 128 15 0 1 0 0 empty empty empty -2 -8 0 10 -262144
-1 -1 3400 1;
#X obj 294 357 metro 50;
#X obj 294 335 tgl 15 0 empty empty empty 17 7 0 10 -262144 -1 -1 1
1;
#X obj 294 381 snapshot~;
#X floatatom 294 403 5 0 0 0 - - -, f 5;
#X obj 295 432 /;
#X obj 325 420 r size;
#X obj 454 452 hsl 128 15 0 1 0 0 empty empty empty -2 -8 0 10 -262144
-1 -1 10256 1;
#X obj 373 131 tgl 15 0 empty empty empty 17 7 0 10 -262144 -1 -1 1
1;
#X floatatom 373 224 5 0 0 0 - - -, f 5;
#X obj 373 201 / 100;
#X obj 373 178 random 100;
#X obj 373 153 metro 3000;
#X floatatom 479 159 5 0 0 0 - - -, f 5;
#X obj 432 119 random 6000;
#X connect 1 0 2 0;
#X connect 2 0 3 0;
#X connect 3 0 4 0;
#X connect 3 0 5 0;
#X connect 5 0 6 0;
#X connect 5 0 7 0;
#X connect 6 0 8 0;
#X connect 8 0 12 0;
#X connect 8 0 18 0;
#X connect 9 0 8 1;
#X connect 10 0 1 0;
#X connect 12 0 13 0;
#X connect 13 0 14 0;
#X connect 13 0 14 1;
#X connect 15 0 13 1;
#X connect 16 0 18 0;
#X connect 17 0 16 0;
#X connect 18 0 19 0;
#X connect 19 0 20 0;
#X connect 20 0 22 0;
#X connect 21 0 20 1;
#X connect 23 0 27 0;
#X connect 24 0 6 1;
#X connect 25 0 24 0;
#X connect 26 0 25 0;
#X connect 27 0 26 0;
#X connect 27 0 29 0;
#X connect 29 0 27 1;
#X connect 29 0 28 0;
