#N canvas 659 258 734 493 12;
#X obj 292 264 stat;
#X msg 292 299 1;
#X msg 331 301 0;
#X floatatom 297 344 5 0 0 0 - - -;
#X obj 31 129 bng 15 250 50 0 empty empty empty 17 7 0 10 -262144 -1
-1;
#X obj 31 149 uname;
#X obj 31 172 unpack symbol;
#X symbolatom 31 195 10 0 0 0 - - -;
#X obj 31 222 select Darwin;
#X obj 31 250 bng 15 250 50 0 empty empty empty 17 7 0 10 -262144 -1
-1;
#X obj 119 250 bng 15 250 50 0 empty empty empty 17 7 0 10 -262144
-1 -1;
#X obj 31 350 s prefix;
#X msg 31 325 symbol /Users/andy/pd;
#X msg 119 272 symbol /home/pi/pd;
#X obj 119 299 s prefix;
#X obj 344 167 r prefix;
#X obj 291 199 pack f s;
#X msg 291 228 symbol \$2/memory/settings/\$1.txt;
#X obj 231 48 bng 15 250 50 0 empty empty empty 17 7 0 10 -262144 -1
-1;
#X obj 231 70 t b b;
#X obj 497 338 osc~ 200;
#X obj 500 402 dac~;
#X obj 499 371 *~;
#X msg 290 165 1;
#X obj 231 20 loadbang-dsp;
#X obj 413 181 r PD-ROOT;
#X connect 0 0 1 0;
#X connect 0 1 2 0;
#X connect 1 0 3 0;
#X connect 2 0 3 0;
#X connect 3 0 22 1;
#X connect 4 0 5 0;
#X connect 5 0 6 0;
#X connect 6 0 7 0;
#X connect 7 0 8 0;
#X connect 8 0 9 0;
#X connect 8 1 10 0;
#X connect 9 0 12 0;
#X connect 10 0 13 0;
#X connect 12 0 11 0;
#X connect 13 0 14 0;
#X connect 15 0 16 1;
#X connect 16 0 17 0;
#X connect 17 0 0 0;
#X connect 18 0 19 0;
#X connect 19 0 23 0;
#X connect 19 1 4 0;
#X connect 20 0 22 0;
#X connect 22 0 21 0;
#X connect 22 0 21 1;
#X connect 23 0 16 0;
#X connect 24 0 18 0;
#X connect 25 0 16 1;
