#N canvas 368 27 1269 934 12;
#X obj 242 67 midi-observer;
#X obj 373 98 s BANK;
#X floatatom 373 74 5 0 0 0 - - - 0;
#N canvas 150 175 813 682 looper-assignments 0;
#X msg 24 84 rec \$1;
#X obj 23 55 channel-change 1;
#X msg 132 84 play 1;
#X obj 230 23 channel-change 2;
#X msg 229 55 monitor \$1;
#X msg 339 55 stop 1;
#X obj 411 24 channel-change 3;
#X msg 520 51 clear 1;
#X obj 211 315 outlet;
#X obj 393 271 loadbang;
#X msg 393 295 monitor 1;
#X connect 0 0 8 0;
#X connect 1 0 0 0;
#X connect 1 2 2 0;
#X connect 2 0 8 0;
#X connect 3 0 4 0;
#X connect 3 2 5 0;
#X connect 4 0 8 0;
#X connect 5 0 8 0;
#X connect 6 2 7 0;
#X connect 7 0 8 0;
#X connect 9 0 10 0;
#X connect 10 0 8 0;
#X restore 386 164 pd looper-assignments;
#X obj 260 182 looper~;
#X obj 261 973 channel-out~;
#X obj 261 556 eq3~;
#X obj 261 672 audio-delay~ 3000;
#X obj 261 792 reverb~;
#X obj 260 419 pitch-shifter~;
#X obj 260 299 freeze~;
#X obj 261 914 cosine-pan~;
#X obj 210 163 adc~;
#N canvas 92 117 1150 823 delay-assignments 0;
#X msg 56 79 toggle \$1;
#X obj 369 55 loadbang;
#X msg 135 79 encoder 11;
#X msg 228 79 encoder 0;
#X obj 56 98 loop-encoder;
#X msg 56 163 wet \$1;
#X msg 305 79 clear 1;
#X obj 180 60 sel 1;
#X msg 421 351 toggle \$1;
#X obj 734 327 loadbang;
#X msg 500 351 encoder 11;
#X msg 593 351 encoder 0;
#X obj 421 370 loop-encoder;
#X msg 670 351 clear 1;
#X obj 545 332 sel 1;
#X msg 421 435 length \$1;
#X msg 574 513 toggle \$1;
#X obj 887 489 loadbang;
#X msg 653 513 encoder 11;
#X msg 746 513 encoder 0;
#X obj 574 532 loop-encoder;
#X msg 823 513 clear 1;
#X obj 698 494 sel 1;
#X msg 574 597 feedback \$1;
#X obj 96 644 outlet;
#X obj 125 19 channel-change 14;
#X msg 197 196 toggle \$1;
#X obj 510 172 loadbang;
#X msg 276 196 encoder 11;
#X msg 369 196 encoder 0;
#X obj 197 215 loop-encoder;
#X msg 446 196 clear 1;
#X obj 321 177 sel 1;
#X obj 266 136 channel-change 15;
#X msg 197 280 dry \$1;
#X obj 490 291 channel-change 16;
#X obj 643 453 channel-change 17;
#X msg 369 79 channel 1;
#X msg 510 196 channel 1;
#X msg 734 351 channel 1;
#X msg 887 513 channel 1;
#X connect 0 0 4 0;
#X connect 1 0 37 0;
#X connect 2 0 4 0;
#X connect 3 0 4 0;
#X connect 4 0 5 0;
#X connect 5 0 24 0;
#X connect 6 0 4 0;
#X connect 7 0 2 0;
#X connect 7 1 3 0;
#X connect 8 0 12 0;
#X connect 9 0 39 0;
#X connect 10 0 12 0;
#X connect 11 0 12 0;
#X connect 12 0 15 0;
#X connect 13 0 12 0;
#X connect 14 0 10 0;
#X connect 14 1 11 0;
#X connect 15 0 24 0;
#X connect 16 0 20 0;
#X connect 17 0 40 0;
#X connect 18 0 20 0;
#X connect 19 0 20 0;
#X connect 20 0 23 0;
#X connect 21 0 20 0;
#X connect 22 0 18 0;
#X connect 22 1 19 0;
#X connect 23 0 24 0;
#X connect 25 0 0 0;
#X connect 25 1 7 0;
#X connect 25 2 6 0;
#X connect 26 0 30 0;
#X connect 27 0 38 0;
#X connect 28 0 30 0;
#X connect 29 0 30 0;
#X connect 30 0 34 0;
#X connect 31 0 30 0;
#X connect 32 0 28 0;
#X connect 32 1 29 0;
#X connect 33 0 26 0;
#X connect 33 1 32 0;
#X connect 33 2 31 0;
#X connect 34 0 24 0;
#X connect 35 0 8 0;
#X connect 35 1 14 0;
#X connect 35 2 13 0;
#X connect 36 0 16 0;
#X connect 36 1 22 0;
#X connect 36 2 21 0;
#X connect 37 0 4 0;
#X connect 38 0 30 0;
#X connect 39 0 12 0;
#X connect 40 0 20 0;
#X restore 416 652 pd delay-assignments;
#N canvas 267 202 984 723 freeze-assignments 0;
#X msg 56 79 toggle \$1;
#X obj 369 55 loadbang;
#X msg 135 79 encoder 11;
#X msg 228 79 encoder 0;
#X obj 56 98 loop-encoder;
#X msg 305 79 clear 1;
#X obj 180 60 sel 1;
#X msg 230 224 toggle \$1;
#X obj 543 200 loadbang;
#X msg 309 224 encoder 11;
#X msg 402 224 encoder 0;
#X obj 230 243 loop-encoder;
#X msg 479 224 clear 1;
#X obj 354 205 sel 1;
#X obj 96 644 outlet;
#X msg 56 163 blend \$1;
#X msg 230 308 speed \$1;
#X msg 417 452 switch \$1;
#X obj 125 19 channel-change 4;
#X obj 299 164 channel-change 5;
#X msg 417 365 toggle \$1;
#X obj 730 341 loadbang;
#X msg 496 365 encoder 11;
#X msg 589 365 encoder 0;
#X obj 417 384 loop-encoder;
#X msg 666 365 clear 1;
#X obj 541 346 sel 1;
#X obj 486 305 channel-change 6;
#X msg 369 79 channel 1;
#X msg 543 224 channel 1;
#X msg 730 365 channel 1;
#X connect 0 0 4 0;
#X connect 1 0 28 0;
#X connect 2 0 4 0;
#X connect 3 0 4 0;
#X connect 4 0 15 0;
#X connect 5 0 4 0;
#X connect 6 0 2 0;
#X connect 6 1 3 0;
#X connect 7 0 11 0;
#X connect 8 0 29 0;
#X connect 9 0 11 0;
#X connect 10 0 11 0;
#X connect 11 0 16 0;
#X connect 12 0 11 0;
#X connect 13 0 9 0;
#X connect 13 1 10 0;
#X connect 15 0 14 0;
#X connect 16 0 14 0;
#X connect 17 0 14 0;
#X connect 18 0 0 0;
#X connect 18 1 6 0;
#X connect 18 2 5 0;
#X connect 19 0 7 0;
#X connect 19 1 13 0;
#X connect 19 2 12 0;
#X connect 20 0 24 0;
#X connect 21 0 30 0;
#X connect 22 0 24 0;
#X connect 23 0 24 0;
#X connect 24 0 17 0;
#X connect 25 0 24 0;
#X connect 26 0 22 0;
#X connect 26 1 23 0;
#X connect 27 0 20 0;
#X connect 27 1 26 0;
#X connect 27 2 25 0;
#X connect 28 0 4 0;
#X connect 29 0 11 0;
#X connect 30 0 24 0;
#X restore 409 281 pd freeze-assignments;
#N canvas 146 165 984 723 pitch-assignments 0;
#X msg 56 79 toggle \$1;
#X obj 369 55 loadbang;
#X msg 135 79 encoder 11;
#X msg 228 79 encoder 0;
#X obj 56 98 loop-encoder;
#X msg 305 79 clear 1;
#X obj 180 60 sel 1;
#X msg 230 224 toggle \$1;
#X obj 543 200 loadbang;
#X msg 309 224 encoder 11;
#X msg 402 224 encoder 0;
#X obj 230 243 loop-encoder;
#X msg 479 224 clear 1;
#X obj 354 205 sel 1;
#X obj 96 644 outlet;
#X msg 417 365 toggle \$1;
#X obj 730 341 loadbang;
#X msg 496 365 encoder 11;
#X msg 589 365 encoder 0;
#X obj 417 384 loop-encoder;
#X msg 666 365 clear 1;
#X obj 541 346 sel 1;
#X msg 56 163 fine \$1;
#X msg 230 308 coarse \$1;
#X msg 417 452 width \$1;
#X obj 125 19 channel-change 7;
#X obj 299 164 channel-change 8;
#X obj 486 305 channel-change 9;
#X msg 369 79 channel 1;
#X msg 543 224 channel 1;
#X msg 730 365 channel 1;
#X connect 0 0 4 0;
#X connect 1 0 28 0;
#X connect 2 0 4 0;
#X connect 3 0 4 0;
#X connect 4 0 22 0;
#X connect 5 0 4 0;
#X connect 6 0 2 0;
#X connect 6 1 3 0;
#X connect 7 0 11 0;
#X connect 8 0 29 0;
#X connect 9 0 11 0;
#X connect 10 0 11 0;
#X connect 11 0 23 0;
#X connect 12 0 11 0;
#X connect 13 0 9 0;
#X connect 13 1 10 0;
#X connect 15 0 19 0;
#X connect 16 0 30 0;
#X connect 17 0 19 0;
#X connect 18 0 19 0;
#X connect 19 0 24 0;
#X connect 20 0 19 0;
#X connect 21 0 17 0;
#X connect 21 1 18 0;
#X connect 22 0 14 0;
#X connect 23 0 14 0;
#X connect 24 0 14 0;
#X connect 25 0 0 0;
#X connect 25 1 6 0;
#X connect 25 2 5 0;
#X connect 26 0 7 0;
#X connect 26 1 13 0;
#X connect 26 2 12 0;
#X connect 27 0 15 0;
#X connect 27 1 21 0;
#X connect 27 2 20 0;
#X connect 28 0 4 0;
#X connect 29 0 11 0;
#X connect 30 0 19 0;
#X restore 403 400 pd pitch-assignments;
#N canvas 146 165 984 723 eq3-assignments 0;
#X msg 56 79 toggle \$1;
#X obj 369 55 loadbang;
#X msg 135 79 encoder 11;
#X msg 228 79 encoder 0;
#X obj 56 98 loop-encoder;
#X msg 305 79 clear 1;
#X obj 180 60 sel 1;
#X msg 230 224 toggle \$1;
#X obj 543 200 loadbang;
#X msg 309 224 encoder 11;
#X msg 402 224 encoder 0;
#X obj 230 243 loop-encoder;
#X msg 479 224 clear 1;
#X obj 354 205 sel 1;
#X obj 96 644 outlet;
#X msg 417 365 toggle \$1;
#X obj 730 341 loadbang;
#X msg 496 365 encoder 11;
#X msg 589 365 encoder 0;
#X obj 417 384 loop-encoder;
#X msg 666 365 clear 1;
#X obj 541 346 sel 1;
#X msg 56 163 low \$1;
#X msg 230 307 mid \$1;
#X msg 417 452 high \$1;
#X msg 573 508 toggle \$1;
#X obj 886 484 loadbang;
#X msg 652 508 encoder 11;
#X msg 745 508 encoder 0;
#X obj 573 527 loop-encoder;
#X msg 822 508 clear 1;
#X obj 697 489 sel 1;
#X msg 573 595 gain \$1;
#X obj 125 19 channel-change 10;
#X obj 299 164 channel-change 11;
#X obj 486 305 channel-change 12;
#X obj 642 448 channel-change 13;
#X msg 369 79 channel 1;
#X msg 543 224 channel 1;
#X msg 730 365 channel 1;
#X msg 886 508 channel 1;
#X connect 0 0 4 0;
#X connect 1 0 37 0;
#X connect 2 0 4 0;
#X connect 3 0 4 0;
#X connect 4 0 22 0;
#X connect 5 0 4 0;
#X connect 6 0 2 0;
#X connect 6 1 3 0;
#X connect 7 0 11 0;
#X connect 8 0 38 0;
#X connect 9 0 11 0;
#X connect 10 0 11 0;
#X connect 11 0 23 0;
#X connect 12 0 11 0;
#X connect 13 0 9 0;
#X connect 13 1 10 0;
#X connect 15 0 19 0;
#X connect 16 0 39 0;
#X connect 17 0 19 0;
#X connect 18 0 19 0;
#X connect 19 0 24 0;
#X connect 20 0 19 0;
#X connect 21 0 17 0;
#X connect 21 1 18 0;
#X connect 22 0 14 0;
#X connect 23 0 14 0;
#X connect 24 0 14 0;
#X connect 25 0 29 0;
#X connect 26 0 40 0;
#X connect 27 0 29 0;
#X connect 28 0 29 0;
#X connect 29 0 32 0;
#X connect 30 0 29 0;
#X connect 31 0 27 0;
#X connect 31 1 28 0;
#X connect 32 0 14 0;
#X connect 33 0 0 0;
#X connect 33 1 6 0;
#X connect 33 2 5 0;
#X connect 34 0 7 0;
#X connect 34 1 13 0;
#X connect 34 2 12 0;
#X connect 35 0 15 0;
#X connect 35 1 21 0;
#X connect 35 2 20 0;
#X connect 36 0 25 0;
#X connect 36 1 31 0;
#X connect 36 2 30 0;
#X connect 37 0 4 0;
#X connect 38 0 11 0;
#X connect 39 0 19 0;
#X connect 40 0 29 0;
#X restore 410 537 pd eq3-assignments;
#N canvas 530 190 1150 823 reverb-assignments 0;
#X msg 56 79 toggle \$1;
#X obj 369 55 loadbang;
#X msg 135 79 encoder 11;
#X msg 228 79 encoder 0;
#X obj 56 98 loop-encoder;
#X msg 56 163 wet \$1;
#X msg 305 79 clear 1;
#X obj 180 60 sel 1;
#X msg 230 224 toggle \$1;
#X obj 543 200 loadbang;
#X msg 309 224 encoder 11;
#X msg 402 224 encoder 0;
#X obj 230 243 loop-encoder;
#X msg 479 224 clear 1;
#X obj 354 205 sel 1;
#X msg 383 386 toggle \$1;
#X obj 696 362 loadbang;
#X msg 462 386 encoder 11;
#X msg 555 386 encoder 0;
#X obj 383 405 loop-encoder;
#X msg 632 386 clear 1;
#X obj 507 367 sel 1;
#X obj 96 644 outlet;
#X msg 383 470 size \$1;
#X msg 230 308 dry \$1;
#X msg 433 541 toggle \$1;
#X obj 746 517 loadbang;
#X msg 512 541 encoder 11;
#X msg 605 541 encoder 0;
#X obj 433 560 loop-encoder;
#X msg 682 541 clear 1;
#X obj 557 522 sel 1;
#X msg 433 625 damping \$1;
#X obj 125 19 channel-change 18;
#X obj 299 164 channel-change 19;
#X obj 452 326 channel-change 20;
#X obj 502 481 channel-change 21;
#X msg 369 79 channel 1;
#X msg 543 224 channel 1;
#X msg 696 386 channel 1;
#X msg 746 541 channel 1;
#X connect 0 0 4 0;
#X connect 1 0 37 0;
#X connect 2 0 4 0;
#X connect 3 0 4 0;
#X connect 4 0 5 0;
#X connect 5 0 22 0;
#X connect 6 0 4 0;
#X connect 7 0 2 0;
#X connect 7 1 3 0;
#X connect 8 0 12 0;
#X connect 9 0 38 0;
#X connect 10 0 12 0;
#X connect 11 0 12 0;
#X connect 12 0 24 0;
#X connect 13 0 12 0;
#X connect 14 0 10 0;
#X connect 14 1 11 0;
#X connect 15 0 19 0;
#X connect 16 0 39 0;
#X connect 17 0 19 0;
#X connect 18 0 19 0;
#X connect 19 0 23 0;
#X connect 20 0 19 0;
#X connect 21 0 17 0;
#X connect 21 1 18 0;
#X connect 23 0 22 0;
#X connect 24 0 22 0;
#X connect 25 0 29 0;
#X connect 26 0 40 0;
#X connect 27 0 29 0;
#X connect 28 0 29 0;
#X connect 29 0 32 0;
#X connect 30 0 29 0;
#X connect 31 0 27 0;
#X connect 31 1 28 0;
#X connect 32 0 22 0;
#X connect 33 0 0 0;
#X connect 33 1 7 0;
#X connect 33 2 6 0;
#X connect 34 0 8 0;
#X connect 34 1 14 0;
#X connect 34 2 13 0;
#X connect 35 0 15 0;
#X connect 35 1 21 0;
#X connect 35 2 20 0;
#X connect 36 0 25 0;
#X connect 36 1 31 0;
#X connect 36 2 30 0;
#X connect 37 0 4 0;
#X connect 38 0 12 0;
#X connect 39 0 19 0;
#X connect 40 0 29 0;
#X restore 419 773 pd reverb-assignments;
#N canvas 530 199 1150 823 pan-assignments 0;
#X msg 56 79 toggle \$1;
#X obj 369 55 loadbang;
#X msg 135 79 encoder 11;
#X msg 228 79 encoder 0;
#X obj 56 98 loop-encoder;
#X msg 305 79 clear 1;
#X obj 180 60 sel 1;
#X obj 96 644 outlet;
#X obj 125 19 channel-change 22;
#X msg 56 163 position \$1;
#X msg 369 79 channel 1;
#X connect 0 0 4 0;
#X connect 1 0 10 0;
#X connect 2 0 4 0;
#X connect 3 0 4 0;
#X connect 4 0 9 0;
#X connect 5 0 4 0;
#X connect 6 0 2 0;
#X connect 6 1 3 0;
#X connect 8 0 0 0;
#X connect 8 1 6 0;
#X connect 8 2 5 0;
#X connect 9 0 7 0;
#X connect 10 0 4 0;
#X restore 411 893 pd pan-assignments;
#N canvas 530 199 1150 823 volume-assignments 0;
#X msg 56 79 toggle \$1;
#X obj 369 55 loadbang;
#X msg 135 79 encoder 11;
#X msg 228 79 encoder 0;
#X obj 56 98 loop-encoder;
#X msg 305 79 clear 1;
#X obj 180 60 sel 1;
#X obj 96 644 outlet;
#X obj 125 19 channel-change 23;
#X msg 319 257 toggle \$1;
#X obj 632 233 loadbang;
#X msg 398 257 encoder 11;
#X msg 491 257 encoder 0;
#X obj 319 276 loop-encoder;
#X msg 568 257 clear 1;
#X obj 443 238 sel 1;
#X msg 56 163 volume \$1;
#X msg 319 341 mute \$1;
#X obj 388 197 channel-change 24;
#X msg 369 79 channel 1;
#X msg 632 257 channel 1;
#X obj 113 202 loadbang;
#X msg 113 226 volume 0.75;
#X connect 0 0 4 0;
#X connect 1 0 19 0;
#X connect 2 0 4 0;
#X connect 3 0 4 0;
#X connect 4 0 16 0;
#X connect 5 0 4 0;
#X connect 6 0 2 0;
#X connect 6 1 3 0;
#X connect 8 0 0 0;
#X connect 8 1 6 0;
#X connect 8 2 5 0;
#X connect 9 0 13 0;
#X connect 10 0 20 0;
#X connect 11 0 13 0;
#X connect 12 0 13 0;
#X connect 13 0 17 0;
#X connect 14 0 13 0;
#X connect 15 0 11 0;
#X connect 15 1 12 0;
#X connect 16 0 7 0;
#X connect 17 0 7 0;
#X connect 18 0 9 0;
#X connect 18 1 15 0;
#X connect 18 2 14 0;
#X connect 19 0 4 0;
#X connect 20 0 13 0;
#X connect 21 0 22 0;
#X connect 22 0 7 0;
#X restore 411 955 pd volume-assignments;
#X connect 2 0 1 0;
#X connect 3 0 4 1;
#X connect 4 0 10 0;
#X connect 6 0 7 0;
#X connect 6 1 7 0;
#X connect 7 0 8 0;
#X connect 8 0 11 0;
#X connect 9 0 6 0;
#X connect 9 0 6 2;
#X connect 10 0 9 0;
#X connect 11 0 5 0;
#X connect 11 1 5 2;
#X connect 12 0 4 0;
#X connect 12 1 4 0;
#X connect 13 0 7 1;
#X connect 14 0 10 1;
#X connect 15 0 9 1;
#X connect 16 0 6 1;
#X connect 17 0 8 1;
#X connect 18 0 11 1;
#X connect 19 0 5 1;
