#N canvas 57 38 976 635 10;
#X obj 3 -84 loadbang-dsp;
#X obj 16 56 adc~;
#X obj 143 56 adc~;
#X obj 271 56 adc~;
#X obj 399 56 adc~;
#X obj 527 56 adc~;
#X obj 655 56 adc~;
#X obj 16 74 channel-strip~ 0;
#X msg 699 37 \$1_1 \$1_2 \$1_3 \$1_4 \$1_5 \$1_6;
#X obj 699 57 unpack s s s s s s;
#X obj 610 -27 midi-toggle;
#X obj 668 14 +;
#X obj 699 14 int;
#X msg 648 -7 -1;
#X msg 688 -7 1;
#X obj 143 74 channel-strip~ 2;
#X obj 271 74 channel-strip~ 16;
#X obj 399 74 channel-strip~ 18;
#X obj 527 74 channel-strip~ 32;
#X obj 655 74 channel-strip~ 34;
#X obj 887 57 midi-toggle;
#X obj 688 -27 midi-toggle;
#X msg 610 -46 8;
#X msg 654 -46 4;
#X msg 732 -46 4;
#X msg 688 -46 11;
#X msg 931 40 4;
#X msg 887 40 10;
#X obj 887 -63 loadbang;
#X connect 1 0 7 0;
#X connect 2 0 15 0;
#X connect 3 0 16 0;
#X connect 4 0 17 0;
#X connect 5 0 18 0;
#X connect 6 0 19 0;
#X connect 8 0 9 0;
#X connect 9 0 7 1;
#X connect 9 1 15 1;
#X connect 9 2 16 1;
#X connect 9 3 17 1;
#X connect 9 4 18 1;
#X connect 9 5 19 1;
#X connect 10 0 13 0;
#X connect 11 0 12 0;
#X connect 12 0 11 1;
#X connect 12 0 8 0;
#X connect 13 0 11 0;
#X connect 14 0 11 0;
#X connect 20 0 19 2;
#X connect 20 0 18 2;
#X connect 20 0 17 2;
#X connect 20 0 16 2;
#X connect 20 0 15 2;
#X connect 20 0 7 2;
#X connect 21 0 14 0;
#X connect 22 0 10 0;
#X connect 23 0 10 1;
#X connect 24 0 21 1;
#X connect 25 0 21 0;
#X connect 26 0 20 1;
#X connect 27 0 20 0;
#X connect 28 0 22 0;
#X connect 28 0 23 0;
#X connect 28 0 25 0;
#X connect 28 0 24 0;
#X connect 28 0 27 0;
#X connect 28 0 26 0;
