#N canvas 966 212 1011 688 10;
#X obj 40 48 adc~;
#X obj 40 81 +~;
#X obj 39 379 *~;
#X obj 40 432 *~ 0.5;
#X obj 40 526 tabwrite~ loop;
#X obj 103 352 line~;
#X obj 103 323 pack 0 6;
#X msg 103 280 0;
#X msg 143 292 1;
#X msg 485 32 reset;
#X obj 434 461 tabplay~ loop;
#X obj 430 532 dac~;
#X msg 434 427 bang;
#X msg 484 427 stop;
#X obj 509 484 bng 15 250 50 0 empty empty empty 17 7 0 10 -262144
-1 -1;
#X obj 319 286 timer;
#X obj 319 318 * 44.1;
#X floatatom 319 347 5 0 0 0 - - -;
#X msg 319 372 resize \$1;
#X obj 319 401 s loop;
#X msg 531 350 normalize;
#X obj 337 240 t b b b;
#X msg 512 384 resize 3.969e+06 \, const 0;
#X obj 724 40 table loop 3.969e+06;
#X obj 87 89 s~ monitorLeft;
#X obj 86 66 s~ monitorRight;
#X obj 464 516 r~ monitorRight;
#X obj 465 537 r~ monitorLeft;
#X msg 373 50 0;
#X obj 270 71 f;
#X obj 257 110 + 1;
#X msg 372 72 2;
#X obj 297 91 sel 0 1 2 3;
#X obj 230 88 sel 3;
#X text 519 427 stop playback;
#X text 527 32 clear loop;
#X obj 270 13 tgl 15 0 empty empty empty 17 7 0 10 -262144 -1 -1 0
1;
#X msg 270 48 bang;
#X text 288 11 rec;
#X text 572 136 functional \, unlimited overdubbing looper. there is
still an unfortunate quirk however: you can't seem to overdub during
the very first playback of the first loop \, the overdubs do not record
in this scenario.;
#X connect 0 0 1 0;
#X connect 0 0 24 0;
#X connect 0 1 1 1;
#X connect 0 1 25 0;
#X connect 1 0 2 0;
#X connect 2 0 3 0;
#X connect 3 0 4 0;
#X connect 5 0 2 1;
#X connect 6 0 5 0;
#X connect 7 0 6 0;
#X connect 8 0 6 0;
#X connect 9 0 28 0;
#X connect 9 0 13 0;
#X connect 9 0 22 0;
#X connect 10 0 11 0;
#X connect 10 0 11 1;
#X connect 10 0 4 0;
#X connect 10 1 14 0;
#X connect 10 1 4 0;
#X connect 12 0 10 0;
#X connect 13 0 10 0;
#X connect 14 0 12 0;
#X connect 15 0 16 0;
#X connect 16 0 17 0;
#X connect 17 0 18 0;
#X connect 18 0 19 0;
#X connect 20 0 19 0;
#X connect 21 0 7 0;
#X connect 21 1 12 0;
#X connect 21 2 15 1;
#X connect 22 0 19 0;
#X connect 26 0 11 1;
#X connect 27 0 11 0;
#X connect 28 0 29 1;
#X connect 29 0 33 0;
#X connect 29 0 32 0;
#X connect 30 0 29 1;
#X connect 31 0 29 1;
#X connect 32 0 4 0;
#X connect 32 0 15 0;
#X connect 32 0 8 0;
#X connect 32 1 21 0;
#X connect 32 1 7 0;
#X connect 32 2 8 0;
#X connect 32 3 7 0;
#X connect 32 3 31 0;
#X connect 33 1 30 0;
#X connect 36 0 37 0;
#X connect 37 0 29 0;
