#N canvas 0 25 1440 847 10;
#X declare -stdpath zexy -stdlib zexy;
#X obj -89 -576 loadbang-dsp;
#X obj -89 -535 s defaults;
#X obj -89 -555 s initialize;
#X obj -8 -550 bng 15 250 50 0 empty empty empty 17 7 0 10 -262144
-1 -1;
#N canvas 87 25 1259 847 track-1 0;
#X obj 110 884 cosine-pan~;
#X obj 110 769 reverb~;
#X obj 884 976 r defaults;
#X obj 110 651 audio-delay~ 4000;
#X obj 110 246 freeze~;
#X obj 110 535 eq3~;
#X obj 489 829 r defaults;
#X obj 520 716 r defaults;
#X obj 579 481 r defaults;
#X obj 842 184 r defaults;
#X obj 442 279 r defaults;
#X obj 570 -20 r defaults;
#X msg 262 611 feedback 5 \, wet 1 \, length 4 \, channel 1;
#X msg 286 498 low 10 \, mid 11 \, high 14 \, gain 15 \, channel 1
;
#X obj 286 518 eq3-control track-1-eq;
#X obj 262 632 audio-delay-control track-1-delay;
#X obj 264 752 reverb-control track-1-reverb;
#X msg 264 729 wet 8 \, size 9 \, channel 1;
#X obj 290 867 cosine-pan-control track-1-pan;
#X msg 290 846 position 12 \, channel 1;
#X obj 528 1011 channel-out-control track-1-out;
#X obj 283 345 metal-control track-1-metal;
#X msg 283 324 toggle 9 \, channel 2;
#X obj 283 303 r initialize;
#X obj 286 477 r initialize;
#X obj 262 586 r initialize;
#X obj 264 708 r initialize;
#X obj 290 825 r initialize;
#X obj 528 969 r initialize;
#X obj 485 161 r initialize;
#X obj 540 595 r defaults;
#X msg 489 850 position 0.5;
#X msg 540 615 wet 0 \, length 0 \, feedback 0;
#X msg 579 501 low 0.5 \, mid 0.5 \, high 0.5 \, gain 0.5;
#X msg 520 736 wet 0 \, size 0;
#X obj 110 362 metal~;
#X obj 110 408 pitch-shifter~;
#X obj 542 388 pitch-shifter-control track-1-pitch-shift;
#X obj 542 325 r initialize;
#X obj 916 351 r defaults;
#X obj 110 1123 s~ track-1-left;
#X obj 223 1122 s~ track-1-right;
#X obj 277 924 / 127;
#X obj 387 924 / 127;
#X obj 110 940 file-recorder~;
#X msg 842 204 switch 0 \, blend 0 \, purity 0 \, phaselock 0 \, speed
0 \, on-color 23 \, off-color 0;
#X msg 442 299 toggle 0 \, on-color 23 \, off-color 0;
#X msg 916 371 fine 0 \, coarse 1 \, width 0 \, on-color 23 \, off-color
0;
#X obj 485 229 freeze-control track-1-freeze;
#X obj 277 903 midi-toggle 15 2;
#X obj 387 903 midi-toggle 14 2;
#X msg 528 990 volume 13 \, mute 13 \, encoder-channel 1 \, toggle-channel
2;
#X msg 885 996 volume 0.5 \, mute 0 \, on-color 23 \, off-color 0;
#X obj 110 1026 channel-out~;
#X msg 223 -16 rec 0 \, play 4 \, stop 5 \, monitor 1 \, clear 12 \,
channel 2 \, track-number 1;
#X obj 797 -20 inlet bank;
#X msg 797 0 bank \$1;
#X obj 223 -37 r initialize;
#X obj 109 -38 r~ audio;
#X obj 110 129 looper~;
#X msg 485 192 blend 2 \, speed 3 \, purity 3 \, switch 3 \, encoder-channel
1 \, toggle-channel 2;
#X obj 223 16 looper-control track-1-looper;
#X msg 570 0 monitor 0 \, on-color 23 \, off-color 0;
#X obj 240 129 looper~;
#X obj 240 38 r~ audio;
#X obj 774 58 r defaults;
#X msg 1001 78 bank \$1;
#X obj 427 41 r initialize;
#X msg 774 78 monitor 0 \, on-color 23 \, off-color 0;
#X obj 427 94 looper-control track-5-looper;
#X msg 427 62 rec 10 \, play 6 \, stop 2 \, monitor 1 \, clear 8 \,
channel 2 \, track-number 5;
#X obj 796 597 line-control~;
#X obj 1137 534 r defaults;
#X obj 852 527 r initialize;
#X obj 852 569 channel-out-control track-1-line;
#X msg 852 548 volume 0 \, encoder-channel 1 \, toggle-channel 2;
#X msg 1138 554 volume 1 \, mute 0 \, on-color 23 \, off-color 0;
#X obj 806 737 line-control~;
#X obj 1147 674 r defaults;
#X obj 862 667 r initialize;
#X msg 1148 694 volume 1 \, mute 0 \, on-color 23 \, off-color 0;
#X msg 862 688 volume 6 \, encoder-channel 1 \, toggle-channel 2;
#X obj 862 709 channel-out-control track-5-line;
#X obj 45 240 *~ 0.5;
#X obj 45 263 *~ 0.5;
#X msg 542 346 fine 999 \, coarse 7 \, width 7 \, toggle 7 \, encoder-channel
1 \, toggle-channel 2;
#X connect 0 0 44 0;
#X connect 0 0 53 0;
#X connect 0 1 44 3;
#X connect 0 1 53 2;
#X connect 1 0 0 0;
#X connect 2 0 52 0;
#X connect 3 0 1 0;
#X connect 4 0 35 0;
#X connect 5 0 3 0;
#X connect 6 0 31 0;
#X connect 7 0 34 0;
#X connect 8 0 33 0;
#X connect 9 0 45 0;
#X connect 10 0 46 0;
#X connect 11 0 62 0;
#X connect 12 0 15 0;
#X connect 13 0 14 0;
#X connect 14 0 5 1;
#X connect 15 0 3 1;
#X connect 16 0 1 1;
#X connect 17 0 16 0;
#X connect 18 0 0 1;
#X connect 19 0 18 0;
#X connect 20 0 53 1;
#X connect 21 0 35 1;
#X connect 22 0 21 0;
#X connect 23 0 22 0;
#X connect 24 0 13 0;
#X connect 25 0 12 0;
#X connect 26 0 17 0;
#X connect 27 0 19 0;
#X connect 28 0 51 0;
#X connect 29 0 60 0;
#X connect 30 0 32 0;
#X connect 31 0 18 1;
#X connect 32 0 15 1;
#X connect 33 0 14 1;
#X connect 34 0 16 1;
#X connect 35 0 36 0;
#X connect 36 0 5 0;
#X connect 37 0 36 1;
#X connect 38 0 85 0;
#X connect 39 0 47 0;
#X connect 42 0 44 1;
#X connect 43 0 44 2;
#X connect 44 0 53 0;
#X connect 44 1 53 2;
#X connect 45 0 48 1;
#X connect 46 0 21 1;
#X connect 47 0 37 1;
#X connect 48 0 4 1;
#X connect 49 0 42 0;
#X connect 50 0 43 0;
#X connect 51 0 20 0;
#X connect 52 0 20 1;
#X connect 53 0 40 0;
#X connect 53 1 41 0;
#X connect 54 0 61 0;
#X connect 55 0 56 0;
#X connect 55 0 66 0;
#X connect 56 0 61 0;
#X connect 57 0 54 0;
#X connect 58 0 59 0;
#X connect 59 0 71 0;
#X connect 60 0 48 0;
#X connect 61 0 59 1;
#X connect 62 0 61 1;
#X connect 63 0 77 0;
#X connect 64 0 63 0;
#X connect 65 0 68 0;
#X connect 66 0 69 0;
#X connect 67 0 70 0;
#X connect 68 0 69 1;
#X connect 69 0 63 1;
#X connect 70 0 69 0;
#X connect 71 0 83 0;
#X connect 72 0 76 0;
#X connect 73 0 75 0;
#X connect 74 0 71 1;
#X connect 75 0 74 0;
#X connect 76 0 74 1;
#X connect 77 0 84 0;
#X connect 78 0 80 0;
#X connect 79 0 81 0;
#X connect 80 0 82 1;
#X connect 81 0 82 0;
#X connect 82 0 77 1;
#X connect 83 0 4 0;
#X connect 84 0 4 0;
#X connect 85 0 37 0;
#X coords 0 -1 1 1 310 995 1 100 100;
#X restore 352 -328 pd track-1;
#N canvas 10 25 1430 803 track-2 0;
#X obj 110 886 cosine-pan~;
#X obj 110 771 reverb~;
#X obj 947 975 r defaults;
#X obj 110 651 audio-delay~ 4000;
#X obj 110 533 eq3~;
#X obj 479 831 r defaults;
#X obj 477 717 r defaults;
#X obj 569 479 r defaults;
#X obj 823 184 r defaults;
#X obj 432 276 r defaults;
#X obj 273 302 r initialize;
#X obj 276 475 r initialize;
#X obj 277 592 r initialize;
#X obj 282 712 r initialize;
#X obj 280 827 r initialize;
#X obj 598 968 r initialize;
#X obj 445 161 r initialize;
#X obj 550 597 r defaults;
#X msg 479 852 position 0.5;
#X msg 550 617 wet 0 \, length 0 \, feedback 0;
#X msg 569 499 low 0.5 \, mid 0.5 \, high 0.5 \, gain 0.5;
#X msg 477 737 wet 0 \, size 0;
#X msg 273 323 toggle 25 \, channel 2;
#X msg 276 496 low 26 \, mid 27 \, high 30 \, gain 31 \, channel 1
;
#X msg 277 613 feedback 21 \, wet 17 \, length 20 \, channel 1;
#X msg 282 733 wet 24 \, size 25 \, channel 1;
#X msg 280 848 position 28 \, channel 1;
#X obj 276 516 eq3-control track-2-eq;
#X obj 277 634 audio-delay-control track-2-delay;
#X obj 282 754 reverb-control track-2-reverb;
#X obj 280 869 cosine-pan-control track-2-pan;
#X obj 534 327 r initialize;
#X obj 908 353 r defaults;
#X obj 110 407 pitch-shifter~;
#X obj 110 361 metal~;
#X obj 110 1125 s~ track-2-left;
#X obj 223 1124 s~ track-2-right;
#X obj 110 246 freeze~;
#X obj 277 924 / 127;
#X obj 387 924 / 127;
#X obj 110 940 file-recorder~;
#X obj 273 344 metal-control track-2-metal;
#X obj 534 390 pitch-shifter-control track-2-pitch-shift;
#X msg 823 204 switch 0 \, blend 0 \, purity 0 \, phaselock 0 \, speed
0 \, on-color 90 \, off-color 0;
#X msg 908 373 fine 0 \, coarse 1 \, width 0 \, on-color 90 \, off-color
0;
#X obj 277 903 midi-toggle 31 2;
#X obj 387 903 midi-toggle 30 2;
#X msg 598 989 volume 29 \, mute 29 \, encoder-channel 1 \, toggle-channel
2;
#X msg 947 995 volume 0.5 \, mute 0 \, on-color 90 \, off-color 0;
#X obj 598 1010 channel-out-control track-2-out;
#X obj 110 1027 channel-out~;
#X obj 585 -24 r defaults;
#X obj 223 -41 r initialize;
#X msg 223 -20 rec 16 \, play 20 \, stop 21 \, monitor 17 \, clear
28 \, channel 2 \, track-number 2;
#X obj 828 -27 inlet bank;
#X msg 828 -3 bank \$1;
#X msg 432 296 toggle 0 \, on-color 90 \, off-color 0;
#X obj 110 -44 r~ audio;
#X msg 445 192 blend 18 \, speed 19 \, purity 22 \, switch 19 \, encoder-channel
1 \, toggle-channel 2;
#X msg 585 -4 monitor 0 \, on-color 90 \, off-color 0;
#X obj 110 129 looper~;
#X obj 223 12 looper-control track-2-looper;
#X obj 445 229 freeze-control track-2-freeze;
#X obj 250 129 looper~;
#X obj 727 56 r defaults;
#X obj 365 39 r initialize;
#X msg 970 77 bank \$1;
#X obj 250 36 r~ audio;
#X msg 727 76 monitor 0 \, on-color 90 \, off-color 0;
#X obj 365 92 looper-control track-6-looper;
#X msg 365 60 rec 26 \, play 22 \, stop 18 \, monitor 17 \, clear 24
\, channel 2 \, track-number 6;
#X obj 796 597 line-control~;
#X obj 1137 534 r defaults;
#X obj 852 527 r initialize;
#X msg 1138 554 volume 1 \, mute 0 \, on-color 23 \, off-color 0;
#X obj 806 737 line-control~;
#X obj 1147 674 r defaults;
#X obj 862 667 r initialize;
#X msg 1148 694 volume 1 \, mute 0 \, on-color 23 \, off-color 0;
#X obj 52 244 *~ 0.5;
#X obj 52 274 *~ 0.5;
#X obj 852 569 channel-out-control track-2-line;
#X obj 862 709 channel-out-control track-6-line;
#X msg 852 548 volume 16 \, encoder-channel 1 \, toggle-channel 2;
#X msg 862 688 volume 22 \, encoder-channel 1 \, toggle-channel 2;
#X msg 534 348 fine 999 \, coarse 23 \, width 23 \, toggle 23 \, encoder-channel
1 \, toggle-channel 2;
#X connect 0 0 40 0;
#X connect 0 0 50 0;
#X connect 0 1 40 3;
#X connect 0 1 50 2;
#X connect 1 0 0 0;
#X connect 2 0 48 0;
#X connect 3 0 1 0;
#X connect 4 0 3 0;
#X connect 5 0 18 0;
#X connect 6 0 21 0;
#X connect 7 0 20 0;
#X connect 8 0 43 0;
#X connect 9 0 56 0;
#X connect 10 0 22 0;
#X connect 11 0 23 0;
#X connect 12 0 24 0;
#X connect 13 0 25 0;
#X connect 14 0 26 0;
#X connect 15 0 47 0;
#X connect 16 0 58 0;
#X connect 17 0 19 0;
#X connect 18 0 30 1;
#X connect 19 0 28 1;
#X connect 20 0 27 1;
#X connect 21 0 29 1;
#X connect 22 0 41 0;
#X connect 23 0 27 0;
#X connect 24 0 28 0;
#X connect 25 0 29 0;
#X connect 26 0 30 0;
#X connect 27 0 4 1;
#X connect 28 0 3 1;
#X connect 29 0 1 1;
#X connect 30 0 0 1;
#X connect 31 0 85 0;
#X connect 32 0 44 0;
#X connect 33 0 4 0;
#X connect 34 0 33 0;
#X connect 37 0 34 0;
#X connect 38 0 40 1;
#X connect 39 0 40 2;
#X connect 40 0 50 0;
#X connect 40 1 50 2;
#X connect 41 0 34 1;
#X connect 42 0 33 1;
#X connect 43 0 62 1;
#X connect 44 0 42 1;
#X connect 45 0 38 0;
#X connect 46 0 39 0;
#X connect 47 0 49 0;
#X connect 48 0 49 1;
#X connect 49 0 50 1;
#X connect 50 0 35 0;
#X connect 50 1 36 0;
#X connect 51 0 59 0;
#X connect 52 0 53 0;
#X connect 53 0 61 0;
#X connect 54 0 55 0;
#X connect 54 0 66 0;
#X connect 55 0 61 0;
#X connect 56 0 41 1;
#X connect 57 0 60 0;
#X connect 58 0 62 0;
#X connect 59 0 61 1;
#X connect 60 0 71 0;
#X connect 61 0 60 1;
#X connect 62 0 37 1;
#X connect 63 0 75 0;
#X connect 64 0 68 0;
#X connect 65 0 70 0;
#X connect 66 0 69 0;
#X connect 67 0 63 0;
#X connect 68 0 69 1;
#X connect 69 0 63 1;
#X connect 70 0 69 0;
#X connect 71 0 79 0;
#X connect 72 0 74 0;
#X connect 73 0 83 0;
#X connect 74 0 81 1;
#X connect 75 0 80 0;
#X connect 76 0 78 0;
#X connect 77 0 84 0;
#X connect 78 0 82 1;
#X connect 79 0 37 0;
#X connect 80 0 37 0;
#X connect 81 0 71 1;
#X connect 82 0 75 1;
#X connect 83 0 81 0;
#X connect 84 0 82 0;
#X connect 85 0 42 0;
#X coords 0 -1 1 1 310 995 1 100 100;
#X restore 662 -328 pd track-2;
#N canvas 0 25 1440 847 track-3 0;
#X obj 110 885 cosine-pan~;
#X obj 110 770 reverb~;
#X obj 953 973 r defaults;
#X obj 110 650 audio-delay~ 4000;
#X obj 110 532 eq3~;
#X obj 479 830 r defaults;
#X obj 477 716 r defaults;
#X obj 569 478 r defaults;
#X obj 806 184 r defaults;
#X obj 432 277 r defaults;
#X obj 273 302 r initialize;
#X obj 276 474 r initialize;
#X obj 277 591 r initialize;
#X obj 282 711 r initialize;
#X obj 280 826 r initialize;
#X obj 588 966 r initialize;
#X obj 429 161 r initialize;
#X obj 550 596 r defaults;
#X msg 479 851 position 0.5;
#X msg 550 616 wet 0 \, length 0 \, feedback 0;
#X msg 569 498 low 0.5 \, mid 0.5 \, high 0.5 \, gain 0.5;
#X msg 477 736 wet 0 \, size 0;
#X obj 276 515 eq3-control track-3-eq;
#X obj 277 633 audio-delay-control track-3-delay;
#X obj 282 753 reverb-control track-3-reverb;
#X obj 280 868 cosine-pan-control track-3-pan;
#X msg 273 323 toggle 41 \, channel 2;
#X msg 276 495 low 42 \, mid 43 \, high 46 \, gain 47 \, channel 1
;
#X msg 277 612 feedback 37 \, wet 33 \, length 36 \, channel 1;
#X msg 282 732 wet 40 \, size 41 \, channel 1;
#X msg 280 847 position 44 \, channel 1;
#X obj 110 407 pitch-shifter~;
#X obj 534 327 r initialize;
#X obj 908 353 r defaults;
#X obj 110 361 metal~;
#X obj 110 1120 s~ track-3-left;
#X obj 223 1119 s~ track-3-right;
#X obj 110 246 freeze~;
#X obj 277 924 / 127;
#X obj 387 924 / 127;
#X obj 110 940 file-recorder~;
#X obj 273 344 metal-control track-3-metal;
#X obj 534 390 pitch-shifter-control track-3-pitch-shift;
#X msg 806 204 switch 0 \, blend 0 \, purity 0 \, phaselock 0 \, speed
0 \, on-color 40 \, off-color 0;
#X msg 432 297 toggle 0 \, on-color 40 \, off-color 0;
#X msg 908 373 fine 0 \, coarse 1 \, width 0 \, on-color 40 \, off-color
0;
#X obj 277 903 midi-toggle 47 2;
#X obj 387 903 midi-toggle 46 2;
#X msg 953 993 volume 0.5 \, mute 0 \, on-color 40 \, off-color 0;
#X obj 588 1008 channel-out-control track-3-out;
#X msg 588 987 volume 45 \, mute 45 \, encoder-channel 1 \, toggle-channel
2;
#X obj 110 1025 channel-out~;
#X obj 585 -41 r defaults;
#X obj 223 -58 r initialize;
#X msg 223 -37 rec 32 \, play 36 \, stop 37 \, monitor 33 \, clear
44 \, channel 2 \, track-number 3;
#X obj 816 -42 inlet bank;
#X msg 816 -21 bank \$1;
#X obj 109 -77 r~ audio;
#X msg 429 192 blend 34 \, speed 35 \, purity 38 \, switch 35 \, encoder-channel
1 \, toggle-channel 2;
#X msg 585 -21 monitor 0 \, on-color 40 \, off-color 0;
#X obj 110 129 looper~;
#X obj 223 -5 looper-control track-3-looper;
#X obj 429 229 freeze-control track-3-freeze;
#X obj 240 129 looper~;
#X obj 715 41 r defaults;
#X obj 353 24 r initialize;
#X msg 946 61 bank \$1;
#X obj 240 18 r~ audio;
#X msg 715 61 monitor 0 \, on-color 40 \, off-color 0;
#X obj 353 77 looper-control track-7-looper;
#X msg 353 46 rec 42 \, play 38 \, stop 34 \, monitor 33 \, clear 40
\, channel 2 \, track-number 7;
#X obj 796 597 line-control~;
#X obj 1137 534 r defaults;
#X obj 852 527 r initialize;
#X msg 1138 554 volume 1 \, mute 0 \, on-color 23 \, off-color 0;
#X obj 806 737 line-control~;
#X obj 1147 674 r defaults;
#X obj 862 667 r initialize;
#X msg 1148 694 volume 1 \, mute 0 \, on-color 23 \, off-color 0;
#X obj 53 243 *~ 0.5;
#X obj 53 273 *~ 0.5;
#X obj 852 569 channel-out-control track-3-line;
#X obj 862 709 channel-out-control track-7-line;
#X msg 852 548 volume 32 \, encoder-channel 1 \, toggle-channel 2;
#X msg 862 688 volume 38 \, encoder-channel 1 \, toggle-channel 2;
#X msg 534 348 fine 999 \, coarse 39 \, width 39 \, toggle 39 \, encoder-channel
1 \, toggle-channel 2;
#X connect 0 0 40 0;
#X connect 0 0 51 0;
#X connect 0 1 40 3;
#X connect 0 1 51 2;
#X connect 1 0 0 0;
#X connect 2 0 48 0;
#X connect 3 0 1 0;
#X connect 4 0 3 0;
#X connect 5 0 18 0;
#X connect 6 0 21 0;
#X connect 7 0 20 0;
#X connect 8 0 43 0;
#X connect 9 0 44 0;
#X connect 10 0 26 0;
#X connect 11 0 27 0;
#X connect 12 0 28 0;
#X connect 13 0 29 0;
#X connect 14 0 30 0;
#X connect 15 0 50 0;
#X connect 16 0 58 0;
#X connect 17 0 19 0;
#X connect 18 0 25 1;
#X connect 19 0 23 1;
#X connect 20 0 22 1;
#X connect 21 0 24 1;
#X connect 22 0 4 1;
#X connect 23 0 3 1;
#X connect 24 0 1 1;
#X connect 25 0 0 1;
#X connect 26 0 41 0;
#X connect 27 0 22 0;
#X connect 28 0 23 0;
#X connect 29 0 24 0;
#X connect 30 0 25 0;
#X connect 31 0 4 0;
#X connect 32 0 85 0;
#X connect 33 0 45 0;
#X connect 34 0 31 0;
#X connect 37 0 34 0;
#X connect 38 0 40 1;
#X connect 39 0 40 2;
#X connect 40 0 51 0;
#X connect 40 1 51 2;
#X connect 41 0 34 1;
#X connect 42 0 31 1;
#X connect 43 0 62 1;
#X connect 44 0 41 1;
#X connect 45 0 42 1;
#X connect 46 0 38 0;
#X connect 47 0 39 0;
#X connect 48 0 49 1;
#X connect 49 0 51 1;
#X connect 50 0 49 0;
#X connect 51 0 35 0;
#X connect 51 1 36 0;
#X connect 52 0 59 0;
#X connect 53 0 54 0;
#X connect 54 0 61 0;
#X connect 55 0 56 0;
#X connect 55 0 66 0;
#X connect 56 0 61 0;
#X connect 57 0 60 0;
#X connect 58 0 62 0;
#X connect 59 0 61 1;
#X connect 60 0 71 0;
#X connect 61 0 60 1;
#X connect 62 0 37 1;
#X connect 63 0 75 0;
#X connect 64 0 68 0;
#X connect 65 0 70 0;
#X connect 66 0 69 0;
#X connect 67 0 63 0;
#X connect 68 0 69 1;
#X connect 69 0 63 1;
#X connect 70 0 69 0;
#X connect 71 0 79 0;
#X connect 72 0 74 0;
#X connect 73 0 83 0;
#X connect 74 0 81 1;
#X connect 75 0 80 0;
#X connect 76 0 78 0;
#X connect 77 0 84 0;
#X connect 78 0 82 1;
#X connect 79 0 37 0;
#X connect 80 0 37 0;
#X connect 81 0 71 1;
#X connect 82 0 75 1;
#X connect 83 0 81 0;
#X connect 84 0 82 0;
#X connect 85 0 42 0;
#X coords 0 -1 1 1 310 995 1 100 100;
#X restore 972 -328 pd track-3;
#X obj -89 -175 s defaults;
#X obj -89 -281 state-manager;
#N canvas 0 50 832 678 rec 0;
#X obj 112 41 r~ track-2-left;
#X obj 112 21 r~ track-1-left;
#X obj 112 61 r~ track-3-left;
#X obj 225 41 r~ track-2-right;
#X obj 225 21 r~ track-1-right;
#X obj 225 61 r~ track-3-right;
#X obj 149 239 dac~;
#X obj 112 123 file-recorder~;
#X obj 225 81 r~ track-4-right;
#X obj 112 81 r~ track-4-left;
#X connect 0 0 7 0;
#X connect 1 0 7 0;
#X connect 2 0 7 0;
#X connect 3 0 7 3;
#X connect 4 0 7 3;
#X connect 5 0 7 3;
#X connect 7 0 6 0;
#X connect 7 1 6 1;
#X connect 8 0 7 3;
#X connect 9 0 7 0;
#X coords 0 -1 1 1 145 110 1 100 100;
#X restore 985 -523 pd rec;
#X obj -33 -319 midi-button 10 4;
#X obj 24 -301 midi-button 13 4;
#X obj 18 -575 declare -stdpath zexy -stdlib zexy;
#N canvas 91 23 1349 855 navigation 0;
#X msg 248 85 1;
#X msg 327 82 -1;
#X obj 294 125 +;
#X obj 359 131 int;
#X floatatom 355 179 5 0 0 0 - - -, f 5;
#X obj 248 39 midi-button 8 4;
#X obj 327 59 midi-button 9 4;
#X obj 288 242 outlet;
#X floatatom 116 317 5 0 0 0 - - -, f 5;
#X obj 116 235 bng 15 250 50 0 empty empty empty 17 7 0 10 -262144
-1 -1;
#X obj 152 271 + 1;
#X obj 116 270 int;
#X obj 173 391 file-exists;
#X obj 38 235 loadbang;
#X obj 173 414 sel 0;
#X msg 38 255 1;
#X obj 31 367 s \$0-initial-bank;
#X msg 173 367 ../memory/settings/\$1.txt;
#X obj 359 108 r \$0-initial-bank;
#X obj 200 440 delay 100;
#X obj 106 131 bng 15 250 50 0 empty empty + 17 7 0 10 -262144 -1 -1
;
#X obj 146 131 bng 15 250 50 0 empty empty - 17 7 0 10 -262144 -1 -1
;
#X floatatom 106 151 5 0 0 0 - - -, f 5;
#X obj 365 212 sel 0;
#X msg 473 163 1;
#X msg 437 164 100;
#X obj 425 213 sel 101;
#X obj 425 236 delay 100;
#X obj 365 236 delay 100;
#X connect 0 0 2 0;
#X connect 1 0 2 0;
#X connect 2 0 3 0;
#X connect 3 0 2 1;
#X connect 3 0 4 0;
#X connect 4 0 7 0;
#X connect 4 0 22 0;
#X connect 4 0 23 0;
#X connect 4 0 26 0;
#X connect 5 0 0 0;
#X connect 6 0 1 0;
#X connect 8 0 17 0;
#X connect 8 0 16 0;
#X connect 9 0 11 0;
#X connect 10 0 11 1;
#X connect 11 0 8 0;
#X connect 11 0 10 0;
#X connect 12 0 14 0;
#X connect 13 0 15 0;
#X connect 14 1 19 0;
#X connect 15 0 11 0;
#X connect 17 0 12 0;
#X connect 18 0 3 0;
#X connect 19 0 9 0;
#X connect 20 0 0 0;
#X connect 21 0 1 0;
#X connect 23 0 28 0;
#X connect 24 0 3 0;
#X connect 25 0 3 0;
#X connect 26 0 27 0;
#X connect 27 0 24 0;
#X connect 28 0 25 0;
#X coords 0 -1 1 1 85 70 1 100 100;
#X restore -89 -399 pd navigation;
#X obj 126 -286 s SAVE;
#X obj -81 -319 s BANK;
#X obj 848 -522 midi-observer;
#X obj 379 -521 midi-thru;
#X obj 490 -499 bng 15 250 50 0 empty empty empty 17 7 0 10 -262144
-1 -1;
#X obj 490 -476 s PLAY-ALL;
#X obj 490 -522 midi-button 19 4;
#X obj 727 -478 s RECORD-ALL;
#X obj 727 -523 midi-toggle 64 2;
#X obj 727 -501 tgl 15 0 empty empty empty 17 7 0 10 -262144 -1 -1
0 1;
#X obj 309 -468 s~ audio;
#X obj 309 -488 adc~;
#X msg 309 -524 set 7;
#X msg 309 -506 set 2;
#X obj 608 -499 bng 15 250 50 0 empty empty empty 17 7 0 10 -262144
-1 -1;
#X obj 608 -476 s STOP-ALL;
#X obj 608 -522 midi-button 16 4;
#X obj 203 -482 s MASTER-TRACK;
#X msg 203 -502 4;
#X obj 203 -522 r initialize;
#N canvas 0 25 1440 847 track-4 1;
#X obj 110 885 cosine-pan~;
#X obj 110 770 reverb~;
#X obj 953 973 r defaults;
#X obj 110 650 audio-delay~ 4000;
#X obj 110 532 eq3~;
#X obj 479 830 r defaults;
#X obj 477 716 r defaults;
#X obj 569 478 r defaults;
#X obj 806 184 r defaults;
#X obj 432 277 r defaults;
#X obj 273 302 r initialize;
#X obj 276 474 r initialize;
#X obj 277 591 r initialize;
#X obj 282 711 r initialize;
#X obj 280 826 r initialize;
#X obj 588 966 r initialize;
#X obj 429 161 r initialize;
#X obj 550 596 r defaults;
#X msg 479 851 position 0.5;
#X msg 550 616 wet 0 \, length 0 \, feedback 0;
#X msg 569 498 low 0.5 \, mid 0.5 \, high 0.5 \, gain 0.5;
#X msg 477 736 wet 0 \, size 0;
#X obj 276 515 eq3-control track-3-eq;
#X obj 277 633 audio-delay-control track-3-delay;
#X obj 282 753 reverb-control track-3-reverb;
#X obj 280 868 cosine-pan-control track-3-pan;
#X obj 110 407 pitch-shifter~;
#X obj 534 327 r initialize;
#X obj 908 353 r defaults;
#X obj 110 361 metal~;
#X obj 110 1120 s~ track-3-left;
#X obj 223 1119 s~ track-3-right;
#X obj 110 246 freeze~;
#X obj 277 924 / 127;
#X obj 387 924 / 127;
#X obj 110 940 file-recorder~;
#X obj 273 344 metal-control track-3-metal;
#X obj 534 390 pitch-shifter-control track-3-pitch-shift;
#X msg 806 204 switch 0 \, blend 0 \, purity 0 \, phaselock 0 \, speed
0 \, on-color 40 \, off-color 0;
#X msg 432 297 toggle 0 \, on-color 40 \, off-color 0;
#X msg 908 373 fine 0 \, coarse 1 \, width 0 \, on-color 40 \, off-color
0;
#X msg 953 993 volume 0.5 \, mute 0 \, on-color 40 \, off-color 0;
#X obj 588 1008 channel-out-control track-3-out;
#X obj 110 1025 channel-out~;
#X obj 585 -41 r defaults;
#X obj 223 -58 r initialize;
#X obj 816 -42 inlet bank;
#X msg 816 -21 bank \$1;
#X obj 109 -77 r~ audio;
#X msg 585 -21 monitor 0 \, on-color 40 \, off-color 0;
#X obj 110 129 looper~;
#X obj 429 229 freeze-control track-3-freeze;
#X obj 240 129 looper~;
#X obj 715 41 r defaults;
#X obj 353 24 r initialize;
#X msg 946 61 bank \$1;
#X obj 240 18 r~ audio;
#X msg 715 61 monitor 0 \, on-color 40 \, off-color 0;
#X obj 796 597 line-control~;
#X obj 1137 534 r defaults;
#X obj 852 527 r initialize;
#X msg 1138 554 volume 1 \, mute 0 \, on-color 23 \, off-color 0;
#X obj 806 737 line-control~;
#X obj 1147 674 r defaults;
#X obj 862 667 r initialize;
#X msg 1148 694 volume 1 \, mute 0 \, on-color 23 \, off-color 0;
#X obj 53 243 *~ 0.5;
#X obj 53 273 *~ 0.5;
#X obj 852 569 channel-out-control track-3-line;
#X obj 862 709 channel-out-control track-7-line;
#X obj 223 -5 looper-control track-4-looper;
#X obj 353 77 looper-control track-8-looper;
#X msg 223 -37 rec 48 \, play 52 \, stop 53 \, monitor 49 \, clear
60 \, channel 2 \, track-number 4;
#X msg 353 46 rec 58 \, play 54 \, stop 50 \, monitor 49 \, clear 56
\, channel 2 \, track-number 8;
#X msg 429 192 blend 50 \, speed 51 \, purity 54 \, switch 51 \, encoder-channel
1 \, toggle-channel 2;
#X msg 273 323 toggle 57 \, channel 2;
#X msg 534 348 fine 999 \, coarse 55 \, width 55 \, toggle 55 \, encoder-channel
1 \, toggle-channel 2;
#X msg 276 495 low 58 \, mid 59 \, high 62 \, gain 63 \, channel 1
;
#X msg 277 612 feedback 53 \, wet 49 \, length 52 \, channel 1;
#X msg 282 732 wet 56 \, size 57 \, channel 1;
#X msg 280 847 position 60 \, channel 1;
#X obj 277 903 midi-toggle 63 2;
#X obj 387 903 midi-toggle 62 2;
#X msg 588 987 volume 61 \, mute 61 \, encoder-channel 1 \, toggle-channel
2;
#X msg 852 548 volume 48 \, encoder-channel 1 \, toggle-channel 2;
#X msg 862 688 volume 54 \, encoder-channel 1 \, toggle-channel 2;
#X connect 0 0 35 0;
#X connect 0 0 43 0;
#X connect 0 1 35 3;
#X connect 0 1 43 2;
#X connect 1 0 0 0;
#X connect 2 0 41 0;
#X connect 3 0 1 0;
#X connect 4 0 3 0;
#X connect 5 0 18 0;
#X connect 6 0 21 0;
#X connect 7 0 20 0;
#X connect 8 0 38 0;
#X connect 9 0 39 0;
#X connect 10 0 75 0;
#X connect 11 0 77 0;
#X connect 12 0 78 0;
#X connect 13 0 79 0;
#X connect 14 0 80 0;
#X connect 15 0 83 0;
#X connect 16 0 74 0;
#X connect 17 0 19 0;
#X connect 18 0 25 1;
#X connect 19 0 23 1;
#X connect 20 0 22 1;
#X connect 21 0 24 1;
#X connect 22 0 4 1;
#X connect 23 0 3 1;
#X connect 24 0 1 1;
#X connect 25 0 0 1;
#X connect 26 0 4 0;
#X connect 27 0 76 0;
#X connect 28 0 40 0;
#X connect 29 0 26 0;
#X connect 32 0 29 0;
#X connect 33 0 35 1;
#X connect 34 0 35 2;
#X connect 35 0 43 0;
#X connect 35 1 43 2;
#X connect 36 0 29 1;
#X connect 37 0 26 1;
#X connect 38 0 51 1;
#X connect 39 0 36 1;
#X connect 40 0 37 1;
#X connect 41 0 42 1;
#X connect 42 0 43 1;
#X connect 43 0 30 0;
#X connect 43 1 31 0;
#X connect 44 0 49 0;
#X connect 45 0 72 0;
#X connect 46 0 47 0;
#X connect 46 0 55 0;
#X connect 47 0 70 0;
#X connect 48 0 50 0;
#X connect 49 0 70 1;
#X connect 50 0 58 0;
#X connect 51 0 32 1;
#X connect 52 0 62 0;
#X connect 53 0 57 0;
#X connect 54 0 73 0;
#X connect 55 0 71 0;
#X connect 56 0 52 0;
#X connect 57 0 71 1;
#X connect 58 0 66 0;
#X connect 59 0 61 0;
#X connect 60 0 84 0;
#X connect 61 0 68 1;
#X connect 62 0 67 0;
#X connect 63 0 65 0;
#X connect 64 0 85 0;
#X connect 65 0 69 1;
#X connect 66 0 32 0;
#X connect 67 0 32 0;
#X connect 68 0 58 1;
#X connect 69 0 62 1;
#X connect 70 0 50 1;
#X connect 71 0 52 1;
#X connect 72 0 70 0;
#X connect 73 0 71 0;
#X connect 74 0 51 0;
#X connect 75 0 36 0;
#X connect 76 0 37 0;
#X connect 77 0 22 0;
#X connect 78 0 23 0;
#X connect 79 0 24 0;
#X connect 80 0 25 0;
#X connect 81 0 33 0;
#X connect 82 0 34 0;
#X connect 83 0 42 0;
#X connect 84 0 68 0;
#X connect 85 0 69 0;
#X coords 0 -1 1 1 310 995 1 100 100;
#X restore 1282 -328 pd track-4;
#X connect 0 0 1 0;
#X connect 0 0 2 0;
#X connect 3 0 1 0;
#X connect 8 0 7 0;
#X connect 10 0 8 1;
#X connect 11 0 8 2;
#X connect 11 0 14 0;
#X connect 13 0 4 0;
#X connect 13 0 5 0;
#X connect 13 0 6 0;
#X connect 13 0 15 0;
#X connect 13 0 8 0;
#X connect 13 0 34 0;
#X connect 18 0 19 0;
#X connect 20 0 18 0;
#X connect 22 0 23 0;
#X connect 23 0 21 0;
#X connect 25 0 24 0;
#X connect 26 0 25 0;
#X connect 27 0 25 0;
#X connect 28 0 29 0;
#X connect 30 0 28 0;
#X connect 32 0 31 0;
#X connect 33 0 32 0;
