#N canvas 1111 100 978 868 10;
#X obj 48 329 cosine-pan~;
#X obj 48 433 channel-out~;
#X obj 48 -133 looper~;
#X obj 48 115 reverb~;
#X obj 48 -158 adc~;
#X obj 179 309 memory-encoder 12 1;
#X obj 174 95 memory-encoder 8 1;
#X obj 355 95 memory-encoder 9 1;
#X obj 211 404 ctlout 12 1;
#X obj 48 -62 audio-delay~ 3000;
#X obj 174 -83 memory-encoder 1 1;
#X obj 346 -83 memory-encoder 4 1;
#X obj 522 -81 memory-encoder 5 1;
#X obj 76 65 ctlout 1 1;
#X obj 153 63 ctlout 4 1;
#X obj 231 62 ctlout 5 1;
#X obj 96 255 ctlout 8 1;
#X obj 173 253 ctlout 9 1;
#X connect 0 0 1 0;
#X connect 0 1 8 0;
#X connect 0 2 1 4;
#X connect 2 0 9 0;
#X connect 3 0 0 0;
#X connect 3 1 16 0;
#X connect 3 2 17 0;
#X connect 4 0 2 0;
#X connect 5 0 0 1;
#X connect 6 0 3 2;
#X connect 7 0 3 3;
#X connect 9 0 3 0;
#X connect 9 1 13 0;
#X connect 9 2 14 0;
#X connect 9 3 15 0;
#X connect 10 0 9 1;
#X connect 11 0 9 2;
#X connect 12 0 9 3;
