#N canvas 297 52 1284 865 12;
#X obj 48 46 loadbang-dsp;
#X obj 59 111 looper~;
#X obj 61 229 pitch-shifter~;
#X obj 61 657 channel-out~;
#X obj 59 76 adc~;
#X msg 221 210 coarse \$1;
#X obj 221 149 memory-slider;
#X msg 279 326 width \$1;
#X obj 278 264 memory-slider;
#X obj 63 473 audio-delay~ 3000;
#X obj 236 518 memory-slider;
#X obj 322 609 memory-slider;
#X msg 236 579 length \$1;
#X msg 323 671 feedback \$1;
#X obj 64 358 eq3~;
#X obj 394 349 memory-slider;
#X obj 463 428 memory-slider;
#X obj 543 510 memory-slider;
#X msg 394 410 low \$1;
#X msg 466 487 mid \$1;
#X msg 543 571 high \$1;
#X obj 62 595 cosine-pan~;
#X obj 247 705 memory-slider;
#X msg 248 765 position \$1;
#X connect 1 0 2 0;
#X connect 2 0 14 0;
#X connect 4 0 1 0;
#X connect 5 0 2 1;
#X connect 6 0 5 0;
#X connect 7 0 2 1;
#X connect 8 0 7 0;
#X connect 9 0 21 0;
#X connect 10 0 12 0;
#X connect 11 0 13 0;
#X connect 12 0 9 1;
#X connect 13 0 9 1;
#X connect 14 0 9 0;
#X connect 15 0 18 0;
#X connect 16 0 19 0;
#X connect 17 0 20 0;
#X connect 18 0 14 1;
#X connect 19 0 14 1;
#X connect 20 0 14 1;
#X connect 21 0 3 0;
#X connect 21 1 3 2;
#X connect 22 0 23 0;
#X connect 23 0 21 1;
