#N canvas 0 25 1680 997 12;
#X declare -lib zexy -stdpath zexy -stdlib zexy;
#X declare -lib zexy -stdpath zexy -stdlib zexy;
#X obj 237 924 channel-out~;
#X msg 380 905 volume 0.75;
#X obj 51 2 s initialize;
#X obj 51 -49 bng 19 250 50 0 empty empty empty 0 -10 0 12 #fcfcfc #000000 #000000;
#X obj 51 -22 delay 5000;
#X obj 237 481 pitch-shifter~;
#N canvas 6 284 861 391 pitch-assignments 0;
#X obj 165 234 outlet;
#X obj 68 33 / 127;
#X msg 68 63 coarse \$1;
#X msg 266 51 coarse 1;
#X obj 378 33 / 127;
#X msg 576 51 width 0;
#X msg 379 63 width \$1;
#X msg 269 76 127;
#X msg 579 82 0;
#X obj 68 -49 midi-toggle 16 2;
#X obj 104 -22 midi-led 16 2;
#X obj 68 7 memory-encoder 16 1;
#X obj 114 29 ctlout 16 1;
#X obj 267 101 ctlout 16 1;
#X obj 378 -46 midi-toggle 17 2;
#X obj 428 -21 midi-led 17 2;
#X obj 378 7 memory-encoder 17 1;
#X obj 427 29 ctlout 17 1;
#X obj 578 110 ctlout 17 1;
#X obj 222 -25 midi-button 16 4;
#X obj 532 -25 midi-button 16 4;
#X obj 276 12 r initialize;
#X connect 1 0 2 0;
#X connect 2 0 0 0;
#X connect 3 0 0 0;
#X connect 3 0 7 0;
#X connect 4 0 6 0;
#X connect 5 0 0 0;
#X connect 5 0 8 0;
#X connect 6 0 0 0;
#X connect 7 0 13 0;
#X connect 8 0 18 0;
#X connect 9 0 10 0;
#X connect 9 0 11 0;
#X connect 11 0 1 0;
#X connect 11 0 12 0;
#X connect 14 0 15 0;
#X connect 14 0 16 0;
#X connect 16 0 4 0;
#X connect 16 0 17 0;
#X connect 19 0 3 0;
#X connect 19 0 11 1;
#X connect 20 0 5 0;
#X connect 20 0 16 1;
#X connect 21 0 3 0;
#X restore 362 463 pd pitch-assignments;
#X obj 237 619 audio-delay~ 3000;
#N canvas 711 134 942 490 delay-assignments 0;
#X obj 191 239 outlet;
#X obj 94 11 / 127;
#X msg 94 41 wet \$1;
#X msg 292 29 wet 0;
#X obj 324 141 / 127;
#X msg 324 171 length \$1;
#X msg 522 159 length 0;
#X msg -184 166 feedback \$1;
#X msg 14 154 feedback 0;
#X obj -183 141 / 127;
#X msg 18 186 0;
#X msg 215 58 0;
#X msg 526 215 0;
#X obj 324 64 midi-toggle 20 2;
#X obj 358 89 midi-led 20 2;
#X obj 324 115 memory-encoder 20 1;
#X obj 372 141 ctlout 20 1;
#X obj 527 242 ctlout 20 1;
#X obj -184 45 midi-toggle 21 2;
#X obj -161 75 midi-led 21 2;
#X obj -184 110 memory-encoder 21 1;
#X obj -127 139 ctlout 21 1;
#X obj 19 213 ctlout 21 1;
#X obj 94 -71 midi-toggle 24 2;
#X obj 113 -45 midi-led 24 2;
#X obj 94 -15 memory-encoder 24 1;
#X obj 154 12 ctlout 24 1;
#X obj 216 85 ctlout 24 1;
#X obj -30 78 midi-button 16 4;
#X obj 248 -47 midi-button 16 4;
#X obj 478 83 midi-button 16 4;
#X connect 1 0 2 0;
#X connect 2 0 0 0;
#X connect 3 0 0 0;
#X connect 3 0 11 0;
#X connect 4 0 5 0;
#X connect 5 0 0 0;
#X connect 6 0 0 0;
#X connect 6 0 12 0;
#X connect 7 0 0 0;
#X connect 8 0 0 0;
#X connect 8 0 10 0;
#X connect 9 0 7 0;
#X connect 10 0 22 0;
#X connect 11 0 27 0;
#X connect 12 0 17 0;
#X connect 13 0 14 0;
#X connect 13 0 15 0;
#X connect 15 0 4 0;
#X connect 15 0 16 0;
#X connect 18 0 19 0;
#X connect 18 0 20 0;
#X connect 20 0 9 0;
#X connect 20 0 21 0;
#X connect 23 0 24 0;
#X connect 23 0 25 0;
#X connect 25 0 1 0;
#X connect 25 0 26 0;
#X connect 28 0 8 0;
#X connect 28 0 20 1;
#X connect 29 0 3 0;
#X connect 29 0 25 1;
#X connect 30 0 6 0;
#X connect 30 0 15 1;
#X restore 381 600 pd delay-assignments;
#X obj 379 -64 midi-observer;
#X obj 237 736 reverb~;
#X obj 237 356 eq3~;
#N canvas 426 334 1254 472 eq3-assignments 0;
#X obj 853 346 outlet;
#X obj 68 33 / 127;
#X obj 378 33 / 127;
#X obj 222 -25 midi-button 16 4;
#X obj 532 -25 midi-button 16 4;
#X msg 68 63 low \$1;
#X msg 379 63 mid \$1;
#X obj 698 33 / 127;
#X obj 1008 33 / 127;
#X obj 852 -25 midi-button 16 4;
#X obj 1162 -25 midi-button 16 4;
#X msg 698 63 high \$1;
#X msg 1009 63 gain \$1;
#X obj 68 -49 midi-toggle 26 2;
#X obj 104 -22 midi-led 26 2;
#X obj 68 7 memory-encoder 26 1;
#X obj 114 29 ctlout 26 1;
#X obj 267 101 ctlout 26 1;
#X obj 698 -49 midi-toggle 27 2;
#X obj 734 -22 midi-led 27 2;
#X obj 698 7 memory-encoder 27 1;
#X obj 744 29 ctlout 27 1;
#X obj 897 101 ctlout 27 1;
#X obj 378 -46 midi-toggle 30 2;
#X obj 428 -21 midi-led 30 2;
#X obj 378 7 memory-encoder 30 1;
#X obj 427 29 ctlout 30 1;
#X obj 578 110 ctlout 30 1;
#X obj 1008 -46 midi-toggle 31 2;
#X obj 1058 -21 midi-led 31 2;
#X obj 1008 7 memory-encoder 31 1;
#X obj 1057 29 ctlout 31 1;
#X obj 1208 110 ctlout 31 1;
#X msg 266 51 low 0.5;
#X msg 576 51 mid 0.5;
#X msg 896 51 high 0.5;
#X msg 1206 51 gain 0.5;
#X msg 269 76 63;
#X msg 579 82 63;
#X msg 899 76 63;
#X msg 1209 82 63;
#X obj 267 18 r initialize;
#X obj 581 22 r initialize;
#X obj 900 15 r initialize;
#X obj 1209 18 r initialize;
#X connect 1 0 5 0;
#X connect 2 0 6 0;
#X connect 3 0 33 0;
#X connect 3 0 15 1;
#X connect 4 0 34 0;
#X connect 4 0 25 1;
#X connect 5 0 0 0;
#X connect 6 0 0 0;
#X connect 7 0 11 0;
#X connect 8 0 12 0;
#X connect 9 0 35 0;
#X connect 9 0 20 1;
#X connect 10 0 36 0;
#X connect 10 0 30 1;
#X connect 11 0 0 0;
#X connect 12 0 0 0;
#X connect 13 0 14 0;
#X connect 13 0 15 0;
#X connect 15 0 1 0;
#X connect 15 0 16 0;
#X connect 18 0 19 0;
#X connect 18 0 20 0;
#X connect 20 0 7 0;
#X connect 20 0 21 0;
#X connect 23 0 24 0;
#X connect 23 0 25 0;
#X connect 25 0 2 0;
#X connect 25 0 26 0;
#X connect 28 0 29 0;
#X connect 28 0 30 0;
#X connect 30 0 8 0;
#X connect 30 0 31 0;
#X connect 33 0 0 0;
#X connect 33 0 37 0;
#X connect 34 0 0 0;
#X connect 34 0 38 0;
#X connect 35 0 39 0;
#X connect 35 0 0 0;
#X connect 36 0 40 0;
#X connect 36 0 0 0;
#X connect 37 0 17 0;
#X connect 38 0 27 0;
#X connect 39 0 22 0;
#X connect 40 0 32 0;
#X connect 41 0 33 0;
#X connect 42 0 34 0;
#X connect 43 0 35 0;
#X connect 44 0 36 0;
#X restore 365 337 pd eq3-assignments;
#X obj 237 227 freeze~;
#N canvas 678 241 1002 540 reverb-assignments 0;
#X obj 191 239 outlet;
#X obj 94 11 / 127;
#X msg 94 41 wet \$1;
#X msg 292 29 wet 0;
#X obj 438 30 / 127;
#X msg 639 75 0;
#X msg 215 58 0;
#X obj 591 -33 midi-button 16 4;
#X obj 248 -47 midi-button 16 4;
#X msg 437 55 size \$1;
#X msg 635 43 size 0;
#X obj 94 -71 midi-toggle 28 2;
#X obj 113 -45 midi-led 28 2;
#X obj 94 -15 memory-encoder 28 1;
#X obj 154 12 ctlout 28 1;
#X obj 216 85 ctlout 28 1;
#X obj 437 -66 midi-toggle 29 2;
#X obj 460 -36 midi-led 29 2;
#X obj 437 -1 memory-encoder 29 1;
#X obj 494 28 ctlout 29 1;
#X obj 640 102 ctlout 29 1;
#X connect 1 0 2 0;
#X connect 2 0 0 0;
#X connect 3 0 0 0;
#X connect 3 0 6 0;
#X connect 4 0 9 0;
#X connect 5 0 20 0;
#X connect 6 0 15 0;
#X connect 7 0 10 0;
#X connect 7 0 18 1;
#X connect 8 0 3 0;
#X connect 8 0 13 1;
#X connect 9 0 0 0;
#X connect 10 0 0 0;
#X connect 10 0 5 0;
#X connect 11 0 12 0;
#X connect 11 0 13 0;
#X connect 13 0 1 0;
#X connect 13 0 14 0;
#X connect 16 0 17 0;
#X connect 16 0 18 0;
#X connect 18 0 4 0;
#X connect 18 0 19 0;
#X restore 378 717 pd reverb-assignments;
#N canvas 663 418 1002 540 freeze-assignments 0;
#X obj 191 239 outlet;
#X obj 94 11 / 127;
#X obj 438 30 / 127;
#X msg 639 75 0;
#X msg 215 58 0;
#X obj 591 -33 midi-button 16 4;
#X obj 248 -47 midi-button 16 4;
#X obj 94 -71 midi-toggle 22 2;
#X obj 113 -45 midi-led 22 2;
#X obj 94 -15 memory-encoder 22 1;
#X obj 154 12 ctlout 22 1;
#X obj 216 85 ctlout 22 1;
#X obj 437 -66 midi-toggle 23 2;
#X obj 460 -36 midi-led 23 2;
#X obj 437 -1 memory-encoder 23 1;
#X obj 494 28 ctlout 23 1;
#X obj 640 102 ctlout 23 1;
#X msg 94 41 blend \$1;
#X msg 292 29 blend 0;
#X msg 437 55 speed \$1;
#X msg 635 43 speed 0;
#X connect 1 0 17 0;
#X connect 2 0 19 0;
#X connect 3 0 16 0;
#X connect 4 0 11 0;
#X connect 5 0 20 0;
#X connect 5 0 14 1;
#X connect 6 0 18 0;
#X connect 6 0 9 1;
#X connect 7 0 8 0;
#X connect 7 0 9 0;
#X connect 9 0 1 0;
#X connect 9 0 10 0;
#X connect 12 0 13 0;
#X connect 12 0 14 0;
#X connect 14 0 2 0;
#X connect 14 0 15 0;
#X connect 17 0 0 0;
#X connect 18 0 0 0;
#X connect 18 0 4 0;
#X connect 19 0 0 0;
#X connect 20 0 0 0;
#X connect 20 0 3 0;
#X restore 370 208 pd freeze-assignments;
#X obj 562 11 adc~;
#N canvas 303 236 867 656 looper-assignments 0;
#X obj 36 33 midi-toggle 18 2;
#X obj 118 69 midi-led 18 2;
#X msg 43 104 monitor \$1;
#X obj 231 42 midi-toggle 19 2;
#X msg 395 232 clear 1;
#X obj 260 366 outlet;
#X obj 442 25 midi-button 15 4;
#X obj 621 28 midi-button 14 4;
#X obj 443 79 s \$0-file-advance-1;
#X obj 621 78 s \$0-file-decrement-1;
#X msg 233 75 toggle \$1;
#X msg 487 312 toggle-button 19;
#X obj 351 161 midi-long-press 19 4;
#X obj 487 285 loadbang;
#X obj 488 189 s SAVE;
#X msg 324 233 delete 1;
#X msg 463 232 stop 1;
#X obj 352 190 t b b b;
#X connect 0 0 1 0;
#X connect 0 0 2 0;
#X connect 2 0 5 0;
#X connect 3 0 10 0;
#X connect 4 0 5 0;
#X connect 6 0 8 0;
#X connect 7 0 9 0;
#X connect 10 0 5 0;
#X connect 11 0 5 0;
#X connect 12 0 17 0;
#X connect 12 1 14 0;
#X connect 13 0 11 0;
#X connect 15 0 5 0;
#X connect 16 0 5 0;
#X connect 17 0 15 0;
#X connect 17 1 4 0;
#X connect 17 2 16 0;
#X restore 689 19 pd looper-assignments;
#X obj 887 915 channel-out~;
#X msg 1030 896 volume 0.75;
#X obj 887 481 pitch-shifter~;
#N canvas 819 397 861 391 pitch-assignments 0;
#X obj 165 234 outlet;
#X obj 68 33 / 127;
#X msg 68 63 coarse \$1;
#X msg 266 51 coarse 1;
#X obj 378 33 / 127;
#X msg 576 51 width 0;
#X msg 379 63 width \$1;
#X msg 269 76 127;
#X msg 579 82 0;
#X obj 68 -49 midi-toggle 48 2;
#X obj 104 -22 midi-led 48 2;
#X obj 68 7 memory-encoder 48 1;
#X obj 114 29 ctlout 48 1;
#X obj 267 101 ctlout 48 1;
#X obj 378 -46 midi-toggle 49 2;
#X obj 428 -21 midi-led 49 2;
#X obj 378 7 memory-encoder 49 1;
#X obj 427 29 ctlout 49 1;
#X obj 578 110 ctlout 49 1;
#X obj 222 -25 midi-button 28 4;
#X obj 532 -25 midi-button 28 4;
#X obj 269 20 r initialize;
#X connect 1 0 2 0;
#X connect 2 0 0 0;
#X connect 3 0 0 0;
#X connect 3 0 7 0;
#X connect 4 0 6 0;
#X connect 5 0 0 0;
#X connect 5 0 8 0;
#X connect 6 0 0 0;
#X connect 7 0 13 0;
#X connect 8 0 18 0;
#X connect 9 0 10 0;
#X connect 9 0 11 0;
#X connect 11 0 1 0;
#X connect 11 0 12 0;
#X connect 14 0 15 0;
#X connect 14 0 16 0;
#X connect 16 0 4 0;
#X connect 16 0 17 0;
#X connect 19 0 3 0;
#X connect 19 0 11 1;
#X connect 20 0 5 0;
#X connect 20 0 16 1;
#X connect 21 0 3 0;
#X restore 1012 463 pd pitch-assignments;
#X obj 887 619 audio-delay~ 3000;
#N canvas 711 134 942 490 delay-assignments 0;
#X obj 191 239 outlet;
#X obj 94 11 / 127;
#X msg 94 41 wet \$1;
#X msg 292 29 wet 0;
#X obj 324 141 / 127;
#X msg 324 171 length \$1;
#X msg 522 159 length 0;
#X msg -184 166 feedback \$1;
#X msg 14 154 feedback 0;
#X obj -183 141 / 127;
#X msg 18 186 0;
#X msg 215 58 0;
#X msg 526 215 0;
#X obj 324 64 midi-toggle 52 2;
#X obj 358 89 midi-led 52 2;
#X obj 324 115 memory-encoder 52 1;
#X obj 372 141 ctlout 52 1;
#X obj 527 242 ctlout 52 1;
#X obj -184 45 midi-toggle 53 2;
#X obj -161 75 midi-led 53 2;
#X obj -184 110 memory-encoder 53 1;
#X obj -127 139 ctlout 53 1;
#X obj 19 213 ctlout 53 1;
#X obj 94 -71 midi-toggle 56 2;
#X obj 113 -45 midi-led 56 2;
#X obj 94 -15 memory-encoder 56 1;
#X obj 154 12 ctlout 56 1;
#X obj 216 85 ctlout 56 1;
#X obj -30 78 midi-button 28 4;
#X obj 478 83 midi-button 28 4;
#X obj 248 -47 midi-button 28 4;
#X connect 1 0 2 0;
#X connect 2 0 0 0;
#X connect 3 0 0 0;
#X connect 3 0 11 0;
#X connect 4 0 5 0;
#X connect 5 0 0 0;
#X connect 6 0 0 0;
#X connect 6 0 12 0;
#X connect 7 0 0 0;
#X connect 8 0 0 0;
#X connect 8 0 10 0;
#X connect 9 0 7 0;
#X connect 10 0 22 0;
#X connect 11 0 27 0;
#X connect 12 0 17 0;
#X connect 13 0 14 0;
#X connect 13 0 15 0;
#X connect 15 0 4 0;
#X connect 15 0 16 0;
#X connect 18 0 19 0;
#X connect 18 0 20 0;
#X connect 20 0 9 0;
#X connect 20 0 21 0;
#X connect 23 0 24 0;
#X connect 23 0 25 0;
#X connect 25 0 1 0;
#X connect 25 0 26 0;
#X connect 28 0 8 0;
#X connect 28 0 20 1;
#X connect 29 0 6 0;
#X connect 29 0 15 1;
#X connect 30 0 3 0;
#X connect 30 0 25 1;
#X restore 1031 600 pd delay-assignments;
#X obj 887 736 reverb~;
#X obj 887 356 eq3~;
#N canvas 426 334 1254 472 eq3-assignments 0;
#X obj 853 346 outlet;
#X obj 68 33 / 127;
#X obj 378 33 / 127;
#X msg 68 63 low \$1;
#X msg 379 63 mid \$1;
#X obj 698 33 / 127;
#X obj 1008 33 / 127;
#X msg 698 63 high \$1;
#X msg 1009 63 gain \$1;
#X msg 266 51 low 0.5;
#X msg 576 51 mid 0.5;
#X msg 896 51 high 0.5;
#X msg 1206 51 gain 0.5;
#X msg 269 76 63;
#X msg 579 82 63;
#X msg 899 76 63;
#X msg 1209 82 63;
#X obj 68 -49 midi-toggle 58 2;
#X obj 104 -22 midi-led 58 2;
#X obj 68 7 memory-encoder 58 1;
#X obj 114 29 ctlout 58 1;
#X obj 267 101 ctlout 58 1;
#X obj 698 -49 midi-toggle 59 2;
#X obj 734 -22 midi-led 59 2;
#X obj 698 7 memory-encoder 59 1;
#X obj 744 29 ctlout 59 1;
#X obj 897 101 ctlout 59 1;
#X obj 378 -46 midi-toggle 62 2;
#X obj 428 -21 midi-led 62 2;
#X obj 378 7 memory-encoder 62 1;
#X obj 427 29 ctlout 62 1;
#X obj 578 110 ctlout 62 1;
#X obj 1008 -46 midi-toggle 63 2;
#X obj 1058 -21 midi-led 63 2;
#X obj 1008 7 memory-encoder 63 1;
#X obj 1057 29 ctlout 63 1;
#X obj 1208 110 ctlout 63 1;
#X obj 222 -25 midi-button 28 4;
#X obj 532 -25 midi-button 28 4;
#X obj 852 -25 midi-button 28 4;
#X obj 1162 -25 midi-button 28 4;
#X obj 267 18 r initialize;
#X obj 581 22 r initialize;
#X obj 900 15 r initialize;
#X obj 1209 18 r initialize;
#X connect 1 0 3 0;
#X connect 2 0 4 0;
#X connect 3 0 0 0;
#X connect 4 0 0 0;
#X connect 5 0 7 0;
#X connect 6 0 8 0;
#X connect 7 0 0 0;
#X connect 8 0 0 0;
#X connect 9 0 0 0;
#X connect 9 0 13 0;
#X connect 10 0 0 0;
#X connect 10 0 14 0;
#X connect 11 0 15 0;
#X connect 11 0 0 0;
#X connect 12 0 16 0;
#X connect 12 0 0 0;
#X connect 13 0 21 0;
#X connect 14 0 31 0;
#X connect 15 0 26 0;
#X connect 16 0 36 0;
#X connect 17 0 18 0;
#X connect 17 0 19 0;
#X connect 19 0 1 0;
#X connect 19 0 20 0;
#X connect 22 0 23 0;
#X connect 22 0 24 0;
#X connect 24 0 5 0;
#X connect 24 0 25 0;
#X connect 27 0 28 0;
#X connect 27 0 29 0;
#X connect 29 0 2 0;
#X connect 29 0 30 0;
#X connect 32 0 33 0;
#X connect 32 0 34 0;
#X connect 34 0 6 0;
#X connect 34 0 35 0;
#X connect 37 0 9 0;
#X connect 37 0 19 1;
#X connect 38 0 10 0;
#X connect 38 0 29 1;
#X connect 39 0 11 0;
#X connect 39 0 24 1;
#X connect 40 0 12 0;
#X connect 40 0 34 1;
#X connect 41 0 9 0;
#X connect 42 0 10 0;
#X connect 43 0 11 0;
#X connect 44 0 12 0;
#X restore 1015 337 pd eq3-assignments;
#X obj 887 227 freeze~;
#N canvas 678 241 1002 540 reverb-assignments 0;
#X obj 191 239 outlet;
#X obj 94 11 / 127;
#X msg 94 41 wet \$1;
#X msg 292 29 wet 0;
#X obj 438 30 / 127;
#X msg 639 75 0;
#X msg 215 58 0;
#X msg 437 55 size \$1;
#X msg 635 43 size 0;
#X obj 94 -71 midi-toggle 60 2;
#X obj 113 -44 midi-led 60 2;
#X obj 94 -15 memory-encoder 60 1;
#X obj 154 12 ctlout 60 1;
#X obj 216 85 ctlout 60 1;
#X obj 437 -66 midi-toggle 61 2;
#X obj 460 -36 midi-led 61 2;
#X obj 437 -1 memory-encoder 61 1;
#X obj 494 28 ctlout 61 1;
#X obj 640 102 ctlout 61 1;
#X obj 248 -47 midi-button 28 4;
#X obj 591 -33 midi-button 28 4;
#X connect 1 0 2 0;
#X connect 2 0 0 0;
#X connect 3 0 0 0;
#X connect 3 0 6 0;
#X connect 4 0 7 0;
#X connect 5 0 18 0;
#X connect 6 0 13 0;
#X connect 7 0 0 0;
#X connect 8 0 0 0;
#X connect 8 0 5 0;
#X connect 9 0 10 0;
#X connect 9 0 11 0;
#X connect 11 0 1 0;
#X connect 11 0 12 0;
#X connect 14 0 15 0;
#X connect 14 0 16 0;
#X connect 16 0 4 0;
#X connect 16 0 17 0;
#X connect 19 0 3 0;
#X connect 19 0 11 1;
#X connect 20 0 8 0;
#X connect 20 0 16 1;
#X restore 1028 717 pd reverb-assignments;
#N canvas 663 418 1002 540 freeze-assignments 0;
#X obj 191 239 outlet;
#X obj 94 11 / 127;
#X obj 438 30 / 127;
#X msg 639 75 0;
#X msg 215 58 0;
#X msg 94 41 blend \$1;
#X msg 292 29 blend 0;
#X msg 437 55 speed \$1;
#X msg 635 43 speed 0;
#X obj 94 -71 midi-toggle 54 2;
#X obj 113 -45 midi-led 54 2;
#X obj 94 -15 memory-encoder 54 1;
#X obj 154 12 ctlout 54 1;
#X obj 216 85 ctlout 54 1;
#X obj 437 -66 midi-toggle 55 2;
#X obj 460 -36 midi-led 55 2;
#X obj 437 -1 memory-encoder 55 1;
#X obj 494 28 ctlout 55 1;
#X obj 640 102 ctlout 55 1;
#X obj 248 -47 midi-button 28 4;
#X obj 591 -33 midi-button 28 4;
#X connect 1 0 5 0;
#X connect 2 0 7 0;
#X connect 3 0 18 0;
#X connect 4 0 13 0;
#X connect 5 0 0 0;
#X connect 6 0 0 0;
#X connect 6 0 4 0;
#X connect 7 0 0 0;
#X connect 8 0 0 0;
#X connect 8 0 3 0;
#X connect 9 0 10 0;
#X connect 9 0 11 0;
#X connect 11 0 1 0;
#X connect 11 0 12 0;
#X connect 14 0 15 0;
#X connect 14 0 16 0;
#X connect 16 0 2 0;
#X connect 16 0 17 0;
#X connect 19 0 6 0;
#X connect 19 0 11 1;
#X connect 20 0 8 0;
#X connect 20 0 16 1;
#X restore 1020 208 pd freeze-assignments;
#X obj 237 134 catch~ \$0-main-1;
#X obj 887 134 catch~ \$0-main-2;
#X obj 562 159 throw~ \$0-main-1;
#N canvas 57 46 1623 976 loop-players-1 0;
#X obj 136 75 midi-button-to-toggle 0 2;
#X obj 48 113 loop-player~ 1;
#X obj 48 210 line-control~;
#X obj 145 127 midi-encoder 0 1;
#X msg 146 177 volume \$1;
#X obj 146 152 / 127;
#X obj 312 198 ctlout 0 1;
#X obj 408 210 line-control~;
#X msg 506 177 volume \$1;
#X obj 506 152 / 127;
#X obj 768 210 line-control~;
#X msg 866 177 volume \$1;
#X obj 866 152 / 127;
#X obj 1128 210 line-control~;
#X msg 1226 177 volume \$1;
#X obj 1226 152 / 127;
#X obj 489 75 midi-button-to-toggle 1 2;
#X obj 504 102 midi-led 1 2;
#X obj 505 127 midi-encoder 1 1;
#X obj 849 75 midi-button-to-toggle 2 2;
#X obj 864 102 midi-led 2 2;
#X obj 865 127 midi-encoder 2 1;
#X obj 1209 75 midi-button-to-toggle 3 2;
#X obj 1224 102 midi-led 3 2;
#X obj 1225 127 midi-encoder 3 1;
#X obj 1128 113 loop-player~ 4;
#X obj 768 113 loop-player~ 3;
#X obj 408 113 loop-player~ 2;
#X obj 672 198 ctlout 1 1;
#X obj 1032 198 ctlout 2 1;
#X obj 1392 198 ctlout 3 1;
#X obj 48 640 line-control~;
#X msg 146 607 volume \$1;
#X obj 146 582 / 127;
#X obj 408 640 line-control~;
#X msg 506 607 volume \$1;
#X obj 506 582 / 127;
#X obj 768 640 line-control~;
#X msg 866 607 volume \$1;
#X obj 866 582 / 127;
#X obj 1128 640 line-control~;
#X msg 1226 607 volume \$1;
#X obj 1226 582 / 127;
#X obj 129 505 midi-button-to-toggle 4 2;
#X obj 144 532 midi-led 4 2;
#X obj 145 557 midi-encoder 4 1;
#X obj 489 505 midi-button-to-toggle 5 2;
#X obj 504 532 midi-led 5 2;
#X obj 505 557 midi-encoder 5 1;
#X obj 672 628 ctlout 5 1;
#X obj 312 628 ctlout 4 1;
#X obj 849 505 midi-button-to-toggle 6 2;
#X obj 864 532 midi-led 6 2;
#X obj 865 557 midi-encoder 6 1;
#X obj 1032 628 ctlout 6 1;
#X obj 1209 505 midi-button-to-toggle 7 2;
#X obj 1224 532 midi-led 7 2;
#X obj 1225 557 midi-encoder 7 1;
#X obj 1392 628 ctlout 7 1;
#X obj 48 543 loop-player~ 5;
#X obj 408 543 loop-player~ 6;
#X obj 768 543 loop-player~ 7;
#X obj 1128 543 loop-player~ 8;
#X obj 48 1070 line-control~;
#X msg 146 1037 volume \$1;
#X obj 146 1012 / 127;
#X obj 408 1070 line-control~;
#X msg 506 1037 volume \$1;
#X obj 506 1012 / 127;
#X obj 768 1070 line-control~;
#X msg 866 1037 volume \$1;
#X obj 866 1012 / 127;
#X obj 1128 1070 line-control~;
#X msg 1226 1037 volume \$1;
#X obj 1226 1012 / 127;
#X obj 48 1510 line-control~;
#X msg 146 1477 volume \$1;
#X obj 146 1452 / 127;
#X obj 408 1510 line-control~;
#X msg 506 1477 volume \$1;
#X obj 506 1452 / 127;
#X obj 768 1510 line-control~;
#X msg 866 1477 volume \$1;
#X obj 866 1452 / 127;
#X obj 1128 1510 line-control~;
#X msg 1226 1477 volume \$1;
#X obj 1226 1452 / 127;
#X obj 129 935 midi-button-to-toggle 8 2;
#X obj 144 962 midi-led 8 2;
#X obj 145 987 midi-encoder 8 1;
#X obj 312 1058 ctlout 8 1;
#X obj 489 935 midi-button-to-toggle 9 2;
#X obj 504 962 midi-led 9 2;
#X obj 505 987 midi-encoder 9 1;
#X obj 672 1058 ctlout 9 1;
#X obj 849 935 midi-button-to-toggle 10 2;
#X obj 864 962 midi-led 10 2;
#X obj 865 987 midi-encoder 10 1;
#X obj 1032 1058 ctlout 10 1;
#X obj 1209 935 midi-button-to-toggle 11 2;
#X obj 1224 962 midi-led 11 2;
#X obj 1225 987 midi-encoder 11 1;
#X obj 1392 1058 ctlout 11 1;
#X obj 48 973 loop-player~ 9;
#X obj 408 973 loop-player~ 10;
#X obj 768 973 loop-player~ 11;
#X obj 1128 973 loop-player~ 12;
#X obj 129 1375 midi-button-to-toggle 12 2;
#X obj 144 1402 midi-led 12 2;
#X obj 145 1427 midi-encoder 12 1;
#X obj 312 1498 ctlout 12 1;
#X obj 489 1375 midi-button-to-toggle 13 2;
#X obj 504 1402 midi-led 13 2;
#X obj 505 1427 midi-encoder 13 1;
#X obj 672 1498 ctlout 13 1;
#X obj 849 1375 midi-button-to-toggle 14 2;
#X obj 864 1402 midi-led 14 2;
#X obj 865 1427 midi-encoder 14 1;
#X obj 1032 1498 ctlout 14 1;
#X obj 1209 1375 midi-button-to-toggle 15 2;
#X obj 1224 1402 midi-led 15 2;
#X obj 1225 1427 midi-encoder 15 1;
#X obj 1392 1498 ctlout 15 1;
#X obj 48 1413 loop-player~ 13;
#X obj 408 1413 loop-player~ 14;
#X obj 768 1413 loop-player~ 15;
#X obj 1128 1413 loop-player~ 16;
#X obj 228 155 r initialize;
#X obj 588 155 r initialize;
#X obj 948 155 r initialize;
#X obj 1308 155 r initialize;
#X obj 1308 584 r initialize;
#X obj 948 585 r initialize;
#X obj 588 585 r initialize;
#X obj 228 585 r initialize;
#X obj 228 1015 r initialize;
#X obj 588 1015 r initialize;
#X obj 948 1015 r initialize;
#X obj 1308 1015 r initialize;
#X obj 1308 1455 r initialize;
#X obj 948 1455 r initialize;
#X obj 588 1455 r initialize;
#X obj 228 1455 r initialize;
#X msg 588 180 volume 0;
#X msg 672 174 0;
#X msg 948 180 volume 0;
#X msg 1031 174 0;
#X msg 1308 180 volume 0;
#X msg 1391 174 0;
#X msg 228 610 volume 0;
#X msg 311 604 0;
#X msg 588 610 volume 0;
#X msg 671 604 0;
#X msg 948 610 volume 0;
#X msg 1031 604 0;
#X msg 1308 610 volume 0;
#X msg 1391 604 0;
#X msg 1391 1034 0;
#X msg 1308 1040 volume 0;
#X msg 1391 1474 0;
#X msg 1308 1480 volume 0;
#X msg 1031 1034 0;
#X msg 948 1040 volume 0;
#X msg 1031 1474 0;
#X msg 948 1480 volume 0;
#X msg 671 1474 0;
#X msg 588 1480 volume 0;
#X msg 671 1034 0;
#X msg 588 1040 volume 0;
#X msg 311 1034 0;
#X msg 228 1040 volume 0;
#X msg 228 1480 volume 0;
#X msg 311 1474 0;
#X obj 48 297 throw~ \$0-main-1;
#X obj 408 297 throw~ \$0-main-1;
#X obj 768 297 throw~ \$0-main-1;
#X obj 1128 297 throw~ \$0-main-1;
#X obj 1128 727 throw~ \$0-main-1;
#X obj 768 727 throw~ \$0-main-1;
#X obj 408 727 throw~ \$0-main-1;
#X obj 49 727 throw~ \$0-main-1;
#X obj 48 1157 throw~ \$0-main-1;
#X obj 408 1157 throw~ \$0-main-1;
#X obj 768 1157 throw~ \$0-main-1;
#X obj 1128 1157 throw~ \$0-main-1;
#X obj 1128 1597 throw~ \$0-main-1;
#X obj 768 1597 throw~ \$0-main-1;
#X obj 408 1597 throw~ \$0-main-1;
#X obj 48 1597 throw~ \$0-main-1;
#X obj 48 -74 hradio 19 1 0 8 empty empty empty 0 -10 0 12 #fcfcfc #000000 #000000 0;
#X obj 48 -103 mod 8;
#X obj 48 -50 * 16;
#X obj 47 63 + 1;
#X obj 48 6 s \$0-base-1;
#X obj 47 39 r \$0-base-1;
#X obj 407 39 r \$0-base-1;
#X obj 767 39 r \$0-base-1;
#X obj 767 87 l2s;
#X obj 1127 39 r \$0-base-1;
#X obj 1127 87 l2s;
#X obj 47 469 r \$0-base-1;
#X obj 47 517 l2s;
#X obj 407 469 r \$0-base-1;
#X obj 407 517 l2s;
#X obj 767 469 r \$0-base-1;
#X obj 767 517 l2s;
#X obj 1127 469 r \$0-base-1;
#X obj 1127 517 l2s;
#X obj 47 899 r \$0-base-1;
#X obj 47 947 l2s;
#X obj 407 899 r \$0-base-1;
#X obj 407 947 l2s;
#X obj 767 899 r \$0-base-1;
#X obj 767 947 l2s;
#X obj 1127 899 r \$0-base-1;
#X obj 1127 947 l2s;
#X obj 47 1339 r \$0-base-1;
#X obj 47 1387 l2s;
#X obj 407 1339 r \$0-base-1;
#X obj 407 1387 l2s;
#X obj 767 1339 r \$0-base-1;
#X obj 767 1387 l2s;
#X obj 1127 1339 r \$0-base-1;
#X obj 1127 1387 l2s;
#X obj 407 63 + 2;
#X obj 767 63 + 3;
#X obj 1127 63 + 4;
#X obj 47 493 + 5;
#X obj 407 493 + 6;
#X obj 767 493 + 7;
#X obj 1127 493 + 8;
#X obj 47 923 + 9;
#X obj 407 923 + 10;
#X obj 767 923 + 11;
#X obj 1127 923 + 12;
#X obj 47 1363 + 13;
#X obj 407 1363 + 14;
#X obj 767 1363 + 15;
#X obj 1127 1363 + 16;
#X obj 84 -128 i;
#X obj 48 -128 +;
#X msg 89 -167 -1;
#X msg 39 -167 1;
#X obj 40 -197 midi-button 9 4;
#X obj 163 -187 midi-button 8 4;
#X obj 407 87 l2s;
#X obj 47 87 l2s;
#X obj 303 -157 declare -lib zexy -stdpath zexy -stdlib zexy;
#X msg 132 42 play-button 0;
#X msg 495 42 play-button 1;
#X msg 852 42 play-button 2;
#X msg 1215 42 play-button 3;
#X msg 132 472 play-button 4;
#X msg 495 472 play-button 5;
#X msg 852 472 play-button 6;
#X msg 1215 472 play-button 7;
#X msg 132 902 play-button 8;
#X msg 495 902 play-button 9;
#X msg 852 902 play-button 10;
#X msg 1215 902 play-button 11;
#X msg 132 1342 play-button 12;
#X msg 495 1342 play-button 13;
#X msg 852 1342 play-button 14;
#X msg 1215 1342 play-button 15;
#X obj 133 20 r initialize;
#X obj 496 20 r initialize;
#X obj 853 20 r initialize;
#X obj 1216 20 r initialize;
#X obj 133 450 r initialize;
#X obj 496 450 r initialize;
#X obj 853 450 r initialize;
#X obj 1216 450 r initialize;
#X obj 1216 880 r initialize;
#X obj 853 880 r initialize;
#X obj 496 880 r initialize;
#X obj 133 880 r initialize;
#X obj 133 1320 r initialize;
#X obj 496 1320 r initialize;
#X obj 853 1320 r initialize;
#X obj 1216 1320 r initialize;
#X obj -63 -142 r initialize;
#X obj 48 -21 i;
#X msg -63 -117 bang;
#X msg 228 180 volume 0;
#X msg 311 174 0;
#X connect 0 0 1 1;
#X connect 1 0 2 0;
#X connect 2 0 173 0;
#X connect 3 0 5 0;
#X connect 4 0 2 1;
#X connect 5 0 4 0;
#X connect 7 0 174 0;
#X connect 8 0 7 1;
#X connect 9 0 8 0;
#X connect 10 0 175 0;
#X connect 11 0 10 1;
#X connect 12 0 11 0;
#X connect 13 0 176 0;
#X connect 14 0 13 1;
#X connect 15 0 14 0;
#X connect 16 0 17 0;
#X connect 16 0 27 1;
#X connect 18 0 9 0;
#X connect 19 0 20 0;
#X connect 19 0 26 1;
#X connect 21 0 12 0;
#X connect 22 0 23 0;
#X connect 22 0 25 1;
#X connect 24 0 15 0;
#X connect 25 0 13 0;
#X connect 26 0 10 0;
#X connect 27 0 7 0;
#X connect 31 0 180 0;
#X connect 32 0 31 1;
#X connect 33 0 32 0;
#X connect 34 0 179 0;
#X connect 35 0 34 1;
#X connect 36 0 35 0;
#X connect 37 0 178 0;
#X connect 38 0 37 1;
#X connect 39 0 38 0;
#X connect 40 0 177 0;
#X connect 41 0 40 1;
#X connect 42 0 41 0;
#X connect 43 0 44 0;
#X connect 43 0 59 1;
#X connect 45 0 33 0;
#X connect 46 0 47 0;
#X connect 46 0 60 1;
#X connect 48 0 36 0;
#X connect 51 0 52 0;
#X connect 51 0 61 1;
#X connect 53 0 39 0;
#X connect 55 0 56 0;
#X connect 55 0 62 1;
#X connect 57 0 42 0;
#X connect 59 0 31 0;
#X connect 60 0 34 0;
#X connect 61 0 37 0;
#X connect 62 0 40 0;
#X connect 63 0 181 0;
#X connect 64 0 63 1;
#X connect 65 0 64 0;
#X connect 66 0 182 0;
#X connect 67 0 66 1;
#X connect 68 0 67 0;
#X connect 69 0 183 0;
#X connect 70 0 69 1;
#X connect 71 0 70 0;
#X connect 72 0 184 0;
#X connect 73 0 72 1;
#X connect 74 0 73 0;
#X connect 75 0 188 0;
#X connect 76 0 75 1;
#X connect 77 0 76 0;
#X connect 78 0 187 0;
#X connect 79 0 78 1;
#X connect 80 0 79 0;
#X connect 81 0 186 0;
#X connect 82 0 81 1;
#X connect 83 0 82 0;
#X connect 84 0 185 0;
#X connect 85 0 84 1;
#X connect 86 0 85 0;
#X connect 87 0 88 0;
#X connect 87 0 103 1;
#X connect 89 0 65 0;
#X connect 91 0 92 0;
#X connect 91 0 104 1;
#X connect 93 0 68 0;
#X connect 95 0 96 0;
#X connect 95 0 105 1;
#X connect 97 0 71 0;
#X connect 99 0 100 0;
#X connect 99 0 106 1;
#X connect 101 0 74 0;
#X connect 103 0 63 0;
#X connect 104 0 66 0;
#X connect 105 0 69 0;
#X connect 106 0 72 0;
#X connect 107 0 108 0;
#X connect 107 0 123 1;
#X connect 109 0 77 0;
#X connect 111 0 112 0;
#X connect 111 0 124 1;
#X connect 113 0 80 0;
#X connect 115 0 116 0;
#X connect 115 0 125 1;
#X connect 117 0 83 0;
#X connect 119 0 120 0;
#X connect 119 0 126 1;
#X connect 121 0 86 0;
#X connect 123 0 75 0;
#X connect 124 0 78 0;
#X connect 125 0 81 0;
#X connect 126 0 84 0;
#X connect 127 0 283 0;
#X connect 127 0 284 0;
#X connect 128 0 143 0;
#X connect 128 0 144 0;
#X connect 129 0 145 0;
#X connect 129 0 146 0;
#X connect 130 0 147 0;
#X connect 130 0 148 0;
#X connect 131 0 155 0;
#X connect 131 0 156 0;
#X connect 132 0 153 0;
#X connect 132 0 154 0;
#X connect 133 0 151 0;
#X connect 133 0 152 0;
#X connect 134 0 149 0;
#X connect 134 0 150 0;
#X connect 135 0 170 0;
#X connect 135 0 169 0;
#X connect 136 0 168 0;
#X connect 136 0 167 0;
#X connect 137 0 162 0;
#X connect 137 0 161 0;
#X connect 138 0 158 0;
#X connect 138 0 157 0;
#X connect 139 0 160 0;
#X connect 139 0 159 0;
#X connect 140 0 164 0;
#X connect 140 0 163 0;
#X connect 141 0 166 0;
#X connect 141 0 165 0;
#X connect 142 0 171 0;
#X connect 142 0 172 0;
#X connect 143 0 7 1;
#X connect 144 0 28 0;
#X connect 145 0 10 1;
#X connect 146 0 29 0;
#X connect 147 0 13 1;
#X connect 148 0 30 0;
#X connect 149 0 31 1;
#X connect 150 0 50 0;
#X connect 151 0 34 1;
#X connect 152 0 49 0;
#X connect 153 0 37 1;
#X connect 154 0 54 0;
#X connect 155 0 40 1;
#X connect 156 0 58 0;
#X connect 157 0 102 0;
#X connect 158 0 72 1;
#X connect 159 0 122 0;
#X connect 160 0 84 1;
#X connect 161 0 98 0;
#X connect 162 0 69 1;
#X connect 163 0 118 0;
#X connect 164 0 81 1;
#X connect 165 0 114 0;
#X connect 166 0 78 1;
#X connect 167 0 94 0;
#X connect 168 0 66 1;
#X connect 169 0 90 0;
#X connect 170 0 63 1;
#X connect 171 0 75 1;
#X connect 172 0 110 0;
#X connect 189 0 191 0;
#X connect 190 0 189 0;
#X connect 191 0 281 0;
#X connect 192 0 246 0;
#X connect 194 0 192 0;
#X connect 195 0 224 0;
#X connect 196 0 225 0;
#X connect 197 0 26 0;
#X connect 198 0 226 0;
#X connect 199 0 25 0;
#X connect 200 0 227 0;
#X connect 201 0 59 0;
#X connect 202 0 228 0;
#X connect 203 0 60 0;
#X connect 204 0 229 0;
#X connect 205 0 61 0;
#X connect 206 0 230 0;
#X connect 207 0 62 0;
#X connect 208 0 231 0;
#X connect 209 0 103 0;
#X connect 210 0 232 0;
#X connect 211 0 104 0;
#X connect 212 0 233 0;
#X connect 213 0 105 0;
#X connect 214 0 234 0;
#X connect 215 0 106 0;
#X connect 216 0 235 0;
#X connect 217 0 123 0;
#X connect 218 0 236 0;
#X connect 219 0 124 0;
#X connect 220 0 237 0;
#X connect 221 0 125 0;
#X connect 222 0 238 0;
#X connect 223 0 126 0;
#X connect 224 0 245 0;
#X connect 225 0 197 0;
#X connect 226 0 199 0;
#X connect 227 0 201 0;
#X connect 228 0 203 0;
#X connect 229 0 205 0;
#X connect 230 0 207 0;
#X connect 231 0 209 0;
#X connect 232 0 211 0;
#X connect 233 0 213 0;
#X connect 234 0 215 0;
#X connect 235 0 217 0;
#X connect 236 0 219 0;
#X connect 237 0 221 0;
#X connect 238 0 223 0;
#X connect 239 0 240 1;
#X connect 240 0 190 0;
#X connect 240 0 239 0;
#X connect 241 0 240 0;
#X connect 242 0 240 0;
#X connect 243 0 242 0;
#X connect 244 0 241 0;
#X connect 245 0 27 0;
#X connect 246 0 1 0;
#X connect 248 0 1 2;
#X connect 249 0 27 2;
#X connect 250 0 26 2;
#X connect 251 0 25 2;
#X connect 252 0 59 2;
#X connect 253 0 60 2;
#X connect 254 0 61 2;
#X connect 255 0 62 2;
#X connect 256 0 103 2;
#X connect 257 0 104 2;
#X connect 258 0 105 2;
#X connect 259 0 106 2;
#X connect 260 0 123 2;
#X connect 261 0 124 2;
#X connect 262 0 125 2;
#X connect 263 0 126 2;
#X connect 264 0 248 0;
#X connect 265 0 249 0;
#X connect 266 0 250 0;
#X connect 267 0 251 0;
#X connect 268 0 252 0;
#X connect 269 0 253 0;
#X connect 270 0 254 0;
#X connect 271 0 255 0;
#X connect 272 0 259 0;
#X connect 273 0 258 0;
#X connect 274 0 257 0;
#X connect 275 0 256 0;
#X connect 276 0 260 0;
#X connect 277 0 261 0;
#X connect 278 0 262 0;
#X connect 279 0 263 0;
#X connect 280 0 282 0;
#X connect 281 0 193 0;
#X connect 282 0 281 0;
#X connect 283 0 2 1;
#X connect 284 0 6 0;
#X restore 52 42 pd loop-players-1;
#N canvas 57 46 1623 976 loop-players-2 0;
#X obj 48 210 line-control~;
#X msg 146 177 volume \$1;
#X obj 146 152 / 127;
#X obj 408 210 line-control~;
#X msg 506 177 volume \$1;
#X obj 506 152 / 127;
#X obj 768 210 line-control~;
#X msg 866 177 volume \$1;
#X obj 866 152 / 127;
#X obj 1128 210 line-control~;
#X msg 1226 177 volume \$1;
#X obj 1226 152 / 127;
#X obj 48 680 line-control~;
#X msg 146 647 volume \$1;
#X obj 146 622 / 127;
#X obj 408 680 line-control~;
#X msg 506 647 volume \$1;
#X obj 506 622 / 127;
#X obj 768 680 line-control~;
#X msg 866 647 volume \$1;
#X obj 866 622 / 127;
#X obj 1128 680 line-control~;
#X msg 1226 647 volume \$1;
#X obj 1226 622 / 127;
#X obj 48 1120 line-control~;
#X msg 146 1087 volume \$1;
#X obj 146 1062 / 127;
#X obj 408 1120 line-control~;
#X msg 506 1087 volume \$1;
#X obj 506 1062 / 127;
#X obj 768 1120 line-control~;
#X msg 866 1087 volume \$1;
#X obj 866 1062 / 127;
#X obj 1128 1120 line-control~;
#X msg 1226 1087 volume \$1;
#X obj 1226 1062 / 127;
#X obj 48 1560 line-control~;
#X msg 146 1527 volume \$1;
#X obj 146 1502 / 127;
#X obj 408 1560 line-control~;
#X msg 506 1527 volume \$1;
#X obj 506 1502 / 127;
#X obj 768 1560 line-control~;
#X msg 866 1527 volume \$1;
#X obj 866 1502 / 127;
#X obj 1128 1560 line-control~;
#X msg 1226 1527 volume \$1;
#X obj 1226 1502 / 127;
#X obj 228 155 r initialize;
#X obj 588 155 r initialize;
#X obj 948 155 r initialize;
#X obj 1308 155 r initialize;
#X obj 1308 624 r initialize;
#X obj 948 625 r initialize;
#X obj 588 625 r initialize;
#X obj 228 625 r initialize;
#X obj 228 1065 r initialize;
#X obj 588 1065 r initialize;
#X obj 948 1065 r initialize;
#X obj 1308 1065 r initialize;
#X obj 1308 1505 r initialize;
#X obj 948 1505 r initialize;
#X obj 588 1505 r initialize;
#X obj 228 1505 r initialize;
#X msg 588 180 volume 0;
#X msg 672 174 0;
#X msg 948 180 volume 0;
#X msg 1031 174 0;
#X msg 1308 180 volume 0;
#X msg 1391 174 0;
#X msg 228 650 volume 0;
#X msg 311 644 0;
#X msg 588 650 volume 0;
#X msg 671 644 0;
#X msg 948 650 volume 0;
#X msg 1031 644 0;
#X msg 1308 650 volume 0;
#X msg 1391 644 0;
#X msg 1391 1084 0;
#X msg 1308 1090 volume 0;
#X msg 1391 1524 0;
#X msg 1308 1530 volume 0;
#X msg 1031 1084 0;
#X msg 948 1090 volume 0;
#X msg 1031 1524 0;
#X msg 948 1530 volume 0;
#X msg 671 1524 0;
#X msg 588 1530 volume 0;
#X msg 671 1084 0;
#X msg 588 1090 volume 0;
#X msg 311 1084 0;
#X msg 228 1090 volume 0;
#X msg 228 1530 volume 0;
#X msg 311 1524 0;
#X obj 48 297 throw~ \$0-main-2;
#X obj 408 297 throw~ \$0-main-2;
#X obj 768 297 throw~ \$0-main-2;
#X obj 1128 297 throw~ \$0-main-2;
#X obj 1128 767 throw~ \$0-main-2;
#X obj 768 767 throw~ \$0-main-2;
#X obj 408 767 throw~ \$0-main-2;
#X obj 49 767 throw~ \$0-main-2;
#X obj 48 1207 throw~ \$0-main-2;
#X obj 408 1207 throw~ \$0-main-2;
#X obj 768 1207 throw~ \$0-main-2;
#X obj 1128 1207 throw~ \$0-main-2;
#X obj 1128 1647 throw~ \$0-main-2;
#X obj 768 1647 throw~ \$0-main-2;
#X obj 408 1647 throw~ \$0-main-2;
#X obj 48 1647 throw~ \$0-main-2;
#X obj 129 75 midi-button-to-toggle 32 2;
#X obj 144 102 midi-led 32 2;
#X obj 145 127 midi-encoder 32 1;
#X obj 312 198 ctlout 32 1;
#X obj 48 113 loop-player~ 17;
#X obj 408 113 loop-player~ 18;
#X obj 768 113 loop-player~ 19;
#X obj 1128 113 loop-player~ 20;
#X obj 48 583 loop-player~ 21;
#X obj 408 583 loop-player~ 22;
#X obj 768 583 loop-player~ 23;
#X obj 1128 583 loop-player~ 24;
#X obj 48 1023 loop-player~ 25;
#X obj 408 1023 loop-player~ 26;
#X obj 768 1023 loop-player~ 27;
#X obj 1128 1023 loop-player~ 28;
#X obj 48 1463 loop-player~ 29;
#X obj 408 1463 loop-player~ 30;
#X obj 768 1463 loop-player~ 31;
#X obj 1128 1463 loop-player~ 32;
#X obj 489 75 midi-button-to-toggle 33 2;
#X obj 504 102 midi-led 33 2;
#X obj 505 127 midi-encoder 33 1;
#X obj 672 198 ctlout 33 1;
#X obj 849 75 midi-button-to-toggle 34 2;
#X obj 864 102 midi-led 34 2;
#X obj 865 127 midi-encoder 34 1;
#X obj 1032 198 ctlout 34 1;
#X obj 1209 75 midi-button-to-toggle 35 2;
#X obj 1224 102 midi-led 35 2;
#X obj 1225 127 midi-encoder 35 1;
#X obj 1392 198 ctlout 35 1;
#X obj 129 545 midi-button-to-toggle 36 2;
#X obj 144 572 midi-led 36 2;
#X obj 145 597 midi-encoder 36 1;
#X obj 312 668 ctlout 36 1;
#X obj 489 545 midi-button-to-toggle 37 2;
#X obj 504 572 midi-led 37 2;
#X obj 505 597 midi-encoder 37 1;
#X obj 672 668 ctlout 37 1;
#X obj 849 545 midi-button-to-toggle 38 2;
#X obj 864 572 midi-led 38 2;
#X obj 865 597 midi-encoder 38 1;
#X obj 1032 668 ctlout 38 1;
#X obj 1209 545 midi-button-to-toggle 39 2;
#X obj 1224 572 midi-led 39 2;
#X obj 1225 597 midi-encoder 39 1;
#X obj 1392 668 ctlout 39 1;
#X obj 129 985 midi-button-to-toggle 40 2;
#X obj 144 1012 midi-led 40 2;
#X obj 145 1037 midi-encoder 40 1;
#X obj 312 1108 ctlout 40 1;
#X obj 489 985 midi-button-to-toggle 41 2;
#X obj 504 1012 midi-led 41 2;
#X obj 505 1037 midi-encoder 41 1;
#X obj 672 1108 ctlout 41 1;
#X obj 849 985 midi-button-to-toggle 42 2;
#X obj 864 1012 midi-led 42 2;
#X obj 865 1037 midi-encoder 42 1;
#X obj 1032 1108 ctlout 42 1;
#X obj 1209 985 midi-button-to-toggle 43 2;
#X obj 1224 1012 midi-led 43 2;
#X obj 1225 1037 midi-encoder 43 1;
#X obj 1392 1108 ctlout 43 1;
#X obj 129 1425 midi-button-to-toggle 44 2;
#X obj 144 1452 midi-led 44 2;
#X obj 145 1477 midi-encoder 44 1;
#X obj 312 1548 ctlout 44 1;
#X obj 489 1425 midi-button-to-toggle 45 2;
#X obj 504 1452 midi-led 45 2;
#X obj 505 1477 midi-encoder 45 1;
#X obj 672 1548 ctlout 45 1;
#X obj 849 1425 midi-button-to-toggle 46 2;
#X obj 864 1452 midi-led 46 2;
#X obj 865 1477 midi-encoder 46 1;
#X obj 1032 1548 ctlout 46 1;
#X obj 1209 1425 midi-button-to-toggle 47 2;
#X obj 1224 1452 midi-led 47 2;
#X obj 1225 1477 midi-encoder 47 1;
#X obj 1392 1548 ctlout 47 1;
#X obj 48 -74 hradio 19 1 0 8 empty empty empty 0 -10 0 12 #fcfcfc #000000 #000000 0;
#X obj 48 -103 mod 8;
#X obj 48 -50 * 16;
#X obj 48 6 s \$0-base-2;
#X obj 47 63 + 1;
#X obj 47 87 l2s;
#X obj 407 87 l2s;
#X obj 767 87 l2s;
#X obj 1127 87 l2s;
#X obj 407 63 + 2;
#X obj 767 63 + 3;
#X obj 1127 63 + 4;
#X obj 1127 39 r \$0-base-2;
#X obj 767 39 r \$0-base-2;
#X obj 407 39 r \$0-base-2;
#X obj 47 39 r \$0-base-2;
#X obj 47 557 l2s;
#X obj 407 557 l2s;
#X obj 767 557 l2s;
#X obj 1127 557 l2s;
#X obj 1127 509 r \$0-base-2;
#X obj 767 509 r \$0-base-2;
#X obj 407 509 r \$0-base-2;
#X obj 47 509 r \$0-base-2;
#X obj 47 997 l2s;
#X obj 407 997 l2s;
#X obj 767 997 l2s;
#X obj 1127 997 l2s;
#X obj 1127 949 r \$0-base-2;
#X obj 767 949 r \$0-base-2;
#X obj 407 949 r \$0-base-2;
#X obj 47 949 r \$0-base-2;
#X obj 47 1437 l2s;
#X obj 407 1437 l2s;
#X obj 767 1437 l2s;
#X obj 1127 1437 l2s;
#X obj 1127 1389 r \$0-base-2;
#X obj 767 1389 r \$0-base-2;
#X obj 407 1389 r \$0-base-2;
#X obj 47 1389 r \$0-base-2;
#X obj 47 533 + 5;
#X obj 407 533 + 6;
#X obj 767 533 + 7;
#X obj 1127 533 + 8;
#X obj 47 973 + 9;
#X obj 407 973 + 10;
#X obj 767 973 + 11;
#X obj 1127 973 + 12;
#X obj 47 1413 + 13;
#X obj 407 1413 + 14;
#X obj 767 1413 + 15;
#X obj 1127 1413 + 16;
#X obj 84 -128 i;
#X obj 48 -128 +;
#X msg 89 -167 -1;
#X msg 39 -167 1;
#X obj 40 -197 midi-button 21 4;
#X obj 163 -187 midi-button 20 4;
#X obj 303 -157 declare -lib zexy -stdpath zexy -stdlib zexy;
#X obj -9 -225 loadbang;
#X obj 133 20 loadbang;
#X obj 496 20 loadbang;
#X obj 853 20 loadbang;
#X obj 1216 20 loadbang;
#X obj 133 450 loadbang;
#X obj 496 450 loadbang;
#X obj 853 450 loadbang;
#X obj 1216 450 loadbang;
#X obj 133 880 loadbang;
#X obj 496 880 loadbang;
#X obj 853 880 loadbang;
#X obj 1216 880 loadbang;
#X obj 133 1320 loadbang;
#X obj 496 1320 loadbang;
#X obj 853 1320 loadbang;
#X obj 1216 1320 loadbang;
#X msg 132 42 play-button 32;
#X msg 495 42 play-button 33;
#X msg 852 42 play-button 34;
#X msg 1215 42 play-button 35;
#X msg 132 472 play-button 36;
#X msg 495 472 play-button 37;
#X msg 852 472 play-button 38;
#X msg 1215 472 play-button 39;
#X msg 132 902 play-button 40;
#X msg 495 902 play-button 41;
#X msg 852 902 play-button 42;
#X msg 1215 902 play-button 43;
#X msg 132 1342 play-button 44;
#X msg 495 1342 play-button 45;
#X msg 852 1342 play-button 46;
#X msg 1215 1342 play-button 47;
#X obj -63 -142 r initialize;
#X msg -63 -117 bang;
#X obj 49 -21 i;
#X msg 228 180 volume 0;
#X msg 311 174 0;
#X connect 0 0 94 0;
#X connect 1 0 0 1;
#X connect 2 0 1 0;
#X connect 3 0 95 0;
#X connect 4 0 3 1;
#X connect 5 0 4 0;
#X connect 6 0 96 0;
#X connect 7 0 6 1;
#X connect 8 0 7 0;
#X connect 9 0 97 0;
#X connect 10 0 9 1;
#X connect 11 0 10 0;
#X connect 12 0 101 0;
#X connect 13 0 12 1;
#X connect 14 0 13 0;
#X connect 15 0 100 0;
#X connect 16 0 15 1;
#X connect 17 0 16 0;
#X connect 18 0 99 0;
#X connect 19 0 18 1;
#X connect 20 0 19 0;
#X connect 21 0 98 0;
#X connect 22 0 21 1;
#X connect 23 0 22 0;
#X connect 24 0 102 0;
#X connect 25 0 24 1;
#X connect 26 0 25 0;
#X connect 27 0 103 0;
#X connect 28 0 27 1;
#X connect 29 0 28 0;
#X connect 30 0 104 0;
#X connect 31 0 30 1;
#X connect 32 0 31 0;
#X connect 33 0 105 0;
#X connect 34 0 33 1;
#X connect 35 0 34 0;
#X connect 36 0 109 0;
#X connect 37 0 36 1;
#X connect 38 0 37 0;
#X connect 39 0 108 0;
#X connect 40 0 39 1;
#X connect 41 0 40 0;
#X connect 42 0 107 0;
#X connect 43 0 42 1;
#X connect 44 0 43 0;
#X connect 45 0 106 0;
#X connect 46 0 45 1;
#X connect 47 0 46 0;
#X connect 48 0 285 0;
#X connect 48 0 286 0;
#X connect 49 0 64 0;
#X connect 49 0 65 0;
#X connect 50 0 66 0;
#X connect 50 0 67 0;
#X connect 51 0 68 0;
#X connect 51 0 69 0;
#X connect 52 0 76 0;
#X connect 52 0 77 0;
#X connect 53 0 74 0;
#X connect 53 0 75 0;
#X connect 54 0 72 0;
#X connect 54 0 73 0;
#X connect 55 0 70 0;
#X connect 55 0 71 0;
#X connect 56 0 91 0;
#X connect 56 0 90 0;
#X connect 57 0 89 0;
#X connect 57 0 88 0;
#X connect 58 0 83 0;
#X connect 58 0 82 0;
#X connect 59 0 79 0;
#X connect 59 0 78 0;
#X connect 60 0 81 0;
#X connect 60 0 80 0;
#X connect 61 0 85 0;
#X connect 61 0 84 0;
#X connect 62 0 87 0;
#X connect 62 0 86 0;
#X connect 63 0 92 0;
#X connect 63 0 93 0;
#X connect 64 0 3 1;
#X connect 65 0 133 0;
#X connect 66 0 6 1;
#X connect 67 0 137 0;
#X connect 68 0 9 1;
#X connect 69 0 141 0;
#X connect 70 0 12 1;
#X connect 71 0 145 0;
#X connect 72 0 15 1;
#X connect 73 0 149 0;
#X connect 74 0 18 1;
#X connect 75 0 153 0;
#X connect 76 0 21 1;
#X connect 77 0 157 0;
#X connect 78 0 173 0;
#X connect 79 0 33 1;
#X connect 80 0 189 0;
#X connect 81 0 45 1;
#X connect 82 0 169 0;
#X connect 83 0 30 1;
#X connect 84 0 185 0;
#X connect 85 0 42 1;
#X connect 86 0 181 0;
#X connect 87 0 39 1;
#X connect 88 0 165 0;
#X connect 89 0 27 1;
#X connect 90 0 161 0;
#X connect 91 0 24 1;
#X connect 92 0 36 1;
#X connect 93 0 177 0;
#X connect 110 0 111 0;
#X connect 110 0 114 1;
#X connect 112 0 2 0;
#X connect 114 0 0 0;
#X connect 115 0 3 0;
#X connect 116 0 6 0;
#X connect 117 0 9 0;
#X connect 118 0 12 0;
#X connect 119 0 15 0;
#X connect 120 0 18 0;
#X connect 121 0 21 0;
#X connect 122 0 24 0;
#X connect 123 0 27 0;
#X connect 124 0 30 0;
#X connect 125 0 33 0;
#X connect 126 0 36 0;
#X connect 127 0 39 0;
#X connect 128 0 42 0;
#X connect 129 0 45 0;
#X connect 130 0 131 0;
#X connect 130 0 115 1;
#X connect 132 0 5 0;
#X connect 134 0 135 0;
#X connect 134 0 116 1;
#X connect 136 0 8 0;
#X connect 138 0 139 0;
#X connect 138 0 117 1;
#X connect 140 0 11 0;
#X connect 142 0 143 0;
#X connect 142 0 118 1;
#X connect 144 0 14 0;
#X connect 146 0 147 0;
#X connect 146 0 119 1;
#X connect 148 0 17 0;
#X connect 150 0 151 0;
#X connect 150 0 120 1;
#X connect 152 0 20 0;
#X connect 154 0 155 0;
#X connect 154 0 121 1;
#X connect 156 0 23 0;
#X connect 158 0 159 0;
#X connect 158 0 122 1;
#X connect 160 0 26 0;
#X connect 162 0 163 0;
#X connect 162 0 123 1;
#X connect 164 0 29 0;
#X connect 166 0 167 0;
#X connect 166 0 124 1;
#X connect 168 0 32 0;
#X connect 170 0 171 0;
#X connect 170 0 125 1;
#X connect 172 0 35 0;
#X connect 174 0 175 0;
#X connect 174 0 126 1;
#X connect 176 0 38 0;
#X connect 178 0 179 0;
#X connect 178 0 127 1;
#X connect 180 0 41 0;
#X connect 182 0 183 0;
#X connect 182 0 128 1;
#X connect 184 0 44 0;
#X connect 186 0 187 0;
#X connect 186 0 129 1;
#X connect 188 0 47 0;
#X connect 190 0 192 0;
#X connect 191 0 190 0;
#X connect 192 0 284 0;
#X connect 194 0 195 0;
#X connect 195 0 114 0;
#X connect 196 0 115 0;
#X connect 197 0 116 0;
#X connect 198 0 117 0;
#X connect 199 0 196 0;
#X connect 200 0 197 0;
#X connect 201 0 198 0;
#X connect 202 0 201 0;
#X connect 203 0 200 0;
#X connect 204 0 199 0;
#X connect 205 0 194 0;
#X connect 206 0 118 0;
#X connect 207 0 119 0;
#X connect 208 0 120 0;
#X connect 209 0 121 0;
#X connect 210 0 233 0;
#X connect 211 0 232 0;
#X connect 212 0 231 0;
#X connect 213 0 230 0;
#X connect 214 0 122 0;
#X connect 215 0 123 0;
#X connect 216 0 124 0;
#X connect 217 0 125 0;
#X connect 218 0 237 0;
#X connect 219 0 236 0;
#X connect 220 0 235 0;
#X connect 221 0 234 0;
#X connect 222 0 126 0;
#X connect 223 0 127 0;
#X connect 224 0 128 0;
#X connect 225 0 129 0;
#X connect 226 0 241 0;
#X connect 227 0 240 0;
#X connect 228 0 239 0;
#X connect 229 0 238 0;
#X connect 230 0 206 0;
#X connect 231 0 207 0;
#X connect 232 0 208 0;
#X connect 233 0 209 0;
#X connect 234 0 214 0;
#X connect 235 0 215 0;
#X connect 236 0 216 0;
#X connect 237 0 217 0;
#X connect 238 0 222 0;
#X connect 239 0 223 0;
#X connect 240 0 224 0;
#X connect 241 0 225 0;
#X connect 242 0 243 1;
#X connect 243 0 242 0;
#X connect 243 0 191 0;
#X connect 244 0 243 0;
#X connect 245 0 243 0;
#X connect 246 0 245 0;
#X connect 247 0 244 0;
#X connect 249 0 245 0;
#X connect 250 0 266 0;
#X connect 251 0 267 0;
#X connect 252 0 268 0;
#X connect 253 0 269 0;
#X connect 254 0 270 0;
#X connect 255 0 271 0;
#X connect 256 0 272 0;
#X connect 257 0 273 0;
#X connect 258 0 274 0;
#X connect 259 0 275 0;
#X connect 260 0 276 0;
#X connect 261 0 277 0;
#X connect 262 0 278 0;
#X connect 263 0 279 0;
#X connect 264 0 280 0;
#X connect 265 0 281 0;
#X connect 266 0 114 2;
#X connect 267 0 115 2;
#X connect 268 0 116 2;
#X connect 269 0 117 2;
#X connect 270 0 118 2;
#X connect 271 0 119 2;
#X connect 272 0 120 2;
#X connect 273 0 121 2;
#X connect 274 0 122 2;
#X connect 275 0 123 2;
#X connect 276 0 124 2;
#X connect 277 0 125 2;
#X connect 278 0 126 2;
#X connect 279 0 127 2;
#X connect 280 0 128 2;
#X connect 281 0 129 2;
#X connect 282 0 283 0;
#X connect 283 0 284 0;
#X connect 284 0 193 0;
#X connect 285 0 0 1;
#X connect 286 0 113 0;
#X restore 52 72 pd loop-players-2;
#X obj 1222 37 looper~;
#X obj 1222 11 adc~;
#N canvas 97 254 946 661 looper-assignments 0;
#X msg 43 104 monitor \$1;
#X obj 260 366 outlet;
#X obj 36 33 midi-toggle 50 2;
#X obj 118 69 midi-led 50 2;
#X obj 226 33 midi-toggle 51 2;
#X obj 452 25 midi-button 27 4;
#X obj 631 24 midi-button 26 4;
#X obj 453 59 s \$0-file-advance-2;
#X obj 631 58 s \$0-file-decrement-2;
#X msg 233 75 toggle \$1;
#X obj 487 285 loadbang;
#X msg 487 312 toggle-button 51;
#X msg 395 232 clear 1;
#X obj 488 189 s SAVE;
#X msg 324 233 delete 1;
#X msg 463 232 stop 1;
#X obj 352 190 t b b b;
#X obj 351 161 midi-long-press 31 4;
#X connect 0 0 1 0;
#X connect 2 0 0 0;
#X connect 2 0 3 0;
#X connect 4 0 9 0;
#X connect 5 0 7 0;
#X connect 6 0 8 0;
#X connect 9 0 1 0;
#X connect 10 0 11 0;
#X connect 11 0 1 0;
#X connect 12 0 1 0;
#X connect 14 0 1 0;
#X connect 15 0 1 0;
#X connect 16 0 14 0;
#X connect 16 1 12 0;
#X connect 16 2 15 0;
#X connect 17 0 16 0;
#X connect 17 1 13 0;
#X restore 1349 19 pd looper-assignments;
#X obj 1222 159 throw~ \$0-main-2;
#X msg 847 20 track-number \$1;
#N canvas 369 123 582 470 initial-file-1 0;
#X floatatom 131 88 5 0 0 0 - - - 0;
#X obj 130 25 bng 15 250 50 0 empty empty empty 17 7 0 10 #fcfcfc #000000 #000000;
#X obj 166 61 + 1;
#X obj 130 60 int;
#X obj 187 181 file-exists;
#X obj 52 25 loadbang;
#X obj 187 204 sel 0;
#X msg 52 45 1;
#X obj 220 231 delay 100;
#X msg 187 157 ../audio/\$1.wav;
#X obj 45 157 s \$0-initial-file-1;
#X connect 0 0 9 0;
#X connect 0 0 10 0;
#X connect 1 0 3 0;
#X connect 2 0 3 1;
#X connect 3 0 0 0;
#X connect 3 0 2 0;
#X connect 4 0 6 0;
#X connect 5 0 7 0;
#X connect 6 1 8 0;
#X connect 7 0 3 0;
#X connect 8 0 1 0;
#X connect 9 0 4 0;
#X restore 51 105 pd initial-file-1;
#N canvas 41 87 582 470 initial-file-2 0;
#X floatatom 130 88 5 0 0 0 - - - 0;
#X obj 129 25 bng 15 250 50 0 empty empty empty 17 7 0 10 #fcfcfc #000000 #000000;
#X obj 165 61 + 1;
#X obj 129 60 int;
#X obj 186 181 file-exists;
#X obj 51 25 loadbang;
#X obj 186 204 sel 0;
#X msg 51 45 1;
#X obj 219 231 delay 100;
#X msg 186 157 ../audio/\$1.wav;
#X obj 44 157 s \$0-initial-file-2;
#X obj 85 124 + 1;
#X connect 0 0 11 0;
#X connect 0 0 9 0;
#X connect 1 0 3 0;
#X connect 2 0 3 1;
#X connect 3 0 0 0;
#X connect 3 0 2 0;
#X connect 4 0 6 0;
#X connect 5 0 7 0;
#X connect 6 1 8 0;
#X connect 7 0 3 0;
#X connect 8 0 1 0;
#X connect 9 0 4 0;
#X connect 11 0 10 0;
#X restore 51 136 pd initial-file-2;
#X msg 1503 19 track-number \$1;
#N canvas 150 175 450 300 file-nav-1 0;
#X obj 263 10 r \$0-initial-file-1;
#X obj 54 47 r \$0-file-advance-1;
#X obj 22 11 r \$0-file-decrement-1;
#X obj 52 103 +;
#X msg 22 76 -1;
#X msg 55 76 1;
#X obj 129 102 i;
#X obj 129 201 outlet;
#X obj 245 35 f;
#X obj 245 -13 r initialize;
#X connect 0 0 8 1;
#X connect 1 0 5 0;
#X connect 2 0 4 0;
#X connect 3 0 6 0;
#X connect 4 0 3 0;
#X connect 5 0 3 0;
#X connect 6 0 3 1;
#X connect 6 0 7 0;
#X connect 8 0 6 0;
#X connect 9 0 8 0;
#X restore 847 -5 pd file-nav-1;
#X obj 562 37 looper~;
#X obj 51 -77 loadbang-dsp;
#X obj 380 875 loadbang;
#X obj 1030 866 loadbang;
#N canvas 150 175 450 300 file-nav-2 0;
#X obj 52 103 +;
#X msg 22 76 -1;
#X msg 55 76 1;
#X obj 129 102 i;
#X obj 129 201 outlet;
#X obj 22 11 r \$0-file-decrement-2;
#X obj 54 47 r \$0-file-advance-2;
#X obj 225 51 f;
#X obj 225 3 r initialize;
#X obj 243 26 r \$0-initial-file-2;
#X connect 0 0 3 0;
#X connect 1 0 0 0;
#X connect 2 0 0 0;
#X connect 3 0 0 1;
#X connect 3 0 4 0;
#X connect 5 0 1 0;
#X connect 6 0 2 0;
#X connect 7 0 3 0;
#X connect 8 0 7 0;
#X connect 9 0 7 1;
#X restore 1503 -7 pd file-nav-2;
#X obj 237 864 cosine-pan~;
#N canvas 1062 228 450 300 pan-assignment 0;
#X obj 161 247 outlet;
#X obj 74 52 / 127;
#X obj 74 -30 midi-toggle 25 2;
#X obj 106 -1 midi-led 25 2;
#X obj 74 26 memory-encoder 25 1;
#X obj 125 50 ctlout 25 1;
#X obj 265 228 ctlout 25 1;
#X obj 242 -15 midi-button 16 4;
#X obj 265 146 r initialize;
#X msg 54 84 position \$1;
#X msg 257 172 position 0.5;
#X msg 265 202 63;
#X connect 1 0 9 0;
#X connect 2 0 3 0;
#X connect 2 0 4 0;
#X connect 4 0 1 0;
#X connect 4 0 5 0;
#X connect 7 0 10 0;
#X connect 7 0 4 1;
#X connect 8 0 10 0;
#X connect 9 0 0 0;
#X connect 10 0 0 0;
#X connect 10 0 11 0;
#X connect 11 0 6 0;
#X restore 372 845 pd pan-assignment;
#N canvas 1062 228 450 300 pan-assignment 0;
#X obj 161 247 outlet;
#X obj 74 52 / 127;
#X obj 74 -30 midi-toggle 57 2;
#X obj 106 -1 midi-led 57 2;
#X obj 74 26 memory-encoder 57 1;
#X obj 125 50 ctlout 57 1;
#X obj 265 228 ctlout 57 1;
#X obj 224 -6 midi-button 28 4;
#X obj 265 146 r initialize;
#X msg 54 84 position \$1;
#X msg 257 172 position 0.5;
#X msg 265 202 63;
#X connect 1 0 9 0;
#X connect 2 0 3 0;
#X connect 2 0 4 0;
#X connect 4 0 1 0;
#X connect 4 0 5 0;
#X connect 7 0 10 0;
#X connect 7 0 4 1;
#X connect 8 0 10 0;
#X connect 9 0 0 0;
#X connect 10 0 0 0;
#X connect 10 0 11 0;
#X connect 11 0 6 0;
#X restore 1034 836 pd pan-assignment;
#X obj 887 855 cosine-pan~;
#X connect 1 0 0 1;
#X connect 3 0 4 0;
#X connect 4 0 2 0;
#X connect 5 0 7 0;
#X connect 6 0 5 1;
#X connect 7 0 10 0;
#X connect 8 0 7 1;
#X connect 10 0 49 0;
#X connect 11 0 5 0;
#X connect 12 0 11 1;
#X connect 13 0 11 0;
#X connect 14 0 10 1;
#X connect 15 0 13 1;
#X connect 16 0 44 0;
#X connect 17 0 44 1;
#X connect 19 0 18 1;
#X connect 20 0 22 0;
#X connect 21 0 20 1;
#X connect 22 0 24 0;
#X connect 23 0 22 1;
#X connect 24 0 52 0;
#X connect 25 0 20 0;
#X connect 26 0 25 1;
#X connect 27 0 25 0;
#X connect 28 0 24 1;
#X connect 29 0 27 1;
#X connect 30 0 13 0;
#X connect 31 0 27 0;
#X connect 35 0 38 0;
#X connect 36 0 35 0;
#X connect 37 0 35 1;
#X connect 39 0 44 1;
#X connect 42 0 35 1;
#X connect 43 0 39 0;
#X connect 44 0 32 0;
#X connect 45 0 3 0;
#X connect 46 0 1 0;
#X connect 47 0 19 0;
#X connect 48 0 42 0;
#X connect 49 0 0 0;
#X connect 49 1 0 2;
#X connect 50 0 49 1;
#X connect 51 0 52 1;
#X connect 52 0 18 0;
#X connect 52 1 18 2;
