#N canvas 648 68 1400 982 10;
#X obj 208 -26 loadbang;
#X obj 405 -6 + 0;
#X obj 513 -6 + 1;
#X obj 623 -5 + 2;
#X obj 737 -5 + 3;
#X obj 851 -5 + 4;
#X obj 971 -5 + 5;
#X obj 1212 -4 + 7;
#X obj 1091 -4 + 6;
#X obj 405 14 midi-button 0 2;
#X obj 513 14 midi-button 0 2;
#X obj 623 15 midi-button 0 2;
#X obj 737 15 midi-button 0 2;
#X obj 851 15 midi-button 0 2;
#X obj 971 15 midi-button 0 2;
#X obj 1091 16 midi-button 0 2;
#X obj 1212 16 midi-button 0 2;
#X obj 486 59 + 0;
#X obj 208 21 s \$0-midi-base;
#X obj 405 -27 r \$0-midi-base;
#X obj 513 -26 r \$0-midi-base;
#X obj 623 -25 r \$0-midi-base;
#X obj 737 -25 r \$0-midi-base;
#X obj 851 -25 r \$0-midi-base;
#X obj 971 -25 r \$0-midi-base;
#X obj 1091 -24 r \$0-midi-base;
#X obj 1212 -24 r \$0-midi-base;
#X obj 451 43 r \$0-base;
#X obj 559 43 r \$0-base;
#X obj 669 43 r \$0-base;
#X obj 776 34 r \$0-base;
#X obj 594 59 + 1;
#X obj 704 59 + 2;
#X obj 813 66 + 3, f 5;
#X obj 897 43 r \$0-base;
#X obj 1017 43 r \$0-base;
#X obj 1137 43 r \$0-base;
#X obj 1257 43 r \$0-base;
#X obj 932 59 + 4;
#X obj 1052 59 + 5;
#X obj 1172 59 + 6;
#X obj 1292 59 + 7;
#N canvas 14 339 465 357 navigation 0;
#X obj 150 277 s \$0-base;
#X msg 108 95 1;
#X msg 187 92 -1;
#X floatatom 215 189 5 0 0 0 - - -, f 5;
#X obj 301 176 bng 15 250 50 0 empty empty empty 17 7 0 10 -262144
-1 -1;
#X obj 154 135 +;
#X obj 150 238 * 8;
#X obj 150 258 + 1;
#X obj 215 218 moses 0;
#X obj 219 141 int;
#X obj 73 51 midi-button 26 4;
#X obj 183 50 midi-button 27 4;
#X msg 219 116 0;
#X obj 282 140 loadbang;
#X obj 55 203 sssad sample-bank;
#X obj 308 79 r RELOAD_SAMPLES;
#X msg 308 99 bang;
#X connect 1 0 5 0;
#X connect 2 0 5 0;
#X connect 3 0 8 0;
#X connect 3 0 6 0;
#X connect 3 0 14 1;
#X connect 4 0 12 0;
#X connect 5 0 9 0;
#X connect 6 0 7 0;
#X connect 7 0 0 0;
#X connect 8 0 4 0;
#X connect 9 0 3 0;
#X connect 9 0 5 1;
#X connect 10 0 1 0;
#X connect 11 0 2 0;
#X connect 12 0 9 0;
#X connect 13 0 3 0;
#X connect 14 0 9 0;
#X connect 15 0 16 0;
#X connect 16 0 9 0;
#X restore 208 48 pd navigation;
#X obj 471 98 f;
#X obj 579 98 f;
#X obj 689 98 f;
#X obj 802 98 f;
#X obj 1277 98 f;
#X obj 1157 98 f;
#X obj 1037 98 f;
#X obj 917 98 f;
#X obj 405 34 bng 15 250 50 0 empty empty empty 17 7 0 10 -262144 -1
-1;
#X obj 513 34 bng 15 250 50 0 empty empty empty 17 7 0 10 -262144 -1
-1;
#X obj 623 34 bng 15 250 50 0 empty empty empty 17 7 0 10 -262144 -1
-1;
#X obj 737 34 bng 15 250 50 0 empty empty empty 17 7 0 10 -262144 -1
-1;
#X obj 851 34 bng 15 250 50 0 empty empty empty 17 7 0 10 -262144 -1
-1;
#X obj 970 34 bng 15 250 50 0 empty empty empty 17 7 0 10 -262144 -1
-1;
#X obj 1090 34 bng 15 250 50 0 empty empty empty 17 7 0 10 -262144
-1 -1;
#X obj 1213 34 bng 15 250 50 0 empty empty empty 17 7 0 10 -262144
-1 -1;
#X obj -393 366 metronome;
#X obj -393 433 channel-out~;
#X obj -44 542 s current-step;
#X obj 1168 693 r current-step;
#X floatatom 806 136 5 0 0 0 - - -, f 5;
#X obj -375 870 channel-out~;
#X obj -192 670 r~ audio-1;
#X obj -182 691 r~ audio-2;
#X msg 88 245 tempo \$1;
#X floatatom 30 306 5 0 0 1 beat_time - -, f 5;
#X floatatom -7 324 5 0 0 1 phase - -, f 5;
#X floatatom -44 346 5 0 0 1 step - -, f 5;
#X floatatom 67 285 5 0 0 1 tempo - -, f 5;
#X obj -44 214 tgl 15 0 empty empty empty 17 7 0 10 -262144 -1 -1 1
1;
#X floatatom 88 226 5 0 0 2 - - -, f 5;
#X msg -44 234 connect \$1;
#X obj -44 371 t b;
#X obj -44 407 f;
#X obj -14 407 + 1;
#X floatatom -44 427 5 0 0 0 - - -, f 5;
#X floatatom 49 381 5 0 0 0 - - -, f 5;
#X obj 16 407 mod 16;
#X obj 806 162 s current-drum;
#X obj 292 487 change;
#X floatatom 292 466 5 0 0 0 - - -, f 5;
#X obj 292 516 bng 15 250 50 0 empty empty empty 17 7 0 10 -262144
-1 -1;
#X obj 326 542 + 1;
#X floatatom 292 565 5 0 0 0 - - -, f 5;
#X floatatom 292 614 5 0 0 0 - - -, f 5;
#X obj 292 635 sel 1 2 3 4 5 6 7 8;
#X obj 306 405 r current-drum;
#X obj -44 192 loadbang-dsp;
#X obj 820 567 r track-1-spigot;
#N canvas 0 23 478 373 track-1-spigot-handler 0;
#X obj 101 21 inlet;
#X obj 175 145 s track-8-spigot;
#X obj 175 169 s track-7-spigot;
#X obj 174 190 s track-6-spigot;
#X obj 172 212 s track-5-spigot;
#X obj 171 235 s track-4-spigot;
#X obj 169 257 s track-3-spigot;
#X obj 165 277 s track-2-spigot;
#X obj 109 301 s track-1-spigot;
#X msg 101 65 1;
#X msg 133 65 0;
#X connect 0 0 9 0;
#X connect 0 0 10 0;
#X connect 9 0 8 0;
#X connect 10 0 7 0;
#X connect 10 0 6 0;
#X connect 10 0 5 0;
#X connect 10 0 4 0;
#X connect 10 0 3 0;
#X connect 10 0 2 0;
#X connect 10 0 1 0;
#X restore 292 857 pd track-1-spigot-handler;
#X obj -172 711 r~ audio-3;
#X obj -162 731 r~ audio-4;
#X obj -152 751 r~ audio-5;
#X obj -142 771 r~ audio-6;
#X obj -132 791 r~ audio-7;
#X obj -122 811 r~ audio-8;
#N canvas 0 23 469 385 track-2-spigot-handler 0;
#X obj 101 21 inlet;
#X obj 175 145 s track-8-spigot;
#X obj 175 169 s track-7-spigot;
#X obj 174 190 s track-6-spigot;
#X obj 172 212 s track-5-spigot;
#X obj 171 235 s track-4-spigot;
#X obj 169 257 s track-3-spigot;
#X obj 98 300 s track-2-spigot;
#X obj 167 279 s track-1-spigot;
#X msg 101 65 1;
#X msg 133 65 0;
#X connect 0 0 9 0;
#X connect 0 0 10 0;
#X connect 9 0 7 0;
#X connect 10 0 6 0;
#X connect 10 0 5 0;
#X connect 10 0 4 0;
#X connect 10 0 3 0;
#X connect 10 0 2 0;
#X connect 10 0 1 0;
#X connect 10 0 8 0;
#X restore 305 834 pd track-2-spigot-handler;
#N canvas 0 23 476 371 track-3-spigot-handler 0;
#X obj 101 21 inlet;
#X obj 175 145 s track-8-spigot;
#X obj 175 169 s track-7-spigot;
#X obj 174 190 s track-6-spigot;
#X obj 172 212 s track-5-spigot;
#X obj 171 235 s track-4-spigot;
#X obj 103 307 s track-3-spigot;
#X obj 166 257 s track-2-spigot;
#X obj 160 277 s track-1-spigot;
#X msg 101 65 1;
#X msg 133 65 0;
#X connect 0 0 9 0;
#X connect 0 0 10 0;
#X connect 9 0 6 0;
#X connect 10 0 7 0;
#X connect 10 0 5 0;
#X connect 10 0 4 0;
#X connect 10 0 3 0;
#X connect 10 0 2 0;
#X connect 10 0 1 0;
#X connect 10 0 8 0;
#X restore 319 810 pd track-3-spigot-handler;
#X obj 773 582 spigot;
#X obj 773 620 spigot;
#X obj 773 655 spigot;
#X obj 820 605 r track-2-spigot;
#X obj 820 640 r track-3-spigot;
#X obj 292 542 f 1;
#X msg 366 515 1;
#X obj 292 592 moses 4;
#X obj -118 866 loadbang;
#X msg -118 890 volume 0.8;
#X obj 967 180 readsf~;
#X msg 967 149 open ../samples/\$1.wav \, 1;
#X obj 967 212 dac~;
#X obj 568 376 r current-drum;
#X obj 643 522 r rec-drum;
#X obj 560 299 tgl 15 0 empty empty empty 17 7 0 10 -262144 -1 -1 0
1;
#X obj 560 326 s rec;
#X text 583 300 rec;
#X obj 291 433 f;
#X obj 289 365 sel 1;
#X obj 289 339 r rec;
#X obj 959 598 drum-track 1;
#X obj 959 634 drum-track 2;
#X obj 959 670 drum-track 3;
#X obj 959 708 drum-track 4;
#X obj 959 745 drum-track 5;
#X obj 959 786 drum-track 6;
#X obj 959 826 drum-track 7;
#X obj 959 867 drum-track 8;
#X msg 208 -2 48;
#N canvas 135 519 450 300 divide-clock 0;
#X obj 93 4 inlet;
#X obj 96 266 outlet;
#X floatatom 94 55 5 0 0 0 - - -, f 5;
#X obj 95 139 sel 0 4 8 12;
#X msg 95 174 1;
#X msg 129 174 0;
#X connect 0 0 2 0;
#X connect 2 0 3 0;
#X connect 3 0 4 0;
#X connect 3 1 5 0;
#X connect 3 2 5 0;
#X connect 3 3 5 0;
#X connect 4 0 1 0;
#X connect 5 0 1 0;
#X restore -393 339 pd divide-clock;
#X msg 725 347 0;
#X obj 641 469 s rec-drum;
#X obj 641 440 spigot;
#X obj 674 417 r rec;
#X text 778 304 delete;
#X obj 725 324 spigot;
#X obj 724 215 r current-step;
#X obj 558 235 midi-toggle 56 2;
#X obj 757 237 midi-toggle 59 2;
#X obj 758 302 tgl 15 0 empty empty empty 17 7 0 10 -262144 -1 -1 0
1;
#N canvas 0 23 476 371 track-4-spigot-handler 0;
#X obj 101 21 inlet;
#X obj 175 145 s track-8-spigot;
#X obj 175 169 s track-7-spigot;
#X obj 174 190 s track-6-spigot;
#X obj 172 212 s track-5-spigot;
#X obj 94 307 s track-4-spigot;
#X obj 169 235 s track-3-spigot;
#X obj 166 257 s track-2-spigot;
#X obj 160 277 s track-1-spigot;
#X msg 101 65 1;
#X msg 133 65 0;
#X connect 0 0 9 0;
#X connect 0 0 10 0;
#X connect 9 0 5 0;
#X connect 10 0 7 0;
#X connect 10 0 4 0;
#X connect 10 0 3 0;
#X connect 10 0 2 0;
#X connect 10 0 1 0;
#X connect 10 0 8 0;
#X connect 10 0 6 0;
#X restore 334 786 pd track-4-spigot-handler;
#N canvas 0 23 476 371 track-5-spigot-handler 0;
#X obj 101 21 inlet;
#X obj 175 145 s track-8-spigot;
#X obj 175 169 s track-7-spigot;
#X obj 174 190 s track-6-spigot;
#X obj 100 312 s track-5-spigot;
#X obj 172 213 s track-4-spigot;
#X obj 169 235 s track-3-spigot;
#X obj 166 257 s track-2-spigot;
#X obj 160 277 s track-1-spigot;
#X msg 101 65 1;
#X msg 133 65 0;
#X connect 0 0 9 0;
#X connect 0 0 10 0;
#X connect 9 0 4 0;
#X connect 10 0 7 0;
#X connect 10 0 3 0;
#X connect 10 0 2 0;
#X connect 10 0 1 0;
#X connect 10 0 8 0;
#X connect 10 0 6 0;
#X connect 10 0 5 0;
#X restore 349 762 pd track-5-spigot-handler;
#N canvas 0 23 476 371 track-6-spigot-handler 0;
#X obj 101 21 inlet;
#X obj 175 145 s track-8-spigot;
#X obj 175 169 s track-7-spigot;
#X obj 98 300 s track-6-spigot;
#X obj 173 190 s track-5-spigot;
#X obj 172 213 s track-4-spigot;
#X obj 169 235 s track-3-spigot;
#X obj 166 257 s track-2-spigot;
#X obj 160 277 s track-1-spigot;
#X msg 101 65 1;
#X msg 133 65 0;
#X connect 0 0 9 0;
#X connect 0 0 10 0;
#X connect 9 0 3 0;
#X connect 10 0 7 0;
#X connect 10 0 2 0;
#X connect 10 0 1 0;
#X connect 10 0 8 0;
#X connect 10 0 6 0;
#X connect 10 0 5 0;
#X connect 10 0 4 0;
#X restore 362 738 pd track-6-spigot-handler;
#N canvas 0 23 476 371 track-7-spigot-handler 0;
#X obj 101 21 inlet;
#X obj 175 145 s track-8-spigot;
#X obj 95 307 s track-7-spigot;
#X obj 175 168 s track-6-spigot;
#X obj 173 190 s track-5-spigot;
#X obj 172 213 s track-4-spigot;
#X obj 169 235 s track-3-spigot;
#X obj 166 257 s track-2-spigot;
#X obj 160 277 s track-1-spigot;
#X msg 101 65 1;
#X msg 133 65 0;
#X connect 0 0 9 0;
#X connect 0 0 10 0;
#X connect 9 0 2 0;
#X connect 10 0 7 0;
#X connect 10 0 1 0;
#X connect 10 0 8 0;
#X connect 10 0 6 0;
#X connect 10 0 5 0;
#X connect 10 0 4 0;
#X connect 10 0 3 0;
#X restore 377 715 pd track-7-spigot-handler;
#N canvas 0 23 476 371 track-8-spigot-handler 0;
#X obj 101 21 inlet;
#X obj 99 308 s track-8-spigot;
#X obj 177 146 s track-7-spigot;
#X obj 175 168 s track-6-spigot;
#X obj 173 190 s track-5-spigot;
#X obj 172 213 s track-4-spigot;
#X obj 169 235 s track-3-spigot;
#X obj 166 257 s track-2-spigot;
#X obj 160 277 s track-1-spigot;
#X msg 101 65 1;
#X msg 133 65 0;
#X connect 0 0 9 0;
#X connect 0 0 10 0;
#X connect 9 0 1 0;
#X connect 10 0 7 0;
#X connect 10 0 8 0;
#X connect 10 0 6 0;
#X connect 10 0 5 0;
#X connect 10 0 4 0;
#X connect 10 0 3 0;
#X connect 10 0 2 0;
#X restore 391 690 pd track-8-spigot-handler;
#X obj 773 695 spigot;
#X obj 820 680 r track-4-spigot;
#X obj 773 732 spigot;
#X obj 820 717 r track-5-spigot;
#X obj 773 772 spigot;
#X obj 820 757 r track-6-spigot;
#X obj 773 812 spigot;
#X obj 820 797 r track-7-spigot;
#X obj 773 852 spigot;
#X obj 820 837 r track-8-spigot;
#X obj -44 260 abl_link~ 4 0 4 120;
#X msg 559 275 1;
#X obj 558 255 sel 127;
#X msg 597 275 0;
#X msg 758 280 1;
#X obj 757 260 sel 127;
#X msg 796 281 0;
#X obj -44 485 spigot;
#X obj 100 429 tgl 15 0 empty empty empty 17 7 0 10 -262144 -1 -1 0
1;
#X msg 100 470 0;
#X obj 100 450 sel 0;
#X obj 81 562 sel 1;
#X obj 81 535 spigot;
#X msg 152 471 1;
#X obj 138 520 tgl 15 0 empty empty empty 17 7 0 10 -262144 -1 -1 0
1;
#X obj 81 512 == 15;
#X obj 50 444 - 1;
#X obj -93 456 s tempo;
#X obj -393 316 r tempo;
#X connect 0 0 130 0;
#X connect 1 0 9 0;
#X connect 2 0 10 0;
#X connect 3 0 11 0;
#X connect 4 0 12 0;
#X connect 5 0 13 0;
#X connect 6 0 14 0;
#X connect 7 0 16 0;
#X connect 8 0 15 0;
#X connect 9 0 51 0;
#X connect 10 0 52 0;
#X connect 11 0 53 0;
#X connect 12 0 54 0;
#X connect 13 0 55 0;
#X connect 14 0 56 0;
#X connect 15 0 57 0;
#X connect 16 0 58 0;
#X connect 17 0 43 1;
#X connect 19 0 1 0;
#X connect 20 0 2 0;
#X connect 21 0 3 0;
#X connect 22 0 4 0;
#X connect 23 0 5 0;
#X connect 24 0 6 0;
#X connect 25 0 8 0;
#X connect 26 0 7 0;
#X connect 27 0 17 0;
#X connect 28 0 31 0;
#X connect 29 0 32 0;
#X connect 30 0 33 0;
#X connect 31 0 44 1;
#X connect 32 0 45 1;
#X connect 33 0 46 1;
#X connect 34 0 38 0;
#X connect 35 0 39 0;
#X connect 36 0 40 0;
#X connect 37 0 41 0;
#X connect 38 0 50 1;
#X connect 39 0 49 1;
#X connect 40 0 48 1;
#X connect 41 0 47 1;
#X connect 43 0 63 0;
#X connect 44 0 63 0;
#X connect 45 0 63 0;
#X connect 46 0 63 0;
#X connect 47 0 63 0;
#X connect 48 0 63 0;
#X connect 49 0 63 0;
#X connect 50 0 63 0;
#X connect 51 0 43 0;
#X connect 52 0 44 0;
#X connect 53 0 45 0;
#X connect 54 0 46 0;
#X connect 55 0 50 0;
#X connect 56 0 49 0;
#X connect 57 0 48 0;
#X connect 58 0 47 0;
#X connect 59 0 60 0;
#X connect 59 0 60 2;
#X connect 62 0 122 1;
#X connect 62 0 123 1;
#X connect 62 0 124 1;
#X connect 62 0 125 1;
#X connect 62 0 126 1;
#X connect 62 0 127 1;
#X connect 62 0 128 1;
#X connect 62 0 129 1;
#X connect 63 0 81 0;
#X connect 63 0 112 0;
#X connect 65 0 64 0;
#X connect 65 0 64 2;
#X connect 66 0 64 0;
#X connect 66 0 64 2;
#X connect 67 0 157 0;
#X connect 70 0 75 0;
#X connect 72 0 74 0;
#X connect 73 0 67 0;
#X connect 74 0 157 0;
#X connect 75 0 76 0;
#X connect 76 0 77 0;
#X connect 76 0 78 0;
#X connect 77 0 80 0;
#X connect 78 0 164 0;
#X connect 78 0 172 0;
#X connect 78 0 174 0;
#X connect 79 0 80 1;
#X connect 79 0 173 0;
#X connect 80 0 76 1;
#X connect 82 0 84 0;
#X connect 83 0 82 0;
#X connect 84 0 106 0;
#X connect 85 0 106 1;
#X connect 86 0 108 0;
#X connect 87 0 88 0;
#X connect 88 0 92 0;
#X connect 88 1 99 0;
#X connect 88 2 100 0;
#X connect 88 3 142 0;
#X connect 88 4 143 0;
#X connect 88 5 144 0;
#X connect 88 6 145 0;
#X connect 88 7 146 0;
#X connect 89 0 119 1;
#X connect 90 0 72 0;
#X connect 91 0 101 1;
#X connect 93 0 64 0;
#X connect 93 0 64 2;
#X connect 94 0 64 0;
#X connect 94 0 64 2;
#X connect 95 0 64 0;
#X connect 95 0 64 2;
#X connect 96 0 64 0;
#X connect 96 0 64 2;
#X connect 97 0 64 0;
#X connect 97 0 64 2;
#X connect 98 0 64 0;
#X connect 98 0 64 2;
#X connect 101 0 122 0;
#X connect 102 0 123 0;
#X connect 103 0 124 0;
#X connect 104 0 102 1;
#X connect 105 0 103 1;
#X connect 106 0 85 0;
#X connect 106 0 86 0;
#X connect 107 0 106 0;
#X connect 108 0 87 0;
#X connect 108 1 107 0;
#X connect 109 0 110 0;
#X connect 110 0 64 1;
#X connect 111 0 113 0;
#X connect 111 0 113 1;
#X connect 112 0 111 0;
#X connect 114 0 134 0;
#X connect 115 0 101 0;
#X connect 115 0 102 0;
#X connect 115 0 103 0;
#X connect 115 0 147 0;
#X connect 115 0 149 0;
#X connect 115 0 151 0;
#X connect 115 0 153 0;
#X connect 115 0 155 0;
#X connect 116 0 117 0;
#X connect 119 0 83 0;
#X connect 120 0 119 0;
#X connect 121 0 120 0;
#X connect 130 0 18 0;
#X connect 131 0 59 0;
#X connect 132 0 134 0;
#X connect 134 0 133 0;
#X connect 135 0 134 1;
#X connect 137 0 132 0;
#X connect 138 0 137 0;
#X connect 139 0 159 0;
#X connect 140 0 162 0;
#X connect 141 0 137 1;
#X connect 147 0 125 0;
#X connect 148 0 147 1;
#X connect 149 0 126 0;
#X connect 150 0 149 1;
#X connect 151 0 127 0;
#X connect 152 0 151 1;
#X connect 153 0 128 0;
#X connect 154 0 153 1;
#X connect 155 0 129 0;
#X connect 156 0 155 1;
#X connect 157 0 70 0;
#X connect 157 1 69 0;
#X connect 157 2 68 0;
#X connect 157 3 71 0;
#X connect 158 0 116 0;
#X connect 159 0 158 0;
#X connect 159 1 160 0;
#X connect 160 0 116 0;
#X connect 161 0 141 0;
#X connect 162 0 161 0;
#X connect 162 1 163 0;
#X connect 163 0 141 0;
#X connect 164 0 61 0;
#X connect 165 0 167 0;
#X connect 166 0 164 1;
#X connect 166 0 171 0;
#X connect 167 0 166 0;
#X connect 167 1 170 0;
#X connect 168 0 170 0;
#X connect 169 0 168 0;
#X connect 170 0 164 1;
#X connect 170 0 171 0;
#X connect 171 0 169 1;
#X connect 172 0 169 0;
#X connect 173 0 172 1;
#X connect 175 0 131 0;
