#N canvas 554 118 939 669 10;
#X obj 760 30 midi-observer;
#X floatatom 304 318 5 0 0 0 - - -, f 5;
#X obj 295 545 noteout;
#X obj 263 249 makenote;
#X msg 321 222 320;
#X obj 356 175 bng 15 250 50 0 empty empty empty 17 7 0 10 -262144
-1 -1;
#X obj 134 107 metro 500;
#X msg 354 318 1;
#X obj 128 413 spigot;
#X obj 129 296 t f f;
#X floatatom 128 433 5 0 0 0 - - -, f 5;
#X msg 232 380 0;
#X msg 177 380 1;
#X obj 242 180 random 65;
#X obj 242 200 + 20;
#X obj 166 180 random 65;
#X obj 166 200 + 20;
#X obj 92 180 random 65;
#X obj 92 200 + 20;
#X obj 16 180 random 65;
#X obj 16 200 + 20;
#X obj 172 343 sel 36 40 41 45 48 50 53 53 57 62 69 24 74 81;
#X obj 356 152 loadbang;
#X obj 480 150 random 4;
#X obj 481 177 sel 0 1 2;
#X msg 467 243 36;
#X msg 512 242 74;
#X msg 532 212 57;
#X msg 485 212 62;
#X obj 512 298 makenote;
#X obj 619 96 bng 15 250 50 0 empty empty empty 17 7 0 10 -262144 -1
-1;
#X obj 532 377 noteout;
#X msg 623 323 1;
#X obj 619 75 loadbang;
#X obj 503 63 tgl 15 0 empty empty empty 17 7 0 10 -262144 -1 -1 1
1;
#X obj 503 40 loadbang;
#X msg 555 265 127;
#X msg 282 202 127;
#X obj 134 84 tgl 15 0 empty empty empty 17 7 0 10 -262144 -1 -1 1
1;
#X obj 134 64 loadbang;
#X floatatom 513 320 5 0 0 0 - - -, f 5;
#X obj 503 85 metro 2000;
#X obj 514 109 random 4000;
#X msg 594 287 320;
#X connect 1 0 2 1;
#X connect 3 0 9 0;
#X connect 3 1 1 0;
#X connect 4 0 3 2;
#X connect 5 0 7 0;
#X connect 5 0 37 0;
#X connect 5 0 4 0;
#X connect 6 0 13 0;
#X connect 6 0 15 0;
#X connect 6 0 17 0;
#X connect 6 0 19 0;
#X connect 7 0 2 2;
#X connect 8 0 10 0;
#X connect 9 0 8 0;
#X connect 9 1 21 0;
#X connect 10 0 2 0;
#X connect 11 0 8 1;
#X connect 12 0 8 1;
#X connect 13 0 14 0;
#X connect 14 0 3 0;
#X connect 15 0 16 0;
#X connect 16 0 3 0;
#X connect 17 0 18 0;
#X connect 18 0 3 0;
#X connect 19 0 20 0;
#X connect 20 0 3 0;
#X connect 21 0 12 0;
#X connect 21 1 12 0;
#X connect 21 2 12 0;
#X connect 21 3 12 0;
#X connect 21 4 12 0;
#X connect 21 5 12 0;
#X connect 21 6 12 0;
#X connect 21 7 12 0;
#X connect 21 8 12 0;
#X connect 21 9 12 0;
#X connect 21 11 12 0;
#X connect 21 12 12 0;
#X connect 21 13 12 0;
#X connect 21 14 11 0;
#X connect 22 0 5 0;
#X connect 23 0 24 0;
#X connect 24 0 25 0;
#X connect 24 1 28 0;
#X connect 24 2 26 0;
#X connect 24 3 27 0;
#X connect 25 0 29 0;
#X connect 26 0 29 0;
#X connect 27 0 29 0;
#X connect 28 0 29 0;
#X connect 29 0 40 0;
#X connect 29 1 31 1;
#X connect 30 0 36 0;
#X connect 30 0 43 0;
#X connect 30 0 32 0;
#X connect 32 0 31 2;
#X connect 33 0 30 0;
#X connect 34 0 41 0;
#X connect 35 0 34 0;
#X connect 36 0 29 1;
#X connect 37 0 3 1;
#X connect 38 0 6 0;
#X connect 39 0 38 0;
#X connect 40 0 31 0;
#X connect 41 0 23 0;
#X connect 41 0 42 0;
#X connect 42 0 41 1;
#X connect 43 0 29 2;
