#N canvas 132 101 1834 1173 10;
#X obj 208 -26 loadbang;
#X obj 208 -2 f \$1;
#X obj 405 -6 + 0;
#X obj 513 -6 + 1;
#X obj 623 -5 + 2;
#X obj 737 -5 + 3;
#X obj 851 -5 + 4;
#X obj 971 -5 + 5;
#X obj 1212 -4 + 7;
#X obj 1091 -4 + 6;
#X obj 405 14 midi-button 0 2;
#X obj 513 14 midi-button 0 2;
#X obj 623 15 midi-button 0 2;
#X obj 737 15 midi-button 0 2;
#X obj 851 15 midi-button 0 2;
#X obj 971 15 midi-button 0 2;
#X obj 1091 16 midi-button 0 2;
#X obj 1212 16 midi-button 0 2;
#X obj 486 59 + 0;
#X obj 208 21 s \$0-midi-base;
#X obj 405 -27 r \$0-midi-base;
#X obj 513 -26 r \$0-midi-base;
#X obj 623 -25 r \$0-midi-base;
#X obj 737 -25 r \$0-midi-base;
#X obj 851 -25 r \$0-midi-base;
#X obj 971 -25 r \$0-midi-base;
#X obj 1091 -24 r \$0-midi-base;
#X obj 1212 -24 r \$0-midi-base;
#X obj 451 43 r \$0-base;
#X obj 559 43 r \$0-base;
#X obj 669 43 r \$0-base;
#X obj 782 43 r \$0-base;
#X obj 594 59 + 1;
#X obj 704 59 + 2;
#X obj 817 59 + 3;
#X obj 897 43 r \$0-base;
#X obj 1017 43 r \$0-base;
#X obj 1137 43 r \$0-base;
#X obj 1257 43 r \$0-base;
#X obj 932 59 + 4;
#X obj 1052 59 + 5;
#X obj 1172 59 + 6;
#X obj 1292 59 + 7;
#N canvas 171 786 465 357 navigation 0;
#X obj 150 277 s \$0-base;
#X msg 108 95 1;
#X msg 187 92 -1;
#X floatatom 215 189 5 0 0 0 - - -, f 5;
#X obj 301 176 bng 15 250 50 0 empty empty empty 17 7 0 10 -262144
-1 -1;
#X obj 154 135 +;
#X obj 150 238 * 8;
#X obj 150 258 + 1;
#X obj 215 218 moses 0;
#X obj 219 141 int;
#X obj 73 51 midi-button 26 4;
#X obj 183 50 midi-button 27 4;
#X msg 219 116 0;
#X obj 282 140 loadbang;
#X obj 55 203 sssad sample-bank;
#X obj 308 79 r RELOAD_SAMPLES;
#X msg 308 99 bang;
#X connect 1 0 5 0;
#X connect 2 0 5 0;
#X connect 3 0 8 0;
#X connect 3 0 6 0;
#X connect 3 0 14 1;
#X connect 4 0 12 0;
#X connect 5 0 9 0;
#X connect 6 0 7 0;
#X connect 7 0 0 0;
#X connect 8 0 4 0;
#X connect 9 0 3 0;
#X connect 9 0 5 1;
#X connect 10 0 1 0;
#X connect 11 0 2 0;
#X connect 12 0 9 0;
#X connect 13 0 3 0;
#X connect 14 0 9 0;
#X connect 15 0 16 0;
#X connect 16 0 9 0;
#X restore 209 74 pd navigation;
#X obj 471 98 f;
#X obj 579 98 f;
#X obj 689 98 f;
#X obj 802 98 f;
#X obj 1277 98 f;
#X obj 1157 98 f;
#X obj 1037 98 f;
#X obj 917 98 f;
#X obj 405 34 bng 15 250 50 0 empty empty empty 17 7 0 10 -262144 -1
-1;
#X obj 513 34 bng 15 250 50 0 empty empty empty 17 7 0 10 -262144 -1
-1;
#X obj 623 34 bng 15 250 50 0 empty empty empty 17 7 0 10 -262144 -1
-1;
#X obj 737 34 bng 15 250 50 0 empty empty empty 17 7 0 10 -262144 -1
-1;
#X obj 851 34 bng 15 250 50 0 empty empty empty 17 7 0 10 -262144 -1
-1;
#X obj 970 34 bng 15 250 50 0 empty empty empty 17 7 0 10 -262144 -1
-1;
#X obj 1090 34 bng 15 250 50 0 empty empty empty 17 7 0 10 -262144
-1 -1;
#X obj 1213 34 bng 15 250 50 0 empty empty empty 17 7 0 10 -262144
-1 -1;
#X obj 221 211 loadbang;
#X floatatom 221 270 5 0 0 0 - - -, f 5;
#X obj 221 429 metro;
#X obj 221 361 t b f;
#X floatatom 221 329 8 0 0 0 - - -, f 8;
#X obj 221 300 expr (60/$f1)*1000;
#X obj 253 397 / 4;
#X msg 221 239 120;
#X obj 248 504 hradio 40 1 0 16 empty empty empty 0 -8 0 10 -262144
-1 -1 3;
#X obj 221 454 f;
#X obj 251 454 + 1;
#X obj 281 454 mod 16;
#X obj 221 479 t f f;
#X floatatom 319 422 5 0 0 0 - - -, f 5;
#X obj -393 366 metronome;
#X obj -393 433 channel-out~;
#X obj -393 317 f;
#X obj -355 318 + 1;
#X msg -393 261 bang;
#X msg -374 291 1;
#X obj -317 342 sel 0;
#X obj -317 318 mod 6;
#X obj -393 341 sel 1;
#X obj 166 455 s metro;
#X obj -393 239 r metro;
#X obj 221 554 s current-step;
#X obj 910 584 r current-step;
#X floatatom 853 227 5 0 0 0 - - -, f 5;
#X floatatom 205 584 5 0 0 0 - - -, f 5;
#X obj 910 644 r current-step;
#X floatatom 205 644 5 0 0 0 - - -, f 5;
#X obj 910 704 r current-step;
#X floatatom 205 704 5 0 0 0 - - -, f 5;
#X obj 910 764 r current-step;
#X floatatom 205 764 5 0 0 0 - - -, f 5;
#X obj 910 824 r current-step;
#X floatatom 205 824 5 0 0 0 - - -, f 5;
#X obj 910 884 r current-step;
#X floatatom 205 884 5 0 0 0 - - -, f 5;
#X obj 910 944 r current-step;
#X floatatom 205 944 5 0 0 0 - - -, f 5;
#X obj 910 1004 r current-step;
#X floatatom 205 1004 5 0 0 0 - - -, f 5;
#X obj 196 403 tgl 15 0 empty empty empty 17 7 0 10 -262144 -1 -1 0
1;
#X obj 243 598 drum-sequencer-row;
#X obj 243 658 drum-sequencer-row;
#X obj 243 718 drum-sequencer-row;
#X obj 243 778 drum-sequencer-row;
#X obj 243 838 drum-sequencer-row;
#X obj 243 898 drum-sequencer-row;
#X obj 243 958 drum-sequencer-row;
#X obj 243 1018 drum-sequencer-row;
#X obj -375 870 channel-out~;
#X obj 174 659 s~ audio-1;
#X obj 173 718 s~ audio-2;
#X obj 173 779 s~ audio-3;
#X obj 173 839 s~ audio-4;
#X obj 173 899 s~ audio-5;
#X obj 173 959 s~ audio-6;
#X obj 173 1019 s~ audio-7;
#X obj 243 1082 s~ audio-8;
#X obj -192 670 r~ audio-1;
#X obj -182 691 r~ audio-2;
#X obj -172 711 r~ audio-3;
#X obj -162 731 r~ audio-4;
#X obj -152 751 r~ audio-5;
#X obj -142 771 r~ audio-6;
#X obj -132 791 r~ audio-7;
#X obj -122 811 r~ audio-8;
#X connect 0 0 1 0;
#X connect 1 0 19 0;
#X connect 2 0 10 0;
#X connect 3 0 11 0;
#X connect 4 0 12 0;
#X connect 5 0 13 0;
#X connect 6 0 14 0;
#X connect 7 0 15 0;
#X connect 8 0 17 0;
#X connect 9 0 16 0;
#X connect 10 0 52 0;
#X connect 11 0 53 0;
#X connect 12 0 54 0;
#X connect 13 0 55 0;
#X connect 14 0 56 0;
#X connect 15 0 57 0;
#X connect 16 0 58 0;
#X connect 17 0 59 0;
#X connect 18 0 44 1;
#X connect 20 0 2 0;
#X connect 21 0 3 0;
#X connect 22 0 4 0;
#X connect 23 0 5 0;
#X connect 24 0 6 0;
#X connect 25 0 7 0;
#X connect 26 0 9 0;
#X connect 27 0 8 0;
#X connect 28 0 18 0;
#X connect 29 0 32 0;
#X connect 30 0 33 0;
#X connect 31 0 34 0;
#X connect 32 0 45 1;
#X connect 33 0 46 1;
#X connect 34 0 47 1;
#X connect 35 0 39 0;
#X connect 36 0 40 0;
#X connect 37 0 41 0;
#X connect 38 0 42 0;
#X connect 39 0 51 1;
#X connect 40 0 50 1;
#X connect 41 0 49 1;
#X connect 42 0 48 1;
#X connect 44 0 87 0;
#X connect 45 0 87 0;
#X connect 46 0 87 0;
#X connect 47 0 87 0;
#X connect 48 0 87 0;
#X connect 49 0 87 0;
#X connect 50 0 87 0;
#X connect 51 0 87 0;
#X connect 52 0 44 0;
#X connect 53 0 45 0;
#X connect 54 0 46 0;
#X connect 55 0 47 0;
#X connect 56 0 51 0;
#X connect 57 0 50 0;
#X connect 58 0 49 0;
#X connect 59 0 48 0;
#X connect 60 0 67 0;
#X connect 61 0 65 0;
#X connect 62 0 69 0;
#X connect 62 0 83 0;
#X connect 63 0 62 0;
#X connect 63 1 66 0;
#X connect 64 0 63 0;
#X connect 65 0 64 0;
#X connect 66 0 62 1;
#X connect 67 0 61 0;
#X connect 69 0 70 0;
#X connect 69 0 72 0;
#X connect 70 0 71 0;
#X connect 71 0 69 1;
#X connect 72 0 85 0;
#X connect 72 1 68 0;
#X connect 73 0 71 1;
#X connect 74 0 75 0;
#X connect 76 0 77 0;
#X connect 76 0 82 0;
#X connect 77 0 81 0;
#X connect 78 0 76 0;
#X connect 79 0 76 0;
#X connect 80 0 79 0;
#X connect 81 0 76 1;
#X connect 81 0 80 0;
#X connect 82 0 74 0;
#X connect 84 0 78 0;
#X connect 86 0 104 1;
#X connect 88 0 104 0;
#X connect 89 0 105 1;
#X connect 90 0 105 0;
#X connect 91 0 106 1;
#X connect 92 0 106 0;
#X connect 93 0 107 1;
#X connect 94 0 107 0;
#X connect 95 0 108 1;
#X connect 96 0 108 0;
#X connect 97 0 109 1;
#X connect 98 0 109 0;
#X connect 99 0 110 1;
#X connect 100 0 110 0;
#X connect 101 0 111 1;
#X connect 102 0 111 0;
#X connect 103 0 62 0;
#X connect 104 0 113 0;
#X connect 105 0 114 0;
#X connect 106 0 115 0;
#X connect 107 0 116 0;
#X connect 108 0 117 0;
#X connect 109 0 118 0;
#X connect 110 0 119 0;
#X connect 111 0 120 0;
#X connect 121 0 112 0;
#X connect 121 0 112 2;
#X connect 122 0 112 0;
#X connect 122 0 112 2;
#X connect 123 0 112 0;
#X connect 123 0 112 2;
#X connect 124 0 112 0;
#X connect 124 0 112 2;
#X connect 125 0 112 0;
#X connect 125 0 112 2;
#X connect 126 0 112 0;
#X connect 126 0 112 2;
#X connect 127 0 112 0;
#X connect 127 0 112 2;
#X connect 128 0 112 0;
#X connect 128 0 112 2;
