#N canvas 218 49 1134 811 10;
#X obj 31 314 tap-tempo;
#X obj 31 382 s TEMPO;
#X obj 783 -3 midi-observer;
#X obj 27 578 channel-out~;
#X obj 27 492 r TEMPO;
#X obj 783 -72 midi-thru;
#X obj 27 512 metronome;
#X floatatom 126 292 5 0 0 0 - - -, f 5;
#X floatatom 109 381 5 0 0 0 - - -, f 5;
#X obj 28 11 state-manager;
#X obj 831 561 loadbang-dsp;
#X obj 831 602 s defaults;
#X obj 831 582 s initialize;
#X obj 912 587 bng 15 250 50 0 empty empty empty 17 7 0 10 -262144
-1 -1;
#X obj 135 244 sssad timing-ms;
#X obj 96 270 loadbang;
#X msg 96 291 800;
#X obj 34 -31 pack s;
#X symbolatom 28 -51 10 0 0 0 - - -, f 10;
#X obj 34 -10 s BANK;
#X obj 287 157 r TEMPO;
#X obj 386 253 r BANK;
#X obj 425 6 bng 15 250 50 0 empty empty empty 17 7 0 10 -262144 -1
-1;
#X obj 507 157 r TEMPO;
#X obj 606 253 r BANK;
#X msg 606 274 symbol \$1-2;
#X obj 737 157 r TEMPO;
#X obj 836 253 r BANK;
#X msg 386 274 symbol \$1-1;
#X msg 836 274 symbol \$1-3;
#X obj 28 -72 l2s;
#N canvas 331 162 1349 866 navigation 0;
#X msg 15 64 1;
#X msg 94 61 -1;
#X obj 61 104 +;
#X obj 126 110 int;
#X floatatom 122 158 5 0 0 0 - - -, f 5;
#X obj 15 18 midi-button 8 4;
#X obj 94 38 midi-button 9 4;
#X obj 208 145 bng 15 250 50 0 empty empty empty 17 7 0 10 -262144
-1 -1;
#X obj 55 221 outlet;
#X obj 13 137 r initialize;
#X msg 13 159 0;
#X obj 122 187 moses 0;
#X connect 0 0 2 0;
#X connect 1 0 2 0;
#X connect 2 0 3 0;
#X connect 3 0 2 1;
#X connect 3 0 4 0;
#X connect 4 0 8 0;
#X connect 4 0 11 0;
#X connect 5 0 0 0;
#X connect 6 0 1 0;
#X connect 7 0 0 0;
#X connect 9 0 10 0;
#X connect 10 0 4 0;
#X connect 10 0 8 0;
#X connect 11 0 7 0;
#X restore 28 -94 pd navigation;
#X obj 315 195 r toggle-all;
#X obj 532 195 r toggle-all;
#X obj 763 195 r toggle-all;
#X obj 84 -29 midi-button 10 4;
#X obj 141 -11 midi-button 13 4;
#X obj 244 4 s SAVE;
#X obj 425 29 s PLAY-ALL;
#X obj 363 235 midi-toggle 11 2;
#X obj 316 176 midi-button 10 2;
#X obj 338 215 midi-button 14 4;
#X obj 558 215 midi-button 15 4;
#X obj 788 215 midi-button 16 4;
#X obj 532 175 midi-button 26 2;
#X obj 764 176 midi-button 42 2;
#X obj 583 235 midi-toggle 27 2;
#X obj 813 235 midi-toggle 43 2;
#X obj 425 -17 midi-button 19 4;
#X obj 247 523 r defaults;
#X obj 120 517 r initialize;
#X msg 247 543 volume 0;
#X obj 120 558 channel-out-control;
#X msg 121 538 volume 6 \, channel 1;
#X obj 31 244 midi-button 6 2;
#X msg 410 313 10;
#X obj 409 294 r initialize;
#X obj 629 294 r initialize;
#X obj 859 294 r initialize;
#X msg 630 313 26;
#X msg 860 313 42;
#X obj 557 -17 midi-button 31 4;
#X msg 557 8 0 123 1;
#X obj 557 33 ctlout;
#X obj 287 337 midi-looper 1 track-1;
#X obj 507 337 midi-looper 1 track-2;
#X obj 736 336 midi-looper 1 track-3;
#X connect 0 0 1 0;
#X connect 0 1 8 0;
#X connect 4 0 6 0;
#X connect 6 0 3 0;
#X connect 7 0 0 1;
#X connect 8 0 14 1;
#X connect 10 0 11 0;
#X connect 10 0 12 0;
#X connect 13 0 11 0;
#X connect 14 0 7 0;
#X connect 15 0 16 0;
#X connect 16 0 0 1;
#X connect 17 0 19 0;
#X connect 18 0 9 0;
#X connect 18 0 17 0;
#X connect 20 0 64 0;
#X connect 21 0 28 0;
#X connect 22 0 38 0;
#X connect 23 0 65 0;
#X connect 24 0 25 0;
#X connect 25 0 65 4;
#X connect 26 0 66 0;
#X connect 27 0 29 0;
#X connect 28 0 64 4;
#X connect 29 0 66 4;
#X connect 30 0 18 0;
#X connect 31 0 30 0;
#X connect 32 0 64 1;
#X connect 33 0 65 1;
#X connect 34 0 66 1;
#X connect 35 0 9 1;
#X connect 36 0 37 0;
#X connect 36 0 9 2;
#X connect 39 0 64 3;
#X connect 40 0 64 1;
#X connect 41 0 64 2;
#X connect 42 0 65 2;
#X connect 43 0 66 2;
#X connect 44 0 65 1;
#X connect 45 0 66 1;
#X connect 46 0 65 3;
#X connect 47 0 66 3;
#X connect 48 0 22 0;
#X connect 49 0 51 0;
#X connect 50 0 53 0;
#X connect 51 0 52 1;
#X connect 52 0 3 1;
#X connect 53 0 52 0;
#X connect 54 0 0 0;
#X connect 55 0 64 5;
#X connect 56 0 55 0;
#X connect 57 0 59 0;
#X connect 58 0 60 0;
#X connect 59 0 65 5;
#X connect 60 0 66 5;
#X connect 61 0 62 0;
#X connect 62 0 63 0;
