#N canvas 0 25 1440 847 10;
#X symbolatom 171 158 50 0 0 0 - - -, f 50;
#X obj 58 307 s defaults;
#X obj 171 96 loadbang;
#X obj 57 182 state-manager;
#X obj 132 70 r SAVE-MODES;
#X obj 94 49 r LOAD-MODES;
#X floatatom 529 168 5 0 0 0 - - -, f 5;
#X obj 364 30 adc~;
#X obj 371 53 s~ audio;
#X obj 58 327 bng 15 250 50 0 empty empty empty 17 7 0 10 -262144 -1
-1;
#X obj 58 288 loadbang-dsp;
#X obj 589 181 fx-track~ 1 10;
#X obj 755 181 fx-track~ 2 40;
#X obj 919 181 fx-track~ 3 60;
#N canvas 0 25 1126 847 mode-select 0;
#X obj 126 215 s MODE;
#X obj 106 178 t b f b;
#X obj 106 236 delay 10;
#X obj 145 197 s SAVE-MODES;
#X obj 106 258 s LOAD-MODES;
#X obj 106 35 hradio 30 1 0 3 empty empty empty 0 -8 0 10 -262144 -1
-1 0;
#X obj 106 71 + 1;
#X msg 62 -53 1;
#X msg 163 -49 -1;
#X obj 106 -21 +;
#X obj 135 -21 int 0;
#X obj 61 -72 midi-button 11 4;
#X obj 163 -72 midi-button 12 4;
#X obj 106 7 mod 3;
#X floatatom 106 139 5 0 0 0 - - -, f 5;
#X connect 1 0 2 0;
#X connect 1 1 0 0;
#X connect 1 2 3 0;
#X connect 2 0 4 0;
#X connect 5 0 6 0;
#X connect 6 0 14 0;
#X connect 7 0 9 0;
#X connect 8 0 9 0;
#X connect 9 0 10 0;
#X connect 9 0 13 0;
#X connect 10 0 9 1;
#X connect 11 0 7 0;
#X connect 12 0 8 0;
#X connect 13 0 5 0;
#X connect 14 0 1 0;
#X coords 0 -1 1 1 85 60 1 100 100;
#X restore 932 6 pd mode-select;
#X obj 529 111 loadbang;
#X msg 529 149 1;
#X obj 529 130 delay 50;
#X msg 171 117 symbol /home/pi/pd/memory/settings;
#X msg 171 138 symbol /Users/andy/Desktop;
#X connect 0 0 3 3;
#X connect 2 0 18 0;
#X connect 3 0 1 0;
#X connect 4 0 3 2;
#X connect 5 0 3 1;
#X connect 6 0 3 0;
#X connect 6 0 11 0;
#X connect 6 0 12 0;
#X connect 6 0 13 0;
#X connect 7 0 8 0;
#X connect 7 1 8 0;
#X connect 9 0 1 0;
#X connect 10 0 1 0;
#X connect 15 0 17 0;
#X connect 16 0 6 0;
#X connect 17 0 16 0;
#X connect 18 0 0 0;
#X connect 19 0 0 0;
