#N canvas 0 25 1440 847 10;
#X symbolatom 171 138 50 0 0 0 - - -, f 50;
#X msg 715 -2 1;
#X msg 842 -1 2;
#X obj 57 270 s defaults;
#X obj 94 133 r LOAD;
#X obj 149 116 r SAVE;
#X obj 777 120 s MODE;
#X obj 882 44 s SAVE;
#X obj 754 42 s SAVE;
#X obj 843 24 t b f b;
#X obj 715 19 t b f b;
#X obj 715 62 delay 10;
#X obj 715 84 s LOAD;
#X obj 844 64 delay 10;
#X obj 844 86 s LOAD;
#X msg 207 117 symbol /Users/andy/Desktop;
#X obj 207 96 loadbang;
#X obj 57 162 state-manager;
#N canvas 0 25 921 635 track-1 0;
#X obj 109 285 reverb~;
#X obj 497 225 r defaults;
#X obj 306 260 reverb-control track-1-reverb;
#X msg 497 245 wet 0 \, size 0;
#X obj 278 198 sel 1;
#X obj 278 175 r MODE;
#X msg 304 218 wet 42 \, size 42 \, channel 0;
#X msg 221 75 rec 0 \, play 4 \, stop 5 \, monitor 1 \, clear 12 \,
channel 2 \, track-number 1;
#X msg 825 91 bank \$1;
#X obj 107 53 r~ audio;
#X obj 221 107 looper-control track-1-looper;
#X obj 108 141 looper~;
#X floatatom 825 71 5 0 0 0 - - -, f 5;
#X msg 226 53 rec 42 \, play 42 \, stop 42 \, monitor 42 \, clear 42
\, channel 0;
#X obj 194 23 sel 1;
#X obj 194 0 r MODE;
#X obj 580 40 sel 1;
#X obj 580 17 r MODE;
#X msg 598 71 monitor 0 \, on-color 0 \, off-color 0;
#X obj 110 428 channel-out~;
#X msg 824 51 1;
#X obj 824 31 loadbang;
#X msg 598 91 monitor 0 \, on-color 23 \, off-color 0;
#X obj 637 368 r defaults;
#X obj 281 403 channel-out-control track-1-out;
#X msg 281 382 volume 13 \, mute 13 \, encoder-channel 1 \, toggle-channel
2;
#X msg 638 388 volume 0.5 \, mute 0 \, on-color 23 \, off-color 0;
#X obj 255 352 sel 1;
#X obj 255 329 r MODE;
#X msg 281 362 volume 42 \, mute 42 \, encoder-channel 0 \, toggle-channel
0;
#X msg 306 237 wet 8 \, size 9 \, channel 1;
#X connect 0 0 19 0;
#X connect 0 0 19 2;
#X connect 1 0 3 0;
#X connect 2 0 0 1;
#X connect 3 0 2 1;
#X connect 4 0 30 0;
#X connect 4 1 6 0;
#X connect 5 0 4 0;
#X connect 6 0 2 0;
#X connect 7 0 10 0;
#X connect 8 0 10 0;
#X connect 9 0 11 0;
#X connect 10 0 11 1;
#X connect 11 0 0 0;
#X connect 12 0 8 0;
#X connect 13 0 10 0;
#X connect 14 0 7 0;
#X connect 14 1 13 0;
#X connect 15 0 14 0;
#X connect 16 0 22 0;
#X connect 16 1 18 0;
#X connect 17 0 16 0;
#X connect 18 0 10 1;
#X connect 20 0 12 0;
#X connect 21 0 20 0;
#X connect 22 0 10 1;
#X connect 23 0 26 0;
#X connect 24 0 19 1;
#X connect 25 0 24 0;
#X connect 26 0 24 1;
#X connect 27 0 25 0;
#X connect 27 1 29 0;
#X connect 28 0 27 0;
#X connect 29 0 24 0;
#X connect 30 0 2 0;
#X coords 0 -1 1 1 140 400 1 100 100;
#X restore 565 237 pd track-1;
#N canvas 252 33 961 629 track-2 0;
#X obj 109 298 reverb~;
#X obj 497 248 r defaults;
#X msg 497 268 wet 0 \, size 0;
#X obj 306 283 reverb-control track-2-reverb;
#X obj 279 220 sel 2;
#X obj 279 197 r MODE;
#X msg 306 241 wet 42 \, size 42 \, channel 0;
#X msg 839 100 bank \$1;
#X obj 111 62 r~ audio;
#X floatatom 839 80 5 0 0 0 - - -, f 5;
#X msg 226 60 rec 42 \, play 42 \, stop 42 \, monitor 42 \, clear 42
\, channel 0;
#X obj 198 9 r MODE;
#X obj 198 32 sel 2;
#X msg 225 84 rec 0 \, play 4 \, stop 5 \, monitor 1 \, clear 12 \,
channel 2 \, track-number 2;
#X msg 612 80 monitor 0 \, on-color 0 \, off-color 0;
#X obj 595 26 r MODE;
#X obj 110 433 channel-out~;
#X msg 839 60 1;
#X obj 839 40 loadbang;
#X obj 595 49 sel 2;
#X obj 112 140 looper~;
#X obj 225 116 looper-control track-2-looper;
#X msg 612 100 monitor 0 \, on-color 99 \, off-color 0;
#X obj 672 377 r defaults;
#X msg 316 391 volume 13 \, mute 13 \, encoder-channel 1 \, toggle-channel
2;
#X msg 673 397 volume 0.5 \, mute 0 \, on-color 23 \, off-color 0;
#X obj 290 328 r MODE;
#X msg 316 371 volume 42 \, mute 42 \, encoder-channel 0 \, toggle-channel
0;
#X obj 290 351 sel 2;
#X obj 316 412 channel-out-control track-2-out;
#X msg 306 260 wet 8 \, size 9 \, channel 1;
#X connect 0 0 16 0;
#X connect 0 0 16 2;
#X connect 1 0 2 0;
#X connect 2 0 3 1;
#X connect 3 0 0 1;
#X connect 4 0 30 0;
#X connect 4 1 6 0;
#X connect 5 0 4 0;
#X connect 6 0 3 0;
#X connect 7 0 21 0;
#X connect 8 0 20 0;
#X connect 9 0 7 0;
#X connect 10 0 21 0;
#X connect 11 0 12 0;
#X connect 12 0 13 0;
#X connect 12 1 10 0;
#X connect 13 0 21 0;
#X connect 14 0 21 1;
#X connect 15 0 19 0;
#X connect 17 0 9 0;
#X connect 18 0 17 0;
#X connect 19 0 22 0;
#X connect 19 1 14 0;
#X connect 20 0 0 0;
#X connect 21 0 20 1;
#X connect 22 0 21 1;
#X connect 23 0 25 0;
#X connect 24 0 29 0;
#X connect 25 0 29 1;
#X connect 26 0 28 0;
#X connect 27 0 29 0;
#X connect 28 0 24 0;
#X connect 28 1 27 0;
#X connect 29 0 16 1;
#X connect 30 0 3 0;
#X coords 0 -1 1 1 140 400 1 100 100;
#X restore 838 232 pd track-2;
#X connect 0 0 17 3;
#X connect 1 0 10 0;
#X connect 2 0 9 0;
#X connect 4 0 17 1;
#X connect 5 0 17 2;
#X connect 9 0 13 0;
#X connect 9 1 6 0;
#X connect 9 2 7 0;
#X connect 10 0 11 0;
#X connect 10 1 6 0;
#X connect 10 2 8 0;
#X connect 11 0 12 0;
#X connect 13 0 14 0;
#X connect 15 0 0 0;
#X connect 16 0 15 0;
#X connect 17 0 3 0;
