#N canvas 534 41 1507 1065 10;
#X symbolatom 171 158 50 0 0 0 - - -, f 50;
#X obj 58 307 s defaults;
#X obj 1019 130 s MODE;
#X obj 999 93 t b f b;
#X obj 999 151 delay 10;
#X msg 171 136 symbol /Users/andy/Desktop;
#X obj 171 115 loadbang;
#X obj 57 182 state-manager;
#N canvas 236 25 1385 833 track-1 0;
#X obj 109 763 reverb~;
#X obj 478 713 r defaults;
#X obj 287 748 reverb-control track-1-reverb;
#X msg 478 733 wet 0 \, size 0;
#X obj 259 686 sel 1;
#X obj 259 663 r MODE;
#X msg 285 706 wet 42 \, size 42 \, channel 0;
#X msg 825 59 bank \$1;
#X obj 107 21 r~ audio;
#X obj 221 75 looper-control track-1-looper;
#X obj 108 125 looper~;
#X obj 194 -9 sel 1;
#X obj 194 -32 r MODE;
#X obj 580 8 sel 1;
#X obj 580 -15 r MODE;
#X msg 598 39 monitor 0 \, on-color 0 \, off-color 0;
#X obj 110 935 channel-out~;
#X obj 967 883 r defaults;
#X obj 611 918 channel-out-control track-1-out;
#X msg 611 897 volume 13 \, mute 13 \, encoder-channel 1 \, toggle-channel
2;
#X obj 585 867 sel 1;
#X obj 585 844 r MODE;
#X msg 611 877 volume 42 \, mute 42 \, encoder-channel 0 \, toggle-channel
0;
#X msg 287 725 wet 8 \, size 9 \, channel 1;
#X obj 108 242 freeze~;
#X obj 860 179 r defaults;
#X obj 483 224 freeze-control track-1-freeze;
#X msg 483 187 blend 2 \, speed 3 \, purity 3 \, switch 3 \, encoder-channel
1 \, toggle-channel 2;
#X obj 455 130 sel 1;
#X obj 455 107 r MODE;
#X msg 483 155 blend 42 \, speed 42 \, purity 42 \, switch 42 \, encoder-channel
0 \, toggle-channel 0;
#X obj 440 301 r defaults;
#X obj 281 341 metal-control track-1-metal;
#X msg 281 320 toggle 9 \, channel 2;
#X obj 108 358 metal~;
#X obj 108 404 pitch-shifter~;
#X obj 680 384 pitch-shifter-control track-1-pitch-shift;
#X obj 1054 347 r defaults;
#X msg 680 342 fine 999 \, coarse 7 \, width 7 \, toggle 7 \, encoder-channel
1 \, toggle-channel 2;
#X obj 252 278 sel 1;
#X obj 252 255 r MODE;
#X msg 281 300 toggle 42 \, channel 0;
#X obj 650 289 sel 1;
#X obj 650 266 r MODE;
#X msg 680 312 fine 42 \, coarse 42 \, width 42 \, toggle 42 \, encoder-channel
0 \, toggle-channel 0;
#X obj 108 647 audio-delay~ 4000;
#X obj 108 531 eq3~;
#X obj 577 477 r defaults;
#X msg 260 607 feedback 5 \, wet 1 \, length 4 \, channel 1;
#X msg 284 494 low 10 \, mid 11 \, high 14 \, gain 15 \, channel 1
;
#X obj 284 514 eq3-control track-1-eq;
#X obj 260 628 audio-delay-control track-1-delay;
#X obj 538 591 r defaults;
#X msg 538 611 wet 0 \, length 0 \, feedback 0;
#X msg 577 497 low 0.5 \, mid 0.5 \, high 0.5 \, gain 0.5;
#X msg 284 474 low 42 \, mid 42 \, high 42 \, gain 42 \, channel 0
;
#X msg 260 587 feedback 42 \, wet 42 \, length 42 \, channel 0;
#X obj 253 454 sel 1;
#X obj 253 431 r MODE;
#X obj 249 561 sel 1;
#X obj 249 538 r MODE;
#X obj 110 878 cosine-pan~;
#X obj 489 823 r defaults;
#X obj 290 861 cosine-pan-control track-1-pan;
#X msg 290 840 position 12 \, channel 1;
#X msg 489 844 position 0.5;
#X msg 290 820 position 42 \, channel 0;
#X obj 259 800 sel 1;
#X obj 259 777 r MODE;
#X msg 598 59 monitor 0 \, on-color 20 \, off-color 0;
#X msg 860 199 switch 0 \, blend 0 \, purity 0 \, phaselock 0 \, speed
0 \, on-color 20 \, off-color 0;
#X msg 440 321 toggle 0 \, on-color 20 \, off-color 0;
#X msg 1054 367 fine 0 \, coarse 1 \, width 0 \, on-color 20 \, off-color
0;
#X msg 968 903 volume 0.5 \, mute 0 \, on-color 20 \, off-color 0;
#X obj 825 33 inlet bank;
#X obj 901 33 r defaults;
#X msg 901 59 track-number 1;
#X msg 221 43 rec 0 \, play 4 \, stop 5 \, monitor 1 \, clear 12 \,
channel 2 \, track-number 1;
#X msg 226 21 rec 42 \, play 42 \, stop 42 \, monitor 42 \, clear 42
\, channel 0;
#X connect 0 0 61 0;
#X connect 1 0 3 0;
#X connect 2 0 0 1;
#X connect 3 0 2 1;
#X connect 4 0 23 0;
#X connect 4 1 6 0;
#X connect 5 0 4 0;
#X connect 6 0 2 0;
#X connect 7 0 9 0;
#X connect 8 0 10 0;
#X connect 9 0 10 1;
#X connect 10 0 24 0;
#X connect 11 0 77 0;
#X connect 11 1 78 0;
#X connect 12 0 11 0;
#X connect 13 0 69 0;
#X connect 13 1 15 0;
#X connect 14 0 13 0;
#X connect 15 0 9 1;
#X connect 17 0 73 0;
#X connect 18 0 16 1;
#X connect 19 0 18 0;
#X connect 20 0 19 0;
#X connect 20 1 22 0;
#X connect 21 0 20 0;
#X connect 22 0 18 0;
#X connect 23 0 2 0;
#X connect 24 0 34 0;
#X connect 25 0 70 0;
#X connect 26 0 24 1;
#X connect 27 0 26 0;
#X connect 28 0 27 0;
#X connect 28 1 30 0;
#X connect 29 0 28 0;
#X connect 30 0 26 0;
#X connect 31 0 71 0;
#X connect 32 0 34 1;
#X connect 33 0 32 0;
#X connect 34 0 35 0;
#X connect 35 0 46 0;
#X connect 36 0 35 1;
#X connect 37 0 72 0;
#X connect 38 0 36 0;
#X connect 39 0 33 0;
#X connect 39 1 41 0;
#X connect 40 0 39 0;
#X connect 41 0 32 0;
#X connect 42 0 38 0;
#X connect 42 1 44 0;
#X connect 43 0 42 0;
#X connect 44 0 36 0;
#X connect 45 0 0 0;
#X connect 46 0 45 0;
#X connect 47 0 54 0;
#X connect 48 0 51 0;
#X connect 49 0 50 0;
#X connect 50 0 46 1;
#X connect 51 0 45 1;
#X connect 52 0 53 0;
#X connect 53 0 51 1;
#X connect 54 0 50 1;
#X connect 55 0 50 0;
#X connect 56 0 51 0;
#X connect 57 0 49 0;
#X connect 57 1 55 0;
#X connect 58 0 57 0;
#X connect 59 0 48 0;
#X connect 59 1 56 0;
#X connect 60 0 59 0;
#X connect 61 0 16 0;
#X connect 61 1 16 2;
#X connect 62 0 65 0;
#X connect 63 0 61 1;
#X connect 64 0 63 0;
#X connect 65 0 63 1;
#X connect 66 0 63 0;
#X connect 67 0 64 0;
#X connect 67 1 66 0;
#X connect 68 0 67 0;
#X connect 69 0 9 1;
#X connect 70 0 26 1;
#X connect 71 0 32 1;
#X connect 72 0 36 1;
#X connect 73 0 18 1;
#X connect 74 0 7 0;
#X connect 75 0 76 0;
#X connect 76 0 9 0;
#X connect 77 0 9 0;
#X connect 78 0 9 0;
#X coords 0 -1 1 1 140 900 1 100 100;
#X restore 568 182 pd track-1;
#X obj 1038 112 s SAVE-MODES;
#X obj 999 173 s LOAD-MODES;
#X obj 132 89 r SAVE-MODES;
#X obj 94 68 r LOAD-MODES;
#N canvas 0 25 1385 833 track-2 0;
#X obj 109 763 reverb~;
#X obj 478 713 r defaults;
#X msg 478 733 wet 0 \, size 0;
#X obj 259 663 r MODE;
#X msg 285 706 wet 42 \, size 42 \, channel 0;
#X msg 825 59 bank \$1;
#X obj 107 21 r~ audio;
#X obj 194 -32 r MODE;
#X obj 580 -15 r MODE;
#X msg 598 39 monitor 0 \, on-color 0 \, off-color 0;
#X obj 110 935 channel-out~;
#X obj 967 883 r defaults;
#X msg 611 897 volume 13 \, mute 13 \, encoder-channel 1 \, toggle-channel
2;
#X obj 585 835 r MODE;
#X msg 611 877 volume 42 \, mute 42 \, encoder-channel 0 \, toggle-channel
0;
#X msg 287 725 wet 8 \, size 9 \, channel 1;
#X obj 108 242 freeze~;
#X obj 860 179 r defaults;
#X msg 483 187 blend 2 \, speed 3 \, purity 3 \, switch 3 \, encoder-channel
1 \, toggle-channel 2;
#X obj 455 107 r MODE;
#X msg 483 155 blend 42 \, speed 42 \, purity 42 \, switch 42 \, encoder-channel
0 \, toggle-channel 0;
#X obj 440 301 r defaults;
#X msg 281 320 toggle 9 \, channel 2;
#X obj 108 358 metal~;
#X obj 108 404 pitch-shifter~;
#X obj 1054 347 r defaults;
#X msg 680 342 fine 999 \, coarse 7 \, width 7 \, toggle 7 \, encoder-channel
1 \, toggle-channel 2;
#X obj 252 255 r MODE;
#X msg 281 300 toggle 42 \, channel 0;
#X obj 650 266 r MODE;
#X msg 680 312 fine 42 \, coarse 42 \, width 42 \, toggle 42 \, encoder-channel
0 \, toggle-channel 0;
#X obj 108 647 audio-delay~ 4000;
#X obj 108 531 eq3~;
#X obj 577 477 r defaults;
#X msg 260 607 feedback 5 \, wet 1 \, length 4 \, channel 1;
#X msg 284 494 low 10 \, mid 11 \, high 14 \, gain 15 \, channel 1
;
#X obj 538 591 r defaults;
#X msg 538 611 wet 0 \, length 0 \, feedback 0;
#X msg 577 497 low 0.5 \, mid 0.5 \, high 0.5 \, gain 0.5;
#X msg 284 474 low 42 \, mid 42 \, high 42 \, gain 42 \, channel 0
;
#X msg 260 587 feedback 42 \, wet 42 \, length 42 \, channel 0;
#X obj 253 431 r MODE;
#X obj 249 538 r MODE;
#X obj 110 878 cosine-pan~;
#X obj 489 823 r defaults;
#X msg 290 840 position 12 \, channel 1;
#X msg 489 844 position 0.5;
#X msg 290 820 position 42 \, channel 0;
#X obj 259 777 r MODE;
#X obj 194 -9 sel 2;
#X obj 580 8 sel 2;
#X obj 455 130 sel 2;
#X obj 252 278 sel 2;
#X obj 650 289 sel 2;
#X obj 253 454 sel 2;
#X obj 249 561 sel 2;
#X obj 259 686 sel 2;
#X obj 259 800 sel 2;
#X obj 585 858 sel 2;
#X obj 483 224 freeze-control track-2-freeze;
#X obj 281 341 metal-control track-2-metal;
#X obj 680 384 pitch-shifter-control track-2-pitch-shift;
#X obj 284 514 eq3-control track-2-eq;
#X obj 261 628 audio-delay-control track-2-delay;
#X obj 287 748 reverb-control track-2-reverb;
#X obj 290 861 cosine-pan-control track-2-pan;
#X obj 611 918 channel-out-control track-2-out;
#X msg 968 903 volume 0.5 \, mute 0 \, on-color 40 \, off-color 0;
#X msg 598 59 monitor 0 \, on-color 40 \, off-color 0;
#X msg 860 199 switch 0 \, blend 0 \, purity 0 \, phaselock 0 \, speed
0 \, on-color 40 \, off-color 0;
#X msg 440 321 toggle 0 \, on-color 40 \, off-color 0;
#X msg 1055 367 fine 0 \, coarse 1 \, width 0 \, on-color 40 \, off-color
0;
#X obj 825 38 inlet bank;
#X obj 901 33 r defaults;
#X msg 901 59 track-number 2;
#X msg 221 43 rec 0 \, play 4 \, stop 5 \, monitor 1 \, clear 12 \,
channel 2 \, track-number 2;
#X msg 226 21 rec 42 \, play 42 \, stop 42 \, monitor 42 \, clear 42
\, channel 0;
#X obj 221 75 looper-control track-2-looper;
#X obj 108 125 looper~;
#X connect 0 0 43 0;
#X connect 1 0 2 0;
#X connect 2 0 64 1;
#X connect 3 0 56 0;
#X connect 4 0 64 0;
#X connect 5 0 77 0;
#X connect 6 0 78 0;
#X connect 7 0 49 0;
#X connect 8 0 50 0;
#X connect 9 0 77 1;
#X connect 11 0 67 0;
#X connect 12 0 66 0;
#X connect 13 0 58 0;
#X connect 14 0 66 0;
#X connect 15 0 64 0;
#X connect 16 0 23 0;
#X connect 17 0 69 0;
#X connect 18 0 59 0;
#X connect 19 0 51 0;
#X connect 20 0 59 0;
#X connect 21 0 70 0;
#X connect 22 0 60 0;
#X connect 23 0 24 0;
#X connect 24 0 32 0;
#X connect 25 0 71 0;
#X connect 26 0 61 0;
#X connect 27 0 52 0;
#X connect 28 0 60 0;
#X connect 29 0 53 0;
#X connect 30 0 61 0;
#X connect 31 0 0 0;
#X connect 32 0 31 0;
#X connect 33 0 38 0;
#X connect 34 0 63 0;
#X connect 35 0 62 0;
#X connect 36 0 37 0;
#X connect 37 0 63 1;
#X connect 38 0 62 1;
#X connect 39 0 62 0;
#X connect 40 0 63 0;
#X connect 41 0 54 0;
#X connect 42 0 55 0;
#X connect 43 0 10 0;
#X connect 43 1 10 2;
#X connect 44 0 46 0;
#X connect 45 0 65 0;
#X connect 46 0 65 1;
#X connect 47 0 65 0;
#X connect 48 0 57 0;
#X connect 49 0 75 0;
#X connect 49 1 76 0;
#X connect 50 0 68 0;
#X connect 50 1 9 0;
#X connect 51 0 18 0;
#X connect 51 1 20 0;
#X connect 52 0 22 0;
#X connect 52 1 28 0;
#X connect 53 0 26 0;
#X connect 53 1 30 0;
#X connect 54 0 35 0;
#X connect 54 1 39 0;
#X connect 55 0 34 0;
#X connect 55 1 40 0;
#X connect 56 0 15 0;
#X connect 56 1 4 0;
#X connect 57 0 45 0;
#X connect 57 1 47 0;
#X connect 58 0 12 0;
#X connect 58 1 14 0;
#X connect 59 0 16 1;
#X connect 60 0 23 1;
#X connect 61 0 24 1;
#X connect 62 0 32 1;
#X connect 63 0 31 1;
#X connect 64 0 0 1;
#X connect 65 0 43 1;
#X connect 66 0 10 1;
#X connect 67 0 66 1;
#X connect 68 0 77 1;
#X connect 69 0 59 1;
#X connect 70 0 60 1;
#X connect 71 0 61 1;
#X connect 72 0 5 0;
#X connect 73 0 74 0;
#X connect 74 0 77 0;
#X connect 75 0 77 0;
#X connect 76 0 77 0;
#X connect 77 0 78 1;
#X connect 78 0 16 0;
#X coords 0 -1 1 1 140 900 1 100 100;
#X restore 728 182 pd track-2;
#X floatatom 529 168 5 0 0 0 - - -, f 5;
#X obj 364 29 adc~;
#X obj 371 52 s~ audio;
#X obj 58 327 bng 15 250 50 0 empty empty empty 17 7 0 10 -262144 -1
-1;
#X obj 999 30 hradio 30 1 0 2 empty empty empty 0 -8 0 10 -262144 -1
-1 1;
#X obj 999 66 + 1;
#X obj 58 288 loadbang-dsp;
#X connect 0 0 7 3;
#X connect 3 0 4 0;
#X connect 3 1 2 0;
#X connect 3 2 9 0;
#X connect 4 0 10 0;
#X connect 5 0 0 0;
#X connect 6 0 5 0;
#X connect 7 0 1 0;
#X connect 11 0 7 2;
#X connect 12 0 7 1;
#X connect 14 0 8 0;
#X connect 14 0 13 0;
#X connect 14 0 7 0;
#X connect 15 0 16 0;
#X connect 15 1 16 0;
#X connect 17 0 1 0;
#X connect 18 0 19 0;
#X connect 19 0 3 0;
#X connect 20 0 1 0;
