#N canvas 0 25 1440 847 10;
#X symbolatom 171 138 50 0 0 0 - - -, f 50;
#X msg 716 -2 1;
#X msg 842 -1 2;
#X obj 57 270 s defaults;
#X obj 94 133 r LOAD;
#X obj 149 116 r SAVE;
#X obj 777 120 s MODE;
#X obj 882 44 s SAVE;
#X obj 754 42 s SAVE;
#X obj 843 24 t b f b;
#X obj 715 19 t b f b;
#X obj 715 62 delay 10;
#X obj 715 84 s LOAD;
#X obj 844 64 delay 10;
#X obj 844 86 s LOAD;
#X msg 207 117 symbol /Users/andy/Desktop;
#X obj 207 96 loadbang;
#X obj 57 162 state-manager;
#N canvas 0 25 1385 833 track-1 0;
#X obj 109 763 reverb~;
#X obj 478 713 r defaults;
#X obj 287 748 reverb-control track-1-reverb;
#X msg 478 733 wet 0 \, size 0;
#X obj 259 686 sel 1;
#X obj 259 663 r MODE;
#X msg 285 706 wet 42 \, size 42 \, channel 0;
#X msg 221 43 rec 0 \, play 4 \, stop 5 \, monitor 1 \, clear 12 \,
channel 2 \, track-number 1;
#X msg 825 59 bank \$1;
#X obj 107 21 r~ audio;
#X obj 221 75 looper-control track-1-looper;
#X obj 108 125 looper~;
#X floatatom 825 39 5 0 0 0 - - -, f 5;
#X msg 226 21 rec 42 \, play 42 \, stop 42 \, monitor 42 \, clear 42
\, channel 0;
#X obj 194 -9 sel 1;
#X obj 194 -32 r MODE;
#X obj 580 8 sel 1;
#X obj 580 -15 r MODE;
#X msg 598 39 monitor 0 \, on-color 0 \, off-color 0;
#X obj 110 935 channel-out~;
#X msg 824 19 1;
#X obj 824 -1 loadbang;
#X msg 598 59 monitor 0 \, on-color 23 \, off-color 0;
#X obj 967 883 r defaults;
#X obj 611 918 channel-out-control track-1-out;
#X msg 611 897 volume 13 \, mute 13 \, encoder-channel 1 \, toggle-channel
2;
#X msg 968 903 volume 0.5 \, mute 0 \, on-color 23 \, off-color 0;
#X obj 585 867 sel 1;
#X obj 585 844 r MODE;
#X msg 611 877 volume 42 \, mute 42 \, encoder-channel 0 \, toggle-channel
0;
#X msg 287 725 wet 8 \, size 9 \, channel 1;
#X obj 108 242 freeze~;
#X obj 860 179 r defaults;
#X msg 860 199 switch 0 \, blend 0 \, purity 0 \, phaselock 0 \, speed
0 \, on-color 23 \, off-color 0;
#X obj 483 224 freeze-control track-1-freeze;
#X msg 483 187 blend 2 \, speed 3 \, purity 3 \, switch 3 \, encoder-channel
1 \, toggle-channel 2;
#X obj 455 130 sel 1;
#X obj 455 107 r MODE;
#X msg 483 155 blend 42 \, speed 42 \, purity 42 \, switch 42 \, encoder-channel
0 \, toggle-channel 0;
#X obj 440 301 r defaults;
#X obj 281 341 metal-control track-1-metal;
#X msg 281 320 toggle 9 \, channel 2;
#X obj 108 358 metal~;
#X obj 108 404 pitch-shifter~;
#X obj 680 384 pitch-shifter-control track-1-pitch-shift;
#X obj 1054 347 r defaults;
#X msg 440 321 toggle 0 \, on-color 23 \, off-color 0;
#X msg 1054 367 fine 0 \, coarse 1 \, width 0 \, on-color 23 \, off-color
0;
#X msg 680 342 fine 999 \, coarse 7 \, width 7 \, toggle 7 \, encoder-channel
1 \, toggle-channel 2;
#X obj 252 278 sel 1;
#X obj 252 255 r MODE;
#X msg 281 300 toggle 42 \, channel 0;
#X obj 650 289 sel 1;
#X obj 650 266 r MODE;
#X msg 680 312 fine 42 \, coarse 42 \, width 42 \, toggle 42 \, encoder-channel
0 \, toggle-channel 0;
#X obj 108 647 audio-delay~ 4000;
#X obj 108 531 eq3~;
#X obj 577 477 r defaults;
#X msg 260 607 feedback 5 \, wet 1 \, length 4 \, channel 1;
#X msg 284 494 low 10 \, mid 11 \, high 14 \, gain 15 \, channel 1
;
#X obj 284 514 eq3-control track-1-eq;
#X obj 260 628 audio-delay-control track-1-delay;
#X obj 538 591 r defaults;
#X msg 538 611 wet 0 \, length 0 \, feedback 0;
#X msg 577 497 low 0.5 \, mid 0.5 \, high 0.5 \, gain 0.5;
#X msg 284 474 low 42 \, mid 42 \, high 42 \, gain 42 \, channel 0
;
#X msg 260 587 feedback 42 \, wet 42 \, length 42 \, channel 0;
#X obj 253 454 sel 1;
#X obj 253 431 r MODE;
#X obj 249 561 sel 1;
#X obj 249 538 r MODE;
#X obj 110 878 cosine-pan~;
#X obj 489 823 r defaults;
#X obj 290 861 cosine-pan-control track-1-pan;
#X msg 290 840 position 12 \, channel 1;
#X msg 489 844 position 0.5;
#X msg 290 820 position 42 \, channel 0;
#X obj 259 800 sel 1;
#X obj 259 777 r MODE;
#X connect 0 0 71 0;
#X connect 1 0 3 0;
#X connect 2 0 0 1;
#X connect 3 0 2 1;
#X connect 4 0 30 0;
#X connect 4 1 6 0;
#X connect 5 0 4 0;
#X connect 6 0 2 0;
#X connect 7 0 10 0;
#X connect 8 0 10 0;
#X connect 9 0 11 0;
#X connect 10 0 11 1;
#X connect 11 0 31 0;
#X connect 12 0 8 0;
#X connect 13 0 10 0;
#X connect 14 0 7 0;
#X connect 14 1 13 0;
#X connect 15 0 14 0;
#X connect 16 0 22 0;
#X connect 16 1 18 0;
#X connect 17 0 16 0;
#X connect 18 0 10 1;
#X connect 20 0 12 0;
#X connect 21 0 20 0;
#X connect 22 0 10 1;
#X connect 23 0 26 0;
#X connect 24 0 19 1;
#X connect 25 0 24 0;
#X connect 26 0 24 1;
#X connect 27 0 25 0;
#X connect 27 1 29 0;
#X connect 28 0 27 0;
#X connect 29 0 24 0;
#X connect 30 0 2 0;
#X connect 31 0 42 0;
#X connect 32 0 33 0;
#X connect 33 0 34 1;
#X connect 34 0 31 1;
#X connect 35 0 34 0;
#X connect 36 0 35 0;
#X connect 36 1 38 0;
#X connect 37 0 36 0;
#X connect 38 0 34 0;
#X connect 39 0 46 0;
#X connect 40 0 42 1;
#X connect 41 0 40 0;
#X connect 42 0 43 0;
#X connect 43 0 56 0;
#X connect 44 0 43 1;
#X connect 45 0 47 0;
#X connect 46 0 40 1;
#X connect 47 0 44 1;
#X connect 48 0 44 0;
#X connect 49 0 41 0;
#X connect 49 1 51 0;
#X connect 50 0 49 0;
#X connect 51 0 40 0;
#X connect 52 0 48 0;
#X connect 52 1 54 0;
#X connect 53 0 52 0;
#X connect 54 0 44 0;
#X connect 55 0 0 0;
#X connect 56 0 55 0;
#X connect 57 0 64 0;
#X connect 58 0 61 0;
#X connect 59 0 60 0;
#X connect 60 0 56 1;
#X connect 61 0 55 1;
#X connect 62 0 63 0;
#X connect 63 0 61 1;
#X connect 64 0 60 1;
#X connect 65 0 60 0;
#X connect 66 0 61 0;
#X connect 67 0 59 0;
#X connect 67 1 65 0;
#X connect 68 0 67 0;
#X connect 69 0 58 0;
#X connect 69 1 66 0;
#X connect 70 0 69 0;
#X connect 71 0 19 0;
#X connect 71 1 19 2;
#X connect 72 0 75 0;
#X connect 73 0 71 1;
#X connect 74 0 73 0;
#X connect 75 0 73 1;
#X connect 76 0 73 0;
#X connect 77 0 74 0;
#X connect 77 1 76 0;
#X connect 78 0 77 0;
#X coords 0 -1 1 1 140 900 1 100 100;
#X restore 565 237 pd track-1;
#N canvas 252 33 961 629 track-2 0;
#X obj 109 298 reverb~;
#X obj 497 248 r defaults;
#X msg 497 268 wet 0 \, size 0;
#X obj 306 283 reverb-control track-2-reverb;
#X obj 279 220 sel 2;
#X obj 279 197 r MODE;
#X msg 306 241 wet 42 \, size 42 \, channel 0;
#X msg 839 100 bank \$1;
#X obj 111 62 r~ audio;
#X floatatom 839 80 5 0 0 0 - - -, f 5;
#X msg 226 60 rec 42 \, play 42 \, stop 42 \, monitor 42 \, clear 42
\, channel 0;
#X obj 198 9 r MODE;
#X obj 198 32 sel 2;
#X msg 225 84 rec 0 \, play 4 \, stop 5 \, monitor 1 \, clear 12 \,
channel 2 \, track-number 2;
#X msg 612 80 monitor 0 \, on-color 0 \, off-color 0;
#X obj 595 26 r MODE;
#X obj 110 433 channel-out~;
#X msg 839 60 1;
#X obj 839 40 loadbang;
#X obj 595 49 sel 2;
#X obj 112 140 looper~;
#X obj 225 116 looper-control track-2-looper;
#X msg 612 100 monitor 0 \, on-color 99 \, off-color 0;
#X obj 672 377 r defaults;
#X msg 316 391 volume 13 \, mute 13 \, encoder-channel 1 \, toggle-channel
2;
#X msg 673 397 volume 0.5 \, mute 0 \, on-color 23 \, off-color 0;
#X obj 290 328 r MODE;
#X msg 316 371 volume 42 \, mute 42 \, encoder-channel 0 \, toggle-channel
0;
#X obj 290 351 sel 2;
#X obj 316 412 channel-out-control track-2-out;
#X msg 306 260 wet 8 \, size 9 \, channel 1;
#X connect 0 0 16 0;
#X connect 0 0 16 2;
#X connect 1 0 2 0;
#X connect 2 0 3 1;
#X connect 3 0 0 1;
#X connect 4 0 30 0;
#X connect 4 1 6 0;
#X connect 5 0 4 0;
#X connect 6 0 3 0;
#X connect 7 0 21 0;
#X connect 8 0 20 0;
#X connect 9 0 7 0;
#X connect 10 0 21 0;
#X connect 11 0 12 0;
#X connect 12 0 13 0;
#X connect 12 1 10 0;
#X connect 13 0 21 0;
#X connect 14 0 21 1;
#X connect 15 0 19 0;
#X connect 17 0 9 0;
#X connect 18 0 17 0;
#X connect 19 0 22 0;
#X connect 19 1 14 0;
#X connect 20 0 0 0;
#X connect 21 0 20 1;
#X connect 22 0 21 1;
#X connect 23 0 25 0;
#X connect 24 0 29 0;
#X connect 25 0 29 1;
#X connect 26 0 28 0;
#X connect 27 0 29 0;
#X connect 28 0 24 0;
#X connect 28 1 27 0;
#X connect 29 0 16 1;
#X connect 30 0 3 0;
#X coords 0 -1 1 1 140 400 1 100 100;
#X restore 838 232 pd track-2;
#X connect 0 0 17 3;
#X connect 1 0 10 0;
#X connect 2 0 9 0;
#X connect 4 0 17 1;
#X connect 5 0 17 2;
#X connect 9 0 13 0;
#X connect 9 1 6 0;
#X connect 9 2 7 0;
#X connect 10 0 11 0;
#X connect 10 1 6 0;
#X connect 10 2 8 0;
#X connect 11 0 12 0;
#X connect 13 0 14 0;
#X connect 15 0 0 0;
#X connect 16 0 15 0;
#X connect 17 0 3 0;
