#N canvas 0 28 1440 847 10;
#X symbolatom 171 158 50 0 0 0 - - -, f 50;
#X obj 58 307 s defaults;
#X obj 1193 124 s MODE;
#X obj 1173 87 t b f b;
#X obj 1173 145 delay 10;
#X msg 171 136 symbol /Users/andy/Desktop;
#X obj 171 115 loadbang;
#X obj 57 182 state-manager;
#X obj 1212 106 s SAVE-MODES;
#X obj 1173 167 s LOAD-MODES;
#X obj 132 89 r SAVE-MODES;
#X obj 94 68 r LOAD-MODES;
#X floatatom 529 168 5 0 0 0 - - -, f 5;
#X obj 364 29 adc~;
#X obj 371 52 s~ audio;
#X obj 58 327 bng 15 250 50 0 empty empty empty 17 7 0 10 -262144 -1
-1;
#X obj 1173 24 hradio 30 1 0 3 empty empty empty 0 -8 0 10 -262144
-1 -1 2;
#X obj 1173 60 + 1;
#X obj 58 288 loadbang-dsp;
#X obj 589 181 fx-track~ 1 10;
#X obj 755 181 fx-track~ 2 40;
#X obj 919 181 fx-track~ 3 60;
#X connect 0 0 7 3;
#X connect 3 0 4 0;
#X connect 3 1 2 0;
#X connect 3 2 8 0;
#X connect 4 0 9 0;
#X connect 5 0 0 0;
#X connect 6 0 5 0;
#X connect 7 0 1 0;
#X connect 10 0 7 2;
#X connect 11 0 7 1;
#X connect 12 0 7 0;
#X connect 12 0 19 0;
#X connect 12 0 20 0;
#X connect 12 0 21 0;
#X connect 13 0 14 0;
#X connect 13 1 14 0;
#X connect 15 0 1 0;
#X connect 16 0 17 0;
#X connect 17 0 3 0;
#X connect 18 0 1 0;
