#N canvas 36 25 1316 997 12;
#X declare -lib zexy;
#X obj 1118 102 channel-out~;
#X obj 38 220 loop-player~;
#X obj 42 20 loadbang-dsp;
#X obj 517 19 midi-observer;
#X obj 116 197 midi-key 48 1;
#X obj 38 152 loadbang;
#X msg 38 174 1;
#X obj 371 12 declare -lib zexy;
#X obj 38 197 l2s;
#X obj 38 286 throw~ \$0-main;
#X obj 1117 27 catch~ \$0-main;
#X msg 1174 79 volume 0.75;
#X obj 1173 53 loadbang;
#X obj 228 220 loop-player~;
#X obj 228 152 loadbang;
#X obj 228 197 l2s;
#X obj 228 286 throw~ \$0-main;
#X obj 418 220 loop-player~;
#X obj 418 152 loadbang;
#X obj 418 197 l2s;
#X obj 418 286 throw~ \$0-main;
#X obj 608 220 loop-player~;
#X obj 608 152 loadbang;
#X obj 608 197 l2s;
#X obj 608 286 throw~ \$0-main;
#X obj 798 220 loop-player~;
#X obj 798 152 loadbang;
#X obj 798 197 l2s;
#X obj 798 286 throw~ \$0-main;
#X obj 38 390 loop-player~;
#X obj 38 322 loadbang;
#X obj 38 367 l2s;
#X obj 38 456 throw~ \$0-main;
#X obj 228 390 loop-player~;
#X obj 228 322 loadbang;
#X obj 228 367 l2s;
#X obj 228 456 throw~ \$0-main;
#X obj 418 390 loop-player~;
#X obj 418 322 loadbang;
#X obj 418 367 l2s;
#X obj 418 456 throw~ \$0-main;
#X obj 608 390 loop-player~;
#X obj 608 322 loadbang;
#X obj 608 367 l2s;
#X obj 608 456 throw~ \$0-main;
#X obj 798 390 loop-player~;
#X obj 798 322 loadbang;
#X obj 798 367 l2s;
#X obj 798 456 throw~ \$0-main;
#X obj 38 565 loop-player~;
#X obj 38 497 loadbang;
#X obj 38 542 l2s;
#X obj 38 631 throw~ \$0-main;
#X obj 228 565 loop-player~;
#X obj 228 497 loadbang;
#X obj 228 542 l2s;
#X obj 228 631 throw~ \$0-main;
#X obj 418 565 loop-player~;
#X obj 418 497 loadbang;
#X obj 418 542 l2s;
#X obj 418 631 throw~ \$0-main;
#X obj 608 565 loop-player~;
#X obj 608 497 loadbang;
#X obj 608 542 l2s;
#X obj 608 631 throw~ \$0-main;
#X obj 798 565 loop-player~;
#X obj 798 497 loadbang;
#X obj 798 542 l2s;
#X obj 798 631 throw~ \$0-main;
#X obj 38 735 loop-player~;
#X obj 38 667 loadbang;
#X obj 38 712 l2s;
#X obj 38 801 throw~ \$0-main;
#X obj 228 735 loop-player~;
#X obj 228 667 loadbang;
#X obj 228 712 l2s;
#X obj 228 801 throw~ \$0-main;
#X obj 418 735 loop-player~;
#X obj 418 667 loadbang;
#X obj 418 712 l2s;
#X obj 418 801 throw~ \$0-main;
#X obj 608 735 loop-player~;
#X obj 608 667 loadbang;
#X obj 608 712 l2s;
#X obj 608 801 throw~ \$0-main;
#X obj 798 735 loop-player~;
#X obj 798 667 loadbang;
#X obj 798 712 l2s;
#X obj 798 801 throw~ \$0-main;
#X obj 38 915 loop-player~;
#X obj 38 847 loadbang;
#X obj 38 892 l2s;
#X obj 38 981 throw~ \$0-main;
#X obj 228 915 loop-player~;
#X obj 228 847 loadbang;
#X obj 228 892 l2s;
#X obj 228 981 throw~ \$0-main;
#X obj 418 915 loop-player~;
#X obj 418 847 loadbang;
#X obj 418 892 l2s;
#X obj 418 981 throw~ \$0-main;
#X obj 608 915 loop-player~;
#X obj 608 847 loadbang;
#X obj 608 892 l2s;
#X obj 608 981 throw~ \$0-main;
#X obj 798 915 loop-player~;
#X obj 798 847 loadbang;
#X obj 798 892 l2s;
#X obj 798 981 throw~ \$0-main;
#X obj 306 197 midi-key 49 1;
#X obj 496 197 midi-key 50 1;
#X obj 686 197 midi-key 51 1;
#X obj 876 197 midi-key 52 1;
#X obj 116 367 midi-key 53 1;
#X obj 306 367 midi-key 54 1;
#X obj 496 367 midi-key 55 1;
#X obj 686 367 midi-key 56 1;
#X obj 876 367 midi-key 57 1;
#X obj 116 542 midi-key 58 1;
#X obj 306 542 midi-key 59 1;
#X obj 496 542 midi-key 60 1;
#X obj 686 542 midi-key 61 1;
#X obj 876 542 midi-key 62 1;
#X obj 116 712 midi-key 63 1;
#X obj 306 712 midi-key 64 1;
#X obj 496 712 midi-key 65 1;
#X obj 686 712 midi-key 66 1;
#X obj 876 712 midi-key 67 1;
#X obj 116 892 midi-key 68 1;
#X obj 306 892 midi-key 69 1;
#X obj 496 892 midi-key 70 1;
#X obj 686 892 midi-key 71 1;
#X obj 876 892 midi-key 72 1;
#X msg 228 174 2;
#X msg 418 174 3;
#X msg 608 174 4;
#X msg 798 174 5;
#X msg 38 344 6;
#X msg 228 344 7;
#X msg 418 344 8;
#X msg 608 344 9;
#X msg 798 344 10;
#X msg 38 519 11;
#X msg 228 519 12;
#X msg 418 519 13;
#X msg 608 519 14;
#X msg 798 519 15;
#X msg 38 689 16;
#X msg 228 689 17;
#X msg 418 689 18;
#X msg 608 689 19;
#X msg 798 689 20;
#X msg 38 869 21;
#X msg 228 869 22;
#X msg 418 869 23;
#X msg 608 869 24;
#X msg 798 869 25;
#X connect 1 0 9 0;
#X connect 4 0 1 1;
#X connect 5 0 6 0;
#X connect 6 0 8 0;
#X connect 8 0 1 0;
#X connect 10 0 0 0;
#X connect 10 0 0 2;
#X connect 11 0 0 1;
#X connect 12 0 11 0;
#X connect 13 0 16 0;
#X connect 14 0 133 0;
#X connect 15 0 13 0;
#X connect 17 0 20 0;
#X connect 18 0 134 0;
#X connect 19 0 17 0;
#X connect 21 0 24 0;
#X connect 22 0 135 0;
#X connect 23 0 21 0;
#X connect 25 0 28 0;
#X connect 26 0 136 0;
#X connect 27 0 25 0;
#X connect 29 0 32 0;
#X connect 30 0 137 0;
#X connect 31 0 29 0;
#X connect 33 0 36 0;
#X connect 34 0 138 0;
#X connect 35 0 33 0;
#X connect 37 0 40 0;
#X connect 38 0 139 0;
#X connect 39 0 37 0;
#X connect 41 0 44 0;
#X connect 42 0 140 0;
#X connect 43 0 41 0;
#X connect 45 0 48 0;
#X connect 46 0 141 0;
#X connect 47 0 45 0;
#X connect 49 0 52 0;
#X connect 50 0 142 0;
#X connect 51 0 49 0;
#X connect 53 0 56 0;
#X connect 54 0 143 0;
#X connect 55 0 53 0;
#X connect 57 0 60 0;
#X connect 58 0 144 0;
#X connect 59 0 57 0;
#X connect 61 0 64 0;
#X connect 62 0 145 0;
#X connect 63 0 61 0;
#X connect 65 0 68 0;
#X connect 66 0 146 0;
#X connect 67 0 65 0;
#X connect 69 0 72 0;
#X connect 70 0 147 0;
#X connect 71 0 69 0;
#X connect 73 0 76 0;
#X connect 74 0 148 0;
#X connect 75 0 73 0;
#X connect 77 0 80 0;
#X connect 78 0 149 0;
#X connect 79 0 77 0;
#X connect 81 0 84 0;
#X connect 82 0 150 0;
#X connect 83 0 81 0;
#X connect 85 0 88 0;
#X connect 86 0 151 0;
#X connect 87 0 85 0;
#X connect 89 0 92 0;
#X connect 90 0 152 0;
#X connect 91 0 89 0;
#X connect 93 0 96 0;
#X connect 94 0 153 0;
#X connect 95 0 93 0;
#X connect 97 0 100 0;
#X connect 98 0 154 0;
#X connect 99 0 97 0;
#X connect 101 0 104 0;
#X connect 102 0 155 0;
#X connect 103 0 101 0;
#X connect 105 0 108 0;
#X connect 106 0 156 0;
#X connect 107 0 105 0;
#X connect 109 0 13 1;
#X connect 110 0 17 1;
#X connect 111 0 21 1;
#X connect 112 0 25 1;
#X connect 113 0 29 1;
#X connect 114 0 33 1;
#X connect 115 0 37 1;
#X connect 116 0 41 1;
#X connect 117 0 45 1;
#X connect 118 0 49 1;
#X connect 119 0 53 1;
#X connect 120 0 57 1;
#X connect 121 0 61 1;
#X connect 122 0 65 1;
#X connect 123 0 69 1;
#X connect 124 0 73 1;
#X connect 125 0 77 1;
#X connect 126 0 81 1;
#X connect 127 0 85 1;
#X connect 128 0 89 1;
#X connect 129 0 93 1;
#X connect 130 0 97 1;
#X connect 131 0 101 1;
#X connect 132 0 105 1;
#X connect 133 0 15 0;
#X connect 134 0 19 0;
#X connect 135 0 23 0;
#X connect 136 0 27 0;
#X connect 137 0 31 0;
#X connect 138 0 35 0;
#X connect 139 0 39 0;
#X connect 140 0 43 0;
#X connect 141 0 47 0;
#X connect 142 0 51 0;
#X connect 143 0 55 0;
#X connect 144 0 59 0;
#X connect 145 0 63 0;
#X connect 146 0 67 0;
#X connect 147 0 71 0;
#X connect 148 0 75 0;
#X connect 149 0 79 0;
#X connect 150 0 83 0;
#X connect 151 0 87 0;
#X connect 152 0 91 0;
#X connect 153 0 95 0;
#X connect 154 0 99 0;
#X connect 155 0 103 0;
#X connect 156 0 107 0;
