#N canvas 438 25 1218 997 12;
#X obj 28 74 looper~;
#X obj 660 -12 midi-observer;
#X obj 17 27 adc~;
#X obj 28 905 channel-out~;
#X obj 660 -41 loadbang-dsp;
#X obj 28 488 eq3~;
#X obj 28 604 audio-delay~ 3000;
#X obj 28 724 reverb~;
#X obj 28 314 pitch-shifter~;
#X obj 28 440 metal~;
#X obj 28 194 freeze~;
#N canvas 0 25 1680 997 delay-assignments 0;
#X obj 59 172 outlet;
#X obj 117 18 nano-memory-encoder wet 0 48 64;
#X obj 119 45 nano-memory-encoder length 16 32 64;
#X obj 121 71 nano-memory-encoder feedback 17 33 65;
#X connect 1 0 0 0;
#X connect 2 0 0 0;
#X connect 3 0 0 0;
#X restore 171 585 pd delay-assignments;
#N canvas 545 418 539 446 pitch-assignments 0;
#X obj 67 36 nano-memory-encoder coarse 2 50 66;
#X obj 67 64 nano-memory-encoder width 3 51 67;
#X obj 33 147 outlet;
#X connect 0 0 2 0;
#X connect 1 0 2 0;
#X restore 171 295 pd pitch-assignments;
#N canvas 574 175 791 568 freeze-assignments 0;
#X obj 429 97 sel 0;
#X msg 461 125 switch 0;
#X msg 462 151 switch 1;
#X obj 166 66 nano-memory-encoder blend 18 34 66;
#X obj 166 94 nano-memory-encoder speed 19 35 67;
#X obj 429 69 route switch;
#X obj 85 239 outlet;
#X obj 429 41 nano-memory-encoder switch 5 53 69;
#X connect 0 0 2 0;
#X connect 0 1 1 0;
#X connect 1 0 6 0;
#X connect 2 0 6 0;
#X connect 3 0 6 0;
#X connect 4 0 6 0;
#X connect 5 0 0 0;
#X connect 7 0 5 0;
#X restore 160 175 pd freeze-assignments;
#N canvas 529 386 781 498 looper-assignments 0;
#X obj 37 72 sel 127;
#X obj 38 96 tgl 19 0 empty empty empty 0 -10 0 12 #fcfcfc #000000 #000000 0 1;
#X msg 38 172 monitor \$1;
#X obj 128 71 sel 127;
#X obj 129 95 tgl 19 0 empty empty empty 0 -10 0 12 #fcfcfc #000000 #000000 0 1;
#X obj 128 46 ctlin 45 1;
#X msg 129 171 rec \$1;
#X obj 222 47 ctlin 42 1;
#X obj 223 96 bng 19 250 50 0 empty empty empty 0 -10 0 12 #fcfcfc #000000 #000000;
#X obj 310 96 bng 19 250 50 0 empty empty empty 0 -10 0 12 #fcfcfc #000000 #000000;
#X obj 309 47 ctlin 41 1;
#X obj 202 133 nano-led 42;
#X obj 290 132 nano-led 41;
#X obj 107 132 nano-led 45;
#X obj 221 71 sel 127;
#X obj 312 70 sel 127;
#X obj 403 96 bng 19 250 50 0 empty empty empty 0 -10 0 12 #fcfcfc #000000 #000000;
#X obj 490 96 bng 19 250 50 0 empty empty empty 0 -10 0 12 #fcfcfc #000000 #000000;
#X obj 401 71 sel 127;
#X obj 492 70 sel 127;
#X obj 403 170 s SAVE;
#X msg 310 172 play \$1;
#X msg 223 172 stop \$1;
#X msg 490 172 clear \$1;
#X obj 489 47 ctlin 43 1;
#X obj 470 132 nano-led 43;
#X obj 402 47 ctlin 46 1;
#X obj 382 133 nano-led 46;
#X obj 37 47 ctlin 44 1;
#X obj 17 132 nano-led 44;
#X obj 305 321 outlet;
#X connect 0 0 1 0;
#X connect 1 0 2 0;
#X connect 1 0 29 0;
#X connect 2 0 30 0;
#X connect 3 0 4 0;
#X connect 4 0 6 0;
#X connect 4 0 13 0;
#X connect 5 0 3 0;
#X connect 6 0 30 0;
#X connect 7 0 11 0;
#X connect 7 0 14 0;
#X connect 8 0 22 0;
#X connect 9 0 21 0;
#X connect 10 0 12 0;
#X connect 10 0 15 0;
#X connect 14 0 8 0;
#X connect 15 0 9 0;
#X connect 16 0 20 0;
#X connect 17 0 23 0;
#X connect 18 0 16 0;
#X connect 19 0 17 0;
#X connect 21 0 30 0;
#X connect 22 0 30 0;
#X connect 23 0 30 0;
#X connect 24 0 19 0;
#X connect 24 0 25 0;
#X connect 26 0 18 0;
#X connect 26 0 27 0;
#X connect 28 0 0 0;
#X restore 161 56 pd looper-assignments;
#N canvas 150 175 450 300 reverb-assignments 0;
#X obj 95 57 nano-memory-encoder wet 0 48 64;
#X obj 95 85 nano-memory-encoder size 1 49 65;
#X obj 24 185 outlet;
#X connect 0 0 2 0;
#X connect 1 0 2 0;
#X restore 181 709 pd reverb-assignments;
#N canvas 482 163 450 300 metal-assignment 0;
#X obj 50 72 sel 0;
#X obj 50 44 route toggle;
#X msg 82 100 toggle 1;
#X msg 83 126 toggle 0;
#X obj 17 190 outlet;
#X obj 50 17 nano-memory-encoder toggle 4 52 68;
#X connect 0 0 3 0;
#X connect 0 1 2 0;
#X connect 1 0 0 0;
#X connect 2 0 4 0;
#X connect 3 0 4 0;
#X connect 5 0 1 0;
#X restore 166 422 pd metal-assignment;
#N canvas 208 233 450 300 eq3-assignments 0;
#X obj 30 183 outlet;
#X obj 95 56 nano-memory-encoder low 20 36 68;
#X obj 95 85 nano-memory-encoder mid 21 37 69;
#X obj 95 116 nano-memory-encoder high 22 38 70;
#X obj 95 145 nano-memory-encoder gain 6 54 70;
#X connect 1 0 0 0;
#X connect 2 0 0 0;
#X connect 3 0 0 0;
#X connect 4 0 0 0;
#X restore 172 470 pd eq3-assignments;
#X obj 28 846 cosine-pan~;
#N canvas 237 262 450 300 pan-assignment 0;
#X obj 70 47 nano-memory-encoder position 23 39 71;
#X obj 10 99 outlet;
#X connect 0 0 1 0;
#X restore 159 828 pd pan-assignment;
#N canvas 266 291 450 300 volume-assignment 0;
#X obj 68 28 nano-memory-encoder volume 7 55 71;
#X obj 31 84 outlet;
#X connect 0 0 1 0;
#X restore 161 886 pd volume-assignment;
#N canvas 471 160 940 688 navigation 0;
#X msg 248 85 1;
#X msg 327 82 -1;
#X obj 294 125 +;
#X obj 359 131 int;
#X floatatom 355 179 5 0 0 0 - - - 0;
#X obj 288 242 outlet;
#X floatatom 116 317 5 0 0 0 - - - 0;
#X obj 116 235 bng 15 250 50 0 empty empty empty 17 7 0 10 #fcfcfc #000000 #000000;
#X obj 152 271 + 1;
#X obj 116 270 int;
#X obj 173 391 file-exists;
#X obj 38 235 loadbang;
#X obj 173 414 sel 0;
#X msg 38 255 1;
#X obj 31 367 s \$0-initial-bank;
#X obj 359 108 r \$0-initial-bank;
#X obj 200 440 delay 100;
#X obj 106 121 bng 15 250 50 0 empty empty + 17 7 0 10 #fcfcfc #000000 #000000;
#X obj 146 121 bng 15 250 50 0 empty empty - 17 7 0 10 #fcfcfc #000000 #000000;
#X floatatom 106 141 5 0 0 0 - - - 0;
#X obj 365 212 sel 0;
#X msg 473 163 1;
#X msg 437 164 100;
#X obj 425 213 sel 101;
#X obj 425 236 delay 100;
#X obj 365 236 delay 100;
#X msg 173 367 ../audio/\$1.wav;
#X obj 248 39 midi-button 59 1;
#X obj 327 59 midi-button 58 1;
#X connect 0 0 2 0;
#X connect 1 0 2 0;
#X connect 2 0 3 0;
#X connect 3 0 2 1;
#X connect 3 0 4 0;
#X connect 4 0 5 0;
#X connect 4 0 19 0;
#X connect 4 0 20 0;
#X connect 4 0 23 0;
#X connect 6 0 26 0;
#X connect 6 0 14 0;
#X connect 7 0 9 0;
#X connect 8 0 9 1;
#X connect 9 0 6 0;
#X connect 9 0 8 0;
#X connect 10 0 12 0;
#X connect 11 0 13 0;
#X connect 12 1 16 0;
#X connect 13 0 9 0;
#X connect 15 0 3 0;
#X connect 16 0 7 0;
#X connect 17 0 0 0;
#X connect 18 0 1 0;
#X connect 20 0 25 0;
#X connect 21 0 3 0;
#X connect 22 0 3 0;
#X connect 23 0 24 0;
#X connect 24 0 21 0;
#X connect 25 0 22 0;
#X connect 26 0 10 0;
#X connect 27 0 0 0;
#X connect 28 0 1 0;
#X coords 0 -1 1 1 85 65 1 100 100;
#X restore 141 -42 pd navigation;
#X msg 141 31 track-number \$1;
#X connect 0 0 10 0;
#X connect 2 0 0 0;
#X connect 2 1 0 0;
#X connect 5 0 6 0;
#X connect 5 1 6 0;
#X connect 6 0 7 0;
#X connect 7 0 18 0;
#X connect 8 0 9 0;
#X connect 9 0 5 0;
#X connect 9 0 5 2;
#X connect 10 0 8 0;
#X connect 11 0 6 1;
#X connect 12 0 8 1;
#X connect 13 0 10 1;
#X connect 14 0 0 1;
#X connect 15 0 7 1;
#X connect 16 0 9 1;
#X connect 17 0 5 1;
#X connect 18 0 3 0;
#X connect 18 1 3 2;
#X connect 19 0 18 1;
#X connect 20 0 3 1;
#X connect 21 0 22 0;
#X connect 22 0 0 1;
