#N canvas 302 25 1316 997 12;
#X declare -lib zexy;
#X obj 1115 382 channel-out~;
#X obj 42 20 loadbang-dsp;
#X obj 517 19 midi-observer;
#X obj 116 197 midi-key 48 1;
#X obj 371 12 declare -lib zexy;
#X obj 38 286 throw~ \$0-main;
#X obj 1107 101 catch~ \$0-main;
#X msg 1171 359 volume 0.75;
#X obj 1170 333 loadbang;
#X obj 228 286 throw~ \$0-main;
#X obj 418 286 throw~ \$0-main;
#X obj 608 286 throw~ \$0-main;
#X obj 798 286 throw~ \$0-main;
#X obj 38 456 throw~ \$0-main;
#X obj 228 456 throw~ \$0-main;
#X obj 418 456 throw~ \$0-main;
#X obj 608 456 throw~ \$0-main;
#X obj 798 456 throw~ \$0-main;
#X obj 38 631 throw~ \$0-main;
#X obj 228 631 throw~ \$0-main;
#X obj 418 631 throw~ \$0-main;
#X obj 608 631 throw~ \$0-main;
#X obj 798 631 throw~ \$0-main;
#X obj 38 801 throw~ \$0-main;
#X obj 228 801 throw~ \$0-main;
#X obj 418 801 throw~ \$0-main;
#X obj 608 801 throw~ \$0-main;
#X obj 798 801 throw~ \$0-main;
#X obj 38 981 throw~ \$0-main;
#X obj 228 981 throw~ \$0-main;
#X obj 418 981 throw~ \$0-main;
#X obj 608 981 throw~ \$0-main;
#X obj 798 981 throw~ \$0-main;
#X obj 309 197 midi-key 49 1;
#X obj 499 197 midi-key 50 1;
#X obj 689 197 midi-key 51 1;
#X obj 878 197 midi-key 52 1;
#X obj 118 367 midi-key 53 1;
#X obj 308 367 midi-key 54 1;
#X obj 498 367 midi-key 55 1;
#X obj 688 367 midi-key 56 1;
#X obj 884 367 midi-key 57 1;
#X obj 124 541 midi-key 58 1;
#X obj 314 542 midi-key 59 1;
#X obj 505 542 midi-key 60 1;
#X obj 694 542 midi-key 61 1;
#X obj 884 542 midi-key 62 1;
#X obj 125 710 midi-key 63 1;
#X obj 315 710 midi-key 64 1;
#X obj 505 710 midi-key 65 1;
#X obj 695 710 midi-key 66 1;
#X obj 885 710 midi-key 67 1;
#X obj 125 891 midi-key 68 1;
#X obj 315 891 midi-key 69 1;
#X obj 505 891 midi-key 70 1;
#X obj 695 891 midi-key 71 1;
#X obj 885 891 midi-key 72 1;
#X obj 1107 147 looper~;
#X msg 1220 122 monitor 1;
#X obj 1220 98 loadbang;
#X obj 1208 37 midi-button 1 1;
#X obj 1046 76 midi-toggle 64 1;
#X msg 1208 60 clear 1;
#X msg 1046 128 rec \$1;
#X obj 38 220 loop-player~ 1;
#X obj 228 220 loop-player~ 2;
#X obj 418 220 loop-player~ 3;
#X obj 608 220 loop-player~ 4;
#X obj 798 220 loop-player~ 5;
#X obj 38 390 loop-player~ 6;
#X obj 228 390 loop-player~ 7;
#X obj 418 390 loop-player~ 8;
#X obj 608 390 loop-player~ 9;
#X obj 798 390 loop-player~ 10;
#X obj 38 565 loop-player~ 11;
#X obj 228 565 loop-player~ 12;
#X obj 418 565 loop-player~ 13;
#X obj 608 565 loop-player~ 14;
#X obj 798 565 loop-player~ 15;
#X obj 38 735 loop-player~ 16;
#X obj 228 735 loop-player~ 17;
#X obj 418 735 loop-player~ 18;
#X obj 608 735 loop-player~ 19;
#X obj 798 735 loop-player~ 20;
#X obj 38 915 loop-player~ 21;
#X obj 228 915 loop-player~ 22;
#X obj 418 915 loop-player~ 23;
#X obj 608 915 loop-player~ 24;
#X obj 798 914 loop-player~ 25;
#X connect 3 0 64 1;
#X connect 6 0 57 0;
#X connect 7 0 0 1;
#X connect 8 0 7 0;
#X connect 33 0 65 1;
#X connect 34 0 66 1;
#X connect 35 0 67 1;
#X connect 36 0 68 1;
#X connect 37 0 69 1;
#X connect 38 0 70 1;
#X connect 39 0 71 1;
#X connect 40 0 72 1;
#X connect 41 0 73 1;
#X connect 42 0 74 1;
#X connect 43 0 75 1;
#X connect 44 0 76 1;
#X connect 45 0 77 1;
#X connect 46 0 78 1;
#X connect 47 0 79 1;
#X connect 48 0 80 1;
#X connect 49 0 81 1;
#X connect 50 0 82 1;
#X connect 51 0 83 1;
#X connect 52 0 84 1;
#X connect 53 0 85 1;
#X connect 54 0 86 1;
#X connect 55 0 87 1;
#X connect 56 0 88 1;
#X connect 57 0 0 0;
#X connect 57 0 0 2;
#X connect 58 0 57 1;
#X connect 59 0 58 0;
#X connect 60 0 62 0;
#X connect 61 0 63 0;
#X connect 62 0 57 1;
#X connect 63 0 57 1;
#X connect 64 0 5 0;
#X connect 65 0 9 0;
#X connect 66 0 10 0;
#X connect 67 0 11 0;
#X connect 68 0 12 0;
#X connect 69 0 13 0;
#X connect 70 0 14 0;
#X connect 71 0 15 0;
#X connect 72 0 16 0;
#X connect 73 0 17 0;
#X connect 74 0 18 0;
#X connect 75 0 19 0;
#X connect 76 0 20 0;
#X connect 77 0 21 0;
#X connect 78 0 22 0;
#X connect 79 0 23 0;
#X connect 80 0 24 0;
#X connect 81 0 25 0;
#X connect 82 0 26 0;
#X connect 83 0 27 0;
#X connect 84 0 28 0;
#X connect 85 0 29 0;
#X connect 86 0 30 0;
#X connect 87 0 31 0;
#X connect 88 0 32 0;
