#N canvas 1122 217 1149 774 10;
#X declare -stdpath zexy -stdlib zexy;
#X obj 209 400 ctlin 58 2;
#X obj 275 400 ctlin 58 1;
#X obj 341 400 ctlin 59 1;
#X obj 80 234 cosine-pan~;
#X obj 193 217 ctlin 60 1;
#X obj 212 282 ctlin 48 1;
#X obj 278 282 ctlin 49 1;
#X obj 344 282 ctlin 50 1;
#X obj 80 298 stereo-delay~;
#X obj 80 417 stereo-reverb~;
#X obj 80 537 channel-out~;
#X obj 210 522 ctlin 61 1;
#X obj 554 25 midi-observer;
#X obj 80 71 sample-grid~ 48;
#X obj 7 6 declare -stdpath zexy -stdlib zexy;
#X connect 0 0 9 1;
#X connect 1 0 9 2;
#X connect 2 0 9 3;
#X connect 3 0 8 0;
#X connect 3 1 8 5;
#X connect 4 0 3 1;
#X connect 5 0 8 1;
#X connect 6 0 8 2;
#X connect 7 0 8 3;
#X connect 8 0 9 0;
#X connect 8 1 9 4;
#X connect 9 0 10 0;
#X connect 9 1 10 2;
#X connect 11 0 10 2;
#X connect 13 0 3 0;
