#N canvas 580 99 721 693 10;
#X msg 265 392 start -1;
#X obj 374 412 metro;
#X msg 374 436 tick;
#X obj 374 389 tgl 15 0 empty empty empty 17 7 0 10 -228856 -1 -1 1
1;
#X obj 374 345 loadbang;
#X obj 426 446 nbx 7 14 -1e+37 1e+37 0 0 empty empty empty 0 -8 0 10
-228856 -1 -1 20.0556 256;
#X text 501 439 tick time in ms, f 9;
#X obj 375 538 cyclone/seq;
#X obj 223 417 midiin;
#X msg 160 419 record;
#X obj 18 -41 tap-tempo;
#X obj 18 27 s TEMPO;
#X obj 19 109 r TEMPO;
#X obj 19 129 metronome;
#X obj 19 195 channel-out~;
#X floatatom 109 29 5 0 0 0 - - -, f 5;
#X text 138 32 quarter note in ms;
#X msg 161 446 stop;
#X obj 375 571 midiout;
#X msg 471 689 0 123 1;
#X obj 471 714 ctlout;
#X text 468 670 midi panic;
#X obj 258 221 tgl 15 0 empty empty empty 17 7 0 10 -262144 -1 -1 0
1;
#X obj 258 242 sel 1;
#X obj 287 266 t b b;
#X obj 426 419 expr 60000 / ($f1 * 24);
#X obj 96 58 expr 60000 / $f1;
#X floatatom 134 83 5 0 0 0 - - -, f 5;
#X obj 439 562 bng 15 250 50 0 empty empty empty 17 7 0 10 -262144
-1 -1;
#X obj 96 105 s BPM;
#X obj 426 394 r BPM;
#X text 279 221 rec;
#X msg 431 507 write /Users/andy/Desktop/seq.mid;
#X msg 430 488 read /Users/andy/Desktop/seq.mid;
#X obj 580 -36 midi-thru;
#X obj 319 311 cyclone/midiformat;
#X msg 319 291 0 0;
#X obj 440 585 t b b;
#X connect 0 0 7 0;
#X connect 1 0 2 0;
#X connect 2 0 7 0;
#X connect 3 0 1 0;
#X connect 4 0 3 0;
#X connect 7 0 18 0;
#X connect 7 1 28 0;
#X connect 8 0 7 0;
#X connect 9 0 7 0;
#X connect 10 0 11 0;
#X connect 10 1 15 0;
#X connect 10 1 26 0;
#X connect 12 0 13 0;
#X connect 13 0 14 0;
#X connect 13 0 14 2;
#X connect 17 0 7 0;
#X connect 17 0 19 0;
#X connect 19 0 20 0;
#X connect 22 0 23 0;
#X connect 23 0 9 0;
#X connect 23 1 24 0;
#X connect 24 0 0 0;
#X connect 24 1 36 0;
#X connect 25 0 5 0;
#X connect 25 0 1 1;
#X connect 26 0 27 0;
#X connect 26 0 29 0;
#X connect 28 0 37 0;
#X connect 30 0 25 0;
#X connect 32 0 7 0;
#X connect 33 0 7 0;
#X connect 35 0 7 0;
#X connect 36 0 35 0;
#X connect 37 0 0 0;
#X connect 37 1 19 0;
