#N canvas 443 25 706 993 12;
#X obj 85 572 channel-out~;
#X obj 85 516 cosine-pan~;
#X obj 83 363 adc~;
#X obj 85 397 looper~;
#X obj 224 401 looper~;
#X obj 357 402 looper~;
#X connect 1 0 0 0;
#X connect 1 1 0 2;
#X connect 2 0 3 0;
#X connect 2 0 4 0;
#X connect 2 0 5 0;
#X connect 2 1 3 0;
#X connect 2 1 4 0;
#X connect 2 1 5 0;
#X connect 3 0 1 0;
#X connect 4 0 1 0;
#X connect 5 0 1 0;
