#N canvas 885 283 1436 853 10;
#X obj 254 111 soundfiler;
#X obj 254 133 expr 44100 / $f1;
#X obj 254 240 phasor~;
#X obj 254 264 *~;
#X floatatom 254 155 5 0 0 0 - - -;
#X floatatom 361 128 10 0 0 0 - - -;
#X obj 418 24 table loop1;
#X obj 361 148 s loop1Size;
#X obj 254 175 s loop1Rate;
#X obj 254 285 tabread4~ loop1;
#X obj 254 196 r loop1Rate;
#X obj 310 247 r loop1Size;
#X obj 149 325 hsl 60 15 0 1 0 0 empty empty empty -2 -8 0 10 -262144
-1 -1 0 1;
#X obj 146 260 metro 50;
#X obj 146 281 snapshot~;
#X obj 146 302 /;
#X obj 171 302 r loop1Size;
#X msg 146 240 bang;
#X floatatom 345 211 5 0 0 0 - - -;
#X obj 211 90 bng 15 250 50 0 empty empty empty 17 7 0 10 -262144 -1
-1;
#X msg 208 223 0;
#X text 204 202 pause;
#X text 199 71 resume;
#X obj 345 190 bng 15 250 50 0 empty empty empty 17 7 0 10 -262144
-1 -1;
#X text 364 189 resume;
#X msg 85 223 0;
#X text 83 202 stop;
#X text 381 210 speed;
#X floatatom 546 154 10 0 0 0 - - -;
#X obj 541 112 r loop1Size;
#X obj 523 218 line~;
#X msg 483 178 0;
#X text 478 160 stop;
#X obj 546 133 expr ($f1 / 44.1);
#X obj 523 176 pack f f;
#X obj 523 239 tabread4~ loop1;
#X obj 484 139 bng 15 250 50 0 empty empty empty 17 7 0 10 -262144
-1 -1;
#X msg 523 197 0 \, \$1 \$2;
#X floatatom 522 154 3 0 0 0 - - -;
#X text 479 119 play;
#X obj 131 541 *~;
#X obj 131 582 dac~;
#X obj 172 536 vsl 15 60 0 5 0 0 empty empty empty 0 -9 0 10 -262144
-1 -1 0 1;
#X obj 254 46 bng 15 250 50 0 empty empty empty 17 7 0 10 -262144 -1
-1;
#X obj 254 67 openpanel;
#X msg 254 89 read -resize \$1 loop1;
#X obj 397 580 freeverb~;
#X msg 464 385 roomsize \$1;
#X msg 464 430 damping \$1;
#X msg 464 474 width \$1;
#X msg 464 518 wet \$1;
#X msg 464 562 dry \$1;
#X obj 476 539 hsl 60 18 0 1 0 1 empty empty dry 2 9 1 12 -225271 -1
-1 1900 0;
#X obj 476 495 hsl 60 18 0 1 0 1 empty empty wet 2 9 1 12 -225271 -1
-1 5800 0;
#X obj 476 451 hsl 60 18 0 1 0 1 empty empty width 2 9 1 12 -262131
-1 -1 4900 0;
#X obj 476 407 hsl 60 18 0 2 0 1 empty empty damping 2 9 1 12 -261689
-1 -1 800 0;
#X obj 476 362 hsl 60 18 0.11 1.1 0 1 empty empty roomsize 2 9 1 12
-261689 -1 -1 5400 0;
#X floatatom 446 366 3 0 0 0 - - -;
#X floatatom 446 411 3 0 0 0 - - -;
#X floatatom 446 456 3 0 0 0 - - -;
#X floatatom 446 499 3 0 0 0 - - -;
#X floatatom 446 543 3 0 0 0 - - -;
#X msg 343 515 freeze \$1;
#X msg 377 488 0;
#X msg 343 488 1;
#X msg 310 489 0;
#X msg 276 489 1;
#X msg 276 516 bypass \$1;
#X obj 523 260 throw~ fx1;
#X obj 254 306 throw~ fx1;
#X obj 278 564 catch~ fx1;
#X obj 869 114 soundfiler;
#X obj 869 136 expr 44100 / $f1;
#X obj 869 243 phasor~;
#X obj 869 267 *~;
#X floatatom 869 158 5 0 0 0 - - -;
#X floatatom 976 131 10 0 0 0 - - -;
#X obj 764 328 hsl 60 15 0 1 0 0 empty empty empty -2 -8 0 10 -262144
-1 -1 0 1;
#X obj 761 263 metro 50;
#X obj 761 284 snapshot~;
#X obj 761 305 /;
#X msg 761 243 bang;
#X floatatom 960 214 5 0 0 0 - - -;
#X obj 826 93 bng 15 250 50 0 empty empty empty 17 7 0 10 -262144 -1
-1;
#X msg 823 226 0;
#X text 819 205 pause;
#X text 814 74 resume;
#X obj 960 193 bng 15 250 50 0 empty empty empty 17 7 0 10 -262144
-1 -1;
#X text 979 192 resume;
#X msg 700 226 0;
#X text 698 205 stop;
#X text 996 213 speed;
#X floatatom 1161 157 10 0 0 0 - - -;
#X obj 1138 221 line~;
#X msg 1098 181 0;
#X text 1093 163 stop;
#X obj 1161 136 expr ($f1 / 44.1);
#X obj 1138 179 pack f f;
#X obj 1099 142 bng 15 250 50 0 empty empty empty 17 7 0 10 -262144
-1 -1;
#X msg 1138 200 0 \, \$1 \$2;
#X floatatom 1137 157 3 0 0 0 - - -;
#X text 1094 122 play;
#X obj 869 49 bng 15 250 50 0 empty empty empty 17 7 0 10 -262144 -1
-1;
#X obj 869 70 openpanel;
#X obj 1012 583 freeverb~;
#X msg 1079 388 roomsize \$1;
#X msg 1079 433 damping \$1;
#X msg 1079 477 width \$1;
#X msg 1079 521 wet \$1;
#X msg 1079 565 dry \$1;
#X obj 1091 542 hsl 60 18 0 1 0 1 empty empty dry 2 9 1 12 -225271
-1 -1 1900 0;
#X obj 1091 498 hsl 60 18 0 1 0 1 empty empty wet 2 9 1 12 -225271
-1 -1 2300 0;
#X obj 1091 454 hsl 60 18 0 1 0 1 empty empty width 2 9 1 12 -262131
-1 -1 4900 0;
#X obj 1091 410 hsl 60 18 0 2 0 1 empty empty damping 2 9 1 12 -261689
-1 -1 300 0;
#X obj 1091 365 hsl 60 18 0.11 1.1 0 1 empty empty roomsize 2 9 1 12
-261689 -1 -1 5300 0;
#X floatatom 1061 369 3 0 0 0 - - -;
#X floatatom 1061 414 3 0 0 0 - - -;
#X floatatom 1061 459 3 0 0 0 - - -;
#X floatatom 1061 502 3 0 0 0 - - -;
#X floatatom 1061 546 3 0 0 0 - - -;
#X msg 958 518 freeze \$1;
#X msg 992 491 0;
#X msg 958 491 1;
#X msg 925 492 0;
#X msg 891 492 1;
#X msg 891 519 bypass \$1;
#X msg 869 92 read -resize \$1 loop2;
#X obj 976 151 s loop2Size;
#X obj 869 178 s loop2Rate;
#X obj 869 199 r loop2Rate;
#X obj 925 250 r loop2Size;
#X obj 869 288 tabread4~ loop2;
#X obj 786 305 r loop2Size;
#X obj 1138 242 tabread4~ loop2;
#X obj 1156 115 r loop2Size;
#X obj 1035 30 table loop2;
#X obj 893 567 catch~ fx2;
#X obj 869 309 throw~ fx2;
#X obj 1138 263 throw~ fx2;
#X obj 397 608 throw~ loop1Fx;
#X obj 131 508 catch~ loop1Fx;
#X obj 752 552 *~;
#X obj 752 593 dac~;
#X obj 793 547 vsl 15 60 0 5 0 0 empty empty empty 0 -9 0 10 -262144
-1 -1 0 1;
#X obj 752 519 catch~ loop2Fx;
#X obj 1012 611 throw~ loop2Fx;
#X text 438 702 this patch should be using some abstractions \, but
i don't have these things working as i'd like yet to be at the point
i want to create the abstractions. this is still very fun for playing
less precise \, atmospheric sound.;
#X connect 0 0 1 0;
#X connect 0 0 5 0;
#X connect 1 0 4 0;
#X connect 2 0 3 0;
#X connect 3 0 9 0;
#X connect 3 0 14 0;
#X connect 4 0 8 0;
#X connect 5 0 7 0;
#X connect 9 0 69 0;
#X connect 10 0 2 0;
#X connect 11 0 3 1;
#X connect 13 0 14 0;
#X connect 14 0 15 0;
#X connect 15 0 12 0;
#X connect 16 0 15 1;
#X connect 17 0 13 0;
#X connect 18 0 2 0;
#X connect 19 0 1 0;
#X connect 20 0 2 0;
#X connect 23 0 18 0;
#X connect 25 0 2 1;
#X connect 25 0 2 0;
#X connect 28 0 34 1;
#X connect 29 0 33 0;
#X connect 29 0 38 0;
#X connect 30 0 35 0;
#X connect 31 0 30 0;
#X connect 33 0 28 0;
#X connect 34 0 37 0;
#X connect 35 0 68 0;
#X connect 36 0 38 0;
#X connect 36 0 28 0;
#X connect 37 0 30 0;
#X connect 38 0 34 0;
#X connect 40 0 41 0;
#X connect 40 0 41 1;
#X connect 42 0 40 1;
#X connect 43 0 44 0;
#X connect 44 0 45 0;
#X connect 45 0 0 0;
#X connect 45 0 17 0;
#X connect 46 0 139 0;
#X connect 46 1 139 0;
#X connect 47 0 46 0;
#X connect 48 0 46 0;
#X connect 49 0 46 0;
#X connect 50 0 46 0;
#X connect 51 0 46 0;
#X connect 52 0 51 0;
#X connect 52 0 61 0;
#X connect 53 0 50 0;
#X connect 53 0 60 0;
#X connect 54 0 49 0;
#X connect 54 0 59 0;
#X connect 55 0 48 0;
#X connect 55 0 58 0;
#X connect 56 0 47 0;
#X connect 56 0 57 0;
#X connect 62 0 46 0;
#X connect 63 0 62 0;
#X connect 64 0 62 0;
#X connect 65 0 67 0;
#X connect 66 0 67 0;
#X connect 67 0 46 0;
#X connect 70 0 46 0;
#X connect 70 0 46 1;
#X connect 71 0 72 0;
#X connect 71 0 76 0;
#X connect 72 0 75 0;
#X connect 73 0 74 0;
#X connect 74 0 79 0;
#X connect 74 0 131 0;
#X connect 75 0 128 0;
#X connect 76 0 127 0;
#X connect 78 0 79 0;
#X connect 79 0 80 0;
#X connect 80 0 77 0;
#X connect 81 0 78 0;
#X connect 82 0 73 0;
#X connect 83 0 72 0;
#X connect 84 0 73 0;
#X connect 87 0 82 0;
#X connect 89 0 73 1;
#X connect 89 0 73 0;
#X connect 92 0 97 1;
#X connect 93 0 133 0;
#X connect 94 0 93 0;
#X connect 96 0 92 0;
#X connect 97 0 99 0;
#X connect 98 0 100 0;
#X connect 98 0 92 0;
#X connect 99 0 93 0;
#X connect 100 0 97 0;
#X connect 102 0 103 0;
#X connect 103 0 126 0;
#X connect 104 0 145 0;
#X connect 104 1 145 0;
#X connect 105 0 104 0;
#X connect 106 0 104 0;
#X connect 107 0 104 0;
#X connect 108 0 104 0;
#X connect 109 0 104 0;
#X connect 110 0 109 0;
#X connect 110 0 119 0;
#X connect 111 0 108 0;
#X connect 111 0 118 0;
#X connect 112 0 107 0;
#X connect 112 0 117 0;
#X connect 113 0 106 0;
#X connect 113 0 116 0;
#X connect 114 0 105 0;
#X connect 114 0 115 0;
#X connect 120 0 104 0;
#X connect 121 0 120 0;
#X connect 122 0 120 0;
#X connect 123 0 125 0;
#X connect 124 0 125 0;
#X connect 125 0 104 0;
#X connect 126 0 71 0;
#X connect 126 0 81 0;
#X connect 129 0 73 0;
#X connect 130 0 74 1;
#X connect 131 0 137 0;
#X connect 132 0 80 1;
#X connect 133 0 138 0;
#X connect 134 0 96 0;
#X connect 134 0 100 0;
#X connect 136 0 104 0;
#X connect 136 0 104 1;
#X connect 140 0 40 0;
#X connect 141 0 142 0;
#X connect 141 0 142 1;
#X connect 143 0 141 1;
#X connect 144 0 141 0;
