#N canvas 0 38 1512 945 12;
#X obj 221 326 sample-player~;
#X obj 302 223 bng 19 250 50 0 empty empty empty 0 -10 0 12 #fcfcfc #000000 #000000;
#X msg 221 229 1;
#X obj 221 146 metro 1000;
#X obj 221 113 tgl 19 0 empty empty empty 0 -10 0 12 #fcfcfc #000000 #000000 0 1;
#X obj 358 146 metro;
#X obj 357 119 tgl 19 0 empty empty empty 0 -10 0 12 #fcfcfc #000000 #000000 0 1;
#X obj 358 170 t b b;
#X floatatom 421 208 5 0 0 0 - - - 0;
#X obj 421 182 random 20000;
#X obj 898 691 channel-out~;
#X obj 898 274 eq3~;
#X obj 898 390 audio-delay~ 3000;
#X obj 898 510 reverb~;
#X obj 758 584 pitch-shifter~;
#X obj 758 710 metal~;
#X obj 758 464 freeze~;
#N canvas 0 25 1680 997 delay-assignments 0;
#X obj 59 172 outlet;
#X obj -10 -107 r initialize;
#X msg -27 -63 wet 0;
#X msg 30 -64 length 0;
#X msg 110 -63 feedback 0;
#X obj 117 18 nano-memory-encoder wet 0 48 64 0;
#X obj 119 45 nano-memory-encoder length 16 32 64 0;
#X obj 121 71 nano-memory-encoder feedback 17 33 65 0;
#X connect 1 0 2 0;
#X connect 1 0 3 0;
#X connect 1 0 4 0;
#X connect 2 0 0 0;
#X connect 3 0 0 0;
#X connect 4 0 0 0;
#X connect 5 0 0 0;
#X connect 6 0 0 0;
#X connect 7 0 0 0;
#X restore 1022 373 pd delay-assignments;
#N canvas 506 241 539 446 pitch-assignments 0;
#X obj 33 147 outlet;
#X obj -24 -84 r initialize;
#X msg -30 -19 coarse 1;
#X msg 47 -18 width 0;
#X obj 67 36 nano-memory-encoder coarse 2 50 66 1;
#X obj 67 64 nano-memory-encoder width 3 51 67 0;
#X connect 1 0 2 0;
#X connect 1 0 3 0;
#X connect 2 0 0 0;
#X connect 3 0 0 0;
#X connect 4 0 0 0;
#X connect 5 0 0 0;
#X restore 590 566 pd pitch-assignments;
#N canvas 660 142 791 568 freeze-assignments 0;
#X obj 429 97 sel 0;
#X msg 461 125 switch 0;
#X msg 462 151 switch 1;
#X obj 429 69 route switch;
#X obj 85 239 outlet;
#X obj 16 -61 r initialize;
#X msg 16 -6 blend 0;
#X msg 89 -7 speed 0;
#X msg 160 -7 switch 1;
#X obj 429 41 nano-memory-encoder switch 5 53 69 1;
#X obj 166 66 nano-memory-encoder blend 18 34 66 0;
#X obj 166 94 nano-memory-encoder speed 19 35 67 0;
#X connect 0 0 2 0;
#X connect 0 1 1 0;
#X connect 1 0 4 0;
#X connect 2 0 4 0;
#X connect 3 0 0 0;
#X connect 5 0 7 0;
#X connect 5 0 6 0;
#X connect 5 0 8 0;
#X connect 6 0 4 0;
#X connect 7 0 4 0;
#X connect 8 0 4 0;
#X connect 9 0 3 0;
#X connect 10 0 4 0;
#X connect 11 0 4 0;
#X restore 580 445 pd freeze-assignments;
#N canvas 150 175 450 300 reverb-assignments 0;
#X obj 24 185 outlet;
#X obj 14 -24 r initialize;
#X msg -10 22 wet 0;
#X msg 51 22 size 0;
#X obj 95 57 nano-memory-encoder wet 0 48 64 0;
#X obj 95 85 nano-memory-encoder size 1 49 65 0;
#X connect 1 0 2 0;
#X connect 1 0 3 0;
#X connect 2 0 0 0;
#X connect 3 0 0 0;
#X connect 4 0 0 0;
#X connect 5 0 0 0;
#X restore 1031 492 pd reverb-assignments;
#N canvas 482 163 450 300 metal-assignment 0;
#X obj 50 72 sel 0;
#X obj 50 44 route toggle;
#X msg 82 100 toggle 1;
#X msg 83 126 toggle 0;
#X obj 17 190 outlet;
#X obj 223 121 r initialize;
#X msg 223 148 toggle 0;
#X obj 50 17 nano-memory-encoder toggle 4 52 68 0;
#X connect 0 0 3 0;
#X connect 0 1 2 0;
#X connect 1 0 0 0;
#X connect 2 0 4 0;
#X connect 3 0 4 0;
#X connect 5 0 6 0;
#X connect 6 0 4 0;
#X connect 7 0 1 0;
#X restore 593 691 pd metal-assignment;
#N canvas 466 105 589 399 eq3-assignments 0;
#X obj 30 183 outlet;
#X obj -16 -93 r initialize;
#X msg -123 -15 low 0.5;
#X msg -57 -15 mid 0.5;
#X msg 9 -15 high 0.5;
#X msg 90 -15 gain 0.5;
#X obj 95 56 nano-memory-encoder low 20 36 68 66;
#X obj 95 85 nano-memory-encoder mid 21 37 69 66;
#X obj 95 116 nano-memory-encoder high 22 38 70 66;
#X obj 95 145 nano-memory-encoder gain 6 54 70 66;
#X connect 1 0 2 0;
#X connect 1 0 3 0;
#X connect 1 0 4 0;
#X connect 1 0 5 0;
#X connect 2 0 0 0;
#X connect 3 0 0 0;
#X connect 4 0 0 0;
#X connect 5 0 0 0;
#X connect 6 0 0 0;
#X connect 7 0 0 0;
#X connect 8 0 0 0;
#X connect 9 0 0 0;
#X restore 954 228 pd eq3-assignments;
#X obj 898 632 cosine-pan~;
#N canvas 349 218 450 300 pan-assignment 0;
#X obj 10 99 outlet;
#X obj -6 -22 r initialize;
#X msg -6 13 position 0.5;
#X obj 70 47 nano-memory-encoder position 23 39 71 66;
#X connect 1 0 2 0;
#X connect 2 0 0 0;
#X connect 3 0 0 0;
#X restore 1055 614 pd pan-assignment;
#N canvas 266 291 450 300 volume-assignment 0;
#X obj 34 163 outlet;
#X msg 121 92 volume 0.5;
#X obj 68 28 nano-memory-encoder volume 7 55 71 66;
#X obj 121 67 r initialize;
#X connect 1 0 0 0;
#X connect 2 0 0 0;
#X connect 3 0 1 0;
#X restore 1066 673 pd volume-assignment;
#N canvas 63 88 925 613 initialize 0;
#X obj 103 103 bng 19 250 50 0 empty empty empty 0 -10 0 12 #fcfcfc #000000 #000000;
#X obj 318 248 s initialize;
#X obj 103 69 midi-button 60 1;
#X obj 130 273 tgl 19 0 empty empty empty 0 -10 0 12 #fcfcfc #000000 #000000 0 1;
#X obj 128 221 tgl 19 0 empty empty empty 0 -10 0 12 #fcfcfc #000000 #000000 0 1;
#X obj 83 248 sel 0;
#X obj 130 301 nano-led 64;
#X obj 220 301 nano-led 65;
#X obj 310 301 nano-led 66;
#X obj 400 301 nano-led 67;
#X obj 490 301 nano-led 68;
#X obj 580 301 nano-led 69;
#X obj 670 301 nano-led 70;
#X obj 760 301 nano-led 71;
#X msg 153 221 0;
#X obj 129 247 metro 50;
#X obj 127 188 delay 500;
#X obj 369 192 s clear-automation;
#X obj 432 167 s pause-automation;
#X msg 433 141 0;
#X obj 318 122 t b b b;
#X obj 318 218 delay 500;
#X connect 0 0 4 0;
#X connect 0 0 16 0;
#X connect 0 0 20 0;
#X connect 2 0 0 0;
#X connect 3 0 6 0;
#X connect 3 0 7 0;
#X connect 3 0 8 0;
#X connect 3 0 9 0;
#X connect 3 0 10 0;
#X connect 3 0 11 0;
#X connect 3 0 12 0;
#X connect 3 0 13 0;
#X connect 4 0 5 0;
#X connect 4 0 15 0;
#X connect 5 0 3 0;
#X connect 14 0 3 0;
#X connect 15 0 3 0;
#X connect 16 0 4 0;
#X connect 16 0 14 0;
#X connect 19 0 18 0;
#X connect 20 0 21 0;
#X connect 20 1 17 0;
#X connect 20 2 19 0;
#X connect 21 0 1 0;
#X coords 0 -1 1 1 100 25 1 100 100;
#X restore 1170 336 pd initialize;
#N canvas 393 204 1119 749 pause-automation 0;
#X obj 102 103 tgl 19 0 empty empty empty 0 -10 0 12 #fcfcfc #000000 #000000 0 1;
#X obj 111 139 s pause-automation;
#X obj 102 -14 ctlin 61 1;
#X obj 102 55 midi-pad-to-toggle;
#X obj 102 10 sel 127;
#X msg 102 31 1;
#X msg 140 34 0;
#X obj 105 304 tgl 19 0 empty empty empty 0 -10 0 12 #fcfcfc #000000 #000000 0 1;
#X obj 104 278 metro 500;
#X obj 103 252 tgl 19 0 empty empty empty 0 -10 0 12 #fcfcfc #000000 #000000 0 1;
#X obj 58 279 sel 0;
#X msg 103 218 1;
#X msg 141 219 0;
#X obj 102 184 sel 1;
#X obj 105 332 nano-led 64;
#X obj 195 332 nano-led 65;
#X obj 285 332 nano-led 66;
#X obj 375 332 nano-led 67;
#X obj 465 332 nano-led 68;
#X obj 555 332 nano-led 69;
#X obj 645 332 nano-led 70;
#X obj 735 332 nano-led 71;
#X obj 249 95 r clear-automation;
#X msg 249 120 0;
#X connect 0 0 13 0;
#X connect 0 0 1 0;
#X connect 2 0 4 0;
#X connect 3 0 0 0;
#X connect 4 0 5 0;
#X connect 4 1 6 0;
#X connect 5 0 3 0;
#X connect 6 0 3 0;
#X connect 7 0 14 0;
#X connect 7 0 15 0;
#X connect 7 0 16 0;
#X connect 7 0 17 0;
#X connect 7 0 18 0;
#X connect 7 0 19 0;
#X connect 7 0 20 0;
#X connect 7 0 21 0;
#X connect 8 0 7 0;
#X connect 9 0 8 0;
#X connect 9 0 10 0;
#X connect 10 0 7 0;
#X connect 11 0 9 0;
#X connect 12 0 9 0;
#X connect 12 0 7 0;
#X connect 13 0 11 0;
#X connect 13 1 12 0;
#X connect 22 0 23 0;
#X connect 23 0 0 0;
#X coords 0 -1 1 1 100 25 1 100 100;
#X restore 1171 366 pd pause-automation;
#X obj 1170 272 midi-observer;
#X obj 1223 157 loadbang-dsp;
#X obj 1223 185 s initialize;
#X obj 758 759 s~ audio-route;
#X obj 1018 255 r~ audio-route;
#N canvas 63 88 1005 525 blink 0;
#X obj 103 103 bng 19 250 50 0 empty empty empty 0 -10 0 12 #fcfcfc #000000 #000000;
#X obj 130 273 tgl 19 0 empty empty empty 0 -10 0 12 #fcfcfc #000000 #000000 0 1;
#X obj 128 221 tgl 19 0 empty empty empty 0 -10 0 12 #fcfcfc #000000 #000000 0 1;
#X obj 83 248 sel 0;
#X obj 130 301 nano-led 64;
#X obj 220 301 nano-led 65;
#X obj 310 301 nano-led 66;
#X obj 400 301 nano-led 67;
#X obj 490 301 nano-led 68;
#X obj 580 301 nano-led 69;
#X obj 670 301 nano-led 70;
#X obj 760 301 nano-led 71;
#X msg 153 221 0;
#X obj 103 62 inlet;
#X obj 129 247 metro 500;
#X obj 127 188 delay 5000;
#X connect 0 0 2 0;
#X connect 0 0 15 0;
#X connect 1 0 4 0;
#X connect 1 0 5 0;
#X connect 1 0 6 0;
#X connect 1 0 7 0;
#X connect 1 0 8 0;
#X connect 1 0 9 0;
#X connect 1 0 10 0;
#X connect 1 0 11 0;
#X connect 2 0 3 0;
#X connect 2 0 14 0;
#X connect 3 0 1 0;
#X connect 12 0 1 0;
#X connect 13 0 0 0;
#X connect 14 0 1 0;
#X connect 15 0 2 0;
#X connect 15 0 12 0;
#X restore 514 84 pd blink;
#X obj 514 59 loadbang;
#X obj 302 386 s~ main;
#X obj 758 434 r~ main;
#X obj 302 259 random 1272;
#X obj 643 335 s~ mic;
#X obj 816 434 r~ mic;
#X obj 641 101 looper~;
#X obj 641 67 adc~;
#X obj 642 270 line-control~;
#X obj 641 219 metal~;
#N canvas 64 38 1376 847 looper-assignments 0;
#X obj 187 52 sel 127;
#X obj 188 76 tgl 19 0 empty empty empty 0 -10 0 12 #fcfcfc #000000 #000000 0 1;
#X msg 188 152 monitor \$1;
#X obj 278 51 sel 127;
#X obj 279 75 tgl 19 0 empty empty empty 0 -10 0 12 #fcfcfc #000000 #000000 0 1;
#X obj 278 26 ctlin 45 1;
#X msg 279 151 rec \$1;
#X obj 422 27 ctlin 42 1;
#X obj 423 76 bng 19 250 50 0 empty empty empty 0 -10 0 12 #fcfcfc #000000 #000000;
#X obj 570 76 bng 19 250 50 0 empty empty empty 0 -10 0 12 #fcfcfc #000000 #000000;
#X obj 569 27 ctlin 41 1;
#X obj 402 113 nano-led 42;
#X obj 550 112 nano-led 41;
#X obj 257 112 nano-led 45;
#X obj 421 51 sel 127;
#X obj 572 50 sel 127;
#X obj 800 76 bng 19 250 50 0 empty empty empty 0 -10 0 12 #fcfcfc #000000 #000000;
#X obj 802 50 sel 127;
#X msg 570 152 play \$1;
#X msg 423 152 stop \$1;
#X msg 800 152 clear \$1;
#X obj 799 27 ctlin 43 1;
#X obj 780 112 nano-led 43;
#X obj 187 27 ctlin 44 1;
#X obj 167 112 nano-led 44;
#X obj 455 301 outlet;
#X obj 200 586 tgl 19 0 empty empty empty 0 -10 0 12 #fcfcfc #000000 #000000 0 1;
#X obj 199 560 metro 500;
#X obj 198 534 tgl 19 0 empty empty empty 0 -10 0 12 #fcfcfc #000000 #000000 0 1;
#X obj 153 561 sel 0;
#X msg 198 500 1;
#X msg 236 501 0;
#X obj 200 614 nano-led 41;
#X obj 197 466 sel 0;
#X obj 84 425 file-exists;
#X obj 84 453 sel 0;
#X msg 84 402 ../audio/\$1.wav;
#X obj 83 337 r BANK;
#X obj 304 76 s \$0-rec-in;
#X obj 450 77 s \$0-stop-in;
#X obj 596 77 s \$0-play-in;
#X obj 834 78 s \$0-clear-in;
#X obj 265 459 r \$0-clear-in;
#X obj 244 377 r \$0-stop-in;
#X obj 197 350 r \$0-rec-in;
#X obj 84 377 int;
#X obj 155 307 r \$0-play-in;
#X obj 155 332 t b b;
#X obj 36 595 nano-led 42;
#X obj 116 516 tgl 19 0 empty empty empty 0 -10 0 12 #fcfcfc #000000 #000000 0 1;
#X obj 84 482 t b b;
#X obj 36 568 tgl 19 0 empty empty empty 0 -10 0 12 #fcfcfc #000000 #000000 0 1;
#X obj 36 542 metro 75;
#X obj -24 523 t b b;
#X obj -24 501 delay 500;
#X msg 75 511 0;
#X obj -36 472 nano-led 41;
#X msg -24 549 0;
#X connect 0 0 1 0;
#X connect 1 0 2 0;
#X connect 1 0 24 0;
#X connect 2 0 25 0;
#X connect 3 0 4 0;
#X connect 4 0 6 0;
#X connect 4 0 13 0;
#X connect 4 0 38 0;
#X connect 5 0 3 0;
#X connect 6 0 25 0;
#X connect 7 0 11 0;
#X connect 7 0 14 0;
#X connect 8 0 19 0;
#X connect 8 0 39 0;
#X connect 9 0 18 0;
#X connect 9 0 40 0;
#X connect 10 0 12 0;
#X connect 10 0 15 0;
#X connect 14 0 8 0;
#X connect 15 0 9 0;
#X connect 16 0 20 0;
#X connect 16 0 41 0;
#X connect 17 0 16 0;
#X connect 18 0 25 0;
#X connect 19 0 25 0;
#X connect 20 0 25 0;
#X connect 21 0 17 0;
#X connect 21 0 22 0;
#X connect 23 0 0 0;
#X connect 26 0 32 0;
#X connect 27 0 26 0;
#X connect 28 0 27 0;
#X connect 28 0 29 0;
#X connect 29 0 26 0;
#X connect 30 0 28 0;
#X connect 31 0 28 0;
#X connect 31 0 26 0;
#X connect 33 0 30 0;
#X connect 33 1 31 0;
#X connect 34 0 35 0;
#X connect 35 0 31 0;
#X connect 35 0 50 0;
#X connect 35 1 56 0;
#X connect 36 0 34 0;
#X connect 37 0 45 0;
#X connect 42 0 31 0;
#X connect 43 0 31 0;
#X connect 43 0 45 0;
#X connect 44 0 33 0;
#X connect 45 0 36 0;
#X connect 46 0 47 0;
#X connect 47 0 45 0;
#X connect 47 1 30 0;
#X connect 49 0 52 0;
#X connect 50 0 54 0;
#X connect 50 1 49 0;
#X connect 51 0 48 0;
#X connect 52 0 51 0;
#X connect 53 0 57 0;
#X connect 53 1 55 0;
#X connect 54 0 53 0;
#X connect 55 0 49 0;
#X connect 57 0 51 0;
#X restore 754 74 pd looper-assignments;
#X msg 778 251 mute \$1;
#X obj 778 226 midi-toggle 62 1;
#X obj 357 88 midi-toggle 59 1;
#X obj 221 80 midi-toggle 58 1;
#X connect 0 1 35 0;
#X connect 1 0 37 0;
#X connect 2 0 0 0;
#X connect 3 0 2 0;
#X connect 4 0 3 0;
#X connect 5 0 7 0;
#X connect 6 0 5 0;
#X connect 7 0 1 0;
#X connect 7 1 9 0;
#X connect 9 0 5 1;
#X connect 9 0 8 0;
#X connect 11 0 12 0;
#X connect 11 1 12 0;
#X connect 12 0 13 0;
#X connect 13 0 23 0;
#X connect 14 0 15 0;
#X connect 15 0 31 0;
#X connect 16 0 14 0;
#X connect 17 0 12 1;
#X connect 18 0 14 1;
#X connect 19 0 16 1;
#X connect 20 0 13 1;
#X connect 21 0 15 1;
#X connect 22 0 11 1;
#X connect 23 0 10 0;
#X connect 23 1 10 2;
#X connect 24 0 23 1;
#X connect 25 0 10 1;
#X connect 29 0 30 0;
#X connect 32 0 11 2;
#X connect 32 0 11 0;
#X connect 34 0 33 0;
#X connect 36 0 16 0;
#X connect 37 0 0 1;
#X connect 39 0 16 0;
#X connect 40 0 43 0;
#X connect 41 0 40 0;
#X connect 42 0 38 0;
#X connect 43 0 42 0;
#X connect 44 0 40 1;
#X connect 45 0 42 1;
#X connect 46 0 45 0;
#X connect 47 0 6 0;
#X connect 48 0 4 0;
