#N canvas 266 30 1680 997 12;
#X obj 198 237 channel-out~;
#X obj 198 -180 eq3~;
#X obj 198 -64 audio-delay~ 3000;
#X obj 198 56 reverb~;
#X obj 27 141 pitch-shifter~;
#X obj 27 267 metal~;
#X obj 27 21 freeze~;
#X obj 198 178 cosine-pan~;
#X obj 27 316 s~ audio-route;
#X obj 318 -199 r~ audio-route;
#X obj 27 -159 sync-looper~;
#X obj 27 -185 adc~;
#X obj 359 -150 tgl 666 0 empty empty fuck\ the\ police 0 -10 0 80 #fcfcfc #000000 #000000 0 1;
#X obj 120 -187 r \$0-rec;
#X msg 359 518 rec \$1;
#X obj 359 540 s \$0-rec;
#X obj 27 -48 line-control~;
#X obj 1028 541 s \$0-mute;
#X obj 83 -72 r \$0-mute;
#X obj 1028 -150 tgl 666 0 empty empty burn\ down\ their\ stations 70 -10 0 30 #fcfcfc #000000 #000000 0 1;
#X msg 1028 519 mute \$1;
#X obj 162 337 openpanel;
#X obj 162 319 bng 15 250 50 0 empty empty empty 17 7 0 10 #fcfcfc #000000 #000000;
#N canvas 0 50 450 300 (subpatch) 0;
#X array array1 20544 float 2;
#X coords 0 1 20544 -1 200 140 1;
#X restore 358 592 graph;
#X obj 162 381 soundfiler;
#X obj 145 423 random;
#X obj -90 481 tabread4~ array1;
#X obj -90 437 phasor~;
#X obj -90 459 *~ 1;
#X obj 190 499 /;
#X msg 162 461 44100;
#X obj 162 403 t b f f;
#X obj -14 403 metro 10;
#X obj -14 381 t b f;
#X obj -11 363 hsl 128 15 1000 1 0 1 empty empty grain -2 -8 0 10 #fcfcfc #000000 #000000 12500 1;
#X obj 69 402 tgl 75 0 empty empty empty 17 7 0 10 #fcfcfc #000000 #000000 0 1;
#X obj 30 481 spigot;
#X obj 161 707 channel-out~;
#X obj -3 624 audio-delay~ 3000;
#X msg 162 360 read -resize ../audio/looper.wav array1;
#X obj -3 516 metal~;
#X obj -3 737 s~ manipulator-route;
#X obj 162 520 r~ manipulator-route;
#X obj 161 654 cosine-pan~;
#X obj 162 541 eq3~;
#X obj -3 560 line-control~;
#X obj 1028 600 tgl 666 0 empty empty every\ last\ one 0 -10 0 30 #fcfcfc #000000 #000000 0 1;
#X msg 1028 1269 mute \$1;
#X obj -87 541 r \$0-2-mute;
#X obj 1028 1291 s \$0-2-mute;
#X connect 1 0 2 0;
#X connect 1 1 2 0;
#X connect 2 0 3 0;
#X connect 3 0 7 0;
#X connect 4 0 5 0;
#X connect 5 0 8 0;
#X connect 6 0 4 0;
#X connect 7 0 0 0;
#X connect 7 1 0 2;
#X connect 9 0 1 2;
#X connect 9 0 1 0;
#X connect 10 0 16 0;
#X connect 11 0 10 0;
#X connect 12 0 14 0;
#X connect 13 0 10 1;
#X connect 14 0 15 0;
#X connect 16 0 6 0;
#X connect 18 0 16 1;
#X connect 19 0 20 0;
#X connect 20 0 17 0;
#X connect 21 0 39 0;
#X connect 22 0 21 0;
#X connect 24 0 31 0;
#X connect 25 0 28 1;
#X connect 25 0 36 0;
#X connect 26 0 40 0;
#X connect 27 0 28 0;
#X connect 28 0 26 0;
#X connect 29 0 27 0;
#X connect 30 0 29 0;
#X connect 31 0 30 0;
#X connect 31 1 25 1;
#X connect 31 2 29 1;
#X connect 32 0 25 0;
#X connect 33 0 32 0;
#X connect 33 1 32 1;
#X connect 34 0 33 0;
#X connect 35 0 36 1;
#X connect 36 0 29 0;
#X connect 38 0 41 0;
#X connect 39 0 24 0;
#X connect 40 0 45 0;
#X connect 42 0 44 0;
#X connect 43 0 37 0;
#X connect 43 1 37 2;
#X connect 44 0 43 0;
#X connect 45 0 38 0;
#X connect 46 0 47 0;
#X connect 47 0 49 0;
#X connect 48 0 45 1;
