#N canvas 0 23 1421 855 10;
#X obj -66 -833 adc~;
#X obj -66 -802 looper~;
#X obj 252 -835 adc~;
#X obj 252 -804 looper~;
#X obj 564 -836 adc~;
#X obj 564 -805 looper~;
#X obj 563 -134 channel-out~;
#X obj 564 -731 freeze~;
#X obj 563 -190 cosine-pan~;
#X obj 564 -424 audio-delay~;
#X obj 564 -307 reverb~;
#X obj -66 -728 freeze~;
#X obj 252 -730 freeze~;
#X obj 764 -268 channel-out~;
#X obj 251 -134 channel-out~;
#X obj 251 -190 cosine-pan~;
#X obj 252 -424 audio-delay~;
#X obj 252 -307 reverb~;
#X obj -67 -134 channel-out~;
#X obj -67 -190 cosine-pan~;
#X obj -66 -424 audio-delay~;
#X obj -66 -307 reverb~;
#X obj 764 -362 catch~ looper-l;
#X obj 877 -362 catch~ looper-r;
#X obj 563 -71 throw~ looper-l;
#X obj 251 -71 throw~ looper-l;
#X obj -67 -71 throw~ looper-l;
#X obj 46 -71 throw~ looper-r;
#X obj 363 -71 throw~ looper-r;
#X obj 676 -71 throw~ looper-r;
#X obj 764 -339 stereo-looper~;
#X connect 0 0 1 0;
#X connect 1 0 11 0;
#X connect 2 0 3 0;
#X connect 3 0 12 0;
#X connect 4 0 5 0;
#X connect 5 0 7 0;
#X connect 6 0 24 0;
#X connect 6 1 29 0;
#X connect 7 0 9 0;
#X connect 8 0 6 0;
#X connect 8 1 6 4;
#X connect 9 0 10 0;
#X connect 10 0 8 0;
#X connect 11 0 20 0;
#X connect 12 0 16 0;
#X connect 14 0 25 0;
#X connect 14 1 28 0;
#X connect 15 0 14 0;
#X connect 15 1 14 4;
#X connect 16 0 17 0;
#X connect 17 0 15 0;
#X connect 18 0 26 0;
#X connect 18 1 27 0;
#X connect 19 0 18 0;
#X connect 19 1 18 4;
#X connect 20 0 21 0;
#X connect 21 0 19 0;
#X connect 22 0 30 0;
#X connect 23 0 30 5;
#X connect 30 0 13 0;
#X connect 30 1 13 4;
