#N canvas 1066 245 878 581 10;
#X obj 11 4 loadbang-dsp;
#X obj 39 73 looper~;
#X obj 39 367 cosine-pan~;
#X obj 39 420 channel-out~;
#X obj 39 254 reverb~;
#X obj 39 141 7-sec-delay~;
#X obj 169 420 channel-out~;
#X obj 169 254 reverb~;
#X obj 169 141 7-sec-delay~;
#X obj 299 420 channel-out~;
#X obj 299 254 reverb~;
#X obj 299 141 7-sec-delay~;
#X obj 429 420 channel-out~;
#X obj 429 254 reverb~;
#X obj 429 141 7-sec-delay~;
#X obj 559 420 channel-out~;
#X obj 559 254 reverb~;
#X obj 559 141 7-sec-delay~;
#X obj 689 420 channel-out~;
#X obj 689 254 reverb~;
#X obj 689 141 7-sec-delay~;
#X obj 169 73 looper~;
#X obj 299 73 looper~;
#X obj 429 73 looper~;
#X obj 559 73 looper~;
#X obj 689 73 looper~;
#X obj 39 55 adc~;
#X obj 169 55 adc~;
#X obj 299 55 adc~;
#X obj 429 55 adc~;
#X obj 559 55 adc~;
#X obj 689 55 adc~;
#X obj 169 367 cosine-pan~;
#X obj 299 367 cosine-pan~;
#X obj 429 367 cosine-pan~;
#X obj 559 367 cosine-pan~;
#X obj 689 367 cosine-pan~;
#X connect 1 0 5 0;
#X connect 2 0 3 0;
#X connect 2 1 3 1;
#X connect 4 0 2 0;
#X connect 5 0 4 0;
#X connect 7 0 32 0;
#X connect 8 0 7 0;
#X connect 10 0 33 0;
#X connect 11 0 10 0;
#X connect 13 0 34 0;
#X connect 14 0 13 0;
#X connect 16 0 35 0;
#X connect 17 0 16 0;
#X connect 19 0 36 0;
#X connect 20 0 19 0;
#X connect 21 0 8 0;
#X connect 22 0 11 0;
#X connect 23 0 14 0;
#X connect 24 0 17 0;
#X connect 25 0 20 0;
#X connect 26 0 1 0;
#X connect 27 0 21 0;
#X connect 28 0 22 0;
#X connect 29 0 23 0;
#X connect 30 0 24 0;
#X connect 31 0 25 0;
#X connect 32 0 6 0;
#X connect 32 1 6 1;
#X connect 33 0 9 0;
#X connect 33 1 9 1;
#X connect 34 0 12 0;
#X connect 34 1 12 1;
#X connect 35 0 15 0;
#X connect 35 1 15 1;
#X connect 36 0 18 0;
#X connect 36 1 18 1;
