#N canvas 832 111 878 581 10;
#X obj 12 34 adc~;
#X obj 11 4 loadbang-dsp;
#X obj 39 124 looper~;
#X obj 12 57 s~ inL;
#X obj 55 57 s~ inR;
#X obj 809 5 r~ inR;
#X obj 729 4 r~ inL;
#X obj 39 106 r~ inL;
#X obj 119 106 r~ inR;
#X obj 39 418 cosine-pan~;
#X obj 39 471 channel-out~;
#X obj 729 22 channel-out~;
#X obj 39 305 reverb~;
#X obj 39 192 7-sec-delay~;
#X obj 169 124 looper~;
#X obj 169 106 r~ inL;
#X obj 249 106 r~ inR;
#X obj 169 418 cosine-pan~;
#X obj 169 471 channel-out~;
#X obj 169 305 reverb~;
#X obj 169 192 7-sec-delay~;
#X obj 299 124 looper~;
#X obj 299 106 r~ inL;
#X obj 379 106 r~ inR;
#X obj 299 418 cosine-pan~;
#X obj 299 471 channel-out~;
#X obj 299 305 reverb~;
#X obj 299 192 7-sec-delay~;
#X obj 429 124 looper~;
#X obj 429 106 r~ inL;
#X obj 509 106 r~ inR;
#X obj 429 418 cosine-pan~;
#X obj 429 471 channel-out~;
#X obj 429 305 reverb~;
#X obj 429 192 7-sec-delay~;
#X obj 559 124 looper~;
#X obj 559 106 r~ inL;
#X obj 639 106 r~ inR;
#X obj 559 418 cosine-pan~;
#X obj 559 471 channel-out~;
#X obj 559 305 reverb~;
#X obj 559 192 7-sec-delay~;
#X obj 689 124 looper~;
#X obj 689 106 r~ inL;
#X obj 769 106 r~ inR;
#X obj 689 418 cosine-pan~;
#X obj 689 471 channel-out~;
#X obj 689 305 reverb~;
#X obj 689 192 7-sec-delay~;
#X connect 0 0 3 0;
#X connect 0 1 4 0;
#X connect 2 0 13 0;
#X connect 5 0 11 1;
#X connect 6 0 11 0;
#X connect 7 0 2 0;
#X connect 8 0 2 1;
#X connect 9 0 10 0;
#X connect 9 1 10 1;
#X connect 12 0 9 0;
#X connect 13 0 12 0;
#X connect 14 0 20 0;
#X connect 15 0 14 0;
#X connect 16 0 14 1;
#X connect 17 0 18 0;
#X connect 17 1 18 1;
#X connect 19 0 17 0;
#X connect 20 0 19 0;
#X connect 21 0 27 0;
#X connect 22 0 21 0;
#X connect 23 0 21 1;
#X connect 24 0 25 0;
#X connect 24 1 25 1;
#X connect 26 0 24 0;
#X connect 27 0 26 0;
#X connect 28 0 34 0;
#X connect 29 0 28 0;
#X connect 30 0 28 1;
#X connect 31 0 32 0;
#X connect 31 1 32 1;
#X connect 33 0 31 0;
#X connect 34 0 33 0;
#X connect 35 0 41 0;
#X connect 36 0 35 0;
#X connect 37 0 35 1;
#X connect 38 0 39 0;
#X connect 38 1 39 1;
#X connect 40 0 38 0;
#X connect 41 0 40 0;
#X connect 42 0 48 0;
#X connect 43 0 42 0;
#X connect 44 0 42 1;
#X connect 45 0 46 0;
#X connect 45 1 46 1;
#X connect 47 0 45 0;
#X connect 48 0 47 0;
