#N canvas 89 54 583 394 10;
#X obj 142 107 hip~ 5;
#X obj 186 107 hip~ 5;
#X obj 12 122 dac~;
#X obj 11 99 hip~ 5;
#X obj 55 100 hip~ 5;
#X obj 12 34 adc~;
#X obj 11 4 loadbang-dsp;
#X obj 164 156 dac~;
#X obj 129 41 looper~;
#X obj 12 57 s~ inL;
#X obj 55 57 s~ inR;
#X obj 56 78 r~ inR;
#X obj 11 78 r~ inL;
#X obj 129 23 r~ inL;
#X obj 204 23 r~ inR;
#X obj 163 132 *~ 1;
#X obj 202 131 vsl 15 40 0 1 0 0 empty empty empty 0 -9 0 10 -262144
-1 -1 700 1;
#X obj 272 107 hip~ 5;
#X obj 316 107 hip~ 5;
#X obj 294 156 dac~;
#X obj 259 41 looper~;
#X obj 259 23 r~ inL;
#X obj 334 23 r~ inR;
#X obj 293 132 *~ 1;
#X obj 332 131 vsl 15 40 0 1 0 0 empty empty empty 0 -9 0 10 -262144
-1 -1 3400 1;
#X obj 142 277 hip~ 5;
#X obj 186 277 hip~ 5;
#X obj 164 326 dac~;
#X obj 129 211 looper~;
#X obj 129 193 r~ inL;
#X obj 204 193 r~ inR;
#X obj 163 302 *~ 1;
#X obj 202 301 vsl 15 40 0 1 0 0 empty empty empty 0 -9 0 10 -262144
-1 -1 2700 1;
#X obj 272 277 hip~ 5;
#X obj 316 277 hip~ 5;
#X obj 294 326 dac~;
#X obj 259 211 looper~;
#X obj 259 193 r~ inL;
#X obj 334 193 r~ inR;
#X obj 293 302 *~ 1;
#X obj 332 301 vsl 15 40 0 1 0 0 empty empty empty 0 -9 0 10 -262144
-1 -1 400 1;
#X obj 402 107 hip~ 5;
#X obj 446 107 hip~ 5;
#X obj 424 156 dac~;
#X obj 389 41 looper~;
#X obj 389 23 r~ inL;
#X obj 464 23 r~ inR;
#X obj 423 132 *~ 1;
#X obj 462 131 vsl 15 40 0 1 0 0 empty empty empty 0 -9 0 10 -262144
-1 -1 2700 1;
#X obj 402 277 hip~ 5;
#X obj 446 277 hip~ 5;
#X obj 424 326 dac~;
#X obj 389 211 looper~;
#X obj 389 193 r~ inL;
#X obj 464 193 r~ inR;
#X obj 423 302 *~ 1;
#X obj 462 301 vsl 15 40 0 1 0 0 empty empty empty 0 -9 0 10 -262144
-1 -1 3400 1;
#X connect 0 0 15 0;
#X connect 1 0 15 0;
#X connect 3 0 2 0;
#X connect 4 0 2 1;
#X connect 5 0 9 0;
#X connect 5 1 10 0;
#X connect 8 0 0 0;
#X connect 8 1 1 0;
#X connect 11 0 4 0;
#X connect 12 0 3 0;
#X connect 13 0 8 0;
#X connect 14 0 8 1;
#X connect 15 0 7 0;
#X connect 15 0 7 1;
#X connect 16 0 15 1;
#X connect 17 0 23 0;
#X connect 18 0 23 0;
#X connect 20 0 17 0;
#X connect 20 1 18 0;
#X connect 21 0 20 0;
#X connect 22 0 20 1;
#X connect 23 0 19 0;
#X connect 23 0 19 1;
#X connect 24 0 23 1;
#X connect 25 0 31 0;
#X connect 26 0 31 0;
#X connect 28 0 25 0;
#X connect 28 1 26 0;
#X connect 29 0 28 0;
#X connect 30 0 28 1;
#X connect 31 0 27 0;
#X connect 31 0 27 1;
#X connect 32 0 31 1;
#X connect 33 0 39 0;
#X connect 34 0 39 0;
#X connect 36 0 33 0;
#X connect 36 1 34 0;
#X connect 37 0 36 0;
#X connect 38 0 36 1;
#X connect 39 0 35 0;
#X connect 39 0 35 1;
#X connect 40 0 39 1;
#X connect 41 0 47 0;
#X connect 42 0 47 0;
#X connect 44 0 41 0;
#X connect 44 1 42 0;
#X connect 45 0 44 0;
#X connect 46 0 44 1;
#X connect 47 0 43 0;
#X connect 47 0 43 1;
#X connect 48 0 47 1;
#X connect 49 0 55 0;
#X connect 50 0 55 0;
#X connect 52 0 49 0;
#X connect 52 1 50 0;
#X connect 53 0 52 0;
#X connect 54 0 52 1;
#X connect 55 0 51 0;
#X connect 55 0 51 1;
#X connect 56 0 55 1;
