#N canvas 642 140 1436 803 10;
#X obj 111 101 osc~ 150;
#X obj 111 70 midi-encoder 0 1;
#X obj 158 251 dac~;
#X obj 178 120 midi-encoder 1 1;
#X obj 154 191 *~ 1;
#X obj 179 154 / 127;
#X obj 386 234 dac~;
#X obj 382 174 *~ 1;
#X obj 407 137 / 127;
#X obj 339 84 adc~;
#X obj 406 103 midi-encoder 2 1;
#X connect 0 0 4 0;
#X connect 1 0 0 0;
#X connect 3 0 5 0;
#X connect 4 0 2 0;
#X connect 4 0 2 1;
#X connect 5 0 4 1;
#X connect 7 0 6 0;
#X connect 7 0 6 1;
#X connect 8 0 7 1;
#X connect 9 0 7 0;
#X connect 10 0 8 0;
