#N canvas 272 42 1436 803 10;
#X obj 111 101 osc~ 150;
#X obj 111 70 midi-encoder 0 1;
#X obj 158 251 dac~;
#X obj 178 120 midi-encoder 1 1;
#X obj 154 191 *~ 1;
#X obj 179 154 / 127;
#X obj 474 592 dac~;
#X obj 470 532 *~ 1;
#X obj 495 495 / 127;
#X obj 418 45 adc~;
#X obj 494 461 midi-encoder 2 1;
#X obj 450 271 looper-new~;
#X obj 525 137 midi-toggle 1 2;
#X obj 472 74 midi-toggle 0 2;
#X obj 548 182 midi-button 8 2;
#X obj 490 95 midi-button 4 2;
#X obj 512 116 midi-button 5 2;
#X obj 538 158 midi-button 12 2;
#X connect 0 0 4 0;
#X connect 1 0 0 0;
#X connect 3 0 5 0;
#X connect 4 0 2 0;
#X connect 4 0 2 1;
#X connect 5 0 4 1;
#X connect 7 0 6 0;
#X connect 7 0 6 1;
#X connect 8 0 7 1;
#X connect 9 0 11 0;
#X connect 10 0 8 0;
#X connect 11 0 7 0;
#X connect 12 0 11 4;
#X connect 13 0 11 1;
#X connect 14 0 11 6;
#X connect 15 0 11 2;
#X connect 16 0 11 3;
#X connect 17 0 11 5;
