#N canvas 0 23 1680 1005 10;
#X declare -stdpath zexy -stdlib zexy;
#X obj -89 -576 loadbang-dsp;
#X obj -89 -535 s defaults;
#X obj -89 -555 s initialize;
#X obj -8 -550 bng 15 250 50 0 empty empty empty 17 7 0 10 -262144
-1 -1;
#N canvas 344 23 1038 1005 track-1 0;
#X obj 110 884 cosine-pan~;
#X obj 110 769 reverb~;
#X obj 884 976 r defaults;
#X obj 110 651 audio-delay~ 4000;
#X obj 110 246 freeze~;
#X obj 110 535 eq3~;
#X obj 489 829 r defaults;
#X obj 520 716 r defaults;
#X obj 579 481 r defaults;
#X obj 592 184 r defaults;
#X obj 442 279 r defaults;
#X obj 570 40 r defaults;
#X msg 262 611 feedback 5 \, wet 1 \, length 4 \, channel 1;
#X msg 286 498 low 10 \, mid 11 \, high 14 \, gain 15 \, channel 1
;
#X obj 286 518 eq3-control track-1-eq;
#X obj 262 632 audio-delay-control track-1-delay;
#X obj 264 752 reverb-control track-1-reverb;
#X msg 264 729 wet 8 \, size 9 \, channel 1;
#X obj 290 867 cosine-pan-control track-1-pan;
#X msg 290 846 position 12 \, channel 1;
#X obj 528 1011 channel-out-control track-1-out;
#X msg 275 192 blend 2 \, speed 3 \, purity 6 \, switch 3 \, phaselock
6 \, encoder-channel 1 \, toggle-channel 2;
#X obj 283 345 metal-control track-1-metal;
#X msg 283 324 toggle 9 \, channel 2;
#X obj 283 303 r initialize;
#X obj 286 477 r initialize;
#X obj 262 586 r initialize;
#X obj 264 708 r initialize;
#X obj 290 825 r initialize;
#X obj 528 969 r initialize;
#X obj 275 161 r initialize;
#X obj 540 595 r defaults;
#X msg 489 850 position 0.5;
#X msg 540 615 wet 0 \, length 0 \, feedback 0;
#X msg 579 501 low 0.5 \, mid 0.5 \, high 0.5 \, gain 0.5;
#X msg 520 736 wet 0 \, size 0;
#X obj 110 362 metal~;
#X obj 110 408 pitch-shifter~;
#X obj 542 388 pitch-shifter-control track-1-pitch-shift;
#X obj 542 325 r initialize;
#X obj 916 351 r defaults;
#X msg 542 346 fine 0 \, coarse 7 \, width 7 \, toggle 7 \, encoder-channel
1 \, toggle-channel 2;
#X obj 110 1123 s~ track-1-left;
#X obj 223 1122 s~ track-1-right;
#X obj 277 924 / 127;
#X obj 387 924 / 127;
#X obj 110 940 file-recorder~;
#X msg 592 204 switch 0 \, blend 0 \, purity 0 \, phaselock 0 \, speed
0 \, on-color 23 \, off-color 0;
#X msg 442 299 toggle 0 \, on-color 23 \, off-color 0;
#X msg 916 371 fine 0 \, coarse 1 \, width 0 \, on-color 23 \, off-color
0;
#X obj 275 229 freeze-control track-1-freeze;
#X obj 277 903 midi-toggle 15 2;
#X obj 387 903 midi-toggle 14 2;
#X msg 528 990 volume 13 \, mute 13 \, encoder-channel 1 \, toggle-channel
2;
#X msg 885 996 volume 0.5 \, mute 0 \, on-color 23 \, off-color 0;
#X obj 110 1026 channel-out~;
#X obj 223 76 looper-control track-1-looper;
#X obj 110 129 looper~;
#X msg 223 44 rec 0 \, play 4 \, stop 5 \, monitor 1 \, clear 12 \,
channel 2 \, track-number 1;
#X obj 845 40 inlet bank;
#X msg 845 60 bank \$1;
#X obj 223 23 r initialize;
#X msg 570 60 rec 0 \, monitor 0 \, on-color 23 \, off-color 0;
#X obj 109 2 r~ audio;
#X connect 0 0 46 0;
#X connect 0 0 55 0;
#X connect 0 1 46 3;
#X connect 0 1 55 2;
#X connect 1 0 0 0;
#X connect 2 0 54 0;
#X connect 3 0 1 0;
#X connect 4 0 36 0;
#X connect 5 0 3 0;
#X connect 6 0 32 0;
#X connect 7 0 35 0;
#X connect 8 0 34 0;
#X connect 9 0 47 0;
#X connect 10 0 48 0;
#X connect 11 0 62 0;
#X connect 12 0 15 0;
#X connect 13 0 14 0;
#X connect 14 0 5 1;
#X connect 15 0 3 1;
#X connect 16 0 1 1;
#X connect 17 0 16 0;
#X connect 18 0 0 1;
#X connect 19 0 18 0;
#X connect 20 0 55 1;
#X connect 21 0 50 0;
#X connect 22 0 36 1;
#X connect 23 0 22 0;
#X connect 24 0 23 0;
#X connect 25 0 13 0;
#X connect 26 0 12 0;
#X connect 27 0 17 0;
#X connect 28 0 19 0;
#X connect 29 0 53 0;
#X connect 30 0 21 0;
#X connect 31 0 33 0;
#X connect 32 0 18 1;
#X connect 33 0 15 1;
#X connect 34 0 14 1;
#X connect 35 0 16 1;
#X connect 36 0 37 0;
#X connect 37 0 5 0;
#X connect 38 0 37 1;
#X connect 39 0 41 0;
#X connect 40 0 49 0;
#X connect 41 0 38 0;
#X connect 44 0 46 1;
#X connect 45 0 46 2;
#X connect 46 0 55 0;
#X connect 46 1 55 2;
#X connect 47 0 50 1;
#X connect 48 0 22 1;
#X connect 49 0 38 1;
#X connect 50 0 4 1;
#X connect 51 0 44 0;
#X connect 52 0 45 0;
#X connect 53 0 20 0;
#X connect 54 0 20 1;
#X connect 55 0 42 0;
#X connect 55 1 43 0;
#X connect 56 0 57 1;
#X connect 57 0 4 0;
#X connect 58 0 56 0;
#X connect 59 0 60 0;
#X connect 60 0 56 0;
#X connect 61 0 58 0;
#X connect 62 0 56 1;
#X connect 63 0 57 0;
#X coords 0 -1 1 1 140 995 1 100 100;
#X restore 322 -328 pd track-1;
#N canvas 250 23 1430 803 track-2 0;
#X obj 110 886 cosine-pan~;
#X obj 110 771 reverb~;
#X obj 947 975 r defaults;
#X obj 110 651 audio-delay~ 4000;
#X obj 110 533 eq3~;
#X obj 479 831 r defaults;
#X obj 477 717 r defaults;
#X obj 569 479 r defaults;
#X obj 612 184 r defaults;
#X obj 432 276 r defaults;
#X obj 273 302 r initialize;
#X obj 276 475 r initialize;
#X obj 277 592 r initialize;
#X obj 282 712 r initialize;
#X obj 280 827 r initialize;
#X obj 598 968 r initialize;
#X obj 265 161 r initialize;
#X obj 550 597 r defaults;
#X msg 479 852 position 0.5;
#X msg 550 617 wet 0 \, length 0 \, feedback 0;
#X msg 569 499 low 0.5 \, mid 0.5 \, high 0.5 \, gain 0.5;
#X msg 477 737 wet 0 \, size 0;
#X msg 273 323 toggle 25 \, channel 2;
#X msg 276 496 low 26 \, mid 27 \, high 30 \, gain 31 \, channel 1
;
#X msg 265 192 blend 18 \, speed 19 \, purity 22 \, switch 19 \, phaselock
22 \, encoder-channel 1 \, toggle-channel 2;
#X msg 277 613 feedback 21 \, wet 17 \, length 20 \, channel 1;
#X msg 282 733 wet 24 \, size 25 \, channel 1;
#X msg 280 848 position 28 \, channel 1;
#X obj 276 516 eq3-control track-2-eq;
#X obj 277 634 audio-delay-control track-2-delay;
#X obj 282 754 reverb-control track-2-reverb;
#X obj 280 869 cosine-pan-control track-2-pan;
#X obj 534 327 r initialize;
#X obj 908 353 r defaults;
#X obj 110 407 pitch-shifter~;
#X msg 534 348 fine 16 \, coarse 23 \, width 23 \, toggle 23 \, encoder-channel
1 \, toggle-channel 2;
#X obj 110 361 metal~;
#X obj 110 1125 s~ track-2-left;
#X obj 223 1124 s~ track-2-right;
#X obj 110 246 freeze~;
#X obj 277 924 / 127;
#X obj 387 924 / 127;
#X obj 110 940 file-recorder~;
#X obj 273 344 metal-control track-2-metal;
#X obj 534 390 pitch-shifter-control track-2-pitch-shift;
#X msg 612 204 switch 0 \, blend 0 \, purity 0 \, phaselock 0 \, speed
0 \, on-color 90 \, off-color 0;
#X msg 908 373 fine 0 \, coarse 1 \, width 0 \, on-color 90 \, off-color
0;
#X obj 265 229 freeze-control track-2-freeze;
#X obj 277 903 midi-toggle 31 2;
#X obj 387 903 midi-toggle 30 2;
#X msg 598 989 volume 29 \, mute 29 \, encoder-channel 1 \, toggle-channel
2;
#X msg 947 995 volume 0.5 \, mute 0 \, on-color 90 \, off-color 0;
#X obj 598 1010 channel-out-control track-2-out;
#X obj 110 1027 channel-out~;
#X obj 585 36 r defaults;
#X obj 223 19 r initialize;
#X msg 223 40 rec 16 \, play 20 \, stop 21 \, monitor 17 \, clear 28
\, channel 2 \, track-number 2;
#X obj 868 33 inlet bank;
#X msg 868 57 bank \$1;
#X msg 432 296 toggle 0 \, on-color 90 \, off-color 0;
#X msg 585 56 rec 0 \, monitor 0 \, on-color 90 \, off-color 0;
#X obj 223 72 looper-control track-2-looper;
#X obj 110 129 looper~;
#X obj 110 16 r~ audio;
#X connect 0 0 42 0;
#X connect 0 0 53 0;
#X connect 0 1 42 3;
#X connect 0 1 53 2;
#X connect 1 0 0 0;
#X connect 2 0 51 0;
#X connect 3 0 1 0;
#X connect 4 0 3 0;
#X connect 5 0 18 0;
#X connect 6 0 21 0;
#X connect 7 0 20 0;
#X connect 8 0 45 0;
#X connect 9 0 59 0;
#X connect 10 0 22 0;
#X connect 11 0 23 0;
#X connect 12 0 25 0;
#X connect 13 0 26 0;
#X connect 14 0 27 0;
#X connect 15 0 50 0;
#X connect 16 0 24 0;
#X connect 17 0 19 0;
#X connect 18 0 31 1;
#X connect 19 0 29 1;
#X connect 20 0 28 1;
#X connect 21 0 30 1;
#X connect 22 0 43 0;
#X connect 23 0 28 0;
#X connect 24 0 47 0;
#X connect 25 0 29 0;
#X connect 26 0 30 0;
#X connect 27 0 31 0;
#X connect 28 0 4 1;
#X connect 29 0 3 1;
#X connect 30 0 1 1;
#X connect 31 0 0 1;
#X connect 32 0 35 0;
#X connect 33 0 46 0;
#X connect 34 0 4 0;
#X connect 35 0 44 0;
#X connect 36 0 34 0;
#X connect 39 0 36 0;
#X connect 40 0 42 1;
#X connect 41 0 42 2;
#X connect 42 0 53 0;
#X connect 42 1 53 2;
#X connect 43 0 36 1;
#X connect 44 0 34 1;
#X connect 45 0 47 1;
#X connect 46 0 44 1;
#X connect 47 0 39 1;
#X connect 48 0 40 0;
#X connect 49 0 41 0;
#X connect 50 0 52 0;
#X connect 51 0 52 1;
#X connect 52 0 53 1;
#X connect 53 0 37 0;
#X connect 53 1 38 0;
#X connect 54 0 60 0;
#X connect 55 0 56 0;
#X connect 56 0 61 0;
#X connect 57 0 58 0;
#X connect 58 0 61 0;
#X connect 59 0 43 1;
#X connect 60 0 61 1;
#X connect 61 0 62 1;
#X connect 62 0 39 0;
#X connect 63 0 62 0;
#X coords 0 -1 1 1 140 995 1 100 100;
#X restore 465 -328 pd track-2;
#N canvas 0 50 1464 854 track-3 0;
#X obj 110 885 cosine-pan~;
#X obj 110 770 reverb~;
#X obj 953 973 r defaults;
#X obj 110 650 audio-delay~ 4000;
#X obj 110 532 eq3~;
#X obj 479 830 r defaults;
#X obj 477 716 r defaults;
#X obj 569 478 r defaults;
#X obj 612 184 r defaults;
#X obj 432 277 r defaults;
#X obj 273 302 r initialize;
#X obj 276 474 r initialize;
#X obj 277 591 r initialize;
#X obj 282 711 r initialize;
#X obj 280 826 r initialize;
#X obj 588 966 r initialize;
#X obj 265 161 r initialize;
#X obj 550 596 r defaults;
#X msg 479 851 position 0.5;
#X msg 550 616 wet 0 \, length 0 \, feedback 0;
#X msg 569 498 low 0.5 \, mid 0.5 \, high 0.5 \, gain 0.5;
#X msg 477 736 wet 0 \, size 0;
#X obj 276 515 eq3-control track-3-eq;
#X obj 277 633 audio-delay-control track-3-delay;
#X obj 282 753 reverb-control track-3-reverb;
#X obj 280 868 cosine-pan-control track-3-pan;
#X msg 265 192 blend 34 \, speed 35 \, purity 38 \, switch 35 \, phaselock
38 \, encoder-channel 1 \, toggle-channel 2;
#X msg 273 323 toggle 41 \, channel 2;
#X msg 276 495 low 42 \, mid 43 \, high 46 \, gain 47 \, channel 1
;
#X msg 277 612 feedback 37 \, wet 33 \, length 36 \, channel 1;
#X msg 282 732 wet 40 \, size 41 \, channel 1;
#X msg 280 847 position 44 \, channel 1;
#X obj 110 407 pitch-shifter~;
#X obj 534 327 r initialize;
#X obj 908 353 r defaults;
#X msg 534 348 fine 32 \, coarse 39 \, width 39 \, toggle 39 \, encoder-channel
1 \, toggle-channel 2;
#X obj 110 361 metal~;
#X obj 110 1120 s~ track-3-left;
#X obj 223 1119 s~ track-3-right;
#X obj 110 246 freeze~;
#X obj 277 924 / 127;
#X obj 387 924 / 127;
#X obj 110 940 file-recorder~;
#X obj 273 344 metal-control track-3-metal;
#X obj 265 229 freeze-control track-3-freeze;
#X obj 534 390 pitch-shifter-control track-3-pitch-shift;
#X msg 612 204 switch 0 \, blend 0 \, purity 0 \, phaselock 0 \, speed
0 \, on-color 40 \, off-color 0;
#X msg 432 297 toggle 0 \, on-color 40 \, off-color 0;
#X msg 908 373 fine 0 \, coarse 1 \, width 0 \, on-color 40 \, off-color
0;
#X obj 277 903 midi-toggle 47 2;
#X obj 387 903 midi-toggle 46 2;
#X msg 953 993 volume 0.5 \, mute 0 \, on-color 40 \, off-color 0;
#X obj 588 1008 channel-out-control track-3-out;
#X msg 588 987 volume 45 \, mute 45 \, encoder-channel 1 \, toggle-channel
2;
#X obj 110 1025 channel-out~;
#X obj 585 39 r defaults;
#X obj 223 22 r initialize;
#X msg 223 43 rec 32 \, play 36 \, stop 37 \, monitor 33 \, clear 44
\, channel 2 \, track-number 3;
#X obj 866 38 inlet bank;
#X msg 866 59 bank \$1;
#X msg 585 59 rec 0 \, monitor 0 \, on-color 40 \, off-color 0;
#X obj 223 75 looper-control track-3-looper;
#X obj 110 129 looper~;
#X obj 109 3 r~ audio;
#X connect 0 0 42 0;
#X connect 0 0 54 0;
#X connect 0 1 42 3;
#X connect 0 1 54 2;
#X connect 1 0 0 0;
#X connect 2 0 51 0;
#X connect 3 0 1 0;
#X connect 4 0 3 0;
#X connect 5 0 18 0;
#X connect 6 0 21 0;
#X connect 7 0 20 0;
#X connect 8 0 46 0;
#X connect 9 0 47 0;
#X connect 10 0 27 0;
#X connect 11 0 28 0;
#X connect 12 0 29 0;
#X connect 13 0 30 0;
#X connect 14 0 31 0;
#X connect 15 0 53 0;
#X connect 16 0 26 0;
#X connect 17 0 19 0;
#X connect 18 0 25 1;
#X connect 19 0 23 1;
#X connect 20 0 22 1;
#X connect 21 0 24 1;
#X connect 22 0 4 1;
#X connect 23 0 3 1;
#X connect 24 0 1 1;
#X connect 25 0 0 1;
#X connect 26 0 44 0;
#X connect 27 0 43 0;
#X connect 28 0 22 0;
#X connect 29 0 23 0;
#X connect 30 0 24 0;
#X connect 31 0 25 0;
#X connect 32 0 4 0;
#X connect 33 0 35 0;
#X connect 34 0 48 0;
#X connect 35 0 45 0;
#X connect 36 0 32 0;
#X connect 39 0 36 0;
#X connect 40 0 42 1;
#X connect 41 0 42 2;
#X connect 42 0 54 0;
#X connect 42 1 54 2;
#X connect 43 0 36 1;
#X connect 44 0 39 1;
#X connect 45 0 32 1;
#X connect 46 0 44 1;
#X connect 47 0 43 1;
#X connect 48 0 45 1;
#X connect 49 0 40 0;
#X connect 50 0 41 0;
#X connect 51 0 52 1;
#X connect 52 0 54 1;
#X connect 53 0 52 0;
#X connect 54 0 37 0;
#X connect 54 1 38 0;
#X connect 55 0 60 0;
#X connect 56 0 57 0;
#X connect 57 0 61 0;
#X connect 58 0 59 0;
#X connect 59 0 61 0;
#X connect 60 0 61 1;
#X connect 61 0 62 1;
#X connect 62 0 39 0;
#X connect 63 0 62 0;
#X coords 0 -1 1 1 140 995 1 100 100;
#X restore 610 -328 pd track-3;
#X obj -89 -175 s defaults;
#X obj -89 -281 state-manager;
#N canvas 0 50 832 678 rec 0;
#X obj 112 41 r~ track-2-left;
#X obj 112 21 r~ track-1-left;
#X obj 112 61 r~ track-3-left;
#X obj 225 41 r~ track-2-right;
#X obj 225 21 r~ track-1-right;
#X obj 225 61 r~ track-3-right;
#X obj 149 239 dac~;
#X obj 112 123 file-recorder~;
#X obj 225 81 r~ track-4-right;
#X obj 112 81 r~ track-4-left;
#X connect 0 0 7 0;
#X connect 1 0 7 0;
#X connect 2 0 7 0;
#X connect 3 0 7 3;
#X connect 4 0 7 3;
#X connect 5 0 7 3;
#X connect 7 0 6 0;
#X connect 7 1 6 1;
#X connect 8 0 7 3;
#X connect 9 0 7 0;
#X coords 0 -1 1 1 145 110 1 100 100;
#X restore 1000 -523 pd rec;
#X obj -33 -319 midi-button 10 4;
#X obj 24 -301 midi-button 13 4;
#X obj 18 -575 declare -stdpath zexy -stdlib zexy;
#N canvas 122 162 1349 866 navigation 0;
#X msg 248 85 1;
#X msg 327 82 -1;
#X obj 294 125 +;
#X obj 359 131 int;
#X floatatom 355 179 5 0 0 0 - - -, f 5;
#X obj 248 39 midi-button 8 4;
#X obj 327 59 midi-button 9 4;
#X obj 441 166 bng 15 250 50 0 empty empty empty 17 7 0 10 -262144
-1 -1;
#X obj 288 242 outlet;
#X obj 355 208 moses 1;
#X floatatom 116 317 5 0 0 0 - - -, f 5;
#X obj 116 235 bng 15 250 50 0 empty empty empty 17 7 0 10 -262144
-1 -1;
#X obj 152 271 + 1;
#X obj 116 270 int;
#X obj 173 391 file-exists;
#X obj 38 235 loadbang;
#X obj 173 414 sel 0;
#X msg 38 255 1;
#X obj 31 367 s \$0-initial-bank;
#X msg 173 367 ../memory/settings/\$1.txt;
#X obj 359 108 r \$0-initial-bank;
#X connect 0 0 2 0;
#X connect 1 0 2 0;
#X connect 2 0 3 0;
#X connect 3 0 2 1;
#X connect 3 0 4 0;
#X connect 4 0 8 0;
#X connect 4 0 9 0;
#X connect 5 0 0 0;
#X connect 6 0 1 0;
#X connect 7 0 0 0;
#X connect 9 0 7 0;
#X connect 10 0 19 0;
#X connect 10 0 18 0;
#X connect 11 0 13 0;
#X connect 12 0 13 1;
#X connect 13 0 10 0;
#X connect 13 0 12 0;
#X connect 14 0 16 0;
#X connect 15 0 17 0;
#X connect 16 1 11 0;
#X connect 17 0 13 0;
#X connect 19 0 14 0;
#X connect 20 0 3 0;
#X restore -89 -389 pd navigation;
#X obj 126 -286 s SAVE;
#X obj -81 -319 s BANK;
#X obj -88 -45 tap-tempo;
#X obj -88 23 s TEMPO;
#X floatatom 7 -67 5 0 0 0 - - -, f 5;
#X floatatom -10 22 5 0 0 0 - - -, f 5;
#X obj 16 -115 sssad timing-ms;
#X obj -23 -89 loadbang;
#X msg -23 -68 800;
#X obj -88 -115 midi-button 6 2;
#X obj -86 85 r TEMPO;
#X obj -86 105 metronome;
#X obj 190 117 r defaults;
#X obj 7 110 r initialize;
#X msg 190 137 volume 0;
#X obj 863 -522 midi-observer;
#X obj 369 -521 midi-thru;
#X obj 480 -499 bng 15 250 50 0 empty empty empty 17 7 0 10 -262144
-1 -1;
#X obj 480 -476 s PLAY-ALL;
#X obj 480 -522 midi-button 19 4;
#X obj 605 -522 midi-button 31 4;
#N canvas 0 23 1143 779 midi-track-1 0;
#X obj 106 -76 r TEMPO;
#X obj 205 20 r BANK;
#X msg 205 41 symbol \$1-1;
#X obj 134 -38 r toggle-all;
#X obj 182 2 midi-toggle 11 2;
#X obj 135 -57 midi-button 10 2;
#X obj 157 -18 midi-button 14 4;
#X msg 229 80 10;
#X obj 228 61 r initialize;
#X obj 105 129 midi-looper 1 track-1;
#X connect 0 0 9 0;
#X connect 1 0 2 0;
#X connect 2 0 9 4;
#X connect 3 0 9 1;
#X connect 4 0 9 3;
#X connect 5 0 9 1;
#X connect 6 0 9 2;
#X connect 7 0 9 5;
#X connect 8 0 7 0;
#X coords 0 -1 1 1 140 140 1 100 100;
#X restore 769 -327 pd midi-track-1;
#N canvas 0 23 759 563 midi-track-2 0;
#X obj 104 -75 r TEMPO;
#X obj 203 21 r BANK;
#X msg 203 42 symbol \$1-2;
#X obj 129 -37 r toggle-all;
#X obj 155 -17 midi-button 15 4;
#X obj 129 -57 midi-button 26 2;
#X obj 180 3 midi-toggle 27 2;
#X obj 226 62 r initialize;
#X msg 227 81 26;
#X obj 104 128 midi-looper 1 track-2;
#X connect 0 0 9 0;
#X connect 1 0 2 0;
#X connect 2 0 9 4;
#X connect 3 0 9 1;
#X connect 4 0 9 2;
#X connect 5 0 9 1;
#X connect 6 0 9 3;
#X connect 7 0 8 0;
#X connect 8 0 9 5;
#X coords 0 -1 1 1 140 140 1 100 100;
#X restore 924 -327 pd midi-track-2;
#N canvas 0 23 659 530 midi-track-3 0;
#X obj 106 -77 r TEMPO;
#X obj 205 19 r BANK;
#X msg 205 40 symbol \$1-3;
#X obj 132 -39 r toggle-all;
#X obj 157 -19 midi-button 16 4;
#X obj 133 -58 midi-button 42 2;
#X obj 182 1 midi-toggle 43 2;
#X obj 228 60 r initialize;
#X msg 229 79 42;
#X obj 105 129 midi-looper 1 track-3;
#X connect 0 0 9 0;
#X connect 1 0 2 0;
#X connect 2 0 9 4;
#X connect 3 0 9 1;
#X connect 4 0 9 2;
#X connect 5 0 9 1;
#X connect 6 0 9 3;
#X connect 7 0 8 0;
#X connect 8 0 9 5;
#X coords 0 -1 1 1 140 140 1 100 100;
#X restore 1079 -327 pd midi-track-3;
#X obj -80 -364 pgmout;
#N canvas 499 80 1181 948 track-4 0;
#X obj 111 126 sample-grid~ 48;
#X obj 111 336 audio-delay~ 4000;
#X obj 111 451 reverb~;
#X obj 111 271 line-control~;
#X obj 589 631 r defaults;
#X obj 240 622 r initialize;
#X obj 714 222 r defaults;
#X obj 508 215 r initialize;
#X msg 714 242 volume 0.5;
#X obj 696 401 r defaults;
#X obj 243 275 r initialize;
#X obj 506 392 r initialize;
#X obj 504 286 r defaults;
#X msg 504 306 wet 0 \, length 0 \, feedback 0;
#X msg 696 421 wet 0 \, size 0;
#X obj 243 321 audio-delay-control track-4-delay;
#X obj 506 436 reverb-control track-4-reverb;
#X msg 243 300 feedback 51 \, wet 49 \, length 50 \, channel 1;
#X msg 506 413 wet 52 \, size 53 \, channel 1;
#X obj 111 760 s~ track-4-left;
#X obj 224 759 s~ track-4-right;
#X obj 310 423 sample-recorder~;
#X obj 354 373 adc~;
#X obj 366 396 midi-toggle 59 2;
#X msg 589 651 volume 0.8 \, mute 0 \, on-color 100 \, off-color 0
;
#X obj 240 666 channel-out-control track-4-out;
#X obj 508 257 channel-out-control track-4-line;
#X obj 111 681 channel-out~;
#X msg 508 236 volume 48 \, encoder-channel 1;
#X obj 663 515 r defaults;
#X msg 240 644 volume 63 \, mute 63 \, encoder-channel 1 \, toggle-channel
2;
#X obj 283 499 r initialize;
#X msg 283 520 rec 56 \, play 57 \, stop 58 \, clear 28 \, monitor
999 \, channel 2 \, clear-channel 4 \, track-number 4;
#X obj 935 513 inlet bank;
#X msg 935 535 bank \$1;
#X msg 663 535 rec 0 \, monitor 1 \, on-color 100 \, off-color 0;
#X obj 283 551 looper-control track-4-looper;
#X obj 111 566 looper~;
#X connect 0 0 3 0;
#X connect 1 0 2 0;
#X connect 2 0 37 0;
#X connect 3 0 1 0;
#X connect 4 0 24 0;
#X connect 5 0 30 0;
#X connect 6 0 8 0;
#X connect 7 0 28 0;
#X connect 8 0 26 1;
#X connect 9 0 14 0;
#X connect 10 0 17 0;
#X connect 11 0 18 0;
#X connect 12 0 13 0;
#X connect 13 0 15 1;
#X connect 14 0 16 1;
#X connect 15 0 1 1;
#X connect 16 0 2 1;
#X connect 17 0 15 0;
#X connect 18 0 16 0;
#X connect 22 0 21 0;
#X connect 22 1 21 2;
#X connect 23 0 21 1;
#X connect 24 0 25 1;
#X connect 25 0 27 1;
#X connect 26 0 3 1;
#X connect 27 0 19 0;
#X connect 27 1 20 0;
#X connect 28 0 26 0;
#X connect 29 0 35 0;
#X connect 30 0 25 0;
#X connect 31 0 32 0;
#X connect 32 0 36 0;
#X connect 33 0 34 0;
#X connect 34 0 36 0;
#X connect 35 0 36 1;
#X connect 36 0 37 1;
#X connect 37 0 27 0;
#X connect 37 0 27 2;
#X coords 0 -1 1 1 400 650 1 100 100;
#X restore 1235 -328 pd track-4;
#X obj -86 171 channel-out~;
#X obj 742 -479 s RECORD-ALL;
#X obj 742 -524 midi-toggle 64 2;
#X obj 742 -502 tgl 15 0 empty empty empty 17 7 0 10 -262144 -1 -1
0 1;
#X msg 8 131 volume 6 \, encoder-channel 1;
#X floatatom -89 -342 5 0 0 0 - - -, f 5;
#X obj 7 151 channel-out-control metronome;
#X obj 299 -468 s~ audio;
#X obj 299 -488 adc~;
#X msg 299 -524 set 7;
#X msg 299 -506 set 2;
#X obj 605 -475 midi-panic;
#X obj 605 -498 bng 15 250 50 0 empty empty empty 17 7 0 10 -262144
-1 -1;
#X connect 0 0 1 0;
#X connect 0 0 2 0;
#X connect 3 0 1 0;
#X connect 8 0 7 0;
#X connect 10 0 8 1;
#X connect 11 0 8 2;
#X connect 11 0 14 0;
#X connect 13 0 38 0;
#X connect 13 0 45 0;
#X connect 16 0 17 0;
#X connect 16 1 19 0;
#X connect 18 0 16 1;
#X connect 19 0 20 1;
#X connect 20 0 18 0;
#X connect 21 0 22 0;
#X connect 22 0 16 1;
#X connect 23 0 16 0;
#X connect 24 0 25 0;
#X connect 25 0 40 0;
#X connect 25 0 40 2;
#X connect 26 0 28 0;
#X connect 27 0 44 0;
#X connect 28 0 46 1;
#X connect 31 0 32 0;
#X connect 33 0 31 0;
#X connect 34 0 52 0;
#X connect 42 0 43 0;
#X connect 43 0 41 0;
#X connect 44 0 46 0;
#X connect 45 0 8 0;
#X connect 45 0 15 0;
#X connect 45 0 4 0;
#X connect 45 0 5 0;
#X connect 45 0 6 0;
#X connect 45 0 39 0;
#X connect 46 0 40 1;
#X connect 48 0 47 0;
#X connect 49 0 48 0;
#X connect 50 0 48 0;
#X connect 52 0 51 0;
