#N canvas 0 23 1440 855 10;
#X declare -stdpath zexy -stdlib zexy;
#X obj -89 -576 loadbang-dsp;
#X obj -89 -535 s defaults;
#X obj -89 -555 s initialize;
#X obj -8 -550 bng 15 250 50 0 empty empty empty 17 7 0 10 -262144
-1 -1;
#N canvas 395 23 1038 855 track-1 0;
#X obj 110 884 cosine-pan~;
#X obj 110 769 reverb~;
#X obj 884 976 r defaults;
#X obj 110 651 audio-delay~ 4000;
#X obj 110 246 freeze~;
#X obj 110 535 eq3~;
#X obj 489 829 r defaults;
#X obj 520 716 r defaults;
#X obj 579 481 r defaults;
#X obj 632 184 r defaults;
#X obj 442 279 r defaults;
#X obj 570 40 r defaults;
#X msg 262 611 feedback 5 \, wet 1 \, length 4 \, channel 1;
#X msg 286 498 low 10 \, mid 11 \, high 14 \, gain 15 \, channel 1
;
#X obj 286 518 eq3-control track-1-eq;
#X obj 262 632 audio-delay-control track-1-delay;
#X obj 264 752 reverb-control track-1-reverb;
#X msg 264 729 wet 8 \, size 9 \, channel 1;
#X obj 290 867 cosine-pan-control track-1-pan;
#X msg 290 846 position 12 \, channel 1;
#X obj 528 1011 channel-out-control track-1-out;
#X obj 283 345 metal-control track-1-metal;
#X msg 283 324 toggle 9 \, channel 2;
#X obj 283 303 r initialize;
#X obj 286 477 r initialize;
#X obj 262 586 r initialize;
#X obj 264 708 r initialize;
#X obj 290 825 r initialize;
#X obj 528 969 r initialize;
#X obj 275 161 r initialize;
#X obj 540 595 r defaults;
#X msg 489 850 position 0.5;
#X msg 540 615 wet 0 \, length 0 \, feedback 0;
#X msg 579 501 low 0.5 \, mid 0.5 \, high 0.5 \, gain 0.5;
#X msg 520 736 wet 0 \, size 0;
#X obj 110 362 metal~;
#X obj 110 408 pitch-shifter~;
#X obj 542 388 pitch-shifter-control track-1-pitch-shift;
#X obj 542 325 r initialize;
#X obj 916 351 r defaults;
#X msg 542 346 fine 0 \, coarse 7 \, width 7 \, toggle 7 \, encoder-channel
1 \, toggle-channel 2;
#X obj 110 1123 s~ track-1-left;
#X obj 223 1122 s~ track-1-right;
#X obj 277 924 / 127;
#X obj 387 924 / 127;
#X obj 110 940 file-recorder~;
#X msg 632 204 switch 0 \, blend 0 \, purity 0 \, phaselock 0 \, speed
0 \, on-color 23 \, off-color 0;
#X msg 442 299 toggle 0 \, on-color 23 \, off-color 0;
#X msg 916 371 fine 0 \, coarse 1 \, width 0 \, on-color 23 \, off-color
0;
#X obj 275 229 freeze-control track-1-freeze;
#X obj 277 903 midi-toggle 15 2;
#X obj 387 903 midi-toggle 14 2;
#X msg 528 990 volume 13 \, mute 13 \, encoder-channel 1 \, toggle-channel
2;
#X msg 885 996 volume 0.5 \, mute 0 \, on-color 23 \, off-color 0;
#X obj 110 1026 channel-out~;
#X msg 223 44 rec 0 \, play 4 \, stop 5 \, monitor 1 \, clear 12 \,
channel 2 \, track-number 1;
#X obj 797 40 inlet bank;
#X msg 797 60 bank \$1;
#X obj 223 23 r initialize;
#X obj 109 2 r~ audio;
#X obj 110 129 looper~;
#X msg 275 192 blend 2 \, speed 3 \, purity 3 \, switch 3 \, encoder-channel
1 \, toggle-channel 2;
#X obj 223 76 looper-control track-1-looper;
#X msg 570 60 monitor 0 \, on-color 23 \, off-color 0;
#X connect 0 0 45 0;
#X connect 0 0 54 0;
#X connect 0 1 45 3;
#X connect 0 1 54 2;
#X connect 1 0 0 0;
#X connect 2 0 53 0;
#X connect 3 0 1 0;
#X connect 4 0 35 0;
#X connect 5 0 3 0;
#X connect 6 0 31 0;
#X connect 7 0 34 0;
#X connect 8 0 33 0;
#X connect 9 0 46 0;
#X connect 10 0 47 0;
#X connect 11 0 63 0;
#X connect 12 0 15 0;
#X connect 13 0 14 0;
#X connect 14 0 5 1;
#X connect 15 0 3 1;
#X connect 16 0 1 1;
#X connect 17 0 16 0;
#X connect 18 0 0 1;
#X connect 19 0 18 0;
#X connect 20 0 54 1;
#X connect 21 0 35 1;
#X connect 22 0 21 0;
#X connect 23 0 22 0;
#X connect 24 0 13 0;
#X connect 25 0 12 0;
#X connect 26 0 17 0;
#X connect 27 0 19 0;
#X connect 28 0 52 0;
#X connect 29 0 61 0;
#X connect 30 0 32 0;
#X connect 31 0 18 1;
#X connect 32 0 15 1;
#X connect 33 0 14 1;
#X connect 34 0 16 1;
#X connect 35 0 36 0;
#X connect 36 0 5 0;
#X connect 37 0 36 1;
#X connect 38 0 40 0;
#X connect 39 0 48 0;
#X connect 40 0 37 0;
#X connect 43 0 45 1;
#X connect 44 0 45 2;
#X connect 45 0 54 0;
#X connect 45 1 54 2;
#X connect 46 0 49 1;
#X connect 47 0 21 1;
#X connect 48 0 37 1;
#X connect 49 0 4 1;
#X connect 50 0 43 0;
#X connect 51 0 44 0;
#X connect 52 0 20 0;
#X connect 53 0 20 1;
#X connect 54 0 41 0;
#X connect 54 1 42 0;
#X connect 55 0 62 0;
#X connect 56 0 57 0;
#X connect 57 0 62 0;
#X connect 58 0 55 0;
#X connect 59 0 60 0;
#X connect 60 0 4 0;
#X connect 61 0 49 0;
#X connect 62 0 60 1;
#X connect 63 0 62 1;
#X coords 0 -1 1 1 140 995 1 100 100;
#X restore 322 -328 pd track-1;
#N canvas 10 23 1430 803 track-2 0;
#X obj 110 886 cosine-pan~;
#X obj 110 771 reverb~;
#X obj 947 975 r defaults;
#X obj 110 651 audio-delay~ 4000;
#X obj 110 533 eq3~;
#X obj 479 831 r defaults;
#X obj 477 717 r defaults;
#X obj 569 479 r defaults;
#X obj 643 184 r defaults;
#X obj 432 276 r defaults;
#X obj 273 302 r initialize;
#X obj 276 475 r initialize;
#X obj 277 592 r initialize;
#X obj 282 712 r initialize;
#X obj 280 827 r initialize;
#X obj 598 968 r initialize;
#X obj 265 161 r initialize;
#X obj 550 597 r defaults;
#X msg 479 852 position 0.5;
#X msg 550 617 wet 0 \, length 0 \, feedback 0;
#X msg 569 499 low 0.5 \, mid 0.5 \, high 0.5 \, gain 0.5;
#X msg 477 737 wet 0 \, size 0;
#X msg 273 323 toggle 25 \, channel 2;
#X msg 276 496 low 26 \, mid 27 \, high 30 \, gain 31 \, channel 1
;
#X msg 277 613 feedback 21 \, wet 17 \, length 20 \, channel 1;
#X msg 282 733 wet 24 \, size 25 \, channel 1;
#X msg 280 848 position 28 \, channel 1;
#X obj 276 516 eq3-control track-2-eq;
#X obj 277 634 audio-delay-control track-2-delay;
#X obj 282 754 reverb-control track-2-reverb;
#X obj 280 869 cosine-pan-control track-2-pan;
#X obj 534 327 r initialize;
#X obj 908 353 r defaults;
#X obj 110 407 pitch-shifter~;
#X msg 534 348 fine 16 \, coarse 23 \, width 23 \, toggle 23 \, encoder-channel
1 \, toggle-channel 2;
#X obj 110 361 metal~;
#X obj 110 1125 s~ track-2-left;
#X obj 223 1124 s~ track-2-right;
#X obj 110 246 freeze~;
#X obj 277 924 / 127;
#X obj 387 924 / 127;
#X obj 110 940 file-recorder~;
#X obj 273 344 metal-control track-2-metal;
#X obj 534 390 pitch-shifter-control track-2-pitch-shift;
#X msg 643 204 switch 0 \, blend 0 \, purity 0 \, phaselock 0 \, speed
0 \, on-color 90 \, off-color 0;
#X msg 908 373 fine 0 \, coarse 1 \, width 0 \, on-color 90 \, off-color
0;
#X obj 277 903 midi-toggle 31 2;
#X obj 387 903 midi-toggle 30 2;
#X msg 598 989 volume 29 \, mute 29 \, encoder-channel 1 \, toggle-channel
2;
#X msg 947 995 volume 0.5 \, mute 0 \, on-color 90 \, off-color 0;
#X obj 598 1010 channel-out-control track-2-out;
#X obj 110 1027 channel-out~;
#X obj 585 36 r defaults;
#X obj 223 19 r initialize;
#X msg 223 40 rec 16 \, play 20 \, stop 21 \, monitor 17 \, clear 28
\, channel 2 \, track-number 2;
#X obj 828 33 inlet bank;
#X msg 828 57 bank \$1;
#X msg 432 296 toggle 0 \, on-color 90 \, off-color 0;
#X obj 110 16 r~ audio;
#X msg 265 192 blend 18 \, speed 19 \, purity 22 \, switch 19 \, encoder-channel
1 \, toggle-channel 2;
#X msg 585 56 monitor 0 \, on-color 90 \, off-color 0;
#X obj 110 129 looper~;
#X obj 223 72 looper-control track-2-looper;
#X obj 265 229 freeze-control track-2-freeze;
#X connect 0 0 41 0;
#X connect 0 0 51 0;
#X connect 0 1 41 3;
#X connect 0 1 51 2;
#X connect 1 0 0 0;
#X connect 2 0 49 0;
#X connect 3 0 1 0;
#X connect 4 0 3 0;
#X connect 5 0 18 0;
#X connect 6 0 21 0;
#X connect 7 0 20 0;
#X connect 8 0 44 0;
#X connect 9 0 57 0;
#X connect 10 0 22 0;
#X connect 11 0 23 0;
#X connect 12 0 24 0;
#X connect 13 0 25 0;
#X connect 14 0 26 0;
#X connect 15 0 48 0;
#X connect 16 0 59 0;
#X connect 17 0 19 0;
#X connect 18 0 30 1;
#X connect 19 0 28 1;
#X connect 20 0 27 1;
#X connect 21 0 29 1;
#X connect 22 0 42 0;
#X connect 23 0 27 0;
#X connect 24 0 28 0;
#X connect 25 0 29 0;
#X connect 26 0 30 0;
#X connect 27 0 4 1;
#X connect 28 0 3 1;
#X connect 29 0 1 1;
#X connect 30 0 0 1;
#X connect 31 0 34 0;
#X connect 32 0 45 0;
#X connect 33 0 4 0;
#X connect 34 0 43 0;
#X connect 35 0 33 0;
#X connect 38 0 35 0;
#X connect 39 0 41 1;
#X connect 40 0 41 2;
#X connect 41 0 51 0;
#X connect 41 1 51 2;
#X connect 42 0 35 1;
#X connect 43 0 33 1;
#X connect 44 0 63 1;
#X connect 45 0 43 1;
#X connect 46 0 39 0;
#X connect 47 0 40 0;
#X connect 48 0 50 0;
#X connect 49 0 50 1;
#X connect 50 0 51 1;
#X connect 51 0 36 0;
#X connect 51 1 37 0;
#X connect 52 0 60 0;
#X connect 53 0 54 0;
#X connect 54 0 62 0;
#X connect 55 0 56 0;
#X connect 56 0 62 0;
#X connect 57 0 42 1;
#X connect 58 0 61 0;
#X connect 59 0 63 0;
#X connect 60 0 62 1;
#X connect 61 0 38 0;
#X connect 62 0 61 1;
#X connect 63 0 38 1;
#X coords 0 -1 1 1 140 995 1 100 100;
#X restore 465 -328 pd track-2;
#N canvas 0 24 1440 854 track-3 0;
#X obj 110 885 cosine-pan~;
#X obj 110 770 reverb~;
#X obj 953 973 r defaults;
#X obj 110 650 audio-delay~ 4000;
#X obj 110 532 eq3~;
#X obj 479 830 r defaults;
#X obj 477 716 r defaults;
#X obj 569 478 r defaults;
#X obj 642 184 r defaults;
#X obj 432 277 r defaults;
#X obj 273 302 r initialize;
#X obj 276 474 r initialize;
#X obj 277 591 r initialize;
#X obj 282 711 r initialize;
#X obj 280 826 r initialize;
#X obj 588 966 r initialize;
#X obj 265 161 r initialize;
#X obj 550 596 r defaults;
#X msg 479 851 position 0.5;
#X msg 550 616 wet 0 \, length 0 \, feedback 0;
#X msg 569 498 low 0.5 \, mid 0.5 \, high 0.5 \, gain 0.5;
#X msg 477 736 wet 0 \, size 0;
#X obj 276 515 eq3-control track-3-eq;
#X obj 277 633 audio-delay-control track-3-delay;
#X obj 282 753 reverb-control track-3-reverb;
#X obj 280 868 cosine-pan-control track-3-pan;
#X msg 273 323 toggle 41 \, channel 2;
#X msg 276 495 low 42 \, mid 43 \, high 46 \, gain 47 \, channel 1
;
#X msg 277 612 feedback 37 \, wet 33 \, length 36 \, channel 1;
#X msg 282 732 wet 40 \, size 41 \, channel 1;
#X msg 280 847 position 44 \, channel 1;
#X obj 110 407 pitch-shifter~;
#X obj 534 327 r initialize;
#X obj 908 353 r defaults;
#X msg 534 348 fine 32 \, coarse 39 \, width 39 \, toggle 39 \, encoder-channel
1 \, toggle-channel 2;
#X obj 110 361 metal~;
#X obj 110 1120 s~ track-3-left;
#X obj 223 1119 s~ track-3-right;
#X obj 110 246 freeze~;
#X obj 277 924 / 127;
#X obj 387 924 / 127;
#X obj 110 940 file-recorder~;
#X obj 273 344 metal-control track-3-metal;
#X obj 534 390 pitch-shifter-control track-3-pitch-shift;
#X msg 642 204 switch 0 \, blend 0 \, purity 0 \, phaselock 0 \, speed
0 \, on-color 40 \, off-color 0;
#X msg 432 297 toggle 0 \, on-color 40 \, off-color 0;
#X msg 908 373 fine 0 \, coarse 1 \, width 0 \, on-color 40 \, off-color
0;
#X obj 277 903 midi-toggle 47 2;
#X obj 387 903 midi-toggle 46 2;
#X msg 953 993 volume 0.5 \, mute 0 \, on-color 40 \, off-color 0;
#X obj 588 1008 channel-out-control track-3-out;
#X msg 588 987 volume 45 \, mute 45 \, encoder-channel 1 \, toggle-channel
2;
#X obj 110 1025 channel-out~;
#X obj 585 39 r defaults;
#X obj 223 22 r initialize;
#X msg 223 43 rec 32 \, play 36 \, stop 37 \, monitor 33 \, clear 44
\, channel 2 \, track-number 3;
#X obj 816 38 inlet bank;
#X msg 816 59 bank \$1;
#X obj 109 3 r~ audio;
#X msg 265 192 blend 34 \, speed 35 \, purity 38 \, switch 35 \, encoder-channel
1 \, toggle-channel 2;
#X msg 585 59 monitor 0 \, on-color 40 \, off-color 0;
#X obj 110 129 looper~;
#X obj 223 75 looper-control track-3-looper;
#X obj 265 229 freeze-control track-3-freeze;
#X connect 0 0 41 0;
#X connect 0 0 52 0;
#X connect 0 1 41 3;
#X connect 0 1 52 2;
#X connect 1 0 0 0;
#X connect 2 0 49 0;
#X connect 3 0 1 0;
#X connect 4 0 3 0;
#X connect 5 0 18 0;
#X connect 6 0 21 0;
#X connect 7 0 20 0;
#X connect 8 0 44 0;
#X connect 9 0 45 0;
#X connect 10 0 26 0;
#X connect 11 0 27 0;
#X connect 12 0 28 0;
#X connect 13 0 29 0;
#X connect 14 0 30 0;
#X connect 15 0 51 0;
#X connect 16 0 59 0;
#X connect 17 0 19 0;
#X connect 18 0 25 1;
#X connect 19 0 23 1;
#X connect 20 0 22 1;
#X connect 21 0 24 1;
#X connect 22 0 4 1;
#X connect 23 0 3 1;
#X connect 24 0 1 1;
#X connect 25 0 0 1;
#X connect 26 0 42 0;
#X connect 27 0 22 0;
#X connect 28 0 23 0;
#X connect 29 0 24 0;
#X connect 30 0 25 0;
#X connect 31 0 4 0;
#X connect 32 0 34 0;
#X connect 33 0 46 0;
#X connect 34 0 43 0;
#X connect 35 0 31 0;
#X connect 38 0 35 0;
#X connect 39 0 41 1;
#X connect 40 0 41 2;
#X connect 41 0 52 0;
#X connect 41 1 52 2;
#X connect 42 0 35 1;
#X connect 43 0 31 1;
#X connect 44 0 63 1;
#X connect 45 0 42 1;
#X connect 46 0 43 1;
#X connect 47 0 39 0;
#X connect 48 0 40 0;
#X connect 49 0 50 1;
#X connect 50 0 52 1;
#X connect 51 0 50 0;
#X connect 52 0 36 0;
#X connect 52 1 37 0;
#X connect 53 0 60 0;
#X connect 54 0 55 0;
#X connect 55 0 62 0;
#X connect 56 0 57 0;
#X connect 57 0 62 0;
#X connect 58 0 61 0;
#X connect 59 0 63 0;
#X connect 60 0 62 1;
#X connect 61 0 38 0;
#X connect 62 0 61 1;
#X connect 63 0 38 1;
#X coords 0 -1 1 1 140 995 1 100 100;
#X restore 610 -328 pd track-3;
#X obj -89 -175 s defaults;
#X obj -89 -281 state-manager;
#N canvas 0 50 832 678 rec 0;
#X obj 112 41 r~ track-2-left;
#X obj 112 21 r~ track-1-left;
#X obj 112 61 r~ track-3-left;
#X obj 225 41 r~ track-2-right;
#X obj 225 21 r~ track-1-right;
#X obj 225 61 r~ track-3-right;
#X obj 149 239 dac~;
#X obj 112 123 file-recorder~;
#X obj 225 81 r~ track-4-right;
#X obj 112 81 r~ track-4-left;
#X connect 0 0 7 0;
#X connect 1 0 7 0;
#X connect 2 0 7 0;
#X connect 3 0 7 3;
#X connect 4 0 7 3;
#X connect 5 0 7 3;
#X connect 7 0 6 0;
#X connect 7 1 6 1;
#X connect 8 0 7 3;
#X connect 9 0 7 0;
#X coords 0 -1 1 1 145 110 1 100 100;
#X restore 985 -523 pd rec;
#X obj -33 -319 midi-button 10 4;
#X obj 24 -301 midi-button 13 4;
#X obj 18 -575 declare -stdpath zexy -stdlib zexy;
#N canvas 91 23 1349 855 navigation 0;
#X msg 248 85 1;
#X msg 327 82 -1;
#X obj 294 125 +;
#X obj 359 131 int;
#X floatatom 355 179 5 0 0 0 - - -, f 5;
#X obj 248 39 midi-button 8 4;
#X obj 327 59 midi-button 9 4;
#X obj 441 166 bng 15 250 50 0 empty empty empty 17 7 0 10 -262144
-1 -1;
#X obj 288 242 outlet;
#X obj 355 208 moses 1;
#X floatatom 116 317 5 0 0 0 - - -, f 5;
#X obj 116 235 bng 15 250 50 0 empty empty empty 17 7 0 10 -262144
-1 -1;
#X obj 152 271 + 1;
#X obj 116 270 int;
#X obj 173 391 file-exists;
#X obj 38 235 loadbang;
#X obj 173 414 sel 0;
#X msg 38 255 1;
#X obj 31 367 s \$0-initial-bank;
#X msg 173 367 ../memory/settings/\$1.txt;
#X obj 359 108 r \$0-initial-bank;
#X obj 200 440 delay 100;
#X connect 0 0 2 0;
#X connect 1 0 2 0;
#X connect 2 0 3 0;
#X connect 3 0 2 1;
#X connect 3 0 4 0;
#X connect 4 0 8 0;
#X connect 4 0 9 0;
#X connect 5 0 0 0;
#X connect 6 0 1 0;
#X connect 7 0 0 0;
#X connect 9 0 7 0;
#X connect 10 0 19 0;
#X connect 10 0 18 0;
#X connect 11 0 13 0;
#X connect 12 0 13 1;
#X connect 13 0 10 0;
#X connect 13 0 12 0;
#X connect 14 0 16 0;
#X connect 15 0 17 0;
#X connect 16 1 21 0;
#X connect 17 0 13 0;
#X connect 19 0 14 0;
#X connect 20 0 3 0;
#X connect 21 0 11 0;
#X restore -89 -389 pd navigation;
#X obj 126 -286 s SAVE;
#X obj -81 -319 s BANK;
#X obj -88 -26 tap-tempo;
#X obj -86 125 metronome;
#X obj 190 137 r defaults;
#X obj 7 130 r initialize;
#X msg 190 157 volume 0;
#X obj 848 -522 midi-observer;
#X obj 379 -521 midi-thru;
#X obj 490 -499 bng 15 250 50 0 empty empty empty 17 7 0 10 -262144
-1 -1;
#X obj 490 -476 s PLAY-ALL;
#X obj 490 -522 midi-button 19 4;
#X obj -80 -364 pgmout;
#N canvas 259 23 1181 855 track-4 0;
#X obj 111 126 sample-grid~ 48;
#X obj 111 336 audio-delay~ 4000;
#X obj 111 451 reverb~;
#X obj 111 271 line-control~;
#X obj -201 631 r defaults;
#X obj -550 622 r initialize;
#X obj -36 221 r defaults;
#X obj -242 214 r initialize;
#X msg -36 241 volume 0.5;
#X obj -24 401 r defaults;
#X obj -337 275 r initialize;
#X obj -214 392 r initialize;
#X obj -76 286 r defaults;
#X msg -76 306 wet 0 \, length 0 \, feedback 0;
#X msg -24 421 wet 0 \, size 0;
#X obj -337 321 audio-delay-control track-4-delay;
#X obj -214 436 reverb-control track-4-reverb;
#X msg -337 300 feedback 51 \, wet 49 \, length 50 \, channel 1;
#X msg -214 413 wet 52 \, size 53 \, channel 1;
#X obj 111 760 s~ track-4-left;
#X obj 224 759 s~ track-4-right;
#X obj 310 424 sample-recorder~;
#X obj 354 374 adc~;
#X obj 361 398 midi-toggle 59 2;
#X msg -201 651 volume 0.8 \, mute 0 \, on-color 100 \, off-color 0
;
#X obj -550 666 channel-out-control track-4-out;
#X obj -242 256 channel-out-control track-4-line;
#X obj 111 681 channel-out~;
#X msg -242 235 volume 48 \, encoder-channel 1;
#X obj -207 515 r defaults;
#X msg -550 644 volume 63 \, mute 63 \, encoder-channel 1 \, toggle-channel
2;
#X obj -587 499 r initialize;
#X obj 26 513 inlet bank;
#X msg 26 535 bank \$1;
#X msg -587 520 rec 56 \, play 57 \, stop 58 \, clear 28 \, channel
2 \, clear-channel 4 \, track-number 4;
#X obj 560 409 r~ post-fx-drum;
#X obj -27 601 s~ post-fx-drum;
#X obj 541 266 s current-drum;
#X obj 511 476 r current-drum;
#X obj 310 491 drum-sequencer;
#X obj 604 476 r clear-drum-sequence;
#X obj 460 476 r STEPS;
#N canvas 102 56 698 628 bounce-to-sample 0;
#X floatatom 233 250 5 0 0 0 - - -, f 5;
#X obj 192 276 sel 0;
#X obj 192 309 bng 15 250 50 0 empty empty empty 17 7 0 10 -262144
-1 -1;
#X obj 234 274 sel 15;
#X obj 317 306 bng 15 250 50 0 empty empty empty 17 7 0 10 -262144
-1 -1;
#X obj 233 230 spigot;
#X obj 266 205 tgl 15 0 empty empty empty 17 7 0 10 -262144 -1 -1 0
1;
#X obj 253 124 spigot;
#X obj 286 98 tgl 15 0 empty empty empty 17 7 0 10 -262144 -1 -1 0
1;
#X obj 253 150 sel 15;
#X msg 192 334 rec 1;
#X obj 235 293 delay 100;
#X msg 313 102 0;
#X obj 286 63 bng 15 250 50 0 empty empty bounce 17 7 0 10 -262144
-1 -1;
#X msg 317 361 rec 0;
#X obj 317 330 delay 100;
#X obj 226 501 outlet looper~;
#X obj 436 501 outlet drum-sequencer;
#X msg 371 362 clear 1;
#X obj 230 97 r STEPS;
#X obj 286 6 midi-button 31 4;
#X connect 0 0 3 0;
#X connect 0 0 1 0;
#X connect 1 0 2 0;
#X connect 2 0 10 0;
#X connect 3 0 11 0;
#X connect 4 0 6 0;
#X connect 4 0 12 0;
#X connect 4 0 15 0;
#X connect 5 0 0 0;
#X connect 6 0 5 1;
#X connect 7 0 9 0;
#X connect 8 0 7 1;
#X connect 9 0 6 0;
#X connect 10 0 16 0;
#X connect 11 0 4 0;
#X connect 12 0 8 0;
#X connect 13 0 8 0;
#X connect 14 0 16 0;
#X connect 15 0 14 0;
#X connect 15 0 18 0;
#X connect 18 0 17 0;
#X connect 19 0 5 0;
#X connect 19 0 7 0;
#X connect 20 0 13 0;
#X coords 0 -1 1 1 120 60 1 280 30;
#X restore 308 571 pd bounce-to-sample;
#X obj 421 636 s clear-drum-sequence;
#X msg -207 535 monitor 1 \, on-color 100 \, off-color 0;
#X obj 111 566 looper~;
#X obj -587 551 looper-control track-4-looper;
#X connect 0 0 37 0;
#X connect 0 1 3 0;
#X connect 1 0 2 0;
#X connect 2 0 36 0;
#X connect 2 0 45 0;
#X connect 3 0 1 0;
#X connect 4 0 24 0;
#X connect 5 0 30 0;
#X connect 6 0 8 0;
#X connect 7 0 28 0;
#X connect 8 0 26 1;
#X connect 9 0 14 0;
#X connect 10 0 17 0;
#X connect 11 0 18 0;
#X connect 12 0 13 0;
#X connect 13 0 15 1;
#X connect 14 0 16 1;
#X connect 15 0 1 1;
#X connect 16 0 2 1;
#X connect 17 0 15 0;
#X connect 18 0 16 0;
#X connect 22 0 21 0;
#X connect 22 1 21 2;
#X connect 23 0 21 1;
#X connect 24 0 25 1;
#X connect 25 0 27 1;
#X connect 26 0 3 1;
#X connect 27 0 19 0;
#X connect 27 1 20 0;
#X connect 28 0 26 0;
#X connect 29 0 44 0;
#X connect 30 0 25 0;
#X connect 31 0 34 0;
#X connect 32 0 33 0;
#X connect 33 0 46 0;
#X connect 34 0 46 0;
#X connect 35 0 21 0;
#X connect 35 0 21 2;
#X connect 38 0 39 1;
#X connect 39 0 45 0;
#X connect 40 0 39 2;
#X connect 41 0 39 0;
#X connect 42 0 45 1;
#X connect 42 1 43 0;
#X connect 44 0 46 1;
#X connect 45 0 27 0;
#X connect 45 0 27 2;
#X connect 46 0 45 1;
#X coords 0 -1 1 1 400 650 1 100 100;
#X restore 1250 -328 pd track-4;
#X obj -86 191 channel-out~;
#X obj 727 -478 s RECORD-ALL;
#X obj 727 -523 midi-toggle 64 2;
#X obj 727 -501 tgl 15 0 empty empty empty 17 7 0 10 -262144 -1 -1
0 1;
#X floatatom -89 -342 5 0 0 0 - - -, f 5;
#X obj 7 171 channel-out-control metronome;
#X obj 309 -468 s~ audio;
#X obj 309 -488 adc~;
#X msg 309 -524 set 7;
#X msg 309 -506 set 2;
#N canvas 136 57 1009 821 track-5 0;
#X obj 109 67 midi-to-audio~;
#X obj 109 324 audio-to-midi~;
#X obj 625 68 r defaults;
#X obj 860 68 inlet bank;
#X msg 860 88 bank \$1;
#X obj 251 51 r initialize;
#X obj 109 257 line-control~;
#X obj 462 206 r defaults;
#X obj 256 199 r initialize;
#X obj 256 241 channel-out-control track-5-out;
#X msg 463 226 volume 1 \, mute 0 \, on-color 23 \, off-color 0;
#X msg 256 220 mute 11 \, toggle-channel 2;
#X msg 625 88 monitor 0 \, on-color 23 \, off-color 0;
#X obj 109 119 looper~;
#X msg 251 72 rec 10 \, play 6 \, stop 2 \, clear 8 \, channel 2 \,
track-number 5;
#X obj 251 104 looper-control track-5-looper;
#X connect 0 0 13 0;
#X connect 2 0 12 0;
#X connect 3 0 4 0;
#X connect 4 0 15 0;
#X connect 5 0 14 0;
#X connect 6 0 1 0;
#X connect 7 0 10 0;
#X connect 8 0 11 0;
#X connect 9 0 6 1;
#X connect 10 0 9 1;
#X connect 11 0 9 0;
#X connect 12 0 15 1;
#X connect 13 0 6 0;
#X connect 14 0 15 0;
#X connect 15 0 13 1;
#X coords 0 -1 1 1 140 135 1 100 100;
#X restore 772 -328 pd track-5;
#N canvas 136 57 1009 821 track-6 0;
#X obj 109 67 midi-to-audio~;
#X obj 625 68 r defaults;
#X obj 860 68 inlet bank;
#X msg 860 88 bank \$1;
#X obj 251 51 r initialize;
#X obj 109 334 audio-to-midi~;
#X obj 109 267 line-control~;
#X obj 462 216 r defaults;
#X obj 256 209 r initialize;
#X msg 256 230 mute 27 \, toggle-channel 2;
#X obj 256 251 channel-out-control track-6-out;
#X msg 463 236 volume 1 \, mute 0 \, on-color 90 \, off-color 0;
#X msg 625 88 monitor 0 \, on-color 90 \, off-color 0;
#X obj 109 119 looper~;
#X msg 251 72 rec 26 \, play 22 \, stop 18 \, clear 24 \, channel 2
\, track-number 6;
#X obj 251 104 looper-control track-6-looper;
#X connect 0 0 13 0;
#X connect 1 0 12 0;
#X connect 2 0 3 0;
#X connect 3 0 15 0;
#X connect 4 0 14 0;
#X connect 6 0 5 0;
#X connect 7 0 11 0;
#X connect 8 0 9 0;
#X connect 9 0 10 0;
#X connect 10 0 6 1;
#X connect 11 0 10 1;
#X connect 12 0 15 1;
#X connect 13 0 6 0;
#X connect 14 0 15 0;
#X connect 15 0 13 1;
#X coords 0 -1 1 1 140 135 1 100 100;
#X restore 929 -328 pd track-6;
#N canvas 131 47 1009 821 track-7 0;
#X obj 109 67 midi-to-audio~;
#X obj 624 68 r defaults;
#X obj 860 69 inlet bank;
#X msg 860 89 bank \$1;
#X obj 251 51 r initialize;
#X obj 109 334 audio-to-midi~;
#X obj 109 267 line-control~;
#X obj 462 216 r defaults;
#X obj 256 209 r initialize;
#X msg 256 230 mute 43 \, toggle-channel 2;
#X obj 256 251 channel-out-control track-7-out;
#X msg 463 236 volume 1 \, mute 0 \, on-color 40 \, off-color 0;
#X msg 624 89 monitor 0 \, on-color 40 \, off-color 0;
#X obj 109 119 looper~;
#X msg 251 72 rec 42 \, play 38 \, stop 34 \, clear 40 \, channel 2
\, track-number 7;
#X obj 251 104 looper-control track-7-looper;
#X connect 0 0 13 0;
#X connect 1 0 12 0;
#X connect 2 0 3 0;
#X connect 3 0 15 0;
#X connect 4 0 14 0;
#X connect 6 0 5 0;
#X connect 7 0 11 0;
#X connect 8 0 9 0;
#X connect 9 0 10 0;
#X connect 10 0 6 1;
#X connect 11 0 10 1;
#X connect 12 0 15 1;
#X connect 13 0 6 0;
#X connect 14 0 15 0;
#X connect 15 0 13 1;
#X coords 0 -1 1 1 140 135 1 100 100;
#X restore 1087 -328 pd track-7;
#X obj -88 42 s BPM;
#N canvas 135 519 450 300 divide-clock 0;
#X obj 93 4 inlet;
#X obj 96 266 outlet;
#X floatatom 94 55 5 0 0 0 - - -, f 5;
#X obj 95 139 sel 0 4 8 12;
#X msg 95 174 1;
#X msg 129 174 0;
#X connect 0 0 2 0;
#X connect 2 0 3 0;
#X connect 3 0 4 0;
#X connect 3 1 5 0;
#X connect 3 2 5 0;
#X connect 3 3 5 0;
#X connect 4 0 1 0;
#X connect 5 0 1 0;
#X restore -86 105 pd divide-clock;
#N canvas 0 34 513 424 abl_link~ 0;
#X msg 238 20 tempo \$1;
#X floatatom 180 61 5 0 0 1 beat_time - -, f 5;
#X floatatom 143 79 5 0 0 1 phase - -, f 5;
#X floatatom 106 141 5 0 0 1 step - -, f 5;
#X floatatom 106 124 5 0 0 1 tempo - -, f 5;
#X obj 106 -11 tgl 15 0 empty empty empty 17 7 0 10 -262144 -1 -1 1
1;
#X msg 106 9 connect \$1;
#X obj 106 -33 loadbang-dsp;
#X obj 106 35 abl_link~ 4 0 4 120;
#X obj 238 -1 r BPM;
#X obj 106 163 s STEPS;
#X connect 0 0 8 0;
#X connect 3 0 10 0;
#X connect 5 0 6 0;
#X connect 6 0 8 0;
#X connect 7 0 5 0;
#X connect 8 0 3 0;
#X connect 8 1 2 0;
#X connect 8 2 1 0;
#X connect 8 3 4 0;
#X connect 9 0 0 0;
#X coords 0 -1 1 1 85 60 1 100 100;
#X restore -89 -137 pd abl_link~;
#X obj -86 85 r STEPS;
#X obj -88 -46 midi-button 22 4;
#X msg 8 151 volume 38 \, encoder-channel 1;
#X obj 608 -499 bng 15 250 50 0 empty empty empty 17 7 0 10 -262144
-1 -1;
#X obj 608 -476 s STOP-ALL;
#X obj 608 -522 midi-button 16 4;
#X obj 203 -482 s MASTER-TRACK;
#X msg 203 -502 4;
#X obj 203 -522 r initialize;
#X connect 0 0 1 0;
#X connect 0 0 2 0;
#X connect 3 0 1 0;
#X connect 8 0 7 0;
#X connect 10 0 8 1;
#X connect 11 0 8 2;
#X connect 11 0 14 0;
#X connect 13 0 26 0;
#X connect 13 0 32 0;
#X connect 16 0 41 0;
#X connect 17 0 28 0;
#X connect 17 0 28 2;
#X connect 18 0 20 0;
#X connect 19 0 46 0;
#X connect 20 0 33 1;
#X connect 23 0 24 0;
#X connect 25 0 23 0;
#X connect 30 0 31 0;
#X connect 31 0 29 0;
#X connect 32 0 8 0;
#X connect 32 0 15 0;
#X connect 32 0 4 0;
#X connect 32 0 5 0;
#X connect 32 0 6 0;
#X connect 32 0 27 0;
#X connect 32 0 38 0;
#X connect 32 0 39 0;
#X connect 32 0 40 0;
#X connect 33 0 28 1;
#X connect 35 0 34 0;
#X connect 36 0 35 0;
#X connect 37 0 35 0;
#X connect 42 0 17 0;
#X connect 44 0 42 0;
#X connect 45 0 16 0;
#X connect 46 0 33 0;
#X connect 47 0 48 0;
#X connect 49 0 47 0;
#X connect 51 0 50 0;
#X connect 52 0 51 0;
