#N canvas 415 76 1972 1234 10;
#X declare -stdpath zexy -stdlib zexy;
#X obj -89 -576 loadbang-dsp;
#X obj -89 -535 s defaults;
#X obj -89 -555 s initialize;
#X obj -8 -550 bng 15 250 50 0 empty empty empty 17 7 0 10 -262144
-1 -1;
#N canvas 0 33 948 1035 track-1 0;
#X obj 110 1026 channel-out~;
#X obj 110 884 cosine-pan~;
#X obj 110 769 reverb~;
#X obj 734 976 r defaults;
#X obj 194 -70 midi-toggle 1 2;
#X obj 141 -133 midi-toggle 0 2;
#X obj 110 129 looper-new~;
#X obj 110 651 audio-delay~ 4000;
#X obj 110 246 freeze~;
#X obj 110 535 eq3~;
#X obj 489 829 r defaults;
#X obj 520 716 r defaults;
#X obj 579 481 r defaults;
#X obj 592 184 r defaults;
#X obj 442 279 r defaults;
#X obj 228 15 r defaults;
#X obj 159 -112 midi-button 4 2;
#X obj 181 -91 midi-button 5 2;
#X obj 217 -49 midi-button 12 2;
#X msg 262 611 feedback 5 \, wet 1 \, length 4 \, channel 1;
#X msg 286 498 low 10 \, mid 11 \, high 14 \, gain 15 \, channel 1
;
#X obj 286 518 eq3-control track-1-eq;
#X obj 262 632 audio-delay-control track-1-delay;
#X obj 264 752 reverb-control track-1-reverb;
#X msg 264 729 wet 8 \, size 9 \, channel 1;
#X obj 290 867 cosine-pan-control track-1-pan;
#X msg 290 846 position 12 \, channel 1;
#X msg 528 990 volume 13 \, channel 1;
#X obj 528 1011 channel-out-control track-1-out;
#X msg 275 192 blend 2 \, speed 3 \, purity 6 \, switch 3 \, phaselock
6 \, encoder-channel 1 \, toggle-channel 2;
#X obj 283 345 metal-control track-1-metal;
#X msg 283 324 toggle 9 \, channel 2;
#X obj 283 303 r initialize;
#X obj 286 477 r initialize;
#X obj 262 586 r initialize;
#X obj 264 708 r initialize;
#X obj 290 825 r initialize;
#X obj 528 969 r initialize;
#X obj 275 161 r initialize;
#X obj 540 595 r defaults;
#X msg 489 850 position 0.5;
#X msg 734 996 volume 0.5;
#X msg 540 615 wet 0 \, length 0 \, feedback 0;
#X msg 579 501 low 0.5 \, mid 0.5 \, high 0.5 \, gain 0.5;
#X msg 520 736 wet 0 \, size 0;
#X obj 110 362 metal~;
#X obj 110 408 pitch-shifter~;
#X obj 542 388 pitch-shifter-control track-1-pitch-shift;
#X obj 542 325 r initialize;
#X obj 916 351 r defaults;
#X msg 542 346 fine 0 \, coarse 7 \, width 7 \, toggle 7 \, encoder-channel
1 \, toggle-channel 2;
#X obj 590 -90 inlet file-prefix;
#X msg 590 -65 symbol \$1-1;
#X msg 228 35 0;
#X obj 110 1123 s~ track-1-left;
#X obj 223 1122 s~ track-1-right;
#X obj 354 -43 ctlout 4 3;
#X obj 353 -124 sel 1;
#X msg 353 -74 12;
#X msg 385 -74 0;
#X obj 424 -43 ctlout 4 2;
#X msg 425 -74 127;
#X obj 353 -97 t b b;
#X obj 277 924 / 127;
#X obj 387 924 / 127;
#X obj 110 940 file-recorder~;
#X msg 592 204 switch 0 \, blend 0 \, purity 0 \, phaselock 0 \, speed
0 \, on-color 23 \, off-color 0;
#X msg 442 299 toggle 0 \, on-color 23 \, off-color 0;
#X msg 916 371 fine 0 \, coarse 1 \, width 0 \, on-color 23 \, off-color
0;
#X obj 275 229 freeze-control track-1-freeze;
#X obj 94 -133 adc~;
#X obj 277 903 midi-toggle 15 2;
#X obj 387 903 midi-toggle 14 2;
#X obj 226 -23 r SAVE;
#X connect 0 0 54 0;
#X connect 0 1 55 0;
#X connect 1 0 0 0;
#X connect 1 0 65 0;
#X connect 1 1 0 2;
#X connect 1 1 65 3;
#X connect 2 0 1 0;
#X connect 3 0 41 0;
#X connect 4 0 6 4;
#X connect 5 0 6 1;
#X connect 6 0 8 0;
#X connect 6 1 57 0;
#X connect 7 0 2 0;
#X connect 8 0 45 0;
#X connect 9 0 7 0;
#X connect 10 0 40 0;
#X connect 11 0 44 0;
#X connect 12 0 43 0;
#X connect 13 0 66 0;
#X connect 14 0 67 0;
#X connect 15 0 53 0;
#X connect 16 0 6 2;
#X connect 17 0 6 3;
#X connect 18 0 6 5;
#X connect 19 0 22 0;
#X connect 20 0 21 0;
#X connect 21 0 9 1;
#X connect 22 0 7 1;
#X connect 23 0 2 1;
#X connect 24 0 23 0;
#X connect 25 0 1 1;
#X connect 26 0 25 0;
#X connect 27 0 28 0;
#X connect 28 0 0 1;
#X connect 29 0 69 0;
#X connect 30 0 45 1;
#X connect 31 0 30 0;
#X connect 32 0 31 0;
#X connect 33 0 20 0;
#X connect 34 0 19 0;
#X connect 35 0 24 0;
#X connect 36 0 26 0;
#X connect 37 0 27 0;
#X connect 38 0 29 0;
#X connect 39 0 42 0;
#X connect 40 0 25 1;
#X connect 41 0 28 1;
#X connect 42 0 22 1;
#X connect 43 0 21 1;
#X connect 44 0 23 1;
#X connect 45 0 46 0;
#X connect 46 0 9 0;
#X connect 47 0 46 1;
#X connect 48 0 50 0;
#X connect 49 0 68 0;
#X connect 50 0 47 0;
#X connect 51 0 52 0;
#X connect 52 0 6 7;
#X connect 53 0 6 4;
#X connect 57 0 62 0;
#X connect 57 1 59 0;
#X connect 58 0 56 0;
#X connect 59 0 60 0;
#X connect 61 0 60 0;
#X connect 62 0 58 0;
#X connect 62 1 61 0;
#X connect 63 0 65 1;
#X connect 64 0 65 2;
#X connect 65 0 0 0;
#X connect 65 1 0 2;
#X connect 66 0 69 1;
#X connect 67 0 30 1;
#X connect 68 0 47 1;
#X connect 69 0 8 1;
#X connect 70 0 6 0;
#X connect 71 0 63 0;
#X connect 72 0 64 0;
#X connect 73 0 6 6;
#X coords 0 -1 1 1 140 995 1 100 100;
#X restore 322 -328 pd track-1;
#N canvas 234 50 1430 803 track-2 0;
#X obj 110 1030 channel-out~;
#X obj 110 886 cosine-pan~;
#X obj 110 771 reverb~;
#X obj 804 976 r defaults;
#X obj 110 651 audio-delay~ 4000;
#X obj 110 533 eq3~;
#X obj 479 831 r defaults;
#X obj 477 717 r defaults;
#X obj 569 479 r defaults;
#X obj 612 184 r defaults;
#X obj 432 276 r defaults;
#X obj 228 15 r defaults;
#X obj 273 302 r initialize;
#X obj 276 475 r initialize;
#X obj 277 592 r initialize;
#X obj 282 712 r initialize;
#X obj 280 827 r initialize;
#X obj 598 971 r initialize;
#X obj 265 161 r initialize;
#X obj 550 597 r defaults;
#X msg 479 852 position 0.5;
#X msg 804 996 volume 0.5;
#X msg 550 617 wet 0 \, length 0 \, feedback 0;
#X msg 569 499 low 0.5 \, mid 0.5 \, high 0.5 \, gain 0.5;
#X msg 477 737 wet 0 \, size 0;
#X obj 136 -133 midi-toggle 16 2;
#X obj 159 -112 midi-button 20 2;
#X obj 181 -91 midi-button 21 2;
#X obj 194 -70 midi-toggle 17 2;
#X obj 217 -49 midi-button 28 2;
#X msg 273 323 toggle 25 \, channel 2;
#X msg 276 496 low 26 \, mid 27 \, high 30 \, gain 31 \, channel 1
;
#X msg 265 192 blend 18 \, speed 19 \, purity 22 \, switch 19 \, phaselock
22 \, encoder-channel 1 \, toggle-channel 2;
#X msg 277 613 feedback 21 \, wet 17 \, length 20 \, channel 1;
#X msg 282 733 wet 24 \, size 25 \, channel 1;
#X msg 280 848 position 28 \, channel 1;
#X msg 598 992 volume 29 \, channel 1;
#X obj 276 516 eq3-control track-2-eq;
#X obj 277 634 audio-delay-control track-2-delay;
#X obj 282 754 reverb-control track-2-reverb;
#X obj 280 869 cosine-pan-control track-2-pan;
#X obj 598 1013 channel-out-control track-2-out;
#X obj 534 327 r initialize;
#X obj 908 353 r defaults;
#X obj 110 407 pitch-shifter~;
#X msg 534 348 fine 16 \, coarse 23 \, width 23 \, toggle 23 \, encoder-channel
1 \, toggle-channel 2;
#X msg 228 35 0;
#X obj 110 361 metal~;
#X obj 528 -43 inlet file-prefix;
#X msg 528 -18 symbol \$1-2;
#X obj 110 1125 s~ track-2-left;
#X obj 223 1124 s~ track-2-right;
#X obj 353 -124 sel 1;
#X msg 353 -74 12;
#X msg 385 -74 0;
#X obj 353 -97 t b b;
#X obj 354 -43 ctlout 20 3;
#X obj 431 -43 ctlout 20 2;
#X msg 432 -74 87;
#X obj 110 246 freeze~;
#X obj 110 129 looper-new~;
#X obj 277 924 / 127;
#X obj 387 924 / 127;
#X obj 110 940 file-recorder~;
#X obj 273 344 metal-control track-2-metal;
#X obj 534 390 pitch-shifter-control track-2-pitch-shift;
#X msg 612 204 switch 0 \, blend 0 \, purity 0 \, phaselock 0 \, speed
0 \, on-color 90 \, off-color 0;
#X msg 432 296 toggle 0 on-color 90 \, off-color 0;
#X msg 908 373 fine 0 \, coarse 1 \, width 0 \, on-color 90 \, off-color
0;
#X obj 265 229 freeze-control track-2-freeze;
#X obj 93 -132 adc~;
#X obj 277 903 midi-toggle 31 2;
#X obj 387 903 midi-toggle 30 2;
#X obj 226 -24 r SAVE;
#X connect 0 0 50 0;
#X connect 0 1 51 0;
#X connect 1 0 0 0;
#X connect 1 0 63 0;
#X connect 1 1 0 2;
#X connect 1 1 63 3;
#X connect 2 0 1 0;
#X connect 3 0 21 0;
#X connect 4 0 2 0;
#X connect 5 0 4 0;
#X connect 6 0 20 0;
#X connect 7 0 24 0;
#X connect 8 0 23 0;
#X connect 9 0 66 0;
#X connect 10 0 67 0;
#X connect 11 0 46 0;
#X connect 12 0 30 0;
#X connect 13 0 31 0;
#X connect 14 0 33 0;
#X connect 15 0 34 0;
#X connect 16 0 35 0;
#X connect 17 0 36 0;
#X connect 18 0 32 0;
#X connect 19 0 22 0;
#X connect 20 0 40 1;
#X connect 21 0 41 1;
#X connect 22 0 38 1;
#X connect 23 0 37 1;
#X connect 24 0 39 1;
#X connect 25 0 60 1;
#X connect 26 0 60 2;
#X connect 27 0 60 3;
#X connect 28 0 60 4;
#X connect 29 0 60 5;
#X connect 30 0 64 0;
#X connect 31 0 37 0;
#X connect 32 0 69 0;
#X connect 33 0 38 0;
#X connect 34 0 39 0;
#X connect 35 0 40 0;
#X connect 36 0 41 0;
#X connect 37 0 5 1;
#X connect 38 0 4 1;
#X connect 39 0 2 1;
#X connect 40 0 1 1;
#X connect 41 0 0 1;
#X connect 42 0 45 0;
#X connect 43 0 68 0;
#X connect 44 0 5 0;
#X connect 45 0 65 0;
#X connect 46 0 60 4;
#X connect 47 0 44 0;
#X connect 48 0 49 0;
#X connect 49 0 60 7;
#X connect 52 0 55 0;
#X connect 52 1 54 0;
#X connect 53 0 56 0;
#X connect 54 0 57 0;
#X connect 55 0 53 0;
#X connect 55 1 58 0;
#X connect 58 0 57 0;
#X connect 59 0 47 0;
#X connect 60 0 59 0;
#X connect 60 1 52 0;
#X connect 61 0 63 1;
#X connect 62 0 63 2;
#X connect 63 0 0 0;
#X connect 63 1 0 2;
#X connect 64 0 47 1;
#X connect 65 0 44 1;
#X connect 66 0 69 1;
#X connect 67 0 64 1;
#X connect 68 0 65 1;
#X connect 69 0 59 1;
#X connect 70 0 60 0;
#X connect 71 0 61 0;
#X connect 72 0 62 0;
#X connect 73 0 60 6;
#X coords 0 -1 1 1 140 995 1 100 100;
#X restore 465 -328 pd track-2;
#N canvas 0 50 1464 854 track-3 0;
#X obj 110 1025 channel-out~;
#X obj 110 885 cosine-pan~;
#X obj 110 770 reverb~;
#X obj 794 971 r defaults;
#X obj 110 650 audio-delay~ 4000;
#X obj 110 532 eq3~;
#X obj 479 830 r defaults;
#X obj 477 716 r defaults;
#X obj 569 478 r defaults;
#X obj 612 184 r defaults;
#X obj 432 277 r defaults;
#X obj 228 15 r defaults;
#X obj 273 302 r initialize;
#X obj 276 474 r initialize;
#X obj 277 591 r initialize;
#X obj 282 711 r initialize;
#X obj 280 826 r initialize;
#X obj 588 966 r initialize;
#X obj 265 161 r initialize;
#X obj 550 596 r defaults;
#X msg 479 851 position 0.5;
#X msg 794 991 volume 0.5;
#X msg 550 616 wet 0 \, length 0 \, feedback 0;
#X msg 569 498 low 0.5 \, mid 0.5 \, high 0.5 \, gain 0.5;
#X msg 477 736 wet 0 \, size 0;
#X obj 276 515 eq3-control track-3-eq;
#X obj 277 633 audio-delay-control track-3-delay;
#X obj 282 753 reverb-control track-3-reverb;
#X obj 280 868 cosine-pan-control track-3-pan;
#X obj 588 1008 channel-out-control track-3-out;
#X obj 142 -133 midi-toggle 32 2;
#X obj 165 -112 midi-button 36 2;
#X obj 187 -91 midi-button 37 2;
#X obj 217 -49 midi-button 44 2;
#X obj 194 -70 midi-toggle 33 2;
#X msg 265 192 blend 34 \, speed 35 \, purity 38 \, switch 35 \, phaselock
38 \, encoder-channel 1 \, toggle-channel 2;
#X msg 273 323 toggle 41 \, channel 2;
#X msg 276 495 low 42 \, mid 43 \, high 46 \, gain 47 \, channel 1
;
#X msg 277 612 feedback 37 \, wet 33 \, length 36 \, channel 1;
#X msg 282 732 wet 40 \, size 41 \, channel 1;
#X msg 280 847 position 44 \, channel 1;
#X msg 588 987 volume 45 \, channel 1;
#X obj 110 407 pitch-shifter~;
#X obj 534 327 r initialize;
#X obj 908 353 r defaults;
#X msg 534 348 fine 32 \, coarse 39 \, width 39 \, toggle 39 \, encoder-channel
1 \, toggle-channel 2;
#X msg 228 35 0;
#X obj 110 361 metal~;
#X obj 580 -40 inlet file-prefix;
#X msg 580 -15 symbol \$1-3;
#X obj 110 1120 s~ track-3-left;
#X obj 223 1119 s~ track-3-right;
#X obj 353 -124 sel 1;
#X msg 353 -74 12;
#X msg 385 -74 0;
#X obj 353 -97 t b b;
#X obj 354 -43 ctlout 36 3;
#X obj 431 -43 ctlout 36 2;
#X msg 432 -74 46;
#X obj 110 246 freeze~;
#X obj 110 129 looper-new~;
#X obj 277 924 / 127;
#X obj 387 924 / 127;
#X obj 110 940 file-recorder~;
#X obj 273 344 metal-control track-3-metal;
#X obj 265 229 freeze-control track-3-freeze;
#X obj 534 390 pitch-shifter-control track-3-pitch-shift;
#X msg 612 204 switch 0 \, blend 0 \, purity 0 \, phaselock 0 \, speed
0 \, on-color 40 \, off-color 0;
#X msg 432 297 toggle 0 \, on-color 40 \, off-color 0;
#X msg 908 373 fine 0 \, coarse 1 \, width 0 \, on-color 40 \, off-color
0;
#X obj 94 -133 adc~;
#X obj 277 903 midi-toggle 47 2;
#X obj 387 903 midi-toggle 46 2;
#X obj 226 -21 r SAVE;
#X connect 0 0 50 0;
#X connect 0 1 51 0;
#X connect 1 0 0 0;
#X connect 1 0 63 0;
#X connect 1 1 0 2;
#X connect 1 1 63 3;
#X connect 2 0 1 0;
#X connect 3 0 21 0;
#X connect 4 0 2 0;
#X connect 5 0 4 0;
#X connect 6 0 20 0;
#X connect 7 0 24 0;
#X connect 8 0 23 0;
#X connect 9 0 67 0;
#X connect 10 0 68 0;
#X connect 11 0 46 0;
#X connect 12 0 36 0;
#X connect 13 0 37 0;
#X connect 14 0 38 0;
#X connect 15 0 39 0;
#X connect 16 0 40 0;
#X connect 17 0 41 0;
#X connect 18 0 35 0;
#X connect 19 0 22 0;
#X connect 20 0 28 1;
#X connect 21 0 29 1;
#X connect 22 0 26 1;
#X connect 23 0 25 1;
#X connect 24 0 27 1;
#X connect 25 0 5 1;
#X connect 26 0 4 1;
#X connect 27 0 2 1;
#X connect 28 0 1 1;
#X connect 29 0 0 1;
#X connect 30 0 60 1;
#X connect 31 0 60 2;
#X connect 32 0 60 3;
#X connect 33 0 60 5;
#X connect 34 0 60 4;
#X connect 35 0 65 0;
#X connect 36 0 64 0;
#X connect 37 0 25 0;
#X connect 38 0 26 0;
#X connect 39 0 27 0;
#X connect 40 0 28 0;
#X connect 41 0 29 0;
#X connect 42 0 5 0;
#X connect 43 0 45 0;
#X connect 44 0 69 0;
#X connect 45 0 66 0;
#X connect 46 0 60 4;
#X connect 47 0 42 0;
#X connect 48 0 49 0;
#X connect 49 0 60 7;
#X connect 52 0 55 0;
#X connect 52 1 54 0;
#X connect 53 0 56 0;
#X connect 54 0 57 0;
#X connect 55 0 53 0;
#X connect 55 1 58 0;
#X connect 58 0 57 0;
#X connect 59 0 47 0;
#X connect 60 0 59 0;
#X connect 60 1 52 0;
#X connect 61 0 63 1;
#X connect 62 0 63 2;
#X connect 63 0 0 0;
#X connect 63 1 0 2;
#X connect 64 0 47 1;
#X connect 65 0 59 1;
#X connect 66 0 42 1;
#X connect 67 0 65 1;
#X connect 68 0 64 1;
#X connect 69 0 66 1;
#X connect 70 0 60 0;
#X connect 71 0 61 0;
#X connect 72 0 62 0;
#X connect 73 0 60 6;
#X coords 0 -1 1 1 140 995 1 100 100;
#X restore 610 -328 pd track-3;
#X obj -89 -175 s defaults;
#X obj -89 -281 state-manager;
#N canvas 0 50 832 678 rec 0;
#X obj 112 41 r~ track-2-left;
#X obj 112 21 r~ track-1-left;
#X obj 112 61 r~ track-3-left;
#X obj 225 41 r~ track-2-right;
#X obj 225 21 r~ track-1-right;
#X obj 225 61 r~ track-3-right;
#X obj 149 239 dac~;
#X obj 112 123 file-recorder~;
#X obj 225 81 r~ track-4-right;
#X obj 112 81 r~ track-4-left;
#X connect 0 0 7 0;
#X connect 1 0 7 0;
#X connect 2 0 7 0;
#X connect 3 0 7 3;
#X connect 4 0 7 3;
#X connect 5 0 7 3;
#X connect 7 0 6 0;
#X connect 7 1 6 1;
#X connect 8 0 7 3;
#X connect 9 0 7 0;
#X coords 0 -1 1 1 145 110 1 100 100;
#X restore 1000 -523 pd rec;
#X symbolatom -89 -342 10 0 0 0 - - -, f 10;
#X obj -33 -319 midi-button 10 4;
#X obj 24 -301 midi-button 13 4;
#X obj -89 -368 l2s;
#X obj 18 -575 declare -stdpath zexy -stdlib zexy;
#N canvas 331 162 1349 866 navigation 0;
#X msg 15 64 1;
#X msg 94 61 -1;
#X obj 61 104 +;
#X obj 126 110 int;
#X floatatom 122 158 5 0 0 0 - - -, f 5;
#X obj 15 18 midi-button 8 4;
#X obj 94 38 midi-button 9 4;
#X obj 208 145 bng 15 250 50 0 empty empty empty 17 7 0 10 -262144
-1 -1;
#X obj 55 221 outlet;
#X obj 13 137 r initialize;
#X obj 122 187 moses 1;
#X msg 13 159 1;
#X connect 0 0 2 0;
#X connect 1 0 2 0;
#X connect 2 0 3 0;
#X connect 3 0 2 1;
#X connect 3 0 4 0;
#X connect 4 0 8 0;
#X connect 4 0 10 0;
#X connect 5 0 0 0;
#X connect 6 0 1 0;
#X connect 7 0 0 0;
#X connect 9 0 11 0;
#X connect 10 0 7 0;
#X connect 11 0 4 0;
#X connect 11 0 8 0;
#X restore -89 -394 pd navigation;
#X obj 126 -286 s SAVE;
#X obj -81 -322 pack s;
#X obj -81 -301 s BANK;
#X obj -88 -45 tap-tempo;
#X obj -88 23 s TEMPO;
#X floatatom 7 -67 5 0 0 0 - - -, f 5;
#X floatatom -10 22 5 0 0 0 - - -, f 5;
#X obj 16 -115 sssad timing-ms;
#X obj -23 -89 loadbang;
#X msg -23 -68 800;
#X obj -88 -115 midi-button 6 2;
#X obj -86 171 channel-out~;
#X obj -86 85 r TEMPO;
#X obj -86 105 metronome;
#X obj 134 116 r defaults;
#X obj 7 110 r initialize;
#X msg 134 136 volume 0;
#X obj 7 151 channel-out-control;
#X msg 8 131 volume 6 \, channel 1;
#X obj 733 -522 midi-observer;
#X obj 366 -523 midi-thru;
#X obj 473 -499 bng 15 250 50 0 empty empty empty 17 7 0 10 -262144
-1 -1;
#X obj 473 -476 s PLAY-ALL;
#X obj 473 -522 midi-button 19 4;
#X obj 605 -522 midi-button 31 4;
#X msg 605 -497 0 123 1;
#X obj 605 -472 ctlout;
#X text 607 -544 midi panic;
#N canvas 0 23 1143 779 midi-track-1 0;
#X obj 106 -76 r TEMPO;
#X obj 205 20 r BANK;
#X msg 205 41 symbol \$1-1;
#X obj 134 -38 r toggle-all;
#X obj 182 2 midi-toggle 11 2;
#X obj 135 -57 midi-button 10 2;
#X obj 157 -18 midi-button 14 4;
#X msg 229 80 10;
#X obj 228 61 r initialize;
#X obj 105 129 midi-looper 1 track-1;
#X connect 0 0 9 0;
#X connect 1 0 2 0;
#X connect 2 0 9 4;
#X connect 3 0 9 1;
#X connect 4 0 9 3;
#X connect 5 0 9 1;
#X connect 6 0 9 2;
#X connect 7 0 9 5;
#X connect 8 0 7 0;
#X coords 0 -1 1 1 140 140 1 100 100;
#X restore 769 -327 pd midi-track-1;
#N canvas 0 23 759 563 midi-track-2 0;
#X obj 104 -75 r TEMPO;
#X obj 203 21 r BANK;
#X msg 203 42 symbol \$1-2;
#X obj 129 -37 r toggle-all;
#X obj 155 -17 midi-button 15 4;
#X obj 129 -57 midi-button 26 2;
#X obj 180 3 midi-toggle 27 2;
#X obj 226 62 r initialize;
#X msg 227 81 26;
#X obj 104 128 midi-looper 1 track-2;
#X connect 0 0 9 0;
#X connect 1 0 2 0;
#X connect 2 0 9 4;
#X connect 3 0 9 1;
#X connect 4 0 9 2;
#X connect 5 0 9 1;
#X connect 6 0 9 3;
#X connect 7 0 8 0;
#X connect 8 0 9 5;
#X coords 0 -1 1 1 140 140 1 100 100;
#X restore 924 -327 pd midi-track-2;
#N canvas 0 23 659 530 midi-track-3 0;
#X obj 106 -77 r TEMPO;
#X obj 205 19 r BANK;
#X msg 205 40 symbol \$1-3;
#X obj 132 -39 r toggle-all;
#X obj 157 -19 midi-button 16 4;
#X obj 133 -58 midi-button 42 2;
#X obj 182 1 midi-toggle 43 2;
#X obj 228 60 r initialize;
#X msg 229 79 42;
#X obj 105 129 midi-looper 1 track-3;
#X connect 0 0 9 0;
#X connect 1 0 2 0;
#X connect 2 0 9 4;
#X connect 3 0 9 1;
#X connect 4 0 9 2;
#X connect 5 0 9 1;
#X connect 6 0 9 3;
#X connect 7 0 8 0;
#X connect 8 0 9 5;
#X coords 0 -1 1 1 140 140 1 100 100;
#X restore 1079 -327 pd midi-track-3;
#X obj -63 -368 pgmout;
#N canvas 1241 144 1181 948 track-4 0;
#X obj 111 126 sample-grid~ 48;
#X obj 111 336 audio-delay~ 4000;
#X obj 111 451 reverb~;
#X obj 111 566 looper-new~;
#X obj 111 681 channel-out~;
#X obj 111 271 line-control~;
#X obj 250 533 loadbang;
#X msg 250 552 127;
#X obj 446 631 r defaults;
#X obj 240 624 r initialize;
#X obj 240 666 channel-out-control track-4-out;
#X msg 446 651 volume 0.8;
#X obj 714 222 r defaults;
#X obj 508 215 r initialize;
#X obj 508 257 channel-out-control track-4-line;
#X msg 714 242 volume 0.5;
#X msg 508 236 volume 48 \, channel 1;
#X msg 240 645 volume 63 \, channel 1;
#X obj 696 401 r defaults;
#X obj 243 275 r initialize;
#X obj 506 392 r initialize;
#X obj 504 286 r defaults;
#X msg 504 306 wet 0 \, length 0 \, feedback 0;
#X msg 696 421 wet 0 \, size 0;
#X obj 243 321 audio-delay-control track-4-delay;
#X obj 506 436 reverb-control track-4-reverb;
#X msg 243 300 feedback 51 \, wet 49 \, length 50 \, channel 1;
#X msg 506 413 wet 52 \, size 53 \, channel 1;
#X obj 310 552 midi-toggle 56 2;
#X obj 788 532 inlet file-prefix;
#X msg 788 554 symbol \$1-4;
#X obj 629 553 midi-button 28 4;
#X obj 416 552 midi-button 57 2;
#X obj 522 552 midi-button 58 2;
#X obj 739 554 r SAVE;
#X obj 111 760 s~ track-4-left;
#X obj 224 759 s~ track-4-right;
#X obj 310 423 sample-recorder~;
#X obj 354 373 adc~;
#X obj 366 396 midi-toggle 59 2;
#X connect 0 0 5 0;
#X connect 1 0 2 0;
#X connect 2 0 3 0;
#X connect 3 0 4 0;
#X connect 4 0 35 0;
#X connect 4 1 36 0;
#X connect 5 0 1 0;
#X connect 6 0 7 0;
#X connect 7 0 3 4;
#X connect 8 0 11 0;
#X connect 9 0 17 0;
#X connect 10 0 4 1;
#X connect 11 0 10 1;
#X connect 12 0 15 0;
#X connect 13 0 16 0;
#X connect 14 0 5 1;
#X connect 15 0 14 1;
#X connect 16 0 14 0;
#X connect 17 0 10 0;
#X connect 18 0 23 0;
#X connect 19 0 26 0;
#X connect 20 0 27 0;
#X connect 21 0 22 0;
#X connect 22 0 24 1;
#X connect 23 0 25 1;
#X connect 24 0 1 1;
#X connect 25 0 2 1;
#X connect 26 0 24 0;
#X connect 27 0 25 0;
#X connect 28 0 3 1;
#X connect 29 0 30 0;
#X connect 30 0 3 7;
#X connect 31 0 3 5;
#X connect 32 0 3 2;
#X connect 33 0 3 3;
#X connect 34 0 3 6;
#X connect 38 0 37 0;
#X connect 38 1 37 2;
#X connect 39 0 37 1;
#X coords 0 -1 1 1 400 650 1 100 100;
#X restore 1234 -328 pd track-4;
#X connect 0 0 1 0;
#X connect 0 0 2 0;
#X connect 3 0 1 0;
#X connect 8 0 7 0;
#X connect 10 0 8 0;
#X connect 10 0 4 0;
#X connect 10 0 5 0;
#X connect 10 0 6 0;
#X connect 10 0 17 0;
#X connect 10 0 48 0;
#X connect 11 0 8 1;
#X connect 12 0 8 2;
#X connect 12 0 16 0;
#X connect 13 0 10 0;
#X connect 15 0 13 0;
#X connect 15 0 47 0;
#X connect 17 0 18 0;
#X connect 19 0 20 0;
#X connect 19 1 22 0;
#X connect 21 0 19 1;
#X connect 22 0 23 1;
#X connect 23 0 21 0;
#X connect 24 0 25 0;
#X connect 25 0 19 1;
#X connect 26 0 19 0;
#X connect 28 0 29 0;
#X connect 29 0 27 0;
#X connect 30 0 32 0;
#X connect 31 0 34 0;
#X connect 32 0 33 1;
#X connect 33 0 27 1;
#X connect 34 0 33 0;
#X connect 37 0 38 0;
#X connect 39 0 37 0;
#X connect 40 0 41 0;
#X connect 41 0 42 0;
