#N canvas 1276 35 978 868 10;
#X obj 48 169 cosine-pan~;
#X obj 48 223 channel-out~;
#X obj 48 -133 looper~;
#X obj 48 -62 7-sec-delay~;
#X obj 48 55 reverb~;
#X obj 179 149 memory-encoder 12;
#X obj 174 -83 memory-encoder 1;
#X obj 327 -83 memory-encoder 4;
#X obj 479 -83 memory-encoder 5;
#X obj 174 35 memory-encoder 8;
#X obj 328 35 memory-encoder 9;
#X obj 48 -158 adc~;
#X connect 0 0 1 0;
#X connect 0 1 1 3;
#X connect 2 0 3 0;
#X connect 3 0 4 0;
#X connect 4 0 0 0;
#X connect 5 0 0 1;
#X connect 6 0 3 1;
#X connect 7 0 3 2;
#X connect 8 0 3 3;
#X connect 9 0 4 2;
#X connect 10 0 4 3;
#X connect 11 0 2 0;
