#N canvas 106 221 450 300 10;
#X obj 77 78 midi-shift-encoder;
#X obj 56 156 hsl 128 15 0 127 0 0 empty empty empty -2 -8 0 10 -262144
-1 -1 1000 1;
#X msg 77 47 0 1 10 4;
#X obj 208 155 hsl 128 15 0 127 0 0 empty empty empty -2 -8 0 10 -262144
-1 -1 8800 1;
#X obj 87 216 midi-shift-encoder;
#X obj 77 267 tgl 15 0 empty empty empty 17 7 0 10 -262144 -1 -1 0
127;
#X obj 195 261 tgl 15 0 empty empty empty 17 7 0 10 -262144 -1 -1 127
127;
#X msg 87 185 1 2 10 4;
#X connect 0 0 1 0;
#X connect 0 1 3 0;
#X connect 2 0 0 0;
#X connect 4 0 5 0;
#X connect 4 1 6 0;
#X connect 7 0 4 0;
