#N canvas 169 499 2297 1294 10;
#X obj 52 154 s track-back;
#X obj 160 154 s track-forward;
#X obj 143 273 r track-forward;
#X obj 60 272 r track-back;
#X obj 143 273 r track-forward;
#X obj 40 10 ctlin;
#X floatatom 10 32 5 0 0 0 - - -, f 5;
#X floatatom 48 31 5 0 0 0 - - -, f 5;
#X floatatom 86 30 5 0 0 0 - - -, f 5;
#X obj 143 296 f;
#X obj 60 296 f;
#X obj 122 297 bng 15 250 50 0 empty empty empty 17 7 0 10 -262144
-1 -1;
#X obj 87 297 bng 15 250 50 0 empty empty empty 17 7 0 10 -262144 -1
-1;
#X obj 60 318 expr $f1 == 127 && ($f2 == 127);
#X obj 60 338 s mode-select;
#X obj 51 131 midi-button 58 1;
#X obj 160 131 midi-button 59 1;
#X obj 798 154 midi-momentary-to-toggle 32 1;
#X msg 987 129 0;
#X msg 951 129 1;
#X obj 950 102 sel 1;
#X obj 235 335 tgl 15 0 empty empty empty 17 7 0 10 -262144 -1 -1 0
1;
#X obj 828 261 ctlout 32 1;
#X msg 841 227 0;
#X msg 810 228 127;
#X obj 841 202 delay 100;
#X obj 833 178 bng 15 250 50 0 empty empty empty 17 7 0 10 -262144
-1 -1;
#X obj 798 328 sample-player~;
#X obj 344 236 midi-momentary-to-toggle 43 1;
#X obj 388 261 midi-momentary-to-toggle 44 1;
#X msg 556 136 0;
#X obj 519 85 r mode-select;
#X msg 520 136 1;
#X obj 519 109 sel 1;
#X obj 434 286 midi-momentary-to-toggle 42 1;
#X obj 478 311 midi-momentary-to-toggle 41 1;
#X obj 524 336 midi-momentary-to-toggle 45 1;
#X text 352 40 MODE SELECTION, f 16;
#X text 65 97 set up midi for track buttons, f 31;
#X text 32 234 mode select when both tracks are pressed, f 42;
#X obj 950 78 r current-mode;
#X obj 346 443 s current-mode;
#X msg 388 286 1;
#X msg 524 361 4;
#X msg 478 336 3;
#X msg 434 311 2;
#X msg 344 261 0;
#X obj 1616 906 midi-momentary-to-toggle 32 1;
#X msg 1805 881 0;
#X msg 1769 881 1;
#X msg 1659 1010 0;
#X msg 1628 1011 127;
#X obj 1617 1070 sample-player~;
#X obj 1768 830 r current-mode;
#X obj 1768 854 sel 2;
#X obj 1628 935 tgl 15 0 empty empty empty 17 7 0 10 -262144 -1 -1
0 1;
#X obj 1628 980 sel 1;
#X text 854 178 led press indicator, f 20;
#X msg 1580 898 bang;
#X obj 1628 957 f;
#X obj 759 244 f;
#X text 61 699 create midi-to-bang and/or midi-to-toggle objects and
get rid of that conversion (inconsistently) in the midi toggle and
encorder objects. remove this (consistent?) conversion from audio abstractions
as well, f 96;
#X text 1669 941 led toggle indicator with memory, f 23;
#X msg 759 146 bang;
#X text 1580 851 memory led mode change demo;
#X obj 1065 192 r track-back;
#X obj 1148 232 f;
#X obj 1065 232 f;
#X obj 1127 233 bng 15 250 50 0 empty empty empty 17 7 0 10 -262144
-1 -1;
#X obj 1092 233 bng 15 250 50 0 empty empty empty 17 7 0 10 -262144
-1 -1;
#X obj 1065 254 expr $f1 == 127 && ($f2 == 127);
#X text 1080 143 sample decrement when pressing track back, f 22;
#X obj 1151 192 midi-button 32 1;
#X obj 1065 278 sel 1;
#X obj 1065 316 f;
#X obj 1065 335 - 1;
#X obj 1148 391 s counter;
#X obj 1083 297 r counter;
#X obj 887 289 r counter;
#X obj 1428 232 f;
#X obj 1345 232 f;
#X obj 1407 233 bng 15 250 50 0 empty empty empty 17 7 0 10 -262144
-1 -1;
#X obj 1372 233 bng 15 250 50 0 empty empty empty 17 7 0 10 -262144
-1 -1;
#X obj 1345 254 expr $f1 == 127 && ($f2 == 127);
#X obj 1449 192 midi-button 32 1;
#X obj 1345 278 sel 1;
#X text 1369 142 sample increment when pressing track forward, f 26
;
#X obj 1345 192 r track-forward;
#X obj 1345 317 f;
#X obj 1363 297 r counter;
#X obj 1345 336 + 1;
#X obj 761 58 loadbang;
#X obj 761 101 s counter;
#X text 750 34 initial value, f 14;
#X obj 1065 355 sel 0;
#X msg 1345 376 1;
#X msg 1065 376 59;
#X obj 1148 371 mod 59;
#X obj 1345 357 sel 59;
#X text 1160 334 set for 59 samples;
#X msg 987 559 0;
#X msg 951 559 1;
#X obj 950 532 sel 1;
#X msg 841 657 0;
#X msg 810 658 127;
#X obj 841 632 delay 100;
#X obj 833 608 bng 15 250 50 0 empty empty empty 17 7 0 10 -262144
-1 -1;
#X obj 798 758 sample-player~;
#X obj 950 508 r current-mode;
#X text 854 608 led press indicator, f 20;
#X obj 759 674 f;
#X msg 759 576 bang;
#X obj 1065 622 r track-back;
#X obj 1148 662 f;
#X obj 1065 662 f;
#X obj 1127 663 bng 15 250 50 0 empty empty empty 17 7 0 10 -262144
-1 -1;
#X obj 1092 663 bng 15 250 50 0 empty empty empty 17 7 0 10 -262144
-1 -1;
#X obj 1065 684 expr $f1 == 127 && ($f2 == 127);
#X text 1080 573 sample decrement when pressing track back, f 22;
#X obj 1065 708 sel 1;
#X obj 1065 746 f;
#X obj 1065 765 - 1;
#X obj 1428 662 f;
#X obj 1345 662 f;
#X obj 1407 663 bng 15 250 50 0 empty empty empty 17 7 0 10 -262144
-1 -1;
#X obj 1372 663 bng 15 250 50 0 empty empty empty 17 7 0 10 -262144
-1 -1;
#X obj 1345 684 expr $f1 == 127 && ($f2 == 127);
#X obj 1345 708 sel 1;
#X text 1369 572 sample increment when pressing track forward, f 26
;
#X obj 1345 622 r track-forward;
#X obj 1345 747 f;
#X obj 1345 766 + 1;
#X obj 761 488 loadbang;
#X text 750 464 initial value, f 14;
#X obj 1065 785 sel 0;
#X msg 1345 806 1;
#X msg 1065 806 59;
#X obj 1148 801 mod 59;
#X obj 1345 787 sel 59;
#X text 1160 764 set for 59 samples;
#X msg 2115 881 0;
#X msg 2079 881 1;
#X msg 1969 1010 0;
#X msg 1938 1011 127;
#X obj 1927 1070 sample-player~;
#X obj 2078 830 r current-mode;
#X obj 2078 854 sel 2;
#X obj 1938 935 tgl 15 0 empty empty empty 17 7 0 10 -262144 -1 -1
0 1;
#X obj 1938 980 sel 1;
#X msg 1890 898 bang;
#X obj 1938 957 f;
#X text 1979 941 led toggle indicator with memory, f 23;
#X text 1890 851 memory led mode change demo;
#X obj 1926 906 midi-momentary-to-toggle 33 1;
#X obj 1938 1040 ctlout 33 1;
#X obj 1628 1040 ctlout 32 1;
#X obj 798 584 midi-momentary-to-toggle 33 1;
#X obj 828 691 ctlout 33 1;
#X obj 1151 622 midi-button 33 1;
#X obj 1449 622 midi-button 33 1;
#X obj 887 719 r counter-b;
#X obj 1148 821 s counter-b;
#X obj 1363 727 r counter-b;
#X obj 761 531 s counter-b;
#X msg 761 80 39;
#X msg 761 510 42;
#X obj 1083 727 r counter-b;
#X obj 268 831 adc~;
#X obj 268 855 throw~ input;
#X obj 201 1554 cosine-pan~;
#X obj 201 1609 channel-out~;
#X obj 201 1439 reverb~;
#X obj 201 1250 looper~;
#X obj 121 1422 midi-encoder;
#X obj 341 1422 midi-encoder;
#X obj 509 1306 midi-encoder;
#X obj 429 1306 midi-encoder;
#X obj 345 1306 midi-encoder;
#X obj 121 1402 + 8;
#X obj 341 1402 + 9;
#X obj 509 1286 + 5;
#X obj 429 1286 + 4;
#X obj 345 1286 + 1;
#X obj 346 1537 midi-encoder;
#X obj 346 1517 + 12;
#X obj 117 1592 midi-encoder;
#X obj 117 1572 + 13;
#X obj 48 1400 + 8;
#X obj 314 1212 + 0;
#X obj 390 1213 + 1;
#X obj 464 1212 + 12;
#X obj 594 1293 + 5;
#X obj 38 1572 + 13;
#X obj 314 1233 midi-toggle;
#X obj 390 1233 midi-toggle;
#X obj 464 1233 midi-toggle;
#X obj 594 1306 midi-toggle;
#X obj 48 1422 midi-toggle;
#X obj 38 1592 midi-toggle;
#X obj 314 1192 r \$0-base;
#X obj 390 1193 r \$0-base;
#X obj 464 1192 r \$0-base;
#X obj 509 1266 r \$0-base;
#X obj 429 1266 r \$0-base;
#X obj 345 1266 r \$0-base;
#X obj 594 1265 r \$0-base;
#X obj 341 1382 r \$0-base;
#X obj 121 1382 r \$0-base;
#X obj 48 1380 r \$0-base;
#X obj 346 1497 r \$0-base;
#X obj 117 1552 r \$0-base;
#X obj 38 1552 r \$0-base;
#X obj 542 1213 r \$0-base;
#X obj 542 1233 + 0;
#X obj 201 1323 audio-delay~ 4000;
#X msg 618 1233 symbol \$1;
#X obj 618 1211 inlet file;
#X obj 695 1233 inlet save;
#X obj 798 388 throw~ sample-audio;
#X obj 798 818 throw~ sample-audio;
#X obj 1617 1130 throw~ sample-audio;
#X obj 1927 1130 throw~ sample-audio;
#X msg 357 1571 0;
#X obj 248 1107 catch~ sample-audio;
#X obj 168 1107 catch~ input;
#X obj 887 309 list2symbol;
#X obj 887 739 list2symbol;
#X connect 2 0 9 0;
#X connect 2 0 12 0;
#X connect 3 0 10 0;
#X connect 3 0 11 0;
#X connect 5 0 6 0;
#X connect 5 1 7 0;
#X connect 5 2 8 0;
#X connect 9 0 13 1;
#X connect 10 0 13 0;
#X connect 11 0 9 0;
#X connect 12 0 10 0;
#X connect 13 0 14 0;
#X connect 13 0 21 0;
#X connect 15 0 0 0;
#X connect 16 0 1 0;
#X connect 17 0 26 0;
#X connect 17 0 27 0;
#X connect 18 0 17 1;
#X connect 19 0 17 1;
#X connect 19 0 63 0;
#X connect 20 0 19 0;
#X connect 20 1 18 0;
#X connect 23 0 22 0;
#X connect 23 0 60 0;
#X connect 24 0 22 0;
#X connect 24 0 60 0;
#X connect 25 0 23 0;
#X connect 26 0 24 0;
#X connect 26 0 25 0;
#X connect 27 0 218 0;
#X connect 28 0 46 0;
#X connect 29 0 42 0;
#X connect 30 0 29 1;
#X connect 30 0 28 1;
#X connect 30 0 34 1;
#X connect 30 0 35 1;
#X connect 30 0 36 1;
#X connect 31 0 33 0;
#X connect 32 0 29 1;
#X connect 32 0 28 1;
#X connect 32 0 34 1;
#X connect 32 0 35 1;
#X connect 32 0 36 1;
#X connect 33 0 32 0;
#X connect 33 1 30 0;
#X connect 34 0 45 0;
#X connect 35 0 44 0;
#X connect 36 0 43 0;
#X connect 40 0 20 0;
#X connect 42 0 41 0;
#X connect 43 0 41 0;
#X connect 44 0 41 0;
#X connect 45 0 41 0;
#X connect 46 0 41 0;
#X connect 47 0 52 0;
#X connect 47 0 55 0;
#X connect 48 0 47 1;
#X connect 49 0 47 1;
#X connect 49 0 58 0;
#X connect 50 0 155 0;
#X connect 51 0 155 0;
#X connect 52 0 220 0;
#X connect 53 0 54 0;
#X connect 54 0 49 0;
#X connect 54 1 48 0;
#X connect 55 0 59 0;
#X connect 56 0 51 0;
#X connect 56 1 50 0;
#X connect 58 0 59 0;
#X connect 59 0 56 0;
#X connect 60 0 22 0;
#X connect 63 0 60 0;
#X connect 65 0 67 0;
#X connect 65 0 68 0;
#X connect 66 0 70 1;
#X connect 67 0 70 0;
#X connect 68 0 66 0;
#X connect 69 0 67 0;
#X connect 70 0 73 0;
#X connect 72 0 66 0;
#X connect 72 0 69 0;
#X connect 73 0 74 0;
#X connect 74 0 75 0;
#X connect 75 0 94 0;
#X connect 77 0 74 1;
#X connect 78 0 225 0;
#X connect 79 0 83 1;
#X connect 80 0 83 0;
#X connect 81 0 79 0;
#X connect 82 0 80 0;
#X connect 83 0 85 0;
#X connect 84 0 79 0;
#X connect 84 0 82 0;
#X connect 85 0 88 0;
#X connect 87 0 80 0;
#X connect 87 0 81 0;
#X connect 88 0 90 0;
#X connect 89 0 88 1;
#X connect 90 0 98 0;
#X connect 91 0 164 0;
#X connect 94 0 96 0;
#X connect 94 1 97 0;
#X connect 95 0 76 0;
#X connect 96 0 76 0;
#X connect 97 0 76 0;
#X connect 98 0 95 0;
#X connect 98 1 97 0;
#X connect 100 0 156 1;
#X connect 101 0 111 0;
#X connect 101 0 156 1;
#X connect 102 0 101 0;
#X connect 102 1 100 0;
#X connect 103 0 110 0;
#X connect 103 0 157 0;
#X connect 104 0 110 0;
#X connect 104 0 157 0;
#X connect 105 0 103 0;
#X connect 106 0 104 0;
#X connect 106 0 105 0;
#X connect 107 0 219 0;
#X connect 108 0 102 0;
#X connect 110 0 157 0;
#X connect 111 0 110 0;
#X connect 112 0 114 0;
#X connect 112 0 115 0;
#X connect 113 0 117 1;
#X connect 114 0 117 0;
#X connect 115 0 113 0;
#X connect 116 0 114 0;
#X connect 117 0 119 0;
#X connect 119 0 120 0;
#X connect 120 0 121 0;
#X connect 121 0 134 0;
#X connect 122 0 126 1;
#X connect 123 0 126 0;
#X connect 124 0 122 0;
#X connect 125 0 123 0;
#X connect 126 0 127 0;
#X connect 127 0 130 0;
#X connect 129 0 123 0;
#X connect 129 0 124 0;
#X connect 130 0 131 0;
#X connect 131 0 138 0;
#X connect 132 0 165 0;
#X connect 134 0 136 0;
#X connect 134 1 137 0;
#X connect 135 0 161 0;
#X connect 136 0 161 0;
#X connect 137 0 161 0;
#X connect 138 0 135 0;
#X connect 138 1 137 0;
#X connect 140 0 153 1;
#X connect 141 0 149 0;
#X connect 141 0 153 1;
#X connect 142 0 154 0;
#X connect 143 0 154 0;
#X connect 144 0 221 0;
#X connect 145 0 146 0;
#X connect 146 0 141 0;
#X connect 146 1 140 0;
#X connect 147 0 150 0;
#X connect 148 0 143 0;
#X connect 148 1 142 0;
#X connect 149 0 150 0;
#X connect 150 0 148 0;
#X connect 153 0 144 0;
#X connect 153 0 147 0;
#X connect 156 0 106 0;
#X connect 156 0 107 0;
#X connect 158 0 113 0;
#X connect 158 0 116 0;
#X connect 159 0 122 0;
#X connect 159 0 125 0;
#X connect 160 0 226 0;
#X connect 162 0 130 1;
#X connect 164 0 92 0;
#X connect 165 0 163 0;
#X connect 166 0 120 1;
#X connect 167 0 168 0;
#X connect 169 0 170 0;
#X connect 169 1 170 4;
#X connect 171 0 169 0;
#X connect 172 0 214 0;
#X connect 173 0 171 2;
#X connect 174 0 171 3;
#X connect 175 0 214 3;
#X connect 176 0 214 2;
#X connect 177 0 214 1;
#X connect 178 0 173 0;
#X connect 179 0 174 0;
#X connect 180 0 175 0;
#X connect 181 0 176 0;
#X connect 182 0 177 0;
#X connect 183 0 169 1;
#X connect 184 0 183 0;
#X connect 185 0 170 2;
#X connect 186 0 185 0;
#X connect 187 0 197 0;
#X connect 188 0 193 0;
#X connect 189 0 194 0;
#X connect 190 0 195 0;
#X connect 191 0 196 0;
#X connect 192 0 198 0;
#X connect 193 0 172 1;
#X connect 194 0 172 2;
#X connect 196 0 214 4;
#X connect 197 0 171 1;
#X connect 198 0 170 1;
#X connect 199 0 188 0;
#X connect 200 0 189 0;
#X connect 201 0 190 0;
#X connect 202 0 180 0;
#X connect 203 0 181 0;
#X connect 204 0 182 0;
#X connect 205 0 191 0;
#X connect 206 0 179 0;
#X connect 207 0 178 0;
#X connect 208 0 187 0;
#X connect 209 0 184 0;
#X connect 210 0 186 0;
#X connect 211 0 192 0;
#X connect 212 0 213 0;
#X connect 214 0 171 0;
#X connect 216 0 215 0;
#X connect 222 0 170 3;
#X connect 223 0 172 0;
#X connect 224 0 172 0;
#X connect 225 0 27 1;
#X connect 226 0 107 1;
