#N canvas 868 169 1080 706 10;
#X obj 241 7 bng 15 250 50 0 empty empty empty 17 7 0 10 -262144 -1
-1;
#X obj 241 28 openpanel;
#X obj 241 73 soundfiler;
#X obj 241 95 expr 44100 / $f1;
#X obj 311 321 *~;
#X obj 311 383 *~;
#X obj 352 378 vsl 15 60 0 5 0 0 empty empty empty 0 -9 0 10 -262144
-1 -1 4700 1;
#X obj 263 6 table loop2;
#X obj 311 347 tabread4~ loop2;
#X floatatom 241 117 5 0 0 0 - - -;
#X floatatom 348 90 10 0 0 0 - - -;
#X obj 368 304 r loop2Size;
#X obj 41 12 bng 15 250 50 0 empty empty empty 17 7 0 10 -262144 -1
-1;
#X obj 41 33 openpanel;
#X obj 41 78 soundfiler;
#X obj 41 100 expr 44100 / $f1;
#X obj 476 217 phasor~;
#X obj 172 321 *~;
#X obj 172 383 *~;
#X obj 213 378 vsl 15 60 0 5 0 0 empty empty empty 0 -9 0 10 -262144
-1 -1 5900 1;
#X floatatom 41 122 5 0 0 0 - - -;
#X floatatom 148 95 10 0 0 0 - - -;
#X obj 63 11 table loop1;
#X msg 41 56 read -resize \$1 loop1;
#X obj 148 115 s loop1Size;
#X obj 41 142 s loop1Rate;
#X obj 172 347 tabread4~ loop1;
#X obj 309 184 r loop1Rate;
#X obj 228 304 r loop1Size;
#X msg 241 51 read -resize \$1 loop2;
#X obj 348 110 s loop2Size;
#X obj 241 137 s loop2Rate;
#X obj 449 15 bng 15 250 50 0 empty empty empty 17 7 0 10 -262144 -1
-1;
#X obj 449 36 openpanel;
#X obj 449 81 soundfiler;
#X obj 449 103 expr 44100 / $f1;
#X obj 449 329 *~;
#X obj 449 391 *~;
#X obj 491 389 vsl 15 60 0 5 0 0 empty empty empty 0 -9 0 10 -262144
-1 -1 0 1;
#X floatatom 449 125 5 0 0 0 - - -;
#X floatatom 556 98 10 0 0 0 - - -;
#X obj 449 145 s loop2Rate;
#X obj 471 14 table loop3;
#X msg 449 59 read -resize \$1 loop3;
#X obj 556 118 s loop3Size;
#X obj 506 312 r loop3Size;
#X obj 449 355 tabread4~ loop3;
#X obj 652 6 bng 15 250 50 0 empty empty empty 17 7 0 10 -262144 -1
-1;
#X obj 652 27 openpanel;
#X obj 652 72 soundfiler;
#X obj 652 94 expr 44100 / $f1;
#X obj 602 324 *~;
#X obj 602 386 *~;
#X obj 644 384 vsl 15 60 0 5 0 0 empty empty empty 0 -9 0 10 -262144
-1 -1 700 1;
#X floatatom 652 116 5 0 0 0 - - -;
#X floatatom 759 89 10 0 0 0 - - -;
#X obj 674 5 table loop4;
#X msg 652 50 read -resize \$1 loop4;
#X obj 759 109 s loop4Size;
#X obj 652 136 s loop4Rate;
#X obj 659 307 r loop4Size;
#X obj 602 350 tabread4~ loop4;
#X obj 850 3 bng 15 250 50 0 empty empty empty 17 7 0 10 -262144 -1
-1;
#X obj 850 24 openpanel;
#X obj 850 69 soundfiler;
#X obj 850 91 expr 44100 / $f1;
#X obj 800 321 *~;
#X obj 800 383 *~;
#X obj 842 381 vsl 15 60 0 5 0 0 empty empty empty 0 -9 0 10 -262144
-1 -1 5900 1;
#X floatatom 850 113 5 0 0 0 - - -;
#X floatatom 957 86 10 0 0 0 - - -;
#X obj 872 2 table loop5;
#X obj 957 106 s loop5Size;
#X obj 850 133 s loop5Rate;
#X msg 850 47 read -resize \$1 loop5;
#X obj 857 304 r loop5Size;
#X obj 800 347 tabread4~ loop5;
#X obj 605 185 r loop5Rate;
#X obj 531 185 r loop4Rate;
#X obj 457 184 r loop3Rate;
#X obj 383 184 r loop2Rate;
#X obj 567 634 dac~;
#X obj 567 593 *~ 0.2;
#X text 52 569 this syncs all tabreadr~ playback provided that every
sample has the same length;
#X connect 0 0 1 0;
#X connect 1 0 29 0;
#X connect 2 0 3 0;
#X connect 2 0 10 0;
#X connect 3 0 9 0;
#X connect 4 0 8 0;
#X connect 5 0 82 0;
#X connect 6 0 5 1;
#X connect 8 0 5 0;
#X connect 9 0 31 0;
#X connect 10 0 30 0;
#X connect 11 0 4 1;
#X connect 12 0 13 0;
#X connect 13 0 23 0;
#X connect 14 0 15 0;
#X connect 14 0 21 0;
#X connect 15 0 20 0;
#X connect 16 0 17 0;
#X connect 16 0 4 0;
#X connect 16 0 36 0;
#X connect 16 0 51 0;
#X connect 16 0 66 0;
#X connect 17 0 26 0;
#X connect 18 0 82 0;
#X connect 19 0 18 1;
#X connect 20 0 25 0;
#X connect 21 0 24 0;
#X connect 23 0 14 0;
#X connect 26 0 18 0;
#X connect 27 0 16 0;
#X connect 28 0 17 1;
#X connect 29 0 2 0;
#X connect 32 0 33 0;
#X connect 33 0 43 0;
#X connect 34 0 35 0;
#X connect 34 0 40 0;
#X connect 35 0 39 0;
#X connect 36 0 46 0;
#X connect 37 0 82 0;
#X connect 38 0 37 1;
#X connect 39 0 41 0;
#X connect 40 0 44 0;
#X connect 43 0 34 0;
#X connect 45 0 36 1;
#X connect 46 0 37 0;
#X connect 47 0 48 0;
#X connect 48 0 57 0;
#X connect 49 0 50 0;
#X connect 49 0 55 0;
#X connect 50 0 54 0;
#X connect 51 0 61 0;
#X connect 52 0 82 0;
#X connect 53 0 52 1;
#X connect 54 0 59 0;
#X connect 55 0 58 0;
#X connect 57 0 49 0;
#X connect 60 0 51 1;
#X connect 61 0 52 0;
#X connect 62 0 63 0;
#X connect 63 0 74 0;
#X connect 64 0 65 0;
#X connect 64 0 70 0;
#X connect 65 0 69 0;
#X connect 66 0 76 0;
#X connect 67 0 82 0;
#X connect 68 0 67 1;
#X connect 69 0 73 0;
#X connect 70 0 72 0;
#X connect 74 0 64 0;
#X connect 75 0 66 1;
#X connect 76 0 67 0;
#X connect 77 0 16 0;
#X connect 78 0 16 0;
#X connect 79 0 16 0;
#X connect 80 0 16 0;
#X connect 82 0 81 0;
#X connect 82 0 81 1;
