#N canvas 958 155 739 576 10;
#X obj 318 39 bng 15 250 50 0 empty empty empty 17 7 0 10 -262144 -1
-1;
#X obj 318 60 openpanel;
#X obj 318 105 soundfiler;
#X obj 318 127 expr 44100 / $f1;
#X obj 318 249 phasor~;
#X obj 318 273 *~;
#X obj 318 335 *~;
#X obj 318 376 dac~;
#X obj 359 330 vsl 15 60 0 5 0 0 empty empty empty 0 -9 0 10 -262144
-1 -1 900 1;
#X obj 340 38 table loop2;
#X obj 318 299 tabread4~ loop2;
#X floatatom 318 149 5 0 0 0 - - -;
#X floatatom 425 122 10 0 0 0 - - -;
#X obj 375 256 r loop2Size;
#X obj 318 227 r loop2Rate;
#X obj 98 40 bng 15 250 50 0 empty empty empty 17 7 0 10 -262144 -1
-1;
#X obj 98 61 openpanel;
#X obj 98 106 soundfiler;
#X obj 98 128 expr 44100 / $f1;
#X obj 98 250 phasor~;
#X obj 98 274 *~;
#X obj 98 336 *~;
#X obj 98 377 dac~;
#X obj 139 331 vsl 15 60 0 5 0 0 empty empty empty 0 -9 0 10 -262144
-1 -1 1100 1;
#X floatatom 98 150 5 0 0 0 - - -;
#X floatatom 205 123 10 0 0 0 - - -;
#X obj 120 39 table loop1;
#X msg 98 84 read -resize \$1 loop1;
#X obj 205 143 s loop1Size;
#X obj 98 170 s loop1Rate;
#X obj 98 300 tabread4~ loop1;
#X obj 98 228 r loop1Rate;
#X obj 154 257 r loop1Size;
#X msg 318 83 read -resize \$1 loop2;
#X obj 425 142 s loop2Size;
#X obj 318 169 s loop2Rate;
#X text 287 454 want to find a way to sync playback of tables \, but
this just plays as-is out of sync for now.;
#X connect 0 0 1 0;
#X connect 1 0 33 0;
#X connect 2 0 3 0;
#X connect 2 0 12 0;
#X connect 3 0 11 0;
#X connect 4 0 5 0;
#X connect 5 0 10 0;
#X connect 6 0 7 0;
#X connect 6 0 7 1;
#X connect 8 0 6 1;
#X connect 10 0 6 0;
#X connect 11 0 35 0;
#X connect 12 0 34 0;
#X connect 13 0 5 1;
#X connect 14 0 4 0;
#X connect 15 0 16 0;
#X connect 16 0 27 0;
#X connect 17 0 18 0;
#X connect 17 0 25 0;
#X connect 18 0 24 0;
#X connect 19 0 20 0;
#X connect 20 0 30 0;
#X connect 21 0 22 0;
#X connect 21 0 22 1;
#X connect 23 0 21 1;
#X connect 24 0 29 0;
#X connect 25 0 28 0;
#X connect 27 0 17 0;
#X connect 30 0 21 0;
#X connect 31 0 19 0;
#X connect 32 0 20 1;
#X connect 33 0 2 0;
