#N canvas 966 317 846 597 10;
#X obj 14 9 adc~;
#X obj 21 551 dac~;
#X obj 23 517 *~;
#X obj 64 46 s~ right;
#X obj 14 46 s~ left;
#X obj 7 467 r~ left;
#X obj 57 467 r~ right;
#X obj 113 478 tgl 15 0 empty empty empty 17 7 0 10 -262144 -1 -1 0
1;
#X obj 113 499 sel 1;
#X obj 113 522 vsl 15 60 0 1 0 0 empty empty empty 0 -9 0 10 -262144
-1 -1 0 1;
#X obj 296 36 tgl 15 0 empty empty empty 17 7 0 10 -262144 -1 -1 0
1;
#X obj 66 198 tabwrite~ loop1;
#X obj 66 168 +~;
#X obj 33 135 r~ left;
#X obj 83 135 r~ right;
#X obj 551 321 phasor~;
#X obj 551 361 *~;
#X obj 584 350 r sampleSize;
#X obj 548 219 r sampleSize;
#X floatatom 628 294 12 0 0 0 - - -;
#X obj 549 258 expr 44100 / $f1;
#X floatatom 506 293 5 0 0 0 - - -;
#X obj 495 220 bng 15 250 50 0 empty empty empty 17 7 0 10 -262144
-1 -1;
#X text 461 296 speed;
#X text 453 211 normal;
#X text 455 223 speed;
#X text 443 310 manipulation;
#X obj 551 386 tabread4~ loop1;
#X obj 232 229 s sampleSize;
#X obj 296 106 timer;
#X obj 296 131 * 44.1;
#X floatatom 296 156 5 0 0 0 - - -;
#X obj 296 202 s loop1;
#X obj 296 59 sel 1;
#X msg 317 82 bang;
#X obj 473 93 s loop1;
#X msg 473 71 resize 661500 \, const 0;
#X obj 684 53 table loop1 661500;
#X msg 455 17 reset;
#X text 497 17 clear loop;
#X msg 449 124 0;
#X obj 449 145 s sampleSize;
#X text 317 35 rec;
#X msg 296 178 resize \$1;
#X obj 550 523 dac~;
#X obj 552 489 *~;
#X obj 578 427 vsl 15 60 0 1 0 0 empty empty empty 0 -9 0 10 -262144
-1 -1 500 1;
#X text 67 322 this is just a simplified version of the previous patch
\, which exposes the timing issues without the complexity of overdubbing
getting in the way.;
#X connect 0 0 4 0;
#X connect 0 1 3 0;
#X connect 2 0 1 0;
#X connect 2 0 1 1;
#X connect 5 0 2 0;
#X connect 6 0 2 0;
#X connect 7 0 8 0;
#X connect 8 0 9 0;
#X connect 8 1 2 1;
#X connect 9 0 2 1;
#X connect 10 0 33 0;
#X connect 12 0 11 0;
#X connect 13 0 12 0;
#X connect 14 0 12 1;
#X connect 15 0 16 0;
#X connect 16 0 27 0;
#X connect 17 0 16 1;
#X connect 18 0 20 0;
#X connect 20 0 19 0;
#X connect 20 0 15 0;
#X connect 21 0 15 0;
#X connect 22 0 20 0;
#X connect 27 0 45 0;
#X connect 29 0 30 0;
#X connect 30 0 31 0;
#X connect 31 0 43 0;
#X connect 31 0 28 0;
#X connect 33 0 29 0;
#X connect 33 0 11 0;
#X connect 33 1 34 0;
#X connect 34 0 29 1;
#X connect 36 0 35 0;
#X connect 38 0 40 0;
#X connect 38 0 36 0;
#X connect 40 0 41 0;
#X connect 43 0 32 0;
#X connect 45 0 44 0;
#X connect 45 0 44 1;
#X connect 46 0 45 1;
#X coords 0 0 1 1 85 25 0;
