#N canvas 441 174 1487 957 10;
#X obj 51 22 bng 15 250 50 0 empty empty empty 17 7 0 10 -262144 -1
-1;
#X obj 51 43 openpanel;
#X obj 51 88 soundfiler;
#X obj 51 110 expr 44100 / $f1;
#X floatatom 51 132 5 0 0 0 - - -;
#X floatatom 158 105 10 0 0 0 - - -;
#X obj 158 125 s loop1Size;
#X obj 176 388 *~;
#X obj 176 450 *~;
#X obj 217 445 vsl 15 60 0 5 0 0 empty empty empty 0 -9 0 10 -262144
-1 -1 5000 1;
#X obj 232 371 r loop1Size;
#X obj 175 327 phasor~;
#X obj 165 502 dac~;
#X msg 88 272 0;
#X msg 286 269 1;
#X obj 51 154 s loop1Rate;
#X obj 175 212 r loop1Rate;
#X obj 286 207 bng 15 250 50 0 empty empty empty 17 7 0 10 -262144
-1 -1;
#X msg 175 237 \$1;
#X obj 73 21 table loop1;
#X msg 51 66 read -resize \$1 loop1;
#X obj 176 414 tabread4~ loop1;
#X obj 327 20 bng 15 250 50 0 empty empty empty 17 7 0 10 -262144 -1
-1;
#X obj 327 41 openpanel;
#X obj 327 86 soundfiler;
#X obj 327 108 expr 44100 / $f1;
#X floatatom 327 130 5 0 0 0 - - -;
#X floatatom 434 103 10 0 0 0 - - -;
#X obj 452 386 *~;
#X obj 452 448 *~;
#X obj 493 443 vsl 15 60 0 5 0 0 empty empty empty 0 -9 0 10 -262144
-1 -1 5800 1;
#X obj 451 325 phasor~;
#X obj 441 500 dac~;
#X obj 451 285 spigot;
#X msg 364 270 0;
#X msg 562 267 1;
#X obj 562 205 bng 15 250 50 0 empty empty empty 17 7 0 10 -262144
-1 -1;
#X msg 451 257 \$1;
#X obj 349 19 table loop2;
#X obj 327 152 s loop2Rate;
#X obj 434 123 s loop2Size;
#X obj 451 219 r loop2Rate;
#X obj 508 369 r loop2Size;
#X obj 452 412 tabread4~ loop2;
#X obj 597 20 bng 15 250 50 0 empty empty empty 17 7 0 10 -262144 -1
-1;
#X obj 597 41 openpanel;
#X obj 597 86 soundfiler;
#X obj 597 108 expr 44100 / $f1;
#X floatatom 597 130 5 0 0 0 - - -;
#X floatatom 704 103 10 0 0 0 - - -;
#X obj 722 386 *~;
#X obj 722 448 *~;
#X obj 763 443 vsl 15 60 0 5 0 0 empty empty empty 0 -9 0 10 -262144
-1 -1 3800 1;
#X obj 721 325 phasor~;
#X obj 711 500 dac~;
#X obj 721 285 spigot;
#X msg 634 270 0;
#X msg 832 267 1;
#X obj 832 205 bng 15 250 50 0 empty empty empty 17 7 0 10 -262144
-1 -1;
#X msg 721 257 \$1;
#X obj 619 19 table loop3;
#X msg 597 64 read -resize \$1 loop3;
#X obj 704 123 s loop3Size;
#X obj 597 152 s loop3Rate;
#X obj 721 219 r loop3Rate;
#X obj 778 369 r loop3Size;
#X obj 722 412 tabread4~ loop3;
#X obj 175 287 spigot;
#X floatatom 260 318 5 0 0 0 - - -;
#X msg 481 629 bang;
#X msg 531 629 stop;
#X obj 556 686 bng 15 250 50 0 empty empty empty 17 7 0 10 -262144
-1 -1;
#X obj 481 663 tabplay~ loop1;
#X msg 627 629 bang;
#X msg 677 629 stop;
#X obj 702 686 bng 15 250 50 0 empty empty empty 17 7 0 10 -262144
-1 -1;
#X msg 778 630 bang;
#X msg 828 630 stop;
#X obj 853 687 bng 15 250 50 0 empty empty empty 17 7 0 10 -262144
-1 -1;
#X obj 627 663 tabplay~ loop2;
#X obj 778 664 tabplay~ loop3;
#X obj 653 565 bng 15 250 50 0 empty empty empty 17 7 0 10 -262144
-1 -1;
#X obj 481 714 *~;
#X obj 522 709 vsl 15 60 0 5 0 0 empty empty empty 0 -9 0 10 -262144
-1 -1 5900 1;
#X obj 470 766 dac~;
#X obj 631 709 *~;
#X obj 672 704 vsl 15 60 0 5 0 0 empty empty empty 0 -9 0 10 -262144
-1 -1 5900 1;
#X obj 620 761 dac~;
#X obj 778 707 *~;
#X obj 819 702 vsl 15 60 0 5 0 0 empty empty empty 0 -9 0 10 -262144
-1 -1 3900 1;
#X obj 767 759 dac~;
#X obj 700 563 bng 15 250 50 0 empty empty empty 17 7 0 10 -262144
-1 -1;
#X msg 327 64 read -resize -maxsize 1.323e+07 \$1 loop2;
#X text 972 275 seriously just messing around with trying to sync loop
playback;
#X connect 0 0 1 0;
#X connect 1 0 20 0;
#X connect 2 0 3 0;
#X connect 2 0 5 0;
#X connect 3 0 4 0;
#X connect 4 0 15 0;
#X connect 5 0 6 0;
#X connect 7 0 21 0;
#X connect 8 0 12 0;
#X connect 8 0 12 1;
#X connect 9 0 8 1;
#X connect 10 0 7 1;
#X connect 11 0 7 0;
#X connect 13 0 11 0;
#X connect 13 0 11 1;
#X connect 14 0 67 1;
#X connect 16 0 18 0;
#X connect 17 0 14 0;
#X connect 17 0 36 0;
#X connect 17 0 3 0;
#X connect 18 0 67 0;
#X connect 20 0 2 0;
#X connect 21 0 8 0;
#X connect 22 0 23 0;
#X connect 23 0 92 0;
#X connect 24 0 25 0;
#X connect 24 0 27 0;
#X connect 25 0 26 0;
#X connect 26 0 39 0;
#X connect 27 0 40 0;
#X connect 28 0 43 0;
#X connect 29 0 32 0;
#X connect 29 0 32 1;
#X connect 30 0 29 1;
#X connect 31 0 28 0;
#X connect 33 0 31 0;
#X connect 34 0 31 0;
#X connect 34 0 31 1;
#X connect 35 0 33 1;
#X connect 36 0 35 0;
#X connect 36 0 25 0;
#X connect 36 0 58 0;
#X connect 37 0 33 0;
#X connect 41 0 37 0;
#X connect 42 0 28 1;
#X connect 43 0 29 0;
#X connect 44 0 45 0;
#X connect 45 0 61 0;
#X connect 46 0 47 0;
#X connect 46 0 49 0;
#X connect 47 0 48 0;
#X connect 48 0 63 0;
#X connect 49 0 62 0;
#X connect 50 0 66 0;
#X connect 51 0 54 0;
#X connect 51 0 54 1;
#X connect 52 0 51 1;
#X connect 53 0 50 0;
#X connect 55 0 53 0;
#X connect 56 0 53 0;
#X connect 56 0 53 1;
#X connect 57 0 55 1;
#X connect 58 0 57 0;
#X connect 58 0 47 0;
#X connect 59 0 55 0;
#X connect 61 0 46 0;
#X connect 64 0 59 0;
#X connect 65 0 50 1;
#X connect 66 0 51 0;
#X connect 67 0 11 0;
#X connect 67 0 68 0;
#X connect 69 0 72 0;
#X connect 70 0 72 0;
#X connect 71 0 69 0;
#X connect 72 0 82 0;
#X connect 72 1 71 0;
#X connect 73 0 79 0;
#X connect 74 0 79 0;
#X connect 75 0 73 0;
#X connect 76 0 80 0;
#X connect 77 0 80 0;
#X connect 78 0 76 0;
#X connect 79 0 85 0;
#X connect 79 1 75 0;
#X connect 80 0 88 0;
#X connect 80 1 78 0;
#X connect 81 0 69 0;
#X connect 81 0 73 0;
#X connect 81 0 76 0;
#X connect 82 0 84 0;
#X connect 82 0 84 1;
#X connect 83 0 82 1;
#X connect 85 0 87 0;
#X connect 85 0 87 1;
#X connect 86 0 85 1;
#X connect 88 0 90 0;
#X connect 88 0 90 1;
#X connect 89 0 88 1;
#X connect 91 0 77 0;
#X connect 91 0 74 0;
#X connect 91 0 70 0;
#X connect 92 0 24 0;
