#N canvas 1030 271 849 678 10;
#X obj 45 144 adc~;
#X obj 301 45 tgl 15 0 empty empty empty 17 7 0 10 -262144 -1 -1 0
1;
#X obj 55 199 tabwrite~ loop1;
#X obj 300 141 timer;
#X obj 301 68 sel 1;
#X msg 328 93 bang;
#X obj 465 78 s loop1;
#X msg 465 56 resize 661500 \, const 0;
#X obj 694 63 table loop1 661500;
#X msg 465 27 reset;
#X text 507 27 clear loop;
#X text 322 44 rec;
#X msg 124 174 stop;
#X msg 354 163 0;
#X obj 300 196 expr 1000 / $f1;
#X obj 300 224 phasor~;
#X obj 325 255 * 44.1;
#X obj 300 290 *~;
#X obj 300 315 tabread4~ loop1;
#X obj 300 368 *~;
#X floatatom 328 346 5 0 0 0 - - -;
#X text 366 346 volume;
#X obj 300 393 hip~ 5;
#X obj 300 422 dac~;
#X floatatom 256 203 5 0 0 0 - - -;
#X text 211 206 speed;
#X text 193 220 manipulation;
#X obj 255 181 bng 15 250 50 0 empty empty empty 17 7 0 10 -262144
-1 -1;
#X text 213 172 normal;
#X text 215 184 speed;
#X obj 14 200 dac~;
#X text 444 144 a different simplified version. this eliminates tabplay~
completely to illuminate whether or not the combination of tabplay~
and tabread4~ is the issue. in this version the very first recording
made after the patch is opened will play back with correct timing \,
but after clearing the loop and making new loops \, timing issues return.
;
#X connect 0 0 2 0;
#X connect 0 0 30 0;
#X connect 0 1 2 0;
#X connect 0 1 30 1;
#X connect 1 0 4 0;
#X connect 3 0 14 0;
#X connect 3 0 16 0;
#X connect 4 0 3 0;
#X connect 4 0 2 0;
#X connect 4 0 13 0;
#X connect 4 1 5 0;
#X connect 5 0 3 1;
#X connect 5 0 12 0;
#X connect 7 0 6 0;
#X connect 9 0 7 0;
#X connect 12 0 2 0;
#X connect 13 0 14 0;
#X connect 14 0 15 0;
#X connect 15 0 17 0;
#X connect 16 0 17 1;
#X connect 17 0 18 0;
#X connect 18 0 19 0;
#X connect 19 0 22 0;
#X connect 20 0 19 1;
#X connect 22 0 23 0;
#X connect 22 0 23 1;
#X connect 24 0 15 0;
#X connect 27 0 14 0;
