#N canvas 682 111 1425 1052 10;
#X obj 61 81 +~;
#X obj 60 379 *~;
#X obj 61 432 *~ 0.5;
#X obj 61 526 tabwrite~ loop;
#X obj 124 352 line~;
#X obj 124 323 pack 0 6;
#X msg 124 280 0;
#X msg 164 292 1;
#X msg 505 52 reset;
#X obj 334 441 tabplay~ loop;
#X obj 86 81 dac~;
#X obj 339 306 timer;
#X obj 339 338 * 44.1;
#X msg 339 360 resize \$1;
#X obj 339 389 s loop;
#X msg 745 100 normalize;
#X obj 357 260 t b b b;
#X msg 537 116 resize 3.969e+06 \, const 0;
#X obj 744 60 table loop 3.969e+06;
#X msg 393 70 0;
#X obj 290 91 f;
#X obj 277 130 + 1;
#X msg 392 92 2;
#X obj 317 111 sel 0 1 2 3;
#X obj 250 108 sel 3;
#X text 547 52 clear loop;
#X obj 290 33 tgl 15 0 empty empty empty 17 7 0 10 -262144 -1 -1 0
1;
#X msg 290 68 bang;
#X text 308 31 rec;
#X obj 258 389 s sampleSize;
#X floatatom 258 366 12 0 0 0 - - -, f 12;
#X obj 745 122 s loop;
#X text 811 100 normalize volume;
#X obj 537 137 s loop;
#X obj 734 348 phasor~;
#X obj 734 388 *~;
#X obj 765 371 r sampleSize;
#X obj 734 413 tabread4~ loop;
#X obj 732 262 r sampleSize;
#X floatatom 811 321 12 0 0 0 - - -, f 12;
#X obj 723 504 dac~;
#X floatatom 764 446 5 0 0 0 - - -, f 5;
#X obj 732 285 expr 44100 / $f1;
#X obj 440 418 bng 15 250 50 0 empty empty empty 17 7 0 10 -262144
-1 -1;
#X msg 498 175 0;
#X obj 498 196 s sampleSize;
#X floatatom 689 320 5 0 0 0 - - -, f 5;
#X obj 678 247 bng 15 250 50 0 empty empty empty 17 7 0 10 -262144
-1 -1;
#X text 644 323 speed;
#X text 636 238 normal;
#X text 638 250 speed;
#X text 626 337 manipulation;
#X obj 723 466 *~ 1;
#X obj 61 48 adc~ 1;
#X obj 332 574 +~;
#X obj 331 872 *~;
#X obj 332 925 *~ 0.5;
#X obj 395 845 line~;
#X obj 395 816 pack 0 6;
#X msg 395 773 0;
#X msg 435 785 1;
#X msg 776 545 reset;
#X obj 357 574 dac~;
#X obj 610 799 timer;
#X obj 610 831 * 44.1;
#X msg 610 853 resize \$1;
#X msg 1016 593 normalize;
#X obj 628 753 t b b b;
#X msg 808 609 resize 3.969e+06 \, const 0;
#X msg 664 563 0;
#X obj 561 584 f;
#X obj 548 623 + 1;
#X msg 663 585 2;
#X obj 588 604 sel 0 1 2 3;
#X obj 521 601 sel 3;
#X text 818 545 clear loop;
#X obj 561 526 tgl 15 0 empty empty empty 17 7 0 10 -262144 -1 -1 0
1;
#X msg 561 561 bang;
#X text 579 524 rec;
#X floatatom 529 859 12 0 0 0 - - -, f 12;
#X text 1082 593 normalize volume;
#X obj 1005 841 phasor~;
#X obj 1005 881 *~;
#X floatatom 1082 814 12 0 0 0 - - -, f 12;
#X obj 994 997 dac~;
#X floatatom 1035 939 5 0 0 0 - - -, f 5;
#X obj 1003 778 expr 44100 / $f1;
#X obj 711 911 bng 15 250 50 0 empty empty empty 17 7 0 10 -262144
-1 -1;
#X msg 769 668 0;
#X floatatom 960 813 5 0 0 0 - - -, f 5;
#X obj 949 740 bng 15 250 50 0 empty empty empty 17 7 0 10 -262144
-1 -1;
#X text 915 816 speed;
#X text 907 731 normal;
#X text 909 743 speed;
#X text 897 830 manipulation;
#X obj 994 959 *~ 1;
#X obj 332 1019 tabwrite~ loop2;
#X obj 605 934 tabplay~ loop2;
#X obj 610 882 s loop2;
#X obj 529 882 s sampleSize2;
#X obj 808 630 s loop2;
#X obj 769 689 s sampleSize2;
#X obj 1016 615 s loop2;
#X obj 1003 755 r sampleSize2;
#X obj 1036 864 r sampleSize2;
#X obj 1005 906 tabread4~ loop2;
#X obj 332 541 adc~ 3;
#X obj 1015 553 table loop2 3.969e+06;
#X text 950 220 total duplication \, it's really time for abstractions
regardless of how pleased i am with functionality. this patch is to
experiment with separate audio channels coming in through a usb audio
interface.;
#X connect 0 0 1 0;
#X connect 1 0 2 0;
#X connect 2 0 3 0;
#X connect 4 0 1 1;
#X connect 5 0 4 0;
#X connect 6 0 5 0;
#X connect 7 0 5 0;
#X connect 8 0 19 0;
#X connect 8 0 17 0;
#X connect 8 0 44 0;
#X connect 9 0 3 0;
#X connect 9 1 3 0;
#X connect 9 1 43 0;
#X connect 11 0 12 0;
#X connect 12 0 13 0;
#X connect 12 0 30 0;
#X connect 13 0 14 0;
#X connect 15 0 31 0;
#X connect 16 0 6 0;
#X connect 16 1 43 0;
#X connect 16 2 11 1;
#X connect 17 0 33 0;
#X connect 19 0 20 1;
#X connect 20 0 24 0;
#X connect 20 0 23 0;
#X connect 21 0 20 1;
#X connect 22 0 20 1;
#X connect 23 0 3 0;
#X connect 23 0 11 0;
#X connect 23 0 7 0;
#X connect 23 1 16 0;
#X connect 23 1 6 0;
#X connect 23 2 7 0;
#X connect 23 3 6 0;
#X connect 23 3 22 0;
#X connect 24 1 21 0;
#X connect 26 0 27 0;
#X connect 27 0 20 0;
#X connect 30 0 29 0;
#X connect 34 0 35 0;
#X connect 35 0 37 0;
#X connect 36 0 35 1;
#X connect 37 0 52 0;
#X connect 38 0 42 0;
#X connect 41 0 52 1;
#X connect 42 0 39 0;
#X connect 42 0 34 0;
#X connect 43 0 9 0;
#X connect 44 0 45 0;
#X connect 46 0 34 0;
#X connect 47 0 42 0;
#X connect 52 0 40 0;
#X connect 52 0 40 1;
#X connect 53 0 0 0;
#X connect 53 0 10 0;
#X connect 53 0 10 1;
#X connect 54 0 55 0;
#X connect 55 0 56 0;
#X connect 56 0 96 0;
#X connect 57 0 55 1;
#X connect 58 0 57 0;
#X connect 59 0 58 0;
#X connect 60 0 58 0;
#X connect 61 0 69 0;
#X connect 61 0 68 0;
#X connect 61 0 88 0;
#X connect 63 0 64 0;
#X connect 64 0 65 0;
#X connect 64 0 79 0;
#X connect 65 0 98 0;
#X connect 66 0 102 0;
#X connect 67 0 59 0;
#X connect 67 1 87 0;
#X connect 67 2 63 1;
#X connect 68 0 100 0;
#X connect 69 0 70 1;
#X connect 70 0 74 0;
#X connect 70 0 73 0;
#X connect 71 0 70 1;
#X connect 72 0 70 1;
#X connect 73 0 63 0;
#X connect 73 0 60 0;
#X connect 73 0 96 0;
#X connect 73 1 67 0;
#X connect 73 1 59 0;
#X connect 73 2 60 0;
#X connect 73 3 59 0;
#X connect 73 3 72 0;
#X connect 74 1 71 0;
#X connect 76 0 77 0;
#X connect 77 0 70 0;
#X connect 79 0 99 0;
#X connect 81 0 82 0;
#X connect 82 0 105 0;
#X connect 85 0 95 1;
#X connect 86 0 83 0;
#X connect 86 0 81 0;
#X connect 87 0 97 0;
#X connect 88 0 101 0;
#X connect 89 0 81 0;
#X connect 90 0 86 0;
#X connect 95 0 84 0;
#X connect 95 0 84 1;
#X connect 97 0 96 0;
#X connect 97 1 87 0;
#X connect 97 1 96 0;
#X connect 103 0 86 0;
#X connect 104 0 82 1;
#X connect 105 0 95 0;
#X connect 106 0 54 0;
#X connect 106 0 62 0;
#X connect 106 0 62 1;
