#N canvas 989 171 997 782 10;
#X obj 61 48 adc~;
#X obj 61 81 +~;
#X obj 60 379 *~;
#X obj 61 432 *~ 0.5;
#X obj 61 526 tabwrite~ loop;
#X obj 124 352 line~;
#X obj 124 323 pack 0 6;
#X msg 124 280 0;
#X msg 164 292 1;
#X msg 505 52 reset;
#X obj 334 441 tabplay~ loop;
#X obj 86 81 dac~;
#X obj 339 306 timer;
#X obj 339 338 * 44.1;
#X msg 339 360 resize \$1;
#X obj 339 389 s loop;
#X msg 745 100 normalize;
#X obj 357 260 t b b b;
#X msg 537 116 resize 3.969e+06 \, const 0;
#X obj 744 60 table loop 3.969e+06;
#X msg 393 70 0;
#X obj 290 91 f;
#X obj 277 130 + 1;
#X msg 392 92 2;
#X obj 317 111 sel 0 1 2 3;
#X obj 250 108 sel 3;
#X text 547 52 clear loop;
#X obj 290 33 tgl 15 0 empty empty empty 17 7 0 10 -262144 -1 -1 0
1;
#X msg 290 68 bang;
#X text 308 31 rec;
#X obj 258 389 s sampleSize;
#X floatatom 258 366 12 0 0 0 - - -;
#X obj 745 122 s loop;
#X text 811 100 normalize volume;
#X obj 537 137 s loop;
#X obj 833 570 phasor~;
#X obj 833 610 *~;
#X obj 864 593 r sampleSize;
#X obj 833 635 tabread4~ loop;
#X obj 822 688 *~;
#X obj 831 484 r sampleSize;
#X floatatom 910 543 12 0 0 0 - - -;
#X obj 822 726 dac~;
#X floatatom 863 668 5 0 0 0 - - -;
#X obj 831 507 expr 44100 / $f1;
#X obj 440 418 bng 15 250 50 0 empty empty empty 17 7 0 10 -262144
-1 -1;
#X msg 498 175 0;
#X obj 498 196 s sampleSize;
#X floatatom 765 542 10 0 0 0 - - -;
#X obj 772 492 bng 15 250 50 0 empty empty empty 17 7 0 10 -262144
-1 -1;
#X text 720 545 speed;
#X text 760 463 normal;
#X text 762 475 speed;
#X text 702 559 manipulation;
#X obj 560 525 line;
#X floatatom 555 458 5 0 0 0 - - -;
#X floatatom 592 457 5 0 0 0 - - -;
#X obj 560 485 pack f f f;
#X msg 560 505 \$1 \, \$2 \$3;
#X floatatom 634 469 10 0 0 0 - - -;
#X floatatom 589 405 5 0 0 0 - - -;
#X obj 589 426 - 0.1;
#X floatatom 634 426 5 0 0 0 - - -;
#X obj 634 447 * 100;
#X msg 637 508 stop;
#X text 638 387 speed;
#X text 629 403 manipulation;
#X text 219 609 this has all the same timing issues of the previous
patch that uses tabplay~ for overdubbing and tabread4~ for playback
and manipulation \, but there are some fun automated speed changes
in this patch.;
#X connect 0 0 1 0;
#X connect 0 0 11 0;
#X connect 0 1 1 1;
#X connect 0 1 11 1;
#X connect 1 0 2 0;
#X connect 2 0 3 0;
#X connect 3 0 4 0;
#X connect 5 0 2 1;
#X connect 6 0 5 0;
#X connect 7 0 6 0;
#X connect 8 0 6 0;
#X connect 9 0 20 0;
#X connect 9 0 18 0;
#X connect 9 0 46 0;
#X connect 10 0 4 0;
#X connect 10 1 4 0;
#X connect 10 1 45 0;
#X connect 12 0 13 0;
#X connect 13 0 14 0;
#X connect 13 0 31 0;
#X connect 14 0 15 0;
#X connect 16 0 32 0;
#X connect 17 0 7 0;
#X connect 17 1 45 0;
#X connect 17 2 12 1;
#X connect 18 0 34 0;
#X connect 20 0 21 1;
#X connect 21 0 25 0;
#X connect 21 0 24 0;
#X connect 22 0 21 1;
#X connect 23 0 21 1;
#X connect 24 0 4 0;
#X connect 24 0 12 0;
#X connect 24 0 8 0;
#X connect 24 1 17 0;
#X connect 24 1 7 0;
#X connect 24 2 8 0;
#X connect 24 3 7 0;
#X connect 24 3 23 0;
#X connect 25 1 22 0;
#X connect 27 0 28 0;
#X connect 28 0 21 0;
#X connect 31 0 30 0;
#X connect 35 0 36 0;
#X connect 36 0 38 0;
#X connect 37 0 36 1;
#X connect 38 0 39 0;
#X connect 39 0 42 0;
#X connect 39 0 42 1;
#X connect 40 0 44 0;
#X connect 43 0 39 1;
#X connect 44 0 41 0;
#X connect 44 0 35 0;
#X connect 45 0 10 0;
#X connect 46 0 47 0;
#X connect 48 0 35 0;
#X connect 49 0 44 0;
#X connect 49 0 64 0;
#X connect 54 0 48 0;
#X connect 55 0 57 0;
#X connect 56 0 57 1;
#X connect 57 0 58 0;
#X connect 58 0 54 0;
#X connect 59 0 57 2;
#X connect 60 0 61 0;
#X connect 60 0 55 0;
#X connect 61 0 56 0;
#X connect 62 0 63 0;
#X connect 63 0 59 0;
#X connect 64 0 54 0;
