#N canvas 872 113 923 650 10;
#X obj 70 45 adc~;
#X msg 343 339 bang;
#X obj 344 433 dac~;
#X obj 71 93 +~;
#X msg 387 339 stop;
#X obj 436 402 bng 15 250 50 0 empty empty empty 17 7 0 10 -262144
-1 -1;
#X obj 235 46 bng 15 250 50 0 empty empty empty 17 7 0 10 -262144 -1
-1;
#X obj 235 68 tgl 15 0 empty empty empty 17 7 0 10 -262144 -1 -1 0
1;
#X obj 233 172 timer;
#X floatatom 234 201 5 0 0 0 - - -;
#X obj 234 230 * 44.1;
#X floatatom 234 259 5 0 0 0 - - -;
#X msg 106 134 bang;
#X msg 157 150 stop;
#X obj 232 104 sel 1;
#X obj 532 392 soundfiler;
#X floatatom 532 420 5 0 0 0 - - -;
#X obj 72 180 tabwrite~ loop;
#X obj 343 380 tabplay~ loop;
#X msg 532 365 write -wave ./example.wav loop;
#X obj 538 320 s loop;
#X obj 235 332 s loop;
#X msg 266 138 bang;
#X msg 227 137 bang;
#X obj 537 19 table loop;
#X msg 538 293 const 0;
#X msg 235 297 resize \$1;
#X text 330 88 The problem with using only a toggle here is that the
loop length will always be adjusted when instead you want to overdub.
;
#X connect 0 0 3 0;
#X connect 0 1 3 0;
#X connect 1 0 18 0;
#X connect 3 0 17 0;
#X connect 4 0 18 0;
#X connect 5 0 1 0;
#X connect 6 0 7 0;
#X connect 7 0 14 0;
#X connect 8 0 9 0;
#X connect 9 0 10 0;
#X connect 10 0 11 0;
#X connect 11 0 26 0;
#X connect 12 0 17 0;
#X connect 13 0 17 0;
#X connect 14 0 12 0;
#X connect 14 0 23 0;
#X connect 14 1 22 0;
#X connect 14 1 13 0;
#X connect 15 0 16 0;
#X connect 18 0 2 0;
#X connect 18 0 2 1;
#X connect 18 1 5 0;
#X connect 19 0 15 0;
#X connect 22 0 8 1;
#X connect 23 0 8 0;
#X connect 25 0 20 0;
#X connect 26 0 21 0;
#X connect 26 0 1 0;
