#N canvas 1032 318 645 620 10;
#X obj 88 98 osc~;
#X obj 88 121 *~;
#X floatatom 88 32 5 0 0 0 - - -;
#X obj 88 8 ctlin 0 1;
#X floatatom 88 78 5 0 0 0 - - -;
#X obj 88 56 + 70;
#X obj 88 143 throw~;
#X obj 33 486 catch~;
#X obj 33 560 dac~;
#X obj 98 515 vsl 15 60 0 5 0 0 empty empty empty 0 -9 0 10 -262144
-1 -1 1300 1;
#X floatatom 127 105 5 0 0 0 - - -;
#X obj 127 81 ctlin 4 1;
#X obj 197 98 osc~;
#X obj 197 123 *~;
#X floatatom 197 32 5 0 0 0 - - -;
#X floatatom 197 78 5 0 0 0 - - -;
#X obj 197 56 + 70;
#X obj 197 143 throw~;
#X floatatom 236 105 5 0 0 0 - - -;
#X obj 308 98 osc~;
#X obj 308 121 *~;
#X floatatom 308 32 5 0 0 0 - - -;
#X floatatom 308 78 5 0 0 0 - - -;
#X obj 308 56 + 70;
#X obj 308 143 throw~;
#X floatatom 347 105 5 0 0 0 - - -;
#X obj 419 98 osc~;
#X obj 419 121 *~;
#X floatatom 419 32 5 0 0 0 - - -;
#X floatatom 419 78 5 0 0 0 - - -;
#X obj 419 143 throw~;
#X floatatom 458 105 5 0 0 0 - - -;
#X obj 197 8 ctlin 1 1;
#X obj 308 8 ctlin 2 1;
#X obj 419 8 ctlin 3 1;
#X obj 236 81 ctlin 5 1;
#X obj 347 81 ctlin 6 1;
#X obj 458 81 ctlin 7 1;
#X obj 18 429 *~;
#X floatatom 18 290 5 0 0 0 - - -;
#X floatatom 18 386 5 0 0 0 - - -;
#X obj 18 451 throw~;
#X floatatom 73 413 5 0 0 0 - - -;
#X obj 246 361 *~;
#X floatatom 246 270 5 0 0 0 - - -;
#X floatatom 246 316 5 0 0 0 - - -;
#X obj 246 381 throw~;
#X floatatom 305 343 5 0 0 0 - - -;
#X obj 388 359 *~;
#X floatatom 388 270 5 0 0 0 - - -;
#X floatatom 388 316 5 0 0 0 - - -;
#X obj 388 381 throw~;
#X floatatom 447 343 5 0 0 0 - - -;
#X obj 519 359 *~;
#X floatatom 519 270 5 0 0 0 - - -;
#X floatatom 519 316 5 0 0 0 - - -;
#X obj 519 381 throw~;
#X floatatom 570 343 5 0 0 0 - - -;
#X obj 18 266 ctlin 8 1;
#X obj 246 246 ctlin 9 1;
#X obj 388 246 ctlin 10 1;
#X obj 519 247 ctlin 11 1;
#X obj 73 389 ctlin 12 1;
#X obj 305 319 ctlin 13 1;
#X obj 447 319 ctlin 14 1;
#X obj 570 319 ctlin 15 1;
#X obj 519 336 phasor~;
#X obj 388 336 phasor~;
#X obj 246 336 phasor~;
#X obj 18 406 phasor~;
#X obj 519 294 + 270;
#X obj 388 294 + 270;
#X obj 246 294 + 670;
#X obj 140 199 ctlin 16 1;
#X obj 18 335 +;
#X floatatom 133 362 10 0 0 0 - - -;
#X obj 178 251 spigot;
#X obj 197 227 > 64;
#X obj 97 250 spigot;
#X obj 131 227 < 64;
#X obj 133 319 counter;
#X msg 97 288 dec;
#X msg 178 290 inc;
#X obj 133 341 * 1.3;
#X obj 97 270 bng 15 250 50 0 empty empty empty 17 7 0 10 -262144 -1
-1;
#X obj 178 273 bng 15 250 50 0 empty empty empty 17 7 0 10 -262144
-1 -1;
#X msg 60 318 0;
#X obj 419 56 + 290;
#X obj 33 519 *~ 0.1;
#X text 174 459 not much special going on in here \, just experimenting
with my midi controller.;
#X connect 0 0 1 0;
#X connect 1 0 6 0;
#X connect 2 0 5 0;
#X connect 3 0 2 0;
#X connect 4 0 0 0;
#X connect 5 0 4 0;
#X connect 7 0 88 0;
#X connect 9 0 88 1;
#X connect 10 0 1 1;
#X connect 11 0 10 0;
#X connect 12 0 13 0;
#X connect 13 0 17 0;
#X connect 14 0 16 0;
#X connect 15 0 12 0;
#X connect 16 0 15 0;
#X connect 18 0 13 1;
#X connect 19 0 20 0;
#X connect 20 0 24 0;
#X connect 21 0 23 0;
#X connect 22 0 19 0;
#X connect 23 0 22 0;
#X connect 25 0 20 1;
#X connect 26 0 27 0;
#X connect 27 0 30 0;
#X connect 28 0 87 0;
#X connect 29 0 26 0;
#X connect 31 0 27 1;
#X connect 32 0 14 0;
#X connect 33 0 21 0;
#X connect 34 0 28 0;
#X connect 35 0 18 0;
#X connect 36 0 25 0;
#X connect 37 0 31 0;
#X connect 38 0 41 0;
#X connect 39 0 74 0;
#X connect 40 0 69 0;
#X connect 42 0 38 1;
#X connect 43 0 46 0;
#X connect 44 0 72 0;
#X connect 45 0 68 0;
#X connect 47 0 43 1;
#X connect 48 0 51 0;
#X connect 49 0 71 0;
#X connect 50 0 67 0;
#X connect 52 0 48 1;
#X connect 53 0 56 0;
#X connect 54 0 70 0;
#X connect 55 0 66 0;
#X connect 57 0 53 1;
#X connect 58 0 39 0;
#X connect 59 0 44 0;
#X connect 60 0 49 0;
#X connect 61 0 54 0;
#X connect 62 0 42 0;
#X connect 63 0 47 0;
#X connect 64 0 52 0;
#X connect 65 0 57 0;
#X connect 66 0 53 0;
#X connect 67 0 48 0;
#X connect 68 0 43 0;
#X connect 69 0 38 0;
#X connect 70 0 55 0;
#X connect 71 0 50 0;
#X connect 72 0 45 0;
#X connect 73 0 76 0;
#X connect 73 0 77 0;
#X connect 73 0 79 0;
#X connect 73 0 78 0;
#X connect 74 0 40 0;
#X connect 75 0 74 1;
#X connect 76 0 85 0;
#X connect 77 0 76 1;
#X connect 78 0 84 0;
#X connect 79 0 78 1;
#X connect 80 0 83 0;
#X connect 81 0 80 0;
#X connect 82 0 80 0;
#X connect 83 0 75 0;
#X connect 84 0 81 0;
#X connect 85 0 82 0;
#X connect 86 0 74 1;
#X connect 87 0 29 0;
#X connect 88 0 8 0;
#X connect 88 0 8 1;
