#N canvas 1683 369 553 315 10;
#X obj -38 45 ctlin 48 2;
#X obj -38 83 sample-player~;
#X msg -24 64 symbol A_01;
#X obj 52 83 sample-player~;
#X obj 142 83 sample-player~;
#X obj 232 83 sample-player~;
#X obj 52 45 ctlin 49 2;
#X obj 142 45 ctlin 50 2;
#X obj 232 45 ctlin 51 2;
#X msg 66 64 symbol A_02;
#X msg 156 64 symbol A_03;
#X msg 246 64 symbol A_04;
#X obj -38 173 sample-player~;
#X obj 52 173 sample-player~;
#X obj 142 173 sample-player~;
#X obj 232 173 sample-player~;
#X obj -38 135 ctlin 52 2;
#X obj 52 135 ctlin 53 2;
#X obj 142 135 ctlin 54 2;
#X obj 232 135 ctlin 55 2;
#X msg -24 154 symbol A_05;
#X msg 66 154 symbol A_06;
#X msg 156 154 symbol A_07;
#X msg 246 154 symbol A_08;
#X connect 0 0 1 0;
#X connect 2 0 1 1;
#X connect 6 0 3 0;
#X connect 7 0 4 0;
#X connect 8 0 5 0;
#X connect 9 0 3 1;
#X connect 10 0 4 1;
#X connect 11 0 5 1;
#X connect 16 0 12 0;
#X connect 17 0 13 0;
#X connect 18 0 14 0;
#X connect 19 0 15 0;
#X connect 20 0 12 1;
#X connect 21 0 13 1;
#X connect 22 0 14 1;
#X connect 23 0 15 1;
