#N canvas 915 211 1070 727 10;
#X obj 254 111 soundfiler;
#X obj 254 133 expr 44100 / $f1;
#X obj 254 240 phasor~;
#X obj 254 264 *~;
#X floatatom 254 155 5 0 0 0 - - -;
#X floatatom 361 128 10 0 0 0 - - -;
#X obj 789 9 table loop1;
#X obj 361 148 s loop1Size;
#X obj 254 175 s loop1Rate;
#X obj 254 285 tabread4~ loop1;
#X obj 254 196 r loop1Rate;
#X obj 310 247 r loop1Size;
#X obj 149 325 hsl 60 15 0 1 0 0 empty empty empty -2 -8 0 10 -262144
-1 -1 5068 1;
#X obj 146 260 metro 50;
#X obj 146 281 snapshot~;
#X obj 146 302 /;
#X obj 171 302 r loop1Size;
#X msg 146 240 bang;
#X floatatom 345 211 5 0 0 0 - - -;
#X obj 211 90 bng 15 250 50 0 empty empty empty 17 7 0 10 -262144 -1
-1;
#X msg 208 223 0;
#X text 204 202 pause;
#X text 199 71 resume;
#X obj 345 190 bng 15 250 50 0 empty empty empty 17 7 0 10 -262144
-1 -1;
#X text 364 189 resume;
#X msg 85 223 0;
#X text 83 202 stop;
#X text 381 210 speed;
#X floatatom 608 99 10 0 0 0 - - -;
#X obj 603 57 r loop1Size;
#X obj 585 163 line~;
#X msg 545 123 0;
#X text 540 105 stop;
#X obj 608 78 expr ($f1 / 44.1);
#X obj 585 121 pack f f;
#X obj 585 184 tabread4~ loop1;
#X obj 546 84 bng 15 250 50 0 empty empty empty 17 7 0 10 -262144 -1
-1;
#X msg 585 142 0 \, \$1 \$2;
#X floatatom 584 99 3 0 0 0 - - -;
#X text 541 64 play;
#X obj 131 508 catch~;
#X obj 131 541 *~;
#X obj 131 582 dac~;
#X obj 172 536 vsl 15 60 0 5 0 0 empty empty empty 0 -9 0 10 -262144
-1 -1 1100 1;
#X obj 585 205 throw~;
#X obj 254 306 throw~;
#X obj 254 46 bng 15 250 50 0 empty empty empty 17 7 0 10 -262144 -1
-1;
#X obj 254 67 openpanel;
#X msg 254 89 read -resize \$1 loop1;
#X text 429 378 playing with loop mode and a one-shot mode \, unsure
how to create a playback position indicator in the one-shot mode. additionally
\, would like to de-couple the sound file selection from triggering
immediate playback.;
#X connect 0 0 1 0;
#X connect 0 0 5 0;
#X connect 1 0 4 0;
#X connect 2 0 3 0;
#X connect 3 0 9 0;
#X connect 3 0 14 0;
#X connect 4 0 8 0;
#X connect 5 0 7 0;
#X connect 9 0 45 0;
#X connect 10 0 2 0;
#X connect 11 0 3 1;
#X connect 13 0 14 0;
#X connect 14 0 15 0;
#X connect 15 0 12 0;
#X connect 16 0 15 1;
#X connect 17 0 13 0;
#X connect 18 0 2 0;
#X connect 19 0 1 0;
#X connect 20 0 2 0;
#X connect 23 0 18 0;
#X connect 25 0 2 1;
#X connect 25 0 2 0;
#X connect 28 0 34 1;
#X connect 29 0 33 0;
#X connect 29 0 38 0;
#X connect 30 0 35 0;
#X connect 31 0 30 0;
#X connect 33 0 28 0;
#X connect 34 0 37 0;
#X connect 35 0 44 0;
#X connect 36 0 38 0;
#X connect 36 0 28 0;
#X connect 37 0 30 0;
#X connect 38 0 34 0;
#X connect 40 0 41 0;
#X connect 41 0 42 0;
#X connect 41 0 42 1;
#X connect 43 0 41 1;
#X connect 46 0 47 0;
#X connect 47 0 48 0;
#X connect 48 0 0 0;
#X connect 48 0 17 0;
