#N canvas 28 38 1416 845 12;
#X declare -lib zexy;
#X obj 668 1373 channel-out~;
#X obj 16 -116 midi-observer;
#X msg 563 206 clear \$1;
#X obj 563 188 bng 15 250 50 0 empty empty empty 17 7 0 10 #fcfcfc #000000 #000000;
#X msg 501 132 rec \$1;
#X msg 1067 240 clear \$1;
#X obj 1067 222 bng 15 250 50 0 empty empty empty 17 7 0 10 #fcfcfc #000000 #000000;
#X msg 1038 102 rec \$1;
#X msg 801 1358 volume 1;
#X obj 800 1337 loadbang;
#X obj 1469 151 soundfiler;
#X obj 1470 315 phasor~;
#X obj 1491 266 loadbang;
#X msg 1492 286 0;
#X obj 1548 267 bng 15 250 50 0 empty empty empty 17 7 0 10 #fcfcfc #000000 #000000;
#X obj 1548 287 f;
#X obj 1470 370 *~;
#X obj 1713 288 hsl 128 15 0 1 0 0 empty empty empty -2 -8 0 10 #fcfcfc #000000 #000000 0 1;
#X obj 1710 310 change;
#X obj 1710 369 i;
#X msg 1710 393 \$1 100;
#X obj 1710 414 line~;
#X obj 1710 346 * 40000;
#X obj 1709 259 / 127;
#X obj 1486 493 metal~;
#N canvas 183 356 449 358 tables-1 0;
#N canvas 0 22 450 278 (subpatch) 0;
#X array left-channel-1 131712 float 2;
#X coords 0 1 131712 -1 200 140 1;
#X restore 46 26 graph;
#N canvas 0 22 450 278 (subpatch) 0;
#X array right-channel-1 131712 float 2;
#X coords 0 1 131712 -1 200 140 1 0 0;
#X restore 45 189 graph;
#X restore 1738 9 pd tables-1;
#X obj 1471 415 tabread4~ left-channel-1;
#X obj 1523 439 tabread4~ right-channel-1;
#X obj 1484 178 s \$0-sample-size-1;
#X obj 1501 236 s \$0-phasor-rate-1;
#X obj 1574 267 r \$0-phasor-rate-1;
#X obj 1485 348 r \$0-sample-size-1;
#X obj 1568 380 r~ \$0-scratch-1;
#X obj 1710 437 s~ \$0-scratch-1;
#X obj 1906 151 soundfiler;
#X obj 1907 315 phasor~;
#X obj 1928 266 loadbang;
#X msg 1929 286 0;
#X obj 1985 267 bng 15 250 50 0 empty empty empty 17 7 0 10 #fcfcfc #000000 #000000;
#X obj 1985 287 f;
#X obj 1907 370 *~;
#X obj 2150 288 hsl 128 15 0 1 0 0 empty empty empty -2 -8 0 10 #fcfcfc #000000 #000000 0 1;
#X obj 2147 310 change;
#X obj 2147 369 i;
#X msg 2147 393 \$1 100;
#X obj 2147 414 line~;
#X obj 1923 493 metal~;
#X obj 1544 1171 loadbang;
#X msg 1545 1191 volume 1;
#N canvas 183 356 449 358 tables-2 0;
#N canvas 0 22 450 278 (subpatch) 0;
#X array left-channel-2 131712 float 2;
#X coords 0 1 131712 -1 200 140 1 0 0;
#X restore 46 26 graph;
#N canvas 0 25 450 278 (subpatch) 0;
#X array right-channel-2 131712 float 2;
#X coords 0 1 131712 -1 200 140 1 0 0;
#X restore 45 189 graph;
#X restore 2138 25 pd tables-2;
#X obj 1921 178 s \$0-sample-size-2;
#X obj 1939 236 s \$0-phasor-rate-2;
#X obj 2011 267 r \$0-phasor-rate-2;
#X obj 1922 348 r \$0-sample-size-2;
#X obj 2005 380 r~ \$0-scratch-2;
#X obj 2147 437 s~ \$0-scratch-2;
#X obj 1908 415 tabread4~ left-channel-2;
#X obj 1960 439 tabread4~ right-channel-2;
#X obj 1710 235 midi-encoder 6 1;
#X obj 2147 235 midi-encoder 6 2;
#N canvas 35 51 992 678 midi-keys-1 0;
#X obj 34 427 / 127;
#X obj 34 449 sig~;
#X obj 623 279 > 0;
#X obj 623 470 pack 0 10;
#X obj 623 492 line~;
#X obj 34 471 outlet~ PITCH;
#X obj 623 514 outlet~ GATE;
#X obj 623 301 t f f;
#X obj 32 179 t f f;
#X floatatom 681 272 5 0 0 2 - - - 0;
#X floatatom 33 379 5 0 0 2 - - - 0;
#X obj 33 401 cnv 5 5 5 empty empty NOTE 0 0 0 8 #fcfcfc #404040 0;
#X obj 677 221 cnv 5 5 5 empty empty GATE 0 0 0 8 #fcfcfc #404040 0;
#X obj 623 257 t f f f;
#X msg 604 210 127;
#X msg 646 209 0;
#X obj 604 174 bng 15 250 50 0 empty empty empty 17 7 0 10 #fcfcfc #000000 #000000;
#X obj 646 187 delay 10;
#X msg 7 57 0;
#X msg 57 55 2;
#X msg 157 59 5;
#X msg 109 57 3;
#X msg 203 58 7;
#X msg 250 57 8;
#X msg 290 57 10;
#X msg 331 57 12;
#X obj 33 355 +;
#X obj 169 153 s \$0-gate;
#X obj 604 150 r \$0-gate;
#X obj 253 512 mtof;
#X obj 253 539 osc~;
#X obj 254 567 *~;
#X obj 254 599 outlet~;
#X msg 285 293 1;
#X msg 319 293 -1;
#X obj 310 324 +;
#X obj 347 324 i;
#X floatatom 347 349 5 0 0 0 - - - 0;
#X floatatom 347 416 5 0 0 0 - - - 0;
#X msg 574 65 -5;
#X msg 534 50 -4;
#X msg 493 28 -2;
#X msg 620 83 -7;
#X obj 319 236 midi-pad 40 5;
#X obj 281 211 midi-pad 41 5;
#X obj 792 -69 bng 15 250 50 0 empty empty empty 17 7 0 10 #fcfcfc #000000 #000000;
#X obj 792 0 noteout 5;
#X obj 819 -24 1;
#X obj 792 -46 t b b;
#X obj 853 0 noteout 5;
#X obj 880 -24 1;
#X obj 853 -24 21;
#X obj 853 -46 t b b;
#X obj 792 -24 20;
#X obj 913 0 noteout 5;
#X obj 940 -24 1;
#X obj 913 -46 t b b;
#X obj 974 0 noteout 5;
#X obj 1001 -24 1;
#X obj 974 -46 t b b;
#X obj 1036 0 noteout 5;
#X obj 1063 -24 1;
#X obj 1036 -46 t b b;
#X obj 1097 0 noteout 5;
#X obj 1124 -24 1;
#X obj 1097 -46 t b b;
#X obj 1157 0 noteout 5;
#X obj 1184 -24 1;
#X obj 1157 -46 t b b;
#X obj 1218 0 noteout 5;
#X obj 1245 -24 1;
#X obj 1218 -46 t b b;
#X obj 913 -24 22;
#X obj 974 -24 23;
#X obj 1036 -24 24;
#X obj 1097 -24 25;
#X obj 1157 -24 26;
#X obj 1218 -24 27;
#X obj 7 36 sel 1;
#X obj 57 36 sel 1;
#X obj 107 36 sel 1;
#X obj 157 36 sel 1;
#X obj 201 36 sel 1;
#X obj 248 36 sel 1;
#X obj 290 36 sel 1;
#X obj 331 37 sel 1;
#X obj 491 7 sel 1;
#X obj 535 30 sel 1;
#X obj 579 44 sel 1;
#X obj 628 57 sel 1;
#X obj 492 -35 midi-pad 0 1;
#X obj 541 -15 midi-pad 1 1;
#X obj 581 4 midi-pad 2 1;
#X obj 622 24 midi-pad 32 1;
#X obj 203 -119 midi-pad 20 5;
#X obj 250 -82 midi-pad 21 5;
#X obj 290 -42 midi-pad 22 5;
#X obj 331 -2 midi-pad 23 5;
#X obj 6 -284 midi-pad 24 5;
#X obj 56 -243 midi-pad 25 5;
#X obj 104 -202 midi-pad 26 5;
#X obj 158 -161 midi-pad 27 5;
#X obj 212 -101 reloop-led 20 5;
#X obj 261 -61 reloop-led 21 5;
#X obj 301 -23 reloop-led 22 5;
#X obj 342 18 reloop-led 23 5;
#X obj 14 -263 reloop-led 24 5;
#X obj 67 -224 reloop-led 25 5;
#X obj 115 -182 reloop-led 26 5;
#X obj 169 -143 reloop-led 27 5;
#X obj 792 -89 delay 6000;
#X obj 792 -109 loadbang;
#X obj 347 393 mod 12;
#X obj 347 371 * 1;
#X obj 284 266 sel 1;
#X obj 326 266 sel 1;
#X obj 347 442 s synth-key-shift;
#X obj 33 235 + 72;
#X connect 0 0 1 0;
#X connect 1 0 5 0;
#X connect 2 0 7 0;
#X connect 3 0 4 0;
#X connect 4 0 6 0;
#X connect 4 0 31 1;
#X connect 7 0 3 0;
#X connect 8 0 117 0;
#X connect 10 0 0 0;
#X connect 10 0 29 0;
#X connect 13 0 2 0;
#X connect 13 2 9 0;
#X connect 14 0 13 0;
#X connect 15 0 13 0;
#X connect 16 0 14 0;
#X connect 16 0 17 0;
#X connect 17 0 15 0;
#X connect 18 0 8 0;
#X connect 18 0 27 0;
#X connect 19 0 8 0;
#X connect 19 0 27 0;
#X connect 20 0 8 0;
#X connect 20 0 27 0;
#X connect 21 0 8 0;
#X connect 21 0 27 0;
#X connect 22 0 8 0;
#X connect 22 0 27 0;
#X connect 23 0 8 0;
#X connect 23 0 27 0;
#X connect 24 0 8 0;
#X connect 24 0 27 0;
#X connect 25 0 8 0;
#X connect 25 0 27 0;
#X connect 26 0 10 0;
#X connect 28 0 16 0;
#X connect 29 0 30 0;
#X connect 30 0 31 0;
#X connect 31 0 32 0;
#X connect 33 0 35 0;
#X connect 34 0 35 0;
#X connect 35 0 36 0;
#X connect 36 0 35 1;
#X connect 36 0 37 0;
#X connect 37 0 113 0;
#X connect 38 0 26 1;
#X connect 38 0 116 0;
#X connect 39 0 27 0;
#X connect 39 0 8 0;
#X connect 40 0 27 0;
#X connect 40 0 8 0;
#X connect 41 0 27 0;
#X connect 41 0 8 0;
#X connect 42 0 27 0;
#X connect 42 0 8 0;
#X connect 43 0 115 0;
#X connect 44 0 114 0;
#X connect 45 0 48 0;
#X connect 45 0 52 0;
#X connect 45 0 56 0;
#X connect 45 0 59 0;
#X connect 45 0 62 0;
#X connect 45 0 65 0;
#X connect 45 0 68 0;
#X connect 45 0 71 0;
#X connect 47 0 46 1;
#X connect 48 0 53 0;
#X connect 48 1 47 0;
#X connect 50 0 49 1;
#X connect 51 0 49 0;
#X connect 52 0 51 0;
#X connect 52 1 50 0;
#X connect 53 0 46 0;
#X connect 55 0 54 1;
#X connect 56 0 72 0;
#X connect 56 1 55 0;
#X connect 58 0 57 1;
#X connect 59 0 73 0;
#X connect 59 1 58 0;
#X connect 61 0 60 1;
#X connect 62 0 74 0;
#X connect 62 1 61 0;
#X connect 64 0 63 1;
#X connect 65 0 75 0;
#X connect 65 1 64 0;
#X connect 67 0 66 1;
#X connect 68 0 76 0;
#X connect 68 1 67 0;
#X connect 70 0 69 1;
#X connect 71 0 77 0;
#X connect 71 1 70 0;
#X connect 72 0 54 0;
#X connect 73 0 57 0;
#X connect 74 0 60 0;
#X connect 75 0 63 0;
#X connect 76 0 66 0;
#X connect 77 0 69 0;
#X connect 78 0 18 0;
#X connect 79 0 19 0;
#X connect 80 0 21 0;
#X connect 81 0 20 0;
#X connect 82 0 22 0;
#X connect 83 0 23 0;
#X connect 84 0 24 0;
#X connect 85 0 25 0;
#X connect 86 0 41 0;
#X connect 87 0 40 0;
#X connect 88 0 39 0;
#X connect 89 0 42 0;
#X connect 90 0 86 0;
#X connect 91 0 87 0;
#X connect 92 0 88 0;
#X connect 93 0 89 0;
#X connect 94 0 82 0;
#X connect 94 0 102 0;
#X connect 95 0 83 0;
#X connect 95 0 103 0;
#X connect 96 0 84 0;
#X connect 96 0 104 0;
#X connect 97 0 85 0;
#X connect 97 0 105 0;
#X connect 98 0 78 0;
#X connect 98 0 106 0;
#X connect 99 0 79 0;
#X connect 99 0 107 0;
#X connect 100 0 80 0;
#X connect 100 0 108 0;
#X connect 101 0 81 0;
#X connect 101 0 109 0;
#X connect 110 0 45 0;
#X connect 111 0 110 0;
#X connect 112 0 38 0;
#X connect 113 0 112 0;
#X connect 114 0 33 0;
#X connect 115 0 34 0;
#X connect 117 0 26 0;
#X restore 319 155 pd midi-keys-1;
#N canvas 448 94 992 678 midi-keys-2 0;
#X obj 34 427 / 127;
#X obj 34 449 sig~;
#X obj 623 199 > 0;
#X obj 623 390 pack 0 10;
#X obj 623 412 line~;
#X obj 34 471 outlet~ PITCH;
#X obj 623 434 outlet~ GATE;
#X obj 623 221 t f f;
#X obj 32 179 t f f;
#X floatatom 681 192 5 0 0 2 - - - 0;
#X floatatom 33 379 5 0 0 2 - - - 0;
#X obj 33 401 cnv 5 5 5 empty empty NOTE 0 0 0 8 #fcfcfc #404040 0;
#X obj 677 141 cnv 5 5 5 empty empty GATE 0 0 0 8 #fcfcfc #404040 0;
#X obj 623 177 t f f f;
#X msg 604 130 127;
#X msg 646 129 0;
#X obj 604 94 bng 15 250 50 0 empty empty empty 17 7 0 10 #fcfcfc #000000 #000000;
#X obj 646 107 delay 10;
#X msg 7 57 0;
#X msg 57 55 2;
#X msg 157 59 5;
#X obj 604 70 r gate;
#X obj 169 153 s gate;
#X msg 109 57 3;
#X msg 203 58 7;
#X msg 250 57 8;
#X msg 290 57 10;
#X msg 331 57 12;
#X obj 33 355 +;
#X obj 253 432 mtof;
#X obj 253 459 osc~;
#X obj 254 487 *~;
#X obj 254 519 outlet~;
#X msg 457 139 -5;
#X msg 417 124 -4;
#X msg 376 102 -2;
#X msg 503 157 -7;
#X obj 792 -59 bng 15 250 50 0 empty empty empty 17 7 0 10 #fcfcfc #000000 #000000;
#X obj 792 -36 t b b;
#X obj 853 -14 21;
#X obj 853 -36 t b b;
#X obj 792 -14 20;
#X obj 913 -36 t b b;
#X obj 974 -36 t b b;
#X obj 1036 -36 t b b;
#X obj 1097 -36 t b b;
#X obj 1157 -36 t b b;
#X obj 1218 -36 t b b;
#X obj 913 -14 22;
#X obj 974 -14 23;
#X obj 1036 -14 24;
#X obj 1097 -14 25;
#X obj 1157 -14 26;
#X obj 1218 -14 27;
#X obj 792 10 noteout 6;
#X obj 853 10 noteout 6;
#X obj 913 10 noteout 6;
#X obj 974 10 noteout 6;
#X obj 1036 10 noteout 6;
#X obj 1097 10 noteout 6;
#X obj 1157 10 noteout 6;
#X obj 1218 10 noteout 6;
#X obj 819 -14 1;
#X obj 881 -14 1;
#X obj 940 -14 1;
#X obj 1001 -14 1;
#X obj 1064 -14 1;
#X obj 1124 -14 1;
#X obj 1184 -14 1;
#X obj 1245 -14 1;
#X obj 8 30 sel 1;
#X obj 58 30 sel 1;
#X obj 108 30 sel 1;
#X obj 158 30 sel 1;
#X obj 202 30 sel 1;
#X obj 249 30 sel 1;
#X obj 291 30 sel 1;
#X obj 333 30 sel 1;
#X obj 377 83 sel 1;
#X obj 420 103 sel 1;
#X obj 459 113 sel 1;
#X obj 504 134 sel 1;
#X obj 6 -434 midi-pad 24 6;
#X obj 55 -389 midi-pad 25 6;
#X obj 107 -347 midi-pad 26 6;
#X obj 157 -304 midi-pad 27 6;
#X obj 202 -264 midi-pad 20 6;
#X obj 250 -222 midi-pad 21 6;
#X obj 290 -176 midi-pad 22 6;
#X obj 331 -126 midi-pad 23 6;
#X obj 375 49 midi-pad 0 2;
#X obj 424 68 midi-pad 1 2;
#X obj 464 88 midi-pad 2 2;
#X obj 505 108 midi-pad 32 2;
#X obj 19 -411 reloop-led 24 6;
#X obj 71 -367 reloop-led 25 6;
#X obj 121 -324 reloop-led 26 6;
#X obj 169 -283 reloop-led 27 6;
#X obj 216 -241 reloop-led 20 6;
#X obj 262 -198 reloop-led 21 6;
#X obj 305 -150 reloop-led 22 6;
#X obj 345 -100 reloop-led 23 6;
#X obj 792 -78 delay 6000;
#X obj 792 -98 loadbang;
#X obj 91 307 r synth-key-shift;
#X obj 34 260 + 108;
#X connect 0 0 1 0;
#X connect 1 0 5 0;
#X connect 2 0 7 0;
#X connect 3 0 4 0;
#X connect 4 0 6 0;
#X connect 4 0 31 1;
#X connect 7 0 3 0;
#X connect 8 0 105 0;
#X connect 10 0 0 0;
#X connect 10 0 29 0;
#X connect 13 0 2 0;
#X connect 13 2 9 0;
#X connect 14 0 13 0;
#X connect 15 0 13 0;
#X connect 16 0 14 0;
#X connect 16 0 17 0;
#X connect 17 0 15 0;
#X connect 18 0 8 0;
#X connect 18 0 22 0;
#X connect 19 0 8 0;
#X connect 19 0 22 0;
#X connect 20 0 8 0;
#X connect 20 0 22 0;
#X connect 21 0 16 0;
#X connect 23 0 8 0;
#X connect 23 0 22 0;
#X connect 24 0 22 0;
#X connect 24 0 8 0;
#X connect 25 0 22 0;
#X connect 25 0 8 0;
#X connect 26 0 22 0;
#X connect 26 0 8 0;
#X connect 27 0 22 0;
#X connect 27 0 8 0;
#X connect 28 0 10 0;
#X connect 29 0 30 0;
#X connect 30 0 31 0;
#X connect 31 0 32 0;
#X connect 33 0 22 0;
#X connect 33 0 8 0;
#X connect 34 0 22 0;
#X connect 34 0 8 0;
#X connect 35 0 22 0;
#X connect 35 0 8 0;
#X connect 36 0 22 0;
#X connect 36 0 8 0;
#X connect 37 0 38 0;
#X connect 37 0 40 0;
#X connect 37 0 42 0;
#X connect 37 0 43 0;
#X connect 37 0 44 0;
#X connect 37 0 45 0;
#X connect 37 0 46 0;
#X connect 37 0 47 0;
#X connect 38 0 41 0;
#X connect 38 1 62 0;
#X connect 39 0 55 0;
#X connect 40 0 39 0;
#X connect 40 1 63 0;
#X connect 41 0 54 0;
#X connect 42 0 48 0;
#X connect 42 1 64 0;
#X connect 43 0 49 0;
#X connect 43 1 65 0;
#X connect 44 0 50 0;
#X connect 44 1 66 0;
#X connect 45 0 51 0;
#X connect 45 1 67 0;
#X connect 46 0 52 0;
#X connect 46 1 68 0;
#X connect 47 0 53 0;
#X connect 47 1 69 0;
#X connect 48 0 56 0;
#X connect 49 0 57 0;
#X connect 50 0 58 0;
#X connect 51 0 59 0;
#X connect 52 0 60 0;
#X connect 53 0 61 0;
#X connect 62 0 54 1;
#X connect 63 0 55 1;
#X connect 64 0 56 1;
#X connect 65 0 57 1;
#X connect 66 0 58 1;
#X connect 67 0 59 1;
#X connect 68 0 60 1;
#X connect 69 0 61 1;
#X connect 70 0 18 0;
#X connect 71 0 19 0;
#X connect 72 0 23 0;
#X connect 73 0 20 0;
#X connect 74 0 24 0;
#X connect 75 0 25 0;
#X connect 76 0 26 0;
#X connect 77 0 27 0;
#X connect 78 0 35 0;
#X connect 79 0 34 0;
#X connect 80 0 33 0;
#X connect 81 0 36 0;
#X connect 82 0 70 0;
#X connect 82 0 94 0;
#X connect 83 0 71 0;
#X connect 83 0 95 0;
#X connect 84 0 72 0;
#X connect 84 0 96 0;
#X connect 85 0 73 0;
#X connect 85 0 97 0;
#X connect 86 0 74 0;
#X connect 86 0 98 0;
#X connect 87 0 75 0;
#X connect 87 0 99 0;
#X connect 88 0 76 0;
#X connect 88 0 100 0;
#X connect 89 0 77 0;
#X connect 89 0 101 0;
#X connect 90 0 78 0;
#X connect 91 0 79 0;
#X connect 92 0 80 0;
#X connect 93 0 81 0;
#X connect 102 0 37 0;
#X connect 103 0 102 0;
#X connect 104 0 28 1;
#X connect 105 0 28 0;
#X restore 856 120 pd midi-keys-2;
#X msg 438 108 monitor 1;
#X obj 438 85 loadbang;
#X obj 964 76 loadbang;
#X msg 965 101 monitor 1;
#X obj 1694 1207 channel-out~;
#X obj 1340 842 loadbang;
#X msg 1340 866 monitor 1;
#X msg 1408 865 rec \$1;
#X msg 1498 865 clear \$1;
#X msg 859 1358 volume \$1;
#X obj 859 1338 / 127;
#X msg 1476 1191 volume \$1;
#X obj 1476 1171 / 127;
#X msg 2069 519 toggle \$1;
#X msg 1622 519 toggle \$1;
#X obj 859 1316 midi-encoder 12 15;
#X obj 1476 1149 midi-encoder 10 15;
#X obj 361 863 reverb~;
#X obj 897 833 reverb~;
#X obj 615 803 midi-encoder 26 1;
#X msg 615 846 wet \$1;
#X obj 615 824 / 127;
#X obj 730 750 sel 1;
#X msg 760 773 0;
#X msg 730 773 1;
#X obj 745 824 / 127;
#X msg 745 846 size \$1;
#X obj 745 803 midi-encoder 28 1;
#X msg 1022 816 wet \$1;
#X obj 1022 794 / 127;
#X obj 1137 720 sel 1;
#X msg 1167 743 0;
#X obj 1152 794 / 127;
#X msg 1152 816 size \$1;
#X obj 1022 773 midi-encoder 26 2;
#X obj 1152 773 midi-encoder 28 2;
#X msg 1137 743 2;
#X obj 1487 664 reverb~;
#X obj 1923 664 reverb~;
#X obj 1651 712 midi-encoder 26 1;
#X msg 1651 755 wet \$1;
#X obj 1651 733 / 127;
#X obj 1766 659 sel 1;
#X msg 1796 682 0;
#X msg 1766 682 1;
#X obj 1781 733 / 127;
#X msg 1781 755 size \$1;
#X obj 1781 712 midi-encoder 28 1;
#X msg 2089 737 wet \$1;
#X obj 2089 715 / 127;
#X obj 2204 641 sel 1;
#X msg 2234 664 0;
#X obj 2219 715 / 127;
#X msg 2219 737 size \$1;
#X obj 2089 694 midi-encoder 26 2;
#X obj 2219 694 midi-encoder 28 2;
#X msg 2204 664 2;
#X obj 2133 472 midi-pad 27 2;
#X msg 1469 -51 1;
#X msg 1503 -51 2;
#X msg 1538 -50 3;
#X msg 1575 -51 4;
#X msg 1610 -50 5;
#X msg 1645 -50 6;
#X msg 1682 -49 7;
#X msg 1719 -50 8;
#N canvas 0 25 450 300 crossfader-1 0;
#X obj 69 5 inlet;
#X obj 215 12 inlet~;
#X obj 132 8 inlet~;
#X obj 154 143 *~;
#X obj 69 77 *;
#X obj 69 46 t f f;
#X msg 136 67 1 \$1;
#X obj 136 95 -;
#X obj 117 135 *~;
#X obj 154 183 +~;
#X obj 153 221 /~ 2;
#X obj 152 275 outlet~;
#X floatatom 69 25 5 0 0 0 - - - 0;
#X msg 11 24 0.5;
#X obj 10 4 loadbang;
#X connect 0 0 12 0;
#X connect 1 0 3 0;
#X connect 2 0 8 0;
#X connect 3 0 9 1;
#X connect 4 0 3 1;
#X connect 4 0 6 0;
#X connect 5 0 4 0;
#X connect 5 1 4 1;
#X connect 6 0 7 0;
#X connect 7 0 8 1;
#X connect 8 0 9 0;
#X connect 9 0 10 0;
#X connect 10 0 11 0;
#X connect 12 0 5 0;
#X connect 13 0 5 0;
#X connect 14 0 13 0;
#X restore 668 1000 pd crossfader-1;
#X obj 667 948 midi-encoder 8 15;
#X obj 668 970 / 127;
#X obj 2185 840 loadbang;
#X msg 2185 865 monitor 1;
#X msg 2008 865 rec \$1;
#X msg 2098 865 clear \$1;
#X obj 1593 1021 midi-encoder 8 15;
#X obj 1594 1043 / 127;
#X obj 823 877 loadbang;
#X obj 732 901 sel 1;
#X msg 823 899 0;
#X msg 732 924 15;
#X obj 1557 959 loadbang;
#X obj 1466 983 sel 1;
#X msg 1557 981 15;
#X msg 1466 1006 0;
#N canvas 0 25 450 300 crossfader-2 0;
#X obj 69 35 inlet;
#X obj 215 32 inlet~;
#X obj 132 28 inlet~;
#X obj 154 163 *~;
#X obj 69 97 *;
#X obj 69 66 t f f;
#X msg 136 87 1 \$1;
#X obj 136 115 -;
#X obj 117 155 *~;
#X obj 154 203 +~;
#X obj 153 238 /~ 2;
#X obj 152 275 outlet~;
#X msg 11 24 0.5;
#X obj 10 4 loadbang;
#X connect 0 0 5 0;
#X connect 1 0 3 0;
#X connect 2 0 8 0;
#X connect 3 0 9 1;
#X connect 4 0 3 1;
#X connect 4 0 6 0;
#X connect 5 0 4 0;
#X connect 5 1 4 1;
#X connect 6 0 7 0;
#X connect 7 0 8 1;
#X connect 8 0 9 0;
#X connect 9 0 10 0;
#X connect 10 0 11 0;
#X connect 12 0 5 0;
#X connect 13 0 12 0;
#X restore 1694 1058 pd crossfader-2;
#X obj 1067 203 midi-pad 13 2;
#X obj 563 169 midi-pad 13 1;
#X obj 1497 843 midi-pad 3 15;
#X obj 730 726 midi-pad 0 15;
#X obj 1137 696 midi-pad 0 15;
#X obj 1766 635 midi-pad 0 15;
#X obj 2204 617 midi-pad 0 15;
#X obj 1468 -97 midi-pad 28 5;
#X obj 1557 -97 midi-pad 29 5;
#X obj 1647 -97 midi-pad 30 5;
#X obj 1737 -97 midi-pad 31 5;
#X obj 1467 -77 midi-pad 32 5;
#X obj 1557 -77 midi-pad 33 5;
#X obj 1647 -77 midi-pad 34 5;
#X obj 1737 -77 midi-pad 35 5;
#X obj 1902 -97 midi-pad 28 6;
#X obj 1992 -97 midi-pad 29 6;
#X obj 2082 -97 midi-pad 30 6;
#X obj 2172 -97 midi-pad 31 6;
#X obj 1902 -77 midi-pad 32 6;
#X obj 1992 -77 midi-pad 33 6;
#X obj 2082 -77 midi-pad 34 6;
#X obj 2172 -77 midi-pad 35 6;
#X obj 2097 795 midi-pad 3 15;
#X obj 732 877 midi-pad 0 15;
#X obj 1466 959 midi-pad 0 15;
#N canvas 0 25 450 300 metal-led-2 0;
#X obj 29 12 inlet;
#X msg 61 65 127;
#X msg 94 65 0;
#X msg 29 115 27;
#X obj 29 34 sel 1;
#X obj 68 93 t b f;
#X obj 29 146 noteout 2;
#X connect 0 0 4 0;
#X connect 1 0 5 0;
#X connect 2 0 5 0;
#X connect 3 0 6 0;
#X connect 4 0 1 0;
#X connect 4 1 2 0;
#X connect 5 0 3 0;
#X connect 5 1 6 1;
#X restore 2137 516 pd metal-led-2;
#N canvas 0 25 450 300 metal-led-1 0;
#X obj 19 18 inlet;
#X msg 51 71 127;
#X msg 84 71 0;
#X msg 19 121 27;
#X obj 19 40 sel 1;
#X obj 19 152 noteout 1;
#X obj 58 99 t b f;
#X connect 0 0 4 0;
#X connect 1 0 6 0;
#X connect 2 0 6 0;
#X connect 3 0 5 0;
#X connect 4 0 1 0;
#X connect 4 1 2 0;
#X connect 6 0 3 0;
#X connect 6 1 5 1;
#X restore 1721 521 pd metal-led-1;
#X obj 1717 477 midi-pad 27 1;
#X obj 551 101 midi-pad-to-toggle;
#X obj 551 80 midi-pad 15 1;
#N canvas 0 25 450 300 synth-rec-led-1 0;
#X obj 29 12 inlet;
#X msg 61 65 127;
#X msg 94 65 0;
#X obj 29 34 sel 1;
#X obj 68 93 t b f;
#X obj 29 146 noteout 1;
#X msg 29 115 15;
#X connect 0 0 3 0;
#X connect 1 0 4 0;
#X connect 2 0 4 0;
#X connect 3 0 1 0;
#X connect 3 1 2 0;
#X connect 4 0 6 0;
#X connect 4 1 5 1;
#X connect 6 0 5 0;
#X restore 555 124 pd synth-rec-led-1;
#X obj 1058 32 midi-pad 15 2;
#N canvas 0 25 450 300 synth-rec-led-2 0;
#X obj 29 12 inlet;
#X msg 61 65 127;
#X msg 94 65 0;
#X obj 29 34 sel 1;
#X obj 68 93 t b f;
#X msg 29 115 15;
#X obj 29 146 noteout 2;
#X connect 0 0 3 0;
#X connect 1 0 4 0;
#X connect 2 0 4 0;
#X connect 3 0 1 0;
#X connect 3 1 2 0;
#X connect 4 0 5 0;
#X connect 4 1 6 1;
#X connect 5 0 6 0;
#X restore 1062 76 pd synth-rec-led-2;
#X obj 1700 804 midi-pad 2 15;
#N canvas 0 25 450 300 decks-rec-led 0;
#X obj 29 12 inlet;
#X msg 61 65 127;
#X msg 94 65 0;
#X obj 29 34 sel 1;
#X obj 68 93 t b f;
#X obj 29 146 noteout 15;
#X msg 29 115 2;
#X connect 0 0 3 0;
#X connect 1 0 4 0;
#X connect 2 0 4 0;
#X connect 3 0 1 0;
#X connect 3 1 2 0;
#X connect 4 0 6 0;
#X connect 4 1 5 1;
#X connect 6 0 5 0;
#X restore 1701 850 pd decks-rec-led;
#N canvas 33 191 952 338 parameter-leds 0;
#X obj 113 138 noteout 5;
#X msg 107 109 41;
#X msg 106 59 127;
#X obj 107 85 t b f;
#X obj 43 138 noteout 5;
#X msg 36 59 127;
#X obj 37 85 t b f;
#X msg 37 109 40;
#X msg 245 109 41;
#X obj 245 85 t b f;
#X obj 251 138 noteout 6;
#X obj 35 173 midi-pad 40 5;
#X obj 36 257 noteout 5;
#X obj 35 215 t b b;
#X obj 36 235 40;
#X obj 67 236 0;
#X obj 35 194 sel 1;
#X obj 78 216 t b b;
#X obj 99 236 127;
#X obj 136 257 noteout 5;
#X obj 135 215 t b b;
#X obj 167 236 0;
#X obj 135 194 sel 1;
#X obj 178 216 t b b;
#X obj 199 236 127;
#X obj 135 173 midi-pad 41 5;
#X obj 136 235 41;
#X obj 345 215 t b b;
#X obj 345 194 sel 1;
#X obj 388 216 t b b;
#X obj 346 235 41;
#X obj 345 173 midi-pad 41 6;
#X obj 346 257 noteout 6;
#X obj 553 138 noteout 5;
#X obj 547 85 t b f;
#X obj 483 138 noteout 5;
#X obj 477 85 t b f;
#X obj 685 85 t b f;
#X obj 615 85 t b f;
#X obj 621 138 noteout 6;
#X obj 691 138 noteout 6;
#X obj 476 257 noteout 5;
#X obj 475 215 t b b;
#X obj 475 194 sel 1;
#X obj 518 216 t b b;
#X obj 539 236 127;
#X obj 576 257 noteout 5;
#X obj 575 215 t b b;
#X obj 575 194 sel 1;
#X obj 618 216 t b b;
#X obj 639 236 127;
#X obj 685 215 t b b;
#X obj 685 194 sel 1;
#X obj 728 216 t b b;
#X obj 749 236 127;
#X obj 785 215 t b b;
#X obj 785 194 sel 1;
#X obj 828 216 t b b;
#X obj 849 236 127;
#X obj 786 257 noteout 6;
#X obj 686 257 noteout 6;
#X msg 477 109 42;
#X msg 547 109 43;
#X msg 615 109 42;
#X msg 685 109 43;
#X obj 476 235 42;
#X obj 576 235 43;
#X obj 686 235 42;
#X obj 786 235 43;
#X obj 475 173 midi-pad 42 5;
#X obj 575 173 midi-pad 43 5;
#X obj 685 173 midi-pad 42 6;
#X obj 785 173 midi-pad 43 6;
#X obj 140 -13 loadbang;
#X obj 140 9 delay 6000;
#X obj 580 9 delay 6000;
#X obj 579 -12 loadbang;
#X msg 476 59 127;
#X msg 546 59 127;
#X msg 614 59 127;
#X msg 684 59 127;
#X obj 817 236 0;
#X obj 717 236 0;
#X obj 607 236 0;
#X obj 507 236 0;
#X msg 244 59 0;
#X obj 377 236 127;
#X obj 409 236 0;
#X connect 1 0 0 0;
#X connect 2 0 3 0;
#X connect 3 0 1 0;
#X connect 3 1 0 1;
#X connect 5 0 6 0;
#X connect 6 0 7 0;
#X connect 6 1 4 1;
#X connect 7 0 4 0;
#X connect 8 0 10 0;
#X connect 9 0 8 0;
#X connect 9 1 10 1;
#X connect 11 0 16 0;
#X connect 13 0 14 0;
#X connect 13 1 15 0;
#X connect 14 0 12 0;
#X connect 15 0 12 1;
#X connect 16 0 13 0;
#X connect 16 1 17 0;
#X connect 17 0 14 0;
#X connect 17 1 18 0;
#X connect 18 0 12 1;
#X connect 20 0 26 0;
#X connect 20 1 21 0;
#X connect 21 0 19 1;
#X connect 22 0 20 0;
#X connect 22 1 23 0;
#X connect 23 0 26 0;
#X connect 23 1 24 0;
#X connect 24 0 19 1;
#X connect 25 0 22 0;
#X connect 26 0 19 0;
#X connect 27 0 30 0;
#X connect 27 1 86 0;
#X connect 28 0 27 0;
#X connect 28 1 29 0;
#X connect 29 0 30 0;
#X connect 29 1 87 0;
#X connect 30 0 32 0;
#X connect 31 0 28 0;
#X connect 34 0 62 0;
#X connect 34 1 33 1;
#X connect 36 0 61 0;
#X connect 36 1 35 1;
#X connect 37 0 64 0;
#X connect 37 1 40 1;
#X connect 38 0 63 0;
#X connect 38 1 39 1;
#X connect 42 0 65 0;
#X connect 42 1 84 0;
#X connect 43 0 42 0;
#X connect 43 1 44 0;
#X connect 44 0 65 0;
#X connect 44 1 45 0;
#X connect 45 0 41 1;
#X connect 47 0 66 0;
#X connect 47 1 83 0;
#X connect 48 0 47 0;
#X connect 48 1 49 0;
#X connect 49 0 66 0;
#X connect 49 1 50 0;
#X connect 50 0 46 1;
#X connect 51 0 67 0;
#X connect 51 1 82 0;
#X connect 52 0 51 0;
#X connect 52 1 53 0;
#X connect 53 0 67 0;
#X connect 53 1 54 0;
#X connect 54 0 60 1;
#X connect 55 0 68 0;
#X connect 55 1 81 0;
#X connect 56 0 55 0;
#X connect 56 1 57 0;
#X connect 57 0 68 0;
#X connect 57 1 58 0;
#X connect 58 0 59 1;
#X connect 61 0 35 0;
#X connect 62 0 33 0;
#X connect 63 0 39 0;
#X connect 64 0 40 0;
#X connect 65 0 41 0;
#X connect 66 0 46 0;
#X connect 67 0 60 0;
#X connect 68 0 59 0;
#X connect 69 0 43 0;
#X connect 70 0 48 0;
#X connect 71 0 52 0;
#X connect 72 0 56 0;
#X connect 73 0 74 0;
#X connect 74 0 5 0;
#X connect 74 0 2 0;
#X connect 74 0 85 0;
#X connect 75 0 77 0;
#X connect 75 0 78 0;
#X connect 75 0 79 0;
#X connect 75 0 80 0;
#X connect 76 0 75 0;
#X connect 77 0 36 0;
#X connect 78 0 34 0;
#X connect 79 0 38 0;
#X connect 80 0 37 0;
#X connect 81 0 59 1;
#X connect 82 0 60 1;
#X connect 83 0 46 1;
#X connect 84 0 41 1;
#X connect 85 0 9 0;
#X connect 86 0 32 1;
#X connect 87 0 32 1;
#X restore 16 50 pd parameter-leds;
#X obj 501 59 r both-synth-loopers-on;
#X obj 1037 11 r both-synth-loopers-on;
#X obj 1706 187 midi-pad 2 9;
#X obj 2141 189 midi-pad 2 10;
#X obj 1710 210 reloop-led 2 9;
#X msg 1793 187 0;
#X obj 1794 167 loadbang;
#X msg 2232 189 0;
#X obj 2233 169 loadbang;
#X obj 2149 212 reloop-led 2 10;
#X obj 2113 820 reloop-led 3 15;
#X msg 2199 796 0;
#X obj 2198 773 loadbang;
#X obj 632 195 reloop-led 13 1;
#X msg 718 172 0;
#X obj 717 153 loadbang;
#X msg 1189 198 0;
#X obj 1188 179 loadbang;
#X obj 1103 221 reloop-led 13 2;
#N canvas 229 232 802 510 sampler-leds 0;
#X obj 476 164 reloop-led 28 5;
#X obj 476 184 reloop-led 29 5;
#X obj 476 204 reloop-led 30 5;
#X obj 476 224 reloop-led 31 5;
#X obj 476 244 reloop-led 32 5;
#X obj 476 264 reloop-led 33 5;
#X obj 476 284 reloop-led 34 5;
#X obj 476 304 reloop-led 35 5;
#X msg 476 145 0;
#X msg 562 144 0;
#X obj 475 123 t b b;
#X obj 475 103 bng 15 250 50 0 empty empty empty 17 7 0 10 #fcfcfc #000000 #000000;
#X text 530 110 turn off all leds;
#X obj 17 23 midi-pad 28 5;
#X obj 17 86 reloop-led 28 5;
#X obj 17 45 t f b;
#X msg 134 71 127;
#X obj 134 52 loadbang;
#X obj 17 155 t f b;
#X msg 134 181 127;
#X obj 134 162 loadbang;
#X obj 17 265 t f b;
#X msg 134 291 127;
#X obj 134 272 loadbang;
#X obj 17 375 t f b;
#X msg 134 401 127;
#X obj 134 382 loadbang;
#X obj 217 45 t f b;
#X msg 334 71 127;
#X obj 334 52 loadbang;
#X obj 217 155 t f b;
#X msg 334 181 127;
#X obj 334 162 loadbang;
#X obj 217 265 t f b;
#X msg 334 291 127;
#X obj 334 272 loadbang;
#X obj 217 375 t f b;
#X msg 334 401 127;
#X obj 334 382 loadbang;
#X obj 17 133 midi-pad 29 5;
#X obj 17 196 reloop-led 29 5;
#X obj 17 243 midi-pad 30 5;
#X obj 17 306 reloop-led 30 5;
#X obj 17 353 midi-pad 31 5;
#X obj 17 416 reloop-led 31 5;
#X obj 217 23 midi-pad 32 5;
#X obj 217 86 reloop-led 32 5;
#X obj 217 133 midi-pad 33 5;
#X obj 217 196 reloop-led 33 5;
#X obj 217 243 midi-pad 34 5;
#X obj 217 306 reloop-led 34 5;
#X obj 217 353 midi-pad 35 5;
#X obj 217 416 reloop-led 35 5;
#X obj 475 82 r \$0-left-off;
#X obj 244 67 s \$0-left-off;
#X obj 244 177 s \$0-left-off;
#X obj 244 287 s \$0-left-off;
#X obj 244 397 s \$0-left-off;
#X obj 44 397 s \$0-left-off;
#X obj 44 287 s \$0-left-off;
#X obj 44 177 s \$0-left-off;
#X obj 44 67 s \$0-left-off;
#X msg 476 605 0;
#X msg 562 604 0;
#X obj 475 583 t b b;
#X obj 475 563 bng 15 250 50 0 empty empty empty 17 7 0 10 #fcfcfc #000000 #000000;
#X text 530 570 turn off all leds;
#X obj 17 505 t f b;
#X msg 139 531 127;
#X obj 139 512 loadbang;
#X obj 17 615 t f b;
#X msg 139 641 127;
#X obj 139 622 loadbang;
#X obj 17 725 t f b;
#X msg 139 751 127;
#X obj 139 732 loadbang;
#X obj 17 835 t f b;
#X msg 139 861 127;
#X obj 139 842 loadbang;
#X obj 217 505 t f b;
#X msg 340 531 127;
#X obj 340 512 loadbang;
#X obj 217 615 t f b;
#X msg 340 641 127;
#X obj 340 622 loadbang;
#X obj 217 725 t f b;
#X msg 340 751 127;
#X obj 340 732 loadbang;
#X obj 217 835 t f b;
#X msg 340 861 127;
#X obj 340 842 loadbang;
#X obj 475 542 r \$0-right-off;
#X obj 44 527 s \$0-right-off;
#X obj 44 637 s \$0-right-off;
#X obj 44 747 s \$0-right-off;
#X obj 44 857 s \$0-right-off;
#X obj 244 857 s \$0-right-off;
#X obj 244 747 s \$0-right-off;
#X obj 244 637 s \$0-right-off;
#X obj 244 527 s \$0-right-off;
#X obj 17 483 midi-pad 28 6;
#X obj 17 546 reloop-led 28 6;
#X obj 17 593 midi-pad 29 6;
#X obj 17 656 reloop-led 29 6;
#X obj 17 703 midi-pad 30 6;
#X obj 17 766 reloop-led 30 6;
#X obj 17 813 midi-pad 31 6;
#X obj 17 876 reloop-led 31 6;
#X obj 217 483 midi-pad 32 6;
#X obj 217 546 reloop-led 32 6;
#X obj 217 593 midi-pad 33 6;
#X obj 217 656 reloop-led 33 6;
#X obj 217 703 midi-pad 34 6;
#X obj 217 766 reloop-led 34 6;
#X obj 217 813 midi-pad 35 6;
#X obj 217 876 reloop-led 35 6;
#X obj 476 624 reloop-led 28 6;
#X obj 476 644 reloop-led 29 6;
#X obj 476 664 reloop-led 30 6;
#X obj 476 684 reloop-led 31 6;
#X obj 476 704 reloop-led 32 6;
#X obj 476 724 reloop-led 33 6;
#X obj 476 744 reloop-led 34 6;
#X obj 476 764 reloop-led 35 6;
#X connect 8 0 0 0;
#X connect 8 0 1 0;
#X connect 8 0 2 0;
#X connect 8 0 3 0;
#X connect 8 0 4 0;
#X connect 8 0 5 0;
#X connect 8 0 6 0;
#X connect 8 0 7 0;
#X connect 9 0 0 1;
#X connect 9 0 1 1;
#X connect 9 0 2 1;
#X connect 9 0 3 1;
#X connect 9 0 4 1;
#X connect 9 0 5 1;
#X connect 9 0 6 1;
#X connect 9 0 7 1;
#X connect 10 0 8 0;
#X connect 10 1 9 0;
#X connect 11 0 10 0;
#X connect 13 0 15 0;
#X connect 15 0 14 0;
#X connect 15 1 61 0;
#X connect 16 0 14 1;
#X connect 17 0 16 0;
#X connect 18 0 40 0;
#X connect 18 1 60 0;
#X connect 19 0 40 1;
#X connect 20 0 19 0;
#X connect 21 0 42 0;
#X connect 21 1 59 0;
#X connect 22 0 42 1;
#X connect 23 0 22 0;
#X connect 24 0 44 0;
#X connect 24 1 58 0;
#X connect 25 0 44 1;
#X connect 26 0 25 0;
#X connect 27 0 46 0;
#X connect 27 1 54 0;
#X connect 28 0 46 1;
#X connect 29 0 28 0;
#X connect 30 0 48 0;
#X connect 30 1 55 0;
#X connect 31 0 48 1;
#X connect 32 0 31 0;
#X connect 33 0 50 0;
#X connect 33 1 56 0;
#X connect 34 0 50 1;
#X connect 35 0 34 0;
#X connect 36 0 52 0;
#X connect 36 1 57 0;
#X connect 37 0 52 1;
#X connect 38 0 37 0;
#X connect 39 0 18 0;
#X connect 41 0 21 0;
#X connect 43 0 24 0;
#X connect 45 0 27 0;
#X connect 47 0 30 0;
#X connect 49 0 33 0;
#X connect 51 0 36 0;
#X connect 53 0 11 0;
#X connect 62 0 116 0;
#X connect 62 0 117 0;
#X connect 62 0 118 0;
#X connect 62 0 119 0;
#X connect 62 0 120 0;
#X connect 62 0 121 0;
#X connect 62 0 122 0;
#X connect 62 0 123 0;
#X connect 63 0 116 1;
#X connect 63 0 117 1;
#X connect 63 0 118 1;
#X connect 63 0 119 1;
#X connect 63 0 120 1;
#X connect 63 0 121 1;
#X connect 63 0 122 1;
#X connect 63 0 123 1;
#X connect 64 0 62 0;
#X connect 64 1 63 0;
#X connect 65 0 64 0;
#X connect 67 0 101 0;
#X connect 67 1 92 0;
#X connect 68 0 101 1;
#X connect 69 0 68 0;
#X connect 70 0 103 0;
#X connect 70 1 93 0;
#X connect 71 0 103 1;
#X connect 72 0 71 0;
#X connect 73 0 105 0;
#X connect 73 1 94 0;
#X connect 74 0 105 1;
#X connect 75 0 74 0;
#X connect 76 0 107 0;
#X connect 76 1 95 0;
#X connect 77 0 107 1;
#X connect 78 0 77 0;
#X connect 79 0 109 0;
#X connect 79 1 99 0;
#X connect 80 0 109 1;
#X connect 81 0 80 0;
#X connect 82 0 111 0;
#X connect 82 1 98 0;
#X connect 83 0 111 1;
#X connect 84 0 83 0;
#X connect 85 0 113 0;
#X connect 85 1 97 0;
#X connect 86 0 113 1;
#X connect 87 0 86 0;
#X connect 88 0 115 0;
#X connect 88 1 96 0;
#X connect 89 0 115 1;
#X connect 90 0 89 0;
#X connect 91 0 65 0;
#X connect 100 0 67 0;
#X connect 102 0 70 0;
#X connect 104 0 73 0;
#X connect 106 0 76 0;
#X connect 108 0 79 0;
#X connect 110 0 82 0;
#X connect 112 0 85 0;
#X connect 114 0 88 0;
#X restore 16 71 pd sampler-leds;
#N canvas 526 157 450 300 synth-looper-sync 1;
#X obj 152 86 tgl 15 0 empty empty empty 17 7 0 10 #fcfcfc #000000 #000000 0 1;
#X obj 152 110 s both-synth-loopers-on;
#X msg 312 74 0;
#X obj 312 53 loadbang;
#X obj 163 44 midi-pad-to-toggle;
#X obj 163 20 midi-pad 40 6;
#X obj 177 71 reloop-led 40 6;
#X connect 0 0 1 0;
#X connect 2 0 6 1;
#X connect 3 0 2 0;
#X connect 4 0 0 0;
#X connect 4 0 6 0;
#X connect 5 0 4 0;
#X restore 16 29 pd synth-looper-sync;
#X floatatom 1469 28 5 0 0 0 - - - 0;
#X obj 1469 6 + 0;
#X floatatom 1906 28 5 0 0 0 - - - 0;
#X obj 1906 6 + 0;
#X msg 1904 -51 1;
#X msg 1938 -51 2;
#X msg 1973 -50 3;
#X msg 2010 -51 4;
#X msg 2045 -50 5;
#X msg 2080 -50 6;
#X msg 2117 -49 7;
#X msg 2154 -50 8;
#N canvas 150 238 1077 634 sampler-bank-navigation-1 0;
#X obj 14 91 reloop-led 28 5;
#X obj 14 111 reloop-led 29 5;
#X obj 14 131 reloop-led 30 5;
#X obj 14 151 reloop-led 31 5;
#X obj 14 171 reloop-led 32 5;
#X obj 14 191 reloop-led 33 5;
#X obj 14 211 reloop-led 34 5;
#X obj 14 231 reloop-led 35 5;
#X msg 14 72 0;
#X msg 100 71 0;
#X obj 13 50 t b b;
#X obj 13 30 bng 15 250 50 0 empty empty empty 17 7 0 10 #fcfcfc #000000 #000000;
#X text 68 37 turn off all leds;
#X obj 13 10 r \$0-left-off;
#X floatatom 236 166 5 0 0 0 - - - 0;
#X obj 236 187 mod 8;
#X obj 238 233 * 8;
#X floatatom 237 212 5 0 0 0 - - - 0;
#X obj 236 139 +;
#X obj 273 139 i;
#X obj 211 40 midi-pad 42 5;
#X obj 301 39 midi-pad 43 5;
#X msg 211 108 -1;
#X msg 245 108 1;
#X obj 211 66 sel 1;
#X obj 301 64 sel 1;
#X obj 323 97 sel 0 1 2 3 4 5 6 7;
#X msg 283 492 1;
#X obj 283 519 t f b;
#X obj 239 260 outlet;
#X msg 333 442 1;
#X obj 333 469 t f b;
#X obj 333 510 reloop-led 29 5;
#X msg 383 392 1;
#X obj 383 419 t f b;
#X obj 283 560 reloop-led 28 5;
#X obj 383 460 reloop-led 30 5;
#X msg 433 342 1;
#X obj 433 369 t f b;
#X obj 433 410 reloop-led 31 5;
#X msg 477 297 1;
#X obj 477 324 t f b;
#X obj 477 365 reloop-led 32 5;
#X msg 518 250 1;
#X obj 518 277 t f b;
#X obj 518 318 reloop-led 33 5;
#X msg 561 203 1;
#X obj 561 230 t f b;
#X obj 561 272 reloop-led 34 5;
#X msg 604 155 1;
#X obj 604 182 t f b;
#X obj 604 224 reloop-led 35 5;
#X obj 631 203 s \$0-left-off;
#X obj 588 251 s \$0-left-off;
#X obj 545 298 s \$0-left-off;
#X obj 504 345 s \$0-left-off;
#X obj 460 390 s \$0-left-off;
#X obj 410 440 s \$0-left-off;
#X obj 360 490 s \$0-left-off;
#X obj 310 540 s \$0-left-off;
#X connect 8 0 0 0;
#X connect 8 0 1 0;
#X connect 8 0 2 0;
#X connect 8 0 3 0;
#X connect 8 0 4 0;
#X connect 8 0 5 0;
#X connect 8 0 6 0;
#X connect 8 0 7 0;
#X connect 9 0 0 1;
#X connect 9 0 1 1;
#X connect 9 0 2 1;
#X connect 9 0 3 1;
#X connect 9 0 4 1;
#X connect 9 0 5 1;
#X connect 9 0 6 1;
#X connect 9 0 7 1;
#X connect 10 0 8 0;
#X connect 10 1 9 0;
#X connect 11 0 10 0;
#X connect 13 0 11 0;
#X connect 14 0 15 0;
#X connect 15 0 17 0;
#X connect 16 0 29 0;
#X connect 17 0 16 0;
#X connect 17 0 26 0;
#X connect 18 0 19 0;
#X connect 18 0 14 0;
#X connect 19 0 18 1;
#X connect 20 0 24 0;
#X connect 21 0 25 0;
#X connect 22 0 18 0;
#X connect 23 0 18 0;
#X connect 24 0 22 0;
#X connect 25 0 23 0;
#X connect 26 0 27 0;
#X connect 26 1 30 0;
#X connect 26 2 33 0;
#X connect 26 3 37 0;
#X connect 26 4 40 0;
#X connect 26 5 43 0;
#X connect 26 6 46 0;
#X connect 26 7 49 0;
#X connect 27 0 28 0;
#X connect 28 0 35 0;
#X connect 28 1 59 0;
#X connect 30 0 31 0;
#X connect 31 0 32 0;
#X connect 31 1 58 0;
#X connect 33 0 34 0;
#X connect 34 0 36 0;
#X connect 34 1 57 0;
#X connect 37 0 38 0;
#X connect 38 0 39 0;
#X connect 38 1 56 0;
#X connect 40 0 41 0;
#X connect 41 0 42 0;
#X connect 41 1 55 0;
#X connect 43 0 44 0;
#X connect 44 0 45 0;
#X connect 44 1 54 0;
#X connect 46 0 47 0;
#X connect 47 0 48 0;
#X connect 47 1 53 0;
#X connect 49 0 50 0;
#X connect 50 0 51 0;
#X connect 50 1 52 0;
#X restore 1549 8 pd sampler-bank-navigation-1;
#N canvas 41 25 942 630 sampler-bank-navigation-2 0;
#X msg 14 72 0;
#X msg 100 71 0;
#X obj 13 50 t b b;
#X obj 13 30 bng 15 250 50 0 empty empty empty 17 7 0 10 #fcfcfc #000000 #000000;
#X text 68 37 turn off all leds;
#X floatatom 236 166 5 0 0 0 - - - 0;
#X obj 236 187 mod 8;
#X obj 238 233 * 8;
#X floatatom 237 212 5 0 0 0 - - - 0;
#X obj 236 139 +;
#X obj 273 139 i;
#X msg 211 108 -1;
#X msg 245 108 1;
#X obj 211 66 sel 1;
#X obj 301 64 sel 1;
#X obj 323 97 sel 0 1 2 3 4 5 6 7;
#X msg 283 492 1;
#X obj 283 519 t f b;
#X obj 239 260 outlet;
#X msg 333 442 1;
#X obj 333 469 t f b;
#X msg 383 392 1;
#X obj 383 419 t f b;
#X msg 433 342 1;
#X obj 433 369 t f b;
#X msg 477 297 1;
#X obj 477 324 t f b;
#X msg 518 250 1;
#X obj 518 277 t f b;
#X msg 561 203 1;
#X obj 561 230 t f b;
#X msg 604 155 1;
#X obj 604 182 t f b;
#X obj 13 10 r \$0-right-off;
#X obj 631 203 s \$0-right-off;
#X obj 588 251 s \$0-right-off;
#X obj 545 298 s \$0-right-off;
#X obj 504 345 s \$0-right-off;
#X obj 460 390 s \$0-right-off;
#X obj 410 440 s \$0-right-off;
#X obj 360 490 s \$0-right-off;
#X obj 310 540 s \$0-right-off;
#X obj 14 91 reloop-led 28 6;
#X obj 14 111 reloop-led 29 6;
#X obj 14 131 reloop-led 30 6;
#X obj 14 151 reloop-led 31 6;
#X obj 14 171 reloop-led 32 6;
#X obj 14 191 reloop-led 33 6;
#X obj 14 211 reloop-led 34 6;
#X obj 14 231 reloop-led 35 6;
#X obj 211 40 midi-pad 42 6;
#X obj 301 39 midi-pad 43 6;
#X obj 604 224 reloop-led 35 6;
#X obj 561 272 reloop-led 34 6;
#X obj 518 318 reloop-led 33 6;
#X obj 477 365 reloop-led 32 6;
#X obj 433 410 reloop-led 31 6;
#X obj 383 460 reloop-led 30 6;
#X obj 333 510 reloop-led 29 6;
#X obj 283 560 reloop-led 28 6;
#X connect 0 0 42 0;
#X connect 0 0 43 0;
#X connect 0 0 44 0;
#X connect 0 0 45 0;
#X connect 0 0 46 0;
#X connect 0 0 47 0;
#X connect 0 0 48 0;
#X connect 0 0 49 0;
#X connect 1 0 42 1;
#X connect 1 0 43 1;
#X connect 1 0 44 1;
#X connect 1 0 45 1;
#X connect 1 0 46 1;
#X connect 1 0 47 1;
#X connect 1 0 48 1;
#X connect 1 0 49 1;
#X connect 2 0 0 0;
#X connect 2 1 1 0;
#X connect 3 0 2 0;
#X connect 5 0 6 0;
#X connect 6 0 8 0;
#X connect 7 0 18 0;
#X connect 8 0 7 0;
#X connect 8 0 15 0;
#X connect 9 0 10 0;
#X connect 9 0 5 0;
#X connect 10 0 9 1;
#X connect 11 0 9 0;
#X connect 12 0 9 0;
#X connect 13 0 11 0;
#X connect 14 0 12 0;
#X connect 15 0 16 0;
#X connect 15 1 19 0;
#X connect 15 2 21 0;
#X connect 15 3 23 0;
#X connect 15 4 25 0;
#X connect 15 5 27 0;
#X connect 15 6 29 0;
#X connect 15 7 31 0;
#X connect 16 0 17 0;
#X connect 17 0 59 0;
#X connect 17 1 41 0;
#X connect 19 0 20 0;
#X connect 20 0 58 0;
#X connect 20 1 40 0;
#X connect 21 0 22 0;
#X connect 22 0 57 0;
#X connect 22 1 39 0;
#X connect 23 0 24 0;
#X connect 24 0 56 0;
#X connect 24 1 38 0;
#X connect 25 0 26 0;
#X connect 26 0 55 0;
#X connect 26 1 37 0;
#X connect 27 0 28 0;
#X connect 28 0 54 0;
#X connect 28 1 36 0;
#X connect 29 0 30 0;
#X connect 30 0 53 0;
#X connect 30 1 35 0;
#X connect 31 0 32 0;
#X connect 32 0 52 0;
#X connect 32 1 34 0;
#X connect 33 0 3 0;
#X connect 50 0 13 0;
#X connect 51 0 14 0;
#X restore 2095 -15 pd sampler-bank-navigation-2;
#X msg 331 98 track-number \$1;
#X obj 331 79 l2s;
#X msg 296 35 1;
#X msg 326 35 2;
#X msg 356 35 3;
#X msg 386 35 4;
#X msg 415 35 5;
#X msg 446 35 6;
#X msg 476 35 7;
#X msg 506 35 8;
#X obj 296 -131 midi-pad 0 5;
#X obj 326 -111 midi-pad 5 5;
#X obj 356 -91 midi-pad 14 5;
#X obj 386 -70 midi-pad 11 5;
#X obj 415 -50 midi-pad 15 5;
#X obj 446 -30 midi-pad 9 5;
#X obj 476 -8 midi-pad 8 5;
#X obj 506 12 midi-pad 18 5;
#X msg 855 88 track-number \$1;
#X obj 855 69 l2s;
#X obj 716 -131 midi-pad 0 6;
#X obj 746 -111 midi-pad 5 6;
#X obj 776 -91 midi-pad 14 6;
#X obj 806 -70 midi-pad 11 6;
#X obj 835 -50 midi-pad 15 6;
#X obj 866 -30 midi-pad 9 6;
#X obj 896 -8 midi-pad 8 6;
#X obj 926 12 midi-pad 18 6;
#X obj 16 -52 declare -lib zexy;
#X msg 716 35 9;
#X msg 746 35 10;
#X msg 776 35 11;
#X msg 806 35 12;
#X msg 835 35 13;
#X msg 866 35 14;
#X msg 896 35 15;
#X msg 926 35 16;
#N canvas 0 25 450 300 save 0;
#X obj 35 49 midi-pad 1 9;
#X msg 35 70 save \$1;
#X msg 194 46 0;
#X obj 193 27 loadbang;
#X obj 108 69 reloop-led 1 9;
#X obj 35 90 s SAVE;
#X connect 0 0 1 0;
#X connect 0 0 4 0;
#X connect 1 0 5 0;
#X connect 2 0 4 1;
#X connect 3 0 2 0;
#X restore 16 9 pd save;
#N canvas 401 51 952 811 synth-navigation 0;
#X msg 14 72 0;
#X msg 100 71 0;
#X obj 13 50 t b b;
#X obj 13 30 bng 15 250 50 0 empty empty empty 17 7 0 10 #fcfcfc #000000 #000000;
#X text 68 37 turn off all leds;
#X msg 216 656 1;
#X obj 216 683 t f b;
#X msg 266 606 1;
#X obj 266 633 t f b;
#X msg 316 556 1;
#X obj 316 583 t f b;
#X msg 366 506 1;
#X obj 366 533 t f b;
#X msg 410 461 1;
#X obj 410 488 t f b;
#X msg 451 414 1;
#X obj 451 441 t f b;
#X msg 494 367 1;
#X obj 494 394 t f b;
#X msg 537 319 1;
#X obj 537 346 t f b;
#X obj 14 91 reloop-led 0 5;
#X obj 14 111 reloop-led 5 5;
#X obj 14 131 reloop-led 14 5;
#X obj 14 151 reloop-led 11 5;
#X obj 14 171 reloop-led 15 5;
#X obj 14 191 reloop-led 9 5;
#X obj 14 211 reloop-led 8 5;
#X obj 14 231 reloop-led 18 5;
#X obj 213 116 midi-pad 0 5;
#X obj 263 136 midi-pad 5 5;
#X obj 316 156 midi-pad 14 5;
#X obj 368 177 midi-pad 11 5;
#X obj 410 197 midi-pad 15 5;
#X obj 451 217 midi-pad 9 5;
#X obj 494 239 midi-pad 8 5;
#X obj 537 259 midi-pad 18 5;
#X obj 216 724 reloop-led 0 5;
#X obj 266 674 reloop-led 5 5;
#X obj 316 624 reloop-led 14 5;
#X obj 366 574 reloop-led 11 5;
#X obj 410 529 reloop-led 15 5;
#X obj 451 482 reloop-led 9 5;
#X obj 494 436 reloop-led 8 5;
#X obj 537 388 reloop-led 18 5;
#X obj 13 10 r \$0-left-off-1;
#X obj 243 704 s \$0-left-off-1;
#X obj 293 654 s \$0-left-off-1;
#X obj 343 604 s \$0-left-off-1;
#X obj 393 554 s \$0-left-off-1;
#X obj 437 509 s \$0-left-off-1;
#X obj 478 462 s \$0-left-off-1;
#X obj 521 415 s \$0-left-off-1;
#X obj 564 367 s \$0-left-off-1;
#X msg 16 330 0;
#X msg 102 329 0;
#X obj 15 308 t b b;
#X obj 15 288 bng 15 250 50 0 empty empty empty 17 7 0 10 #fcfcfc #000000 #000000;
#X text 70 295 turn off all leds;
#X msg 866 676 1;
#X obj 866 703 t f b;
#X msg 916 626 1;
#X obj 916 653 t f b;
#X msg 966 576 1;
#X obj 966 603 t f b;
#X msg 1016 526 1;
#X obj 1016 553 t f b;
#X msg 1060 481 1;
#X obj 1060 508 t f b;
#X msg 1101 434 1;
#X obj 1101 461 t f b;
#X msg 1144 387 1;
#X obj 1144 414 t f b;
#X msg 1187 339 1;
#X obj 1187 366 t f b;
#X obj 15 268 r \$0-right-off-1;
#X obj 16 349 reloop-led 0 6;
#X obj 16 369 reloop-led 5 6;
#X obj 16 389 reloop-led 14 6;
#X obj 16 409 reloop-led 11 6;
#X obj 16 429 reloop-led 15 6;
#X obj 16 449 reloop-led 9 6;
#X obj 16 469 reloop-led 8 6;
#X obj 16 489 reloop-led 18 6;
#X obj 893 724 s \$0-right-off-1;
#X obj 943 674 s \$0-right-off-1;
#X obj 993 624 s \$0-right-off-1;
#X obj 1043 574 s \$0-right-off-1;
#X obj 1087 529 s \$0-right-off-1;
#X obj 1128 482 s \$0-right-off-1;
#X obj 1171 435 s \$0-right-off-1;
#X obj 1214 387 s \$0-right-off-1;
#X obj 863 136 midi-pad 0 6;
#X obj 913 156 midi-pad 5 6;
#X obj 966 176 midi-pad 14 6;
#X obj 1018 197 midi-pad 11 6;
#X obj 1060 217 midi-pad 15 6;
#X obj 1101 237 midi-pad 9 6;
#X obj 1144 259 midi-pad 8 6;
#X obj 1187 279 midi-pad 18 6;
#X obj 1187 408 reloop-led 18 6;
#X obj 1144 456 reloop-led 8 6;
#X obj 1101 502 reloop-led 9 6;
#X obj 1060 549 reloop-led 15 6;
#X obj 1016 595 reloop-led 11 6;
#X obj 966 644 reloop-led 14 6;
#X obj 916 695 reloop-led 5 6;
#X obj 866 744 reloop-led 0 6;
#X connect 0 0 21 0;
#X connect 0 0 22 0;
#X connect 0 0 23 0;
#X connect 0 0 24 0;
#X connect 0 0 25 0;
#X connect 0 0 26 0;
#X connect 0 0 27 0;
#X connect 0 0 28 0;
#X connect 1 0 21 1;
#X connect 1 0 22 1;
#X connect 1 0 23 1;
#X connect 1 0 24 1;
#X connect 1 0 25 1;
#X connect 1 0 26 1;
#X connect 1 0 27 1;
#X connect 1 0 28 1;
#X connect 2 0 0 0;
#X connect 2 1 1 0;
#X connect 3 0 2 0;
#X connect 5 0 6 0;
#X connect 6 0 37 0;
#X connect 6 1 46 0;
#X connect 7 0 8 0;
#X connect 8 0 38 0;
#X connect 8 1 47 0;
#X connect 9 0 10 0;
#X connect 10 0 39 0;
#X connect 10 1 48 0;
#X connect 11 0 12 0;
#X connect 12 0 40 0;
#X connect 12 1 49 0;
#X connect 13 0 14 0;
#X connect 14 0 41 0;
#X connect 14 1 50 0;
#X connect 15 0 16 0;
#X connect 16 0 42 0;
#X connect 16 1 51 0;
#X connect 17 0 18 0;
#X connect 18 0 43 0;
#X connect 18 1 52 0;
#X connect 19 0 20 0;
#X connect 20 0 44 0;
#X connect 20 1 53 0;
#X connect 29 0 5 0;
#X connect 30 0 7 0;
#X connect 31 0 9 0;
#X connect 32 0 11 0;
#X connect 33 0 13 0;
#X connect 34 0 15 0;
#X connect 35 0 17 0;
#X connect 36 0 19 0;
#X connect 45 0 3 0;
#X connect 54 0 76 0;
#X connect 54 0 77 0;
#X connect 54 0 78 0;
#X connect 54 0 79 0;
#X connect 54 0 80 0;
#X connect 54 0 81 0;
#X connect 54 0 82 0;
#X connect 54 0 83 0;
#X connect 55 0 76 1;
#X connect 55 0 77 1;
#X connect 55 0 78 1;
#X connect 55 0 79 1;
#X connect 55 0 80 1;
#X connect 55 0 81 1;
#X connect 55 0 82 1;
#X connect 55 0 83 1;
#X connect 56 0 54 0;
#X connect 56 1 55 0;
#X connect 57 0 56 0;
#X connect 59 0 60 0;
#X connect 60 0 107 0;
#X connect 60 1 84 0;
#X connect 61 0 62 0;
#X connect 62 0 106 0;
#X connect 62 1 85 0;
#X connect 63 0 64 0;
#X connect 64 0 105 0;
#X connect 64 1 86 0;
#X connect 65 0 66 0;
#X connect 66 0 104 0;
#X connect 66 1 87 0;
#X connect 67 0 68 0;
#X connect 68 0 103 0;
#X connect 68 1 88 0;
#X connect 69 0 70 0;
#X connect 70 0 102 0;
#X connect 70 1 89 0;
#X connect 71 0 72 0;
#X connect 72 0 101 0;
#X connect 72 1 90 0;
#X connect 73 0 74 0;
#X connect 74 0 100 0;
#X connect 74 1 91 0;
#X connect 75 0 57 0;
#X connect 92 0 59 0;
#X connect 93 0 61 0;
#X connect 94 0 63 0;
#X connect 95 0 65 0;
#X connect 96 0 67 0;
#X connect 97 0 69 0;
#X connect 98 0 71 0;
#X connect 99 0 73 0;
#X restore 16 93 pd synth-navigation;
#N canvas 112 87 954 776 audio-in 0;
#X obj 63 493 looper~;
#X obj 62 -13 adc~;
#X obj 176 308 midi-pad 0 10;
#X obj 208 370 reloop-led 0 10;
#X msg 294 351 0;
#X obj 294 331 loadbang;
#X msg 176 406 monitor \$1;
#X msg 369 389 rec \$1;
#X msg 334 478 clear \$1;
#X obj 176 331 midi-pad-to-toggle;
#X obj 369 344 midi-pad-to-toggle;
#X obj 229 527 r right-sampler-val;
#X obj 229 549 l2s;
#X obj 410 487 loadbang;
#X msg 410 508 save-path symbol ../samples;
#X obj 423 371 reloop-led 1 10;
#X obj 369 302 midi-pad 1 10;
#X msg 510 347 0;
#X obj 510 327 loadbang;
#X obj 334 449 midi-pad 64 6;
#X obj 462 302 midi-toggle 64 2;
#X obj 63 887 channel-out~;
#X msg 340 871 volume 1;
#X obj 340 850 loadbang;
#X obj 199 827 midi-encoder 13 15;
#X msg 199 871 volume \$1;
#X obj 200 851 / 127;
#X obj 63 120 eq3~;
#X msg 229 569 save-as symbol \$1;
#X obj 61 21 *~ 0.5;
#X obj 210 79 loadbang;
#X msg 210 104 gain 127;
#X obj 63 255 metal~;
#X obj 197 217 midi-pad-to-toggle;
#X obj 197 194 midi-pad 27 2;
#X msg 197 239 toggle \$1;
#X obj 64 683 reverb~;
#X msg 275 696 wet \$1;
#X obj 275 674 / 127;
#X obj 390 600 sel 1;
#X msg 420 623 0;
#X obj 405 674 / 127;
#X msg 405 696 size \$1;
#X obj 275 653 midi-encoder 26 2;
#X obj 405 653 midi-encoder 28 2;
#X msg 390 623 2;
#X obj 390 576 midi-pad 0 15;
#X obj 465 607 loadbang;
#X connect 0 0 36 0;
#X connect 1 0 29 0;
#X connect 1 1 29 0;
#X connect 2 0 9 0;
#X connect 4 0 3 1;
#X connect 5 0 4 0;
#X connect 6 0 0 1;
#X connect 7 0 0 1;
#X connect 8 0 0 1;
#X connect 9 0 3 0;
#X connect 9 0 6 0;
#X connect 10 0 7 0;
#X connect 10 0 15 0;
#X connect 11 0 12 0;
#X connect 12 0 28 0;
#X connect 13 0 14 0;
#X connect 14 0 0 1;
#X connect 16 0 10 0;
#X connect 17 0 15 1;
#X connect 18 0 17 0;
#X connect 19 0 8 0;
#X connect 20 0 15 0;
#X connect 20 0 7 0;
#X connect 22 0 21 1;
#X connect 23 0 22 0;
#X connect 24 0 26 0;
#X connect 25 0 21 1;
#X connect 26 0 25 0;
#X connect 27 0 32 0;
#X connect 28 0 0 1;
#X connect 29 0 27 0;
#X connect 30 0 31 0;
#X connect 31 0 27 1;
#X connect 32 0 0 0;
#X connect 33 0 35 0;
#X connect 34 0 33 0;
#X connect 35 0 32 1;
#X connect 36 0 21 0;
#X connect 36 0 21 2;
#X connect 37 0 36 1;
#X connect 38 0 37 0;
#X connect 39 0 45 0;
#X connect 39 1 40 0;
#X connect 40 0 43 1;
#X connect 40 0 44 1;
#X connect 41 0 42 0;
#X connect 42 0 36 1;
#X connect 43 0 38 0;
#X connect 44 0 41 0;
#X connect 45 0 43 1;
#X connect 45 0 44 1;
#X connect 46 0 39 0;
#X connect 47 0 40 0;
#X restore 16 -11 pd audio-in;
#X obj 1717 498 midi-pad-to-toggle;
#X obj 2133 493 midi-pad-to-toggle;
#X obj 1058 53 midi-pad-to-toggle;
#X obj 1700 825 midi-pad-to-toggle;
#X obj 1951 22 s right-sampler-val;
#X msg 1506 100 symbol left-channel-1;
#X msg 1649 100 symbol right-channel-1;
#X obj 1506 53 loadbang;
#X obj 1506 75 t b b;
#X obj 1942 53 loadbang;
#X obj 1942 75 t b b;
#X msg 1942 100 symbol left-channel-2;
#X msg 2085 100 symbol right-channel-2;
#X obj 1469 125 sample-reader;
#X obj 1905 125 sample-reader;
#X obj 359 177 looper~;
#X obj 896 147 looper~;
#X obj 1684 882 looper~;
#X obj 1824 882 looper~;
#X obj 1618 193 samplerate~;
#X obj 1470 209 expr $f2 / $f1;
#X obj 1618 174 loadbang;
#X obj 2060 174 samplerate~;
#X obj 2060 154 loadbang;
#X obj 1907 209 expr $f2 / $f1;
#X obj 1486 468 *~ 0.25;
#X obj 1541 470 *~ 0.25;
#X obj 1922 471 *~ 0.25;
#X obj 1975 471 *~ 0.25;
#X obj 2204 346 samplerate~;
#X obj 2147 346 * 40000;
#X obj 2146 259 / 127;
#X obj 2204 326 loadbang;
#X obj 1764 345 samplerate~;
#X obj 1764 325 loadbang;
#X obj 668 1027 eq3~;
#X obj 804 989 loadbang;
#X msg 804 1011 gain 0.75;
#X obj 1694 1088 eq3~;
#X obj 1830 1050 loadbang;
#X msg 1830 1072 gain 0.75;
#X obj 668 1162 looper~;
#X obj 808 1125 loadbang;
#X msg 808 1146 monitor 1;
#X obj 360 551 lpf~;
#X msg 359 345 freq \$1;
#X msg 454 323 vel \$1;
#X obj 359 295 audio-to-midi~;
#X obj 359 319 - 40;
#X obj 359 402 synth~;
#X obj 360 618 audio-delay~ 3000;
#X obj 897 550 lpf~;
#X msg 896 324 freq \$1;
#X msg 991 302 vel \$1;
#X obj 896 274 audio-to-midi~;
#X obj 896 298 - 40;
#X obj 896 401 synth~;
#X obj 897 617 audio-delay~ 3000;
#X obj 1486 546 audio-delay~ 3000;
#X obj 1923 544 audio-delay~ 3000;
#X obj 16 -32 loadbang-dsp;
#X obj 516 364 loadbang;
#X obj 526 514 loadbang;
#X msg 526 535 freq 0.6 \, res 0.4;
#X msg 516 385 pwm 0.2 \, att 0 \, dec 0.5 \, sus 0.5 \, rel 0.8;
#X obj 159 346 midi-encoder 22 1;
#X msg 159 386 pwm \$1;
#X obj 159 367 / 127;
#X msg 1049 386 pwm \$1;
#X obj 1049 367 / 127;
#X obj 1049 346 midi-encoder 22 2;
#X obj 158 492 midi-encoder 0 9;
#X obj 158 513 / 127;
#X msg 158 534 freq \$1;
#X obj 1068 513 / 127;
#X msg 1068 534 freq \$1;
#X obj 1068 492 midi-encoder 0 10;
#X obj 535 654 / 127;
#X obj 650 580 sel 1;
#X obj 665 654 / 127;
#X obj 650 556 midi-pad 0 15;
#X obj 665 633 midi-encoder 28 1;
#X obj 535 633 midi-encoder 26 1;
#X msg 650 603 0;
#X msg 680 603 1;
#X obj 1032 644 / 127;
#X obj 1147 570 sel 1;
#X obj 1162 644 / 127;
#X obj 1032 623 midi-encoder 26 2;
#X obj 1162 623 midi-encoder 28 2;
#X obj 1147 546 midi-pad 0 15;
#X msg 1147 593 0;
#X msg 1177 593 2;
#X obj 519 430 midi-encoder 23 1;
#X obj 519 452 / 127;
#X msg 519 474 att \$1;
#X obj 639 452 / 127;
#X obj 639 430 midi-encoder 25 1;
#X msg 639 474 rel \$1;
#X obj 1119 422 / 127;
#X msg 1119 444 att \$1;
#X obj 1239 422 / 127;
#X msg 1239 444 rel \$1;
#X obj 1119 400 midi-encoder 23 2;
#X obj 1239 400 midi-encoder 25 2;
#X obj 1264 484 midi-encoder 26 1;
#X obj 1264 505 / 127;
#X obj 1363 443 sel 1;
#X obj 1374 506 / 127;
#X obj 1374 485 midi-encoder 28 1;
#X obj 1363 419 midi-pad 0 15;
#X msg 1363 466 0;
#X msg 1393 466 1;
#X obj 2246 550 / 127;
#X obj 2361 476 sel 1;
#X obj 2376 550 / 127;
#X obj 2246 529 midi-encoder 26 2;
#X obj 2376 529 midi-encoder 28 2;
#X obj 2361 452 midi-pad 0 15;
#X msg 2361 499 0;
#X msg 2391 499 2;
#X obj -553 74 looper~;
#X obj -626 17 adc~;
#X obj -413 418 channel-out~;
#X obj -413 1 eq3~;
#X obj -413 117 audio-delay~ 3000;
#X obj -413 237 reverb~;
#X obj -553 311 pitch-shifter~;
#X obj -553 437 metal~;
#X obj -553 191 freeze~;
#N canvas 0 25 1680 997 delay-assignments 0;
#X obj 59 172 outlet;
#X obj -10 -107 r initialize;
#X msg -27 -63 wet 0;
#X msg 30 -64 length 0;
#X msg 110 -63 feedback 0;
#X obj 117 18 nano-memory-encoder-16 wet 0 48 64 0;
#X obj 119 45 nano-memory-encoder-16 length 16 32 64 0;
#X obj 121 71 nano-memory-encoder-16 feedback 17 33 65 0;
#X connect 1 0 2 0;
#X connect 1 0 3 0;
#X connect 1 0 4 0;
#X connect 2 0 0 0;
#X connect 3 0 0 0;
#X connect 4 0 0 0;
#X connect 5 0 0 0;
#X connect 6 0 0 0;
#X connect 7 0 0 0;
#X restore -289 100 pd delay-assignments;
#N canvas 506 241 539 446 pitch-assignments 0;
#X obj 33 147 outlet;
#X obj -24 -84 r initialize;
#X msg -30 -19 coarse 1;
#X msg 47 -18 width 0;
#X obj 67 36 nano-memory-encoder-16 coarse 2 50 66 1;
#X obj 67 64 nano-memory-encoder-16 width 3 51 67 0;
#X connect 1 0 2 0;
#X connect 1 0 3 0;
#X connect 2 0 0 0;
#X connect 3 0 0 0;
#X connect 4 0 0 0;
#X connect 5 0 0 0;
#X restore -721 293 pd pitch-assignments;
#N canvas 660 142 791 568 freeze-assignments 0;
#X obj 429 97 sel 0;
#X msg 461 125 switch 0;
#X msg 462 151 switch 1;
#X obj 429 69 route switch;
#X obj 85 239 outlet;
#X obj 16 -61 r initialize;
#X msg 16 -6 blend 0;
#X msg 89 -7 speed 0;
#X msg 160 -7 switch 1;
#X obj 429 41 nano-memory-encoder-16 switch 5 53 69 1;
#X obj 166 66 nano-memory-encoder-16 blend 18 34 66 0;
#X obj 166 94 nano-memory-encoder-16 speed 19 35 67 0;
#X connect 0 0 2 0;
#X connect 0 1 1 0;
#X connect 1 0 4 0;
#X connect 2 0 4 0;
#X connect 3 0 0 0;
#X connect 5 0 7 0;
#X connect 5 0 6 0;
#X connect 5 0 8 0;
#X connect 6 0 4 0;
#X connect 7 0 4 0;
#X connect 8 0 4 0;
#X connect 9 0 3 0;
#X connect 10 0 4 0;
#X connect 11 0 4 0;
#X restore -731 172 pd freeze-assignments;
#N canvas 64 38 1376 847 looper-assignments 0;
#X obj 187 52 sel 127;
#X obj 188 76 tgl 19 0 empty empty empty 0 -10 0 12 #fcfcfc #000000 #000000 0 1;
#X msg 188 152 monitor \$1;
#X obj 278 51 sel 127;
#X obj 279 75 tgl 19 0 empty empty empty 0 -10 0 12 #fcfcfc #000000 #000000 0 1;
#X msg 279 151 rec \$1;
#X obj 423 76 bng 19 250 50 0 empty empty empty 0 -10 0 12 #fcfcfc #000000 #000000;
#X obj 570 76 bng 19 250 50 0 empty empty empty 0 -10 0 12 #fcfcfc #000000 #000000;
#X obj 402 113 nano-led-16 42;
#X obj 550 112 nano-led-16 41;
#X obj 257 112 nano-led-16 45;
#X obj 421 51 sel 127;
#X obj 572 50 sel 127;
#X obj 713 76 bng 19 250 50 0 empty empty empty 0 -10 0 12 #fcfcfc #000000 #000000;
#X obj 800 76 bng 19 250 50 0 empty empty empty 0 -10 0 12 #fcfcfc #000000 #000000;
#X obj 711 51 sel 127;
#X obj 802 50 sel 127;
#X obj 713 150 s SAVE;
#X msg 570 152 play \$1;
#X msg 423 152 stop \$1;
#X msg 800 152 clear \$1;
#X obj 780 112 nano-led-16 43;
#X obj 692 113 nano-led-16 46;
#X obj 167 112 nano-led-16 44;
#X obj 455 301 outlet;
#X obj 200 586 tgl 19 0 empty empty empty 0 -10 0 12 #fcfcfc #000000 #000000 0 1;
#X obj 199 560 metro 500;
#X obj 198 534 tgl 19 0 empty empty empty 0 -10 0 12 #fcfcfc #000000 #000000 0 1;
#X obj 153 561 sel 0;
#X msg 198 500 1;
#X msg 236 501 0;
#X obj 200 614 nano-led-16 41;
#X obj 197 466 sel 0;
#X obj 84 425 file-exists;
#X obj 84 453 sel 0;
#X msg 84 402 ../audio/\$1.wav;
#X obj 83 337 r BANK;
#X obj 304 76 s \$0-rec-in;
#X obj 450 77 s \$0-stop-in;
#X obj 596 77 s \$0-play-in;
#X obj 834 78 s \$0-clear-in;
#X obj 265 459 r \$0-clear-in;
#X obj 244 377 r \$0-stop-in;
#X obj 197 350 r \$0-rec-in;
#X obj 84 377 int;
#X obj 155 307 r \$0-play-in;
#X obj 155 332 t b b;
#X obj 36 595 nano-led-16 42;
#X obj 116 516 tgl 19 0 empty empty empty 0 -10 0 12 #fcfcfc #000000 #000000 0 1;
#X obj 84 482 t b b;
#X obj 36 568 tgl 19 0 empty empty empty 0 -10 0 12 #fcfcfc #000000 #000000 0 1;
#X obj 36 542 metro 75;
#X obj -24 523 t b b;
#X obj -24 501 delay 500;
#X msg 75 511 0;
#X obj -36 472 nano-led-16 41;
#X msg -24 549 0;
#X obj 187 27 ctlin 44 16;
#X obj 278 26 ctlin 45 16;
#X obj 422 27 ctlin 42 16;
#X obj 569 27 ctlin 41 16;
#X obj 712 27 ctlin 46 16;
#X obj 799 27 ctlin 43 16;
#X connect 0 0 1 0;
#X connect 1 0 2 0;
#X connect 1 0 23 0;
#X connect 2 0 24 0;
#X connect 3 0 4 0;
#X connect 4 0 5 0;
#X connect 4 0 10 0;
#X connect 4 0 37 0;
#X connect 5 0 24 0;
#X connect 6 0 19 0;
#X connect 6 0 38 0;
#X connect 7 0 18 0;
#X connect 7 0 39 0;
#X connect 11 0 6 0;
#X connect 12 0 7 0;
#X connect 13 0 17 0;
#X connect 14 0 20 0;
#X connect 14 0 40 0;
#X connect 15 0 13 0;
#X connect 16 0 14 0;
#X connect 18 0 24 0;
#X connect 19 0 24 0;
#X connect 20 0 24 0;
#X connect 25 0 31 0;
#X connect 26 0 25 0;
#X connect 27 0 26 0;
#X connect 27 0 28 0;
#X connect 28 0 25 0;
#X connect 29 0 27 0;
#X connect 30 0 27 0;
#X connect 30 0 25 0;
#X connect 32 0 29 0;
#X connect 32 1 30 0;
#X connect 33 0 34 0;
#X connect 34 0 30 0;
#X connect 34 0 49 0;
#X connect 34 1 55 0;
#X connect 35 0 33 0;
#X connect 36 0 44 0;
#X connect 41 0 30 0;
#X connect 42 0 30 0;
#X connect 42 0 44 0;
#X connect 43 0 32 0;
#X connect 44 0 35 0;
#X connect 45 0 46 0;
#X connect 46 0 44 0;
#X connect 46 1 29 0;
#X connect 48 0 51 0;
#X connect 49 0 53 0;
#X connect 49 1 48 0;
#X connect 50 0 47 0;
#X connect 51 0 50 0;
#X connect 52 0 56 0;
#X connect 52 1 54 0;
#X connect 53 0 52 0;
#X connect 54 0 48 0;
#X connect 56 0 50 0;
#X connect 57 0 0 0;
#X connect 58 0 3 0;
#X connect 59 0 8 0;
#X connect 59 0 11 0;
#X connect 60 0 9 0;
#X connect 60 0 12 0;
#X connect 61 0 15 0;
#X connect 61 0 22 0;
#X connect 62 0 16 0;
#X connect 62 0 21 0;
#X restore -420 -69 pd looper-assignments;
#N canvas 150 175 450 300 reverb-assignments 0;
#X obj 24 185 outlet;
#X obj 14 -24 r initialize;
#X msg -10 22 wet 0;
#X msg 51 22 size 0;
#X obj 95 57 nano-memory-encoder-16 wet 0 48 64 0;
#X obj 95 85 nano-memory-encoder-16 size 1 49 65 0;
#X connect 1 0 2 0;
#X connect 1 0 3 0;
#X connect 2 0 0 0;
#X connect 3 0 0 0;
#X connect 4 0 0 0;
#X connect 5 0 0 0;
#X restore -280 219 pd reverb-assignments;
#N canvas 482 163 450 300 metal-assignment 0;
#X obj 50 72 sel 0;
#X obj 50 44 route toggle;
#X msg 82 100 toggle 1;
#X msg 83 126 toggle 0;
#X obj 17 190 outlet;
#X obj 223 121 r initialize;
#X msg 223 148 toggle 0;
#X obj 50 17 nano-memory-encoder-16 toggle 4 52 68 0;
#X connect 0 0 3 0;
#X connect 0 1 2 0;
#X connect 1 0 0 0;
#X connect 2 0 4 0;
#X connect 3 0 4 0;
#X connect 5 0 6 0;
#X connect 6 0 4 0;
#X connect 7 0 1 0;
#X restore -718 418 pd metal-assignment;
#N canvas 498 126 589 399 eq3-assignments 0;
#X obj 30 183 outlet;
#X obj -16 -93 r initialize;
#X msg -123 -15 low 0.5;
#X msg -57 -15 mid 0.5;
#X msg 9 -15 high 0.5;
#X msg 90 -15 gain 0.5;
#X obj 95 56 nano-memory-encoder-16 low 20 36 68 66;
#X obj 95 85 nano-memory-encoder-16 mid 21 37 69 66;
#X obj 95 116 nano-memory-encoder-16 high 22 38 70 66;
#X obj 95 145 nano-memory-encoder-16 gain 6 54 70 66;
#X connect 1 0 2 0;
#X connect 1 0 3 0;
#X connect 1 0 4 0;
#X connect 1 0 5 0;
#X connect 2 0 0 0;
#X connect 3 0 0 0;
#X connect 4 0 0 0;
#X connect 5 0 0 0;
#X connect 6 0 0 0;
#X connect 7 0 0 0;
#X connect 8 0 0 0;
#X connect 9 0 0 0;
#X restore -357 -45 pd eq3-assignments;
#X obj -413 359 cosine-pan~;
#N canvas 349 218 450 300 pan-assignment 0;
#X obj 10 99 outlet;
#X obj -6 -22 r initialize;
#X msg -6 13 position 0.5;
#X obj 70 47 nano-memory-encoder-16 position 23 39 71 66;
#X connect 1 0 2 0;
#X connect 2 0 0 0;
#X connect 3 0 0 0;
#X restore -256 341 pd pan-assignment;
#N canvas 266 291 450 300 volume-assignment 0;
#X obj 34 163 outlet;
#X msg 121 92 volume 0.5;
#X obj 68 28 nano-memory-encoder-16 volume 7 55 71 66;
#X obj 121 67 r initialize;
#X connect 1 0 0 0;
#X connect 2 0 0 0;
#X connect 3 0 1 0;
#X restore -245 400 pd volume-assignment;
#N canvas 572 197 940 688 navigation 0;
#X msg 248 85 1;
#X msg 327 82 -1;
#X obj 294 125 +;
#X obj 355 143 int;
#X floatatom 355 179 5 0 0 0 - - - 0;
#X obj 377 457 outlet;
#X floatatom 116 317 5 0 0 0 - - - 0;
#X obj 116 235 bng 15 250 50 0 empty empty empty 17 7 0 10 #fcfcfc #000000 #000000;
#X obj 152 271 + 1;
#X obj 116 270 int;
#X obj 173 391 file-exists;
#X obj 38 235 loadbang;
#X obj 173 414 sel 0;
#X msg 38 255 1;
#X obj 31 367 s \$0-initial-bank;
#X obj 410 96 r \$0-initial-bank;
#X obj 205 440 delay 100;
#X obj 103 128 bng 15 250 50 0 empty empty + 17 7 0 10 #fcfcfc #000000 #000000;
#X obj 132 128 bng 15 250 50 0 empty empty - 17 7 0 10 #fcfcfc #000000 #000000;
#X floatatom 159 127 5 0 0 0 - - - 0;
#X msg 173 367 ../audio/\$1.wav;
#X obj 377 425 l2s;
#X obj 412 425 s BANK;
#X obj 376 246 %;
#X floatatom 377 379 5 0 0 0 - - - 0;
#X obj 159 73 r BANK;
#X obj 442 334 r \$0-initial-bank;
#X obj 442 360 pipe 5;
#X obj 376 278 + 1;
#X obj 509 11 loadbang;
#X obj 510 36 delay 100;
#X obj 510 62 t b b b;
#X obj 410 125 * 10;
#X text 449 127 avoid negatives;
#X obj 248 20 midi-button 59 16;
#X obj 327 59 midi-button 58 16;
#X connect 0 0 2 0;
#X connect 1 0 2 0;
#X connect 2 0 3 0;
#X connect 3 0 2 1;
#X connect 3 0 4 0;
#X connect 4 0 23 0;
#X connect 6 0 20 0;
#X connect 6 0 14 0;
#X connect 6 0 23 1;
#X connect 7 0 9 0;
#X connect 8 0 9 1;
#X connect 9 0 6 0;
#X connect 9 0 8 0;
#X connect 10 0 12 0;
#X connect 11 0 13 0;
#X connect 12 1 16 0;
#X connect 13 0 9 0;
#X connect 15 0 32 0;
#X connect 16 0 7 0;
#X connect 17 0 0 0;
#X connect 18 0 1 0;
#X connect 20 0 10 0;
#X connect 21 0 5 0;
#X connect 23 0 28 0;
#X connect 24 0 22 0;
#X connect 24 0 21 0;
#X connect 25 0 19 0;
#X connect 26 0 27 0;
#X connect 27 0 24 0;
#X connect 28 0 24 0;
#X connect 29 0 30 0;
#X connect 30 0 31 0;
#X connect 31 0 1 0;
#X connect 31 1 1 0;
#X connect 31 2 0 0;
#X connect 32 0 3 0;
#X connect 34 0 0 0;
#X connect 35 0 1 0;
#X coords 0 -1 1 1 100 50 1 100 100;
#X restore -547 11 pd navigation;
#X msg -440 -94 track-number \$1;
#N canvas 63 88 925 613 initialize 0;
#X obj 103 103 bng 19 250 50 0 empty empty empty 0 -10 0 12 #fcfcfc #000000 #000000;
#X obj 318 248 s initialize;
#X obj 130 273 tgl 19 0 empty empty empty 0 -10 0 12 #fcfcfc #000000 #000000 0 1;
#X obj 128 221 tgl 19 0 empty empty empty 0 -10 0 12 #fcfcfc #000000 #000000 0 1;
#X obj 83 248 sel 0;
#X obj 130 301 nano-led-16 64;
#X obj 220 301 nano-led-16 65;
#X obj 310 301 nano-led-16 66;
#X obj 400 301 nano-led-16 67;
#X obj 490 301 nano-led-16 68;
#X obj 580 301 nano-led-16 69;
#X obj 670 301 nano-led-16 70;
#X obj 760 301 nano-led-16 71;
#X msg 153 221 0;
#X obj 129 247 metro 50;
#X obj 127 188 delay 500;
#X obj 369 192 s clear-automation;
#X obj 432 167 s pause-automation;
#X msg 433 141 0;
#X obj 318 122 t b b b;
#X obj 318 218 delay 500;
#X obj 103 69 midi-button 60 16;
#X connect 0 0 3 0;
#X connect 0 0 15 0;
#X connect 0 0 19 0;
#X connect 2 0 5 0;
#X connect 2 0 6 0;
#X connect 2 0 7 0;
#X connect 2 0 8 0;
#X connect 2 0 9 0;
#X connect 2 0 10 0;
#X connect 2 0 11 0;
#X connect 2 0 12 0;
#X connect 3 0 4 0;
#X connect 3 0 14 0;
#X connect 4 0 2 0;
#X connect 13 0 2 0;
#X connect 14 0 2 0;
#X connect 15 0 3 0;
#X connect 15 0 13 0;
#X connect 18 0 17 0;
#X connect 19 0 20 0;
#X connect 19 1 16 0;
#X connect 19 2 18 0;
#X connect 20 0 1 0;
#X connect 21 0 0 0;
#X coords 0 -1 1 1 100 25 1 100 100;
#X restore -141 -47 pd initialize;
#N canvas 393 204 1119 749 pause-automation 0;
#X obj 102 103 tgl 19 0 empty empty empty 0 -10 0 12 #fcfcfc #000000 #000000 0 1;
#X obj 111 139 s pause-automation;
#X obj 102 55 midi-pad-to-toggle;
#X obj 102 10 sel 127;
#X msg 102 31 1;
#X msg 140 34 0;
#X obj 105 304 tgl 19 0 empty empty empty 0 -10 0 12 #fcfcfc #000000 #000000 0 1;
#X obj 104 278 metro 500;
#X obj 103 252 tgl 19 0 empty empty empty 0 -10 0 12 #fcfcfc #000000 #000000 0 1;
#X obj 58 279 sel 0;
#X msg 103 218 1;
#X msg 141 219 0;
#X obj 102 184 sel 1;
#X obj 105 332 nano-led-16 64;
#X obj 195 332 nano-led-16 65;
#X obj 285 332 nano-led-16 66;
#X obj 375 332 nano-led-16 67;
#X obj 465 332 nano-led-16 68;
#X obj 555 332 nano-led-16 69;
#X obj 645 332 nano-led-16 70;
#X obj 735 332 nano-led-16 71;
#X obj 249 95 r clear-automation;
#X msg 249 120 0;
#X obj 102 -14 ctlin 61 16;
#X connect 0 0 12 0;
#X connect 0 0 1 0;
#X connect 2 0 0 0;
#X connect 3 0 4 0;
#X connect 3 1 5 0;
#X connect 4 0 2 0;
#X connect 5 0 2 0;
#X connect 6 0 13 0;
#X connect 6 0 14 0;
#X connect 6 0 15 0;
#X connect 6 0 16 0;
#X connect 6 0 17 0;
#X connect 6 0 18 0;
#X connect 6 0 19 0;
#X connect 6 0 20 0;
#X connect 7 0 6 0;
#X connect 8 0 7 0;
#X connect 8 0 9 0;
#X connect 9 0 6 0;
#X connect 10 0 8 0;
#X connect 11 0 8 0;
#X connect 11 0 6 0;
#X connect 12 0 10 0;
#X connect 12 1 11 0;
#X connect 21 0 22 0;
#X connect 22 0 0 0;
#X connect 23 0 3 0;
#X coords 0 -1 1 1 100 25 1 100 100;
#X restore -140 -17 pd pause-automation;
#N canvas 40 38 450 300 clear-automation 0;
#X obj 102 103 bng 19 250 50 0 empty empty empty 0 -10 0 12 #fcfcfc #000000 #000000;
#X obj 102 139 s clear-automation;
#X obj 102 64 midi-button 62 16;
#X connect 0 0 1 0;
#X connect 2 0 0 0;
#X coords 0 -1 1 1 100 25 1 100 100;
#X restore -140 12 pd clear-automation;
#X obj -88 -116 loadbang-dsp;
#X obj -88 -88 s initialize;
#X obj -721 65 s navigation;
#X obj -440 -123 r navigation;
#X obj -553 486 s~ audio-route;
#X obj -293 -18 r~ audio-route;
#N canvas 63 88 1005 525 blink 0;
#X obj 103 103 bng 19 250 50 0 empty empty empty 0 -10 0 12 #fcfcfc #000000 #000000;
#X obj 130 273 tgl 19 0 empty empty empty 0 -10 0 12 #fcfcfc #000000 #000000 0 1;
#X obj 128 221 tgl 19 0 empty empty empty 0 -10 0 12 #fcfcfc #000000 #000000 0 1;
#X obj 83 248 sel 0;
#X obj 130 301 nano-led-16 64;
#X obj 220 301 nano-led-16 65;
#X obj 310 301 nano-led-16 66;
#X obj 400 301 nano-led-16 67;
#X obj 490 301 nano-led-16 68;
#X obj 580 301 nano-led-16 69;
#X obj 670 301 nano-led-16 70;
#X obj 760 301 nano-led-16 71;
#X msg 153 221 0;
#X obj 103 62 inlet;
#X obj 129 247 metro 500;
#X obj 127 188 delay 5000;
#X connect 0 0 2 0;
#X connect 0 0 15 0;
#X connect 1 0 4 0;
#X connect 1 0 5 0;
#X connect 1 0 6 0;
#X connect 1 0 7 0;
#X connect 1 0 8 0;
#X connect 1 0 9 0;
#X connect 1 0 10 0;
#X connect 1 0 11 0;
#X connect 2 0 3 0;
#X connect 2 0 14 0;
#X connect 3 0 1 0;
#X connect 12 0 1 0;
#X connect 13 0 0 0;
#X connect 14 0 1 0;
#X connect 15 0 2 0;
#X connect 15 0 12 0;
#X restore -717 -89 pd blink;
#X obj -717 -114 loadbang;
#X obj 1756 260 midi-encoder 63 1;
#X obj 2195 260 midi-encoder 63 2;
#X msg 500 732 wet 1;
#X obj 500 707 loadbang;
#X msg 536 680 feedback \$1;
#X msg 665 676 length \$1;
#X msg 920 784 wet 1;
#X obj 921 762 loadbang;
#X msg 1033 669 feedback \$1;
#X msg 1162 666 length \$1;
#X obj 1331 611 loadbang;
#X msg 1264 550 feedback \$1;
#X msg 1374 528 length \$1;
#X msg 2105 621 wet 1;
#X obj 2103 598 loadbang;
#X msg 2247 577 feedback \$1;
#X msg 2376 572 length \$1;
#X msg 1332 636 wet 1;
#X connect 2 0 273 1;
#X connect 3 0 2 0;
#X connect 4 0 273 1;
#X connect 5 0 274 1;
#X connect 6 0 5 0;
#X connect 7 0 274 1;
#X connect 8 0 0 1;
#X connect 9 0 8 0;
#X connect 10 0 28 0;
#X connect 10 0 278 0;
#X connect 11 0 16 0;
#X connect 12 0 13 0;
#X connect 13 0 11 0;
#X connect 14 0 15 0;
#X connect 15 0 11 0;
#X connect 16 0 26 0;
#X connect 16 0 27 0;
#X connect 17 0 18 0;
#X connect 18 0 22 0;
#X connect 19 0 20 0;
#X connect 20 0 21 0;
#X connect 21 0 33 0;
#X connect 22 0 19 0;
#X connect 23 0 17 0;
#X connect 24 0 316 0;
#X connect 26 0 283 0;
#X connect 27 0 284 0;
#X connect 30 0 15 1;
#X connect 31 0 16 1;
#X connect 32 0 26 0;
#X connect 32 0 27 0;
#X connect 34 0 50 0;
#X connect 34 0 282 0;
#X connect 35 0 40 0;
#X connect 36 0 37 0;
#X connect 37 0 35 0;
#X connect 38 0 39 0;
#X connect 39 0 35 0;
#X connect 40 0 56 0;
#X connect 40 0 57 0;
#X connect 41 0 42 0;
#X connect 42 0 288 0;
#X connect 43 0 44 0;
#X connect 44 0 45 0;
#X connect 45 0 55 0;
#X connect 46 0 317 0;
#X connect 47 0 48 0;
#X connect 48 0 66 1;
#X connect 52 0 39 1;
#X connect 53 0 40 1;
#X connect 54 0 56 0;
#X connect 54 0 57 0;
#X connect 56 0 285 0;
#X connect 57 0 286 0;
#X connect 58 0 23 0;
#X connect 59 0 289 0;
#X connect 60 1 273 0;
#X connect 61 1 274 0;
#X connect 62 0 273 1;
#X connect 63 0 62 0;
#X connect 64 0 65 0;
#X connect 65 0 274 1;
#X connect 67 0 68 0;
#X connect 68 0 275 1;
#X connect 69 0 275 1;
#X connect 70 0 275 1;
#X connect 71 0 0 1;
#X connect 72 0 71 0;
#X connect 73 0 66 1;
#X connect 74 0 73 0;
#X connect 75 0 46 1;
#X connect 76 0 24 1;
#X connect 77 0 72 0;
#X connect 78 0 74 0;
#X connect 79 0 128 1;
#X connect 80 0 128 2;
#X connect 81 0 83 0;
#X connect 82 0 79 1;
#X connect 83 0 82 0;
#X connect 84 0 86 0;
#X connect 84 1 85 0;
#X connect 85 0 81 1;
#X connect 85 0 89 1;
#X connect 86 0 81 1;
#X connect 86 0 89 1;
#X connect 87 0 88 0;
#X connect 88 0 79 1;
#X connect 89 0 87 0;
#X connect 90 0 80 1;
#X connect 91 0 90 0;
#X connect 92 0 98 0;
#X connect 92 1 93 0;
#X connect 93 0 96 1;
#X connect 93 0 97 1;
#X connect 94 0 95 0;
#X connect 95 0 80 1;
#X connect 96 0 91 0;
#X connect 97 0 94 0;
#X connect 98 0 96 1;
#X connect 98 0 97 1;
#X connect 99 0 275 0;
#X connect 100 0 276 0;
#X connect 101 0 103 0;
#X connect 102 0 99 1;
#X connect 103 0 102 0;
#X connect 104 0 106 0;
#X connect 104 1 105 0;
#X connect 105 0 101 1;
#X connect 105 0 109 1;
#X connect 106 0 101 1;
#X connect 106 0 109 1;
#X connect 107 0 108 0;
#X connect 108 0 99 1;
#X connect 109 0 107 0;
#X connect 110 0 100 1;
#X connect 111 0 110 0;
#X connect 112 0 118 0;
#X connect 112 1 113 0;
#X connect 113 0 116 1;
#X connect 113 0 117 1;
#X connect 114 0 115 0;
#X connect 115 0 100 1;
#X connect 116 0 111 0;
#X connect 117 0 114 0;
#X connect 118 0 116 1;
#X connect 118 0 117 1;
#X connect 119 0 259 0;
#X connect 120 0 205 0;
#X connect 121 0 205 0;
#X connect 122 0 205 0;
#X connect 123 0 205 0;
#X connect 124 0 205 0;
#X connect 125 0 205 0;
#X connect 126 0 205 0;
#X connect 127 0 205 0;
#X connect 128 0 293 0;
#X connect 129 0 130 0;
#X connect 130 0 128 0;
#X connect 131 0 132 0;
#X connect 132 0 276 1;
#X connect 133 0 276 1;
#X connect 134 0 276 1;
#X connect 135 0 136 0;
#X connect 136 0 145 0;
#X connect 137 0 139 0;
#X connect 138 0 140 0;
#X connect 138 1 139 0;
#X connect 139 0 129 1;
#X connect 140 0 129 1;
#X connect 141 0 143 0;
#X connect 142 0 144 0;
#X connect 142 1 143 0;
#X connect 143 0 135 1;
#X connect 144 0 135 1;
#X connect 145 0 296 0;
#X connect 146 0 6 0;
#X connect 146 0 201 0;
#X connect 147 0 3 0;
#X connect 147 0 196 0;
#X connect 148 0 70 0;
#X connect 149 0 84 0;
#X connect 150 0 92 0;
#X connect 151 0 104 0;
#X connect 152 0 112 0;
#X connect 153 0 120 0;
#X connect 154 0 121 0;
#X connect 155 0 122 0;
#X connect 156 0 123 0;
#X connect 157 0 124 0;
#X connect 158 0 125 0;
#X connect 159 0 126 0;
#X connect 160 0 127 0;
#X connect 161 0 208 0;
#X connect 162 0 209 0;
#X connect 163 0 210 0;
#X connect 164 0 211 0;
#X connect 165 0 212 0;
#X connect 166 0 213 0;
#X connect 167 0 214 0;
#X connect 168 0 215 0;
#X connect 169 0 134 0;
#X connect 169 0 193 0;
#X connect 170 0 138 0;
#X connect 171 0 142 0;
#X connect 174 0 258 0;
#X connect 175 0 177 0;
#X connect 175 0 4 0;
#X connect 176 0 175 0;
#X connect 178 0 260 0;
#X connect 180 0 261 0;
#X connect 183 0 4 0;
#X connect 184 0 7 0;
#X connect 185 0 13 0;
#X connect 185 0 187 0;
#X connect 186 0 37 0;
#X connect 186 0 192 0;
#X connect 188 0 187 1;
#X connect 189 0 188 0;
#X connect 190 0 192 1;
#X connect 191 0 190 0;
#X connect 194 0 193 1;
#X connect 195 0 194 0;
#X connect 197 0 196 1;
#X connect 198 0 197 0;
#X connect 199 0 201 1;
#X connect 200 0 199 0;
#X connect 204 0 271 0;
#X connect 205 0 204 0;
#X connect 206 0 272 0;
#X connect 207 0 206 0;
#X connect 207 0 262 0;
#X connect 208 0 207 0;
#X connect 209 0 207 0;
#X connect 210 0 207 0;
#X connect 211 0 207 0;
#X connect 212 0 207 0;
#X connect 213 0 207 0;
#X connect 214 0 207 0;
#X connect 215 0 207 0;
#X connect 216 0 205 1;
#X connect 217 0 207 1;
#X connect 218 0 273 1;
#X connect 219 0 218 0;
#X connect 220 0 219 0;
#X connect 221 0 219 0;
#X connect 222 0 219 0;
#X connect 223 0 219 0;
#X connect 224 0 219 0;
#X connect 225 0 219 0;
#X connect 226 0 219 0;
#X connect 227 0 219 0;
#X connect 228 0 220 0;
#X connect 229 0 221 0;
#X connect 230 0 222 0;
#X connect 231 0 223 0;
#X connect 232 0 224 0;
#X connect 233 0 225 0;
#X connect 234 0 226 0;
#X connect 235 0 227 0;
#X connect 236 0 274 1;
#X connect 237 0 236 0;
#X connect 238 0 247 0;
#X connect 239 0 248 0;
#X connect 240 0 249 0;
#X connect 241 0 250 0;
#X connect 242 0 251 0;
#X connect 243 0 252 0;
#X connect 244 0 253 0;
#X connect 245 0 254 0;
#X connect 247 0 237 0;
#X connect 248 0 237 0;
#X connect 249 0 237 0;
#X connect 250 0 237 0;
#X connect 251 0 237 0;
#X connect 252 0 237 0;
#X connect 253 0 237 0;
#X connect 254 0 237 0;
#X connect 258 0 173 0;
#X connect 258 0 76 0;
#X connect 259 0 75 0;
#X connect 259 0 172 0;
#X connect 260 0 179 0;
#X connect 260 0 7 0;
#X connect 261 0 181 0;
#X connect 261 0 69 0;
#X connect 261 0 133 0;
#X connect 263 0 271 1;
#X connect 264 0 271 2;
#X connect 265 0 266 0;
#X connect 266 0 263 0;
#X connect 266 1 264 0;
#X connect 267 0 268 0;
#X connect 268 0 269 0;
#X connect 268 1 270 0;
#X connect 269 0 272 1;
#X connect 270 0 272 2;
#X connect 271 0 10 0;
#X connect 272 0 34 0;
#X connect 273 0 305 0;
#X connect 274 0 312 0;
#X connect 275 0 145 1;
#X connect 276 0 145 2;
#X connect 277 0 278 1;
#X connect 278 0 11 0;
#X connect 278 0 29 0;
#X connect 279 0 277 0;
#X connect 280 0 282 1;
#X connect 281 0 280 0;
#X connect 282 0 35 0;
#X connect 282 0 51 0;
#X connect 283 0 24 0;
#X connect 284 0 24 0;
#X connect 285 0 46 0;
#X connect 286 0 46 0;
#X connect 287 0 288 1;
#X connect 288 0 43 0;
#X connect 289 0 41 0;
#X connect 290 0 287 0;
#X connect 291 0 22 1;
#X connect 292 0 291 0;
#X connect 293 0 299 0;
#X connect 294 0 295 0;
#X connect 295 0 293 1;
#X connect 296 0 66 0;
#X connect 296 0 66 2;
#X connect 297 0 298 0;
#X connect 298 0 296 1;
#X connect 299 0 0 0;
#X connect 299 0 0 2;
#X connect 300 0 301 0;
#X connect 301 0 299 1;
#X connect 302 0 308 0;
#X connect 303 0 307 0;
#X connect 304 0 307 0;
#X connect 305 0 306 0;
#X connect 305 1 304 0;
#X connect 306 0 303 0;
#X connect 307 0 302 0;
#X connect 308 0 79 0;
#X connect 309 0 315 0;
#X connect 310 0 314 0;
#X connect 311 0 314 0;
#X connect 312 0 313 0;
#X connect 312 1 311 0;
#X connect 313 0 310 0;
#X connect 314 0 309 0;
#X connect 315 0 80 0;
#X connect 316 0 99 0;
#X connect 317 0 100 0;
#X connect 319 0 322 0;
#X connect 320 0 321 0;
#X connect 321 0 302 1;
#X connect 321 0 309 1;
#X connect 322 0 307 0;
#X connect 322 0 314 0;
#X connect 323 0 325 0;
#X connect 324 0 307 0;
#X connect 325 0 324 0;
#X connect 326 0 314 0;
#X connect 327 0 326 0;
#X connect 328 0 327 0;
#X connect 329 0 330 0;
#X connect 330 0 331 0;
#X connect 331 0 302 1;
#X connect 332 0 333 0;
#X connect 333 0 309 1;
#X connect 334 0 332 0;
#X connect 335 0 415 0;
#X connect 336 0 341 0;
#X connect 336 1 342 0;
#X connect 337 0 416 0;
#X connect 338 0 336 0;
#X connect 339 0 337 0;
#X connect 340 0 335 0;
#X connect 341 0 339 1;
#X connect 341 0 340 1;
#X connect 342 0 339 1;
#X connect 342 0 340 1;
#X connect 343 0 419 0;
#X connect 344 0 349 0;
#X connect 344 1 350 0;
#X connect 345 0 420 0;
#X connect 346 0 343 0;
#X connect 347 0 345 0;
#X connect 348 0 344 0;
#X connect 349 0 346 1;
#X connect 349 0 347 1;
#X connect 350 0 346 1;
#X connect 350 0 347 1;
#X connect 351 0 352 0;
#X connect 352 0 353 0;
#X connect 353 0 307 0;
#X connect 354 0 356 0;
#X connect 355 0 354 0;
#X connect 356 0 307 0;
#X connect 357 0 358 0;
#X connect 358 0 314 0;
#X connect 359 0 360 0;
#X connect 360 0 314 0;
#X connect 361 0 357 0;
#X connect 362 0 359 0;
#X connect 363 0 364 0;
#X connect 364 0 422 0;
#X connect 365 0 369 0;
#X connect 365 1 370 0;
#X connect 366 0 423 0;
#X connect 367 0 366 0;
#X connect 368 0 365 0;
#X connect 369 0 363 1;
#X connect 369 0 367 1;
#X connect 370 0 363 1;
#X connect 370 0 367 1;
#X connect 371 0 426 0;
#X connect 372 0 377 0;
#X connect 372 1 378 0;
#X connect 373 0 427 0;
#X connect 374 0 371 0;
#X connect 375 0 373 0;
#X connect 376 0 372 0;
#X connect 377 0 374 1;
#X connect 377 0 375 1;
#X connect 378 0 374 1;
#X connect 378 0 375 1;
#X connect 379 0 387 0;
#X connect 380 0 379 0;
#X connect 380 1 379 0;
#X connect 382 0 383 0;
#X connect 382 1 383 0;
#X connect 383 0 384 0;
#X connect 384 0 395 0;
#X connect 385 0 386 0;
#X connect 386 0 407 0;
#X connect 387 0 385 0;
#X connect 388 0 383 1;
#X connect 389 0 385 1;
#X connect 390 0 387 1;
#X connect 391 0 379 1;
#X connect 392 0 384 1;
#X connect 393 0 386 1;
#X connect 394 0 382 1;
#X connect 395 0 381 0;
#X connect 395 1 381 2;
#X connect 396 0 395 1;
#X connect 397 0 381 1;
#X connect 398 0 405 0;
#X connect 399 0 379 1;
#X connect 403 0 404 0;
#X connect 406 0 399 0;
#X connect 408 0 382 2;
#X connect 408 0 382 0;
#X connect 410 0 409 0;
#X connect 411 0 23 0;
#X connect 412 0 289 0;
#X connect 413 0 308 1;
#X connect 414 0 413 0;
#X connect 415 0 308 1;
#X connect 416 0 308 1;
#X connect 417 0 315 1;
#X connect 418 0 417 0;
#X connect 419 0 315 1;
#X connect 420 0 315 1;
#X connect 421 0 428 0;
#X connect 422 0 316 0;
#X connect 423 0 316 1;
#X connect 424 0 317 1;
#X connect 425 0 424 0;
#X connect 426 0 317 1;
#X connect 427 0 317 1;
#X connect 428 0 316 1;
