#N canvas 588 29 624 621 12;
#N canvas 413 25 963 997 nanokontrol 0;
#X obj 110 194 looper~;
#X obj 37 137 adc~;
#X obj 250 538 channel-out~;
#X obj 250 121 eq3~;
#X obj 250 237 audio-delay~ 3000;
#X obj 250 357 reverb~;
#X obj 110 431 pitch-shifter~;
#X obj 110 557 metal~;
#X obj 110 311 freeze~;
#N canvas 0 25 1680 997 delay-assignments 0;
#X obj 59 172 outlet;
#X obj -10 -107 r initialize;
#X msg -27 -63 wet 0;
#X msg 30 -64 length 0;
#X msg 110 -63 feedback 0;
#X obj 117 18 nano-memory-encoder wet 0 48 64 0;
#X obj 119 45 nano-memory-encoder length 16 32 64 0;
#X obj 121 71 nano-memory-encoder feedback 17 33 65 0;
#X connect 1 0 2 0;
#X connect 1 0 3 0;
#X connect 1 0 4 0;
#X connect 2 0 0 0;
#X connect 3 0 0 0;
#X connect 4 0 0 0;
#X connect 5 0 0 0;
#X connect 6 0 0 0;
#X connect 7 0 0 0;
#X restore 374 220 pd delay-assignments;
#N canvas 506 241 539 446 pitch-assignments 0;
#X obj 33 147 outlet;
#X obj -24 -84 r initialize;
#X msg -30 -19 coarse 1;
#X msg 47 -18 width 0;
#X obj 67 36 nano-memory-encoder coarse 2 50 66 1;
#X obj 67 64 nano-memory-encoder width 3 51 67 0;
#X connect 1 0 2 0;
#X connect 1 0 3 0;
#X connect 2 0 0 0;
#X connect 3 0 0 0;
#X connect 4 0 0 0;
#X connect 5 0 0 0;
#X restore -58 413 pd pitch-assignments;
#N canvas 660 142 791 568 freeze-assignments 0;
#X obj 429 97 sel 0;
#X msg 461 125 switch 0;
#X msg 462 151 switch 1;
#X obj 429 69 route switch;
#X obj 85 239 outlet;
#X obj 16 -61 r initialize;
#X msg 16 -6 blend 0;
#X msg 89 -7 speed 0;
#X msg 160 -7 switch 1;
#X obj 429 41 nano-memory-encoder switch 5 53 69 1;
#X obj 166 66 nano-memory-encoder blend 18 34 66 0;
#X obj 166 94 nano-memory-encoder speed 19 35 67 0;
#X connect 0 0 2 0;
#X connect 0 1 1 0;
#X connect 1 0 4 0;
#X connect 2 0 4 0;
#X connect 3 0 0 0;
#X connect 5 0 7 0;
#X connect 5 0 6 0;
#X connect 5 0 8 0;
#X connect 6 0 4 0;
#X connect 7 0 4 0;
#X connect 8 0 4 0;
#X connect 9 0 3 0;
#X connect 10 0 4 0;
#X connect 11 0 4 0;
#X restore -68 292 pd freeze-assignments;
#N canvas 529 386 781 498 looper-assignments 0;
#X obj 37 72 sel 127;
#X obj 38 96 tgl 19 0 empty empty empty 0 -10 0 12 #fcfcfc #000000 #000000 0 1;
#X msg 38 172 monitor \$1;
#X obj 128 71 sel 127;
#X obj 129 95 tgl 19 0 empty empty empty 0 -10 0 12 #fcfcfc #000000 #000000 0 1;
#X obj 128 46 ctlin 45 1;
#X msg 129 171 rec \$1;
#X obj 222 47 ctlin 42 1;
#X obj 223 96 bng 19 250 50 0 empty empty empty 0 -10 0 12 #fcfcfc #000000 #000000;
#X obj 310 96 bng 19 250 50 0 empty empty empty 0 -10 0 12 #fcfcfc #000000 #000000;
#X obj 309 47 ctlin 41 1;
#X obj 202 133 nano-led 42;
#X obj 290 132 nano-led 41;
#X obj 107 132 nano-led 45;
#X obj 221 71 sel 127;
#X obj 312 70 sel 127;
#X obj 403 96 bng 19 250 50 0 empty empty empty 0 -10 0 12 #fcfcfc #000000 #000000;
#X obj 490 96 bng 19 250 50 0 empty empty empty 0 -10 0 12 #fcfcfc #000000 #000000;
#X obj 401 71 sel 127;
#X obj 492 70 sel 127;
#X obj 403 170 s SAVE;
#X msg 310 172 play \$1;
#X msg 223 172 stop \$1;
#X msg 490 172 clear \$1;
#X obj 489 47 ctlin 43 1;
#X obj 470 132 nano-led 43;
#X obj 402 47 ctlin 46 1;
#X obj 382 133 nano-led 46;
#X obj 37 47 ctlin 44 1;
#X obj 17 132 nano-led 44;
#X obj 305 321 outlet;
#X obj 105 413 tgl 19 0 empty empty empty 0 -10 0 12 #fcfcfc #000000 #000000 0 1;
#X obj 104 387 metro 500;
#X obj 103 361 tgl 19 0 empty empty empty 0 -10 0 12 #fcfcfc #000000 #000000 0 1;
#X obj 58 388 sel 0;
#X msg 103 327 1;
#X msg 141 328 0;
#X obj 105 441 nano-led 41;
#X obj 102 293 sel 0;
#X connect 0 0 1 0;
#X connect 1 0 2 0;
#X connect 1 0 29 0;
#X connect 2 0 30 0;
#X connect 3 0 4 0;
#X connect 4 0 6 0;
#X connect 4 0 13 0;
#X connect 4 0 38 0;
#X connect 5 0 3 0;
#X connect 6 0 30 0;
#X connect 7 0 11 0;
#X connect 7 0 14 0;
#X connect 8 0 22 0;
#X connect 8 0 36 0;
#X connect 9 0 21 0;
#X connect 9 0 35 0;
#X connect 10 0 12 0;
#X connect 10 0 15 0;
#X connect 14 0 8 0;
#X connect 15 0 9 0;
#X connect 16 0 20 0;
#X connect 17 0 23 0;
#X connect 17 0 36 0;
#X connect 18 0 16 0;
#X connect 19 0 17 0;
#X connect 21 0 30 0;
#X connect 22 0 30 0;
#X connect 23 0 30 0;
#X connect 24 0 19 0;
#X connect 24 0 25 0;
#X connect 26 0 18 0;
#X connect 26 0 27 0;
#X connect 28 0 0 0;
#X connect 31 0 37 0;
#X connect 32 0 31 0;
#X connect 33 0 32 0;
#X connect 33 0 34 0;
#X connect 34 0 31 0;
#X connect 35 0 33 0;
#X connect 36 0 33 0;
#X connect 36 0 31 0;
#X connect 38 0 35 0;
#X connect 38 1 36 0;
#X restore 243 51 pd looper-assignments;
#N canvas 150 175 450 300 reverb-assignments 0;
#X obj 24 185 outlet;
#X obj 14 -24 r initialize;
#X msg -10 22 wet 0;
#X msg 51 22 size 0;
#X obj 95 57 nano-memory-encoder wet 0 48 64 0;
#X obj 95 85 nano-memory-encoder size 1 49 65 0;
#X connect 1 0 2 0;
#X connect 1 0 3 0;
#X connect 2 0 0 0;
#X connect 3 0 0 0;
#X connect 4 0 0 0;
#X connect 5 0 0 0;
#X restore 383 339 pd reverb-assignments;
#N canvas 482 163 450 300 metal-assignment 0;
#X obj 50 72 sel 0;
#X obj 50 44 route toggle;
#X msg 82 100 toggle 1;
#X msg 83 126 toggle 0;
#X obj 17 190 outlet;
#X obj 223 121 r initialize;
#X msg 223 148 toggle 0;
#X obj 50 17 nano-memory-encoder toggle 4 52 68 0;
#X connect 0 0 3 0;
#X connect 0 1 2 0;
#X connect 1 0 0 0;
#X connect 2 0 4 0;
#X connect 3 0 4 0;
#X connect 5 0 6 0;
#X connect 6 0 4 0;
#X connect 7 0 1 0;
#X restore -55 538 pd metal-assignment;
#N canvas 466 105 589 399 eq3-assignments 0;
#X obj 30 183 outlet;
#X obj -16 -93 r initialize;
#X msg -123 -15 low 0.5;
#X msg -57 -15 mid 0.5;
#X msg 9 -15 high 0.5;
#X msg 90 -15 gain 0.5;
#X obj 95 56 nano-memory-encoder low 20 36 68 66;
#X obj 95 85 nano-memory-encoder mid 21 37 69 66;
#X obj 95 116 nano-memory-encoder high 22 38 70 66;
#X obj 95 145 nano-memory-encoder gain 6 54 70 66;
#X connect 1 0 2 0;
#X connect 1 0 3 0;
#X connect 1 0 4 0;
#X connect 1 0 5 0;
#X connect 2 0 0 0;
#X connect 3 0 0 0;
#X connect 4 0 0 0;
#X connect 5 0 0 0;
#X connect 6 0 0 0;
#X connect 7 0 0 0;
#X connect 8 0 0 0;
#X connect 9 0 0 0;
#X restore 306 75 pd eq3-assignments;
#X obj 250 479 cosine-pan~;
#N canvas 349 218 450 300 pan-assignment 0;
#X obj 10 99 outlet;
#X obj -6 -22 r initialize;
#X msg -6 13 position 0.5;
#X obj 70 47 nano-memory-encoder position 23 39 71 66;
#X connect 1 0 2 0;
#X connect 2 0 0 0;
#X connect 3 0 0 0;
#X restore 407 461 pd pan-assignment;
#N canvas 266 291 450 300 volume-assignment 0;
#X obj 34 163 outlet;
#X msg 121 92 volume 0.5;
#X obj 68 28 nano-memory-encoder volume 7 55 71 66;
#X obj 121 67 r initialize;
#X connect 1 0 0 0;
#X connect 2 0 0 0;
#X connect 3 0 1 0;
#X restore 418 520 pd volume-assignment;
#N canvas 471 160 940 688 navigation 0;
#X msg 248 85 1;
#X msg 327 82 -1;
#X obj 294 125 +;
#X obj 359 131 int;
#X floatatom 355 179 5 0 0 0 - - - 0;
#X obj 353 376 outlet;
#X floatatom 116 317 5 0 0 0 - - - 0;
#X obj 116 235 bng 15 250 50 0 empty empty empty 17 7 0 10 #fcfcfc #000000 #000000;
#X obj 152 271 + 1;
#X obj 116 270 int;
#X obj 173 391 file-exists;
#X obj 38 235 loadbang;
#X obj 173 414 sel 0;
#X msg 38 255 1;
#X obj 31 367 s \$0-initial-bank;
#X obj 359 108 r \$0-initial-bank;
#X obj 200 440 delay 100;
#X obj 103 128 bng 15 250 50 0 empty empty + 17 7 0 10 #fcfcfc #000000 #000000;
#X obj 132 128 bng 15 250 50 0 empty empty - 17 7 0 10 #fcfcfc #000000 #000000;
#X floatatom 159 127 5 0 0 0 - - - 0;
#X obj 365 212 sel 0;
#X msg 473 163 1;
#X msg 437 164 100;
#X obj 438 213 sel 101;
#X obj 438 236 delay 100;
#X obj 365 236 delay 100;
#X msg 173 367 ../audio/\$1.wav;
#X obj 248 39 midi-button 59 1;
#X obj 327 59 midi-button 58 1;
#X obj 352 344 l2s;
#X connect 0 0 2 0;
#X connect 1 0 2 0;
#X connect 2 0 3 0;
#X connect 3 0 2 1;
#X connect 3 0 4 0;
#X connect 4 0 19 0;
#X connect 4 0 20 0;
#X connect 4 0 23 0;
#X connect 4 0 29 0;
#X connect 6 0 26 0;
#X connect 6 0 14 0;
#X connect 7 0 9 0;
#X connect 8 0 9 1;
#X connect 9 0 6 0;
#X connect 9 0 8 0;
#X connect 10 0 12 0;
#X connect 11 0 13 0;
#X connect 12 1 16 0;
#X connect 13 0 9 0;
#X connect 15 0 3 0;
#X connect 16 0 7 0;
#X connect 17 0 0 0;
#X connect 18 0 1 0;
#X connect 20 0 25 0;
#X connect 21 0 3 0;
#X connect 22 0 3 0;
#X connect 23 0 24 0;
#X connect 24 0 21 0;
#X connect 25 0 22 0;
#X connect 26 0 10 0;
#X connect 27 0 0 0;
#X connect 28 0 1 0;
#X connect 29 0 5 0;
#X coords 0 -1 1 1 100 50 1 100 100;
#X restore 116 131 pd navigation;
#X msg 223 26 track-number \$1;
#N canvas 63 88 925 613 initialize 0;
#X obj 103 103 bng 19 250 50 0 empty empty empty 0 -10 0 12 #fcfcfc #000000 #000000;
#X obj 318 248 s initialize;
#X obj 103 69 midi-button 60 1;
#X obj 130 273 tgl 19 0 empty empty empty 0 -10 0 12 #fcfcfc #000000 #000000 0 1;
#X obj 128 221 tgl 19 0 empty empty empty 0 -10 0 12 #fcfcfc #000000 #000000 0 1;
#X obj 83 248 sel 0;
#X obj 130 301 nano-led 64;
#X obj 220 301 nano-led 65;
#X obj 310 301 nano-led 66;
#X obj 400 301 nano-led 67;
#X obj 490 301 nano-led 68;
#X obj 580 301 nano-led 69;
#X obj 670 301 nano-led 70;
#X obj 760 301 nano-led 71;
#X msg 153 221 0;
#X obj 129 247 metro 50;
#X obj 127 188 delay 500;
#X obj 369 192 s clear-automation;
#X obj 432 167 s pause-automation;
#X msg 433 141 0;
#X obj 318 122 t b b b;
#X obj 318 218 delay 500;
#X connect 0 0 4 0;
#X connect 0 0 16 0;
#X connect 0 0 20 0;
#X connect 2 0 0 0;
#X connect 3 0 6 0;
#X connect 3 0 7 0;
#X connect 3 0 8 0;
#X connect 3 0 9 0;
#X connect 3 0 10 0;
#X connect 3 0 11 0;
#X connect 3 0 12 0;
#X connect 3 0 13 0;
#X connect 4 0 5 0;
#X connect 4 0 15 0;
#X connect 5 0 3 0;
#X connect 14 0 3 0;
#X connect 15 0 3 0;
#X connect 16 0 4 0;
#X connect 16 0 14 0;
#X connect 19 0 18 0;
#X connect 20 0 21 0;
#X connect 20 1 17 0;
#X connect 20 2 19 0;
#X connect 21 0 1 0;
#X coords 0 -1 1 1 100 25 1 100 100;
#X restore 522 183 pd initialize;
#N canvas 511 204 1119 749 pause-automation 0;
#X obj 102 103 tgl 19 0 empty empty empty 0 -10 0 12 #fcfcfc #000000 #000000 0 1;
#X obj 111 139 s pause-automation;
#X obj 102 -14 ctlin 61 1;
#X obj 102 55 midi-pad-to-toggle;
#X obj 102 10 sel 127;
#X msg 102 31 1;
#X msg 140 34 0;
#X obj 105 304 tgl 19 0 empty empty empty 0 -10 0 12 #fcfcfc #000000 #000000 0 1;
#X obj 104 278 metro 500;
#X obj 103 252 tgl 19 0 empty empty empty 0 -10 0 12 #fcfcfc #000000 #000000 0 1;
#X obj 58 279 sel 0;
#X msg 103 218 1;
#X msg 141 219 0;
#X obj 102 184 sel 1;
#X obj 105 332 nano-led 64;
#X obj 195 332 nano-led 65;
#X obj 285 332 nano-led 66;
#X obj 375 332 nano-led 67;
#X obj 465 332 nano-led 68;
#X obj 555 332 nano-led 69;
#X obj 645 332 nano-led 70;
#X obj 735 332 nano-led 71;
#X obj 249 95 r clear-automation;
#X msg 249 120 0;
#X connect 0 0 13 0;
#X connect 0 0 1 0;
#X connect 2 0 4 0;
#X connect 3 0 0 0;
#X connect 4 0 5 0;
#X connect 4 1 6 0;
#X connect 5 0 3 0;
#X connect 6 0 3 0;
#X connect 7 0 14 0;
#X connect 7 0 15 0;
#X connect 7 0 16 0;
#X connect 7 0 17 0;
#X connect 7 0 18 0;
#X connect 7 0 19 0;
#X connect 7 0 20 0;
#X connect 7 0 21 0;
#X connect 8 0 7 0;
#X connect 9 0 8 0;
#X connect 9 0 10 0;
#X connect 10 0 7 0;
#X connect 11 0 9 0;
#X connect 12 0 9 0;
#X connect 12 0 7 0;
#X connect 13 0 11 0;
#X connect 13 1 12 0;
#X connect 22 0 23 0;
#X connect 23 0 0 0;
#X coords 0 -1 1 1 100 25 1 100 100;
#X restore 523 213 pd pause-automation;
#N canvas 40 25 450 300 clear-automation 0;
#X obj 102 103 bng 19 250 50 0 empty empty empty 0 -10 0 12 #fcfcfc #000000 #000000;
#X obj 102 139 s clear-automation;
#X obj 102 64 midi-button 62 1;
#X connect 0 0 1 0;
#X connect 2 0 0 0;
#X coords 0 -1 1 1 100 25 1 100 100;
#X restore 523 242 pd clear-automation;
#X obj 522 119 midi-observer;
#X obj 575 4 loadbang-dsp;
#X obj 575 32 s initialize;
#X obj -58 185 s navigation;
#X obj 223 -3 r navigation;
#X obj 110 606 s~ audio-route;
#X obj 370 102 r~ audio-route;
#N canvas 63 88 1005 525 blink 0;
#X obj 103 103 bng 19 250 50 0 empty empty empty 0 -10 0 12 #fcfcfc #000000 #000000;
#X obj 130 273 tgl 19 0 empty empty empty 0 -10 0 12 #fcfcfc #000000 #000000 0 1;
#X obj 128 221 tgl 19 0 empty empty empty 0 -10 0 12 #fcfcfc #000000 #000000 0 1;
#X obj 83 248 sel 0;
#X obj 130 301 nano-led 64;
#X obj 220 301 nano-led 65;
#X obj 310 301 nano-led 66;
#X obj 400 301 nano-led 67;
#X obj 490 301 nano-led 68;
#X obj 580 301 nano-led 69;
#X obj 670 301 nano-led 70;
#X obj 760 301 nano-led 71;
#X msg 153 221 0;
#X obj 103 62 inlet;
#X obj 129 247 metro 500;
#X obj 127 188 delay 5000;
#X connect 0 0 2 0;
#X connect 0 0 15 0;
#X connect 1 0 4 0;
#X connect 1 0 5 0;
#X connect 1 0 6 0;
#X connect 1 0 7 0;
#X connect 1 0 8 0;
#X connect 1 0 9 0;
#X connect 1 0 10 0;
#X connect 1 0 11 0;
#X connect 2 0 3 0;
#X connect 2 0 14 0;
#X connect 3 0 1 0;
#X connect 12 0 1 0;
#X connect 13 0 0 0;
#X connect 14 0 1 0;
#X connect 15 0 2 0;
#X connect 15 0 12 0;
#X restore -54 31 pd blink;
#X obj -54 6 loadbang;
#X connect 0 0 8 0;
#X connect 1 0 0 0;
#X connect 1 1 0 0;
#X connect 3 0 4 0;
#X connect 3 1 4 0;
#X connect 4 0 5 0;
#X connect 5 0 16 0;
#X connect 6 0 7 0;
#X connect 7 0 29 0;
#X connect 8 0 6 0;
#X connect 9 0 4 1;
#X connect 10 0 6 1;
#X connect 11 0 8 1;
#X connect 12 0 0 1;
#X connect 13 0 5 1;
#X connect 14 0 7 1;
#X connect 15 0 3 1;
#X connect 16 0 2 0;
#X connect 16 1 2 2;
#X connect 17 0 16 1;
#X connect 18 0 2 1;
#X connect 19 0 27 0;
#X connect 20 0 0 1;
#X connect 25 0 26 0;
#X connect 28 0 20 0;
#X connect 30 0 3 2;
#X connect 30 0 3 0;
#X connect 32 0 31 0;
#X coords 0 -1 1 1 600 600 2 100 100;
#X restore 5 3 pd nanokontrol;
#X text 411 557 Pure Data is FREE SOFTWARE;
#X text 250 580 download this patch at: github.com/biscuitvile/pd;
