#N canvas 2 153 450 300 10;
#X obj 90 130 osc~;
#X obj 52 30 loadbang;
#X msg 51 94 50;
#X obj 51 6 loadbang-dsp;
#X obj 93 88 midi-encoder;
#X msg 97 66 0;
#X obj 96 109 hsl 128 15 0 127 0 0 empty empty empty -2 -8 0 10 -262144
-1 -1 3700 1;
#X msg 174 67 1;
#X obj 75 233 channel-out~;
#X obj 248 139 loadbang;
#X msg 248 175 50;
#X obj 289 197 midi-encoder;
#X obj 292 218 hsl 128 15 0 127 0 0 empty empty empty -2 -8 0 10 -262144
-1 -1 11000 1;
#X msg 370 176 1;
#X msg 293 175 1;
#X connect 0 0 8 4;
#X connect 0 0 8 0;
#X connect 1 0 2 0;
#X connect 1 0 5 0;
#X connect 1 0 7 0;
#X connect 2 0 0 0;
#X connect 4 0 6 0;
#X connect 5 0 4 0;
#X connect 6 0 0 0;
#X connect 7 0 4 1;
#X connect 9 0 10 0;
#X connect 9 0 14 0;
#X connect 9 0 13 0;
#X connect 10 0 8 2;
#X connect 11 0 12 0;
#X connect 11 0 8 2;
#X connect 13 0 11 1;
#X connect 14 0 11 0;
