#N canvas 676 110 1285 679 10;
#X obj 257 417 osc~;
#X obj 219 317 loadbang;
#X msg 218 381 50;
#X obj 218 293 loadbang-dsp;
#X obj 260 375 midi-encoder;
#X msg 264 353 0;
#X obj 263 396 hsl 128 15 0 127 0 0 empty empty empty -2 -8 0 10 -262144
-1 -1 4000 1;
#X msg 341 354 1;
#X obj 254 678 channel-out~;
#X obj 577 622 loadbang;
#X msg 577 658 50;
#X obj 618 680 midi-encoder;
#X obj 621 701 hsl 128 15 0 127 0 0 empty empty empty -2 -8 0 10 -262144
-1 -1 11000 1;
#X msg 699 659 1;
#X msg 622 658 1;
#X obj 442 148 adc~;
#X obj 443 553 cosine-pan~;
#X obj 584 486 loadbang;
#X obj 578 538 midi-encoder;
#X obj 581 559 hsl 128 15 0 127 0 0 empty empty empty -2 -8 0 10 -262144
-1 -1 6100 1;
#X msg 648 518 1;
#X msg 582 516 2;
#X obj 443 423 reverb~;
#X obj 660 357 loadbang;
#X obj 652 406 midi-encoder;
#X msg 722 386 1;
#X msg 656 384 3;
#X obj 770 358 loadbang;
#X obj 758 406 midi-encoder;
#X msg 828 386 1;
#X msg 762 384 4;
#X obj 584 381 loadbang;
#X msg 585 405 127;
#X obj 601 224 loadbang;
#X obj 577 274 midi-encoder;
#X msg 647 254 1;
#X obj 703 211 loadbang;
#X obj 683 273 midi-encoder;
#X msg 750 246 1;
#X obj 795 221 loadbang;
#X obj 777 273 midi-encoder;
#X msg 846 249 1;
#X msg 581 252 5;
#X msg 781 251 7;
#X msg 684 244 6;
#X obj 442 290 audio-delay~ 4000;
#X obj 442 174 looper-new~;
#X obj 635 106 loadbang;
#X msg 636 135 8;
#X obj 635 157 midi-toggle;
#X msg 699 137 2;
#X obj 754 108 loadbang;
#X obj 754 159 midi-toggle;
#X msg 799 137 2;
#X msg 755 137 10;
#X connect 0 0 8 0;
#X connect 0 0 8 4;
#X connect 1 0 2 0;
#X connect 1 0 5 0;
#X connect 1 0 7 0;
#X connect 2 0 0 0;
#X connect 4 0 6 0;
#X connect 5 0 4 0;
#X connect 6 0 0 0;
#X connect 7 0 4 1;
#X connect 9 0 10 0;
#X connect 9 0 14 0;
#X connect 9 0 13 0;
#X connect 10 0 8 2;
#X connect 11 0 12 0;
#X connect 11 0 8 2;
#X connect 13 0 11 1;
#X connect 14 0 11 0;
#X connect 15 0 46 0;
#X connect 16 0 8 0;
#X connect 16 1 8 4;
#X connect 17 0 21 0;
#X connect 17 0 20 0;
#X connect 18 0 19 0;
#X connect 18 0 16 1;
#X connect 20 0 18 1;
#X connect 21 0 18 0;
#X connect 22 0 16 0;
#X connect 23 0 26 0;
#X connect 23 0 25 0;
#X connect 24 0 22 2;
#X connect 25 0 24 1;
#X connect 26 0 24 0;
#X connect 27 0 30 0;
#X connect 27 0 29 0;
#X connect 28 0 22 3;
#X connect 29 0 28 1;
#X connect 30 0 28 0;
#X connect 31 0 32 0;
#X connect 32 0 22 1;
#X connect 33 0 42 0;
#X connect 33 0 35 0;
#X connect 34 0 45 1;
#X connect 35 0 34 1;
#X connect 36 0 44 0;
#X connect 36 0 38 0;
#X connect 37 0 45 2;
#X connect 38 0 37 1;
#X connect 39 0 43 0;
#X connect 39 0 41 0;
#X connect 40 0 45 3;
#X connect 41 0 40 1;
#X connect 42 0 34 0;
#X connect 43 0 40 0;
#X connect 44 0 37 0;
#X connect 45 0 22 0;
#X connect 46 0 45 0;
#X connect 47 0 48 0;
#X connect 47 0 50 0;
#X connect 48 0 49 0;
#X connect 49 0 46 1;
#X connect 50 0 49 1;
#X connect 51 0 54 0;
#X connect 51 0 53 0;
#X connect 52 0 46 5;
#X connect 53 0 52 1;
#X connect 54 0 52 0;
