#N canvas 635 763 769 508 10;
#X obj 215 159 osc~;
#X obj 177 59 loadbang;
#X msg 176 123 50;
#X obj 176 35 loadbang-dsp;
#X obj 218 117 midi-encoder;
#X msg 222 95 0;
#X obj 221 138 hsl 128 15 0 127 0 0 empty empty empty -2 -8 0 10 -262144
-1 -1 0 1;
#X msg 299 96 1;
#X obj 212 420 channel-out~;
#X obj 535 364 loadbang;
#X msg 535 400 50;
#X obj 576 422 midi-encoder;
#X obj 579 443 hsl 128 15 0 127 0 0 empty empty empty -2 -8 0 10 -262144
-1 -1 0 1;
#X msg 657 401 1;
#X msg 580 400 1;
#X obj 433 72 adc~;
#X obj 433 125 cosine-pan~;
#X obj 506 22 loadbang;
#X msg 506 58 50;
#X obj 547 80 midi-encoder;
#X obj 550 101 hsl 128 15 0 127 0 0 empty empty empty -2 -8 0 10 -262144
-1 -1 0 1;
#X msg 616 57 1;
#X msg 551 58 2;
#X connect 0 0 8 0;
#X connect 0 0 8 4;
#X connect 1 0 2 0;
#X connect 1 0 5 0;
#X connect 1 0 7 0;
#X connect 2 0 0 0;
#X connect 4 0 6 0;
#X connect 5 0 4 0;
#X connect 6 0 0 0;
#X connect 7 0 4 1;
#X connect 9 0 10 0;
#X connect 9 0 14 0;
#X connect 9 0 13 0;
#X connect 10 0 8 2;
#X connect 11 0 12 0;
#X connect 11 0 8 2;
#X connect 13 0 11 1;
#X connect 14 0 11 0;
#X connect 15 0 16 0;
#X connect 16 0 8 0;
#X connect 16 1 8 4;
#X connect 17 0 18 0;
#X connect 17 0 22 0;
#X connect 17 0 21 0;
#X connect 19 0 20 0;
#X connect 19 0 16 1;
#X connect 21 0 19 1;
#X connect 22 0 19 0;
