#N canvas 0 22 1436 803 10;
#X obj -89 -576 loadbang-dsp;
#X obj -89 -535 s defaults;
#X obj -89 -474 sel 127;
#X obj -52 -303 sel 127;
#X obj -89 -555 s initialize;
#X obj -8 -550 bng 15 250 50 0 empty empty empty 17 7 0 10 -262144
-1 -1;
#X obj 106 -474 midi-toggle 8 4;
#X obj 8 -474 midi-toggle 9 4;
#N canvas 0 22 1436 803 track-1 0;
#X obj 110 1026 channel-out~;
#X obj 110 884 cosine-pan~;
#X obj 110 769 reverb~;
#X obj 734 974 r defaults;
#X obj 194 -70 midi-toggle 1 2;
#X obj 141 -133 midi-toggle 0 2;
#X obj 110 129 looper-new~;
#X obj 110 651 audio-delay~ 4000;
#X obj 110 246 freeze~;
#X obj 110 535 eq3~;
#X obj 489 829 r defaults;
#X obj 520 716 r defaults;
#X obj 579 481 r defaults;
#X obj 592 192 r defaults;
#X obj 456 308 r defaults;
#X obj 228 15 r defaults;
#X obj 217 -25 midi-button 8 2;
#X obj 159 -112 midi-button 4 2;
#X obj 181 -91 midi-button 5 2;
#X obj 217 -49 midi-button 12 2;
#X msg 262 611 feedback 5 \, wet 1 \, length 4 \, channel 1;
#X msg 286 498 low 10 \, mid 11 \, high 14 \, gain 15 \, channel 1
;
#X obj 286 518 eq3-control track-1-eq;
#X obj 262 632 audio-delay-control track-1-delay;
#X obj 264 752 reverb-control track-1-reverb;
#X msg 264 729 wet 8 \, size 9 \, channel 1;
#X obj 290 867 cosine-pan-control track-1-pan;
#X msg 290 846 position 12 \, channel 1;
#X msg 528 990 volume 13 \, channel 1;
#X obj 528 1011 channel-out-control track-1-out;
#X msg 275 192 blend 2 \, speed 3 \, purity 6 \, switch 3 \, phaselock
6 \, encoder-channel 1 \, toggle-channel 2;
#X obj 275 229 freeze-control track-1-freeze;
#X obj 283 345 metal-control track-1-metal;
#X msg 283 324 toggle 9 \, channel 2;
#X msg 456 328 toggle 0;
#X obj 283 303 r initialize;
#X obj 286 477 r initialize;
#X obj 262 586 r initialize;
#X obj 264 708 r initialize;
#X obj 290 825 r initialize;
#X obj 528 969 r initialize;
#X obj 275 161 r initialize;
#X obj 540 595 r defaults;
#X msg 489 850 position 0.5;
#X msg 734 994 volume 0.5;
#X msg 540 615 wet 0 \, length 0 \, feedback 0;
#X msg 579 501 low 0.5 \, mid 0.5 \, high 0.5 \, gain 0.5;
#X msg 520 736 wet 0 \, size 0;
#X obj 110 362 metal~;
#X obj 110 408 pitch-shifter~;
#X obj 542 388 pitch-shifter-control track-1-pitch-shift;
#X obj 542 325 r initialize;
#X obj 916 351 r defaults;
#X msg 916 371 fine 0 \, coarse 1 \, width 0;
#X msg 542 346 fine 0 \, coarse 7 \, width 7 \, toggle 7 \, encoder-channel
1 \, toggle-channel 2;
#X obj 590 -90 inlet file-prefix;
#X msg 590 -65 symbol \$1-1;
#X msg 592 212 switch 0 \, blend 0 \, purity 0 \, phaselock 0 \, speed
0;
#X msg 228 35 0;
#X obj 110 1123 s~ track-1-left;
#X obj 223 1122 s~ track-1-right;
#X obj 354 -43 ctlout 4 3;
#X obj 353 -124 sel 1;
#X msg 353 -74 12;
#X msg 385 -74 0;
#X obj 424 -43 ctlout 4 2;
#X msg 425 -74 127;
#X obj 353 -97 t b b;
#X obj 277 924 / 127;
#X obj 277 903 midi-toggle 10 2;
#X obj 387 924 / 127;
#X obj 387 903 midi-toggle 11 2;
#X obj 110 940 file-recorder~;
#X obj 94 -133 adc~ 2;
#X connect 0 0 59 0;
#X connect 0 1 60 0;
#X connect 1 0 0 0;
#X connect 1 0 72 0;
#X connect 1 1 0 2;
#X connect 1 1 72 3;
#X connect 2 0 1 0;
#X connect 3 0 44 0;
#X connect 4 0 6 4;
#X connect 5 0 6 1;
#X connect 6 0 8 0;
#X connect 6 1 62 0;
#X connect 7 0 2 0;
#X connect 8 0 48 0;
#X connect 9 0 7 0;
#X connect 10 0 43 0;
#X connect 11 0 47 0;
#X connect 12 0 46 0;
#X connect 13 0 57 0;
#X connect 14 0 34 0;
#X connect 15 0 58 0;
#X connect 16 0 6 6;
#X connect 17 0 6 2;
#X connect 18 0 6 3;
#X connect 19 0 6 5;
#X connect 20 0 23 0;
#X connect 21 0 22 0;
#X connect 22 0 9 1;
#X connect 23 0 7 1;
#X connect 24 0 2 1;
#X connect 25 0 24 0;
#X connect 26 0 1 1;
#X connect 27 0 26 0;
#X connect 28 0 29 0;
#X connect 29 0 0 1;
#X connect 30 0 31 0;
#X connect 31 0 8 1;
#X connect 32 0 48 1;
#X connect 33 0 32 0;
#X connect 34 0 32 1;
#X connect 35 0 33 0;
#X connect 36 0 21 0;
#X connect 37 0 20 0;
#X connect 38 0 25 0;
#X connect 39 0 27 0;
#X connect 40 0 28 0;
#X connect 41 0 30 0;
#X connect 42 0 45 0;
#X connect 43 0 26 1;
#X connect 44 0 29 1;
#X connect 45 0 23 1;
#X connect 46 0 22 1;
#X connect 47 0 24 1;
#X connect 48 0 49 0;
#X connect 49 0 9 0;
#X connect 50 0 49 1;
#X connect 51 0 54 0;
#X connect 52 0 53 0;
#X connect 53 0 50 1;
#X connect 54 0 50 0;
#X connect 55 0 56 0;
#X connect 56 0 6 7;
#X connect 57 0 31 1;
#X connect 58 0 6 4;
#X connect 62 0 67 0;
#X connect 62 1 64 0;
#X connect 63 0 61 0;
#X connect 64 0 65 0;
#X connect 66 0 65 0;
#X connect 67 0 63 0;
#X connect 67 1 66 0;
#X connect 68 0 72 1;
#X connect 69 0 68 0;
#X connect 70 0 72 2;
#X connect 71 0 70 0;
#X connect 72 0 0 0;
#X connect 72 1 0 2;
#X connect 73 0 6 0;
#X coords 0 -1 1 1 140 995 1 100 100;
#X restore 322 -328 pd track-1;
#N canvas 234 22 1430 803 track-2 0;
#X obj 110 1030 channel-out~;
#X obj 110 886 cosine-pan~;
#X obj 110 771 reverb~;
#X obj 804 976 r defaults;
#X obj 110 651 audio-delay~ 4000;
#X obj 110 533 eq3~;
#X obj 479 831 r defaults;
#X obj 477 717 r defaults;
#X obj 569 479 r defaults;
#X obj 612 192 r defaults;
#X obj 446 307 r defaults;
#X obj 228 15 r defaults;
#X msg 446 327 toggle 0;
#X obj 273 302 r initialize;
#X obj 276 475 r initialize;
#X obj 277 592 r initialize;
#X obj 282 712 r initialize;
#X obj 280 827 r initialize;
#X obj 598 971 r initialize;
#X obj 265 161 r initialize;
#X obj 550 597 r defaults;
#X msg 479 852 position 0.5;
#X msg 804 996 volume 0.5;
#X msg 550 617 wet 0 \, length 0 \, feedback 0;
#X msg 569 499 low 0.5 \, mid 0.5 \, high 0.5 \, gain 0.5;
#X msg 477 737 wet 0 \, size 0;
#X obj 136 -133 midi-toggle 16 2;
#X obj 159 -112 midi-button 20 2;
#X obj 181 -91 midi-button 21 2;
#X obj 194 -70 midi-toggle 17 2;
#X obj 217 -49 midi-button 28 2;
#X obj 217 -25 midi-button 24 2;
#X msg 273 323 toggle 25 \, channel 2;
#X msg 276 496 low 26 \, mid 27 \, high 30 \, gain 31 \, channel 1
;
#X msg 265 192 blend 18 \, speed 19 \, purity 22 \, switch 19 \, phaselock
22 \, encoder-channel 1 \, toggle-channel 2;
#X msg 277 613 feedback 21 \, wet 17 \, length 20 \, channel 1;
#X msg 282 733 wet 24 \, size 25 \, channel 1;
#X msg 280 848 position 28 \, channel 1;
#X msg 598 992 volume 29 \, channel 1;
#X obj 265 229 freeze-control track-2-freeze;
#X obj 273 344 metal-control track-2-metal;
#X obj 276 516 eq3-control track-2-eq;
#X obj 277 634 audio-delay-control track-2-delay;
#X obj 282 754 reverb-control track-2-reverb;
#X obj 280 869 cosine-pan-control track-2-pan;
#X obj 598 1013 channel-out-control track-2-out;
#X obj 534 327 r initialize;
#X obj 908 353 r defaults;
#X msg 908 373 fine 0 \, coarse 1 \, width 0;
#X obj 110 407 pitch-shifter~;
#X obj 534 390 pitch-shifter-control track-2-pitch-shift;
#X msg 534 348 fine 16 \, coarse 23 \, width 23 \, toggle 23 \, encoder-channel
1 \, toggle-channel 2;
#X msg 228 35 0;
#X obj 110 361 metal~;
#X obj 528 -43 inlet file-prefix;
#X msg 528 -18 symbol \$1-2;
#X msg 612 212 switch 0 \, blend 0 \, purity 0 \, phaselock 0 \, speed
0;
#X obj 110 1125 s~ track-2-left;
#X obj 223 1124 s~ track-2-right;
#X obj 353 -124 sel 1;
#X msg 353 -74 12;
#X msg 385 -74 0;
#X obj 353 -97 t b b;
#X obj 354 -43 ctlout 20 3;
#X obj 431 -43 ctlout 20 2;
#X msg 432 -74 87;
#X obj 110 246 freeze~;
#X obj 110 129 looper-new~;
#X obj 277 924 / 127;
#X obj 387 924 / 127;
#X obj 277 903 midi-toggle 26 2;
#X obj 387 903 midi-toggle 27 2;
#X obj 110 940 file-recorder~;
#X obj 93 -133 adc~ 2;
#X connect 0 0 57 0;
#X connect 0 1 58 0;
#X connect 1 0 0 0;
#X connect 1 0 72 0;
#X connect 1 1 0 2;
#X connect 1 1 72 3;
#X connect 2 0 1 0;
#X connect 3 0 22 0;
#X connect 4 0 2 0;
#X connect 5 0 4 0;
#X connect 6 0 21 0;
#X connect 7 0 25 0;
#X connect 8 0 24 0;
#X connect 9 0 56 0;
#X connect 10 0 12 0;
#X connect 11 0 52 0;
#X connect 12 0 40 1;
#X connect 13 0 32 0;
#X connect 14 0 33 0;
#X connect 15 0 35 0;
#X connect 16 0 36 0;
#X connect 17 0 37 0;
#X connect 18 0 38 0;
#X connect 19 0 34 0;
#X connect 20 0 23 0;
#X connect 21 0 44 1;
#X connect 22 0 45 1;
#X connect 23 0 42 1;
#X connect 24 0 41 1;
#X connect 25 0 43 1;
#X connect 26 0 67 1;
#X connect 27 0 67 2;
#X connect 28 0 67 3;
#X connect 29 0 67 4;
#X connect 30 0 67 5;
#X connect 31 0 67 6;
#X connect 32 0 40 0;
#X connect 33 0 41 0;
#X connect 34 0 39 0;
#X connect 35 0 42 0;
#X connect 36 0 43 0;
#X connect 37 0 44 0;
#X connect 38 0 45 0;
#X connect 39 0 66 1;
#X connect 40 0 53 1;
#X connect 41 0 5 1;
#X connect 42 0 4 1;
#X connect 43 0 2 1;
#X connect 44 0 1 1;
#X connect 45 0 0 1;
#X connect 46 0 51 0;
#X connect 47 0 48 0;
#X connect 48 0 50 1;
#X connect 49 0 5 0;
#X connect 50 0 49 1;
#X connect 51 0 50 0;
#X connect 52 0 67 4;
#X connect 53 0 49 0;
#X connect 54 0 55 0;
#X connect 55 0 67 7;
#X connect 56 0 39 1;
#X connect 59 0 62 0;
#X connect 59 1 61 0;
#X connect 60 0 63 0;
#X connect 61 0 64 0;
#X connect 62 0 60 0;
#X connect 62 1 65 0;
#X connect 65 0 64 0;
#X connect 66 0 53 0;
#X connect 67 0 66 0;
#X connect 67 1 59 0;
#X connect 68 0 72 1;
#X connect 69 0 72 2;
#X connect 70 0 68 0;
#X connect 71 0 69 0;
#X connect 72 0 0 0;
#X connect 72 1 0 2;
#X connect 73 0 67 0;
#X coords 0 -1 1 1 140 995 1 100 100;
#X restore 465 -328 pd track-2;
#N canvas 0 22 1436 803 track-3 0;
#X obj 110 1025 channel-out~;
#X obj 110 885 cosine-pan~;
#X obj 110 770 reverb~;
#X obj 794 971 r defaults;
#X obj 110 650 audio-delay~ 4000;
#X obj 110 532 eq3~;
#X obj 479 830 r defaults;
#X obj 477 716 r defaults;
#X obj 569 478 r defaults;
#X obj 612 192 r defaults;
#X obj 446 307 r defaults;
#X obj 228 15 r defaults;
#X msg 446 327 toggle 0;
#X obj 273 302 r initialize;
#X obj 276 474 r initialize;
#X obj 277 591 r initialize;
#X obj 282 711 r initialize;
#X obj 280 826 r initialize;
#X obj 588 966 r initialize;
#X obj 265 161 r initialize;
#X obj 550 596 r defaults;
#X msg 479 851 position 0.5;
#X msg 794 991 volume 0.5;
#X msg 550 616 wet 0 \, length 0 \, feedback 0;
#X msg 569 498 low 0.5 \, mid 0.5 \, high 0.5 \, gain 0.5;
#X msg 477 736 wet 0 \, size 0;
#X obj 265 229 freeze-control track-3-freeze;
#X obj 273 344 metal-control track-3-metal;
#X obj 276 515 eq3-control track-3-eq;
#X obj 277 633 audio-delay-control track-3-delay;
#X obj 282 753 reverb-control track-3-reverb;
#X obj 280 868 cosine-pan-control track-3-pan;
#X obj 588 1008 channel-out-control track-3-out;
#X obj 142 -133 midi-toggle 32 2;
#X obj 165 -112 midi-button 36 2;
#X obj 187 -91 midi-button 37 2;
#X obj 217 -49 midi-button 44 2;
#X obj 217 -25 midi-button 40 2;
#X obj 194 -70 midi-toggle 33 2;
#X msg 265 192 blend 34 \, speed 35 \, purity 38 \, switch 35 \, phaselock
38 \, encoder-channel 1 \, toggle-channel 2;
#X msg 273 323 toggle 41 \, channel 2;
#X msg 276 495 low 42 \, mid 43 \, high 46 \, gain 47 \, channel 1
;
#X msg 277 612 feedback 37 \, wet 33 \, length 36 \, channel 1;
#X msg 282 732 wet 40 \, size 41 \, channel 1;
#X msg 280 847 position 44 \, channel 1;
#X msg 588 987 volume 45 \, channel 1;
#X obj 110 407 pitch-shifter~;
#X obj 534 327 r initialize;
#X obj 908 353 r defaults;
#X msg 908 373 fine 0 \, coarse 1 \, width 0;
#X obj 534 390 pitch-shifter-control track-3-pitch-shift;
#X msg 534 348 fine 32 \, coarse 39 \, width 39 \, toggle 39 \, encoder-channel
1 \, toggle-channel 2;
#X msg 228 35 0;
#X obj 110 361 metal~;
#X obj 580 -40 inlet file-prefix;
#X msg 580 -15 symbol \$1-3;
#X msg 612 212 switch 0 \, blend 0 \, purity 0 \, phaselock 0 \, speed
0;
#X obj 110 1120 s~ track-3-left;
#X obj 223 1119 s~ track-3-right;
#X obj 353 -124 sel 1;
#X msg 353 -74 12;
#X msg 385 -74 0;
#X obj 353 -97 t b b;
#X obj 354 -43 ctlout 36 3;
#X obj 431 -43 ctlout 36 2;
#X msg 432 -74 46;
#X obj 110 246 freeze~;
#X obj 110 129 looper-new~;
#X obj 277 924 / 127;
#X obj 387 924 / 127;
#X obj 277 903 midi-toggle 42 2;
#X obj 387 903 midi-toggle 43 2;
#X obj 110 940 file-recorder~;
#X obj 94 -133 adc~ 2;
#X connect 0 0 57 0;
#X connect 0 1 58 0;
#X connect 1 0 0 0;
#X connect 1 0 72 0;
#X connect 1 1 0 2;
#X connect 1 1 72 3;
#X connect 2 0 1 0;
#X connect 3 0 22 0;
#X connect 4 0 2 0;
#X connect 5 0 4 0;
#X connect 6 0 21 0;
#X connect 7 0 25 0;
#X connect 8 0 24 0;
#X connect 9 0 56 0;
#X connect 10 0 12 0;
#X connect 11 0 52 0;
#X connect 12 0 27 1;
#X connect 13 0 40 0;
#X connect 14 0 41 0;
#X connect 15 0 42 0;
#X connect 16 0 43 0;
#X connect 17 0 44 0;
#X connect 18 0 45 0;
#X connect 19 0 39 0;
#X connect 20 0 23 0;
#X connect 21 0 31 1;
#X connect 22 0 32 1;
#X connect 23 0 29 1;
#X connect 24 0 28 1;
#X connect 25 0 30 1;
#X connect 26 0 66 1;
#X connect 27 0 53 1;
#X connect 28 0 5 1;
#X connect 29 0 4 1;
#X connect 30 0 2 1;
#X connect 31 0 1 1;
#X connect 32 0 0 1;
#X connect 33 0 67 1;
#X connect 34 0 67 2;
#X connect 35 0 67 3;
#X connect 36 0 67 5;
#X connect 37 0 67 6;
#X connect 38 0 67 4;
#X connect 39 0 26 0;
#X connect 40 0 27 0;
#X connect 41 0 28 0;
#X connect 42 0 29 0;
#X connect 43 0 30 0;
#X connect 44 0 31 0;
#X connect 45 0 32 0;
#X connect 46 0 5 0;
#X connect 47 0 51 0;
#X connect 48 0 49 0;
#X connect 49 0 50 1;
#X connect 50 0 46 1;
#X connect 51 0 50 0;
#X connect 52 0 67 4;
#X connect 53 0 46 0;
#X connect 54 0 55 0;
#X connect 55 0 67 7;
#X connect 56 0 26 1;
#X connect 59 0 62 0;
#X connect 59 1 61 0;
#X connect 60 0 63 0;
#X connect 61 0 64 0;
#X connect 62 0 60 0;
#X connect 62 1 65 0;
#X connect 65 0 64 0;
#X connect 66 0 53 0;
#X connect 67 0 66 0;
#X connect 67 1 59 0;
#X connect 68 0 72 1;
#X connect 69 0 72 2;
#X connect 70 0 68 0;
#X connect 71 0 69 0;
#X connect 72 0 0 0;
#X connect 72 1 0 2;
#X connect 73 0 67 0;
#X coords 0 -1 1 1 140 995 1 100 100;
#X restore 610 -328 pd track-3;
#X obj 869 -524 midi-observer;
#N canvas 0 22 1436 804 memory-navigation 0;
#X obj 603 153 textfile;
#X msg 601 600 bang;
#X msg 638 647 rewind;
#X obj 503 541 f;
#X obj 534 543 + 1;
#X obj 578 543 sel 0;
#X obj 502 483 bng 15 250 50 0 empty empty empty 17 7 0 10 -262144
-1 -1;
#X obj 502 461 t b f;
#X obj 505 584 bng 15 250 50 0 empty empty empty 17 7 0 10 -262144
-1 -1;
#X obj 507 616 delay 100;
#X msg 675 67 bang;
#X msg 686 136 add \$1;
#X symbolatom 112 194 35 0 0 0 - - -, f 35;
#X obj 610 177 symbol \$1;
#X obj 534 564 mod;
#X obj 656 -8 r initialize;
#X obj 806 148 + 1;
#X floatatom 775 168 5 0 0 0 - - -, f 5;
#X msg 739 132 bang;
#X obj 775 146 f 1;
#X floatatom 717 326 5 0 0 0 - - -, f 5;
#X floatatom 756 398 5 0 0 0 - - -, f 5;
#X obj 717 346 moses 1;
#X obj 756 376 moses;
#X obj 708 278 +;
#X obj 759 280 int;
#X msg 688 257 -1;
#X msg 728 257 1;
#X obj 677 346 sel 1;
#X obj 677 322 >=;
#X obj 640 346 sel 1;
#X obj 640 322 < 1;
#X obj 782 303 t f f;
#X obj 446 216 t b b;
#X msg 446 284 bang;
#X msg 515 235 bang;
#X obj 446 181 bng 15 250 50 0 empty empty empty 17 7 0 10 -262144
-1 -1;
#X obj 446 253 delay 250;
#X obj 112 511 outlet;
#X obj 331 169 bng 15 250 50 0 empty empty empty 17 7 0 10 -262144
-1 -1;
#X obj 368 169 bng 15 250 50 0 empty empty empty 17 7 0 10 -262144
-1 -1;
#X text 352 167 +;
#X text 314 168 -;
#X obj 656 35 t b b b;
#X obj 112 169 bng 15 250 50 0 empty empty empty 17 7 0 10 -262144
-1 -1;
#X obj 110 18 inlet new;
#X obj 180 18 inlet dec;
#X obj 250 18 inlet inc;
#X obj 502 512 until 100;
#X obj 839 138 bng 15 250 50 0 empty empty empty 17 7 0 10 -262144
-1 -1;
#X msg 656 13 bang;
#X symbolatom 112 143 45 0 0 0 - - directory, f 45;
#X obj 320 19 inlet directory;
#X obj 995 194 pack s s;
#X obj 1040 144 r directory;
#X msg 1040 166 symbol \$1;
#X msg 995 216 symbol \$2/\$1;
#X obj 995 239 split_path;
#X obj 738 58 r directory;
#X obj 675 102 folder_list;
#X msg 738 80 symbol \$1/*;
#X obj 593 119 split_path;
#X obj 162 511 outlet;
#X obj 162 486 r directory;
#X obj 775 186 + 2;
#X obj 10 225 timestamp-generator;
#X obj 993 52 timestamp-generator;
#X connect 0 0 13 0;
#X connect 1 0 0 0;
#X connect 2 0 0 0;
#X connect 3 0 4 0;
#X connect 3 0 8 0;
#X connect 4 0 14 0;
#X connect 5 0 48 1;
#X connect 6 0 48 0;
#X connect 7 0 6 0;
#X connect 7 1 14 1;
#X connect 8 0 9 0;
#X connect 8 0 1 0;
#X connect 9 0 2 0;
#X connect 10 0 59 0;
#X connect 11 0 0 0;
#X connect 12 0 38 0;
#X connect 13 0 12 0;
#X connect 14 0 3 1;
#X connect 14 0 5 0;
#X connect 15 0 50 0;
#X connect 16 0 19 1;
#X connect 17 0 64 0;
#X connect 18 0 19 0;
#X connect 19 0 16 0;
#X connect 19 0 17 0;
#X connect 20 0 22 0;
#X connect 21 0 7 0;
#X connect 22 1 23 0;
#X connect 23 0 21 0;
#X connect 24 0 25 0;
#X connect 24 0 20 0;
#X connect 24 0 29 0;
#X connect 24 0 31 0;
#X connect 25 0 24 1;
#X connect 26 0 24 0;
#X connect 27 0 24 0;
#X connect 28 0 26 0;
#X connect 29 0 28 0;
#X connect 30 0 27 0;
#X connect 31 0 30 0;
#X connect 32 0 29 1;
#X connect 32 1 23 1;
#X connect 33 0 37 0;
#X connect 33 1 35 0;
#X connect 34 0 26 0;
#X connect 35 0 27 0;
#X connect 36 0 33 0;
#X connect 37 0 34 0;
#X connect 39 0 26 0;
#X connect 40 0 27 0;
#X connect 43 0 36 0;
#X connect 43 1 10 0;
#X connect 43 2 66 0;
#X connect 44 0 65 0;
#X connect 45 0 44 0;
#X connect 46 0 39 0;
#X connect 47 0 40 0;
#X connect 48 0 3 0;
#X connect 50 0 43 0;
#X connect 52 0 51 0;
#X connect 53 0 56 0;
#X connect 54 0 55 0;
#X connect 55 0 53 1;
#X connect 56 0 57 0;
#X connect 57 1 11 0;
#X connect 58 0 60 0;
#X connect 59 0 18 0;
#X connect 59 0 49 0;
#X connect 59 0 61 0;
#X connect 60 0 59 1;
#X connect 61 1 11 0;
#X connect 63 0 62 0;
#X connect 64 0 32 0;
#X connect 65 0 12 0;
#X connect 66 0 53 0;
#X coords 0 -1 1 1 300 120 1 100 100;
#X restore -89 -448 pd memory-navigation;
#X obj -89 -132 s defaults;
#X obj 204 -495 r initialize;
#X obj -89 -238 state-manager;
#X obj -89 -495 midi-encoder 13 4;
#X obj -52 -324 midi-encoder 12 4;
#N canvas 0 22 832 678 rec 0;
#X obj 168 11 midi-toggle 60 2;
#X obj 168 32 / 127;
#X obj 112 -30 r~ track-2-left;
#X obj 112 -50 r~ track-1-left;
#X obj 112 -10 r~ track-3-left;
#X obj 225 51 r~ track-2-right;
#X obj 225 31 r~ track-1-right;
#X obj 225 71 r~ track-3-right;
#X obj 149 239 dac~;
#X obj 112 123 file-recorder~;
#X connect 0 0 1 0;
#X connect 1 0 9 1;
#X connect 2 0 9 0;
#X connect 3 0 9 0;
#X connect 4 0 9 0;
#X connect 5 0 9 3;
#X connect 6 0 9 3;
#X connect 7 0 9 3;
#X connect 9 0 8 0;
#X connect 9 1 8 1;
#X coords 0 -1 1 1 145 110 1 100 100;
#X restore 1000 -523 pd rec;
#X msg 204 -474 symbol /Users/andy/pd/memory;
#X obj -14 -261 sel 127;
#X obj -14 -282 midi-encoder 31 4;
#X connect 0 0 1 0;
#X connect 0 0 4 0;
#X connect 2 0 12 0;
#X connect 3 0 15 1;
#X connect 5 0 1 0;
#X connect 6 0 12 2;
#X connect 7 0 12 1;
#X connect 12 0 8 0;
#X connect 12 0 9 0;
#X connect 12 0 10 0;
#X connect 12 0 15 0;
#X connect 12 1 15 3;
#X connect 14 0 19 0;
#X connect 15 0 13 0;
#X connect 16 0 2 0;
#X connect 17 0 3 0;
#X connect 19 0 12 3;
#X connect 20 0 15 2;
#X connect 21 0 20 0;
