#N canvas 659 34 1848 1048 10;
#X obj 68 21 loadbang-dsp;
#X obj 66 879 channel-out~;
#X obj 66 162 adc~;
#X obj 66 782 cosine-pan~;
#X obj 66 647 reverb~;
#X obj 103 583 loadbang;
#X msg 103 603 127;
#X obj 66 467 audio-delay~ 4000;
#X obj 66 288 looper-new~;
#X obj 179 266 midi-toggle 12 2;
#X obj 346 879 channel-out~;
#X obj 346 162 adc~;
#X obj 346 782 cosine-pan~;
#X obj 346 647 reverb~;
#X obj 383 583 loadbang;
#X msg 383 603 127;
#X obj 346 467 audio-delay~ 4000;
#X obj 346 288 looper-new~;
#X msg 191 308 127;
#X obj 191 288 r defaults;
#X obj 236 842 r defaults;
#X obj 68 43 s defaults;
#X obj 191 329 ctlout 1 2;
#X obj 156 245 midi-toggle 1 2;
#X obj 133 224 midi-toggle 5 2;
#X obj 111 203 midi-toggle 4 2;
#X obj 88 182 midi-toggle 0 2;
#X obj 368 182 midi-toggle 2 2;
#X obj 391 203 midi-toggle 6 2;
#X obj 413 224 midi-toggle 7 2;
#X obj 436 245 midi-toggle 3 2;
#X obj 459 266 midi-toggle 14 2;
#X obj 93 402 midi-encoder 1 1;
#X obj 122 423 midi-encoder 4 1;
#X obj 150 444 midi-encoder 5 1;
#X obj 141 604 midi-encoder 8 1;
#X obj 179 625 midi-encoder 9 1;
#X obj 179 761 midi-encoder 12 1;
#X obj 373 402 midi-encoder 3 1;
#X obj 402 423 midi-encoder 6 1;
#X obj 430 444 midi-encoder 7 1;
#X obj 421 604 midi-encoder 10 1;
#X obj 459 625 midi-encoder 11 1;
#X obj 459 761 midi-encoder 14 1;
#X obj 402 852 midi-encoder 15 1;
#X msg 236 862 65;
#X obj 236 885 ctlout 13 1;
#X obj 122 849 midi-encoder 13 1;
#X connect 0 0 21 0;
#X connect 2 0 8 0;
#X connect 3 0 1 0;
#X connect 3 1 1 4;
#X connect 4 0 3 0;
#X connect 5 0 6 0;
#X connect 6 0 4 1;
#X connect 7 0 4 0;
#X connect 8 0 7 0;
#X connect 9 0 8 5;
#X connect 11 0 17 0;
#X connect 12 0 10 0;
#X connect 12 1 10 4;
#X connect 13 0 12 0;
#X connect 14 0 15 0;
#X connect 15 0 13 1;
#X connect 16 0 13 0;
#X connect 17 0 16 0;
#X connect 18 0 8 4;
#X connect 18 0 22 0;
#X connect 19 0 18 0;
#X connect 20 0 45 0;
#X connect 23 0 8 4;
#X connect 24 0 8 3;
#X connect 25 0 8 2;
#X connect 26 0 8 1;
#X connect 27 0 17 1;
#X connect 28 0 17 2;
#X connect 29 0 17 3;
#X connect 30 0 17 4;
#X connect 31 0 17 5;
#X connect 32 0 7 1;
#X connect 33 0 7 2;
#X connect 34 0 7 3;
#X connect 35 0 4 2;
#X connect 36 0 4 3;
#X connect 37 0 3 1;
#X connect 38 0 16 1;
#X connect 39 0 16 2;
#X connect 40 0 16 3;
#X connect 41 0 13 2;
#X connect 42 0 13 3;
#X connect 43 0 12 1;
#X connect 44 0 10 2;
#X connect 45 0 1 2;
#X connect 45 0 46 0;
#X connect 47 0 1 2;
