#N canvas 595 60 1541 951 10;
#X obj 18 -449 loadbang-dsp;
#X obj 18 -408 s defaults;
#X msg 691 -297 \$1_1 \$1_2 \$1_3 \$1_4 \$1_5 \$1_6;
#X obj 691 -277 unpack s s s s s s;
#X obj 660 -320 +;
#X obj 691 -320 int;
#X msg 640 -341 -1;
#X msg 680 -341 1;
#X obj 610 -318 < 1;
#X obj 610 -294 sel 1;
#X obj 975 -217 ctlout 4 2;
#X obj 1044 -217 ctlout 4 3;
#X msg 1041 -262 0;
#X obj 1041 -286 delay 300;
#X msg 975 -303 bang;
#X msg 975 -261 1;
#X msg 1007 -261 6;
#X obj 96 -344 midi-encoder 13 4;
#X obj 96 -323 sel 127;
#X obj 58 -365 sel 127;
#X obj 58 -386 midi-encoder 12 4;
#X msg 134 -283 symbol /home/pi/pd/memory;
#X obj 21 -263 state-manager;
#X obj 18 -428 s initialize;
#X obj 134 -302 r initialize;
#X obj 99 -423 bng 15 250 50 0 empty empty empty 17 7 0 10 -262144
-1 -1;
#X obj 21 -159 s defaults;
#X obj 680 -361 midi-toggle 8 4;
#X obj 640 -381 midi-toggle 9 4;
#N canvas 658 25 1488 1355 track-1 0;
#X obj 110 939 channel-out~;
#X obj 94 -133 adc~;
#X obj 110 884 cosine-pan~;
#X obj 110 769 reverb~;
#X obj 734 887 r defaults;
#X obj 228 58 ctlout 1 2;
#X obj 194 -70 midi-toggle 1 2;
#X obj 126 -133 midi-toggle 0 2;
#X obj 110 129 looper-new~;
#X obj 110 651 audio-delay~ 4000;
#X obj 110 246 freeze~;
#X obj 110 535 eq3~;
#X obj 489 829 r defaults;
#X obj 520 716 r defaults;
#X obj 579 481 r defaults;
#X obj 592 192 r defaults;
#X obj 456 308 r defaults;
#X obj 228 15 r defaults;
#X obj 217 -25 midi-button 8 2;
#X obj 149 -112 midi-button 4 2;
#X obj 171 -91 midi-button 5 2;
#X obj 217 -49 midi-button 12 2;
#X msg 228 35 127;
#X msg 262 611 feedback 5 \, wet 1 \, length 4 \, channel 1;
#X msg 286 498 low 10 \, mid 11 \, high 14 \, gain 15 \, channel 1
;
#X obj 286 518 eq3-control track-1-eq;
#X obj 262 632 audio-delay-control track-1-delay;
#X obj 264 752 reverb-control track-1-reverb;
#X msg 264 729 wet 8 \, size 9 \, channel 1;
#X obj 290 867 cosine-pan-control track-1-pan;
#X msg 290 846 position 12 \, channel 1;
#X msg 528 903 volume 13 \, channel 1;
#X obj 528 924 channel-out-control track-1-out;
#X msg 275 192 blend 2 \, speed 3 \, purity 6 \, switch 3 \, phaselock
6 \, encoder-channel 1 \, toggle-channel 2;
#X obj 275 229 freeze-control track-1-freeze;
#X obj 283 345 metal-control track-1-metal;
#X msg 283 324 toggle 9 \, channel 2;
#X msg 456 328 toggle 0;
#X obj 283 303 r initialize;
#X obj 286 477 r initialize;
#X obj 262 586 r initialize;
#X obj 264 708 r initialize;
#X obj 290 825 r initialize;
#X obj 528 882 r initialize;
#X obj 275 161 r initialize;
#X msg 592 212 switch 1 \, blend 0 \, purity 0 \, phaselock 0 \, speed
0;
#X obj 540 595 r defaults;
#X msg 489 850 position 0.5;
#X msg 734 907 volume 0.5;
#X msg 540 615 wet 0 \, length 0 \, feedback 0;
#X msg 579 501 low 0.5 \, mid 0.5 \, high 0.5 \, gain 0.5;
#X msg 520 736 wet 0 \, size 0;
#X obj 110 362 metal~;
#X obj 590 -90 inlet;
#X obj 110 408 pitch-shifter~;
#X obj 542 388 pitch-shifter-control track-1-pitch-shift;
#X obj 542 325 r initialize;
#X obj 916 351 r defaults;
#X msg 916 371 fine 0 \, coarse 1 \, width 0;
#X msg 542 346 fine 0 \, coarse 7 \, width 7 \, toggle 7 \, encoder-channel
1 \, toggle-channel 2;
#X connect 1 0 8 0;
#X connect 2 0 0 0;
#X connect 2 1 0 2;
#X connect 3 0 2 0;
#X connect 4 0 48 0;
#X connect 6 0 8 4;
#X connect 7 0 8 1;
#X connect 8 0 10 0;
#X connect 9 0 3 0;
#X connect 10 0 52 0;
#X connect 11 0 9 0;
#X connect 12 0 47 0;
#X connect 13 0 51 0;
#X connect 14 0 50 0;
#X connect 15 0 45 0;
#X connect 16 0 37 0;
#X connect 17 0 22 0;
#X connect 18 0 8 6;
#X connect 19 0 8 2;
#X connect 20 0 8 3;
#X connect 21 0 8 5;
#X connect 22 0 8 4;
#X connect 22 0 5 0;
#X connect 23 0 26 0;
#X connect 24 0 25 0;
#X connect 25 0 11 1;
#X connect 26 0 9 1;
#X connect 27 0 3 1;
#X connect 28 0 27 0;
#X connect 29 0 2 1;
#X connect 30 0 29 0;
#X connect 31 0 32 0;
#X connect 32 0 0 1;
#X connect 33 0 34 0;
#X connect 34 0 10 1;
#X connect 35 0 52 1;
#X connect 36 0 35 0;
#X connect 37 0 35 1;
#X connect 38 0 36 0;
#X connect 39 0 24 0;
#X connect 40 0 23 0;
#X connect 41 0 28 0;
#X connect 42 0 30 0;
#X connect 43 0 31 0;
#X connect 44 0 33 0;
#X connect 45 0 34 1;
#X connect 46 0 49 0;
#X connect 47 0 29 1;
#X connect 48 0 32 1;
#X connect 49 0 26 1;
#X connect 50 0 25 1;
#X connect 51 0 27 1;
#X connect 52 0 54 0;
#X connect 53 0 8 7;
#X connect 54 0 11 0;
#X connect 55 0 54 1;
#X connect 56 0 59 0;
#X connect 57 0 58 0;
#X connect 58 0 55 1;
#X connect 59 0 55 0;
#X coords 0 -1 1 1 140 910 1 100 100;
#X restore 235 -260 pd track-1;
#N canvas 234 30 1430 1226 track-2 0;
#X obj 110 941 channel-out~;
#X obj 94 -133 adc~;
#X obj 110 886 cosine-pan~;
#X obj 110 771 reverb~;
#X obj 804 887 r defaults;
#X obj 110 129 looper-new~;
#X obj 110 651 audio-delay~ 4000;
#X obj 110 533 eq3~;
#X obj 479 831 r defaults;
#X obj 477 717 r defaults;
#X obj 569 479 r defaults;
#X obj 612 192 r defaults;
#X obj 446 307 r defaults;
#X obj 228 15 r defaults;
#X msg 446 327 toggle 0;
#X obj 273 302 r initialize;
#X obj 276 475 r initialize;
#X obj 277 592 r initialize;
#X obj 282 712 r initialize;
#X obj 280 827 r initialize;
#X obj 598 882 r initialize;
#X obj 265 161 r initialize;
#X msg 612 212 switch 1 \, blend 0 \, purity 0 \, phaselock 0 \, speed
0;
#X obj 550 597 r defaults;
#X msg 479 852 position 0.5;
#X msg 804 907 volume 0.5;
#X msg 550 617 wet 0 \, length 0 \, feedback 0;
#X msg 569 499 low 0.5 \, mid 0.5 \, high 0.5 \, gain 0.5;
#X msg 477 737 wet 0 \, size 0;
#X obj 590 -90 inlet;
#X obj 126 -133 midi-toggle 16 2;
#X obj 149 -112 midi-button 20 2;
#X obj 171 -91 midi-button 21 2;
#X obj 194 -70 midi-toggle 17 2;
#X obj 217 -49 midi-button 28 2;
#X obj 217 -25 midi-button 24 2;
#X obj 228 58 ctlout 17 2;
#X msg 273 323 toggle 25 \, channel 2;
#X msg 276 496 low 26 \, mid 27 \, high 30 \, gain 31 \, channel 1
;
#X msg 265 192 blend 18 \, speed 19 \, purity 22 \, switch 19 \, phaselock
22 \, encoder-channel 1 \, toggle-channel 2;
#X msg 277 613 feedback 21 \, wet 17 \, length 20 \, channel 1;
#X msg 282 733 wet 24 \, size 25 \, channel 1;
#X msg 280 848 position 28 \, channel 1;
#X msg 598 903 volume 29 \, channel 1;
#X obj 265 229 freeze-control track-2-freeze;
#X obj 273 344 metal-control track-2-metal;
#X obj 276 516 eq3-control track-2-eq;
#X obj 277 634 audio-delay-control track-2-delay;
#X obj 282 754 reverb-control track-2-reverb;
#X obj 280 869 cosine-pan-control track-2-pan;
#X obj 598 924 channel-out-control track-2-out;
#X obj 534 327 r initialize;
#X obj 908 353 r defaults;
#X msg 908 373 fine 0 \, coarse 1 \, width 0;
#X obj 110 407 pitch-shifter~;
#X obj 534 390 pitch-shifter-control track-2-pitch-shift;
#X msg 534 348 fine 16 \, coarse 23 \, width 23 \, toggle 23 \, encoder-channel
1 \, toggle-channel 2;
#X msg 228 35 0;
#X obj 110 246 freeze~;
#X obj 110 361 metal~;
#X connect 1 0 5 0;
#X connect 2 0 0 0;
#X connect 2 1 0 2;
#X connect 3 0 2 0;
#X connect 4 0 25 0;
#X connect 5 0 58 0;
#X connect 6 0 3 0;
#X connect 7 0 6 0;
#X connect 8 0 24 0;
#X connect 9 0 28 0;
#X connect 10 0 27 0;
#X connect 11 0 22 0;
#X connect 12 0 14 0;
#X connect 13 0 57 0;
#X connect 14 0 45 1;
#X connect 15 0 37 0;
#X connect 16 0 38 0;
#X connect 17 0 40 0;
#X connect 18 0 41 0;
#X connect 19 0 42 0;
#X connect 20 0 43 0;
#X connect 21 0 39 0;
#X connect 22 0 44 1;
#X connect 23 0 26 0;
#X connect 24 0 49 1;
#X connect 25 0 50 1;
#X connect 26 0 47 1;
#X connect 27 0 46 1;
#X connect 28 0 48 1;
#X connect 29 0 5 7;
#X connect 30 0 5 1;
#X connect 31 0 5 2;
#X connect 32 0 5 3;
#X connect 33 0 5 4;
#X connect 34 0 5 5;
#X connect 35 0 5 6;
#X connect 37 0 45 0;
#X connect 38 0 46 0;
#X connect 39 0 44 0;
#X connect 40 0 47 0;
#X connect 41 0 48 0;
#X connect 42 0 49 0;
#X connect 43 0 50 0;
#X connect 44 0 58 1;
#X connect 45 0 59 1;
#X connect 46 0 7 1;
#X connect 47 0 6 1;
#X connect 48 0 3 1;
#X connect 49 0 2 1;
#X connect 50 0 0 1;
#X connect 51 0 56 0;
#X connect 52 0 53 0;
#X connect 53 0 55 1;
#X connect 54 0 7 0;
#X connect 55 0 54 1;
#X connect 56 0 55 0;
#X connect 57 0 5 4;
#X connect 57 0 36 0;
#X connect 58 0 59 0;
#X connect 59 0 54 0;
#X coords 0 -1 1 1 140 910 1 100 100;
#X restore 378 -260 pd track-2;
#N canvas 0 23 1453 1259 track-3 0;
#X obj 110 941 channel-out~;
#X obj 94 -133 adc~;
#X obj 110 885 cosine-pan~;
#X obj 110 770 reverb~;
#X obj 794 887 r defaults;
#X obj 110 129 looper-new~;
#X obj 110 650 audio-delay~ 4000;
#X obj 110 532 eq3~;
#X obj 479 830 r defaults;
#X obj 477 716 r defaults;
#X obj 569 478 r defaults;
#X obj 612 192 r defaults;
#X obj 446 307 r defaults;
#X obj 228 15 r defaults;
#X msg 446 327 toggle 0;
#X obj 273 302 r initialize;
#X obj 276 474 r initialize;
#X obj 277 591 r initialize;
#X obj 282 711 r initialize;
#X obj 280 826 r initialize;
#X obj 588 882 r initialize;
#X obj 265 161 r initialize;
#X msg 612 212 switch 1 \, blend 0 \, purity 0 \, phaselock 0 \, speed
0;
#X obj 550 596 r defaults;
#X msg 479 851 position 0.5;
#X msg 794 907 volume 0.5;
#X msg 550 616 wet 0 \, length 0 \, feedback 0;
#X msg 569 498 low 0.5 \, mid 0.5 \, high 0.5 \, gain 0.5;
#X msg 477 736 wet 0 \, size 0;
#X obj 590 -90 inlet;
#X obj 228 58 ctlout 17 2;
#X obj 265 229 freeze-control track-3-freeze;
#X obj 273 344 metal-control track-3-metal;
#X obj 276 515 eq3-control track-3-eq;
#X obj 277 633 audio-delay-control track-3-delay;
#X obj 282 753 reverb-control track-3-reverb;
#X obj 280 868 cosine-pan-control track-3-pan;
#X obj 588 924 channel-out-control track-3-out;
#X obj 126 -133 midi-toggle 32 2;
#X obj 149 -112 midi-button 36 2;
#X obj 171 -91 midi-button 37 2;
#X obj 217 -49 midi-button 44 2;
#X obj 217 -25 midi-button 40 2;
#X obj 194 -70 midi-toggle 33 2;
#X msg 265 192 blend 34 \, speed 35 \, purity 38 \, switch 35 \, phaselock
38 \, encoder-channel 1 \, toggle-channel 2;
#X msg 273 323 toggle 41 \, channel 2;
#X msg 276 495 low 42 \, mid 43 \, high 46 \, gain 47 \, channel 1
;
#X msg 277 612 feedback 37 \, wet 33 \, length 36 \, channel 1;
#X msg 282 732 wet 40 \, size 41 \, channel 1;
#X msg 280 847 position 44 \, channel 1;
#X msg 588 903 volume 45 \, channel 1;
#X obj 110 407 pitch-shifter~;
#X obj 534 327 r initialize;
#X obj 908 353 r defaults;
#X msg 908 373 fine 0 \, coarse 1 \, width 0;
#X obj 534 390 pitch-shifter-control track-3-pitch-shift;
#X msg 534 348 fine 32 \, coarse 39 \, width 39 \, toggle 39 \, encoder-channel
1 \, toggle-channel 2;
#X msg 228 35 0;
#X obj 110 246 freeze~;
#X obj 110 361 metal~;
#X connect 1 0 5 0;
#X connect 2 0 0 0;
#X connect 2 1 0 2;
#X connect 3 0 2 0;
#X connect 4 0 25 0;
#X connect 5 0 58 0;
#X connect 6 0 3 0;
#X connect 7 0 6 0;
#X connect 8 0 24 0;
#X connect 9 0 28 0;
#X connect 10 0 27 0;
#X connect 11 0 22 0;
#X connect 12 0 14 0;
#X connect 13 0 57 0;
#X connect 14 0 32 1;
#X connect 15 0 45 0;
#X connect 16 0 46 0;
#X connect 17 0 47 0;
#X connect 18 0 48 0;
#X connect 19 0 49 0;
#X connect 20 0 50 0;
#X connect 21 0 44 0;
#X connect 22 0 31 1;
#X connect 23 0 26 0;
#X connect 24 0 36 1;
#X connect 25 0 37 1;
#X connect 26 0 34 1;
#X connect 27 0 33 1;
#X connect 28 0 35 1;
#X connect 29 0 5 7;
#X connect 31 0 58 1;
#X connect 32 0 59 1;
#X connect 33 0 7 1;
#X connect 34 0 6 1;
#X connect 35 0 3 1;
#X connect 36 0 2 1;
#X connect 37 0 0 1;
#X connect 38 0 5 1;
#X connect 39 0 5 2;
#X connect 40 0 5 3;
#X connect 41 0 5 5;
#X connect 42 0 5 6;
#X connect 43 0 5 4;
#X connect 44 0 31 0;
#X connect 45 0 32 0;
#X connect 46 0 33 0;
#X connect 47 0 34 0;
#X connect 48 0 35 0;
#X connect 49 0 36 0;
#X connect 50 0 37 0;
#X connect 51 0 7 0;
#X connect 52 0 56 0;
#X connect 53 0 54 0;
#X connect 54 0 55 1;
#X connect 55 0 51 1;
#X connect 56 0 55 0;
#X connect 57 0 5 4;
#X connect 57 0 30 0;
#X connect 58 0 59 0;
#X connect 59 0 51 0;
#X coords 0 -1 1 1 140 910 1 100 100;
#X restore 523 -260 pd track-3;
#X obj 680 -418 r initialize;
#X obj 977 -436 midi-observer;
#X obj 1277 -227 time GMT;
#X msg 1213 -256 bang;
#X obj 1213 -227 date GMT;
#X obj 1216 -188 pack f f f f f f;
#X obj 1216 -112 print;
#X msg 1216 -155 symbol \$1-\$2-\$3-\$4-\$5-\$6;
#N canvas 0 23 1536 892 memory-navigation 0;
#X obj 600 148 textfile;
#X msg 623 648 bang;
#X msg 660 695 rewind;
#X obj 524 560 until;
#X obj 525 589 f;
#X obj 556 591 + 1;
#X obj 600 591 sel 0;
#X obj 524 531 bng 15 250 50 0 empty empty empty 17 7 0 10 -262144
-1 -1;
#X obj 580 507 t b f;
#X floatatom 580 489 5 0 0 0 - - -, f 5;
#X obj 527 632 bng 15 250 50 0 empty empty empty 17 7 0 10 -262144
-1 -1;
#X obj 529 664 delay 100;
#X msg 675 52 bang;
#X obj 675 87 folder_list ../memory/*;
#X msg 676 119 add \$1;
#X symbolatom 112 136 45 0 0 0 - - -, f 45;
#X obj 607 172 symbol \$1;
#X obj 556 612 mod;
#X obj 675 22 r initialize;
#X obj 776 25 bng 15 250 50 0 empty empty empty 17 7 0 10 -262144 -1
-1;
#X obj 806 133 + 1;
#X floatatom 775 153 5 0 0 0 - - -, f 5;
#X msg 739 117 bang;
#X msg 856 105 1;
#X obj 775 131 f 1;
#X floatatom 734 375 5 0 0 0 - - -, f 5;
#X floatatom 774 459 5 0 0 0 - - -, f 5;
#X obj 734 407 moses 1;
#X obj 775 171 + 1;
#X obj 774 437 moses;
#X obj 708 278 +;
#X obj 759 280 int;
#X msg 688 257 -1;
#X msg 728 257 1;
#X obj 677 346 sel 1;
#X obj 677 322 >=;
#X obj 678 407 sel 1;
#X obj 678 383 < 1;
#X obj 782 303 t f f;
#X obj 446 216 t b b;
#X msg 446 284 bang;
#X msg 515 235 bang;
#X obj 446 181 bng 15 250 50 0 empty empty empty 17 7 0 10 -262144
-1 -1;
#X obj 446 253 delay 250;
#X connect 0 0 16 0;
#X connect 1 0 0 0;
#X connect 2 0 0 0;
#X connect 3 0 4 0;
#X connect 4 0 5 0;
#X connect 4 0 10 0;
#X connect 5 0 17 0;
#X connect 6 0 3 1;
#X connect 7 0 3 0;
#X connect 8 0 7 0;
#X connect 8 1 17 1;
#X connect 9 0 8 0;
#X connect 10 0 11 0;
#X connect 10 0 1 0;
#X connect 11 0 2 0;
#X connect 12 0 13 0;
#X connect 13 0 14 0;
#X connect 13 0 22 0;
#X connect 14 0 0 0;
#X connect 16 0 15 0;
#X connect 17 0 4 1;
#X connect 17 0 6 0;
#X connect 18 0 12 0;
#X connect 18 0 42 0;
#X connect 19 0 12 0;
#X connect 19 0 23 0;
#X connect 20 0 24 1;
#X connect 21 0 28 0;
#X connect 22 0 24 0;
#X connect 23 0 24 1;
#X connect 24 0 20 0;
#X connect 24 0 21 0;
#X connect 25 0 27 0;
#X connect 26 0 9 0;
#X connect 27 1 29 0;
#X connect 28 0 38 0;
#X connect 29 0 26 0;
#X connect 30 0 31 0;
#X connect 30 0 25 0;
#X connect 30 0 35 0;
#X connect 30 0 37 0;
#X connect 31 0 30 1;
#X connect 32 0 30 0;
#X connect 33 0 30 0;
#X connect 34 0 32 0;
#X connect 35 0 34 0;
#X connect 36 0 33 0;
#X connect 37 0 36 0;
#X connect 38 0 35 1;
#X connect 38 1 29 1;
#X connect 39 0 43 0;
#X connect 39 1 41 0;
#X connect 40 0 32 0;
#X connect 41 0 33 0;
#X connect 42 0 39 0;
#X connect 43 0 40 0;
#X coords 0 -1 1 1 300 60 1 100 100;
#X restore 772 -106 pd memory-navigation;
#X connect 0 0 1 0;
#X connect 0 0 23 0;
#X connect 2 0 3 0;
#X connect 3 0 29 0;
#X connect 3 0 22 0;
#X connect 3 1 30 0;
#X connect 3 2 31 0;
#X connect 4 0 5 0;
#X connect 4 0 8 0;
#X connect 5 0 4 1;
#X connect 5 0 2 0;
#X connect 5 0 14 0;
#X connect 6 0 4 0;
#X connect 7 0 4 0;
#X connect 8 0 9 0;
#X connect 9 0 7 0;
#X connect 12 0 11 0;
#X connect 12 0 10 0;
#X connect 13 0 12 0;
#X connect 14 0 13 0;
#X connect 14 0 15 0;
#X connect 14 0 16 0;
#X connect 15 0 10 0;
#X connect 16 0 11 0;
#X connect 17 0 18 0;
#X connect 18 0 22 2;
#X connect 19 0 22 1;
#X connect 20 0 19 0;
#X connect 21 0 22 3;
#X connect 22 0 26 0;
#X connect 24 0 21 0;
#X connect 25 0 1 0;
#X connect 27 0 7 0;
#X connect 28 0 6 0;
#X connect 32 0 7 0;
#X connect 34 0 37 3;
#X connect 34 1 37 4;
#X connect 34 2 37 5;
#X connect 35 0 36 0;
#X connect 35 0 34 0;
#X connect 36 0 37 0;
#X connect 36 1 37 1;
#X connect 36 2 37 2;
#X connect 37 0 39 0;
#X connect 39 0 38 0;
