#N canvas 528 54 1702 1282 10;
#X obj 18 11 loadbang-dsp;
#X obj 367 1225 channel-out~;
#X obj 367 62 adc~;
#X obj 367 1156 cosine-pan~;
#X obj 367 1031 reverb~;
#X obj 704 1171 r defaults;
#X obj 18 52 s defaults;
#X obj 501 253 ctlout 1 2;
#X obj 467 125 midi-toggle 1 2;
#X obj 399 62 midi-toggle 0 2;
#X msg 941 163 \$1_1 \$1_2 \$1_3 \$1_4 \$1_5 \$1_6;
#X obj 941 183 unpack s s s s s s;
#X obj 910 140 +;
#X obj 941 140 int;
#X msg 890 119 -1;
#X msg 930 119 1;
#X obj 367 198 looper-new~;
#X obj 367 911 audio-delay~ 4000;
#X msg 619 182 symbol 1_1;
#X obj 860 142 < 1;
#X obj 860 166 sel 1;
#X obj 1225 243 ctlout 4 2;
#X obj 1294 243 ctlout 4 3;
#X msg 1291 198 0;
#X obj 1291 174 delay 300;
#X msg 1225 157 bang;
#X msg 1225 199 1;
#X msg 1257 199 6;
#X obj 367 315 freeze~;
#X obj 367 793 eq3~;
#X obj 96 116 midi-encoder 13 4;
#X obj 96 137 sel 127;
#X obj 58 95 sel 127;
#X obj 58 74 midi-encoder 12 4;
#X msg 134 177 symbol /home/pi/pd/memory;
#X obj 21 197 state-manager;
#X obj 18 32 s initialize;
#X obj 619 161 r initialize;
#X obj 134 158 r initialize;
#X obj 99 37 bng 15 250 50 0 empty empty empty 17 7 0 10 -262144 -1
-1;
#X obj 709 1101 r defaults;
#X obj 707 977 r defaults;
#X obj 799 739 r defaults;
#X obj 989 261 r defaults;
#X obj 21 301 s defaults;
#X obj 653 625 r defaults;
#X obj 501 210 r defaults;
#X obj 490 170 midi-button 8 2;
#X obj 422 83 midi-button 4 2;
#X obj 444 104 midi-button 5 2;
#X obj 490 146 midi-button 12 2;
#X msg 501 230 127;
#X msg 507 873 feedback 5 \, wet 1 \, length 4 \, channel 1;
#X msg 506 756 low 10 \, mid 11 \, high 14 \, gain 15 \, channel 1
;
#X obj 506 776 eq3-control track-1-eq;
#X obj 507 894 audio-delay-control track-1-delay;
#X obj 512 1014 reverb-control track-1-reverb;
#X msg 512 993 wet 8 \, size 9 \, channel 1;
#X obj 510 1139 cosine-pan-control track-1-pan;
#X msg 510 1118 position 12 \, channel 1;
#X msg 498 1187 volume 13 \, channel 1;
#X obj 498 1208 channel-out-control track-1-out;
#X msg 672 261 blend 2 \, speed 3 \, purity 6 \, switch 3 \, phaselock
6 \, encoder-channel 1 \, toggle-channel 2;
#X obj 672 298 freeze-control track-1-freeze;
#X obj 480 662 metal-control track-1-metal;
#X msg 480 641 toggle 9 \, channel 2;
#X msg 653 645 toggle 0;
#X obj 480 620 r initialize;
#X obj 506 735 r initialize;
#X obj 507 852 r initialize;
#X obj 512 972 r initialize;
#X obj 510 1097 r initialize;
#X obj 498 1166 r initialize;
#X obj 672 240 r initialize;
#X msg 989 281 switch 1 \, blend 0 \, purity 0 \, phaselock 0 \, speed
0;
#X obj 750 857 r defaults;
#X msg 709 1122 position 0.5;
#X msg 704 1191 volume 0.5;
#X obj 930 99 midi-toggle 8 4;
#X obj 890 79 midi-toggle 9 4;
#X msg 750 877 wet 0 \, length 0 \, feedback 0;
#X msg 799 759 low 0.5 \, mid 0.5 \, high 0.5 \, gain 0.5;
#X msg 707 997 wet 0 \, size 0;
#X obj 367 683 metal~;
#X connect 0 0 6 0;
#X connect 0 0 36 0;
#X connect 2 0 16 0;
#X connect 3 0 1 0;
#X connect 3 1 1 2;
#X connect 4 0 3 0;
#X connect 5 0 77 0;
#X connect 8 0 16 4;
#X connect 9 0 16 1;
#X connect 10 0 11 0;
#X connect 11 0 16 7;
#X connect 11 0 35 0;
#X connect 12 0 13 0;
#X connect 12 0 19 0;
#X connect 13 0 12 1;
#X connect 13 0 10 0;
#X connect 13 0 25 0;
#X connect 14 0 12 0;
#X connect 15 0 12 0;
#X connect 16 0 28 0;
#X connect 17 0 4 0;
#X connect 18 0 16 7;
#X connect 18 0 35 0;
#X connect 19 0 20 0;
#X connect 20 0 15 0;
#X connect 23 0 22 0;
#X connect 23 0 21 0;
#X connect 24 0 23 0;
#X connect 25 0 24 0;
#X connect 25 0 26 0;
#X connect 25 0 27 0;
#X connect 26 0 21 0;
#X connect 27 0 22 0;
#X connect 28 0 83 0;
#X connect 29 0 17 0;
#X connect 30 0 31 0;
#X connect 31 0 35 2;
#X connect 32 0 35 1;
#X connect 33 0 32 0;
#X connect 34 0 35 3;
#X connect 35 0 44 0;
#X connect 37 0 18 0;
#X connect 38 0 34 0;
#X connect 39 0 6 0;
#X connect 40 0 76 0;
#X connect 41 0 82 0;
#X connect 42 0 81 0;
#X connect 43 0 74 0;
#X connect 45 0 66 0;
#X connect 46 0 51 0;
#X connect 47 0 16 6;
#X connect 48 0 16 2;
#X connect 49 0 16 3;
#X connect 50 0 16 5;
#X connect 51 0 16 4;
#X connect 51 0 7 0;
#X connect 52 0 55 0;
#X connect 53 0 54 0;
#X connect 54 0 29 1;
#X connect 55 0 17 1;
#X connect 56 0 4 1;
#X connect 57 0 56 0;
#X connect 58 0 3 1;
#X connect 59 0 58 0;
#X connect 60 0 61 0;
#X connect 61 0 1 1;
#X connect 62 0 63 0;
#X connect 63 0 28 1;
#X connect 64 0 83 1;
#X connect 65 0 64 0;
#X connect 66 0 64 1;
#X connect 67 0 65 0;
#X connect 68 0 53 0;
#X connect 69 0 52 0;
#X connect 70 0 57 0;
#X connect 71 0 59 0;
#X connect 72 0 60 0;
#X connect 73 0 62 0;
#X connect 74 0 63 1;
#X connect 75 0 80 0;
#X connect 76 0 58 1;
#X connect 77 0 61 1;
#X connect 78 0 15 0;
#X connect 79 0 14 0;
#X connect 80 0 55 1;
#X connect 81 0 54 1;
#X connect 82 0 56 1;
#X connect 83 0 29 0;
