#N canvas 874 205 1367 949 10;
#X obj 68 21 loadbang-dsp;
#X obj 254 658 channel-out~;
#X obj 519 596 loadbang;
#X obj 508 641 midi-encoder;
#X msg 550 619 1;
#X obj 253 180 adc~;
#X obj 254 585 cosine-pan~;
#X obj 395 518 loadbang;
#X obj 389 570 midi-encoder;
#X msg 442 547 1, f 2;
#X obj 254 455 reverb~;
#X obj 471 389 loadbang;
#X obj 463 438 midi-encoder;
#X msg 533 418 1;
#X obj 581 390 loadbang;
#X obj 569 438 midi-encoder;
#X msg 639 418 1;
#X obj 395 413 loadbang;
#X msg 396 437 127;
#X obj 412 256 loadbang;
#X obj 388 306 midi-encoder;
#X msg 458 286 1;
#X obj 514 243 loadbang;
#X obj 494 305 midi-encoder;
#X msg 561 278 1;
#X obj 606 253 loadbang;
#X obj 588 305 midi-encoder;
#X msg 657 281 1;
#X obj 253 322 audio-delay~ 4000;
#X obj 253 206 looper-new~;
#X obj 384 139 loadbang;
#X obj 384 190 midi-toggle;
#X msg 428 168 2;
#X obj 630 143 loadbang;
#X obj 629 196 midi-toggle;
#X msg 675 172 2;
#X msg 385 168 0;
#X msg 392 284 1;
#X msg 495 276 4;
#X msg 592 283 5;
#X msg 467 416 8;
#X msg 573 416 9;
#X msg 393 548 12;
#X msg 508 619 13;
#X obj 468 139 loadbang;
#X obj 467 192 midi-toggle;
#X msg 513 168 2;
#X obj 552 140 loadbang;
#X obj 551 193 midi-toggle;
#X msg 592 170 2;
#X msg 553 169 5;
#X obj 717 143 loadbang;
#X obj 716 196 midi-toggle;
#X msg 762 172 2, f 2;
#X msg 718 172 12;
#X msg 469 168 4;
#X msg 631 172 1;
#X connect 2 0 43 0;
#X connect 2 0 4 0;
#X connect 3 0 1 2;
#X connect 4 0 3 1;
#X connect 5 0 29 0;
#X connect 6 0 1 0;
#X connect 6 1 1 4;
#X connect 7 0 42 0;
#X connect 7 0 9 0;
#X connect 8 0 6 1;
#X connect 9 0 8 1;
#X connect 10 0 6 0;
#X connect 11 0 40 0;
#X connect 11 0 13 0;
#X connect 12 0 10 2;
#X connect 13 0 12 1;
#X connect 14 0 41 0;
#X connect 14 0 16 0;
#X connect 15 0 10 3;
#X connect 16 0 15 1;
#X connect 17 0 18 0;
#X connect 18 0 10 1;
#X connect 19 0 37 0;
#X connect 19 0 21 0;
#X connect 20 0 28 1;
#X connect 21 0 20 1;
#X connect 22 0 38 0;
#X connect 22 0 24 0;
#X connect 23 0 28 2;
#X connect 24 0 23 1;
#X connect 25 0 39 0;
#X connect 25 0 27 0;
#X connect 26 0 28 3;
#X connect 27 0 26 1;
#X connect 28 0 10 0;
#X connect 29 0 28 0;
#X connect 30 0 36 0;
#X connect 30 0 32 0;
#X connect 31 0 29 1;
#X connect 32 0 31 1;
#X connect 33 0 56 0;
#X connect 33 0 35 0;
#X connect 34 0 29 4;
#X connect 35 0 34 1;
#X connect 36 0 31 0;
#X connect 37 0 20 0;
#X connect 38 0 23 0;
#X connect 39 0 26 0;
#X connect 40 0 12 0;
#X connect 41 0 15 0;
#X connect 42 0 8 0;
#X connect 43 0 3 0;
#X connect 44 0 55 0;
#X connect 44 0 46 0;
#X connect 45 0 29 2;
#X connect 46 0 45 1;
#X connect 47 0 50 0;
#X connect 47 0 49 0;
#X connect 48 0 29 3;
#X connect 49 0 48 1;
#X connect 50 0 48 0;
#X connect 51 0 54 0;
#X connect 51 0 53 0;
#X connect 52 0 29 5;
#X connect 53 0 52 1;
#X connect 54 0 52 0;
#X connect 55 0 45 0;
#X connect 56 0 34 0;
