#N canvas 561 113 1285 679 10;
#X obj 250 274 osc~;
#X obj 212 174 loadbang;
#X msg 211 238 50;
#X obj 211 150 loadbang-dsp;
#X obj 253 232 midi-encoder;
#X msg 257 210 0;
#X obj 256 253 hsl 128 15 0 127 0 0 empty empty empty -2 -8 0 10 -262144
-1 -1 6700 1;
#X msg 334 211 1;
#X obj 247 535 channel-out~;
#X obj 570 479 loadbang;
#X msg 570 515 50;
#X obj 611 537 midi-encoder;
#X obj 614 558 hsl 128 15 0 127 0 0 empty empty empty -2 -8 0 10 -262144
-1 -1 10000 1;
#X msg 692 516 1;
#X msg 615 515 1;
#X obj 435 112 adc~;
#X obj 436 410 cosine-pan~;
#X obj 577 343 loadbang;
#X obj 571 395 midi-encoder;
#X obj 574 416 hsl 128 15 0 127 0 0 empty empty empty -2 -8 0 10 -262144
-1 -1 6600 1;
#X msg 641 375 1;
#X msg 575 373 2;
#X obj 436 280 reverb~;
#X obj 653 214 loadbang;
#X obj 645 263 midi-encoder;
#X msg 715 243 1;
#X msg 649 241 3;
#X obj 763 215 loadbang;
#X obj 751 263 midi-encoder;
#X msg 821 243 1;
#X msg 755 241 4;
#X obj 577 238 loadbang;
#X msg 578 262 127;
#X obj 594 81 loadbang;
#X obj 570 131 midi-encoder;
#X msg 640 111 1;
#X obj 696 68 loadbang;
#X obj 676 130 midi-encoder;
#X msg 743 103 1;
#X obj 788 78 loadbang;
#X obj 770 130 midi-encoder;
#X msg 839 106 1;
#X msg 574 109 5;
#X msg 774 108 7;
#X msg 677 101 6;
#X obj 435 147 audio-delay~ 4000;
#X connect 0 0 8 0;
#X connect 0 0 8 4;
#X connect 1 0 2 0;
#X connect 1 0 5 0;
#X connect 1 0 7 0;
#X connect 2 0 0 0;
#X connect 4 0 6 0;
#X connect 5 0 4 0;
#X connect 6 0 0 0;
#X connect 7 0 4 1;
#X connect 9 0 10 0;
#X connect 9 0 14 0;
#X connect 9 0 13 0;
#X connect 10 0 8 2;
#X connect 11 0 12 0;
#X connect 11 0 8 2;
#X connect 13 0 11 1;
#X connect 14 0 11 0;
#X connect 15 0 45 0;
#X connect 16 0 8 0;
#X connect 16 1 8 4;
#X connect 17 0 21 0;
#X connect 17 0 20 0;
#X connect 18 0 19 0;
#X connect 18 0 16 1;
#X connect 20 0 18 1;
#X connect 21 0 18 0;
#X connect 22 0 16 0;
#X connect 23 0 26 0;
#X connect 23 0 25 0;
#X connect 24 0 22 2;
#X connect 25 0 24 1;
#X connect 26 0 24 0;
#X connect 27 0 30 0;
#X connect 27 0 29 0;
#X connect 28 0 22 3;
#X connect 29 0 28 1;
#X connect 30 0 28 0;
#X connect 31 0 32 0;
#X connect 32 0 22 1;
#X connect 33 0 42 0;
#X connect 33 0 35 0;
#X connect 34 0 45 1;
#X connect 35 0 34 1;
#X connect 36 0 44 0;
#X connect 36 0 38 0;
#X connect 37 0 45 2;
#X connect 38 0 37 1;
#X connect 39 0 43 0;
#X connect 39 0 41 0;
#X connect 40 0 45 3;
#X connect 41 0 40 1;
#X connect 42 0 34 0;
#X connect 43 0 40 0;
#X connect 44 0 37 0;
#X connect 45 0 22 0;
