#N canvas 0 23 1436 855 10;
#X obj 18 11 loadbang-dsp;
#X obj 367 1727 channel-out~;
#X obj 367 72 adc~;
#X obj 367 1618 cosine-pan~;
#X obj 367 1440 reverb~;
#X msg 404 1396 127;
#X obj 490 146 midi-toggle 12 2;
#X msg 497 263 127;
#X obj 537 1690 r defaults;
#X obj 18 52 s defaults;
#X obj 497 284 ctlout 1 2;
#X obj 467 125 midi-toggle 1 2;
#X obj 444 104 midi-toggle 5 2;
#X obj 422 83 midi-toggle 4 2;
#X obj 399 62 midi-toggle 0 2;
#X obj 404 1122 midi-encoder 1 1;
#X obj 442 1143 midi-encoder 4 1;
#X obj 480 1164 midi-encoder 5 1;
#X obj 442 1397 midi-encoder 8 1;
#X obj 480 1418 midi-encoder 9 1;
#X obj 480 1597 midi-encoder 12 1;
#X msg 537 1710 65;
#X obj 423 1705 midi-encoder 13 1;
#X obj 490 170 midi-toggle 8 2;
#X msg 941 163 \$1_1 \$1_2 \$1_3 \$1_4 \$1_5 \$1_6;
#X obj 941 183 unpack s s s s s s;
#X obj 852 99 midi-toggle;
#X obj 910 140 +;
#X obj 941 140 int;
#X msg 890 119 -1;
#X msg 930 119 1;
#X obj 1129 183 midi-toggle;
#X obj 930 99 midi-toggle;
#X msg 896 80 4;
#X msg 974 80 4;
#X msg 1173 166 4;
#X msg 1129 166 10;
#X obj 367 198 looper-new~;
#X obj 367 1193 audio-delay~ 4000;
#X msg 852 80 9;
#X msg 930 80 8;
#X msg 619 182 symbol 1_1;
#X obj 1129 63 r defaults;
#X obj 404 1376 r defaults;
#X obj 860 142 < 1;
#X obj 860 166 sel 1;
#X obj 1225 243 ctlout 4 2;
#X obj 1294 243 ctlout 4 3;
#X msg 1291 198 0;
#X obj 1291 174 delay 300;
#X msg 1225 157 bang;
#X msg 1225 199 1;
#X msg 1257 199 6;
#X obj 424 311 midi-encoder 2 1;
#X obj 367 414 freeze~;
#X obj 367 908 eq3~;
#X obj 389 822 midi-encoder 10 1;
#X obj 412 843 midi-encoder 11 1;
#X obj 434 864 midi-encoder 14 1;
#X obj 457 885 midi-encoder 15 1;
#X obj 96 116 midi-encoder 13 4;
#X obj 96 137 sel 127;
#X obj 58 95 sel 127;
#X obj 58 74 midi-encoder 12 4;
#X msg 134 177 symbol /home/pi/pd/memory;
#X obj 480 1308 ctlout 5 1;
#X obj 442 1328 ctlout 4 1;
#X obj 404 1348 ctlout 1 1;
#X obj 21 197 state-manager;
#X obj 457 1024 ctlout 15 1;
#X obj 435 1045 ctlout 14 1;
#X obj 412 1066 ctlout 11 1;
#X obj 389 1087 ctlout 10 1;
#X obj 480 1555 ctlout 9 1;
#X obj 423 1575 ctlout 8 1;
#X obj 423 1678 ctlout 12 1;
#X obj 423 1795 ctlout 13 1;
#X obj 484 331 midi-encoder 6 1;
#X obj 601 373 midi-encoder 3 1;
#X obj 660 393 midi-toggle 6 2;
#X obj 542 352 midi-toggle 3 2;
#X obj 424 801 ctlout 2 1;
#X obj 484 780 ctlout 6 1;
#X obj 542 759 ctlout 3 2;
#X obj 601 739 ctlout 3 1;
#X obj 660 718 ctlout 6 2;
#X obj 18 32 s initialize;
#X obj 619 161 r initialize;
#X obj 134 158 r initialize;
#X obj 168 38 bng 15 250 50 0 empty empty empty 17 7 0 10 -262144 -1
-1;
#X obj 593 1581 r defaults;
#X msg 593 1601 65;
#X obj 603 1403 r defaults;
#X msg 603 1423 0;
#X obj 595 1155 r defaults;
#X msg 595 1175 0;
#X obj 578 871 r defaults;
#X msg 578 891 65;
#X obj 769 377 r defaults;
#X msg 769 397 127;
#X obj 846 377 r defaults;
#X msg 846 397 0;
#X obj 21 301 s defaults;
#X obj 259 738 midi-toggle 9 2;
#X obj 146 761 metal~;
#X obj 259 825 ctlout 9 2;
#X obj 358 724 r defaults;
#X msg 358 744 0;
#X obj 497 243 r defaults;
#X connect 0 0 9 0;
#X connect 0 0 86 0;
#X connect 1 1 76 0;
#X connect 2 0 37 0;
#X connect 3 0 1 0;
#X connect 3 1 75 0;
#X connect 3 2 1 4;
#X connect 4 0 3 0;
#X connect 4 1 74 0;
#X connect 4 2 73 0;
#X connect 5 0 4 1;
#X connect 6 0 37 5;
#X connect 7 0 10 0;
#X connect 7 0 37 4;
#X connect 8 0 21 0;
#X connect 11 0 37 4;
#X connect 12 0 37 3;
#X connect 13 0 37 2;
#X connect 14 0 37 1;
#X connect 15 0 38 1;
#X connect 16 0 38 2;
#X connect 17 0 38 3;
#X connect 18 0 4 2;
#X connect 19 0 4 3;
#X connect 20 0 3 1;
#X connect 21 0 1 2;
#X connect 22 0 1 2;
#X connect 23 0 37 6;
#X connect 24 0 25 0;
#X connect 25 0 37 7;
#X connect 25 0 68 0;
#X connect 26 0 29 0;
#X connect 27 0 28 0;
#X connect 27 0 44 0;
#X connect 28 0 27 1;
#X connect 28 0 24 0;
#X connect 28 0 50 0;
#X connect 29 0 27 0;
#X connect 30 0 27 0;
#X connect 32 0 30 0;
#X connect 33 0 26 1;
#X connect 34 0 32 1;
#X connect 35 0 31 1;
#X connect 36 0 31 0;
#X connect 37 0 54 0;
#X connect 38 0 4 0;
#X connect 38 1 67 0;
#X connect 38 2 66 0;
#X connect 38 3 65 0;
#X connect 39 0 26 0;
#X connect 40 0 32 0;
#X connect 41 0 37 7;
#X connect 41 0 68 0;
#X connect 42 0 39 0;
#X connect 42 0 33 0;
#X connect 42 0 40 0;
#X connect 42 0 34 0;
#X connect 42 0 36 0;
#X connect 42 0 35 0;
#X connect 43 0 5 0;
#X connect 44 0 45 0;
#X connect 45 0 30 0;
#X connect 48 0 47 0;
#X connect 48 0 46 0;
#X connect 49 0 48 0;
#X connect 50 0 49 0;
#X connect 50 0 51 0;
#X connect 50 0 52 0;
#X connect 51 0 46 0;
#X connect 52 0 47 0;
#X connect 53 0 54 1;
#X connect 54 0 104 0;
#X connect 54 1 81 0;
#X connect 54 2 82 0;
#X connect 54 3 83 0;
#X connect 54 4 84 0;
#X connect 54 5 85 0;
#X connect 55 0 38 0;
#X connect 55 1 72 0;
#X connect 55 2 71 0;
#X connect 55 3 70 0;
#X connect 55 4 69 0;
#X connect 56 0 55 1;
#X connect 57 0 55 2;
#X connect 58 0 55 3;
#X connect 59 0 55 4;
#X connect 60 0 61 0;
#X connect 61 0 68 2;
#X connect 62 0 68 1;
#X connect 63 0 62 0;
#X connect 64 0 68 3;
#X connect 68 0 102 0;
#X connect 77 0 54 2;
#X connect 78 0 54 4;
#X connect 79 0 54 5;
#X connect 80 0 54 3;
#X connect 87 0 41 0;
#X connect 88 0 64 0;
#X connect 89 0 9 0;
#X connect 90 0 91 0;
#X connect 91 0 3 1;
#X connect 92 0 93 0;
#X connect 93 0 4 2;
#X connect 93 0 4 3;
#X connect 94 0 95 0;
#X connect 95 0 38 3;
#X connect 95 0 38 2;
#X connect 95 0 38 1;
#X connect 96 0 97 0;
#X connect 97 0 55 4;
#X connect 97 0 55 3;
#X connect 97 0 55 2;
#X connect 97 0 55 1;
#X connect 98 0 99 0;
#X connect 99 0 54 3;
#X connect 100 0 101 0;
#X connect 101 0 54 5;
#X connect 101 0 54 4;
#X connect 101 0 54 2;
#X connect 101 0 54 1;
#X connect 103 0 104 1;
#X connect 104 0 55 0;
#X connect 104 1 105 0;
#X connect 106 0 107 0;
#X connect 107 0 104 1;
#X connect 108 0 7 0;
