#N canvas 612 416 1726 816 10;
#X obj 21 14 loadbang-dsp;
#X obj 979 210 looper~;
#X obj 979 505 cosine-pan~;
#X obj 979 560 channel-out~;
#X obj 979 391 reverb~;
#X obj 979 279 7-sec-delay~;
#X obj 1262 193 makenote 127 1;
#X msg 1262 173 127;
#X obj 1262 152 loadbang;
#X obj 1352 193 ctlin 56 2;
#X obj 1108 543 ctlin 61 2;
#X obj 1175 543 ctlin 61 1;
#X obj 1107 488 ctlin 60 1;
#X obj 1108 374 ctlin 58 2;
#X obj 1174 374 ctlin 58 1;
#X obj 1240 374 ctlin 59 1;
#X obj 1418 193 ctlin 60 2;
#X obj 1109 262 ctlin 48 1;
#X obj 1175 262 ctlin 49 1;
#X obj 1241 262 ctlin 50 1;
#X obj 883 28 ctlin 57 1;
#X obj 57 66 adc~;
#X obj 184 66 adc~;
#X obj 312 66 adc~;
#X obj 440 66 adc~;
#X obj 568 66 adc~;
#X obj 696 66 adc~;
#X obj 184 84 channel-strip~ 2;
#X obj 57 84 channel-strip~ 0;
#X obj 312 84 channel-strip~ 16;
#X obj 440 84 channel-strip~ 18;
#X obj 568 84 channel-strip~ 32;
#X obj 696 84 channel-strip~ 34;
#X obj 883 50 sample-grid~ 48;
#X connect 1 0 5 0;
#X connect 2 0 3 0;
#X connect 2 1 3 3;
#X connect 4 0 2 0;
#X connect 5 0 4 0;
#X connect 6 0 1 2;
#X connect 7 0 6 0;
#X connect 8 0 7 0;
#X connect 9 0 1 1;
#X connect 10 0 3 1;
#X connect 11 0 3 2;
#X connect 12 0 2 1;
#X connect 13 0 4 1;
#X connect 14 0 4 2;
#X connect 15 0 4 3;
#X connect 16 0 1 3;
#X connect 17 0 5 1;
#X connect 18 0 5 2;
#X connect 19 0 5 3;
#X connect 20 0 33 0;
#X connect 21 0 28 0;
#X connect 22 0 27 0;
#X connect 23 0 29 0;
#X connect 24 0 30 0;
#X connect 25 0 31 0;
#X connect 26 0 32 0;
#X connect 33 0 1 0;
