#N canvas 1241 167 976 635 10;
#X obj 11 4 loadbang-dsp;
#X obj 56 56 adc~;
#X obj 183 56 adc~;
#X obj 311 56 adc~;
#X obj 439 56 adc~;
#X obj 567 56 adc~;
#X obj 695 56 adc~;
#X obj 183 74 channel-strip~ 2;
#X obj 56 74 channel-strip~ 0;
#X obj 311 74 channel-strip~ 16;
#X obj 439 74 channel-strip~ 18;
#X obj 567 74 channel-strip~ 32;
#X obj 695 74 channel-strip~ 34;
#X connect 1 0 8 0;
#X connect 2 0 7 0;
#X connect 3 0 9 0;
#X connect 4 0 10 0;
#X connect 5 0 11 0;
#X connect 6 0 12 0;
