#N canvas 364 70 976 635 10;
#X obj 3 -84 loadbang-dsp;
#X obj 16 56 adc~;
#X obj 143 56 adc~;
#X obj 271 56 adc~;
#X obj 399 56 adc~;
#X obj 527 56 adc~;
#X obj 655 56 adc~;
#X obj 16 74 channel-strip~ 0;
#X obj 143 74 channel-strip~ 2;
#X obj 271 74 channel-strip~ 16;
#X obj 399 74 channel-strip~ 18;
#X obj 527 74 channel-strip~ 32;
#X obj 655 74 channel-strip~ 34;
#X msg 781 37 \$1_1 \$1_2 \$1_3 \$1_4 \$1_5 \$1_6;
#X obj 781 57 unpack s s s s s s;
#X obj 770 -29 midi-toggle 4 11;
#X floatatom 770 -45 5 0 0 0 - - -;
#X floatatom 837 -45 5 0 0 0 - - -;
#X obj 692 -27 midi-toggle;
#X floatatom 692 -45 5 0 0 0 - - -;
#X floatatom 729 -45 5 0 0 0 - - -;
#X obj 750 14 +;
#X obj 781 14 int;
#X msg 730 -7 -1;
#X msg 770 -7 1;
#X connect 1 0 7 0;
#X connect 2 0 8 0;
#X connect 3 0 9 0;
#X connect 4 0 10 0;
#X connect 5 0 11 0;
#X connect 6 0 12 0;
#X connect 13 0 14 0;
#X connect 14 0 7 1;
#X connect 14 1 8 1;
#X connect 14 2 9 1;
#X connect 14 3 10 1;
#X connect 14 4 11 1;
#X connect 14 5 12 1;
#X connect 15 0 24 0;
#X connect 16 0 15 0;
#X connect 17 0 15 1;
#X connect 18 0 23 0;
#X connect 19 0 18 0;
#X connect 20 0 18 1;
#X connect 21 0 22 0;
#X connect 22 0 21 1;
#X connect 22 0 13 0;
#X connect 23 0 21 0;
#X connect 24 0 21 0;
