#N canvas 713 401 1726 816 10;
#X obj 21 14 loadbang-dsp;
#X obj 983 81 ctlin 48 2;
#X obj 1073 81 ctlin 49 2;
#X obj 1163 81 ctlin 50 2;
#X obj 1253 81 ctlin 51 2;
#X obj 983 301 sample-player~;
#X obj 983 282 ctlin 52 2;
#X obj 1073 282 ctlin 53 2;
#X obj 1163 282 ctlin 54 2;
#X obj 1253 282 ctlin 55 2;
#X obj 915 124 loadbang;
#X obj 983 100 sample-player~;
#X obj 1073 100 sample-player~;
#X obj 1163 100 sample-player~;
#X obj 1253 100 sample-player~;
#X obj 1073 301 sample-player~;
#X obj 1163 301 sample-player~;
#X obj 1253 301 sample-player~;
#X obj 1338 351 *~ 1;
#X obj 1338 150 *~ 1;
#X obj 1370 167 looper~;
#X obj 1370 462 cosine-pan~;
#X obj 1370 517 channel-out~;
#X obj 1370 348 reverb~;
#X obj 1370 236 7-sec-delay~;
#X obj 1445 144 makenote 127 1;
#X msg 1445 124 127;
#X obj 1445 103 loadbang;
#X obj 1540 150 ctlin 56 2;
#X obj 1493 500 ctlin 61 2;
#X obj 1560 500 ctlin 61 1;
#X obj 1492 445 ctlin 60 1;
#X obj 1493 331 ctlin 58 2;
#X obj 1559 331 ctlin 58 1;
#X obj 1625 331 ctlin 59 1;
#X obj 1606 150 ctlin 60 2;
#X obj 1494 218 ctlin 48 1;
#X obj 1560 218 ctlin 49 1;
#X obj 1626 218 ctlin 50 1;
#X obj 844 266 hsl 128 15 0 127 0 0 empty empty empty -2 -8 0 10 -262144
-1 -1 0 1;
#X msg 841 346 A_05 A_06 A_07 A_08;
#X msg 841 365 B_05 B_06 B_07 B_08;
#X obj 841 305 sel 0 32 64 96 127;
#X obj 841 311 bng 15 250 50 0 empty empty empty 17 7 0 10 -262144
-1 -1;
#X obj 859 329 bng 15 250 50 0 empty empty empty 17 7 0 10 -262144
-1 -1;
#X obj 841 284 unpack s s s s;
#X obj 878 327 bng 15 250 50 0 empty empty empty 17 7 0 10 -262144
-1 -1;
#X obj 897 327 bng 15 250 50 0 empty empty empty 17 7 0 10 -262144
-1 -1;
#X msg 841 384 C_05 C_06 C_07 C_08;
#X msg 841 403 D_05 D_06 D_07 D_08;
#X obj 844 65 hsl 128 15 0 127 0 0 empty empty empty -2 -8 0 10 -262144
-1 -1 0 1;
#X obj 841 104 sel 0 32 64 96 127;
#X obj 841 109 bng 15 250 50 0 empty empty empty 17 7 0 10 -262144
-1 -1;
#X obj 859 127 bng 15 250 50 0 empty empty empty 17 7 0 10 -262144
-1 -1;
#X obj 841 83 unpack s s s s;
#X obj 878 125 bng 15 250 50 0 empty empty empty 17 7 0 10 -262144
-1 -1;
#X obj 897 125 bng 15 250 50 0 empty empty empty 17 7 0 10 -262144
-1 -1;
#X obj 916 326 loadbang;
#X obj 841 40 ctlin 57 1;
#X msg 841 144 A_01 A_02 A_03 A_04;
#X msg 841 163 B_01 B_02 B_03 B_04;
#X msg 841 182 C_01 C_02 C_03 C_04;
#X msg 841 201 D_01 D_02 D_03 D_04;
#X obj 57 66 adc~;
#X obj 184 66 adc~;
#X obj 312 66 adc~;
#X obj 440 66 adc~;
#X obj 568 66 adc~;
#X obj 696 66 adc~;
#X obj 184 84 channel-strip~ 2;
#X obj 57 84 channel-strip~ 0;
#X obj 312 84 channel-strip~ 16;
#X obj 440 84 channel-strip~ 18;
#X obj 568 84 channel-strip~ 32;
#X obj 696 84 channel-strip~ 34;
#X connect 1 0 11 0;
#X connect 2 0 12 0;
#X connect 3 0 13 0;
#X connect 4 0 14 0;
#X connect 5 0 18 0;
#X connect 6 0 5 0;
#X connect 7 0 15 0;
#X connect 8 0 16 0;
#X connect 9 0 17 0;
#X connect 10 0 52 0;
#X connect 11 0 19 0;
#X connect 12 0 19 0;
#X connect 13 0 19 0;
#X connect 14 0 19 0;
#X connect 15 0 18 0;
#X connect 16 0 18 0;
#X connect 17 0 18 0;
#X connect 18 0 20 0;
#X connect 19 0 20 0;
#X connect 20 0 24 0;
#X connect 21 0 22 0;
#X connect 21 1 22 3;
#X connect 23 0 21 0;
#X connect 24 0 23 0;
#X connect 25 0 20 2;
#X connect 26 0 25 0;
#X connect 27 0 26 0;
#X connect 28 0 20 1;
#X connect 29 0 22 1;
#X connect 30 0 22 2;
#X connect 31 0 21 1;
#X connect 32 0 23 1;
#X connect 33 0 23 2;
#X connect 34 0 23 3;
#X connect 35 0 20 3;
#X connect 36 0 24 1;
#X connect 37 0 24 2;
#X connect 38 0 24 3;
#X connect 39 0 42 0;
#X connect 40 0 45 0;
#X connect 41 0 45 0;
#X connect 42 0 43 0;
#X connect 42 1 44 0;
#X connect 42 2 46 0;
#X connect 42 3 47 0;
#X connect 43 0 40 0;
#X connect 44 0 41 0;
#X connect 45 0 5 1;
#X connect 45 1 15 1;
#X connect 45 2 16 1;
#X connect 45 3 17 1;
#X connect 46 0 48 0;
#X connect 47 0 49 0;
#X connect 48 0 45 0;
#X connect 49 0 45 0;
#X connect 50 0 51 0;
#X connect 51 0 52 0;
#X connect 51 1 53 0;
#X connect 51 2 55 0;
#X connect 51 3 56 0;
#X connect 52 0 59 0;
#X connect 53 0 60 0;
#X connect 54 0 11 1;
#X connect 54 1 12 1;
#X connect 54 2 13 1;
#X connect 54 3 14 1;
#X connect 55 0 61 0;
#X connect 56 0 62 0;
#X connect 57 0 43 0;
#X connect 58 0 50 0;
#X connect 58 0 39 0;
#X connect 59 0 54 0;
#X connect 60 0 54 0;
#X connect 61 0 54 0;
#X connect 62 0 54 0;
#X connect 63 0 70 0;
#X connect 64 0 69 0;
#X connect 65 0 71 0;
#X connect 66 0 72 0;
#X connect 67 0 73 0;
#X connect 68 0 74 0;
