#N canvas 415 132 1726 816 10;
#X obj 21 14 loadbang-dsp;
#X obj 1075 312 makenote 127 1;
#X msg 1075 292 127;
#X obj 1075 271 loadbang;
#X obj 1001 311 ctlin 56 2;
#X obj 1383 411 ctlin 58 2;
#X obj 1449 411 ctlin 58 1;
#X obj 1515 411 ctlin 59 1;
#X obj 1167 312 ctlin 60 2;
#X obj 883 28 ctlin 57 1;
#X obj 57 66 adc~;
#X obj 184 66 adc~;
#X obj 312 66 adc~;
#X obj 440 66 adc~;
#X obj 568 66 adc~;
#X obj 696 66 adc~;
#X obj 184 84 channel-strip~ 2;
#X obj 57 84 channel-strip~ 0;
#X obj 312 84 channel-strip~ 16;
#X obj 440 84 channel-strip~ 18;
#X obj 568 84 channel-strip~ 32;
#X obj 696 84 channel-strip~ 34;
#X obj 883 50 sample-grid~ 48;
#X obj 1253 192 cosine-pan~;
#X obj 1366 175 ctlin 60 1;
#X obj 869 326 stereo-looper~;
#X obj 1386 293 ctlin 48 1;
#X obj 1452 293 ctlin 49 1;
#X obj 1518 293 ctlin 50 1;
#X obj 1254 309 stereo-delay~;
#X obj 1254 428 stereo-reverb~;
#X obj 869 397 channel-out~;
#X obj 1254 245 channel-out~;
#X obj 1396 229 ctlin 61 1;
#X obj 998 380 ctlin 62 2;
#X obj 1065 380 ctlin 62 1;
#X obj 867 283 r~ sampler-post-left;
#X obj 867 303 r~ sampler-post-right;
#X obj 1254 538 s~ sampler-post-right;
#X obj 1255 556 s~ sampler-post-left;
#X connect 1 0 25 2;
#X connect 2 0 1 0;
#X connect 3 0 2 0;
#X connect 4 0 25 1;
#X connect 5 0 30 1;
#X connect 6 0 30 2;
#X connect 7 0 30 3;
#X connect 8 0 25 3;
#X connect 9 0 22 0;
#X connect 10 0 17 0;
#X connect 11 0 16 0;
#X connect 12 0 18 0;
#X connect 13 0 19 0;
#X connect 14 0 20 0;
#X connect 15 0 21 0;
#X connect 22 0 23 0;
#X connect 23 0 32 0;
#X connect 23 1 32 4;
#X connect 24 0 23 1;
#X connect 25 0 31 0;
#X connect 25 1 31 4;
#X connect 26 0 29 1;
#X connect 27 0 29 2;
#X connect 28 0 29 3;
#X connect 29 0 30 0;
#X connect 29 1 30 4;
#X connect 30 0 39 0;
#X connect 30 1 38 0;
#X connect 32 0 29 0;
#X connect 32 1 29 5;
#X connect 33 0 32 2;
#X connect 34 0 31 1;
#X connect 35 0 31 2;
#X connect 36 0 25 0;
#X connect 37 0 25 4;
