#N canvas 1143 67 1089 894 10;
#X obj 136 157 ctlin 48 2;
#X msg 150 176 symbol A_01;
#X obj 226 157 ctlin 49 2;
#X obj 316 157 ctlin 50 2;
#X obj 406 157 ctlin 51 2;
#X msg 240 176 symbol A_02;
#X msg 330 176 symbol A_03;
#X msg 420 176 symbol A_04;
#X obj 136 302 sample-player~;
#X obj 136 264 ctlin 52 2;
#X obj 226 264 ctlin 53 2;
#X obj 316 264 ctlin 54 2;
#X obj 406 264 ctlin 55 2;
#X msg 150 283 symbol A_05;
#X msg 240 283 symbol A_06;
#X msg 330 283 symbol A_07;
#X msg 420 283 symbol A_08;
#X obj 499 139 loadbang;
#X obj 499 268 bng 15 250 50 0 empty empty empty 17 7 0 10 -262144
-1 -1;
#X obj 136 195 sample-player~;
#X obj 226 195 sample-player~;
#X obj 316 195 sample-player~;
#X obj 406 195 sample-player~;
#X obj 226 302 sample-player~;
#X obj 316 302 sample-player~;
#X obj 406 302 sample-player~;
#X obj 517 351 *~ 1;
#X obj 508 244 *~ 1;
#X obj 499 161 bng 15 250 50 0 empty empty empty 17 7 0 10 -262144
-1 -1;
#X obj 553 185 looper~;
#X obj 553 515 cosine-pan~;
#X obj 553 570 channel-out~;
#X obj 553 401 reverb~;
#X obj 553 272 7-sec-delay~;
#X obj 628 162 makenote 127 1;
#X msg 628 142 127;
#X obj 628 121 loadbang;
#X obj 723 168 ctlin 56 2;
#X obj 676 553 ctlin 61 2;
#X obj 743 463 ctlin 61 1;
#X obj 679 498 ctlin 60 1;
#X obj 558 384 ctlin 58 2;
#X obj 624 384 ctlin 58 1;
#X obj 690 384 ctlin 59 1;
#X obj 789 168 ctlin 60 2;
#X obj 558 253 ctlin 48 1;
#X obj 624 253 ctlin 49 1;
#X obj 690 253 ctlin 50 1;
#X obj -33 8 loadbang-dsp;
#X connect 0 0 19 0;
#X connect 1 0 19 1;
#X connect 2 0 20 0;
#X connect 3 0 21 0;
#X connect 4 0 22 0;
#X connect 5 0 20 1;
#X connect 6 0 21 1;
#X connect 7 0 22 1;
#X connect 8 0 26 0;
#X connect 9 0 8 0;
#X connect 10 0 23 0;
#X connect 11 0 24 0;
#X connect 12 0 25 0;
#X connect 13 0 8 1;
#X connect 14 0 23 1;
#X connect 15 0 24 1;
#X connect 16 0 25 1;
#X connect 17 0 28 0;
#X connect 18 0 16 0;
#X connect 18 0 15 0;
#X connect 18 0 14 0;
#X connect 18 0 13 0;
#X connect 19 0 27 0;
#X connect 20 0 27 0;
#X connect 21 0 27 0;
#X connect 22 0 27 0;
#X connect 23 0 26 0;
#X connect 24 0 26 0;
#X connect 25 0 26 0;
#X connect 26 0 29 0;
#X connect 27 0 29 0;
#X connect 28 0 7 0;
#X connect 28 0 6 0;
#X connect 28 0 5 0;
#X connect 28 0 1 0;
#X connect 28 0 18 0;
#X connect 29 0 33 0;
#X connect 30 0 31 0;
#X connect 30 1 31 3;
#X connect 32 0 30 0;
#X connect 33 0 32 0;
#X connect 34 0 29 2;
#X connect 35 0 34 0;
#X connect 36 0 35 0;
#X connect 37 0 29 1;
#X connect 38 0 31 1;
#X connect 39 0 31 2;
#X connect 40 0 30 1;
#X connect 41 0 32 1;
#X connect 42 0 32 2;
#X connect 43 0 32 3;
#X connect 44 0 29 3;
#X connect 45 0 33 1;
#X connect 46 0 33 2;
#X connect 47 0 33 3;
