#N canvas 220 89 1629 634 10;
#X obj 21 14 loadbang-dsp;
#X obj 48 48 adc~;
#X obj 175 48 adc~;
#X obj 303 48 adc~;
#X obj 431 48 adc~;
#X obj 559 48 adc~;
#X obj 687 48 adc~;
#X obj 48 66 stereo-channel~ 0;
#X obj 175 66 stereo-channel~ 2;
#X obj 303 66 stereo-channel~ 16;
#X obj 431 66 stereo-channel~ 18;
#X obj 559 66 stereo-channel~ 32;
#X obj 687 66 stereo-channel~ 34;
#X obj 1043 309 makenote 127 1;
#X msg 1043 289 127;
#X obj 1043 268 loadbang;
#X obj 969 308 ctlin 56 2;
#X obj 1351 408 ctlin 58 2;
#X obj 1417 408 ctlin 58 1;
#X obj 1483 408 ctlin 59 1;
#X obj 1135 309 ctlin 60 2;
#X obj 851 25 ctlin 57 1;
#X obj 851 47 sample-grid~ 48;
#X obj 1221 189 cosine-pan~;
#X obj 1334 172 ctlin 60 1;
#X obj 837 323 stereo-looper~;
#X obj 1354 290 ctlin 48 1;
#X obj 1420 290 ctlin 49 1;
#X obj 1486 290 ctlin 50 1;
#X obj 1222 306 stereo-delay~;
#X obj 1222 425 stereo-reverb~;
#X obj 837 394 channel-out~;
#X obj 1222 242 channel-out~;
#X obj 1364 226 ctlin 61 1;
#X obj 966 377 ctlin 62 2;
#X obj 1033 377 ctlin 62 1;
#X obj 835 280 r~ sampler-post-left;
#X obj 835 300 r~ sampler-post-right;
#X obj 1222 535 s~ sampler-post-right;
#X obj 1223 553 s~ sampler-post-left;
#X connect 1 0 7 0;
#X connect 2 0 8 0;
#X connect 3 0 9 0;
#X connect 4 0 10 0;
#X connect 5 0 11 0;
#X connect 6 0 12 0;
#X connect 13 0 25 2;
#X connect 14 0 13 0;
#X connect 15 0 14 0;
#X connect 16 0 25 1;
#X connect 17 0 30 1;
#X connect 18 0 30 2;
#X connect 19 0 30 3;
#X connect 20 0 25 3;
#X connect 21 0 22 0;
#X connect 22 0 23 0;
#X connect 23 0 32 0;
#X connect 23 1 32 4;
#X connect 24 0 23 1;
#X connect 25 0 31 0;
#X connect 25 1 31 4;
#X connect 26 0 29 1;
#X connect 27 0 29 2;
#X connect 28 0 29 3;
#X connect 29 0 30 0;
#X connect 29 1 30 4;
#X connect 30 0 39 0;
#X connect 30 1 38 0;
#X connect 32 0 29 0;
#X connect 32 1 29 5;
#X connect 33 0 32 2;
#X connect 34 0 31 1;
#X connect 35 0 31 2;
#X connect 36 0 25 0;
#X connect 37 0 25 4;
