#N canvas 524 180 1726 816 10;
#X obj 21 14 loadbang-dsp;
#X obj 49 77 cosine-pan~;
#X obj 49 566 channel-out~;
#X obj 100 131 ctlin 0 2;
#X obj 50 152 ctlin 1 2;
#X obj 109 547 ctlin 13 1;
#X obj 44 547 ctlin 13 2;
#X obj 104 60 ctlin 12 1;
#X obj 49 419 ctlin 8 2;
#X obj 49 401 ctlin 8 1;
#X obj 109 419 ctlin 9 1;
#X obj 51 242 ctlin 1 1;
#X obj 112 243 ctlin 4 1;
#X obj 51 262 ctlin 5 1;
#X obj 112 263 ctlin 5 2;
#X obj 110 152 ctlin 12 2;
#X obj 179 77 cosine-pan~;
#X obj 179 566 channel-out~;
#X obj 230 131 ctlin 2 2;
#X obj 179 150 ctlin 3 2;
#X obj 240 152 ctlin 14 2;
#X obj 181 243 ctlin 3 1;
#X obj 242 244 ctlin 6 1;
#X obj 181 263 ctlin 7 1;
#X obj 242 264 ctlin 7 2;
#X obj 179 399 ctlin 10 1;
#X obj 179 417 ctlin 10 2;
#X obj 239 417 ctlin 11 1;
#X obj 234 59 ctlin 14 1;
#X obj 174 548 ctlin 15 2;
#X obj 239 548 ctlin 15 1;
#X obj 309 77 cosine-pan~;
#X obj 309 566 channel-out~;
#X obj 439 77 cosine-pan~;
#X obj 439 566 channel-out~;
#X obj 360 131 ctlin 16 2;
#X obj 309 150 ctlin 17 2;
#X obj 370 152 ctlin 28 2;
#X obj 311 243 ctlin 17 1;
#X obj 372 244 ctlin 20 1;
#X obj 311 263 ctlin 21 1;
#X obj 372 264 ctlin 31 2;
#X obj 309 399 ctlin 24 1;
#X obj 309 417 ctlin 24 2;
#X obj 369 417 ctlin 25 1;
#X obj 364 59 ctlin 28 1;
#X obj 304 548 ctlin 29 2;
#X obj 369 548 ctlin 29 1;
#X obj 490 131 ctlin 18 2;
#X obj 439 150 ctlin 19 2;
#X obj 500 152 ctlin 30 2;
#X obj 441 243 ctlin 19 1;
#X obj 502 244 ctlin 22 1;
#X obj 441 263 ctlin 23 1;
#X obj 502 264 ctlin 23 2;
#X obj 439 399 ctlin 26 1;
#X obj 439 417 ctlin 26 2;
#X obj 499 417 ctlin 27 1;
#X obj 494 59 ctlin 30 1;
#X obj 434 548 ctlin 31 2;
#X obj 499 548 ctlin 31 1;
#X obj 569 77 cosine-pan~;
#X obj 569 566 channel-out~;
#X obj 699 77 cosine-pan~;
#X obj 699 566 channel-out~;
#X obj 620 131 ctlin 32 2;
#X obj 569 150 ctlin 33 2;
#X obj 630 152 ctlin 44 2;
#X obj 571 243 ctlin 33 1;
#X obj 632 244 ctlin 36 1;
#X obj 571 263 ctlin 37 1;
#X obj 632 264 ctlin 37 2;
#X obj 569 399 ctlin 40 1;
#X obj 569 417 ctlin 40 2;
#X obj 629 417 ctlin 41 1;
#X obj 624 59 ctlin 44 1;
#X obj 564 548 ctlin 45 2;
#X obj 629 548 ctlin 45 1;
#X obj 750 131 ctlin 34 2;
#X obj 699 150 ctlin 35 2;
#X obj 760 152 ctlin 46 2;
#X obj 701 243 ctlin 35 1;
#X obj 762 244 ctlin 38 1;
#X obj 701 263 ctlin 39 1;
#X obj 762 264 ctlin 39 2;
#X obj 699 399 ctlin 42 1;
#X obj 699 417 ctlin 42 2;
#X obj 759 417 ctlin 43 1;
#X obj 754 59 ctlin 46 1;
#X obj 694 548 ctlin 47 2;
#X obj 759 548 ctlin 47 1;
#X obj 983 81 ctlin 48 2;
#X obj 1073 81 ctlin 49 2;
#X obj 1163 81 ctlin 50 2;
#X obj 1253 81 ctlin 51 2;
#X obj 983 301 sample-player~;
#X obj 983 282 ctlin 52 2;
#X obj 1073 282 ctlin 53 2;
#X obj 1163 282 ctlin 54 2;
#X obj 1253 282 ctlin 55 2;
#X obj 915 124 loadbang;
#X obj 983 100 sample-player~;
#X obj 1073 100 sample-player~;
#X obj 1163 100 sample-player~;
#X obj 1253 100 sample-player~;
#X obj 1073 301 sample-player~;
#X obj 1163 301 sample-player~;
#X obj 1253 301 sample-player~;
#X obj 1338 351 *~ 1;
#X obj 1338 150 *~ 1;
#X obj 1371 167 cosine-pan~;
#X obj 1371 571 channel-out~;
#X obj 1496 203 makenote 127 1;
#X msg 1496 183 127;
#X obj 1496 162 loadbang;
#X obj 1586 203 ctlin 56 2;
#X obj 1494 553 ctlin 61 2;
#X obj 1561 553 ctlin 61 1;
#X obj 1484 139 ctlin 60 1;
#X obj 1494 440 ctlin 58 2;
#X obj 1560 440 ctlin 58 1;
#X obj 1626 440 ctlin 59 1;
#X obj 1652 203 ctlin 60 2;
#X obj 1495 327 ctlin 48 1;
#X obj 1561 327 ctlin 49 1;
#X obj 1627 327 ctlin 50 1;
#X obj 844 266 hsl 128 15 0 127 0 0 empty empty empty -2 -8 0 10 -262144
-1 -1 0 1;
#X msg 841 346 A_05 A_06 A_07 A_08;
#X msg 841 365 B_05 B_06 B_07 B_08;
#X obj 841 305 sel 0 32 64 96 127;
#X obj 841 311 bng 15 250 50 0 empty empty empty 17 7 0 10 -262144
-1 -1;
#X obj 859 329 bng 15 250 50 0 empty empty empty 17 7 0 10 -262144
-1 -1;
#X obj 841 284 unpack s s s s;
#X obj 878 327 bng 15 250 50 0 empty empty empty 17 7 0 10 -262144
-1 -1;
#X obj 897 327 bng 15 250 50 0 empty empty empty 17 7 0 10 -262144
-1 -1;
#X msg 841 384 C_05 C_06 C_07 C_08;
#X msg 841 403 D_05 D_06 D_07 D_08;
#X obj 844 65 hsl 128 15 0 127 0 0 empty empty empty -2 -8 0 10 -262144
-1 -1 0 1;
#X obj 841 104 sel 0 32 64 96 127;
#X obj 841 109 bng 15 250 50 0 empty empty empty 17 7 0 10 -262144
-1 -1;
#X obj 859 127 bng 15 250 50 0 empty empty empty 17 7 0 10 -262144
-1 -1;
#X obj 841 83 unpack s s s s;
#X obj 878 125 bng 15 250 50 0 empty empty empty 17 7 0 10 -262144
-1 -1;
#X obj 897 125 bng 15 250 50 0 empty empty empty 17 7 0 10 -262144
-1 -1;
#X obj 916 326 loadbang;
#X obj 841 40 ctlin 57 1;
#X msg 841 144 A_01 A_02 A_03 A_04;
#X msg 841 163 B_01 B_02 B_03 B_04;
#X msg 841 182 C_01 C_02 C_03 C_04;
#X msg 841 201 D_01 D_02 D_03 D_04;
#X obj 49 173 stereo-looper~;
#X obj 49 437 stereo-reverb~;
#X obj 179 435 stereo-reverb~;
#X obj 309 435 stereo-reverb~;
#X obj 439 435 stereo-reverb~;
#X obj 569 435 stereo-reverb~;
#X obj 699 435 stereo-reverb~;
#X obj 49 60 adc~;
#X obj 179 60 adc~;
#X obj 309 60 adc~;
#X obj 439 60 adc~;
#X obj 569 60 adc~;
#X obj 699 60 adc~;
#X obj 1371 457 stereo-reverb~;
#X obj 179 173 stereo-looper~;
#X obj 309 173 stereo-looper~;
#X obj 439 173 stereo-looper~;
#X obj 569 173 stereo-looper~;
#X obj 699 173 stereo-looper~;
#X obj 1371 276 stereo-looper~;
#X obj 49 282 stereo-delay~;
#X obj 179 284 stereo-delay~;
#X obj 309 284 stereo-delay~;
#X obj 439 284 stereo-delay~;
#X obj 569 284 stereo-delay~;
#X obj 699 284 stereo-delay~;
#X obj 1371 345 stereo-delay~;
#X connect 1 0 150 0;
#X connect 1 1 150 4;
#X connect 3 0 150 1;
#X connect 4 0 150 2;
#X connect 5 0 2 2;
#X connect 6 0 2 1;
#X connect 7 0 1 1;
#X connect 8 0 151 1;
#X connect 9 0 151 2;
#X connect 10 0 151 3;
#X connect 11 0 170 1;
#X connect 12 0 170 2;
#X connect 13 0 170 3;
#X connect 14 0 170 4;
#X connect 15 0 150 3;
#X connect 16 0 164 0;
#X connect 16 1 164 4;
#X connect 18 0 164 1;
#X connect 19 0 164 2;
#X connect 20 0 164 3;
#X connect 21 0 171 1;
#X connect 22 0 171 2;
#X connect 23 0 171 3;
#X connect 24 0 171 4;
#X connect 25 0 152 2;
#X connect 26 0 152 1;
#X connect 27 0 152 3;
#X connect 28 0 16 1;
#X connect 29 0 17 1;
#X connect 30 0 17 2;
#X connect 31 0 165 0;
#X connect 31 1 165 4;
#X connect 33 0 166 0;
#X connect 33 1 166 4;
#X connect 35 0 165 1;
#X connect 36 0 165 2;
#X connect 37 0 165 3;
#X connect 38 0 172 1;
#X connect 39 0 172 2;
#X connect 40 0 172 3;
#X connect 41 0 172 4;
#X connect 42 0 153 2;
#X connect 43 0 153 1;
#X connect 44 0 153 3;
#X connect 45 0 31 1;
#X connect 46 0 32 1;
#X connect 47 0 32 2;
#X connect 48 0 166 1;
#X connect 49 0 166 2;
#X connect 50 0 166 3;
#X connect 51 0 173 1;
#X connect 52 0 173 2;
#X connect 53 0 173 3;
#X connect 54 0 173 4;
#X connect 55 0 154 2;
#X connect 56 0 154 1;
#X connect 57 0 154 3;
#X connect 58 0 33 1;
#X connect 59 0 34 1;
#X connect 60 0 34 2;
#X connect 61 0 167 0;
#X connect 61 1 167 4;
#X connect 63 0 168 0;
#X connect 63 1 168 4;
#X connect 65 0 167 1;
#X connect 66 0 167 2;
#X connect 67 0 167 3;
#X connect 68 0 174 1;
#X connect 69 0 174 2;
#X connect 70 0 174 3;
#X connect 71 0 174 4;
#X connect 72 0 155 2;
#X connect 73 0 155 1;
#X connect 74 0 155 3;
#X connect 75 0 61 1;
#X connect 76 0 62 1;
#X connect 77 0 62 2;
#X connect 78 0 168 1;
#X connect 79 0 168 2;
#X connect 80 0 168 3;
#X connect 81 0 175 1;
#X connect 82 0 175 2;
#X connect 83 0 175 3;
#X connect 84 0 175 4;
#X connect 85 0 156 2;
#X connect 86 0 156 1;
#X connect 87 0 156 3;
#X connect 88 0 63 1;
#X connect 89 0 64 1;
#X connect 90 0 64 2;
#X connect 91 0 101 0;
#X connect 92 0 102 0;
#X connect 93 0 103 0;
#X connect 94 0 104 0;
#X connect 95 0 108 0;
#X connect 96 0 95 0;
#X connect 97 0 105 0;
#X connect 98 0 106 0;
#X connect 99 0 107 0;
#X connect 100 0 139 0;
#X connect 101 0 109 0;
#X connect 102 0 109 0;
#X connect 103 0 109 0;
#X connect 104 0 109 0;
#X connect 105 0 108 0;
#X connect 106 0 108 0;
#X connect 107 0 108 0;
#X connect 108 0 110 0;
#X connect 109 0 110 0;
#X connect 110 0 169 0;
#X connect 110 1 169 4;
#X connect 112 0 169 2;
#X connect 113 0 112 0;
#X connect 114 0 113 0;
#X connect 115 0 169 1;
#X connect 116 0 111 1;
#X connect 117 0 111 2;
#X connect 118 0 110 1;
#X connect 119 0 163 1;
#X connect 120 0 163 2;
#X connect 121 0 163 3;
#X connect 122 0 169 3;
#X connect 123 0 176 1;
#X connect 124 0 176 2;
#X connect 125 0 176 3;
#X connect 126 0 129 0;
#X connect 127 0 132 0;
#X connect 128 0 132 0;
#X connect 129 0 130 0;
#X connect 129 1 131 0;
#X connect 129 2 133 0;
#X connect 129 3 134 0;
#X connect 130 0 127 0;
#X connect 131 0 128 0;
#X connect 132 0 95 1;
#X connect 132 1 105 1;
#X connect 132 2 106 1;
#X connect 132 3 107 1;
#X connect 133 0 135 0;
#X connect 134 0 136 0;
#X connect 135 0 132 0;
#X connect 136 0 132 0;
#X connect 137 0 138 0;
#X connect 138 0 139 0;
#X connect 138 1 140 0;
#X connect 138 2 142 0;
#X connect 138 3 143 0;
#X connect 139 0 146 0;
#X connect 140 0 147 0;
#X connect 141 0 101 1;
#X connect 141 1 102 1;
#X connect 141 2 103 1;
#X connect 141 3 104 1;
#X connect 142 0 148 0;
#X connect 143 0 149 0;
#X connect 144 0 130 0;
#X connect 145 0 137 0;
#X connect 145 0 126 0;
#X connect 146 0 141 0;
#X connect 147 0 141 0;
#X connect 148 0 141 0;
#X connect 149 0 141 0;
#X connect 150 0 170 0;
#X connect 150 1 170 5;
#X connect 151 0 2 0;
#X connect 151 1 2 4;
#X connect 152 0 17 0;
#X connect 152 1 17 4;
#X connect 153 0 32 0;
#X connect 153 1 32 4;
#X connect 154 0 34 0;
#X connect 154 1 34 4;
#X connect 155 0 62 0;
#X connect 155 1 62 4;
#X connect 156 0 64 0;
#X connect 156 1 64 4;
#X connect 157 0 1 0;
#X connect 158 0 16 0;
#X connect 159 0 31 0;
#X connect 160 0 33 0;
#X connect 161 0 61 0;
#X connect 162 0 63 0;
#X connect 163 0 111 0;
#X connect 163 1 111 4;
#X connect 164 0 171 0;
#X connect 164 1 171 5;
#X connect 165 0 172 0;
#X connect 165 1 172 5;
#X connect 166 0 173 0;
#X connect 166 1 173 5;
#X connect 167 0 174 0;
#X connect 167 1 174 5;
#X connect 168 0 175 0;
#X connect 168 1 175 5;
#X connect 169 0 176 0;
#X connect 169 1 176 5;
#X connect 170 0 151 0;
#X connect 170 1 151 4;
#X connect 171 0 152 0;
#X connect 171 1 152 4;
#X connect 172 0 153 0;
#X connect 172 1 153 4;
#X connect 173 0 154 0;
#X connect 173 1 154 4;
#X connect 174 0 155 0;
#X connect 174 1 155 4;
#X connect 175 0 156 0;
#X connect 175 1 156 4;
#X connect 176 0 163 0;
#X connect 176 1 163 4;
